<?xml version="1.0" encoding="utf-8"?>
<svg xmlns="http://www.w3.org/2000/svg" xmlns:xlink="http://www.w3.org/1999/xlink" width="480" height="384" viewBox="0 0 1920 1536">
<defs>
  <clipPath id="clip050">
    <rect x="0" y="0" width="1920" height="1536"/>
  </clipPath>
</defs>
<path clip-path="url(#clip050)" d="M0 1536 L1920 1536 L1920 0 L0 0  Z" fill="#ffffff" fill-rule="evenodd" fill-opacity="1"/>
<defs>
  <clipPath id="clip051">
    <rect x="224" y="135" width="1650" height="1209"/>
  </clipPath>
</defs>
<path clip-path="url(#clip050)" d="M215.45 1343.4 L1872.76 1343.4 L1872.76 135.568 L215.45 135.568  Z" fill="#ffffff" fill-rule="evenodd" fill-opacity="1"/>
<defs>
  <clipPath id="clip052">
    <rect x="215" y="135" width="1658" height="1209"/>
  </clipPath>
</defs>
<polyline clip-path="url(#clip052)" style="stroke:#000000; stroke-linecap:round; stroke-linejoin:round; stroke-width:2; stroke-opacity:0.1; fill:none" points="320.545,1343.4 320.545,135.568 "/>
<polyline clip-path="url(#clip052)" style="stroke:#000000; stroke-linecap:round; stroke-linejoin:round; stroke-width:2; stroke-opacity:0.1; fill:none" points="621.194,1343.4 621.194,135.568 "/>
<polyline clip-path="url(#clip052)" style="stroke:#000000; stroke-linecap:round; stroke-linejoin:round; stroke-width:2; stroke-opacity:0.1; fill:none" points="921.843,1343.4 921.843,135.568 "/>
<polyline clip-path="url(#clip052)" style="stroke:#000000; stroke-linecap:round; stroke-linejoin:round; stroke-width:2; stroke-opacity:0.1; fill:none" points="1222.49,1343.4 1222.49,135.568 "/>
<polyline clip-path="url(#clip052)" style="stroke:#000000; stroke-linecap:round; stroke-linejoin:round; stroke-width:2; stroke-opacity:0.1; fill:none" points="1523.14,1343.4 1523.14,135.568 "/>
<polyline clip-path="url(#clip052)" style="stroke:#000000; stroke-linecap:round; stroke-linejoin:round; stroke-width:2; stroke-opacity:0.1; fill:none" points="1823.79,1343.4 1823.79,135.568 "/>
<polyline clip-path="url(#clip052)" style="stroke:#000000; stroke-linecap:round; stroke-linejoin:round; stroke-width:2; stroke-opacity:0.1; fill:none" points="215.45,1341.81 1872.76,1341.81 "/>
<polyline clip-path="url(#clip052)" style="stroke:#000000; stroke-linecap:round; stroke-linejoin:round; stroke-width:2; stroke-opacity:0.1; fill:none" points="215.45,1041.17 1872.76,1041.17 "/>
<polyline clip-path="url(#clip052)" style="stroke:#000000; stroke-linecap:round; stroke-linejoin:round; stroke-width:2; stroke-opacity:0.1; fill:none" points="215.45,740.516 1872.76,740.516 "/>
<polyline clip-path="url(#clip052)" style="stroke:#000000; stroke-linecap:round; stroke-linejoin:round; stroke-width:2; stroke-opacity:0.1; fill:none" points="215.45,439.867 1872.76,439.867 "/>
<polyline clip-path="url(#clip052)" style="stroke:#000000; stroke-linecap:round; stroke-linejoin:round; stroke-width:2; stroke-opacity:0.1; fill:none" points="215.45,139.218 1872.76,139.218 "/>
<polyline clip-path="url(#clip050)" style="stroke:#000000; stroke-linecap:round; stroke-linejoin:round; stroke-width:4; stroke-opacity:1; fill:none" points="215.45,1343.4 1872.76,1343.4 "/>
<polyline clip-path="url(#clip050)" style="stroke:#000000; stroke-linecap:round; stroke-linejoin:round; stroke-width:4; stroke-opacity:1; fill:none" points="320.545,1343.4 320.545,1324.51 "/>
<polyline clip-path="url(#clip050)" style="stroke:#000000; stroke-linecap:round; stroke-linejoin:round; stroke-width:4; stroke-opacity:1; fill:none" points="621.194,1343.4 621.194,1324.51 "/>
<polyline clip-path="url(#clip050)" style="stroke:#000000; stroke-linecap:round; stroke-linejoin:round; stroke-width:4; stroke-opacity:1; fill:none" points="921.843,1343.4 921.843,1324.51 "/>
<polyline clip-path="url(#clip050)" style="stroke:#000000; stroke-linecap:round; stroke-linejoin:round; stroke-width:4; stroke-opacity:1; fill:none" points="1222.49,1343.4 1222.49,1324.51 "/>
<polyline clip-path="url(#clip050)" style="stroke:#000000; stroke-linecap:round; stroke-linejoin:round; stroke-width:4; stroke-opacity:1; fill:none" points="1523.14,1343.4 1523.14,1324.51 "/>
<polyline clip-path="url(#clip050)" style="stroke:#000000; stroke-linecap:round; stroke-linejoin:round; stroke-width:4; stroke-opacity:1; fill:none" points="1823.79,1343.4 1823.79,1324.51 "/>
<path clip-path="url(#clip050)" d="M290.013 1385.14 L319.689 1385.14 L319.689 1389.07 L290.013 1389.07 L290.013 1385.14 Z" fill="#000000" fill-rule="nonzero" fill-opacity="1" /><path clip-path="url(#clip050)" d="M343.948 1383.33 Q347.304 1384.05 349.179 1386.32 Q351.077 1388.58 351.077 1391.92 Q351.077 1397.03 347.559 1399.83 Q344.04 1402.64 337.559 1402.64 Q335.383 1402.64 333.068 1402.2 Q330.776 1401.78 328.323 1400.92 L328.323 1396.41 Q330.267 1397.54 332.582 1398.12 Q334.897 1398.7 337.42 1398.7 Q341.818 1398.7 344.11 1396.96 Q346.424 1395.23 346.424 1391.92 Q346.424 1388.86 344.272 1387.15 Q342.142 1385.41 338.323 1385.41 L334.295 1385.41 L334.295 1381.57 L338.508 1381.57 Q341.957 1381.57 343.786 1380.2 Q345.614 1378.82 345.614 1376.22 Q345.614 1373.56 343.716 1372.15 Q341.841 1370.71 338.323 1370.71 Q336.401 1370.71 334.202 1371.13 Q332.003 1371.55 329.364 1372.43 L329.364 1368.26 Q332.026 1367.52 334.341 1367.15 Q336.679 1366.78 338.739 1366.78 Q344.063 1366.78 347.165 1369.21 Q350.267 1371.62 350.267 1375.74 Q350.267 1378.61 348.624 1380.6 Q346.98 1382.57 343.948 1383.33 Z" fill="#000000" fill-rule="nonzero" fill-opacity="1" /><path clip-path="url(#clip050)" d="M591.136 1385.14 L620.812 1385.14 L620.812 1389.07 L591.136 1389.07 L591.136 1385.14 Z" fill="#000000" fill-rule="nonzero" fill-opacity="1" /><path clip-path="url(#clip050)" d="M634.932 1398.03 L651.252 1398.03 L651.252 1401.96 L629.307 1401.96 L629.307 1398.03 Q631.969 1395.27 636.553 1390.64 Q641.159 1385.99 642.34 1384.65 Q644.585 1382.13 645.465 1380.39 Q646.368 1378.63 646.368 1376.94 Q646.368 1374.19 644.423 1372.45 Q642.502 1370.71 639.4 1370.71 Q637.201 1370.71 634.747 1371.48 Q632.317 1372.24 629.539 1373.79 L629.539 1369.07 Q632.363 1367.94 634.817 1367.36 Q637.27 1366.78 639.307 1366.78 Q644.678 1366.78 647.872 1369.46 Q651.067 1372.15 651.067 1376.64 Q651.067 1378.77 650.256 1380.69 Q649.469 1382.59 647.363 1385.18 Q646.784 1385.85 643.682 1389.07 Q640.581 1392.26 634.932 1398.03 Z" fill="#000000" fill-rule="nonzero" fill-opacity="1" /><path clip-path="url(#clip050)" d="M891.6 1385.14 L921.276 1385.14 L921.276 1389.07 L891.6 1389.07 L891.6 1385.14 Z" fill="#000000" fill-rule="nonzero" fill-opacity="1" /><path clip-path="url(#clip050)" d="M932.179 1398.03 L939.818 1398.03 L939.818 1371.66 L931.508 1373.33 L931.508 1369.07 L939.771 1367.4 L944.447 1367.4 L944.447 1398.03 L952.086 1398.03 L952.086 1401.96 L932.179 1401.96 L932.179 1398.03 Z" fill="#000000" fill-rule="nonzero" fill-opacity="1" /><path clip-path="url(#clip050)" d="M1222.49 1370.48 Q1218.88 1370.48 1217.05 1374.05 Q1215.25 1377.59 1215.25 1384.72 Q1215.25 1391.83 1217.05 1395.39 Q1218.88 1398.93 1222.49 1398.93 Q1226.13 1398.93 1227.93 1395.39 Q1229.76 1391.83 1229.76 1384.72 Q1229.76 1377.59 1227.93 1374.05 Q1226.13 1370.48 1222.49 1370.48 M1222.49 1366.78 Q1228.3 1366.78 1231.36 1371.39 Q1234.44 1375.97 1234.44 1384.72 Q1234.44 1393.45 1231.36 1398.05 Q1228.3 1402.64 1222.49 1402.64 Q1216.68 1402.64 1213.6 1398.05 Q1210.55 1393.45 1210.55 1384.72 Q1210.55 1375.97 1213.6 1371.39 Q1216.68 1366.78 1222.49 1366.78 Z" fill="#000000" fill-rule="nonzero" fill-opacity="1" /><path clip-path="url(#clip050)" d="M1513.52 1398.03 L1521.16 1398.03 L1521.16 1371.66 L1512.85 1373.33 L1512.85 1369.07 L1521.12 1367.4 L1525.79 1367.4 L1525.79 1398.03 L1533.43 1398.03 L1533.43 1401.96 L1513.52 1401.96 L1513.52 1398.03 Z" fill="#000000" fill-rule="nonzero" fill-opacity="1" /><path clip-path="url(#clip050)" d="M1818.44 1398.03 L1834.76 1398.03 L1834.76 1401.96 L1812.82 1401.96 L1812.82 1398.03 Q1815.48 1395.27 1820.06 1390.64 Q1824.67 1385.99 1825.85 1384.65 Q1828.1 1382.13 1828.98 1380.39 Q1829.88 1378.63 1829.88 1376.94 Q1829.88 1374.19 1827.93 1372.45 Q1826.01 1370.71 1822.91 1370.71 Q1820.71 1370.71 1818.26 1371.48 Q1815.83 1372.24 1813.05 1373.79 L1813.05 1369.07 Q1815.87 1367.94 1818.33 1367.36 Q1820.78 1366.78 1822.82 1366.78 Q1828.19 1366.78 1831.38 1369.46 Q1834.58 1372.15 1834.58 1376.64 Q1834.58 1378.77 1833.77 1380.69 Q1832.98 1382.59 1830.87 1385.18 Q1830.3 1385.85 1827.19 1389.07 Q1824.09 1392.26 1818.44 1398.03 Z" fill="#000000" fill-rule="nonzero" fill-opacity="1" /><path clip-path="url(#clip050)" d="M997.617 1445.42 L984.727 1462.77 L998.286 1481.07 L991.379 1481.07 L981.003 1467.06 L970.627 1481.07 L963.72 1481.07 L977.565 1462.42 L964.898 1445.42 L971.804 1445.42 L981.257 1458.12 L990.711 1445.42 L997.617 1445.42 Z" fill="#000000" fill-rule="nonzero" fill-opacity="1" /><path clip-path="url(#clip050)" d="M1008.06 1472.98 L1014.77 1472.98 L1014.77 1478.46 L1009.55 1488.64 L1005.45 1488.64 L1008.06 1478.46 L1008.06 1472.98 Z" fill="#000000" fill-rule="nonzero" fill-opacity="1" /><path clip-path="url(#clip050)" d="M1047.78 1445.42 L1053.6 1445.42 L1053.6 1462.16 L1070.12 1445.42 L1077.32 1445.42 L1063.69 1459.2 L1079.07 1481.07 L1072.51 1481.07 L1059.87 1463.08 L1053.6 1469.45 L1053.6 1481.07 L1047.78 1481.07 L1047.78 1445.42 Z" fill="#000000" fill-rule="nonzero" fill-opacity="1" /><path clip-path="url(#clip050)" d="M1087.15 1445.42 L1095.71 1445.42 L1105.83 1469.29 L1115.99 1445.42 L1124.49 1445.42 L1124.49 1481.07 L1118.6 1481.07 L1118.6 1451.02 L1108.76 1474.22 L1102.91 1474.22 L1093.04 1451.02 L1093.04 1481.07 L1087.15 1481.07 L1087.15 1445.42 Z" fill="#000000" fill-rule="nonzero" fill-opacity="1" /><polyline clip-path="url(#clip050)" style="stroke:#000000; stroke-linecap:round; stroke-linejoin:round; stroke-width:4; stroke-opacity:1; fill:none" points="215.45,1343.4 215.45,135.568 "/>
<polyline clip-path="url(#clip050)" style="stroke:#000000; stroke-linecap:round; stroke-linejoin:round; stroke-width:4; stroke-opacity:1; fill:none" points="215.45,1341.81 234.348,1341.81 "/>
<polyline clip-path="url(#clip050)" style="stroke:#000000; stroke-linecap:round; stroke-linejoin:round; stroke-width:4; stroke-opacity:1; fill:none" points="215.45,1041.17 234.348,1041.17 "/>
<polyline clip-path="url(#clip050)" style="stroke:#000000; stroke-linecap:round; stroke-linejoin:round; stroke-width:4; stroke-opacity:1; fill:none" points="215.45,740.516 234.348,740.516 "/>
<polyline clip-path="url(#clip050)" style="stroke:#000000; stroke-linecap:round; stroke-linejoin:round; stroke-width:4; stroke-opacity:1; fill:none" points="215.45,439.867 234.348,439.867 "/>
<polyline clip-path="url(#clip050)" style="stroke:#000000; stroke-linecap:round; stroke-linejoin:round; stroke-width:4; stroke-opacity:1; fill:none" points="215.45,139.218 234.348,139.218 "/>
<path clip-path="url(#clip050)" d="M126.164 1342.27 L155.84 1342.27 L155.84 1346.2 L126.164 1346.2 L126.164 1342.27 Z" fill="#000000" fill-rule="nonzero" fill-opacity="1" /><path clip-path="url(#clip050)" d="M166.743 1355.16 L174.381 1355.16 L174.381 1328.79 L166.071 1330.46 L166.071 1326.2 L174.335 1324.53 L179.011 1324.53 L179.011 1355.16 L186.65 1355.16 L186.65 1359.09 L166.743 1359.09 L166.743 1355.16 Z" fill="#000000" fill-rule="nonzero" fill-opacity="1" /><path clip-path="url(#clip050)" d="M174.706 1026.96 Q171.094 1026.96 169.266 1030.53 Q167.46 1034.07 167.46 1041.2 Q167.46 1048.31 169.266 1051.87 Q171.094 1055.41 174.706 1055.41 Q178.34 1055.41 180.145 1051.87 Q181.974 1048.31 181.974 1041.2 Q181.974 1034.07 180.145 1030.53 Q178.34 1026.96 174.706 1026.96 M174.706 1023.26 Q180.516 1023.26 183.571 1027.87 Q186.65 1032.45 186.65 1041.2 Q186.65 1049.93 183.571 1054.53 Q180.516 1059.12 174.706 1059.12 Q168.895 1059.12 165.817 1054.53 Q162.761 1049.93 162.761 1041.2 Q162.761 1032.45 165.817 1027.87 Q168.895 1023.26 174.706 1023.26 Z" fill="#000000" fill-rule="nonzero" fill-opacity="1" /><path clip-path="url(#clip050)" d="M166.743 753.861 L174.381 753.861 L174.381 727.495 L166.071 729.162 L166.071 724.903 L174.335 723.236 L179.011 723.236 L179.011 753.861 L186.65 753.861 L186.65 757.796 L166.743 757.796 L166.743 753.861 Z" fill="#000000" fill-rule="nonzero" fill-opacity="1" /><path clip-path="url(#clip050)" d="M170.331 453.212 L186.65 453.212 L186.65 457.147 L164.706 457.147 L164.706 453.212 Q167.368 450.457 171.951 445.828 Q176.557 441.175 177.738 439.832 Q179.983 437.309 180.863 435.573 Q181.766 433.814 181.766 432.124 Q181.766 429.369 179.821 427.633 Q177.9 425.897 174.798 425.897 Q172.599 425.897 170.145 426.661 Q167.715 427.425 164.937 428.976 L164.937 424.254 Q167.761 423.12 170.215 422.541 Q172.669 421.962 174.706 421.962 Q180.076 421.962 183.27 424.647 Q186.465 427.332 186.465 431.823 Q186.465 433.953 185.655 435.874 Q184.868 437.772 182.761 440.365 Q182.182 441.036 179.081 444.254 Q175.979 447.448 170.331 453.212 Z" fill="#000000" fill-rule="nonzero" fill-opacity="1" /><path clip-path="url(#clip050)" d="M179.52 137.864 Q182.877 138.581 184.752 140.85 Q186.65 143.118 186.65 146.452 Q186.65 151.567 183.131 154.368 Q179.613 157.169 173.131 157.169 Q170.956 157.169 168.641 156.729 Q166.349 156.313 163.895 155.456 L163.895 150.942 Q165.84 152.077 168.155 152.655 Q170.469 153.234 172.993 153.234 Q177.391 153.234 179.682 151.498 Q181.997 149.762 181.997 146.452 Q181.997 143.396 179.844 141.683 Q177.715 139.947 173.895 139.947 L169.868 139.947 L169.868 136.105 L174.081 136.105 Q177.53 136.105 179.358 134.739 Q181.187 133.35 181.187 130.757 Q181.187 128.095 179.289 126.683 Q177.414 125.248 173.895 125.248 Q171.974 125.248 169.775 125.665 Q167.576 126.081 164.937 126.961 L164.937 122.794 Q167.599 122.054 169.914 121.683 Q172.252 121.313 174.312 121.313 Q179.636 121.313 182.738 123.744 Q185.84 126.151 185.84 130.271 Q185.84 133.142 184.196 135.132 Q182.553 137.1 179.52 137.864 Z" fill="#000000" fill-rule="nonzero" fill-opacity="1" /><path clip-path="url(#clip050)" d="M86.4183 800.804 Q92.784 803.286 94.7256 805.642 Q96.6671 807.997 96.6671 811.944 L96.6671 816.622 L91.7655 816.622 L91.7655 813.185 Q91.7655 810.766 90.6197 809.429 Q89.4739 808.092 85.2088 806.469 L82.5352 805.419 L47.4602 819.837 L47.4602 813.631 L75.342 802.491 L47.4602 791.351 L47.4602 785.144 L86.4183 800.804 Z" fill="#000000" fill-rule="nonzero" fill-opacity="1" /><path clip-path="url(#clip050)" d="M75.0237 775.564 L75.0237 768.848 L80.4982 768.848 L90.6833 774.068 L90.6833 778.174 L80.4982 775.564 L75.0237 775.564 Z" fill="#000000" fill-rule="nonzero" fill-opacity="1" /><path clip-path="url(#clip050)" d="M47.4602 735.842 L47.4602 730.017 L64.202 730.017 L47.4602 713.498 L47.4602 706.305 L61.242 719.927 L83.1082 704.554 L83.1082 711.111 L65.125 723.747 L71.4907 730.017 L83.1082 730.017 L83.1082 735.842 L47.4602 735.842 Z" fill="#000000" fill-rule="nonzero" fill-opacity="1" /><path clip-path="url(#clip050)" d="M47.4602 696.47 L47.4602 687.908 L71.3316 677.786 L47.4602 667.633 L47.4602 659.135 L83.1082 659.135 L83.1082 665.023 L53.062 665.023 L76.265 674.858 L76.265 680.715 L53.062 690.581 L83.1082 690.581 L83.1082 696.47 L47.4602 696.47 Z" fill="#000000" fill-rule="nonzero" fill-opacity="1" /><path clip-path="url(#clip050)" d="M271.251 11.0023 Q281.216 11.0023 287.536 15.2557 Q293.855 19.4686 293.855 26.6793 Q293.855 31.7024 290.979 35.1862 Q288.103 38.6294 282.796 39.9662 Q288.67 41.222 291.951 45.1919 Q295.273 49.1618 295.273 54.9951 Q295.273 64.3122 288.062 69.0517 Q280.892 73.7508 271.251 73.7508 Q266.309 73.7508 260.557 72.414 Q254.804 71.0772 253.022 69.9429 L253.022 61.517 Q259.22 65.1223 262.623 66.0135 Q266.066 66.8642 271.089 66.8642 Q278.705 66.8642 282.918 63.9476 Q287.131 61.0309 287.131 54.9951 Q287.131 49.6479 283.363 46.6502 Q279.637 43.612 271.737 43.612 L263.473 43.612 L263.473 36.8875 L272.061 36.8875 Q279.312 36.8875 282.513 34.4975 Q285.713 32.067 285.713 27.5299 Q285.713 22.8714 282.391 20.4004 Q279.11 17.8888 271.089 17.8888 Q265.661 17.8888 263.797 18.3749 Q261.934 18.861 253.63 21.9802 L253.63 13.9999 Q258.207 12.3796 262.987 11.6909 Q267.767 11.0023 271.251 11.0023 Z" fill="#000000" fill-rule="nonzero" fill-opacity="1" /><path clip-path="url(#clip050)" d="M329.179 49.7694 Q320.146 49.7694 316.662 51.8354 Q313.178 53.9013 313.178 58.8839 Q313.178 62.8538 315.771 65.2034 Q318.404 67.5124 322.9 67.5124 Q329.098 67.5124 332.825 63.1374 Q336.592 58.7219 336.592 51.4303 L336.592 49.7694 L329.179 49.7694 M344.046 46.6907 L344.046 72.576 L336.592 72.576 L336.592 65.6895 Q334.04 69.8214 330.232 71.8063 Q326.424 73.7508 320.915 73.7508 Q313.948 73.7508 309.816 69.8619 Q305.724 65.9325 305.724 59.3701 Q305.724 51.7138 310.828 47.825 Q315.973 43.9361 326.141 43.9361 L336.592 43.9361 L336.592 43.2069 Q336.592 38.0623 333.189 35.2672 Q329.827 32.4315 323.71 32.4315 Q319.822 32.4315 316.135 33.3632 Q312.449 34.295 309.046 36.1584 L309.046 29.2718 Q313.138 27.692 316.986 26.9223 Q320.834 26.1121 324.48 26.1121 Q334.324 26.1121 339.185 31.2163 Q344.046 36.3204 344.046 46.6907 Z" fill="#000000" fill-rule="nonzero" fill-opacity="1" /><path clip-path="url(#clip050)" d="M369.526 66.6212 L391.158 66.6212 L391.158 33.1607 L375.481 33.1607 L375.481 38.832 Q375.481 55.5217 370.701 64.4337 L369.526 66.6212 M358.71 66.6212 Q362.397 65.0008 364.017 61.5575 Q367.987 53.0101 367.987 35.7938 L367.987 27.2059 L398.652 27.2059 L398.652 66.6212 L404.607 66.6212 L404.607 84.0401 L398.652 84.0401 L398.652 72.576 L361.87 72.576 L361.87 84.0401 L355.915 84.0401 L355.915 66.6212 L358.71 66.6212 Z" fill="#000000" fill-rule="nonzero" fill-opacity="1" /><path clip-path="url(#clip050)" d="M437.379 49.7694 Q428.345 49.7694 424.861 51.8354 Q421.378 53.9013 421.378 58.8839 Q421.378 62.8538 423.97 65.2034 Q426.603 67.5124 431.1 67.5124 Q437.298 67.5124 441.025 63.1374 Q444.792 58.7219 444.792 51.4303 L444.792 49.7694 L437.379 49.7694 M452.246 46.6907 L452.246 72.576 L444.792 72.576 L444.792 65.6895 Q442.24 69.8214 438.432 71.8063 Q434.624 73.7508 429.115 73.7508 Q422.147 73.7508 418.015 69.8619 Q413.924 65.9325 413.924 59.3701 Q413.924 51.7138 419.028 47.825 Q424.173 43.9361 434.341 43.9361 L444.792 43.9361 L444.792 43.2069 Q444.792 38.0623 441.389 35.2672 Q438.027 32.4315 431.91 32.4315 Q428.021 32.4315 424.335 33.3632 Q420.649 34.295 417.246 36.1584 L417.246 29.2718 Q421.337 27.692 425.186 26.9223 Q429.034 26.1121 432.68 26.1121 Q442.523 26.1121 447.384 31.2163 Q452.246 36.3204 452.246 46.6907 Z" fill="#000000" fill-rule="nonzero" fill-opacity="1" /><path clip-path="url(#clip050)" d="M493.808 72.576 L493.808 53.4962 L479.913 53.4962 Q473.715 53.4962 469.583 49.6479 Q465.857 46.1641 465.857 38.7104 L465.857 27.2059 L473.31 27.2059 L473.31 38.0218 Q473.31 42.7613 475.417 45.1514 Q477.564 47.5414 481.777 47.5414 L493.808 47.5414 L493.808 27.2059 L501.262 27.2059 L501.262 72.576 L493.808 72.576 Z" fill="#000000" fill-rule="nonzero" fill-opacity="1" /><path clip-path="url(#clip050)" d="M537.234 49.7694 Q528.2 49.7694 524.716 51.8354 Q521.232 53.9013 521.232 58.8839 Q521.232 62.8538 523.825 65.2034 Q526.458 67.5124 530.955 67.5124 Q537.153 67.5124 540.879 63.1374 Q544.647 58.7219 544.647 51.4303 L544.647 49.7694 L537.234 49.7694 M552.1 46.6907 L552.1 72.576 L544.647 72.576 L544.647 65.6895 Q542.095 69.8214 538.287 71.8063 Q534.479 73.7508 528.97 73.7508 Q522.002 73.7508 517.87 69.8619 Q513.779 65.9325 513.779 59.3701 Q513.779 51.7138 518.883 47.825 Q524.028 43.9361 534.195 43.9361 L544.647 43.9361 L544.647 43.2069 Q544.647 38.0623 541.244 35.2672 Q537.882 32.4315 531.765 32.4315 Q527.876 32.4315 524.19 33.3632 Q520.503 34.295 517.101 36.1584 L517.101 29.2718 Q521.192 27.692 525.04 26.9223 Q528.889 26.1121 532.534 26.1121 Q542.378 26.1121 547.239 31.2163 Q552.1 36.3204 552.1 46.6907 Z" fill="#000000" fill-rule="nonzero" fill-opacity="1" /><path clip-path="url(#clip050)" d="M632.713 27.2059 L632.713 72.576 L625.219 72.576 L625.219 33.1607 L601.035 33.1607 L601.035 72.576 L593.541 72.576 L593.541 27.2059 L632.713 27.2059 Z" fill="#000000" fill-rule="nonzero" fill-opacity="1" /><path clip-path="url(#clip050)" d="M655.277 65.7705 L655.277 89.8329 L647.783 89.8329 L647.783 27.2059 L655.277 27.2059 L655.277 34.0924 Q657.626 30.0415 661.191 28.0971 Q664.797 26.1121 669.779 26.1121 Q678.043 26.1121 683.188 32.6746 Q688.373 39.2371 688.373 49.9314 Q688.373 60.6258 683.188 67.1883 Q678.043 73.7508 669.779 73.7508 Q664.797 73.7508 661.191 71.8063 Q657.626 69.8214 655.277 65.7705 M680.636 49.9314 Q680.636 41.7081 677.233 37.0496 Q673.871 32.3505 667.956 32.3505 Q662.042 32.3505 658.639 37.0496 Q655.277 41.7081 655.277 49.9314 Q655.277 58.1548 658.639 62.8538 Q662.042 67.5124 667.956 67.5124 Q673.871 67.5124 677.233 62.8538 Q680.636 58.1548 680.636 49.9314 Z" fill="#000000" fill-rule="nonzero" fill-opacity="1" /><path clip-path="url(#clip050)" d="M739.536 48.0275 L739.536 51.6733 L705.265 51.6733 Q705.751 59.3701 709.883 63.421 Q714.056 67.4314 721.469 67.4314 Q725.763 67.4314 729.773 66.3781 Q733.824 65.3249 737.794 63.2184 L737.794 70.267 Q733.783 71.9684 729.57 72.8596 Q725.358 73.7508 721.023 73.7508 Q710.167 73.7508 703.807 67.4314 Q697.487 61.1119 697.487 50.3365 Q697.487 39.1965 703.483 32.6746 Q709.518 26.1121 719.727 26.1121 Q728.882 26.1121 734.188 32.0264 Q739.536 37.9003 739.536 48.0275 M732.082 45.84 Q732.001 39.7232 728.639 36.0774 Q725.317 32.4315 719.808 32.4315 Q713.569 32.4315 709.802 35.9558 Q706.075 39.4801 705.508 45.8805 L732.082 45.84 Z" fill="#000000" fill-rule="nonzero" fill-opacity="1" /><path clip-path="url(#clip050)" d="M784.42 28.9478 L784.42 35.9153 Q781.26 34.1734 778.06 33.3227 Q774.9 32.4315 771.659 32.4315 Q764.408 32.4315 760.398 37.0496 Q756.387 41.6271 756.387 49.9314 Q756.387 58.2358 760.398 62.8538 Q764.408 67.4314 771.659 67.4314 Q774.9 67.4314 778.06 66.5807 Q781.26 65.6895 784.42 63.9476 L784.42 70.8341 Q781.301 72.2924 777.938 73.0216 Q774.617 73.7508 770.849 73.7508 Q760.6 73.7508 754.565 67.3098 Q748.529 60.8689 748.529 49.9314 Q748.529 38.832 754.605 32.472 Q760.722 26.1121 771.335 26.1121 Q774.779 26.1121 778.06 26.8413 Q781.341 27.5299 784.42 28.9478 Z" fill="#000000" fill-rule="nonzero" fill-opacity="1" /><path clip-path="url(#clip050)" d="M792.643 72.576 L792.643 66.3781 Q800.016 65.2439 802.284 60.1397 Q805.039 52.9696 805.039 34.619 L805.039 27.2059 L835.704 27.2059 L835.704 72.576 L828.25 72.576 L828.25 33.1607 L812.492 33.1607 L812.492 37.6572 Q812.492 55.1571 808.928 63.0159 Q805.12 71.4012 792.643 72.576 Z" fill="#000000" fill-rule="nonzero" fill-opacity="1" /><path clip-path="url(#clip050)" d="M889.217 48.0275 L889.217 51.6733 L854.946 51.6733 Q855.432 59.3701 859.564 63.421 Q863.736 67.4314 871.15 67.4314 Q875.444 67.4314 879.454 66.3781 Q883.505 65.3249 887.475 63.2184 L887.475 70.267 Q883.464 71.9684 879.251 72.8596 Q875.038 73.7508 870.704 73.7508 Q859.848 73.7508 853.488 67.4314 Q847.168 61.1119 847.168 50.3365 Q847.168 39.1965 853.164 32.6746 Q859.199 26.1121 869.408 26.1121 Q878.563 26.1121 883.869 32.0264 Q889.217 37.9003 889.217 48.0275 M881.763 45.84 Q881.682 39.7232 878.32 36.0774 Q874.998 32.4315 869.489 32.4315 Q863.25 32.4315 859.483 35.9558 Q855.756 39.4801 855.189 45.8805 L881.763 45.84 Z" fill="#000000" fill-rule="nonzero" fill-opacity="1" /><path clip-path="url(#clip050)" d="M911.578 66.6212 L933.209 66.6212 L933.209 33.1607 L917.532 33.1607 L917.532 38.832 Q917.532 55.5217 912.752 64.4337 L911.578 66.6212 M900.762 66.6212 Q904.448 65.0008 906.068 61.5575 Q910.038 53.0101 910.038 35.7938 L910.038 27.2059 L940.704 27.2059 L940.704 66.6212 L946.658 66.6212 L946.658 84.0401 L940.704 84.0401 L940.704 72.576 L903.921 72.576 L903.921 84.0401 L897.967 84.0401 L897.967 66.6212 L900.762 66.6212 Z" fill="#000000" fill-rule="nonzero" fill-opacity="1" /><path clip-path="url(#clip050)" d="M976.392 32.4315 Q970.397 32.4315 966.913 37.1306 Q963.429 41.7891 963.429 49.9314 Q963.429 58.0738 966.872 62.7728 Q970.356 67.4314 976.392 67.4314 Q982.347 67.4314 985.831 62.7323 Q989.314 58.0333 989.314 49.9314 Q989.314 41.8701 985.831 37.1711 Q982.347 32.4315 976.392 32.4315 M976.392 26.1121 Q986.114 26.1121 991.664 32.4315 Q997.214 38.7509 997.214 49.9314 Q997.214 61.0714 991.664 67.4314 Q986.114 73.7508 976.392 73.7508 Q966.629 73.7508 961.08 67.4314 Q955.57 61.0714 955.57 49.9314 Q955.57 38.7509 961.08 32.4315 Q966.629 26.1121 976.392 26.1121 Z" fill="#000000" fill-rule="nonzero" fill-opacity="1" /><path clip-path="url(#clip050)" d="M1016.74 51.6733 L1016.74 66.6212 L1027.35 66.6212 Q1032.46 66.6212 1035.13 64.7172 Q1037.8 62.7728 1037.8 59.127 Q1037.8 55.4812 1035.13 53.5773 Q1032.46 51.6733 1027.35 51.6733 L1016.74 51.6733 M1016.74 33.1607 L1016.74 45.7185 L1026.54 45.7185 Q1030.76 45.7185 1033.43 44.0576 Q1036.1 42.3563 1036.1 39.3586 Q1036.1 36.3609 1033.43 34.7811 Q1030.76 33.1607 1026.54 33.1607 L1016.74 33.1607 M1009.29 27.2059 L1027.03 27.2059 Q1035.01 27.2059 1039.3 30.1225 Q1043.6 33.0392 1043.6 38.4269 Q1043.6 42.5993 1041.41 45.0704 Q1039.22 47.5009 1034.93 48.1085 Q1040.07 49.0808 1042.91 52.1594 Q1045.74 55.2381 1045.74 59.8562 Q1045.74 65.9325 1041.04 69.2543 Q1036.39 72.576 1027.72 72.576 L1009.29 72.576 L1009.29 27.2059 Z" fill="#000000" fill-rule="nonzero" fill-opacity="1" /><path clip-path="url(#clip050)" d="M1079.08 49.7694 Q1070.05 49.7694 1066.57 51.8354 Q1063.08 53.9013 1063.08 58.8839 Q1063.08 62.8538 1065.67 65.2034 Q1068.31 67.5124 1072.8 67.5124 Q1079 67.5124 1082.73 63.1374 Q1086.5 58.7219 1086.5 51.4303 L1086.5 49.7694 L1079.08 49.7694 M1093.95 46.6907 L1093.95 72.576 L1086.5 72.576 L1086.5 65.6895 Q1083.94 69.8214 1080.14 71.8063 Q1076.33 73.7508 1070.82 73.7508 Q1063.85 73.7508 1059.72 69.8619 Q1055.63 65.9325 1055.63 59.3701 Q1055.63 51.7138 1060.73 47.825 Q1065.88 43.9361 1076.04 43.9361 L1086.5 43.9361 L1086.5 43.2069 Q1086.5 38.0623 1083.09 35.2672 Q1079.73 32.4315 1073.61 32.4315 Q1069.72 32.4315 1066.04 33.3632 Q1062.35 34.295 1058.95 36.1584 L1058.95 29.2718 Q1063.04 27.692 1066.89 26.9223 Q1070.74 26.1121 1074.38 26.1121 Q1084.23 26.1121 1089.09 31.2163 Q1093.95 36.3204 1093.95 46.6907 Z" fill="#000000" fill-rule="nonzero" fill-opacity="1" /><path clip-path="url(#clip050)" d="M1109.02 27.2059 L1116.51 27.2059 L1116.51 45.7185 L1140.7 45.7185 L1140.7 27.2059 L1148.19 27.2059 L1148.19 72.576 L1140.7 72.576 L1140.7 51.6733 L1116.51 51.6733 L1116.51 72.576 L1109.02 72.576 L1109.02 27.2059 Z" fill="#000000" fill-rule="nonzero" fill-opacity="1" /><path clip-path="url(#clip050)" d="M1202.11 27.2059 L1202.11 72.576 L1194.7 72.576 L1194.7 36.1584 L1172.82 72.576 L1163.26 72.576 L1163.26 27.2059 L1170.67 27.2059 L1170.67 63.5425 L1192.51 27.2059 L1202.11 27.2059 Z" fill="#000000" fill-rule="nonzero" fill-opacity="1" /><path clip-path="url(#clip050)" d="M1224.96 40.2903 Q1224.96 43.6525 1227.55 45.5565 Q1230.14 47.4604 1234.96 47.4604 L1245.01 47.4604 L1245.01 33.1607 L1234.96 33.1607 Q1230.14 33.1607 1227.55 35.0241 Q1224.96 36.8875 1224.96 40.2903 M1214.34 72.576 L1228.2 52.6861 Q1223.5 51.6328 1220.38 48.8782 Q1217.26 46.0831 1217.26 40.2903 Q1217.26 33.7278 1221.59 30.4871 Q1225.97 27.2059 1234.76 27.2059 L1252.5 27.2059 L1252.5 72.576 L1245.01 72.576 L1245.01 53.4152 L1235.73 53.4152 L1222.36 72.576 L1214.34 72.576 Z" fill="#000000" fill-rule="nonzero" fill-opacity="1" /><path clip-path="url(#clip050)" d="M1311.64 9.62495 Q1306.22 18.942 1303.58 28.0566 Q1300.95 37.1711 1300.95 46.5287 Q1300.95 55.8863 1303.58 65.0818 Q1306.26 74.2369 1311.64 83.5134 L1305.16 83.5134 Q1299.09 73.9938 1296.05 64.7983 Q1293.05 55.6027 1293.05 46.5287 Q1293.05 37.4952 1296.05 28.3401 Q1299.05 19.1851 1305.16 9.62495 L1311.64 9.62495 Z" fill="#000000" fill-rule="nonzero" fill-opacity="1" /><path clip-path="url(#clip050)" d="M1333.28 51.6733 L1333.28 66.6212 L1343.89 66.6212 Q1348.99 66.6212 1351.67 64.7172 Q1354.34 62.7728 1354.34 59.127 Q1354.34 55.4812 1351.67 53.5773 Q1348.99 51.6733 1343.89 51.6733 L1333.28 51.6733 M1333.28 33.1607 L1333.28 45.7185 L1343.08 45.7185 Q1347.29 45.7185 1349.97 44.0576 Q1352.64 42.3563 1352.64 39.3586 Q1352.64 36.3609 1349.97 34.7811 Q1347.29 33.1607 1343.08 33.1607 L1333.28 33.1607 M1325.82 27.2059 L1343.57 27.2059 Q1351.55 27.2059 1355.84 30.1225 Q1360.13 33.0392 1360.13 38.4269 Q1360.13 42.5993 1357.95 45.0704 Q1355.76 47.5009 1351.47 48.1085 Q1356.61 49.0808 1359.45 52.1594 Q1362.28 55.2381 1362.28 59.8562 Q1362.28 65.9325 1357.58 69.2543 Q1352.92 72.576 1344.25 72.576 L1325.82 72.576 L1325.82 27.2059 Z" fill="#000000" fill-rule="nonzero" fill-opacity="1" /><path clip-path="url(#clip050)" d="M1395.62 49.7694 Q1386.59 49.7694 1383.1 51.8354 Q1379.62 53.9013 1379.62 58.8839 Q1379.62 62.8538 1382.21 65.2034 Q1384.84 67.5124 1389.34 67.5124 Q1395.54 67.5124 1399.27 63.1374 Q1403.03 58.7219 1403.03 51.4303 L1403.03 49.7694 L1395.62 49.7694 M1410.49 46.6907 L1410.49 72.576 L1403.03 72.576 L1403.03 65.6895 Q1400.48 69.8214 1396.67 71.8063 Q1392.87 73.7508 1387.36 73.7508 Q1380.39 73.7508 1376.26 69.8619 Q1372.17 65.9325 1372.17 59.3701 Q1372.17 51.7138 1377.27 47.825 Q1382.41 43.9361 1392.58 43.9361 L1403.03 43.9361 L1403.03 43.2069 Q1403.03 38.0623 1399.63 35.2672 Q1396.27 32.4315 1390.15 32.4315 Q1386.26 32.4315 1382.58 33.3632 Q1378.89 34.295 1375.49 36.1584 L1375.49 29.2718 Q1379.58 27.692 1383.43 26.9223 Q1387.28 26.1121 1390.92 26.1121 Q1400.76 26.1121 1405.63 31.2163 Q1410.49 36.3204 1410.49 46.6907 Z" fill="#000000" fill-rule="nonzero" fill-opacity="1" /><path clip-path="url(#clip050)" d="M1433.05 65.7705 L1433.05 89.8329 L1425.56 89.8329 L1425.56 27.2059 L1433.05 27.2059 L1433.05 34.0924 Q1435.4 30.0415 1438.96 28.0971 Q1442.57 26.1121 1447.55 26.1121 Q1455.82 26.1121 1460.96 32.6746 Q1466.15 39.2371 1466.15 49.9314 Q1466.15 60.6258 1460.96 67.1883 Q1455.82 73.7508 1447.55 73.7508 Q1442.57 73.7508 1438.96 71.8063 Q1435.4 69.8214 1433.05 65.7705 M1458.41 49.9314 Q1458.41 41.7081 1455.01 37.0496 Q1451.64 32.3505 1445.73 32.3505 Q1439.82 32.3505 1436.41 37.0496 Q1433.05 41.7081 1433.05 49.9314 Q1433.05 58.1548 1436.41 62.8538 Q1439.82 67.5124 1445.73 67.5124 Q1451.64 67.5124 1455.01 62.8538 Q1458.41 58.1548 1458.41 49.9314 Z" fill="#000000" fill-rule="nonzero" fill-opacity="1" /><path clip-path="url(#clip050)" d="M1517.07 27.2059 L1517.07 72.576 L1509.65 72.576 L1509.65 36.1584 L1487.78 72.576 L1478.22 72.576 L1478.22 27.2059 L1485.63 27.2059 L1485.63 63.5425 L1507.47 27.2059 L1517.07 27.2059 Z" fill="#000000" fill-rule="nonzero" fill-opacity="1" /><path clip-path="url(#clip050)" d="M1553.04 49.7694 Q1544 49.7694 1540.52 51.8354 Q1537.04 53.9013 1537.04 58.8839 Q1537.04 62.8538 1539.63 65.2034 Q1542.26 67.5124 1546.76 67.5124 Q1552.96 67.5124 1556.68 63.1374 Q1560.45 58.7219 1560.45 51.4303 L1560.45 49.7694 L1553.04 49.7694 M1567.91 46.6907 L1567.91 72.576 L1560.45 72.576 L1560.45 65.6895 Q1557.9 69.8214 1554.09 71.8063 Q1550.28 73.7508 1544.77 73.7508 Q1537.81 73.7508 1533.67 69.8619 Q1529.58 65.9325 1529.58 59.3701 Q1529.58 51.7138 1534.69 47.825 Q1539.83 43.9361 1550 43.9361 L1560.45 43.9361 L1560.45 43.2069 Q1560.45 38.0623 1557.05 35.2672 Q1553.69 32.4315 1547.57 32.4315 Q1543.68 32.4315 1539.99 33.3632 Q1536.31 34.295 1532.91 36.1584 L1532.91 29.2718 Q1537 27.692 1540.85 26.9223 Q1544.69 26.1121 1548.34 26.1121 Q1558.18 26.1121 1563.04 31.2163 Q1567.91 36.3204 1567.91 46.6907 Z" fill="#000000" fill-rule="nonzero" fill-opacity="1" /><path clip-path="url(#clip050)" d="M1582.97 27.2059 L1590.47 27.2059 L1590.47 45.7185 L1614.65 45.7185 L1614.65 27.2059 L1622.15 27.2059 L1622.15 72.576 L1614.65 72.576 L1614.65 51.6733 L1590.47 51.6733 L1590.47 72.576 L1582.97 72.576 L1582.97 27.2059 Z" fill="#000000" fill-rule="nonzero" fill-opacity="1" /><path clip-path="url(#clip050)" d="M1632.11 27.2059 L1675.58 27.2059 L1675.58 33.1607 L1657.51 33.1607 L1657.51 72.576 L1650.18 72.576 L1650.18 33.1607 L1632.11 33.1607 L1632.11 27.2059 Z" fill="#000000" fill-rule="nonzero" fill-opacity="1" /><path clip-path="url(#clip050)" d="M1720.3 65.6895 L1748.86 65.6895 L1748.86 72.576 L1710.46 72.576 L1710.46 65.6895 Q1715.11 60.8689 1723.14 52.7671 Q1731.2 44.6248 1733.26 42.2752 Q1737.19 37.8598 1738.73 34.8216 Q1740.31 31.7429 1740.31 28.7857 Q1740.31 23.9651 1736.91 20.927 Q1733.55 17.8888 1728.12 17.8888 Q1724.27 17.8888 1719.98 19.2256 Q1715.72 20.5624 1710.86 23.2765 L1710.86 15.0127 Q1715.8 13.0277 1720.1 12.015 Q1724.39 11.0023 1727.96 11.0023 Q1737.35 11.0023 1742.94 15.7013 Q1748.53 20.4004 1748.53 28.2591 Q1748.53 31.9859 1747.12 35.3482 Q1745.74 38.6699 1742.05 43.2069 Q1741.04 44.3817 1735.61 50.0125 Q1730.18 55.6027 1720.3 65.6895 Z" fill="#000000" fill-rule="nonzero" fill-opacity="1" /><path clip-path="url(#clip050)" d="M1783.53 17.4837 Q1777.22 17.4837 1774.02 23.7221 Q1770.86 29.92 1770.86 42.3968 Q1770.86 54.833 1774.02 61.0714 Q1777.22 67.2693 1783.53 67.2693 Q1789.89 67.2693 1793.05 61.0714 Q1796.25 54.833 1796.25 42.3968 Q1796.25 29.92 1793.05 23.7221 Q1789.89 17.4837 1783.53 17.4837 M1783.53 11.0023 Q1793.7 11.0023 1799.05 19.0636 Q1804.44 27.0843 1804.44 42.3968 Q1804.44 57.6687 1799.05 65.73 Q1793.7 73.7508 1783.53 73.7508 Q1773.37 73.7508 1767.98 65.73 Q1762.63 57.6687 1762.63 42.3968 Q1762.63 27.0843 1767.98 19.0636 Q1773.37 11.0023 1783.53 11.0023 Z" fill="#000000" fill-rule="nonzero" fill-opacity="1" /><path clip-path="url(#clip050)" d="M1816.59 9.62495 L1823.07 9.62495 Q1829.15 19.1851 1832.15 28.3401 Q1835.18 37.4952 1835.18 46.5287 Q1835.18 55.6027 1832.15 64.7983 Q1829.15 73.9938 1823.07 83.5134 L1816.59 83.5134 Q1821.98 74.2369 1824.61 65.0818 Q1827.28 55.8863 1827.28 46.5287 Q1827.28 37.1711 1824.61 28.0566 Q1821.98 18.942 1816.59 9.62495 Z" fill="#000000" fill-rule="nonzero" fill-opacity="1" /><polyline clip-path="url(#clip052)" style="stroke:#009af9; stroke-linecap:round; stroke-linejoin:round; stroke-width:8; stroke-opacity:1; fill:none" points="1806.11,1041.17 1820.54,961.878 1725.29,538.366 "/>
<polyline clip-path="url(#clip052)" style="stroke:#e26f46; stroke-linecap:round; stroke-linejoin:round; stroke-width:8; stroke-opacity:1; fill:none" points="262.355,1041.17 301.716,919.098 693.157,467.995 1444.01,497.795 1597.87,665.79 "/>
<polyline clip-path="url(#clip052)" style="stroke:#3da44d; stroke-linecap:round; stroke-linejoin:round; stroke-width:8; stroke-opacity:1; fill:none" stroke-dasharray="32, 20" points="1222.49,1041.17 1228.59,1035.07 1234.68,1028.98 1240.78,1022.88 1246.87,1016.79 1252.96,1010.69 1259.06,1004.6 1265.15,998.504 1271.25,992.409 1277.34,986.315 1283.44,980.22 1289.53,974.125 1295.63,968.031 1301.72,961.936 1307.82,955.842 1313.91,949.747 1320,943.653 1326.1,937.558 1332.19,931.464 1338.29,925.369 1344.38,919.275 1350.48,913.18 1356.57,907.086 1362.67,900.991 1368.76,894.897 1374.86,888.802 1380.95,882.707 1387.04,876.613 1393.14,870.518 1399.23,864.424 1405.33,858.329 1411.42,852.235 1417.52,846.14 1423.61,840.046 1429.71,833.951 1435.8,827.857 1441.9,821.762 1447.99,815.668 1454.08,809.573 1460.18,803.479 1466.27,797.384 1472.37,791.29 1478.46,785.195 1484.56,779.1 1490.65,773.006 1496.75,766.911 1502.84,760.817 1508.94,754.722 1515.03,748.628 1521.12,742.533 1527.22,736.439 1533.31,730.344 1539.41,724.25 1545.5,718.155 1551.6,712.061 1557.69,705.966 1563.79,699.872 1569.88,693.777 1575.98,687.682 1582.07,681.588 1588.16,675.493 1594.26,669.399 1600.35,663.304 1606.45,657.21 1612.54,651.115 1618.64,645.021 1624.73,638.926 1630.83,632.832 1636.92,626.737 1643.02,620.643 1649.11,614.548 1655.2,608.454 1661.3,602.359 1667.39,596.264 1673.49,590.17 1679.58,584.075 1685.68,577.981 1691.77,571.886 1697.87,565.792 1703.96,559.697 1710.05,553.603 1716.15,547.508 1722.24,541.414 1728.34,535.319 1734.43,529.225 1740.53,523.13 1746.62,517.036 1752.72,510.941 1758.81,504.846 1764.91,498.752 1771,492.657 1777.09,486.563 1783.19,480.468 1789.28,474.374 1795.38,468.279 1801.47,462.185 1807.57,456.09 1813.66,449.996 1819.76,443.901 1825.85,437.807 "/>
<circle clip-path="url(#clip052)" cx="1725.29" cy="538.366" r="28.8" fill="#c271d2" fill-rule="evenodd" fill-opacity="1" stroke="#000000" stroke-opacity="1" stroke-width="3.072"/>
<circle clip-path="url(#clip052)" cx="1597.87" cy="665.79" r="28.8" fill="#ac8d18" fill-rule="evenodd" fill-opacity="1" stroke="#000000" stroke-opacity="1" stroke-width="3.072"/>
<path clip-path="url(#clip052)" d="M1790.11 1025.17 L1790.11 1057.17 L1822.11 1057.17 L1822.11 1025.17 L1790.11 1025.17 Z" fill="#00a9ad" fill-rule="evenodd" fill-opacity="1" stroke="#000000" stroke-opacity="1" stroke-width="3.072"/>
<path clip-path="url(#clip052)" d="M246.355 1025.17 L246.355 1057.17 L278.355 1057.17 L278.355 1025.17 L246.355 1025.17 Z" fill="#ed5d92" fill-rule="evenodd" fill-opacity="1" stroke="#000000" stroke-opacity="1" stroke-width="3.072"/>
<path clip-path="url(#clip050)" d="M1240.14 590.549 L1817.51 590.549 L1817.51 175.829 L1240.14 175.829  Z" fill="#ffffff" fill-rule="evenodd" fill-opacity="1"/>
<polyline clip-path="url(#clip050)" style="stroke:#000000; stroke-linecap:round; stroke-linejoin:round; stroke-width:4; stroke-opacity:1; fill:none" points="1240.14,590.549 1817.51,590.549 1817.51,175.829 1240.14,175.829 1240.14,590.549 "/>
<polyline clip-path="url(#clip050)" style="stroke:#009af9; stroke-linecap:round; stroke-linejoin:round; stroke-width:8; stroke-opacity:1; fill:none" points="1258.55,227.669 1369.04,227.669 "/>
<path clip-path="url(#clip050)" d="M1387.46 210.389 L1392.13 210.389 L1392.13 227.473 L1408.85 210.389 L1414.84 210.389 L1401.48 224.047 L1415.54 244.949 L1410.44 244.949 L1398.45 227.148 L1392.13 233.607 L1392.13 244.949 L1387.46 244.949 L1387.46 210.389 Z" fill="#000000" fill-rule="nonzero" fill-opacity="1" /><path clip-path="url(#clip050)" d="M1432.71 231.917 Q1427.55 231.917 1425.56 233.098 Q1423.57 234.278 1423.57 237.125 Q1423.57 239.394 1425.05 240.736 Q1426.55 242.056 1429.12 242.056 Q1432.66 242.056 1434.79 239.556 Q1436.95 237.033 1436.95 232.866 L1436.95 231.917 L1432.71 231.917 M1441.21 230.158 L1441.21 244.949 L1436.95 244.949 L1436.95 241.014 Q1435.49 243.375 1433.31 244.51 Q1431.14 245.621 1427.99 245.621 Q1424.01 245.621 1421.65 243.398 Q1419.31 241.153 1419.31 237.403 Q1419.31 233.028 1422.22 230.806 Q1425.16 228.584 1430.97 228.584 L1436.95 228.584 L1436.95 228.167 Q1436.95 225.227 1435 223.63 Q1433.08 222.01 1429.59 222.01 Q1427.36 222.01 1425.26 222.542 Q1423.15 223.074 1421.21 224.139 L1421.21 220.204 Q1423.54 219.301 1425.74 218.861 Q1427.94 218.399 1430.03 218.399 Q1435.65 218.399 1438.43 221.315 Q1441.21 224.232 1441.21 230.158 Z" fill="#000000" fill-rule="nonzero" fill-opacity="1" /><path clip-path="url(#clip050)" d="M1446.9 219.024 L1471.74 219.024 L1471.74 222.426 L1461.41 222.426 L1461.41 244.949 L1457.22 244.949 L1457.22 222.426 L1446.9 222.426 L1446.9 219.024 Z" fill="#000000" fill-rule="nonzero" fill-opacity="1" /><path clip-path="url(#clip050)" d="M1499.77 230.922 L1499.77 233.005 L1480.19 233.005 Q1480.47 237.403 1482.83 239.718 Q1485.21 242.01 1489.45 242.01 Q1491.9 242.01 1494.19 241.408 Q1496.51 240.806 1498.78 239.602 L1498.78 243.63 Q1496.48 244.602 1494.08 245.111 Q1491.67 245.621 1489.19 245.621 Q1482.99 245.621 1479.35 242.01 Q1475.74 238.398 1475.74 232.241 Q1475.74 225.875 1479.17 222.149 Q1482.62 218.399 1488.45 218.399 Q1493.68 218.399 1496.72 221.778 Q1499.77 225.135 1499.77 230.922 M1495.51 229.672 Q1495.47 226.176 1493.54 224.093 Q1491.65 222.01 1488.5 222.01 Q1484.93 222.01 1482.78 224.024 Q1480.65 226.037 1480.33 229.695 L1495.51 229.672 Z" fill="#000000" fill-rule="nonzero" fill-opacity="1" /><path clip-path="url(#clip050)" d="M1510.88 241.06 L1510.88 254.81 L1506.6 254.81 L1506.6 219.024 L1510.88 219.024 L1510.88 222.959 Q1512.22 220.644 1514.26 219.533 Q1516.32 218.399 1519.17 218.399 Q1523.89 218.399 1526.83 222.149 Q1529.79 225.898 1529.79 232.01 Q1529.79 238.121 1526.83 241.871 Q1523.89 245.621 1519.17 245.621 Q1516.32 245.621 1514.26 244.51 Q1512.22 243.375 1510.88 241.06 M1525.37 232.01 Q1525.37 227.311 1523.43 224.648 Q1521.51 221.963 1518.13 221.963 Q1514.75 221.963 1512.8 224.648 Q1510.88 227.311 1510.88 232.01 Q1510.88 236.709 1512.8 239.394 Q1514.75 242.056 1518.13 242.056 Q1521.51 242.056 1523.43 239.394 Q1525.37 236.709 1525.37 232.01 Z" fill="#000000" fill-rule="nonzero" fill-opacity="1" /><path clip-path="url(#clip050)" d="M1562.15 208.977 Q1559.05 214.301 1557.55 219.51 Q1556.04 224.718 1556.04 230.065 Q1556.04 235.412 1557.55 240.667 Q1559.08 245.898 1562.15 251.199 L1558.45 251.199 Q1554.98 245.759 1553.24 240.505 Q1551.53 235.25 1551.53 230.065 Q1551.53 224.903 1553.24 219.672 Q1554.96 214.44 1558.45 208.977 L1562.15 208.977 Z" fill="#000000" fill-rule="nonzero" fill-opacity="1" /><path clip-path="url(#clip050)" d="M1589.08 220.019 L1589.08 224 Q1587.27 223.005 1585.44 222.519 Q1583.64 222.01 1581.78 222.01 Q1577.64 222.01 1575.35 224.648 Q1573.06 227.264 1573.06 232.01 Q1573.06 236.755 1575.35 239.394 Q1577.64 242.01 1581.78 242.01 Q1583.64 242.01 1585.44 241.523 Q1587.27 241.014 1589.08 240.019 L1589.08 243.954 Q1587.29 244.787 1585.37 245.204 Q1583.47 245.621 1581.32 245.621 Q1575.46 245.621 1572.02 241.94 Q1568.57 238.26 1568.57 232.01 Q1568.57 225.667 1572.04 222.033 Q1575.53 218.399 1581.6 218.399 Q1583.57 218.399 1585.44 218.815 Q1587.32 219.209 1589.08 220.019 Z" fill="#000000" fill-rule="nonzero" fill-opacity="1" /><path clip-path="url(#clip050)" d="M1593.77 244.949 L1593.77 241.408 Q1597.99 240.76 1599.28 237.843 Q1600.86 233.746 1600.86 223.26 L1600.86 219.024 L1618.38 219.024 L1618.38 244.949 L1614.12 244.949 L1614.12 222.426 L1605.12 222.426 L1605.12 224.996 Q1605.12 234.996 1603.08 239.486 Q1600.9 244.278 1593.77 244.949 Z" fill="#000000" fill-rule="nonzero" fill-opacity="1" /><path clip-path="url(#clip050)" d="M1637.57 247.357 Q1635.77 251.986 1634.05 253.398 Q1632.34 254.81 1629.47 254.81 L1626.07 254.81 L1626.07 251.246 L1628.57 251.246 Q1630.33 251.246 1631.3 250.412 Q1632.27 249.579 1633.45 246.477 L1634.21 244.533 L1623.73 219.024 L1628.24 219.024 L1636.34 239.301 L1644.45 219.024 L1648.96 219.024 L1637.57 247.357 Z" fill="#000000" fill-rule="nonzero" fill-opacity="1" /><path clip-path="url(#clip050)" d="M1669.82 244.949 L1669.82 234.047 L1661.88 234.047 Q1658.33 234.047 1655.97 231.848 Q1653.84 229.857 1653.84 225.598 L1653.84 219.024 L1658.1 219.024 L1658.1 225.204 Q1658.1 227.912 1659.31 229.278 Q1660.53 230.644 1662.94 230.644 L1669.82 230.644 L1669.82 219.024 L1674.08 219.024 L1674.08 244.949 L1669.82 244.949 Z" fill="#000000" fill-rule="nonzero" fill-opacity="1" /><path clip-path="url(#clip050)" d="M1694.63 231.917 Q1689.47 231.917 1687.48 233.098 Q1685.49 234.278 1685.49 237.125 Q1685.49 239.394 1686.97 240.736 Q1688.47 242.056 1691.04 242.056 Q1694.58 242.056 1696.71 239.556 Q1698.87 237.033 1698.87 232.866 L1698.87 231.917 L1694.63 231.917 M1703.13 230.158 L1703.13 244.949 L1698.87 244.949 L1698.87 241.014 Q1697.41 243.375 1695.23 244.51 Q1693.06 245.621 1689.91 245.621 Q1685.93 245.621 1683.57 243.398 Q1681.23 241.153 1681.23 237.403 Q1681.23 233.028 1684.14 230.806 Q1687.08 228.584 1692.89 228.584 L1698.87 228.584 L1698.87 228.167 Q1698.87 225.227 1696.92 223.63 Q1695 222.01 1691.51 222.01 Q1689.28 222.01 1687.18 222.542 Q1685.07 223.074 1683.13 224.139 L1683.13 220.204 Q1685.46 219.301 1687.66 218.861 Q1689.86 218.399 1691.95 218.399 Q1697.57 218.399 1700.35 221.315 Q1703.13 224.232 1703.13 230.158 Z" fill="#000000" fill-rule="nonzero" fill-opacity="1" /><path clip-path="url(#clip050)" d="M1733.94 219.024 L1733.94 244.949 L1729.7 244.949 L1729.7 224.139 L1717.2 244.949 L1711.74 244.949 L1711.74 219.024 L1715.97 219.024 L1715.97 239.787 L1728.45 219.024 L1733.94 219.024 M1715.6 208.931 L1718.33 208.931 Q1718.59 210.667 1719.7 211.547 Q1720.83 212.403 1722.85 212.403 Q1724.84 212.403 1725.95 211.547 Q1727.06 210.69 1727.36 208.931 L1730.09 208.931 Q1729.86 212.241 1728.03 213.908 Q1726.2 215.574 1722.85 215.574 Q1719.49 215.574 1717.66 213.908 Q1715.83 212.241 1715.6 208.931 Z" fill="#000000" fill-rule="nonzero" fill-opacity="1" /><path clip-path="url(#clip050)" d="M1759.19 241.014 L1766.83 241.014 L1766.83 214.649 L1758.52 216.315 L1758.52 212.056 L1766.78 210.389 L1771.46 210.389 L1771.46 241.014 L1779.1 241.014 L1779.1 244.949 L1759.19 244.949 L1759.19 241.014 Z" fill="#000000" fill-rule="nonzero" fill-opacity="1" /><path clip-path="url(#clip050)" d="M1787.27 208.977 L1790.97 208.977 Q1794.45 214.44 1796.16 219.672 Q1797.89 224.903 1797.89 230.065 Q1797.89 235.25 1796.16 240.505 Q1794.45 245.759 1790.97 251.199 L1787.27 251.199 Q1790.35 245.898 1791.85 240.667 Q1793.38 235.412 1793.38 230.065 Q1793.38 224.718 1791.85 219.51 Q1790.35 214.301 1787.27 208.977 Z" fill="#000000" fill-rule="nonzero" fill-opacity="1" /><polyline clip-path="url(#clip050)" style="stroke:#e26f46; stroke-linecap:round; stroke-linejoin:round; stroke-width:8; stroke-opacity:1; fill:none" points="1258.55,279.509 1369.04,279.509 "/>
<path clip-path="url(#clip050)" d="M1387.46 262.229 L1392.13 262.229 L1392.13 279.313 L1408.85 262.229 L1414.84 262.229 L1401.48 275.887 L1415.54 296.789 L1410.44 296.789 L1398.45 278.988 L1392.13 285.447 L1392.13 296.789 L1387.46 296.789 L1387.46 262.229 Z" fill="#000000" fill-rule="nonzero" fill-opacity="1" /><path clip-path="url(#clip050)" d="M1432.71 283.757 Q1427.55 283.757 1425.56 284.938 Q1423.57 286.118 1423.57 288.965 Q1423.57 291.234 1425.05 292.576 Q1426.55 293.896 1429.12 293.896 Q1432.66 293.896 1434.79 291.396 Q1436.95 288.873 1436.95 284.706 L1436.95 283.757 L1432.71 283.757 M1441.21 281.998 L1441.21 296.789 L1436.95 296.789 L1436.95 292.854 Q1435.49 295.215 1433.31 296.35 Q1431.14 297.461 1427.99 297.461 Q1424.01 297.461 1421.65 295.238 Q1419.31 292.993 1419.31 289.243 Q1419.31 284.868 1422.22 282.646 Q1425.16 280.424 1430.97 280.424 L1436.95 280.424 L1436.95 280.007 Q1436.95 277.067 1435 275.47 Q1433.08 273.85 1429.59 273.85 Q1427.36 273.85 1425.26 274.382 Q1423.15 274.914 1421.21 275.979 L1421.21 272.044 Q1423.54 271.141 1425.74 270.701 Q1427.94 270.239 1430.03 270.239 Q1435.65 270.239 1438.43 273.155 Q1441.21 276.072 1441.21 281.998 Z" fill="#000000" fill-rule="nonzero" fill-opacity="1" /><path clip-path="url(#clip050)" d="M1446.9 270.864 L1471.74 270.864 L1471.74 274.266 L1461.41 274.266 L1461.41 296.789 L1457.22 296.789 L1457.22 274.266 L1446.9 274.266 L1446.9 270.864 Z" fill="#000000" fill-rule="nonzero" fill-opacity="1" /><path clip-path="url(#clip050)" d="M1499.77 282.762 L1499.77 284.845 L1480.19 284.845 Q1480.47 289.243 1482.83 291.558 Q1485.21 293.85 1489.45 293.85 Q1491.9 293.85 1494.19 293.248 Q1496.51 292.646 1498.78 291.442 L1498.78 295.47 Q1496.48 296.442 1494.08 296.951 Q1491.67 297.461 1489.19 297.461 Q1482.99 297.461 1479.35 293.85 Q1475.74 290.238 1475.74 284.081 Q1475.74 277.715 1479.17 273.989 Q1482.62 270.239 1488.45 270.239 Q1493.68 270.239 1496.72 273.618 Q1499.77 276.975 1499.77 282.762 M1495.51 281.512 Q1495.47 278.016 1493.54 275.933 Q1491.65 273.85 1488.5 273.85 Q1484.93 273.85 1482.78 275.864 Q1480.65 277.877 1480.33 281.535 L1495.51 281.512 Z" fill="#000000" fill-rule="nonzero" fill-opacity="1" /><path clip-path="url(#clip050)" d="M1510.88 292.9 L1510.88 306.65 L1506.6 306.65 L1506.6 270.864 L1510.88 270.864 L1510.88 274.799 Q1512.22 272.484 1514.26 271.373 Q1516.32 270.239 1519.17 270.239 Q1523.89 270.239 1526.83 273.989 Q1529.79 277.738 1529.79 283.85 Q1529.79 289.961 1526.83 293.711 Q1523.89 297.461 1519.17 297.461 Q1516.32 297.461 1514.26 296.35 Q1512.22 295.215 1510.88 292.9 M1525.37 283.85 Q1525.37 279.151 1523.43 276.488 Q1521.51 273.803 1518.13 273.803 Q1514.75 273.803 1512.8 276.488 Q1510.88 279.151 1510.88 283.85 Q1510.88 288.549 1512.8 291.234 Q1514.75 293.896 1518.13 293.896 Q1521.51 293.896 1523.43 291.234 Q1525.37 288.549 1525.37 283.85 Z" fill="#000000" fill-rule="nonzero" fill-opacity="1" /><path clip-path="url(#clip050)" d="M1562.15 260.817 Q1559.05 266.141 1557.55 271.35 Q1556.04 276.558 1556.04 281.905 Q1556.04 287.252 1557.55 292.507 Q1559.08 297.738 1562.15 303.039 L1558.45 303.039 Q1554.98 297.599 1553.24 292.345 Q1551.53 287.09 1551.53 281.905 Q1551.53 276.743 1553.24 271.512 Q1554.96 266.28 1558.45 260.817 L1562.15 260.817 Z" fill="#000000" fill-rule="nonzero" fill-opacity="1" /><path clip-path="url(#clip050)" d="M1589.08 271.859 L1589.08 275.84 Q1587.27 274.845 1585.44 274.359 Q1583.64 273.85 1581.78 273.85 Q1577.64 273.85 1575.35 276.488 Q1573.06 279.104 1573.06 283.85 Q1573.06 288.595 1575.35 291.234 Q1577.64 293.85 1581.78 293.85 Q1583.64 293.85 1585.44 293.363 Q1587.27 292.854 1589.08 291.859 L1589.08 295.794 Q1587.29 296.627 1585.37 297.044 Q1583.47 297.461 1581.32 297.461 Q1575.46 297.461 1572.02 293.78 Q1568.57 290.1 1568.57 283.85 Q1568.57 277.507 1572.04 273.873 Q1575.53 270.239 1581.6 270.239 Q1583.57 270.239 1585.44 270.655 Q1587.32 271.049 1589.08 271.859 Z" fill="#000000" fill-rule="nonzero" fill-opacity="1" /><path clip-path="url(#clip050)" d="M1593.77 296.789 L1593.77 293.248 Q1597.99 292.6 1599.28 289.683 Q1600.86 285.586 1600.86 275.1 L1600.86 270.864 L1618.38 270.864 L1618.38 296.789 L1614.12 296.789 L1614.12 274.266 L1605.12 274.266 L1605.12 276.836 Q1605.12 286.836 1603.08 291.326 Q1600.9 296.118 1593.77 296.789 Z" fill="#000000" fill-rule="nonzero" fill-opacity="1" /><path clip-path="url(#clip050)" d="M1637.57 299.197 Q1635.77 303.826 1634.05 305.238 Q1632.34 306.65 1629.47 306.65 L1626.07 306.65 L1626.07 303.086 L1628.57 303.086 Q1630.33 303.086 1631.3 302.252 Q1632.27 301.419 1633.45 298.317 L1634.21 296.373 L1623.73 270.864 L1628.24 270.864 L1636.34 291.141 L1644.45 270.864 L1648.96 270.864 L1637.57 299.197 Z" fill="#000000" fill-rule="nonzero" fill-opacity="1" /><path clip-path="url(#clip050)" d="M1669.82 296.789 L1669.82 285.887 L1661.88 285.887 Q1658.33 285.887 1655.97 283.688 Q1653.84 281.697 1653.84 277.438 L1653.84 270.864 L1658.1 270.864 L1658.1 277.044 Q1658.1 279.752 1659.31 281.118 Q1660.53 282.484 1662.94 282.484 L1669.82 282.484 L1669.82 270.864 L1674.08 270.864 L1674.08 296.789 L1669.82 296.789 Z" fill="#000000" fill-rule="nonzero" fill-opacity="1" /><path clip-path="url(#clip050)" d="M1694.63 283.757 Q1689.47 283.757 1687.48 284.938 Q1685.49 286.118 1685.49 288.965 Q1685.49 291.234 1686.97 292.576 Q1688.47 293.896 1691.04 293.896 Q1694.58 293.896 1696.71 291.396 Q1698.87 288.873 1698.87 284.706 L1698.87 283.757 L1694.63 283.757 M1703.13 281.998 L1703.13 296.789 L1698.87 296.789 L1698.87 292.854 Q1697.41 295.215 1695.23 296.35 Q1693.06 297.461 1689.91 297.461 Q1685.93 297.461 1683.57 295.238 Q1681.23 292.993 1681.23 289.243 Q1681.23 284.868 1684.14 282.646 Q1687.08 280.424 1692.89 280.424 L1698.87 280.424 L1698.87 280.007 Q1698.87 277.067 1696.92 275.47 Q1695 273.85 1691.51 273.85 Q1689.28 273.85 1687.18 274.382 Q1685.07 274.914 1683.13 275.979 L1683.13 272.044 Q1685.46 271.141 1687.66 270.701 Q1689.86 270.239 1691.95 270.239 Q1697.57 270.239 1700.35 273.155 Q1703.13 276.072 1703.13 281.998 Z" fill="#000000" fill-rule="nonzero" fill-opacity="1" /><path clip-path="url(#clip050)" d="M1733.94 270.864 L1733.94 296.789 L1729.7 296.789 L1729.7 275.979 L1717.2 296.789 L1711.74 296.789 L1711.74 270.864 L1715.97 270.864 L1715.97 291.627 L1728.45 270.864 L1733.94 270.864 M1715.6 260.771 L1718.33 260.771 Q1718.59 262.507 1719.7 263.387 Q1720.83 264.243 1722.85 264.243 Q1724.84 264.243 1725.95 263.387 Q1727.06 262.53 1727.36 260.771 L1730.09 260.771 Q1729.86 264.081 1728.03 265.748 Q1726.2 267.414 1722.85 267.414 Q1719.49 267.414 1717.66 265.748 Q1715.83 264.081 1715.6 260.771 Z" fill="#000000" fill-rule="nonzero" fill-opacity="1" /><path clip-path="url(#clip050)" d="M1762.41 292.854 L1778.73 292.854 L1778.73 296.789 L1756.78 296.789 L1756.78 292.854 Q1759.45 290.1 1764.03 285.47 Q1768.64 280.817 1769.82 279.475 Q1772.06 276.951 1772.94 275.215 Q1773.84 273.456 1773.84 271.766 Q1773.84 269.012 1771.9 267.276 Q1769.98 265.539 1766.88 265.539 Q1764.68 265.539 1762.22 266.303 Q1759.79 267.067 1757.01 268.618 L1757.01 263.896 Q1759.84 262.762 1762.29 262.183 Q1764.75 261.604 1766.78 261.604 Q1772.15 261.604 1775.35 264.289 Q1778.54 266.975 1778.54 271.465 Q1778.54 273.595 1777.73 275.516 Q1776.95 277.414 1774.84 280.007 Q1774.26 280.678 1771.16 283.896 Q1768.06 287.09 1762.41 292.854 Z" fill="#000000" fill-rule="nonzero" fill-opacity="1" /><path clip-path="url(#clip050)" d="M1787.27 260.817 L1790.97 260.817 Q1794.45 266.28 1796.16 271.512 Q1797.89 276.743 1797.89 281.905 Q1797.89 287.09 1796.16 292.345 Q1794.45 297.599 1790.97 303.039 L1787.27 303.039 Q1790.35 297.738 1791.85 292.507 Q1793.38 287.252 1793.38 281.905 Q1793.38 276.558 1791.85 271.35 Q1790.35 266.141 1787.27 260.817 Z" fill="#000000" fill-rule="nonzero" fill-opacity="1" /><polyline clip-path="url(#clip050)" style="stroke:#3da44d; stroke-linecap:round; stroke-linejoin:round; stroke-width:8; stroke-opacity:1; fill:none" stroke-dasharray="32, 20" points="1258.55,331.349 1369.04,331.349 "/>
<path clip-path="url(#clip050)" d="M1387.46 348.629 L1387.46 344.694 Q1392.48 343.606 1393.91 339.81 Q1395.93 333.838 1395.93 319.949 L1395.93 314.069 L1416.48 314.069 L1416.48 348.629 L1411.81 348.629 L1411.81 318.004 L1400.58 318.004 L1400.58 322.264 Q1400.58 335.365 1398.22 341.477 Q1395.95 347.333 1387.46 348.629 Z" fill="#000000" fill-rule="nonzero" fill-opacity="1" /><path clip-path="url(#clip050)" d="M1435.67 325.69 Q1432.25 325.69 1430.26 328.375 Q1428.27 331.037 1428.27 335.69 Q1428.27 340.342 1430.23 343.027 Q1432.22 345.69 1435.67 345.69 Q1439.08 345.69 1441.07 343.004 Q1443.06 340.319 1443.06 335.69 Q1443.06 331.083 1441.07 328.398 Q1439.08 325.69 1435.67 325.69 M1435.67 322.079 Q1441.23 322.079 1444.4 325.69 Q1447.57 329.301 1447.57 335.69 Q1447.57 342.055 1444.4 345.69 Q1441.23 349.301 1435.67 349.301 Q1430.1 349.301 1426.92 345.69 Q1423.78 342.055 1423.78 335.69 Q1423.78 329.301 1426.92 325.69 Q1430.1 322.079 1435.67 322.079 Z" fill="#000000" fill-rule="nonzero" fill-opacity="1" /><path clip-path="url(#clip050)" d="M1460.42 345.227 L1472.78 345.227 L1472.78 326.106 L1463.82 326.106 L1463.82 329.347 Q1463.82 338.884 1461.09 343.977 L1460.42 345.227 M1454.24 345.227 Q1456.35 344.301 1457.27 342.333 Q1459.54 337.449 1459.54 327.611 L1459.54 322.704 L1477.06 322.704 L1477.06 345.227 L1480.47 345.227 L1480.47 355.18 L1477.06 355.18 L1477.06 348.629 L1456.04 348.629 L1456.04 355.18 L1452.64 355.18 L1452.64 345.227 L1454.24 345.227 Z" fill="#000000" fill-rule="nonzero" fill-opacity="1" /><path clip-path="url(#clip050)" d="M1487.25 322.704 L1491.48 322.704 L1491.48 334.879 L1503.5 322.704 L1508.73 322.704 L1498.82 332.727 L1510 348.629 L1505.23 348.629 L1496.04 335.551 L1491.48 340.18 L1491.48 348.629 L1487.25 348.629 L1487.25 322.704 Z" fill="#000000" fill-rule="nonzero" fill-opacity="1" /><path clip-path="url(#clip050)" d="M1527.83 335.597 Q1522.66 335.597 1520.67 336.778 Q1518.68 337.958 1518.68 340.805 Q1518.68 343.074 1520.16 344.416 Q1521.67 345.736 1524.24 345.736 Q1527.78 345.736 1529.91 343.236 Q1532.06 340.713 1532.06 336.546 L1532.06 335.597 L1527.83 335.597 M1536.32 333.838 L1536.32 348.629 L1532.06 348.629 L1532.06 344.694 Q1530.6 347.055 1528.43 348.19 Q1526.25 349.301 1523.1 349.301 Q1519.12 349.301 1516.76 347.078 Q1514.42 344.833 1514.42 341.083 Q1514.42 336.708 1517.34 334.486 Q1520.28 332.264 1526.09 332.264 L1532.06 332.264 L1532.06 331.847 Q1532.06 328.907 1530.12 327.31 Q1528.2 325.69 1524.7 325.69 Q1522.48 325.69 1520.37 326.222 Q1518.27 326.754 1516.32 327.819 L1516.32 323.884 Q1518.66 322.981 1520.86 322.541 Q1523.06 322.079 1525.14 322.079 Q1530.77 322.079 1533.54 324.995 Q1536.32 327.912 1536.32 333.838 Z" fill="#000000" fill-rule="nonzero" fill-opacity="1" /><path clip-path="url(#clip050)" d="M1570.4 312.657 Q1567.29 317.981 1565.79 323.19 Q1564.28 328.398 1564.28 333.745 Q1564.28 339.092 1565.79 344.347 Q1567.32 349.578 1570.4 354.879 L1566.69 354.879 Q1563.22 349.439 1561.48 344.185 Q1559.77 338.93 1559.77 333.745 Q1559.77 328.583 1561.48 323.352 Q1563.2 318.12 1566.69 312.657 L1570.4 312.657 Z" fill="#000000" fill-rule="nonzero" fill-opacity="1" /><path clip-path="url(#clip050)" d="M1593.38 326.153 Q1591.88 326.153 1591.88 329.509 L1591.88 345.389 Q1594.08 345.389 1596.27 342.981 Q1598.24 340.828 1598.24 335.666 Q1598.24 330.852 1596.25 328.259 Q1594.63 326.153 1593.38 326.153 M1593.38 322.518 Q1596.62 322.518 1599.56 325.574 Q1602.73 328.838 1602.73 335.666 Q1602.73 341.94 1599.56 345.666 Q1596.58 349.185 1591.88 349.185 L1591.88 358.49 L1587.64 358.49 L1587.64 349.208 Q1583.03 349.208 1579.93 345.666 Q1576.78 342.055 1576.78 335.69 Q1576.78 329.069 1579.93 325.69 Q1582.29 323.166 1586.14 322.518 L1586.14 326.291 Q1584.61 326.824 1583.27 328.629 Q1581.27 331.291 1581.27 335.69 Q1581.27 340.365 1583.27 343.027 Q1585.05 345.412 1587.64 345.412 L1587.64 329.509 Q1587.64 322.518 1593.38 322.518 Z" fill="#000000" fill-rule="nonzero" fill-opacity="1" /><path clip-path="url(#clip050)" d="M1625.56 327.102 L1655.23 327.102 L1655.23 330.991 L1625.56 330.991 L1625.56 327.102 M1625.56 336.546 L1655.23 336.546 L1655.23 340.481 L1625.56 340.481 L1625.56 336.546 Z" fill="#000000" fill-rule="nonzero" fill-opacity="1" /><path clip-path="url(#clip050)" d="M1693.24 318.143 L1681.44 336.592 L1693.24 336.592 L1693.24 318.143 M1692.02 314.069 L1697.89 314.069 L1697.89 336.592 L1702.83 336.592 L1702.83 340.481 L1697.89 340.481 L1697.89 348.629 L1693.24 348.629 L1693.24 340.481 L1677.64 340.481 L1677.64 335.967 L1692.02 314.069 Z" fill="#000000" fill-rule="nonzero" fill-opacity="1" /><path clip-path="url(#clip050)" d="M1710.6 314.069 L1728.96 314.069 L1728.96 318.004 L1714.89 318.004 L1714.89 326.477 Q1715.9 326.129 1716.92 325.967 Q1717.94 325.782 1718.96 325.782 Q1724.75 325.782 1728.13 328.953 Q1731.51 332.125 1731.51 337.541 Q1731.51 343.12 1728.03 346.222 Q1724.56 349.301 1718.24 349.301 Q1716.07 349.301 1713.8 348.93 Q1711.55 348.56 1709.14 347.819 L1709.14 343.12 Q1711.23 344.254 1713.45 344.81 Q1715.67 345.365 1718.15 345.365 Q1722.15 345.365 1724.49 343.259 Q1726.83 341.153 1726.83 337.541 Q1726.83 333.93 1724.49 331.824 Q1722.15 329.717 1718.15 329.717 Q1716.27 329.717 1714.4 330.134 Q1712.55 330.551 1710.6 331.43 L1710.6 314.069 Z" fill="#000000" fill-rule="nonzero" fill-opacity="1" /><path clip-path="url(#clip050)" d="M1747.5 316.43 Q1745.65 316.43 1744.38 317.727 Q1743.1 319 1743.1 320.852 Q1743.1 322.68 1744.38 323.954 Q1745.65 325.204 1747.5 325.204 Q1749.35 325.204 1750.63 323.954 Q1751.9 322.68 1751.9 320.852 Q1751.9 319.023 1750.6 317.727 Q1749.33 316.43 1747.5 316.43 M1747.5 313.444 Q1748.98 313.444 1750.35 314.023 Q1751.71 314.579 1752.71 315.643 Q1753.77 316.685 1754.31 318.004 Q1754.84 319.324 1754.84 320.852 Q1754.84 323.907 1752.69 326.037 Q1750.56 328.143 1747.45 328.143 Q1744.33 328.143 1742.25 326.06 Q1740.16 323.977 1740.16 320.852 Q1740.16 317.75 1742.29 315.597 Q1744.42 313.444 1747.5 313.444 Z" fill="#000000" fill-rule="nonzero" fill-opacity="1" /><path clip-path="url(#clip050)" d="M1763.15 312.657 L1766.85 312.657 Q1770.32 318.12 1772.04 323.352 Q1773.77 328.583 1773.77 333.745 Q1773.77 338.93 1772.04 344.185 Q1770.32 349.439 1766.85 354.879 L1763.15 354.879 Q1766.23 349.578 1767.73 344.347 Q1769.26 339.092 1769.26 333.745 Q1769.26 328.398 1767.73 323.19 Q1766.23 317.981 1763.15 312.657 Z" fill="#000000" fill-rule="nonzero" fill-opacity="1" /><circle clip-path="url(#clip050)" cx="1313.8" cy="383.189" r="21.6847" fill="#c271d2" fill-rule="evenodd" fill-opacity="1" stroke="#000000" stroke-opacity="1" stroke-width="2.31304"/>
<path clip-path="url(#clip050)" d="M1392.13 383.965 L1392.13 396.627 L1399.63 396.627 Q1403.41 396.627 1405.21 395.076 Q1407.04 393.502 1407.04 390.284 Q1407.04 387.043 1405.21 385.516 Q1403.41 383.965 1399.63 383.965 L1392.13 383.965 M1392.13 369.752 L1392.13 380.168 L1399.05 380.168 Q1402.48 380.168 1404.15 378.895 Q1405.84 377.599 1405.84 374.96 Q1405.84 372.344 1404.15 371.048 Q1402.48 369.752 1399.05 369.752 L1392.13 369.752 M1387.46 365.909 L1399.4 365.909 Q1404.75 365.909 1407.64 368.132 Q1410.54 370.354 1410.54 374.451 Q1410.54 377.622 1409.05 379.497 Q1407.57 381.372 1404.7 381.835 Q1408.15 382.576 1410.05 384.937 Q1411.97 387.275 1411.97 390.793 Q1411.97 395.423 1408.82 397.946 Q1405.67 400.469 1399.86 400.469 L1387.46 400.469 L1387.46 365.909 Z" fill="#000000" fill-rule="nonzero" fill-opacity="1" /><path clip-path="url(#clip050)" d="M1438.45 375.539 L1438.45 379.52 Q1436.65 378.525 1434.82 378.039 Q1433.01 377.53 1431.16 377.53 Q1427.02 377.53 1424.72 380.168 Q1422.43 382.784 1422.43 387.53 Q1422.43 392.275 1424.72 394.914 Q1427.02 397.53 1431.16 397.53 Q1433.01 397.53 1434.82 397.043 Q1436.65 396.534 1438.45 395.539 L1438.45 399.474 Q1436.67 400.307 1434.75 400.724 Q1432.85 401.141 1430.7 401.141 Q1424.84 401.141 1421.39 397.46 Q1417.94 393.78 1417.94 387.53 Q1417.94 381.187 1421.41 377.553 Q1424.91 373.919 1430.97 373.919 Q1432.94 373.919 1434.82 374.335 Q1436.69 374.729 1438.45 375.539 Z" fill="#000000" fill-rule="nonzero" fill-opacity="1" /><path clip-path="url(#clip050)" d="M1442.78 374.544 L1467.62 374.544 L1467.62 377.946 L1457.29 377.946 L1457.29 400.469 L1453.1 400.469 L1453.1 377.946 L1442.78 377.946 L1442.78 374.544 Z" fill="#000000" fill-rule="nonzero" fill-opacity="1" /><path clip-path="url(#clip050)" d="M1477.59 396.58 L1477.59 410.33 L1473.31 410.33 L1473.31 374.544 L1477.59 374.544 L1477.59 378.479 Q1478.94 376.164 1480.97 375.053 Q1483.03 373.919 1485.88 373.919 Q1490.6 373.919 1493.54 377.669 Q1496.51 381.418 1496.51 387.53 Q1496.51 393.641 1493.54 397.391 Q1490.6 401.141 1485.88 401.141 Q1483.03 401.141 1480.97 400.03 Q1478.94 398.895 1477.59 396.58 M1492.09 387.53 Q1492.09 382.831 1490.14 380.168 Q1488.22 377.483 1484.84 377.483 Q1481.46 377.483 1479.52 380.168 Q1477.59 382.831 1477.59 387.53 Q1477.59 392.229 1479.52 394.914 Q1481.46 397.576 1484.84 397.576 Q1488.22 397.576 1490.14 394.914 Q1492.09 392.229 1492.09 387.53 Z" fill="#000000" fill-rule="nonzero" fill-opacity="1" /><path clip-path="url(#clip050)" d="M1525.74 386.442 L1525.74 388.525 L1506.16 388.525 Q1506.44 392.923 1508.8 395.238 Q1511.18 397.53 1515.42 397.53 Q1517.87 397.53 1520.16 396.928 Q1522.48 396.326 1524.75 395.122 L1524.75 399.15 Q1522.46 400.122 1520.05 400.631 Q1517.64 401.141 1515.16 401.141 Q1508.96 401.141 1505.33 397.53 Q1501.72 393.918 1501.72 387.761 Q1501.72 381.395 1505.14 377.669 Q1508.59 373.919 1514.42 373.919 Q1519.65 373.919 1522.69 377.298 Q1525.74 380.655 1525.74 386.442 M1521.48 385.192 Q1521.44 381.696 1519.52 379.613 Q1517.62 377.53 1514.47 377.53 Q1510.9 377.53 1508.75 379.544 Q1506.62 381.557 1506.3 385.215 L1521.48 385.192 Z" fill="#000000" fill-rule="nonzero" fill-opacity="1" /><path clip-path="url(#clip050)" d="M1547.71 400.469 L1547.71 389.567 L1539.77 389.567 Q1536.23 389.567 1533.87 387.368 Q1531.74 385.377 1531.74 381.118 L1531.74 374.544 L1536 374.544 L1536 380.724 Q1536 383.432 1537.2 384.798 Q1538.43 386.164 1540.84 386.164 L1547.71 386.164 L1547.71 374.544 L1551.97 374.544 L1551.97 400.469 L1547.71 400.469 Z" fill="#000000" fill-rule="nonzero" fill-opacity="1" /><path clip-path="url(#clip050)" d="M1572.53 387.437 Q1567.36 387.437 1565.37 388.618 Q1563.38 389.798 1563.38 392.645 Q1563.38 394.914 1564.86 396.256 Q1566.37 397.576 1568.94 397.576 Q1572.48 397.576 1574.61 395.076 Q1576.76 392.553 1576.76 388.386 L1576.76 387.437 L1572.53 387.437 M1581.02 385.678 L1581.02 400.469 L1576.76 400.469 L1576.76 396.534 Q1575.3 398.895 1573.13 400.03 Q1570.95 401.141 1567.8 401.141 Q1563.82 401.141 1561.46 398.918 Q1559.12 396.673 1559.12 392.923 Q1559.12 388.548 1562.04 386.326 Q1564.98 384.104 1570.79 384.104 L1576.76 384.104 L1576.76 383.687 Q1576.76 380.747 1574.82 379.15 Q1572.9 377.53 1569.4 377.53 Q1567.18 377.53 1565.07 378.062 Q1562.96 378.594 1561.02 379.659 L1561.02 375.724 Q1563.36 374.821 1565.56 374.381 Q1567.76 373.919 1569.84 373.919 Q1575.46 373.919 1578.24 376.835 Q1581.02 379.752 1581.02 385.678 Z" fill="#000000" fill-rule="nonzero" fill-opacity="1" /><path clip-path="url(#clip050)" d="M1615.09 364.497 Q1611.99 369.821 1610.49 375.03 Q1608.98 380.238 1608.98 385.585 Q1608.98 390.932 1610.49 396.187 Q1612.02 401.418 1615.09 406.719 L1611.39 406.719 Q1607.92 401.279 1606.18 396.025 Q1604.47 390.77 1604.47 385.585 Q1604.47 380.423 1606.18 375.192 Q1607.9 369.96 1611.39 364.497 L1615.09 364.497 Z" fill="#000000" fill-rule="nonzero" fill-opacity="1" /><path clip-path="url(#clip050)" d="M1624.77 396.534 L1632.41 396.534 L1632.41 370.169 L1624.1 371.835 L1624.1 367.576 L1632.36 365.909 L1637.04 365.909 L1637.04 396.534 L1644.68 396.534 L1644.68 400.469 L1624.77 400.469 L1624.77 396.534 Z" fill="#000000" fill-rule="nonzero" fill-opacity="1" /><path clip-path="url(#clip050)" d="M1652.85 364.497 L1656.55 364.497 Q1660.02 369.96 1661.74 375.192 Q1663.47 380.423 1663.47 385.585 Q1663.47 390.77 1661.74 396.025 Q1660.02 401.279 1656.55 406.719 L1652.85 406.719 Q1655.93 401.418 1657.43 396.187 Q1658.96 390.932 1658.96 385.585 Q1658.96 380.238 1657.43 375.03 Q1655.93 369.821 1652.85 364.497 Z" fill="#000000" fill-rule="nonzero" fill-opacity="1" /><circle clip-path="url(#clip050)" cx="1313.8" cy="435.029" r="21.6847" fill="#ac8d18" fill-rule="evenodd" fill-opacity="1" stroke="#000000" stroke-opacity="1" stroke-width="2.31304"/>
<path clip-path="url(#clip050)" d="M1392.13 435.805 L1392.13 448.467 L1399.63 448.467 Q1403.41 448.467 1405.21 446.916 Q1407.04 445.342 1407.04 442.124 Q1407.04 438.883 1405.21 437.356 Q1403.41 435.805 1399.63 435.805 L1392.13 435.805 M1392.13 421.592 L1392.13 432.008 L1399.05 432.008 Q1402.48 432.008 1404.15 430.735 Q1405.84 429.439 1405.84 426.8 Q1405.84 424.184 1404.15 422.888 Q1402.48 421.592 1399.05 421.592 L1392.13 421.592 M1387.46 417.749 L1399.4 417.749 Q1404.75 417.749 1407.64 419.972 Q1410.54 422.194 1410.54 426.291 Q1410.54 429.462 1409.05 431.337 Q1407.57 433.212 1404.7 433.675 Q1408.15 434.416 1410.05 436.777 Q1411.97 439.115 1411.97 442.633 Q1411.97 447.263 1408.82 449.786 Q1405.67 452.309 1399.86 452.309 L1387.46 452.309 L1387.46 417.749 Z" fill="#000000" fill-rule="nonzero" fill-opacity="1" /><path clip-path="url(#clip050)" d="M1438.45 427.379 L1438.45 431.36 Q1436.65 430.365 1434.82 429.879 Q1433.01 429.37 1431.16 429.37 Q1427.02 429.37 1424.72 432.008 Q1422.43 434.624 1422.43 439.37 Q1422.43 444.115 1424.72 446.754 Q1427.02 449.37 1431.16 449.37 Q1433.01 449.37 1434.82 448.883 Q1436.65 448.374 1438.45 447.379 L1438.45 451.314 Q1436.67 452.147 1434.75 452.564 Q1432.85 452.981 1430.7 452.981 Q1424.84 452.981 1421.39 449.3 Q1417.94 445.62 1417.94 439.37 Q1417.94 433.027 1421.41 429.393 Q1424.91 425.759 1430.97 425.759 Q1432.94 425.759 1434.82 426.175 Q1436.69 426.569 1438.45 427.379 Z" fill="#000000" fill-rule="nonzero" fill-opacity="1" /><path clip-path="url(#clip050)" d="M1442.78 426.384 L1467.62 426.384 L1467.62 429.786 L1457.29 429.786 L1457.29 452.309 L1453.1 452.309 L1453.1 429.786 L1442.78 429.786 L1442.78 426.384 Z" fill="#000000" fill-rule="nonzero" fill-opacity="1" /><path clip-path="url(#clip050)" d="M1477.59 448.42 L1477.59 462.17 L1473.31 462.17 L1473.31 426.384 L1477.59 426.384 L1477.59 430.319 Q1478.94 428.004 1480.97 426.893 Q1483.03 425.759 1485.88 425.759 Q1490.6 425.759 1493.54 429.509 Q1496.51 433.258 1496.51 439.37 Q1496.51 445.481 1493.54 449.231 Q1490.6 452.981 1485.88 452.981 Q1483.03 452.981 1480.97 451.87 Q1478.94 450.735 1477.59 448.42 M1492.09 439.37 Q1492.09 434.671 1490.14 432.008 Q1488.22 429.323 1484.84 429.323 Q1481.46 429.323 1479.52 432.008 Q1477.59 434.671 1477.59 439.37 Q1477.59 444.069 1479.52 446.754 Q1481.46 449.416 1484.84 449.416 Q1488.22 449.416 1490.14 446.754 Q1492.09 444.069 1492.09 439.37 Z" fill="#000000" fill-rule="nonzero" fill-opacity="1" /><path clip-path="url(#clip050)" d="M1525.74 438.282 L1525.74 440.365 L1506.16 440.365 Q1506.44 444.763 1508.8 447.078 Q1511.18 449.37 1515.42 449.37 Q1517.87 449.37 1520.16 448.768 Q1522.48 448.166 1524.75 446.962 L1524.75 450.99 Q1522.46 451.962 1520.05 452.471 Q1517.64 452.981 1515.16 452.981 Q1508.96 452.981 1505.33 449.37 Q1501.72 445.758 1501.72 439.601 Q1501.72 433.235 1505.14 429.509 Q1508.59 425.759 1514.42 425.759 Q1519.65 425.759 1522.69 429.138 Q1525.74 432.495 1525.74 438.282 M1521.48 437.032 Q1521.44 433.536 1519.52 431.453 Q1517.62 429.37 1514.47 429.37 Q1510.9 429.37 1508.75 431.384 Q1506.62 433.397 1506.3 437.055 L1521.48 437.032 Z" fill="#000000" fill-rule="nonzero" fill-opacity="1" /><path clip-path="url(#clip050)" d="M1547.71 452.309 L1547.71 441.407 L1539.77 441.407 Q1536.23 441.407 1533.87 439.208 Q1531.74 437.217 1531.74 432.958 L1531.74 426.384 L1536 426.384 L1536 432.564 Q1536 435.272 1537.2 436.638 Q1538.43 438.004 1540.84 438.004 L1547.71 438.004 L1547.71 426.384 L1551.97 426.384 L1551.97 452.309 L1547.71 452.309 Z" fill="#000000" fill-rule="nonzero" fill-opacity="1" /><path clip-path="url(#clip050)" d="M1572.53 439.277 Q1567.36 439.277 1565.37 440.458 Q1563.38 441.638 1563.38 444.485 Q1563.38 446.754 1564.86 448.096 Q1566.37 449.416 1568.94 449.416 Q1572.48 449.416 1574.61 446.916 Q1576.76 444.393 1576.76 440.226 L1576.76 439.277 L1572.53 439.277 M1581.02 437.518 L1581.02 452.309 L1576.76 452.309 L1576.76 448.374 Q1575.3 450.735 1573.13 451.87 Q1570.95 452.981 1567.8 452.981 Q1563.82 452.981 1561.46 450.758 Q1559.12 448.513 1559.12 444.763 Q1559.12 440.388 1562.04 438.166 Q1564.98 435.944 1570.79 435.944 L1576.76 435.944 L1576.76 435.527 Q1576.76 432.587 1574.82 430.99 Q1572.9 429.37 1569.4 429.37 Q1567.18 429.37 1565.07 429.902 Q1562.96 430.434 1561.02 431.499 L1561.02 427.564 Q1563.36 426.661 1565.56 426.221 Q1567.76 425.759 1569.84 425.759 Q1575.46 425.759 1578.24 428.675 Q1581.02 431.592 1581.02 437.518 Z" fill="#000000" fill-rule="nonzero" fill-opacity="1" /><path clip-path="url(#clip050)" d="M1615.09 416.337 Q1611.99 421.661 1610.49 426.87 Q1608.98 432.078 1608.98 437.425 Q1608.98 442.772 1610.49 448.027 Q1612.02 453.258 1615.09 458.559 L1611.39 458.559 Q1607.92 453.119 1606.18 447.865 Q1604.47 442.61 1604.47 437.425 Q1604.47 432.263 1606.18 427.032 Q1607.9 421.8 1611.39 416.337 L1615.09 416.337 Z" fill="#000000" fill-rule="nonzero" fill-opacity="1" /><path clip-path="url(#clip050)" d="M1627.99 448.374 L1644.31 448.374 L1644.31 452.309 L1622.36 452.309 L1622.36 448.374 Q1625.02 445.62 1629.61 440.99 Q1634.21 436.337 1635.4 434.995 Q1637.64 432.471 1638.52 430.735 Q1639.42 428.976 1639.42 427.286 Q1639.42 424.532 1637.48 422.796 Q1635.56 421.059 1632.46 421.059 Q1630.26 421.059 1627.8 421.823 Q1625.37 422.587 1622.59 424.138 L1622.59 419.416 Q1625.42 418.282 1627.87 417.703 Q1630.33 417.124 1632.36 417.124 Q1637.73 417.124 1640.93 419.809 Q1644.12 422.495 1644.12 426.985 Q1644.12 429.115 1643.31 431.036 Q1642.52 432.934 1640.42 435.527 Q1639.84 436.198 1636.74 439.416 Q1633.64 442.61 1627.99 448.374 Z" fill="#000000" fill-rule="nonzero" fill-opacity="1" /><path clip-path="url(#clip050)" d="M1652.85 416.337 L1656.55 416.337 Q1660.02 421.8 1661.74 427.032 Q1663.47 432.263 1663.47 437.425 Q1663.47 442.61 1661.74 447.865 Q1660.02 453.119 1656.55 458.559 L1652.85 458.559 Q1655.93 453.258 1657.43 448.027 Q1658.96 442.772 1658.96 437.425 Q1658.96 432.078 1657.43 426.87 Q1655.93 421.661 1652.85 416.337 Z" fill="#000000" fill-rule="nonzero" fill-opacity="1" /><path clip-path="url(#clip050)" d="M1291.04 464.114 L1291.04 509.625 L1336.55 509.625 L1336.55 464.114 L1291.04 464.114 Z" fill="#00a9ad" fill-rule="evenodd" fill-opacity="1" stroke="#000000" stroke-opacity="1" stroke-width="4.36907"/>
<path clip-path="url(#clip050)" d="M1415.33 472.251 L1415.33 477.182 Q1412.97 474.983 1410.28 473.895 Q1407.62 472.807 1404.61 472.807 Q1398.68 472.807 1395.54 476.441 Q1392.39 480.052 1392.39 486.904 Q1392.39 493.733 1395.54 497.367 Q1398.68 500.978 1404.61 500.978 Q1407.62 500.978 1410.28 499.89 Q1412.97 498.802 1415.33 496.603 L1415.33 501.487 Q1412.87 503.154 1410.12 503.987 Q1407.39 504.821 1404.33 504.821 Q1396.48 504.821 1391.97 500.029 Q1387.46 495.214 1387.46 486.904 Q1387.46 478.571 1391.97 473.779 Q1396.48 468.964 1404.33 468.964 Q1407.43 468.964 1410.16 469.798 Q1412.92 470.608 1415.33 472.251 Z" fill="#000000" fill-rule="nonzero" fill-opacity="1" /><path clip-path="url(#clip050)" d="M1419.29 478.224 L1444.12 478.224 L1444.12 481.626 L1433.8 481.626 L1433.8 504.149 L1429.61 504.149 L1429.61 481.626 L1419.29 481.626 L1419.29 478.224 Z" fill="#000000" fill-rule="nonzero" fill-opacity="1" /><path clip-path="url(#clip050)" d="M1461.76 491.117 Q1456.6 491.117 1454.61 492.298 Q1452.62 493.478 1452.62 496.325 Q1452.62 498.594 1454.1 499.936 Q1455.6 501.256 1458.17 501.256 Q1461.72 501.256 1463.85 498.756 Q1466 496.233 1466 492.066 L1466 491.117 L1461.76 491.117 M1470.26 489.358 L1470.26 504.149 L1466 504.149 L1466 500.214 Q1464.54 502.575 1462.36 503.71 Q1460.19 504.821 1457.04 504.821 Q1453.06 504.821 1450.7 502.598 Q1448.36 500.353 1448.36 496.603 Q1448.36 492.228 1451.28 490.006 Q1454.22 487.784 1460.03 487.784 L1466 487.784 L1466 487.367 Q1466 484.427 1464.05 482.83 Q1462.13 481.21 1458.64 481.21 Q1456.41 481.21 1454.31 481.742 Q1452.2 482.274 1450.26 483.339 L1450.26 479.404 Q1452.6 478.501 1454.79 478.061 Q1456.99 477.599 1459.08 477.599 Q1464.7 477.599 1467.48 480.515 Q1470.26 483.432 1470.26 489.358 Z" fill="#000000" fill-rule="nonzero" fill-opacity="1" /><path clip-path="url(#clip050)" d="M1483.15 500.26 L1483.15 514.01 L1478.87 514.01 L1478.87 478.224 L1483.15 478.224 L1483.15 482.159 Q1484.49 479.844 1486.53 478.733 Q1488.59 477.599 1491.44 477.599 Q1496.16 477.599 1499.1 481.349 Q1502.06 485.098 1502.06 491.21 Q1502.06 497.321 1499.1 501.071 Q1496.16 504.821 1491.44 504.821 Q1488.59 504.821 1486.53 503.71 Q1484.49 502.575 1483.15 500.26 M1497.64 491.21 Q1497.64 486.511 1495.7 483.848 Q1493.78 481.163 1490.4 481.163 Q1487.02 481.163 1485.07 483.848 Q1483.15 486.511 1483.15 491.21 Q1483.15 495.909 1485.07 498.594 Q1487.02 501.256 1490.4 501.256 Q1493.78 501.256 1495.7 498.594 Q1497.64 495.909 1497.64 491.21 Z" fill="#000000" fill-rule="nonzero" fill-opacity="1" /><path clip-path="url(#clip050)" d="M1506.04 478.224 L1530.88 478.224 L1530.88 481.626 L1520.56 481.626 L1520.56 504.149 L1516.37 504.149 L1516.37 481.626 L1506.04 481.626 L1506.04 478.224 Z" fill="#000000" fill-rule="nonzero" fill-opacity="1" /><path clip-path="url(#clip050)" d="M1551.65 478.224 L1555.88 478.224 L1555.88 490.399 L1567.9 478.224 L1573.13 478.224 L1563.22 488.247 L1574.4 504.149 L1569.63 504.149 L1560.44 491.071 L1555.88 495.7 L1555.88 504.149 L1551.65 504.149 L1551.65 478.224 Z" fill="#000000" fill-rule="nonzero" fill-opacity="1" /><path clip-path="url(#clip050)" d="M1592.22 491.117 Q1587.06 491.117 1585.07 492.298 Q1583.08 493.478 1583.08 496.325 Q1583.08 498.594 1584.56 499.936 Q1586.07 501.256 1588.64 501.256 Q1592.18 501.256 1594.31 498.756 Q1596.46 496.233 1596.46 492.066 L1596.46 491.117 L1592.22 491.117 M1600.72 489.358 L1600.72 504.149 L1596.46 504.149 L1596.46 500.214 Q1595 502.575 1592.83 503.71 Q1590.65 504.821 1587.5 504.821 Q1583.52 504.821 1581.16 502.598 Q1578.82 500.353 1578.82 496.603 Q1578.82 492.228 1581.74 490.006 Q1584.68 487.784 1590.49 487.784 L1596.46 487.784 L1596.46 487.367 Q1596.46 484.427 1594.52 482.83 Q1592.59 481.21 1589.1 481.21 Q1586.88 481.21 1584.77 481.742 Q1582.66 482.274 1580.72 483.339 L1580.72 479.404 Q1583.06 478.501 1585.26 478.061 Q1587.46 477.599 1589.54 477.599 Q1595.16 477.599 1597.94 480.515 Q1600.72 483.432 1600.72 489.358 Z" fill="#000000" fill-rule="nonzero" fill-opacity="1" /><path clip-path="url(#clip050)" d="M1606.41 478.224 L1631.25 478.224 L1631.25 481.626 L1620.93 481.626 L1620.93 504.149 L1616.74 504.149 L1616.74 481.626 L1606.41 481.626 L1606.41 478.224 Z" fill="#000000" fill-rule="nonzero" fill-opacity="1" /><path clip-path="url(#clip050)" d="M1659.28 490.122 L1659.28 492.205 L1639.7 492.205 Q1639.98 496.603 1642.34 498.918 Q1644.72 501.21 1648.96 501.21 Q1651.41 501.21 1653.71 500.608 Q1656.02 500.006 1658.29 498.802 L1658.29 502.83 Q1656 503.802 1653.59 504.311 Q1651.18 504.821 1648.71 504.821 Q1642.5 504.821 1638.87 501.21 Q1635.26 497.598 1635.26 491.441 Q1635.26 485.075 1638.68 481.349 Q1642.13 477.599 1647.96 477.599 Q1653.2 477.599 1656.23 480.978 Q1659.28 484.335 1659.28 490.122 M1655.02 488.872 Q1654.98 485.376 1653.06 483.293 Q1651.16 481.21 1648.01 481.21 Q1644.45 481.21 1642.29 483.224 Q1640.16 485.237 1639.84 488.895 L1655.02 488.872 Z" fill="#000000" fill-rule="nonzero" fill-opacity="1" /><path clip-path="url(#clip050)" d="M1670.39 500.26 L1670.39 514.01 L1666.11 514.01 L1666.11 478.224 L1670.39 478.224 L1670.39 482.159 Q1671.74 479.844 1673.77 478.733 Q1675.83 477.599 1678.68 477.599 Q1683.4 477.599 1686.34 481.349 Q1689.31 485.098 1689.31 491.21 Q1689.31 497.321 1686.34 501.071 Q1683.4 504.821 1678.68 504.821 Q1675.83 504.821 1673.77 503.71 Q1671.74 502.575 1670.39 500.26 M1684.89 491.21 Q1684.89 486.511 1682.94 483.848 Q1681.02 481.163 1677.64 481.163 Q1674.26 481.163 1672.32 483.848 Q1670.39 486.511 1670.39 491.21 Q1670.39 495.909 1672.32 498.594 Q1674.26 501.256 1677.64 501.256 Q1681.02 501.256 1682.94 498.594 Q1684.89 495.909 1684.89 491.21 Z" fill="#000000" fill-rule="nonzero" fill-opacity="1" /><path clip-path="url(#clip050)" d="M1708.15 491.117 Q1702.99 491.117 1701 492.298 Q1699.01 493.478 1699.01 496.325 Q1699.01 498.594 1700.49 499.936 Q1701.99 501.256 1704.56 501.256 Q1708.1 501.256 1710.23 498.756 Q1712.39 496.233 1712.39 492.066 L1712.39 491.117 L1708.15 491.117 M1716.64 489.358 L1716.64 504.149 L1712.39 504.149 L1712.39 500.214 Q1710.93 502.575 1708.75 503.71 Q1706.58 504.821 1703.43 504.821 Q1699.45 504.821 1697.08 502.598 Q1694.75 500.353 1694.75 496.603 Q1694.75 492.228 1697.66 490.006 Q1700.6 487.784 1706.41 487.784 L1712.39 487.784 L1712.39 487.367 Q1712.39 484.427 1710.44 482.83 Q1708.52 481.21 1705.02 481.21 Q1702.8 481.21 1700.7 481.742 Q1698.59 482.274 1696.64 483.339 L1696.64 479.404 Q1698.98 478.501 1701.18 478.061 Q1703.38 477.599 1705.46 477.599 Q1711.09 477.599 1713.87 480.515 Q1716.64 483.432 1716.64 489.358 Z" fill="#000000" fill-rule="nonzero" fill-opacity="1" /><path clip-path="url(#clip050)" d="M1750.72 468.177 Q1747.62 473.501 1746.11 478.71 Q1744.61 483.918 1744.61 489.265 Q1744.61 494.612 1746.11 499.867 Q1747.64 505.098 1750.72 510.399 L1747.01 510.399 Q1743.54 504.959 1741.81 499.705 Q1740.09 494.45 1740.09 489.265 Q1740.09 484.103 1741.81 478.872 Q1743.52 473.64 1747.01 468.177 L1750.72 468.177 Z" fill="#000000" fill-rule="nonzero" fill-opacity="1" /><path clip-path="url(#clip050)" d="M1760.39 500.214 L1768.03 500.214 L1768.03 473.849 L1759.72 475.515 L1759.72 471.256 L1767.99 469.589 L1772.66 469.589 L1772.66 500.214 L1780.3 500.214 L1780.3 504.149 L1760.39 504.149 L1760.39 500.214 Z" fill="#000000" fill-rule="nonzero" fill-opacity="1" /><path clip-path="url(#clip050)" d="M1788.47 468.177 L1792.18 468.177 Q1795.65 473.64 1797.36 478.872 Q1799.1 484.103 1799.1 489.265 Q1799.1 494.45 1797.36 499.705 Q1795.65 504.959 1792.18 510.399 L1788.47 510.399 Q1791.55 505.098 1793.06 499.867 Q1794.58 494.612 1794.58 489.265 Q1794.58 483.918 1793.06 478.71 Q1791.55 473.501 1788.47 468.177 Z" fill="#000000" fill-rule="nonzero" fill-opacity="1" /><path clip-path="url(#clip050)" d="M1291.04 515.954 L1291.04 561.465 L1336.55 561.465 L1336.55 515.954 L1291.04 515.954 Z" fill="#ed5d92" fill-rule="evenodd" fill-opacity="1" stroke="#000000" stroke-opacity="1" stroke-width="4.36907"/>
<path clip-path="url(#clip050)" d="M1415.33 524.091 L1415.33 529.022 Q1412.97 526.823 1410.28 525.735 Q1407.62 524.647 1404.61 524.647 Q1398.68 524.647 1395.54 528.281 Q1392.39 531.892 1392.39 538.744 Q1392.39 545.573 1395.54 549.207 Q1398.68 552.818 1404.61 552.818 Q1407.62 552.818 1410.28 551.73 Q1412.97 550.642 1415.33 548.443 L1415.33 553.327 Q1412.87 554.994 1410.12 555.827 Q1407.39 556.661 1404.33 556.661 Q1396.48 556.661 1391.97 551.869 Q1387.46 547.054 1387.46 538.744 Q1387.46 530.411 1391.97 525.619 Q1396.48 520.804 1404.33 520.804 Q1407.43 520.804 1410.16 521.638 Q1412.92 522.448 1415.33 524.091 Z" fill="#000000" fill-rule="nonzero" fill-opacity="1" /><path clip-path="url(#clip050)" d="M1419.29 530.064 L1444.12 530.064 L1444.12 533.466 L1433.8 533.466 L1433.8 555.989 L1429.61 555.989 L1429.61 533.466 L1419.29 533.466 L1419.29 530.064 Z" fill="#000000" fill-rule="nonzero" fill-opacity="1" /><path clip-path="url(#clip050)" d="M1461.76 542.957 Q1456.6 542.957 1454.61 544.138 Q1452.62 545.318 1452.62 548.165 Q1452.62 550.434 1454.1 551.776 Q1455.6 553.096 1458.17 553.096 Q1461.72 553.096 1463.85 550.596 Q1466 548.073 1466 543.906 L1466 542.957 L1461.76 542.957 M1470.26 541.198 L1470.26 555.989 L1466 555.989 L1466 552.054 Q1464.54 554.415 1462.36 555.55 Q1460.19 556.661 1457.04 556.661 Q1453.06 556.661 1450.7 554.438 Q1448.36 552.193 1448.36 548.443 Q1448.36 544.068 1451.28 541.846 Q1454.22 539.624 1460.03 539.624 L1466 539.624 L1466 539.207 Q1466 536.267 1464.05 534.67 Q1462.13 533.05 1458.64 533.05 Q1456.41 533.05 1454.31 533.582 Q1452.2 534.114 1450.26 535.179 L1450.26 531.244 Q1452.6 530.341 1454.79 529.901 Q1456.99 529.439 1459.08 529.439 Q1464.7 529.439 1467.48 532.355 Q1470.26 535.272 1470.26 541.198 Z" fill="#000000" fill-rule="nonzero" fill-opacity="1" /><path clip-path="url(#clip050)" d="M1483.15 552.1 L1483.15 565.85 L1478.87 565.85 L1478.87 530.064 L1483.15 530.064 L1483.15 533.999 Q1484.49 531.684 1486.53 530.573 Q1488.59 529.439 1491.44 529.439 Q1496.16 529.439 1499.1 533.189 Q1502.06 536.938 1502.06 543.05 Q1502.06 549.161 1499.1 552.911 Q1496.16 556.661 1491.44 556.661 Q1488.59 556.661 1486.53 555.55 Q1484.49 554.415 1483.15 552.1 M1497.64 543.05 Q1497.64 538.351 1495.7 535.688 Q1493.78 533.003 1490.4 533.003 Q1487.02 533.003 1485.07 535.688 Q1483.15 538.351 1483.15 543.05 Q1483.15 547.749 1485.07 550.434 Q1487.02 553.096 1490.4 553.096 Q1493.78 553.096 1495.7 550.434 Q1497.64 547.749 1497.64 543.05 Z" fill="#000000" fill-rule="nonzero" fill-opacity="1" /><path clip-path="url(#clip050)" d="M1506.04 530.064 L1530.88 530.064 L1530.88 533.466 L1520.56 533.466 L1520.56 555.989 L1516.37 555.989 L1516.37 533.466 L1506.04 533.466 L1506.04 530.064 Z" fill="#000000" fill-rule="nonzero" fill-opacity="1" /><path clip-path="url(#clip050)" d="M1551.65 530.064 L1555.88 530.064 L1555.88 542.239 L1567.9 530.064 L1573.13 530.064 L1563.22 540.087 L1574.4 555.989 L1569.63 555.989 L1560.44 542.911 L1555.88 547.54 L1555.88 555.989 L1551.65 555.989 L1551.65 530.064 Z" fill="#000000" fill-rule="nonzero" fill-opacity="1" /><path clip-path="url(#clip050)" d="M1592.22 542.957 Q1587.06 542.957 1585.07 544.138 Q1583.08 545.318 1583.08 548.165 Q1583.08 550.434 1584.56 551.776 Q1586.07 553.096 1588.64 553.096 Q1592.18 553.096 1594.31 550.596 Q1596.46 548.073 1596.46 543.906 L1596.46 542.957 L1592.22 542.957 M1600.72 541.198 L1600.72 555.989 L1596.46 555.989 L1596.46 552.054 Q1595 554.415 1592.83 555.55 Q1590.65 556.661 1587.5 556.661 Q1583.52 556.661 1581.16 554.438 Q1578.82 552.193 1578.82 548.443 Q1578.82 544.068 1581.74 541.846 Q1584.68 539.624 1590.49 539.624 L1596.46 539.624 L1596.46 539.207 Q1596.46 536.267 1594.52 534.67 Q1592.59 533.05 1589.1 533.05 Q1586.88 533.05 1584.77 533.582 Q1582.66 534.114 1580.72 535.179 L1580.72 531.244 Q1583.06 530.341 1585.26 529.901 Q1587.46 529.439 1589.54 529.439 Q1595.16 529.439 1597.94 532.355 Q1600.72 535.272 1600.72 541.198 Z" fill="#000000" fill-rule="nonzero" fill-opacity="1" /><path clip-path="url(#clip050)" d="M1606.41 530.064 L1631.25 530.064 L1631.25 533.466 L1620.93 533.466 L1620.93 555.989 L1616.74 555.989 L1616.74 533.466 L1606.41 533.466 L1606.41 530.064 Z" fill="#000000" fill-rule="nonzero" fill-opacity="1" /><path clip-path="url(#clip050)" d="M1659.28 541.962 L1659.28 544.045 L1639.7 544.045 Q1639.98 548.443 1642.34 550.758 Q1644.72 553.05 1648.96 553.05 Q1651.41 553.05 1653.71 552.448 Q1656.02 551.846 1658.29 550.642 L1658.29 554.67 Q1656 555.642 1653.59 556.151 Q1651.18 556.661 1648.71 556.661 Q1642.5 556.661 1638.87 553.05 Q1635.26 549.438 1635.26 543.281 Q1635.26 536.915 1638.68 533.189 Q1642.13 529.439 1647.96 529.439 Q1653.2 529.439 1656.23 532.818 Q1659.28 536.175 1659.28 541.962 M1655.02 540.712 Q1654.98 537.216 1653.06 535.133 Q1651.16 533.05 1648.01 533.05 Q1644.45 533.05 1642.29 535.064 Q1640.16 537.077 1639.84 540.735 L1655.02 540.712 Z" fill="#000000" fill-rule="nonzero" fill-opacity="1" /><path clip-path="url(#clip050)" d="M1670.39 552.1 L1670.39 565.85 L1666.11 565.85 L1666.11 530.064 L1670.39 530.064 L1670.39 533.999 Q1671.74 531.684 1673.77 530.573 Q1675.83 529.439 1678.68 529.439 Q1683.4 529.439 1686.34 533.189 Q1689.31 536.938 1689.31 543.05 Q1689.31 549.161 1686.34 552.911 Q1683.4 556.661 1678.68 556.661 Q1675.83 556.661 1673.77 555.55 Q1671.74 554.415 1670.39 552.1 M1684.89 543.05 Q1684.89 538.351 1682.94 535.688 Q1681.02 533.003 1677.64 533.003 Q1674.26 533.003 1672.32 535.688 Q1670.39 538.351 1670.39 543.05 Q1670.39 547.749 1672.32 550.434 Q1674.26 553.096 1677.64 553.096 Q1681.02 553.096 1682.94 550.434 Q1684.89 547.749 1684.89 543.05 Z" fill="#000000" fill-rule="nonzero" fill-opacity="1" /><path clip-path="url(#clip050)" d="M1708.15 542.957 Q1702.99 542.957 1701 544.138 Q1699.01 545.318 1699.01 548.165 Q1699.01 550.434 1700.49 551.776 Q1701.99 553.096 1704.56 553.096 Q1708.1 553.096 1710.23 550.596 Q1712.39 548.073 1712.39 543.906 L1712.39 542.957 L1708.15 542.957 M1716.64 541.198 L1716.64 555.989 L1712.39 555.989 L1712.39 552.054 Q1710.93 554.415 1708.75 555.55 Q1706.58 556.661 1703.43 556.661 Q1699.45 556.661 1697.08 554.438 Q1694.75 552.193 1694.75 548.443 Q1694.75 544.068 1697.66 541.846 Q1700.6 539.624 1706.41 539.624 L1712.39 539.624 L1712.39 539.207 Q1712.39 536.267 1710.44 534.67 Q1708.52 533.05 1705.02 533.05 Q1702.8 533.05 1700.7 533.582 Q1698.59 534.114 1696.64 535.179 L1696.64 531.244 Q1698.98 530.341 1701.18 529.901 Q1703.38 529.439 1705.46 529.439 Q1711.09 529.439 1713.87 532.355 Q1716.64 535.272 1716.64 541.198 Z" fill="#000000" fill-rule="nonzero" fill-opacity="1" /><path clip-path="url(#clip050)" d="M1750.72 520.017 Q1747.62 525.341 1746.11 530.55 Q1744.61 535.758 1744.61 541.105 Q1744.61 546.452 1746.11 551.707 Q1747.64 556.938 1750.72 562.239 L1747.01 562.239 Q1743.54 556.799 1741.81 551.545 Q1740.09 546.29 1740.09 541.105 Q1740.09 535.943 1741.81 530.712 Q1743.52 525.48 1747.01 520.017 L1750.72 520.017 Z" fill="#000000" fill-rule="nonzero" fill-opacity="1" /><path clip-path="url(#clip050)" d="M1763.61 552.054 L1779.93 552.054 L1779.93 555.989 L1757.99 555.989 L1757.99 552.054 Q1760.65 549.3 1765.23 544.67 Q1769.84 540.017 1771.02 538.675 Q1773.26 536.151 1774.14 534.415 Q1775.05 532.656 1775.05 530.966 Q1775.05 528.212 1773.1 526.476 Q1771.18 524.739 1768.08 524.739 Q1765.88 524.739 1763.43 525.503 Q1761 526.267 1758.22 527.818 L1758.22 523.096 Q1761.04 521.962 1763.5 521.383 Q1765.95 520.804 1767.99 520.804 Q1773.36 520.804 1776.55 523.489 Q1779.75 526.175 1779.75 530.665 Q1779.75 532.795 1778.94 534.716 Q1778.15 536.614 1776.04 539.207 Q1775.46 539.878 1772.36 543.096 Q1769.26 546.29 1763.61 552.054 Z" fill="#000000" fill-rule="nonzero" fill-opacity="1" /><path clip-path="url(#clip050)" d="M1788.47 520.017 L1792.18 520.017 Q1795.65 525.48 1797.36 530.712 Q1799.1 535.943 1799.1 541.105 Q1799.1 546.29 1797.36 551.545 Q1795.65 556.799 1792.18 562.239 L1788.47 562.239 Q1791.55 556.938 1793.06 551.707 Q1794.58 546.452 1794.58 541.105 Q1794.58 535.758 1793.06 530.55 Q1791.55 525.341 1788.47 520.017 Z" fill="#000000" fill-rule="nonzero" fill-opacity="1" /></svg>
