<?xml version="1.0" encoding="utf-8"?>
<svg xmlns="http://www.w3.org/2000/svg" xmlns:xlink="http://www.w3.org/1999/xlink" width="528" height="336" viewBox="0 0 2112 1344">
<defs>
  <clipPath id="clip440">
    <rect x="0" y="0" width="2112" height="1344"/>
  </clipPath>
</defs>
<path clip-path="url(#clip440)" d="M0 1344 L2112 1344 L2112 0 L0 0  Z" fill="#ffffff" fill-rule="evenodd" fill-opacity="1"/>
<defs>
  <clipPath id="clip441">
    <rect x="509" y="0" width="1551" height="1330"/>
  </clipPath>
</defs>
<path clip-path="url(#clip440)" d="M198.924 1173.47 L2064.76 1173.47 L2064.76 120.723 L198.924 120.723  Z" fill="#ffffff" fill-rule="evenodd" fill-opacity="1"/>
<defs>
  <clipPath id="clip442">
    <rect x="198" y="120" width="1867" height="1054"/>
  </clipPath>
</defs>
<polyline clip-path="url(#clip442)" style="stroke:#000000; stroke-linecap:round; stroke-linejoin:round; stroke-width:2; stroke-opacity:0.1; fill:none" points="251.73,1173.47 251.73,120.723 "/>
<polyline clip-path="url(#clip442)" style="stroke:#000000; stroke-linecap:round; stroke-linejoin:round; stroke-width:2; stroke-opacity:0.1; fill:none" points="691.785,1173.47 691.785,120.723 "/>
<polyline clip-path="url(#clip442)" style="stroke:#000000; stroke-linecap:round; stroke-linejoin:round; stroke-width:2; stroke-opacity:0.1; fill:none" points="1131.84,1173.47 1131.84,120.723 "/>
<polyline clip-path="url(#clip442)" style="stroke:#000000; stroke-linecap:round; stroke-linejoin:round; stroke-width:2; stroke-opacity:0.1; fill:none" points="1571.89,1173.47 1571.89,120.723 "/>
<polyline clip-path="url(#clip442)" style="stroke:#000000; stroke-linecap:round; stroke-linejoin:round; stroke-width:2; stroke-opacity:0.1; fill:none" points="2011.95,1173.47 2011.95,120.723 "/>
<polyline clip-path="url(#clip442)" style="stroke:#000000; stroke-linecap:round; stroke-linejoin:round; stroke-width:2; stroke-opacity:0.1; fill:none" points="198.924,935.526 2064.76,935.526 "/>
<polyline clip-path="url(#clip442)" style="stroke:#000000; stroke-linecap:round; stroke-linejoin:round; stroke-width:2; stroke-opacity:0.1; fill:none" points="198.924,675.339 2064.76,675.339 "/>
<polyline clip-path="url(#clip442)" style="stroke:#000000; stroke-linecap:round; stroke-linejoin:round; stroke-width:2; stroke-opacity:0.1; fill:none" points="198.924,415.152 2064.76,415.152 "/>
<polyline clip-path="url(#clip442)" style="stroke:#000000; stroke-linecap:round; stroke-linejoin:round; stroke-width:2; stroke-opacity:0.1; fill:none" points="198.924,154.964 2064.76,154.964 "/>
<polyline clip-path="url(#clip440)" style="stroke:#000000; stroke-linecap:round; stroke-linejoin:round; stroke-width:4; stroke-opacity:1; fill:none" points="198.924,1173.47 2064.76,1173.47 "/>
<polyline clip-path="url(#clip440)" style="stroke:#000000; stroke-linecap:round; stroke-linejoin:round; stroke-width:4; stroke-opacity:1; fill:none" points="251.73,1173.47 251.73,1154.57 "/>
<polyline clip-path="url(#clip440)" style="stroke:#000000; stroke-linecap:round; stroke-linejoin:round; stroke-width:4; stroke-opacity:1; fill:none" points="691.785,1173.47 691.785,1154.57 "/>
<polyline clip-path="url(#clip440)" style="stroke:#000000; stroke-linecap:round; stroke-linejoin:round; stroke-width:4; stroke-opacity:1; fill:none" points="1131.84,1173.47 1131.84,1154.57 "/>
<polyline clip-path="url(#clip440)" style="stroke:#000000; stroke-linecap:round; stroke-linejoin:round; stroke-width:4; stroke-opacity:1; fill:none" points="1571.89,1173.47 1571.89,1154.57 "/>
<polyline clip-path="url(#clip440)" style="stroke:#000000; stroke-linecap:round; stroke-linejoin:round; stroke-width:4; stroke-opacity:1; fill:none" points="2011.95,1173.47 2011.95,1154.57 "/>
<path clip-path="url(#clip440)" d="M229.115 1202.09 Q225.503 1202.09 223.675 1205.65 Q221.869 1209.19 221.869 1216.32 Q221.869 1223.43 223.675 1226.99 Q225.503 1230.53 229.115 1230.53 Q232.749 1230.53 234.554 1226.99 Q236.383 1223.43 236.383 1216.32 Q236.383 1209.19 234.554 1205.65 Q232.749 1202.09 229.115 1202.09 M229.115 1198.38 Q234.925 1198.38 237.98 1202.99 Q241.059 1207.57 241.059 1216.32 Q241.059 1225.05 237.98 1229.65 Q234.925 1234.24 229.115 1234.24 Q223.304 1234.24 220.226 1229.65 Q217.17 1225.05 217.17 1216.32 Q217.17 1207.57 220.226 1202.99 Q223.304 1198.38 229.115 1198.38 Z" fill="#000000" fill-rule="nonzero" fill-opacity="1" /><path clip-path="url(#clip440)" d="M249.276 1227.69 L254.161 1227.69 L254.161 1233.57 L249.276 1233.57 L249.276 1227.69 Z" fill="#000000" fill-rule="nonzero" fill-opacity="1" /><path clip-path="url(#clip440)" d="M274.346 1202.09 Q270.735 1202.09 268.906 1205.65 Q267.1 1209.19 267.1 1216.32 Q267.1 1223.43 268.906 1226.99 Q270.735 1230.53 274.346 1230.53 Q277.98 1230.53 279.786 1226.99 Q281.614 1223.43 281.614 1216.32 Q281.614 1209.19 279.786 1205.65 Q277.98 1202.09 274.346 1202.09 M274.346 1198.38 Q280.156 1198.38 283.211 1202.99 Q286.29 1207.57 286.29 1216.32 Q286.29 1225.05 283.211 1229.65 Q280.156 1234.24 274.346 1234.24 Q268.536 1234.24 265.457 1229.65 Q262.401 1225.05 262.401 1216.32 Q262.401 1207.57 265.457 1202.99 Q268.536 1198.38 274.346 1198.38 Z" fill="#000000" fill-rule="nonzero" fill-opacity="1" /><path clip-path="url(#clip440)" d="M663.521 1229.63 L679.841 1229.63 L679.841 1233.57 L657.896 1233.57 L657.896 1229.63 Q660.558 1226.88 665.142 1222.25 Q669.748 1217.59 670.929 1216.25 Q673.174 1213.73 674.054 1211.99 Q674.956 1210.23 674.956 1208.54 Q674.956 1205.79 673.012 1204.05 Q671.091 1202.32 667.989 1202.32 Q665.79 1202.32 663.336 1203.08 Q660.905 1203.84 658.128 1205.4 L658.128 1200.67 Q660.952 1199.54 663.405 1198.96 Q665.859 1198.38 667.896 1198.38 Q673.267 1198.38 676.461 1201.07 Q679.655 1203.75 679.655 1208.24 Q679.655 1210.37 678.845 1212.29 Q678.058 1214.19 675.952 1216.78 Q675.373 1217.46 672.271 1220.67 Q669.169 1223.87 663.521 1229.63 Z" fill="#000000" fill-rule="nonzero" fill-opacity="1" /><path clip-path="url(#clip440)" d="M689.655 1227.69 L694.54 1227.69 L694.54 1233.57 L689.655 1233.57 L689.655 1227.69 Z" fill="#000000" fill-rule="nonzero" fill-opacity="1" /><path clip-path="url(#clip440)" d="M704.771 1199.01 L723.127 1199.01 L723.127 1202.94 L709.053 1202.94 L709.053 1211.41 Q710.072 1211.07 711.09 1210.9 Q712.109 1210.72 713.127 1210.72 Q718.914 1210.72 722.294 1213.89 Q725.674 1217.06 725.674 1222.48 Q725.674 1228.06 722.201 1231.16 Q718.729 1234.24 712.41 1234.24 Q710.234 1234.24 707.965 1233.87 Q705.72 1233.5 703.313 1232.76 L703.313 1228.06 Q705.396 1229.19 707.618 1229.75 Q709.84 1230.3 712.317 1230.3 Q716.322 1230.3 718.66 1228.2 Q720.998 1226.09 720.998 1222.48 Q720.998 1218.87 718.66 1216.76 Q716.322 1214.65 712.317 1214.65 Q710.442 1214.65 708.567 1215.07 Q706.715 1215.49 704.771 1216.37 L704.771 1199.01 Z" fill="#000000" fill-rule="nonzero" fill-opacity="1" /><path clip-path="url(#clip440)" d="M1099 1199.01 L1117.36 1199.01 L1117.36 1202.94 L1103.29 1202.94 L1103.29 1211.41 Q1104.31 1211.07 1105.32 1210.9 Q1106.34 1210.72 1107.36 1210.72 Q1113.15 1210.72 1116.53 1213.89 Q1119.91 1217.06 1119.91 1222.48 Q1119.91 1228.06 1116.43 1231.16 Q1112.96 1234.24 1106.64 1234.24 Q1104.47 1234.24 1102.2 1233.87 Q1099.95 1233.5 1097.55 1232.76 L1097.55 1228.06 Q1099.63 1229.19 1101.85 1229.75 Q1104.07 1230.3 1106.55 1230.3 Q1110.56 1230.3 1112.89 1228.2 Q1115.23 1226.09 1115.23 1222.48 Q1115.23 1218.87 1112.89 1216.76 Q1110.56 1214.65 1106.55 1214.65 Q1104.68 1214.65 1102.8 1215.07 Q1100.95 1215.49 1099 1216.37 L1099 1199.01 Z" fill="#000000" fill-rule="nonzero" fill-opacity="1" /><path clip-path="url(#clip440)" d="M1129.12 1227.69 L1134 1227.69 L1134 1233.57 L1129.12 1233.57 L1129.12 1227.69 Z" fill="#000000" fill-rule="nonzero" fill-opacity="1" /><path clip-path="url(#clip440)" d="M1154.19 1202.09 Q1150.58 1202.09 1148.75 1205.65 Q1146.94 1209.19 1146.94 1216.32 Q1146.94 1223.43 1148.75 1226.99 Q1150.58 1230.53 1154.19 1230.53 Q1157.82 1230.53 1159.63 1226.99 Q1161.46 1223.43 1161.46 1216.32 Q1161.46 1209.19 1159.63 1205.65 Q1157.82 1202.09 1154.19 1202.09 M1154.19 1198.38 Q1160 1198.38 1163.05 1202.99 Q1166.13 1207.57 1166.13 1216.32 Q1166.13 1225.05 1163.05 1229.65 Q1160 1234.24 1154.19 1234.24 Q1148.38 1234.24 1145.3 1229.65 Q1142.24 1225.05 1142.24 1216.32 Q1142.24 1207.57 1145.3 1202.99 Q1148.38 1198.38 1154.19 1198.38 Z" fill="#000000" fill-rule="nonzero" fill-opacity="1" /><path clip-path="url(#clip440)" d="M1538.21 1199.01 L1560.44 1199.01 L1560.44 1201 L1547.89 1233.57 L1543.01 1233.57 L1554.81 1202.94 L1538.21 1202.94 L1538.21 1199.01 Z" fill="#000000" fill-rule="nonzero" fill-opacity="1" /><path clip-path="url(#clip440)" d="M1569.56 1227.69 L1574.44 1227.69 L1574.44 1233.57 L1569.56 1233.57 L1569.56 1227.69 Z" fill="#000000" fill-rule="nonzero" fill-opacity="1" /><path clip-path="url(#clip440)" d="M1584.67 1199.01 L1603.03 1199.01 L1603.03 1202.94 L1588.95 1202.94 L1588.95 1211.41 Q1589.97 1211.07 1590.99 1210.9 Q1592.01 1210.72 1593.03 1210.72 Q1598.82 1210.72 1602.2 1213.89 Q1605.57 1217.06 1605.57 1222.48 Q1605.57 1228.06 1602.1 1231.16 Q1598.63 1234.24 1592.31 1234.24 Q1590.14 1234.24 1587.87 1233.87 Q1585.62 1233.5 1583.21 1232.76 L1583.21 1228.06 Q1585.3 1229.19 1587.52 1229.75 Q1589.74 1230.3 1592.22 1230.3 Q1596.22 1230.3 1598.56 1228.2 Q1600.9 1226.09 1600.9 1222.48 Q1600.9 1218.87 1598.56 1216.76 Q1596.22 1214.65 1592.22 1214.65 Q1590.34 1214.65 1588.47 1215.07 Q1586.62 1215.49 1584.67 1216.37 L1584.67 1199.01 Z" fill="#000000" fill-rule="nonzero" fill-opacity="1" /><path clip-path="url(#clip440)" d="M1964.02 1229.63 L1971.66 1229.63 L1971.66 1203.27 L1963.35 1204.93 L1963.35 1200.67 L1971.61 1199.01 L1976.29 1199.01 L1976.29 1229.63 L1983.93 1229.63 L1983.93 1233.57 L1964.02 1233.57 L1964.02 1229.63 Z" fill="#000000" fill-rule="nonzero" fill-opacity="1" /><path clip-path="url(#clip440)" d="M2003.37 1202.09 Q1999.76 1202.09 1997.93 1205.65 Q1996.13 1209.19 1996.13 1216.32 Q1996.13 1223.43 1997.93 1226.99 Q1999.76 1230.53 2003.37 1230.53 Q2007.01 1230.53 2008.81 1226.99 Q2010.64 1223.43 2010.64 1216.32 Q2010.64 1209.19 2008.81 1205.65 Q2007.01 1202.09 2003.37 1202.09 M2003.37 1198.38 Q2009.18 1198.38 2012.24 1202.99 Q2015.32 1207.57 2015.32 1216.32 Q2015.32 1225.05 2012.24 1229.65 Q2009.18 1234.24 2003.37 1234.24 Q1997.56 1234.24 1994.48 1229.65 Q1991.43 1225.05 1991.43 1216.32 Q1991.43 1207.57 1994.48 1202.99 Q1997.56 1198.38 2003.37 1198.38 Z" fill="#000000" fill-rule="nonzero" fill-opacity="1" /><path clip-path="url(#clip440)" d="M2023.53 1227.69 L2028.42 1227.69 L2028.42 1233.57 L2023.53 1233.57 L2023.53 1227.69 Z" fill="#000000" fill-rule="nonzero" fill-opacity="1" /><path clip-path="url(#clip440)" d="M2048.6 1202.09 Q2044.99 1202.09 2043.16 1205.65 Q2041.36 1209.19 2041.36 1216.32 Q2041.36 1223.43 2043.16 1226.99 Q2044.99 1230.53 2048.6 1230.53 Q2052.24 1230.53 2054.04 1226.99 Q2055.87 1223.43 2055.87 1216.32 Q2055.87 1209.19 2054.04 1205.65 Q2052.24 1202.09 2048.6 1202.09 M2048.6 1198.38 Q2054.41 1198.38 2057.47 1202.99 Q2060.55 1207.57 2060.55 1216.32 Q2060.55 1225.05 2057.47 1229.65 Q2054.41 1234.24 2048.6 1234.24 Q2042.79 1234.24 2039.72 1229.65 Q2036.66 1225.05 2036.66 1216.32 Q2036.66 1207.57 2039.72 1202.99 Q2042.79 1198.38 2048.6 1198.38 Z" fill="#000000" fill-rule="nonzero" fill-opacity="1" /><path clip-path="url(#clip440)" d="M1001.45 1291.32 L1001.45 1308.73 L1011.77 1308.73 Q1016.95 1308.73 1019.44 1306.6 Q1021.95 1304.43 1021.95 1300.01 Q1021.95 1295.55 1019.44 1293.45 Q1016.95 1291.32 1011.77 1291.32 L1001.45 1291.32 M1001.45 1271.78 L1001.45 1286.1 L1010.97 1286.1 Q1015.68 1286.1 1017.97 1284.35 Q1020.3 1282.57 1020.3 1278.94 Q1020.3 1275.34 1017.97 1273.56 Q1015.68 1271.78 1010.97 1271.78 L1001.45 1271.78 M995.025 1266.49 L1011.45 1266.49 Q1018.8 1266.49 1022.78 1269.55 Q1026.76 1272.61 1026.76 1278.24 Q1026.76 1282.6 1024.72 1285.18 Q1022.68 1287.76 1018.74 1288.39 Q1023.48 1289.41 1026.09 1292.66 Q1028.73 1295.87 1028.73 1300.71 Q1028.73 1307.08 1024.4 1310.55 Q1020.07 1314.01 1012.08 1314.01 L995.025 1314.01 L995.025 1266.49 Z" fill="#000000" fill-rule="nonzero" fill-opacity="1" /><path clip-path="url(#clip440)" d="M1045.15 1308.67 L1045.15 1327.57 L1039.27 1327.57 L1039.27 1278.37 L1045.15 1278.37 L1045.15 1283.78 Q1047 1280.59 1049.8 1279.07 Q1052.63 1277.51 1056.55 1277.51 Q1063.04 1277.51 1067.08 1282.66 Q1071.16 1287.82 1071.16 1296.22 Q1071.16 1304.63 1067.08 1309.78 Q1063.04 1314.94 1056.55 1314.94 Q1052.63 1314.94 1049.8 1313.41 Q1047 1311.85 1045.15 1308.67 M1065.08 1296.22 Q1065.08 1289.76 1062.41 1286.1 Q1059.76 1282.41 1055.12 1282.41 Q1050.47 1282.41 1047.8 1286.1 Q1045.15 1289.76 1045.15 1296.22 Q1045.15 1302.68 1047.8 1306.38 Q1050.47 1310.04 1055.12 1310.04 Q1059.76 1310.04 1062.41 1306.38 Q1065.08 1302.68 1065.08 1296.22 Z" fill="#000000" fill-rule="nonzero" fill-opacity="1" /><path clip-path="url(#clip440)" d="M1111.36 1294.73 L1111.36 1297.59 L1084.43 1297.59 Q1084.81 1303.64 1088.06 1306.82 Q1091.34 1309.97 1097.16 1309.97 Q1100.54 1309.97 1103.69 1309.14 Q1106.87 1308.32 1109.99 1306.66 L1109.99 1312.2 Q1106.84 1313.54 1103.53 1314.24 Q1100.22 1314.94 1096.81 1314.94 Q1088.28 1314.94 1083.29 1309.97 Q1078.32 1305.01 1078.32 1296.54 Q1078.32 1287.79 1083.03 1282.66 Q1087.77 1277.51 1095.79 1277.51 Q1102.99 1277.51 1107.16 1282.15 Q1111.36 1286.77 1111.36 1294.73 M1105.5 1293.01 Q1105.44 1288.2 1102.8 1285.34 Q1100.19 1282.47 1095.86 1282.47 Q1090.96 1282.47 1088 1285.24 Q1085.07 1288.01 1084.62 1293.04 L1105.5 1293.01 Z" fill="#000000" fill-rule="nonzero" fill-opacity="1" /><path clip-path="url(#clip440)" d="M1120.75 1278.37 L1129.31 1278.37 L1139.43 1302.24 L1149.58 1278.37 L1158.08 1278.37 L1158.08 1314.01 L1152.19 1314.01 L1152.19 1283.97 L1142.36 1307.17 L1136.5 1307.17 L1126.64 1283.97 L1126.64 1314.01 L1120.75 1314.01 L1120.75 1278.37 Z" fill="#000000" fill-rule="nonzero" fill-opacity="1" /><path clip-path="url(#clip440)" d="M1176.03 1288.65 Q1176.03 1291.29 1178.07 1292.79 Q1180.11 1294.28 1183.9 1294.28 L1191.79 1294.28 L1191.79 1283.05 L1183.9 1283.05 Q1180.11 1283.05 1178.07 1284.51 Q1176.03 1285.97 1176.03 1288.65 M1167.69 1314.01 L1178.58 1298.39 Q1174.89 1297.56 1172.44 1295.4 Q1169.99 1293.2 1169.99 1288.65 Q1169.99 1283.49 1173.39 1280.94 Q1176.83 1278.37 1183.74 1278.37 L1197.68 1278.37 L1197.68 1314.01 L1191.79 1314.01 L1191.79 1298.96 L1184.5 1298.96 L1174 1314.01 L1167.69 1314.01 Z" fill="#000000" fill-rule="nonzero" fill-opacity="1" /><path clip-path="url(#clip440)" d="M1210.85 1305.93 L1217.57 1305.93 L1217.57 1311.4 L1212.35 1321.59 L1208.24 1321.59 L1210.85 1311.4 L1210.85 1305.93 Z" fill="#000000" fill-rule="nonzero" fill-opacity="1" /><path clip-path="url(#clip440)" d="M1256.59 1268.25 L1256.59 1278.37 L1268.65 1278.37 L1268.65 1282.92 L1256.59 1282.92 L1256.59 1302.27 Q1256.59 1306.63 1257.77 1307.87 Q1258.98 1309.11 1262.64 1309.11 L1268.65 1309.11 L1268.65 1314.01 L1262.64 1314.01 Q1255.86 1314.01 1253.28 1311.5 Q1250.7 1308.95 1250.7 1302.27 L1250.7 1282.92 L1246.41 1282.92 L1246.41 1278.37 L1250.7 1278.37 L1250.7 1268.25 L1256.59 1268.25 Z" fill="#000000" fill-rule="nonzero" fill-opacity="1" /><polyline clip-path="url(#clip440)" style="stroke:#000000; stroke-linecap:round; stroke-linejoin:round; stroke-width:4; stroke-opacity:1; fill:none" points="198.924,1173.47 198.924,120.723 "/>
<polyline clip-path="url(#clip440)" style="stroke:#000000; stroke-linecap:round; stroke-linejoin:round; stroke-width:4; stroke-opacity:1; fill:none" points="198.924,935.526 217.821,935.526 "/>
<polyline clip-path="url(#clip440)" style="stroke:#000000; stroke-linecap:round; stroke-linejoin:round; stroke-width:4; stroke-opacity:1; fill:none" points="198.924,675.339 217.821,675.339 "/>
<polyline clip-path="url(#clip440)" style="stroke:#000000; stroke-linecap:round; stroke-linejoin:round; stroke-width:4; stroke-opacity:1; fill:none" points="198.924,415.152 217.821,415.152 "/>
<polyline clip-path="url(#clip440)" style="stroke:#000000; stroke-linecap:round; stroke-linejoin:round; stroke-width:4; stroke-opacity:1; fill:none" points="198.924,154.964 217.821,154.964 "/>
<path clip-path="url(#clip440)" d="M146.341 918.246 L164.697 918.246 L164.697 922.181 L150.623 922.181 L150.623 930.654 Q151.642 930.306 152.66 930.144 Q153.679 929.959 154.697 929.959 Q160.484 929.959 163.864 933.13 Q167.244 936.302 167.244 941.718 Q167.244 947.297 163.771 950.399 Q160.299 953.477 153.98 953.477 Q151.804 953.477 149.535 953.107 Q147.29 952.737 144.883 951.996 L144.883 947.297 Q146.966 948.431 149.188 948.987 Q151.41 949.542 153.887 949.542 Q157.892 949.542 160.23 947.436 Q162.568 945.329 162.568 941.718 Q162.568 938.107 160.23 936.001 Q157.892 933.894 153.887 933.894 Q152.012 933.894 150.137 934.311 Q148.285 934.728 146.341 935.607 L146.341 918.246 Z" fill="#000000" fill-rule="nonzero" fill-opacity="1" /><path clip-path="url(#clip440)" d="M115.948 688.684 L123.586 688.684 L123.586 662.318 L115.276 663.985 L115.276 659.726 L123.54 658.059 L128.216 658.059 L128.216 688.684 L135.855 688.684 L135.855 692.619 L115.948 692.619 L115.948 688.684 Z" fill="#000000" fill-rule="nonzero" fill-opacity="1" /><path clip-path="url(#clip440)" d="M155.299 661.138 Q151.688 661.138 149.859 664.702 Q148.054 668.244 148.054 675.374 Q148.054 682.48 149.859 686.045 Q151.688 689.586 155.299 689.586 Q158.933 689.586 160.739 686.045 Q162.568 682.48 162.568 675.374 Q162.568 668.244 160.739 664.702 Q158.933 661.138 155.299 661.138 M155.299 657.434 Q161.109 657.434 164.165 662.04 Q167.244 666.624 167.244 675.374 Q167.244 684.1 164.165 688.707 Q161.109 693.29 155.299 693.29 Q149.489 693.29 146.41 688.707 Q143.355 684.1 143.355 675.374 Q143.355 666.624 146.41 662.04 Q149.489 657.434 155.299 657.434 Z" fill="#000000" fill-rule="nonzero" fill-opacity="1" /><path clip-path="url(#clip440)" d="M116.943 428.496 L124.582 428.496 L124.582 402.131 L116.272 403.797 L116.272 399.538 L124.535 397.872 L129.211 397.872 L129.211 428.496 L136.85 428.496 L136.85 432.432 L116.943 432.432 L116.943 428.496 Z" fill="#000000" fill-rule="nonzero" fill-opacity="1" /><path clip-path="url(#clip440)" d="M146.341 397.872 L164.697 397.872 L164.697 401.807 L150.623 401.807 L150.623 410.279 Q151.642 409.932 152.66 409.77 Q153.679 409.584 154.697 409.584 Q160.484 409.584 163.864 412.756 Q167.244 415.927 167.244 421.344 Q167.244 426.922 163.771 430.024 Q160.299 433.103 153.98 433.103 Q151.804 433.103 149.535 432.733 Q147.29 432.362 144.883 431.621 L144.883 426.922 Q146.966 428.057 149.188 428.612 Q151.41 429.168 153.887 429.168 Q157.892 429.168 160.23 427.061 Q162.568 424.955 162.568 421.344 Q162.568 417.733 160.23 415.626 Q157.892 413.52 153.887 413.52 Q152.012 413.52 150.137 413.936 Q148.285 414.353 146.341 415.233 L146.341 397.872 Z" fill="#000000" fill-rule="nonzero" fill-opacity="1" /><path clip-path="url(#clip440)" d="M119.165 168.309 L135.484 168.309 L135.484 172.244 L113.54 172.244 L113.54 168.309 Q116.202 165.555 120.785 160.925 Q125.392 156.272 126.572 154.93 Q128.818 152.406 129.697 150.67 Q130.6 148.911 130.6 147.221 Q130.6 144.467 128.656 142.731 Q126.735 140.994 123.633 140.994 Q121.434 140.994 118.98 141.758 Q116.549 142.522 113.772 144.073 L113.772 139.351 Q116.596 138.217 119.049 137.638 Q121.503 137.059 123.54 137.059 Q128.91 137.059 132.105 139.744 Q135.299 142.43 135.299 146.92 Q135.299 149.05 134.489 150.971 Q133.702 152.869 131.596 155.462 Q131.017 156.133 127.915 159.351 Q124.813 162.545 119.165 168.309 Z" fill="#000000" fill-rule="nonzero" fill-opacity="1" /><path clip-path="url(#clip440)" d="M155.299 140.763 Q151.688 140.763 149.859 144.328 Q148.054 147.869 148.054 154.999 Q148.054 162.105 149.859 165.67 Q151.688 169.212 155.299 169.212 Q158.933 169.212 160.739 165.67 Q162.568 162.105 162.568 154.999 Q162.568 147.869 160.739 144.328 Q158.933 140.763 155.299 140.763 M155.299 137.059 Q161.109 137.059 164.165 141.666 Q167.244 146.249 167.244 154.999 Q167.244 163.726 164.165 168.332 Q161.109 172.916 155.299 172.916 Q149.489 172.916 146.41 168.332 Q143.355 163.726 143.355 154.999 Q143.355 146.249 146.41 141.666 Q149.489 137.059 155.299 137.059 Z" fill="#000000" fill-rule="nonzero" fill-opacity="1" /><path clip-path="url(#clip440)" d="M20.0842 872.92 L67.6042 872.92 L67.6042 879.35 L25.495 879.35 L25.495 902.712 L67.6042 902.712 L67.6042 909.141 L20.0842 909.141 L20.0842 872.92 Z" fill="#000000" fill-rule="nonzero" fill-opacity="1" /><path clip-path="url(#clip440)" d="M36.0621 846.566 Q36.0621 851.277 39.7542 854.014 Q43.4145 856.751 49.812 856.751 Q56.2095 856.751 59.9017 854.046 Q63.5619 851.309 63.5619 846.566 Q63.5619 841.888 59.8698 839.15 Q56.1777 836.413 49.812 836.413 Q43.4781 836.413 39.786 839.15 Q36.0621 841.888 36.0621 846.566 M31.0968 846.566 Q31.0968 838.927 36.0621 834.567 Q41.0273 830.206 49.812 830.206 Q58.5649 830.206 63.5619 834.567 Q68.5272 838.927 68.5272 846.566 Q68.5272 854.237 63.5619 858.597 Q58.5649 862.926 49.812 862.926 Q41.0273 862.926 36.0621 858.597 Q31.0968 854.237 31.0968 846.566 Z" fill="#000000" fill-rule="nonzero" fill-opacity="1" /><path clip-path="url(#clip440)" d="M31.9562 789.943 L67.6042 789.943 L67.6042 795.832 L36.635 795.832 L36.635 814.833 L67.6042 814.833 L67.6042 820.722 L31.9562 820.722 L31.9562 789.943 Z" fill="#000000" fill-rule="nonzero" fill-opacity="1" /><path clip-path="url(#clip440)" d="M70.9143 763.048 Q77.28 765.531 79.2216 767.886 Q81.1631 770.241 81.1631 774.188 L81.1631 778.867 L76.2615 778.867 L76.2615 775.43 Q76.2615 773.011 75.1157 771.674 Q73.9699 770.337 69.7048 768.714 L67.0312 767.663 L31.9562 782.082 L31.9562 775.875 L59.838 764.735 L31.9562 753.595 L31.9562 747.389 L70.9143 763.048 Z" fill="#000000" fill-rule="nonzero" fill-opacity="1" /><path clip-path="url(#clip440)" d="M67.6042 743.028 L62.7344 743.028 Q61.8432 737.235 57.8328 735.453 Q52.1991 733.289 37.7808 733.289 L31.9562 733.289 L31.9562 709.194 L67.6042 709.194 L67.6042 715.051 L36.635 715.051 L36.635 727.432 L40.168 727.432 Q53.9179 727.432 60.0926 730.233 Q66.6811 733.225 67.6042 743.028 Z" fill="#000000" fill-rule="nonzero" fill-opacity="1" /><path clip-path="url(#clip440)" d="M42.2368 691.752 Q44.8786 691.752 46.3745 689.715 Q47.8705 687.678 47.8705 683.891 L47.8705 675.997 L36.635 675.997 L36.635 683.891 Q36.635 687.678 38.0991 689.715 Q39.5632 691.752 42.2368 691.752 M67.6042 700.091 L51.9763 689.206 Q51.1488 692.898 48.9845 695.349 Q46.7883 697.8 42.2368 697.8 Q37.0806 697.8 34.5343 694.394 Q31.9562 690.957 31.9562 684.05 L31.9562 670.109 L67.6042 670.109 L67.6042 675.997 L52.5493 675.997 L52.5493 683.286 L67.6042 693.789 L67.6042 700.091 Z" fill="#000000" fill-rule="nonzero" fill-opacity="1" /><path clip-path="url(#clip440)" d="M67.6042 627.872 L67.6042 658.651 L31.9562 658.651 L31.9562 652.762 L62.9254 652.762 L62.9254 633.761 L31.9562 633.761 L31.9562 627.872 L62.9254 627.872 L62.9254 623.194 L76.6116 623.194 L76.6116 627.872 L67.6042 627.872 Z" fill="#000000" fill-rule="nonzero" fill-opacity="1" /><path clip-path="url(#clip440)" d="M31.9562 583.758 L67.6042 583.758 L67.6042 589.583 L38.9903 589.583 L67.6042 606.77 L67.6042 614.282 L31.9562 614.282 L31.9562 608.457 L60.5064 608.457 L31.9562 591.301 L31.9562 583.758 Z" fill="#000000" fill-rule="nonzero" fill-opacity="1" /><path clip-path="url(#clip440)" d="M42.2368 565.807 Q44.8786 565.807 46.3745 563.77 Q47.8705 561.733 47.8705 557.945 L47.8705 550.052 L36.635 550.052 L36.635 557.945 Q36.635 561.733 38.0991 563.77 Q39.5632 565.807 42.2368 565.807 M67.6042 574.146 L51.9763 563.261 Q51.1488 566.953 48.9845 569.403 Q46.7883 571.854 42.2368 571.854 Q37.0806 571.854 34.5343 568.449 Q31.9562 565.011 31.9562 558.104 L31.9562 544.163 L67.6042 544.163 L67.6042 550.052 L52.5493 550.052 L52.5493 557.34 L67.6042 567.844 L67.6042 574.146 Z" fill="#000000" fill-rule="nonzero" fill-opacity="1" /><path clip-path="url(#clip440)" d="M59.5197 530.986 L59.5197 524.271 L64.9942 524.271 L75.1793 529.49 L75.1793 533.596 L64.9942 530.986 L59.5197 530.986 Z" fill="#000000" fill-rule="nonzero" fill-opacity="1" /><path clip-path="url(#clip440)" d="M53.5359 491.646 L31.9562 491.646 L31.9562 485.79 L53.3131 485.79 Q58.3739 485.79 60.9202 483.817 Q63.4346 481.843 63.4346 477.896 Q63.4346 473.154 60.4109 470.417 Q57.3872 467.648 52.1673 467.648 L31.9562 467.648 L31.9562 461.791 L67.6042 461.791 L67.6042 467.648 L62.1296 467.648 Q65.3762 469.78 66.9676 472.613 Q68.5272 475.414 68.5272 479.138 Q68.5272 485.281 64.7078 488.463 Q60.8883 491.646 53.5359 491.646 M31.0968 476.91 L31.0968 476.91 Z" fill="#000000" fill-rule="nonzero" fill-opacity="1" /><path clip-path="url(#clip440)" d="M18.1426 435.66 Q25.4632 439.925 32.6246 441.994 Q39.786 444.063 47.1384 444.063 Q54.4908 444.063 61.7159 441.994 Q68.9091 439.893 76.1979 435.66 L76.1979 440.753 Q68.7182 445.527 61.4931 447.914 Q54.268 450.269 47.1384 450.269 Q40.0406 450.269 32.8474 447.914 Q25.6542 445.559 18.1426 440.753 L18.1426 435.66 Z" fill="#000000" fill-rule="nonzero" fill-opacity="1" /><path clip-path="url(#clip440)" d="M21.8347 418.504 L31.9562 418.504 L31.9562 406.441 L36.5077 406.441 L36.5077 418.504 L55.8594 418.504 Q60.2199 418.504 61.4613 417.327 Q62.7026 416.117 62.7026 412.457 L62.7026 406.441 L67.6042 406.441 L67.6042 412.457 Q67.6042 419.236 65.0897 421.815 Q62.5434 424.393 55.8594 424.393 L36.5077 424.393 L36.5077 428.689 L31.9562 428.689 L31.9562 424.393 L21.8347 424.393 L21.8347 418.504 Z" fill="#000000" fill-rule="nonzero" fill-opacity="1" /><path clip-path="url(#clip440)" d="M18.1426 399.662 L18.1426 394.569 Q25.6542 389.795 32.8474 387.44 Q40.0406 385.053 47.1384 385.053 Q54.268 385.053 61.4931 387.44 Q68.7182 389.795 76.1979 394.569 L76.1979 399.662 Q68.9091 395.429 61.7159 393.36 Q54.4908 391.259 47.1384 391.259 Q39.786 391.259 32.6246 393.36 Q25.4632 395.429 18.1426 399.662 Z" fill="#000000" fill-rule="nonzero" fill-opacity="1" /><path clip-path="url(#clip440)" d="M72.3055 59.3701 Q80.8529 67.0263 91.2232 67.0263 Q101.918 67.0263 106.738 61.274 Q111.559 55.5217 112.45 45.84 L80.1237 45.84 L80.1237 38.9535 L112.45 38.9535 Q111.559 29.2718 106.738 23.5195 Q101.918 17.7268 91.2232 17.7268 Q80.8529 17.7268 72.3055 25.383 L72.3055 16.7545 Q80.7314 11.0023 91.7093 11.0023 Q105.28 11.0023 113.179 19.4281 Q121.078 27.8135 121.078 42.3563 Q121.078 56.9395 113.179 65.3654 Q105.28 73.7508 91.7093 73.7508 Q80.8934 73.7508 72.3055 67.9175 L72.3055 59.3701 Z" fill="#000000" fill-rule="nonzero" fill-opacity="1" /><path clip-path="url(#clip440)" d="M133.272 27.2059 L140.685 27.2059 L140.685 48.5136 L161.709 27.2059 L170.864 27.2059 L153.526 44.7463 L173.092 72.576 L164.747 72.576 L148.665 49.6884 L140.685 57.7902 L140.685 72.576 L133.272 72.576 L133.272 27.2059 Z" fill="#000000" fill-rule="nonzero" fill-opacity="1" /><path clip-path="url(#clip440)" d="M216.315 28.9478 L216.315 35.9153 Q213.155 34.1734 209.955 33.3227 Q206.796 32.4315 203.555 32.4315 Q196.304 32.4315 192.293 37.0496 Q188.283 41.6271 188.283 49.9314 Q188.283 58.2358 192.293 62.8538 Q196.304 67.4314 203.555 67.4314 Q206.796 67.4314 209.955 66.5807 Q213.155 65.6895 216.315 63.9476 L216.315 70.8341 Q213.196 72.2924 209.834 73.0216 Q206.512 73.7508 202.745 73.7508 Q192.496 73.7508 186.46 67.3098 Q180.424 60.8689 180.424 49.9314 Q180.424 38.832 186.5 32.472 Q192.617 26.1121 203.231 26.1121 Q206.674 26.1121 209.955 26.8413 Q213.236 27.5299 216.315 28.9478 Z" fill="#000000" fill-rule="nonzero" fill-opacity="1" /><path clip-path="url(#clip440)" d="M268.167 27.2059 L268.167 72.576 L260.673 72.576 L260.673 33.1607 L236.489 33.1607 L236.489 72.576 L228.994 72.576 L228.994 27.2059 L268.167 27.2059 Z" fill="#000000" fill-rule="nonzero" fill-opacity="1" /><path clip-path="url(#clip440)" d="M301.101 32.4315 Q295.105 32.4315 291.621 37.1306 Q288.138 41.7891 288.138 49.9314 Q288.138 58.0738 291.581 62.7728 Q295.065 67.4314 301.101 67.4314 Q307.055 67.4314 310.539 62.7323 Q314.023 58.0333 314.023 49.9314 Q314.023 41.8701 310.539 37.1711 Q307.055 32.4315 301.101 32.4315 M301.101 26.1121 Q310.823 26.1121 316.372 32.4315 Q321.922 38.7509 321.922 49.9314 Q321.922 61.0714 316.372 67.4314 Q310.823 73.7508 301.101 73.7508 Q291.338 73.7508 285.788 67.4314 Q280.279 61.0714 280.279 49.9314 Q280.279 38.7509 285.788 32.4315 Q291.338 26.1121 301.101 26.1121 Z" fill="#000000" fill-rule="nonzero" fill-opacity="1" /><path clip-path="url(#clip440)" d="M333.994 27.2059 L341.488 27.2059 L341.488 45.7185 L365.672 45.7185 L365.672 27.2059 L373.166 27.2059 L373.166 72.576 L365.672 72.576 L365.672 51.6733 L341.488 51.6733 L341.488 72.576 L333.994 72.576 L333.994 27.2059 Z" fill="#000000" fill-rule="nonzero" fill-opacity="1" /><path clip-path="url(#clip440)" d="M427.327 48.0275 L427.327 51.6733 L393.056 51.6733 Q393.542 59.3701 397.674 63.421 Q401.847 67.4314 409.26 67.4314 Q413.554 67.4314 417.564 66.3781 Q421.615 65.3249 425.585 63.2184 L425.585 70.267 Q421.574 71.9684 417.362 72.8596 Q413.149 73.7508 408.814 73.7508 Q397.958 73.7508 391.598 67.4314 Q385.278 61.1119 385.278 50.3365 Q385.278 39.1965 391.274 32.6746 Q397.31 26.1121 407.518 26.1121 Q416.673 26.1121 421.98 32.0264 Q427.327 37.9003 427.327 48.0275 M419.873 45.84 Q419.792 39.7232 416.43 36.0774 Q413.108 32.4315 407.599 32.4315 Q401.36 32.4315 397.593 35.9558 Q393.866 39.4801 393.299 45.8805 L419.873 45.84 Z" fill="#000000" fill-rule="nonzero" fill-opacity="1" /><path clip-path="url(#clip440)" d="M439.277 27.2059 L446.771 27.2059 L446.771 45.7185 L470.955 45.7185 L470.955 27.2059 L478.449 27.2059 L478.449 72.576 L470.955 72.576 L470.955 51.6733 L446.771 51.6733 L446.771 72.576 L439.277 72.576 L439.277 27.2059 Z" fill="#000000" fill-rule="nonzero" fill-opacity="1" /><path clip-path="url(#clip440)" d="M532.691 72.576 L493.519 72.576 L493.519 27.2059 L501.013 27.2059 L501.013 66.6212 L525.197 66.6212 L525.197 27.2059 L532.691 27.2059 L532.691 66.6212 L538.646 66.6212 L538.646 84.0401 L532.691 84.0401 L532.691 72.576 Z" fill="#000000" fill-rule="nonzero" fill-opacity="1" /><path clip-path="url(#clip440)" d="M588.836 27.2059 L588.836 72.576 L581.423 72.576 L581.423 36.1584 L559.548 72.576 L549.988 72.576 L549.988 27.2059 L557.401 27.2059 L557.401 63.5425 L579.236 27.2059 L588.836 27.2059 Z" fill="#000000" fill-rule="nonzero" fill-opacity="1" /><path clip-path="url(#clip440)" d="M624.808 49.7694 Q615.775 49.7694 612.291 51.8354 Q608.807 53.9013 608.807 58.8839 Q608.807 62.8538 611.4 65.2034 Q614.033 67.5124 618.529 67.5124 Q624.727 67.5124 628.454 63.1374 Q632.221 58.7219 632.221 51.4303 L632.221 49.7694 L624.808 49.7694 M639.675 46.6907 L639.675 72.576 L632.221 72.576 L632.221 65.6895 Q629.669 69.8214 625.862 71.8063 Q622.054 73.7508 616.544 73.7508 Q609.577 73.7508 605.445 69.8619 Q601.354 65.9325 601.354 59.3701 Q601.354 51.7138 606.458 47.825 Q611.602 43.9361 621.77 43.9361 L632.221 43.9361 L632.221 43.2069 Q632.221 38.0623 628.819 35.2672 Q625.456 32.4315 619.34 32.4315 Q615.451 32.4315 611.764 33.3632 Q608.078 34.295 604.675 36.1584 L604.675 29.2718 Q608.767 27.692 612.615 26.9223 Q616.463 26.1121 620.109 26.1121 Q629.953 26.1121 634.814 31.2163 Q639.675 36.3204 639.675 46.6907 Z" fill="#000000" fill-rule="nonzero" fill-opacity="1" /><path clip-path="url(#clip440)" d="M650.289 72.576 L650.289 66.3781 Q657.661 65.2439 659.93 60.1397 Q662.684 52.9696 662.684 34.619 L662.684 27.2059 L693.35 27.2059 L693.35 72.576 L685.896 72.576 L685.896 33.1607 L670.138 33.1607 L670.138 37.6572 Q670.138 55.1571 666.573 63.0159 Q662.765 71.4012 650.289 72.576 Z" fill="#000000" fill-rule="nonzero" fill-opacity="1" /><path clip-path="url(#clip440)" d="M736.289 59.127 Q736.289 55.4812 733.616 53.5773 Q730.983 51.6733 725.878 51.6733 L715.265 51.6733 L715.265 66.6212 L725.878 66.6212 Q730.983 66.6212 733.616 64.7172 Q736.289 62.7728 736.289 59.127 M707.771 27.2059 L715.265 27.2059 L715.265 45.7185 L726.202 45.7185 Q734.871 45.7185 739.53 49.0402 Q744.229 52.3215 744.229 59.127 Q744.229 65.9325 739.53 69.2543 Q734.871 72.576 726.202 72.576 L707.771 72.576 L707.771 27.2059 Z" fill="#000000" fill-rule="nonzero" fill-opacity="1" /><path clip-path="url(#clip440)" d="M756.665 27.2059 L764.159 27.2059 L764.159 45.7185 L788.343 45.7185 L788.343 27.2059 L795.837 27.2059 L795.837 72.576 L788.343 72.576 L788.343 51.6733 L764.159 51.6733 L764.159 72.576 L756.665 72.576 L756.665 27.2059 Z" fill="#000000" fill-rule="nonzero" fill-opacity="1" /><path clip-path="url(#clip440)" d="M854.049 27.2059 L861.503 27.2059 L861.503 72.576 L854.049 72.576 L854.049 27.2059 M857.776 26.1121 L857.776 26.1121 M839.425 59.127 Q839.425 55.4812 836.752 53.5773 Q834.119 51.6733 829.014 51.6733 L818.401 51.6733 L818.401 66.6212 L829.014 66.6212 Q834.119 66.6212 836.752 64.7172 Q839.425 62.7728 839.425 59.127 M810.907 27.2059 L818.401 27.2059 L818.401 45.7185 L829.338 45.7185 Q838.007 45.7185 842.666 49.0402 Q847.365 52.3215 847.365 59.127 Q847.365 65.9325 842.666 69.2543 Q838.007 72.576 829.338 72.576 L810.907 72.576 L810.907 27.2059 Z" fill="#000000" fill-rule="nonzero" fill-opacity="1" /><path clip-path="url(#clip440)" d="M915.258 27.2059 L915.258 72.576 L907.845 72.576 L907.845 36.1584 L885.97 72.576 L876.41 72.576 L876.41 27.2059 L883.823 27.2059 L883.823 63.5425 L905.658 27.2059 L915.258 27.2059 M883.175 9.54393 L887.955 9.54393 Q888.401 12.5821 890.345 14.1215 Q892.33 15.6203 895.854 15.6203 Q899.338 15.6203 901.283 14.1215 Q903.227 12.6226 903.754 9.54393 L908.534 9.54393 Q908.129 15.3367 904.928 18.2534 Q901.728 21.17 895.854 21.17 Q889.981 21.17 886.78 18.2534 Q883.58 15.3367 883.175 9.54393 Z" fill="#000000" fill-rule="nonzero" fill-opacity="1" /><path clip-path="url(#clip440)" d="M964.193 65.7705 L964.193 89.8329 L956.699 89.8329 L956.699 27.2059 L964.193 27.2059 L964.193 34.0924 Q966.543 30.0415 970.107 28.0971 Q973.713 26.1121 978.695 26.1121 Q986.959 26.1121 992.104 32.6746 Q997.289 39.2371 997.289 49.9314 Q997.289 60.6258 992.104 67.1883 Q986.959 73.7508 978.695 73.7508 Q973.713 73.7508 970.107 71.8063 Q966.543 69.8214 964.193 65.7705 M989.552 49.9314 Q989.552 41.7081 986.149 37.0496 Q982.787 32.3505 976.872 32.3505 Q970.958 32.3505 967.555 37.0496 Q964.193 41.7081 964.193 49.9314 Q964.193 58.1548 967.555 62.8538 Q970.958 67.5124 976.872 67.5124 Q982.787 67.5124 986.149 62.8538 Q989.552 58.1548 989.552 49.9314 Z" fill="#000000" fill-rule="nonzero" fill-opacity="1" /><path clip-path="url(#clip440)" d="M1027.23 32.4315 Q1021.23 32.4315 1017.75 37.1306 Q1014.26 41.7891 1014.26 49.9314 Q1014.26 58.0738 1017.71 62.7728 Q1021.19 67.4314 1027.23 67.4314 Q1033.18 67.4314 1036.66 62.7323 Q1040.15 58.0333 1040.15 49.9314 Q1040.15 41.8701 1036.66 37.1711 Q1033.18 32.4315 1027.23 32.4315 M1027.23 26.1121 Q1036.95 26.1121 1042.5 32.4315 Q1048.05 38.7509 1048.05 49.9314 Q1048.05 61.0714 1042.5 67.4314 Q1036.95 73.7508 1027.23 73.7508 Q1017.46 73.7508 1011.91 67.4314 Q1006.4 61.0714 1006.4 49.9314 Q1006.4 38.7509 1011.91 32.4315 Q1017.46 26.1121 1027.23 26.1121 Z" fill="#000000" fill-rule="nonzero" fill-opacity="1" /><path clip-path="url(#clip440)" d="M1093.05 28.9478 L1093.05 35.9153 Q1089.89 34.1734 1086.69 33.3227 Q1083.53 32.4315 1080.29 32.4315 Q1073.04 32.4315 1069.03 37.0496 Q1065.02 41.6271 1065.02 49.9314 Q1065.02 58.2358 1069.03 62.8538 Q1073.04 67.4314 1080.29 67.4314 Q1083.53 67.4314 1086.69 66.5807 Q1089.89 65.6895 1093.05 63.9476 L1093.05 70.8341 Q1089.93 72.2924 1086.57 73.0216 Q1083.25 73.7508 1079.48 73.7508 Q1069.23 73.7508 1063.2 67.3098 Q1057.16 60.8689 1057.16 49.9314 Q1057.16 38.832 1063.24 32.472 Q1069.35 26.1121 1079.97 26.1121 Q1083.41 26.1121 1086.69 26.8413 Q1089.97 27.5299 1093.05 28.9478 Z" fill="#000000" fill-rule="nonzero" fill-opacity="1" /><path clip-path="url(#clip440)" d="M1100.63 27.2059 L1144.09 27.2059 L1144.09 33.1607 L1126.03 33.1607 L1126.03 72.576 L1118.69 72.576 L1118.69 33.1607 L1100.63 33.1607 L1100.63 27.2059 Z" fill="#000000" fill-rule="nonzero" fill-opacity="1" /><path clip-path="url(#clip440)" d="M1198.62 9.62495 Q1193.19 18.942 1190.56 28.0566 Q1187.92 37.1711 1187.92 46.5287 Q1187.92 55.8863 1190.56 65.0818 Q1193.23 74.2369 1198.62 83.5134 L1192.14 83.5134 Q1186.06 73.9938 1183.02 64.7983 Q1180.03 55.6027 1180.03 46.5287 Q1180.03 37.4952 1183.02 28.3401 Q1186.02 19.1851 1192.14 9.62495 L1198.62 9.62495 Z" fill="#000000" fill-rule="nonzero" fill-opacity="1" /><path clip-path="url(#clip440)" d="M1231.07 26.1121 Q1240.79 26.1121 1246.34 32.4315 Q1251.89 38.7509 1251.89 49.9314 Q1251.89 61.0714 1246.34 67.4314 Q1240.79 73.7508 1231.07 73.7508 Q1221.3 73.7508 1215.92 67.5934 Q1210.53 61.436 1210.24 49.9314 L1210 40.6549 Q1209.8 35.8343 1209.8 34.1734 Q1209.8 27.692 1212.15 22.9119 Q1215.84 15.4177 1222.2 12.177 Q1228.6 8.93629 1239.29 8.85528 Q1244.23 8.81477 1246.42 8.12611 L1248.49 14.0404 Q1246.5 14.8506 1244.68 14.8911 L1234.55 15.5798 Q1229.45 15.9444 1226.37 17.7268 Q1218.31 22.4663 1217.54 28.6642 L1217.25 30.9327 Q1222.52 26.1121 1231.07 26.1121 M1231.07 32.4315 Q1225.07 32.4315 1221.59 37.1306 Q1218.1 41.7891 1218.1 49.9314 Q1218.1 58.0738 1221.55 62.7728 Q1225.03 67.4314 1231.07 67.4314 Q1237.02 67.4314 1240.51 62.7323 Q1243.99 58.0333 1243.99 49.9314 Q1243.99 41.8701 1240.51 37.1711 Q1237.02 32.4315 1231.07 32.4315 Z" fill="#000000" fill-rule="nonzero" fill-opacity="1" /><path clip-path="url(#clip440)" d="M1284.86 49.7694 Q1275.83 49.7694 1272.35 51.8354 Q1268.86 53.9013 1268.86 58.8839 Q1268.86 62.8538 1271.45 65.2034 Q1274.09 67.5124 1278.58 67.5124 Q1284.78 67.5124 1288.51 63.1374 Q1292.28 58.7219 1292.28 51.4303 L1292.28 49.7694 L1284.86 49.7694 M1299.73 46.6907 L1299.73 72.576 L1292.28 72.576 L1292.28 65.6895 Q1289.72 69.8214 1285.92 71.8063 Q1282.11 73.7508 1276.6 73.7508 Q1269.63 73.7508 1265.5 69.8619 Q1261.41 65.9325 1261.41 59.3701 Q1261.41 51.7138 1266.51 47.825 Q1271.66 43.9361 1281.82 43.9361 L1292.28 43.9361 L1292.28 43.2069 Q1292.28 38.0623 1288.87 35.2672 Q1285.51 32.4315 1279.39 32.4315 Q1275.51 32.4315 1271.82 33.3632 Q1268.13 34.295 1264.73 36.1584 L1264.73 29.2718 Q1268.82 27.692 1272.67 26.9223 Q1276.52 26.1121 1280.16 26.1121 Q1290.01 26.1121 1294.87 31.2163 Q1299.73 36.3204 1299.73 46.6907 Z" fill="#000000" fill-rule="nonzero" fill-opacity="1" /><path clip-path="url(#clip440)" d="M1335.86 48.1085 Q1340.89 49.0808 1343.68 52.0379 Q1346.48 54.9951 1346.48 59.3701 Q1346.48 66.3781 1341.25 70.0644 Q1336.03 73.7508 1326.38 73.7508 Q1323.14 73.7508 1319.7 73.1836 Q1316.3 72.6165 1312.65 71.4823 L1312.65 64.5552 Q1315.53 66.054 1318.97 66.8237 Q1322.41 67.5529 1326.18 67.5529 Q1332.3 67.5529 1335.7 65.2844 Q1339.14 63.0159 1339.14 59.3701 Q1339.14 55.8053 1336.11 53.6583 Q1333.07 51.4708 1327.52 51.4708 L1321.52 51.4708 L1321.52 45.3134 L1327.8 45.3134 Q1332.5 45.3134 1335.22 43.531 Q1337.97 41.7081 1337.97 38.8725 Q1337.97 36.2799 1335.13 34.4165 Q1332.34 32.5531 1327.52 32.5531 Q1324.64 32.5531 1321.36 33.0797 Q1318.12 33.6063 1314.19 34.7811 L1314.19 28.0161 Q1318.16 27.0438 1321.6 26.5577 Q1325.05 26.0716 1328.13 26.0716 Q1336.07 26.0716 1340.64 29.2718 Q1345.26 32.4315 1345.26 38.1433 Q1345.26 41.9107 1342.83 44.5437 Q1340.4 47.1363 1335.86 48.1085 Z" fill="#000000" fill-rule="nonzero" fill-opacity="1" /><path clip-path="url(#clip440)" d="M1376.78 32.4315 Q1370.78 32.4315 1367.3 37.1306 Q1363.81 41.7891 1363.81 49.9314 Q1363.81 58.0738 1367.26 62.7728 Q1370.74 67.4314 1376.78 67.4314 Q1382.73 67.4314 1386.22 62.7323 Q1389.7 58.0333 1389.7 49.9314 Q1389.7 41.8701 1386.22 37.1711 Q1382.73 32.4315 1376.78 32.4315 M1376.78 26.1121 Q1386.5 26.1121 1392.05 32.4315 Q1397.6 38.7509 1397.6 49.9314 Q1397.6 61.0714 1392.05 67.4314 Q1386.5 73.7508 1376.78 73.7508 Q1367.01 73.7508 1361.47 67.4314 Q1355.96 61.0714 1355.96 49.9314 Q1355.96 38.7509 1361.47 32.4315 Q1367.01 26.1121 1376.78 26.1121 Z" fill="#000000" fill-rule="nonzero" fill-opacity="1" /><path clip-path="url(#clip440)" d="M1417.12 51.6733 L1417.12 66.6212 L1427.74 66.6212 Q1432.84 66.6212 1435.52 64.7172 Q1438.19 62.7728 1438.19 59.127 Q1438.19 55.4812 1435.52 53.5773 Q1432.84 51.6733 1427.74 51.6733 L1417.12 51.6733 M1417.12 33.1607 L1417.12 45.7185 L1426.93 45.7185 Q1431.14 45.7185 1433.81 44.0576 Q1436.49 42.3563 1436.49 39.3586 Q1436.49 36.3609 1433.81 34.7811 Q1431.14 33.1607 1426.93 33.1607 L1417.12 33.1607 M1409.67 27.2059 L1427.41 27.2059 Q1435.39 27.2059 1439.69 30.1225 Q1443.98 33.0392 1443.98 38.4269 Q1443.98 42.5993 1441.79 45.0704 Q1439.61 47.5009 1435.31 48.1085 Q1440.46 49.0808 1443.29 52.1594 Q1446.13 55.2381 1446.13 59.8562 Q1446.13 65.9325 1441.43 69.2543 Q1436.77 72.576 1428.1 72.576 L1409.67 72.576 L1409.67 27.2059 Z" fill="#000000" fill-rule="nonzero" fill-opacity="1" /><path clip-path="url(#clip440)" d="M1501.71 27.2059 L1509.16 27.2059 L1509.16 72.576 L1501.71 72.576 L1501.71 27.2059 M1505.43 26.1121 L1505.43 26.1121 M1487.08 59.127 Q1487.08 55.4812 1484.41 53.5773 Q1481.78 51.6733 1476.67 51.6733 L1466.06 51.6733 L1466.06 66.6212 L1476.67 66.6212 Q1481.78 66.6212 1484.41 64.7172 Q1487.08 62.7728 1487.08 59.127 M1458.57 27.2059 L1466.06 27.2059 L1466.06 45.7185 L1477 45.7185 Q1485.67 45.7185 1490.32 49.0402 Q1495.02 52.3215 1495.02 59.127 Q1495.02 65.9325 1490.32 69.2543 Q1485.67 72.576 1477 72.576 L1458.57 72.576 L1458.57 27.2059 Z" fill="#000000" fill-rule="nonzero" fill-opacity="1" /><path clip-path="url(#clip440)" d="M1562.92 27.2059 L1562.92 72.576 L1555.5 72.576 L1555.5 36.1584 L1533.63 72.576 L1524.07 72.576 L1524.07 27.2059 L1531.48 27.2059 L1531.48 63.5425 L1553.32 27.2059 L1562.92 27.2059 M1530.83 9.54393 L1535.61 9.54393 Q1536.06 12.5821 1538 14.1215 Q1539.99 15.6203 1543.51 15.6203 Q1547 15.6203 1548.94 14.1215 Q1550.89 12.6226 1551.41 9.54393 L1556.19 9.54393 Q1555.79 15.3367 1552.59 18.2534 Q1549.39 21.17 1543.51 21.17 Q1537.64 21.17 1534.44 18.2534 Q1531.24 15.3367 1530.83 9.54393 Z" fill="#000000" fill-rule="nonzero" fill-opacity="1" /><path clip-path="url(#clip440)" d="M1601.4 63.9476 Q1607.8 67.4314 1614.16 67.4314 Q1620.12 67.4314 1624.37 63.9881 Q1628.62 60.5043 1629.39 51.6733 L1606.38 51.6733 L1606.38 45.7185 L1629.15 45.7185 Q1628.66 41.4651 1625.42 36.9686 Q1622.22 32.4315 1614.16 32.4315 Q1607.92 32.4315 1601.4 35.9153 L1601.4 28.9478 Q1607.76 26.1121 1614.48 26.1121 Q1625.1 26.1121 1631.17 32.5531 Q1637.29 38.9535 1637.29 49.9314 Q1637.29 60.8689 1631.34 67.3098 Q1625.42 73.7508 1615.01 73.7508 Q1607.36 73.7508 1601.4 70.8341 L1601.4 63.9476 Z" fill="#000000" fill-rule="nonzero" fill-opacity="1" /><path clip-path="url(#clip440)" d="M1649.89 27.2059 L1657.3 27.2059 L1657.3 48.5136 L1678.33 27.2059 L1687.48 27.2059 L1670.14 44.7463 L1689.71 72.576 L1681.37 72.576 L1665.28 49.6884 L1657.3 57.7902 L1657.3 72.576 L1649.89 72.576 L1649.89 27.2059 Z" fill="#000000" fill-rule="nonzero" fill-opacity="1" /><path clip-path="url(#clip440)" d="M1732.93 28.9478 L1732.93 35.9153 Q1729.77 34.1734 1726.57 33.3227 Q1723.41 32.4315 1720.17 32.4315 Q1712.92 32.4315 1708.91 37.0496 Q1704.9 41.6271 1704.9 49.9314 Q1704.9 58.2358 1708.91 62.8538 Q1712.92 67.4314 1720.17 67.4314 Q1723.41 67.4314 1726.57 66.5807 Q1729.77 65.6895 1732.93 63.9476 L1732.93 70.8341 Q1729.81 72.2924 1726.45 73.0216 Q1723.13 73.7508 1719.36 73.7508 Q1709.11 73.7508 1703.08 67.3098 Q1697.04 60.8689 1697.04 49.9314 Q1697.04 38.832 1703.12 32.472 Q1709.24 26.1121 1719.85 26.1121 Q1723.29 26.1121 1726.57 26.8413 Q1729.85 27.5299 1732.93 28.9478 Z" fill="#000000" fill-rule="nonzero" fill-opacity="1" /><path clip-path="url(#clip440)" d="M1784.78 27.2059 L1784.78 72.576 L1777.29 72.576 L1777.29 33.1607 L1753.11 33.1607 L1753.11 72.576 L1745.61 72.576 L1745.61 27.2059 L1784.78 27.2059 Z" fill="#000000" fill-rule="nonzero" fill-opacity="1" /><path clip-path="url(#clip440)" d="M1838.95 48.0275 L1838.95 51.6733 L1804.67 51.6733 Q1805.16 59.3701 1809.29 63.421 Q1813.47 67.4314 1820.88 67.4314 Q1825.17 67.4314 1829.18 66.3781 Q1833.23 65.3249 1837.2 63.2184 L1837.2 70.267 Q1833.19 71.9684 1828.98 72.8596 Q1824.77 73.7508 1820.43 73.7508 Q1809.58 73.7508 1803.22 67.4314 Q1796.9 61.1119 1796.9 50.3365 Q1796.9 39.1965 1802.89 32.6746 Q1808.93 26.1121 1819.14 26.1121 Q1828.29 26.1121 1833.6 32.0264 Q1838.95 37.9003 1838.95 48.0275 M1831.49 45.84 Q1831.41 39.7232 1828.05 36.0774 Q1824.73 32.4315 1819.22 32.4315 Q1812.98 32.4315 1809.21 35.9558 Q1805.48 39.4801 1804.92 45.8805 L1831.49 45.84 Z" fill="#000000" fill-rule="nonzero" fill-opacity="1" /><path clip-path="url(#clip440)" d="M1858.39 65.7705 L1858.39 89.8329 L1850.9 89.8329 L1850.9 27.2059 L1858.39 27.2059 L1858.39 34.0924 Q1860.74 30.0415 1864.3 28.0971 Q1867.91 26.1121 1872.89 26.1121 Q1881.16 26.1121 1886.3 32.6746 Q1891.49 39.2371 1891.49 49.9314 Q1891.49 60.6258 1886.3 67.1883 Q1881.16 73.7508 1872.89 73.7508 Q1867.91 73.7508 1864.3 71.8063 Q1860.74 69.8214 1858.39 65.7705 M1883.75 49.9314 Q1883.75 41.7081 1880.35 37.0496 Q1876.98 32.3505 1871.07 32.3505 Q1865.15 32.3505 1861.75 37.0496 Q1858.39 41.7081 1858.39 49.9314 Q1858.39 58.1548 1861.75 62.8538 Q1865.15 67.5124 1871.07 67.5124 Q1876.98 67.5124 1880.35 62.8538 Q1883.75 58.1548 1883.75 49.9314 Z" fill="#000000" fill-rule="nonzero" fill-opacity="1" /><path clip-path="url(#clip440)" d="M1942.41 27.2059 L1942.41 72.576 L1934.99 72.576 L1934.99 36.1584 L1913.12 72.576 L1903.56 72.576 L1903.56 27.2059 L1910.97 27.2059 L1910.97 63.5425 L1932.8 27.2059 L1942.41 27.2059 Z" fill="#000000" fill-rule="nonzero" fill-opacity="1" /><path clip-path="url(#clip440)" d="M1957.47 27.2059 L1968.37 27.2059 L1981.25 57.5877 L1994.18 27.2059 L2004.99 27.2059 L2004.99 72.576 L1997.5 72.576 L1997.5 34.3355 L1984.98 63.8666 L1977.53 63.8666 L1964.97 34.3355 L1964.97 72.576 L1957.47 72.576 L1957.47 27.2059 Z" fill="#000000" fill-rule="nonzero" fill-opacity="1" /><path clip-path="url(#clip440)" d="M2059.15 48.0275 L2059.15 51.6733 L2024.88 51.6733 Q2025.37 59.3701 2029.5 63.421 Q2033.67 67.4314 2041.09 67.4314 Q2045.38 67.4314 2049.39 66.3781 Q2053.44 65.3249 2057.41 63.2184 L2057.41 70.267 Q2053.4 71.9684 2049.19 72.8596 Q2044.97 73.7508 2040.64 73.7508 Q2029.78 73.7508 2023.42 67.4314 Q2017.1 61.1119 2017.1 50.3365 Q2017.1 39.1965 2023.1 32.6746 Q2029.14 26.1121 2039.34 26.1121 Q2048.5 26.1121 2053.81 32.0264 Q2059.15 37.9003 2059.15 48.0275 M2051.7 45.84 Q2051.62 39.7232 2048.26 36.0774 Q2044.93 32.4315 2039.42 32.4315 Q2033.19 32.4315 2029.42 35.9558 Q2025.69 39.4801 2025.12 45.8805 L2051.7 45.84 Z" fill="#000000" fill-rule="nonzero" fill-opacity="1" /><path clip-path="url(#clip440)" d="M2071.1 27.2059 L2078.6 27.2059 L2078.6 45.7185 L2102.78 45.7185 L2102.78 27.2059 L2110.27 27.2059 L2110.27 72.576 L2102.78 72.576 L2102.78 51.6733 L2078.6 51.6733 L2078.6 72.576 L2071.1 72.576 L2071.1 27.2059 Z" fill="#000000" fill-rule="nonzero" fill-opacity="1" /><path clip-path="url(#clip440)" d="M2120.24 27.2059 L2163.71 27.2059 L2163.71 33.1607 L2145.64 33.1607 L2145.64 72.576 L2138.31 72.576 L2138.31 33.1607 L2120.24 33.1607 L2120.24 27.2059 Z" fill="#000000" fill-rule="nonzero" fill-opacity="1" /><path clip-path="url(#clip440)" d="M2172.78 9.62495 L2179.26 9.62495 Q2185.34 19.1851 2188.34 28.3401 Q2191.37 37.4952 2191.37 46.5287 Q2191.37 55.6027 2188.34 64.7983 Q2185.34 73.9938 2179.26 83.5134 L2172.78 83.5134 Q2178.17 74.2369 2180.8 65.0818 Q2183.47 55.8863 2183.47 46.5287 Q2183.47 37.1711 2180.8 28.0566 Q2178.17 18.942 2172.78 9.62495 Z" fill="#000000" fill-rule="nonzero" fill-opacity="1" /><polyline clip-path="url(#clip442)" style="stroke:#009af9; stroke-linecap:round; stroke-linejoin:round; stroke-width:8; stroke-opacity:1; fill:none" points="251.73,1143.68 269.332,1142.09 286.935,1140.46 304.537,1138.78 322.139,1137.04 339.741,1135.25 357.343,1133.41 374.945,1131.52 392.548,1129.56 410.15,1127.55 427.752,1125.47 445.354,1123.33 462.956,1121.13 480.559,1118.86 498.161,1116.51 515.763,1114.1 533.365,1111.62 550.967,1109.06 568.57,1106.42 586.172,1103.7 603.774,1100.9 621.376,1098.01 638.978,1095.03 656.581,1091.97 674.183,1088.81 691.785,1085.55 709.387,1082.2 726.989,1078.74 744.592,1075.18 762.194,1071.5 779.796,1067.72 797.398,1063.82 815,1059.81 832.602,1055.67 850.205,1051.4 867.807,1047.01 885.409,1042.48 903.011,1037.81 920.613,1033 938.216,1028.05 955.818,1022.94 973.42,1017.68 991.022,1012.26 1008.62,1006.67 1026.23,1000.92 1043.83,994.983 1061.43,988.87 1079.03,982.57 1096.64,976.079 1114.24,969.39 1131.84,962.498 1149.44,955.396 1167.04,948.077 1184.65,940.536 1202.25,932.765 1219.85,924.757 1237.45,916.505 1255.06,908.002 1272.66,899.239 1290.26,890.21 1307.86,880.906 1325.46,871.318 1343.07,861.439 1360.67,851.258 1378.27,840.768 1395.87,829.958 1413.47,818.819 1431.08,807.341 1448.68,795.514 1466.28,783.327 1483.88,770.769 1501.49,757.828 1519.09,744.494 1536.69,730.753 1554.29,716.593 1571.89,702.002 1589.5,686.965 1607.1,671.471 1624.7,655.505 1642.3,639.052 1659.91,622.098 1677.51,604.628 1695.11,586.627 1712.71,568.077 1730.31,548.962 1747.92,529.265 1765.52,508.969 1783.12,488.055 1800.72,466.505 1818.33,444.298 1835.93,421.415 1853.53,397.836 1871.13,373.538 1888.73,348.499 1906.34,322.698 1923.94,296.11 1941.54,268.712 1959.14,240.48 1976.74,211.387 1994.35,181.409 2011.95,150.518 "/>
<path clip-path="url(#clip440)" d="M261.118 259.495 L617.793 259.495 L617.793 155.815 L261.118 155.815  Z" fill="#ffffff" fill-rule="evenodd" fill-opacity="1"/>
<polyline clip-path="url(#clip440)" style="stroke:#000000; stroke-linecap:round; stroke-linejoin:round; stroke-width:4; stroke-opacity:1; fill:none" points="261.118,259.495 617.793,259.495 617.793,155.815 261.118,155.815 261.118,259.495 "/>
<polyline clip-path="url(#clip440)" style="stroke:#009af9; stroke-linecap:round; stroke-linejoin:round; stroke-width:8; stroke-opacity:1; fill:none" points="281.849,207.655 406.238,207.655 "/>
<path clip-path="url(#clip440)" d="M443.937 212.875 L442.919 207.527 Q441.877 202.041 437.757 202.041 Q434.655 202.041 433.243 204.588 Q431.46 207.782 431.46 211.995 Q431.46 217.087 433.197 219.518 Q434.956 221.995 437.757 221.995 Q440.859 221.995 442.525 217.064 L443.937 212.875 M446.321 205.791 L448.613 199.009 L452.409 199.009 L447.664 213.06 L448.59 218.129 Q448.798 219.263 449.609 220.212 Q450.558 221.324 451.298 221.324 L453.335 221.324 L453.335 224.935 L450.789 224.935 Q448.613 224.935 446.669 222.99 Q445.72 222.018 445.326 219.981 Q444.261 222.55 442.085 224.564 Q441.067 225.513 437.757 225.513 Q432.317 225.513 429.678 221.995 Q426.97 218.361 426.97 211.995 Q426.97 205.189 429.91 201.995 Q433.173 198.43 437.757 198.43 Q444.956 198.43 446.321 205.791 Z" fill="#000000" fill-rule="nonzero" fill-opacity="1" /><path clip-path="url(#clip440)" d="M475.696 203.407 L505.372 203.407 L505.372 207.296 L475.696 207.296 L475.696 203.407 M475.696 212.851 L505.372 212.851 L505.372 216.787 L475.696 216.787 L475.696 212.851 Z" fill="#000000" fill-rule="nonzero" fill-opacity="1" /><path clip-path="url(#clip440)" d="M540.534 193.453 Q536.923 193.453 535.094 197.018 Q533.289 200.56 533.289 207.689 Q533.289 214.796 535.094 218.361 Q536.923 221.902 540.534 221.902 Q544.168 221.902 545.974 218.361 Q547.802 214.796 547.802 207.689 Q547.802 200.56 545.974 197.018 Q544.168 193.453 540.534 193.453 M540.534 189.75 Q546.344 189.75 549.4 194.356 Q552.478 198.939 552.478 207.689 Q552.478 216.416 549.4 221.023 Q546.344 225.606 540.534 225.606 Q534.724 225.606 531.645 221.023 Q528.59 216.416 528.59 207.689 Q528.59 198.939 531.645 194.356 Q534.724 189.75 540.534 189.75 Z" fill="#000000" fill-rule="nonzero" fill-opacity="1" /><path clip-path="url(#clip440)" d="M560.696 219.055 L565.58 219.055 L565.58 224.935 L560.696 224.935 L560.696 219.055 Z" fill="#000000" fill-rule="nonzero" fill-opacity="1" /><path clip-path="url(#clip440)" d="M589.932 206.3 Q593.288 207.018 595.163 209.287 Q597.061 211.555 597.061 214.888 Q597.061 220.004 593.543 222.805 Q590.024 225.606 583.543 225.606 Q581.367 225.606 579.052 225.166 Q576.761 224.749 574.307 223.893 L574.307 219.379 Q576.251 220.513 578.566 221.092 Q580.881 221.671 583.404 221.671 Q587.802 221.671 590.094 219.935 Q592.409 218.199 592.409 214.888 Q592.409 211.833 590.256 210.12 Q588.126 208.384 584.307 208.384 L580.279 208.384 L580.279 204.541 L584.492 204.541 Q587.941 204.541 589.77 203.175 Q591.598 201.787 591.598 199.194 Q591.598 196.532 589.7 195.12 Q587.825 193.685 584.307 193.685 Q582.386 193.685 580.187 194.101 Q577.987 194.518 575.349 195.398 L575.349 191.231 Q578.011 190.49 580.325 190.12 Q582.663 189.75 584.724 189.75 Q590.048 189.75 593.149 192.18 Q596.251 194.588 596.251 198.708 Q596.251 201.578 594.608 203.569 Q592.964 205.537 589.932 206.3 Z" fill="#000000" fill-rule="nonzero" fill-opacity="1" /></svg>
