<?xml version="1.0" encoding="utf-8"?>
<svg xmlns="http://www.w3.org/2000/svg" xmlns:xlink="http://www.w3.org/1999/xlink" width="800" height="600" viewBox="0 0 3200 2400">
<defs>
  <clipPath id="clip280">
    <rect x="0" y="0" width="3200" height="2400"/>
  </clipPath>
</defs>
<path clip-path="url(#clip280)" d="M0 2400 L3200 2400 L3200 0 L0 0  Z" fill="#ffffff" fill-rule="evenodd" fill-opacity="1"/>
<defs>
  <clipPath id="clip281">
    <rect x="189" y="131" width="2964" height="2075"/>
  </clipPath>
</defs>
<path clip-path="url(#clip280)" d="M442.675 2204.92 L3152.76 2204.92 L3152.76 131.032 L442.675 131.032  Z" fill="#ffffff" fill-rule="evenodd" fill-opacity="1"/>
<defs>
  <clipPath id="clip282">
    <rect x="442" y="131" width="2711" height="2075"/>
  </clipPath>
</defs>
<polyline clip-path="url(#clip282)" style="stroke:#000000; stroke-linecap:round; stroke-linejoin:round; stroke-width:2; stroke-opacity:0.1; fill:none" points="803.451,2204.92 803.451,131.032 "/>
<polyline clip-path="url(#clip282)" style="stroke:#000000; stroke-linecap:round; stroke-linejoin:round; stroke-width:2; stroke-opacity:0.1; fill:none" points="1371.6,2204.92 1371.6,131.032 "/>
<polyline clip-path="url(#clip282)" style="stroke:#000000; stroke-linecap:round; stroke-linejoin:round; stroke-width:2; stroke-opacity:0.1; fill:none" points="1939.75,2204.92 1939.75,131.032 "/>
<polyline clip-path="url(#clip282)" style="stroke:#000000; stroke-linecap:round; stroke-linejoin:round; stroke-width:2; stroke-opacity:0.1; fill:none" points="2507.9,2204.92 2507.9,131.032 "/>
<polyline clip-path="url(#clip282)" style="stroke:#000000; stroke-linecap:round; stroke-linejoin:round; stroke-width:2; stroke-opacity:0.1; fill:none" points="3076.06,2204.92 3076.06,131.032 "/>
<polyline clip-path="url(#clip282)" style="stroke:#000000; stroke-linecap:round; stroke-linejoin:round; stroke-width:2; stroke-opacity:0.1; fill:none" points="442.675,1885.36 3152.76,1885.36 "/>
<polyline clip-path="url(#clip282)" style="stroke:#000000; stroke-linecap:round; stroke-linejoin:round; stroke-width:2; stroke-opacity:0.1; fill:none" points="442.675,1494.06 3152.76,1494.06 "/>
<polyline clip-path="url(#clip282)" style="stroke:#000000; stroke-linecap:round; stroke-linejoin:round; stroke-width:2; stroke-opacity:0.1; fill:none" points="442.675,1102.76 3152.76,1102.76 "/>
<polyline clip-path="url(#clip282)" style="stroke:#000000; stroke-linecap:round; stroke-linejoin:round; stroke-width:2; stroke-opacity:0.1; fill:none" points="442.675,711.46 3152.76,711.46 "/>
<polyline clip-path="url(#clip282)" style="stroke:#000000; stroke-linecap:round; stroke-linejoin:round; stroke-width:2; stroke-opacity:0.1; fill:none" points="442.675,320.16 3152.76,320.16 "/>
<polyline clip-path="url(#clip280)" style="stroke:#000000; stroke-linecap:round; stroke-linejoin:round; stroke-width:4; stroke-opacity:1; fill:none" points="442.675,2204.92 3152.76,2204.92 "/>
<polyline clip-path="url(#clip280)" style="stroke:#000000; stroke-linecap:round; stroke-linejoin:round; stroke-width:4; stroke-opacity:1; fill:none" points="803.451,2204.92 803.451,2186.02 "/>
<polyline clip-path="url(#clip280)" style="stroke:#000000; stroke-linecap:round; stroke-linejoin:round; stroke-width:4; stroke-opacity:1; fill:none" points="1371.6,2204.92 1371.6,2186.02 "/>
<polyline clip-path="url(#clip280)" style="stroke:#000000; stroke-linecap:round; stroke-linejoin:round; stroke-width:4; stroke-opacity:1; fill:none" points="1939.75,2204.92 1939.75,2186.02 "/>
<polyline clip-path="url(#clip280)" style="stroke:#000000; stroke-linecap:round; stroke-linejoin:round; stroke-width:4; stroke-opacity:1; fill:none" points="2507.9,2204.92 2507.9,2186.02 "/>
<polyline clip-path="url(#clip280)" style="stroke:#000000; stroke-linecap:round; stroke-linejoin:round; stroke-width:4; stroke-opacity:1; fill:none" points="3076.06,2204.92 3076.06,2186.02 "/>
<path clip-path="url(#clip280)" d="M781.634 2242.24 Q778.023 2242.24 776.194 2245.8 Q774.389 2249.34 774.389 2256.47 Q774.389 2263.58 776.194 2267.15 Q778.023 2270.69 781.634 2270.69 Q785.268 2270.69 787.074 2267.15 Q788.903 2263.58 788.903 2256.47 Q788.903 2249.34 787.074 2245.8 Q785.268 2242.24 781.634 2242.24 M781.634 2238.53 Q787.444 2238.53 790.5 2243.14 Q793.579 2247.72 793.579 2256.47 Q793.579 2265.2 790.5 2269.81 Q787.444 2274.39 781.634 2274.39 Q775.824 2274.39 772.745 2269.81 Q769.69 2265.2 769.69 2256.47 Q769.69 2247.72 772.745 2243.14 Q775.824 2238.53 781.634 2238.53 Z" fill="#000000" fill-rule="nonzero" fill-opacity="1" /><path clip-path="url(#clip280)" d="M801.796 2267.84 L806.68 2267.84 L806.68 2273.72 L801.796 2273.72 L801.796 2267.84 Z" fill="#000000" fill-rule="nonzero" fill-opacity="1" /><path clip-path="url(#clip280)" d="M820.893 2269.78 L837.213 2269.78 L837.213 2273.72 L815.268 2273.72 L815.268 2269.78 Q817.93 2267.03 822.514 2262.4 Q827.12 2257.75 828.301 2256.41 Q830.546 2253.88 831.426 2252.15 Q832.328 2250.39 832.328 2248.7 Q832.328 2245.94 830.384 2244.21 Q828.463 2242.47 825.361 2242.47 Q823.162 2242.47 820.708 2243.23 Q818.277 2244 815.5 2245.55 L815.5 2240.83 Q818.324 2239.69 820.777 2239.11 Q823.231 2238.53 825.268 2238.53 Q830.639 2238.53 833.833 2241.22 Q837.027 2243.91 837.027 2248.4 Q837.027 2250.53 836.217 2252.45 Q835.43 2254.34 833.324 2256.94 Q832.745 2257.61 829.643 2260.83 Q826.541 2264.02 820.893 2269.78 Z" fill="#000000" fill-rule="nonzero" fill-opacity="1" /><path clip-path="url(#clip280)" d="M1348.74 2242.24 Q1345.13 2242.24 1343.3 2245.8 Q1341.5 2249.34 1341.5 2256.47 Q1341.5 2263.58 1343.3 2267.15 Q1345.13 2270.69 1348.74 2270.69 Q1352.38 2270.69 1354.18 2267.15 Q1356.01 2263.58 1356.01 2256.47 Q1356.01 2249.34 1354.18 2245.8 Q1352.38 2242.24 1348.74 2242.24 M1348.74 2238.53 Q1354.55 2238.53 1357.61 2243.14 Q1360.69 2247.72 1360.69 2256.47 Q1360.69 2265.2 1357.61 2269.81 Q1354.55 2274.39 1348.74 2274.39 Q1342.93 2274.39 1339.85 2269.81 Q1336.8 2265.2 1336.8 2256.47 Q1336.8 2247.72 1339.85 2243.14 Q1342.93 2238.53 1348.74 2238.53 Z" fill="#000000" fill-rule="nonzero" fill-opacity="1" /><path clip-path="url(#clip280)" d="M1368.91 2267.84 L1373.79 2267.84 L1373.79 2273.72 L1368.91 2273.72 L1368.91 2267.84 Z" fill="#000000" fill-rule="nonzero" fill-opacity="1" /><path clip-path="url(#clip280)" d="M1396.82 2243.23 L1385.02 2261.68 L1396.82 2261.68 L1396.82 2243.23 M1395.6 2239.16 L1401.47 2239.16 L1401.47 2261.68 L1406.41 2261.68 L1406.41 2265.57 L1401.47 2265.57 L1401.47 2273.72 L1396.82 2273.72 L1396.82 2265.57 L1381.22 2265.57 L1381.22 2261.06 L1395.6 2239.16 Z" fill="#000000" fill-rule="nonzero" fill-opacity="1" /><path clip-path="url(#clip280)" d="M1917.06 2242.24 Q1913.45 2242.24 1911.62 2245.8 Q1909.81 2249.34 1909.81 2256.47 Q1909.81 2263.58 1911.62 2267.15 Q1913.45 2270.69 1917.06 2270.69 Q1920.69 2270.69 1922.5 2267.15 Q1924.33 2263.58 1924.33 2256.47 Q1924.33 2249.34 1922.5 2245.8 Q1920.69 2242.24 1917.06 2242.24 M1917.06 2238.53 Q1922.87 2238.53 1925.92 2243.14 Q1929 2247.72 1929 2256.47 Q1929 2265.2 1925.92 2269.81 Q1922.87 2274.39 1917.06 2274.39 Q1911.25 2274.39 1908.17 2269.81 Q1905.11 2265.2 1905.11 2256.47 Q1905.11 2247.72 1908.17 2243.14 Q1911.25 2238.53 1917.06 2238.53 Z" fill="#000000" fill-rule="nonzero" fill-opacity="1" /><path clip-path="url(#clip280)" d="M1937.22 2267.84 L1942.1 2267.84 L1942.1 2273.72 L1937.22 2273.72 L1937.22 2267.84 Z" fill="#000000" fill-rule="nonzero" fill-opacity="1" /><path clip-path="url(#clip280)" d="M1962.87 2254.58 Q1959.72 2254.58 1957.87 2256.73 Q1956.04 2258.88 1956.04 2262.63 Q1956.04 2266.36 1957.87 2268.53 Q1959.72 2270.69 1962.87 2270.69 Q1966.01 2270.69 1967.84 2268.53 Q1969.7 2266.36 1969.7 2262.63 Q1969.7 2258.88 1967.84 2256.73 Q1966.01 2254.58 1962.87 2254.58 M1972.15 2239.92 L1972.15 2244.18 Q1970.39 2243.35 1968.58 2242.91 Q1966.8 2242.47 1965.04 2242.47 Q1960.41 2242.47 1957.96 2245.59 Q1955.53 2248.72 1955.18 2255.04 Q1956.55 2253.03 1958.61 2251.96 Q1960.67 2250.87 1963.14 2250.87 Q1968.35 2250.87 1971.36 2254.04 Q1974.39 2257.19 1974.39 2262.63 Q1974.39 2267.96 1971.25 2271.17 Q1968.1 2274.39 1962.87 2274.39 Q1956.87 2274.39 1953.7 2269.81 Q1950.53 2265.2 1950.53 2256.47 Q1950.53 2248.28 1954.42 2243.42 Q1958.31 2238.53 1964.86 2238.53 Q1966.62 2238.53 1968.4 2238.88 Q1970.2 2239.23 1972.15 2239.92 Z" fill="#000000" fill-rule="nonzero" fill-opacity="1" /><path clip-path="url(#clip280)" d="M2485.34 2242.24 Q2481.72 2242.24 2479.9 2245.8 Q2478.09 2249.34 2478.09 2256.47 Q2478.09 2263.58 2479.9 2267.15 Q2481.72 2270.69 2485.34 2270.69 Q2488.97 2270.69 2490.77 2267.15 Q2492.6 2263.58 2492.6 2256.47 Q2492.6 2249.34 2490.77 2245.8 Q2488.97 2242.24 2485.34 2242.24 M2485.34 2238.53 Q2491.15 2238.53 2494.2 2243.14 Q2497.28 2247.72 2497.28 2256.47 Q2497.28 2265.2 2494.2 2269.81 Q2491.15 2274.39 2485.34 2274.39 Q2479.52 2274.39 2476.45 2269.81 Q2473.39 2265.2 2473.39 2256.47 Q2473.39 2247.72 2476.45 2243.14 Q2479.52 2238.53 2485.34 2238.53 Z" fill="#000000" fill-rule="nonzero" fill-opacity="1" /><path clip-path="url(#clip280)" d="M2505.5 2267.84 L2510.38 2267.84 L2510.38 2273.72 L2505.5 2273.72 L2505.5 2267.84 Z" fill="#000000" fill-rule="nonzero" fill-opacity="1" /><path clip-path="url(#clip280)" d="M2530.57 2257.31 Q2527.23 2257.31 2525.31 2259.09 Q2523.41 2260.87 2523.41 2264 Q2523.41 2267.12 2525.31 2268.91 Q2527.23 2270.69 2530.57 2270.69 Q2533.9 2270.69 2535.82 2268.91 Q2537.74 2267.1 2537.74 2264 Q2537.74 2260.87 2535.82 2259.09 Q2533.92 2257.31 2530.57 2257.31 M2525.89 2255.32 Q2522.88 2254.58 2521.19 2252.52 Q2519.52 2250.46 2519.52 2247.49 Q2519.52 2243.35 2522.46 2240.94 Q2525.43 2238.53 2530.57 2238.53 Q2535.73 2238.53 2538.67 2240.94 Q2541.61 2243.35 2541.61 2247.49 Q2541.61 2250.46 2539.92 2252.52 Q2538.25 2254.58 2535.27 2255.32 Q2538.64 2256.1 2540.52 2258.4 Q2542.42 2260.69 2542.42 2264 Q2542.42 2269.02 2539.34 2271.71 Q2536.28 2274.39 2530.57 2274.39 Q2524.85 2274.39 2521.77 2271.71 Q2518.71 2269.02 2518.71 2264 Q2518.71 2260.69 2520.61 2258.4 Q2522.51 2256.1 2525.89 2255.32 M2524.18 2247.93 Q2524.18 2250.62 2525.84 2252.12 Q2527.53 2253.63 2530.57 2253.63 Q2533.58 2253.63 2535.27 2252.12 Q2536.98 2250.62 2536.98 2247.93 Q2536.98 2245.25 2535.27 2243.74 Q2533.58 2242.24 2530.57 2242.24 Q2527.53 2242.24 2525.84 2243.74 Q2524.18 2245.25 2524.18 2247.93 Z" fill="#000000" fill-rule="nonzero" fill-opacity="1" /><path clip-path="url(#clip280)" d="M3043.21 2269.78 L3050.85 2269.78 L3050.85 2243.42 L3042.54 2245.09 L3042.54 2240.83 L3050.8 2239.16 L3055.48 2239.16 L3055.48 2269.78 L3063.12 2269.78 L3063.12 2273.72 L3043.21 2273.72 L3043.21 2269.78 Z" fill="#000000" fill-rule="nonzero" fill-opacity="1" /><path clip-path="url(#clip280)" d="M3072.56 2267.84 L3077.44 2267.84 L3077.44 2273.72 L3072.56 2273.72 L3072.56 2267.84 Z" fill="#000000" fill-rule="nonzero" fill-opacity="1" /><path clip-path="url(#clip280)" d="M3097.63 2242.24 Q3094.02 2242.24 3092.19 2245.8 Q3090.38 2249.34 3090.38 2256.47 Q3090.38 2263.58 3092.19 2267.15 Q3094.02 2270.69 3097.63 2270.69 Q3101.26 2270.69 3103.07 2267.15 Q3104.9 2263.58 3104.9 2256.47 Q3104.9 2249.34 3103.07 2245.8 Q3101.26 2242.24 3097.63 2242.24 M3097.63 2238.53 Q3103.44 2238.53 3106.5 2243.14 Q3109.57 2247.72 3109.57 2256.47 Q3109.57 2265.2 3106.5 2269.81 Q3103.44 2274.39 3097.63 2274.39 Q3091.82 2274.39 3088.74 2269.81 Q3085.69 2265.2 3085.69 2256.47 Q3085.69 2247.72 3088.74 2243.14 Q3091.82 2238.53 3097.63 2238.53 Z" fill="#000000" fill-rule="nonzero" fill-opacity="1" /><path clip-path="url(#clip280)" d="M1530.23 2317.92 L1530.23 2324.7 Q1526.98 2321.68 1523.29 2320.18 Q1519.63 2318.69 1515.49 2318.69 Q1507.34 2318.69 1503.02 2323.69 Q1498.69 2328.65 1498.69 2338.07 Q1498.69 2347.46 1503.02 2352.46 Q1507.34 2357.42 1515.49 2357.42 Q1519.63 2357.42 1523.29 2355.93 Q1526.98 2354.43 1530.23 2351.41 L1530.23 2358.12 Q1526.85 2360.42 1523.07 2361.56 Q1519.31 2362.71 1515.11 2362.71 Q1504.32 2362.71 1498.11 2356.12 Q1491.91 2349.5 1491.91 2338.07 Q1491.91 2326.61 1498.11 2320.02 Q1504.32 2313.4 1515.11 2313.4 Q1519.38 2313.4 1523.13 2314.55 Q1526.92 2315.66 1530.23 2317.92 Z" fill="#000000" fill-rule="nonzero" fill-opacity="1" /><path clip-path="url(#clip280)" d="M1539.68 2326.14 L1545.51 2326.14 L1545.51 2342.88 L1562.03 2326.14 L1569.22 2326.14 L1555.6 2339.92 L1570.97 2361.78 L1564.41 2361.78 L1551.78 2343.8 L1545.51 2350.17 L1545.51 2361.78 L1539.68 2361.78 L1539.68 2326.14 Z" fill="#000000" fill-rule="nonzero" fill-opacity="1" /><path clip-path="url(#clip280)" d="M1593.09 2330.24 Q1588.38 2330.24 1585.64 2333.93 Q1582.9 2337.59 1582.9 2343.99 Q1582.9 2350.39 1585.61 2354.08 Q1588.35 2357.74 1593.09 2357.74 Q1597.77 2357.74 1600.51 2354.05 Q1603.24 2350.36 1603.24 2343.99 Q1603.24 2337.66 1600.51 2333.97 Q1597.77 2330.24 1593.09 2330.24 M1593.09 2325.28 Q1600.73 2325.28 1605.09 2330.24 Q1609.45 2335.21 1609.45 2343.99 Q1609.45 2352.74 1605.09 2357.74 Q1600.73 2362.71 1593.09 2362.71 Q1585.42 2362.71 1581.06 2357.74 Q1576.73 2352.74 1576.73 2343.99 Q1576.73 2335.21 1581.06 2330.24 Q1585.42 2325.28 1593.09 2325.28 Z" fill="#000000" fill-rule="nonzero" fill-opacity="1" /><path clip-path="url(#clip280)" d="M1624.82 2356.44 L1624.82 2375.34 L1618.93 2375.34 L1618.93 2326.14 L1624.82 2326.14 L1624.82 2331.55 Q1626.67 2328.36 1629.47 2326.84 Q1632.3 2325.28 1636.22 2325.28 Q1642.71 2325.28 1646.75 2330.43 Q1650.83 2335.59 1650.83 2343.99 Q1650.83 2352.39 1646.75 2357.55 Q1642.71 2362.71 1636.22 2362.71 Q1632.3 2362.71 1629.47 2361.18 Q1626.67 2359.62 1624.82 2356.44 M1644.75 2343.99 Q1644.75 2337.53 1642.07 2333.87 Q1639.43 2330.18 1634.79 2330.18 Q1630.14 2330.18 1627.46 2333.87 Q1624.82 2337.53 1624.82 2343.99 Q1624.82 2350.45 1627.46 2354.14 Q1630.14 2357.81 1634.79 2357.81 Q1639.43 2357.81 1642.07 2354.14 Q1644.75 2350.45 1644.75 2343.99 Z" fill="#000000" fill-rule="nonzero" fill-opacity="1" /><path clip-path="url(#clip280)" d="M1674.35 2330.24 Q1669.64 2330.24 1666.9 2333.93 Q1664.16 2337.59 1664.16 2343.99 Q1664.16 2350.39 1666.87 2354.08 Q1669.61 2357.74 1674.35 2357.74 Q1679.03 2357.74 1681.76 2354.05 Q1684.5 2350.36 1684.5 2343.99 Q1684.5 2337.66 1681.76 2333.97 Q1679.03 2330.24 1674.35 2330.24 M1674.35 2325.28 Q1681.99 2325.28 1686.35 2330.24 Q1690.71 2335.21 1690.71 2343.99 Q1690.71 2352.74 1686.35 2357.74 Q1681.99 2362.71 1674.35 2362.71 Q1666.68 2362.71 1662.32 2357.74 Q1657.99 2352.74 1657.99 2343.99 Q1657.99 2335.21 1662.32 2330.24 Q1666.68 2325.28 1674.35 2325.28 Z" fill="#000000" fill-rule="nonzero" fill-opacity="1" /><path clip-path="url(#clip280)" d="M1726.07 2327.5 L1726.07 2332.98 Q1723.59 2331.61 1721.07 2330.94 Q1718.59 2330.24 1716.04 2330.24 Q1710.35 2330.24 1707.2 2333.87 Q1704.04 2337.47 1704.04 2343.99 Q1704.04 2350.52 1707.2 2354.14 Q1710.35 2357.74 1716.04 2357.74 Q1718.59 2357.74 1721.07 2357.07 Q1723.59 2356.37 1726.07 2355 L1726.07 2360.42 Q1723.62 2361.56 1720.98 2362.13 Q1718.37 2362.71 1715.41 2362.71 Q1707.35 2362.71 1702.61 2357.65 Q1697.87 2352.59 1697.87 2343.99 Q1697.87 2335.27 1702.64 2330.27 Q1707.45 2325.28 1715.79 2325.28 Q1718.49 2325.28 1721.07 2325.85 Q1723.65 2326.39 1726.07 2327.5 Z" fill="#000000" fill-rule="nonzero" fill-opacity="1" /><path clip-path="url(#clip280)" d="M1732.02 2326.14 L1766.17 2326.14 L1766.17 2330.81 L1751.98 2330.81 L1751.98 2361.78 L1746.22 2361.78 L1746.22 2330.81 L1732.02 2330.81 L1732.02 2326.14 Z" fill="#000000" fill-rule="nonzero" fill-opacity="1" /><path clip-path="url(#clip280)" d="M1796.41 2351.22 Q1796.41 2348.35 1794.31 2346.86 Q1792.24 2345.36 1788.23 2345.36 L1779.89 2345.36 L1779.89 2357.11 L1788.23 2357.11 Q1792.24 2357.11 1794.31 2355.61 Q1796.41 2354.08 1796.41 2351.22 M1774 2326.14 L1779.89 2326.14 L1779.89 2340.68 L1788.49 2340.68 Q1795.3 2340.68 1798.96 2343.29 Q1802.65 2345.87 1802.65 2351.22 Q1802.65 2356.56 1798.96 2359.17 Q1795.3 2361.78 1788.49 2361.78 L1774 2361.78 L1774 2326.14 Z" fill="#000000" fill-rule="nonzero" fill-opacity="1" /><path clip-path="url(#clip280)" d="M1839.03 2356.44 L1839.03 2375.34 L1833.14 2375.34 L1833.14 2326.14 L1839.03 2326.14 L1839.03 2331.55 Q1840.88 2328.36 1843.68 2326.84 Q1846.51 2325.28 1850.42 2325.28 Q1856.92 2325.28 1860.96 2330.43 Q1865.03 2335.59 1865.03 2343.99 Q1865.03 2352.39 1860.96 2357.55 Q1856.92 2362.71 1850.42 2362.71 Q1846.51 2362.71 1843.68 2361.18 Q1840.88 2359.62 1839.03 2356.44 M1858.95 2343.99 Q1858.95 2337.53 1856.28 2333.87 Q1853.64 2330.18 1848.99 2330.18 Q1844.34 2330.18 1841.67 2333.87 Q1839.03 2337.53 1839.03 2343.99 Q1839.03 2350.45 1841.67 2354.14 Q1844.34 2357.81 1848.99 2357.81 Q1853.64 2357.81 1856.28 2354.14 Q1858.95 2350.45 1858.95 2343.99 Z" fill="#000000" fill-rule="nonzero" fill-opacity="1" /><path clip-path="url(#clip280)" d="M1888.55 2330.24 Q1883.84 2330.24 1881.11 2333.93 Q1878.37 2337.59 1878.37 2343.99 Q1878.37 2350.39 1881.07 2354.08 Q1883.81 2357.74 1888.55 2357.74 Q1893.23 2357.74 1895.97 2354.05 Q1898.71 2350.36 1898.71 2343.99 Q1898.71 2337.66 1895.97 2333.97 Q1893.23 2330.24 1888.55 2330.24 M1888.55 2325.28 Q1896.19 2325.28 1900.55 2330.24 Q1904.91 2335.21 1904.91 2343.99 Q1904.91 2352.74 1900.55 2357.74 Q1896.19 2362.71 1888.55 2362.71 Q1880.88 2362.71 1876.52 2357.74 Q1872.19 2352.74 1872.19 2343.99 Q1872.19 2335.21 1876.52 2330.24 Q1880.88 2325.28 1888.55 2325.28 Z" fill="#000000" fill-rule="nonzero" fill-opacity="1" /><path clip-path="url(#clip280)" d="M1940.28 2327.5 L1940.28 2332.98 Q1937.79 2331.61 1935.28 2330.94 Q1932.8 2330.24 1930.25 2330.24 Q1924.55 2330.24 1921.4 2333.87 Q1918.25 2337.47 1918.25 2343.99 Q1918.25 2350.52 1921.4 2354.14 Q1924.55 2357.74 1930.25 2357.74 Q1932.8 2357.74 1935.28 2357.07 Q1937.79 2356.37 1940.28 2355 L1940.28 2360.42 Q1937.82 2361.56 1935.18 2362.13 Q1932.57 2362.71 1929.61 2362.71 Q1921.56 2362.71 1916.82 2357.65 Q1912.08 2352.59 1912.08 2343.99 Q1912.08 2335.27 1916.85 2330.27 Q1921.66 2325.28 1929.99 2325.28 Q1932.7 2325.28 1935.28 2325.85 Q1937.86 2326.39 1940.28 2327.5 Z" fill="#000000" fill-rule="nonzero" fill-opacity="1" /><path clip-path="url(#clip280)" d="M1946.23 2326.14 L1980.38 2326.14 L1980.38 2330.81 L1966.18 2330.81 L1966.18 2361.78 L1960.42 2361.78 L1960.42 2330.81 L1946.23 2330.81 L1946.23 2326.14 Z" fill="#000000" fill-rule="nonzero" fill-opacity="1" /><path clip-path="url(#clip280)" d="M2004.63 2343.86 Q1997.54 2343.86 1994.8 2345.49 Q1992.06 2347.11 1992.06 2351.03 Q1992.06 2354.14 1994.1 2355.99 Q1996.17 2357.81 1999.7 2357.81 Q2004.57 2357.81 2007.5 2354.37 Q2010.46 2350.9 2010.46 2345.17 L2010.46 2343.86 L2004.63 2343.86 M2016.31 2341.45 L2016.31 2361.78 L2010.46 2361.78 L2010.46 2356.37 Q2008.45 2359.62 2005.46 2361.18 Q2002.47 2362.71 1998.14 2362.71 Q1992.67 2362.71 1989.42 2359.65 Q1986.2 2356.56 1986.2 2351.41 Q1986.2 2345.39 1990.21 2342.34 Q1994.26 2339.28 2002.25 2339.28 L2010.46 2339.28 L2010.46 2338.71 Q2010.46 2334.67 2007.78 2332.47 Q2005.14 2330.24 2000.34 2330.24 Q1997.28 2330.24 1994.38 2330.97 Q1991.49 2331.71 1988.81 2333.17 L1988.81 2327.76 Q1992.03 2326.52 1995.05 2325.91 Q1998.08 2325.28 2000.94 2325.28 Q2008.68 2325.28 2012.49 2329.29 Q2016.31 2333.3 2016.31 2341.45 Z" fill="#000000" fill-rule="nonzero" fill-opacity="1" /><path clip-path="url(#clip280)" d="M2029.87 2353.7 L2036.59 2353.7 L2036.59 2359.17 L2031.37 2369.36 L2027.26 2369.36 L2029.87 2359.17 L2029.87 2353.7 Z" fill="#000000" fill-rule="nonzero" fill-opacity="1" /><path clip-path="url(#clip280)" d="M2090.6 2345.2 L2089.2 2337.85 Q2087.77 2330.31 2082.1 2330.31 Q2077.84 2330.31 2075.9 2333.81 Q2073.45 2338.2 2073.45 2343.99 Q2073.45 2350.99 2075.83 2354.34 Q2078.25 2357.74 2082.1 2357.74 Q2086.37 2357.74 2088.66 2350.96 L2090.6 2345.2 M2093.88 2335.46 L2097.03 2326.14 L2102.25 2326.14 L2095.73 2345.46 L2097 2352.43 Q2097.29 2353.99 2098.4 2355.29 Q2099.7 2356.82 2100.72 2356.82 L2103.52 2356.82 L2103.52 2361.78 L2100.02 2361.78 Q2097.03 2361.78 2094.36 2359.11 Q2093.05 2357.77 2092.51 2354.97 Q2091.05 2358.51 2088.06 2361.27 Q2086.65 2362.58 2082.1 2362.58 Q2074.62 2362.58 2071 2357.74 Q2067.27 2352.74 2067.27 2343.99 Q2067.27 2334.63 2071.31 2330.24 Q2075.8 2325.34 2082.1 2325.34 Q2092 2325.34 2093.88 2335.46 Z" fill="#000000" fill-rule="nonzero" fill-opacity="1" /><polyline clip-path="url(#clip280)" style="stroke:#000000; stroke-linecap:round; stroke-linejoin:round; stroke-width:4; stroke-opacity:1; fill:none" points="442.675,2204.92 442.675,131.032 "/>
<polyline clip-path="url(#clip280)" style="stroke:#000000; stroke-linecap:round; stroke-linejoin:round; stroke-width:4; stroke-opacity:1; fill:none" points="442.675,1885.36 461.573,1885.36 "/>
<polyline clip-path="url(#clip280)" style="stroke:#000000; stroke-linecap:round; stroke-linejoin:round; stroke-width:4; stroke-opacity:1; fill:none" points="442.675,1494.06 461.573,1494.06 "/>
<polyline clip-path="url(#clip280)" style="stroke:#000000; stroke-linecap:round; stroke-linejoin:round; stroke-width:4; stroke-opacity:1; fill:none" points="442.675,1102.76 461.573,1102.76 "/>
<polyline clip-path="url(#clip280)" style="stroke:#000000; stroke-linecap:round; stroke-linejoin:round; stroke-width:4; stroke-opacity:1; fill:none" points="442.675,711.46 461.573,711.46 "/>
<polyline clip-path="url(#clip280)" style="stroke:#000000; stroke-linecap:round; stroke-linejoin:round; stroke-width:4; stroke-opacity:1; fill:none" points="442.675,320.16 461.573,320.16 "/>
<path clip-path="url(#clip280)" d="M121.825 1905.15 L138.144 1905.15 L138.144 1909.09 L116.2 1909.09 L116.2 1905.15 Q118.862 1902.4 123.445 1897.77 Q128.052 1893.11 129.232 1891.77 Q131.478 1889.25 132.357 1887.51 Q133.26 1885.75 133.26 1884.06 Q133.26 1881.31 131.316 1879.57 Q129.395 1877.84 126.293 1877.84 Q124.094 1877.84 121.64 1878.6 Q119.209 1879.36 116.432 1880.91 L116.432 1876.19 Q119.256 1875.06 121.709 1874.48 Q124.163 1873.9 126.2 1873.9 Q131.57 1873.9 134.765 1876.59 Q137.959 1879.27 137.959 1883.76 Q137.959 1885.89 137.149 1887.81 Q136.362 1889.71 134.256 1892.3 Q133.677 1892.98 130.575 1896.19 Q127.473 1899.39 121.825 1905.15 Z" fill="#000000" fill-rule="nonzero" fill-opacity="1" /><path clip-path="url(#clip280)" d="M147.959 1903.21 L152.843 1903.21 L152.843 1909.09 L147.959 1909.09 L147.959 1903.21 Z" fill="#000000" fill-rule="nonzero" fill-opacity="1" /><path clip-path="url(#clip280)" d="M167.056 1905.15 L183.376 1905.15 L183.376 1909.09 L161.431 1909.09 L161.431 1905.15 Q164.093 1902.4 168.677 1897.77 Q173.283 1893.11 174.464 1891.77 Q176.709 1889.25 177.589 1887.51 Q178.491 1885.75 178.491 1884.06 Q178.491 1881.31 176.547 1879.57 Q174.626 1877.84 171.524 1877.84 Q169.325 1877.84 166.871 1878.6 Q164.441 1879.36 161.663 1880.91 L161.663 1876.19 Q164.487 1875.06 166.941 1874.48 Q169.394 1873.9 171.431 1873.9 Q176.802 1873.9 179.996 1876.59 Q183.191 1879.27 183.191 1883.76 Q183.191 1885.89 182.38 1887.81 Q181.593 1889.71 179.487 1892.3 Q178.908 1892.98 175.806 1896.19 Q172.704 1899.39 167.056 1905.15 Z" fill="#000000" fill-rule="nonzero" fill-opacity="1" /><path clip-path="url(#clip280)" d="M193.237 1874.53 L211.593 1874.53 L211.593 1878.46 L197.519 1878.46 L197.519 1886.93 Q198.538 1886.59 199.556 1886.42 Q200.575 1886.24 201.593 1886.24 Q207.38 1886.24 210.76 1889.41 Q214.139 1892.58 214.139 1898 Q214.139 1903.58 210.667 1906.68 Q207.195 1909.76 200.876 1909.76 Q198.7 1909.76 196.431 1909.39 Q194.186 1909.02 191.778 1908.28 L191.778 1903.58 Q193.862 1904.71 196.084 1905.27 Q198.306 1905.82 200.783 1905.82 Q204.788 1905.82 207.126 1903.72 Q209.464 1901.61 209.464 1898 Q209.464 1894.39 207.126 1892.28 Q204.788 1890.17 200.783 1890.17 Q198.908 1890.17 197.033 1890.59 Q195.181 1891.01 193.237 1891.89 L193.237 1874.53 Z" fill="#000000" fill-rule="nonzero" fill-opacity="1" /><path clip-path="url(#clip280)" d="M233.352 1877.6 Q229.741 1877.6 227.913 1881.17 Q226.107 1884.71 226.107 1891.84 Q226.107 1898.95 227.913 1902.51 Q229.741 1906.05 233.352 1906.05 Q236.987 1906.05 238.792 1902.51 Q240.621 1898.95 240.621 1891.84 Q240.621 1884.71 238.792 1881.17 Q236.987 1877.6 233.352 1877.6 M233.352 1873.9 Q239.162 1873.9 242.218 1878.51 Q245.297 1883.09 245.297 1891.84 Q245.297 1900.57 242.218 1905.17 Q239.162 1909.76 233.352 1909.76 Q227.542 1909.76 224.463 1905.17 Q221.408 1900.57 221.408 1891.84 Q221.408 1883.09 224.463 1878.51 Q227.542 1873.9 233.352 1873.9 Z" fill="#000000" fill-rule="nonzero" fill-opacity="1" /><path clip-path="url(#clip280)" d="M281.685 1883.62 L271.107 1894.25 L281.685 1904.83 L278.931 1907.63 L268.306 1897 L257.681 1907.63 L254.949 1904.83 L265.505 1894.25 L254.949 1883.62 L257.681 1880.82 L268.306 1891.45 L278.931 1880.82 L281.685 1883.62 Z" fill="#000000" fill-rule="nonzero" fill-opacity="1" /><path clip-path="url(#clip280)" d="M294.046 1905.15 L301.685 1905.15 L301.685 1878.79 L293.375 1880.45 L293.375 1876.19 L301.639 1874.53 L306.315 1874.53 L306.315 1905.15 L313.954 1905.15 L313.954 1909.09 L294.046 1909.09 L294.046 1905.15 Z" fill="#000000" fill-rule="nonzero" fill-opacity="1" /><path clip-path="url(#clip280)" d="M333.398 1877.6 Q329.787 1877.6 327.958 1881.17 Q326.153 1884.71 326.153 1891.84 Q326.153 1898.95 327.958 1902.51 Q329.787 1906.05 333.398 1906.05 Q337.032 1906.05 338.838 1902.51 Q340.667 1898.95 340.667 1891.84 Q340.667 1884.71 338.838 1881.17 Q337.032 1877.6 333.398 1877.6 M333.398 1873.9 Q339.208 1873.9 342.264 1878.51 Q345.342 1883.09 345.342 1891.84 Q345.342 1900.57 342.264 1905.17 Q339.208 1909.76 333.398 1909.76 Q327.588 1909.76 324.509 1905.17 Q321.454 1900.57 321.454 1891.84 Q321.454 1883.09 324.509 1878.51 Q327.588 1873.9 333.398 1873.9 Z" fill="#000000" fill-rule="nonzero" fill-opacity="1" /><path clip-path="url(#clip280)" d="M345.342 1868 L369.454 1868 L369.454 1871.2 L345.342 1871.2 L345.342 1868 Z" fill="#000000" fill-rule="nonzero" fill-opacity="1" /><path clip-path="url(#clip280)" d="M377.692 1853.6 L392.606 1853.6 L392.606 1856.79 L381.171 1856.79 L381.171 1863.68 Q381.999 1863.39 382.826 1863.26 Q383.654 1863.11 384.481 1863.11 Q389.183 1863.11 391.929 1865.69 Q394.675 1868.27 394.675 1872.67 Q394.675 1877.2 391.854 1879.72 Q389.033 1882.22 383.898 1882.22 Q382.13 1882.22 380.287 1881.92 Q378.463 1881.62 376.507 1881.02 L376.507 1877.2 Q378.2 1878.12 380.005 1878.57 Q381.811 1879.02 383.823 1879.02 Q387.077 1879.02 388.976 1877.31 Q390.876 1875.6 390.876 1872.67 Q390.876 1869.73 388.976 1868.02 Q387.077 1866.31 383.823 1866.31 Q382.3 1866.31 380.776 1866.65 Q379.272 1866.99 377.692 1867.7 L377.692 1853.6 Z" fill="#000000" fill-rule="nonzero" fill-opacity="1" /><path clip-path="url(#clip280)" d="M121.825 1513.85 L138.144 1513.85 L138.144 1517.79 L116.2 1517.79 L116.2 1513.85 Q118.862 1511.1 123.445 1506.47 Q128.052 1501.81 129.232 1500.47 Q131.478 1497.95 132.357 1496.21 Q133.26 1494.45 133.26 1492.76 Q133.26 1490.01 131.316 1488.27 Q129.395 1486.54 126.293 1486.54 Q124.094 1486.54 121.64 1487.3 Q119.209 1488.06 116.432 1489.62 L116.432 1484.89 Q119.256 1483.76 121.709 1483.18 Q124.163 1482.6 126.2 1482.6 Q131.57 1482.6 134.765 1485.29 Q137.959 1487.97 137.959 1492.46 Q137.959 1494.59 137.149 1496.51 Q136.362 1498.41 134.256 1501 Q133.677 1501.68 130.575 1504.89 Q127.473 1508.09 121.825 1513.85 Z" fill="#000000" fill-rule="nonzero" fill-opacity="1" /><path clip-path="url(#clip280)" d="M147.959 1511.91 L152.843 1511.91 L152.843 1517.79 L147.959 1517.79 L147.959 1511.91 Z" fill="#000000" fill-rule="nonzero" fill-opacity="1" /><path clip-path="url(#clip280)" d="M167.056 1513.85 L183.376 1513.85 L183.376 1517.79 L161.431 1517.79 L161.431 1513.85 Q164.093 1511.1 168.677 1506.47 Q173.283 1501.81 174.464 1500.47 Q176.709 1497.95 177.589 1496.21 Q178.491 1494.45 178.491 1492.76 Q178.491 1490.01 176.547 1488.27 Q174.626 1486.54 171.524 1486.54 Q169.325 1486.54 166.871 1487.3 Q164.441 1488.06 161.663 1489.62 L161.663 1484.89 Q164.487 1483.76 166.941 1483.18 Q169.394 1482.6 171.431 1482.6 Q176.802 1482.6 179.996 1485.29 Q183.191 1487.97 183.191 1492.46 Q183.191 1494.59 182.38 1496.51 Q181.593 1498.41 179.487 1501 Q178.908 1501.68 175.806 1504.89 Q172.704 1508.09 167.056 1513.85 Z" fill="#000000" fill-rule="nonzero" fill-opacity="1" /><path clip-path="url(#clip280)" d="M203.19 1501.37 Q199.857 1501.37 197.936 1503.16 Q196.038 1504.94 196.038 1508.06 Q196.038 1511.19 197.936 1512.97 Q199.857 1514.75 203.19 1514.75 Q206.524 1514.75 208.445 1512.97 Q210.366 1511.17 210.366 1508.06 Q210.366 1504.94 208.445 1503.16 Q206.547 1501.37 203.19 1501.37 M198.515 1499.38 Q195.505 1498.64 193.815 1496.58 Q192.149 1494.52 192.149 1491.56 Q192.149 1487.42 195.089 1485.01 Q198.052 1482.6 203.19 1482.6 Q208.352 1482.6 211.292 1485.01 Q214.232 1487.42 214.232 1491.56 Q214.232 1494.52 212.542 1496.58 Q210.876 1498.64 207.889 1499.38 Q211.269 1500.17 213.144 1502.46 Q215.042 1504.75 215.042 1508.06 Q215.042 1513.09 211.964 1515.77 Q208.908 1518.46 203.19 1518.46 Q197.473 1518.46 194.394 1515.77 Q191.339 1513.09 191.339 1508.06 Q191.339 1504.75 193.237 1502.46 Q195.135 1500.17 198.515 1499.38 M196.802 1492 Q196.802 1494.68 198.468 1496.19 Q200.158 1497.69 203.19 1497.69 Q206.2 1497.69 207.889 1496.19 Q209.602 1494.68 209.602 1492 Q209.602 1489.31 207.889 1487.81 Q206.2 1486.31 203.19 1486.31 Q200.158 1486.31 198.468 1487.81 Q196.802 1489.31 196.802 1492 Z" fill="#000000" fill-rule="nonzero" fill-opacity="1" /><path clip-path="url(#clip280)" d="M233.352 1486.31 Q229.741 1486.31 227.913 1489.87 Q226.107 1493.41 226.107 1500.54 Q226.107 1507.65 227.913 1511.21 Q229.741 1514.75 233.352 1514.75 Q236.987 1514.75 238.792 1511.21 Q240.621 1507.65 240.621 1500.54 Q240.621 1493.41 238.792 1489.87 Q236.987 1486.31 233.352 1486.31 M233.352 1482.6 Q239.162 1482.6 242.218 1487.21 Q245.297 1491.79 245.297 1500.54 Q245.297 1509.27 242.218 1513.87 Q239.162 1518.46 233.352 1518.46 Q227.542 1518.46 224.463 1513.87 Q221.408 1509.27 221.408 1500.54 Q221.408 1491.79 224.463 1487.21 Q227.542 1482.6 233.352 1482.6 Z" fill="#000000" fill-rule="nonzero" fill-opacity="1" /><path clip-path="url(#clip280)" d="M281.685 1492.32 L271.107 1502.95 L281.685 1513.53 L278.931 1516.33 L268.306 1505.7 L257.681 1516.33 L254.949 1513.53 L265.505 1502.95 L254.949 1492.32 L257.681 1489.52 L268.306 1500.15 L278.931 1489.52 L281.685 1492.32 Z" fill="#000000" fill-rule="nonzero" fill-opacity="1" /><path clip-path="url(#clip280)" d="M294.046 1513.85 L301.685 1513.85 L301.685 1487.49 L293.375 1489.15 L293.375 1484.89 L301.639 1483.23 L306.315 1483.23 L306.315 1513.85 L313.954 1513.85 L313.954 1517.79 L294.046 1517.79 L294.046 1513.85 Z" fill="#000000" fill-rule="nonzero" fill-opacity="1" /><path clip-path="url(#clip280)" d="M333.398 1486.31 Q329.787 1486.31 327.958 1489.87 Q326.153 1493.41 326.153 1500.54 Q326.153 1507.65 327.958 1511.21 Q329.787 1514.75 333.398 1514.75 Q337.032 1514.75 338.838 1511.21 Q340.667 1507.65 340.667 1500.54 Q340.667 1493.41 338.838 1489.87 Q337.032 1486.31 333.398 1486.31 M333.398 1482.6 Q339.208 1482.6 342.264 1487.21 Q345.342 1491.79 345.342 1500.54 Q345.342 1509.27 342.264 1513.87 Q339.208 1518.46 333.398 1518.46 Q327.588 1518.46 324.509 1513.87 Q321.454 1509.27 321.454 1500.54 Q321.454 1491.79 324.509 1487.21 Q327.588 1482.6 333.398 1482.6 Z" fill="#000000" fill-rule="nonzero" fill-opacity="1" /><path clip-path="url(#clip280)" d="M345.342 1476.7 L369.454 1476.7 L369.454 1479.9 L345.342 1479.9 L345.342 1476.7 Z" fill="#000000" fill-rule="nonzero" fill-opacity="1" /><path clip-path="url(#clip280)" d="M377.692 1462.3 L392.606 1462.3 L392.606 1465.49 L381.171 1465.49 L381.171 1472.38 Q381.999 1472.1 382.826 1471.96 Q383.654 1471.81 384.481 1471.81 Q389.183 1471.81 391.929 1474.39 Q394.675 1476.97 394.675 1481.37 Q394.675 1485.9 391.854 1488.42 Q389.033 1490.92 383.898 1490.92 Q382.13 1490.92 380.287 1490.62 Q378.463 1490.32 376.507 1489.72 L376.507 1485.9 Q378.2 1486.82 380.005 1487.27 Q381.811 1487.72 383.823 1487.72 Q387.077 1487.72 388.976 1486.01 Q390.876 1484.3 390.876 1481.37 Q390.876 1478.43 388.976 1476.72 Q387.077 1475.01 383.823 1475.01 Q382.3 1475.01 380.776 1475.35 Q379.272 1475.69 377.692 1476.4 L377.692 1462.3 Z" fill="#000000" fill-rule="nonzero" fill-opacity="1" /><path clip-path="url(#clip280)" d="M121.825 1122.55 L138.144 1122.55 L138.144 1126.49 L116.2 1126.49 L116.2 1122.55 Q118.862 1119.8 123.445 1115.17 Q128.052 1110.51 129.232 1109.17 Q131.478 1106.65 132.357 1104.91 Q133.26 1103.15 133.26 1101.46 Q133.26 1098.71 131.316 1096.97 Q129.395 1095.24 126.293 1095.24 Q124.094 1095.24 121.64 1096 Q119.209 1096.76 116.432 1098.32 L116.432 1093.59 Q119.256 1092.46 121.709 1091.88 Q124.163 1091.3 126.2 1091.3 Q131.57 1091.3 134.765 1093.99 Q137.959 1096.67 137.959 1101.16 Q137.959 1103.29 137.149 1105.21 Q136.362 1107.11 134.256 1109.7 Q133.677 1110.38 130.575 1113.59 Q127.473 1116.79 121.825 1122.55 Z" fill="#000000" fill-rule="nonzero" fill-opacity="1" /><path clip-path="url(#clip280)" d="M147.959 1120.61 L152.843 1120.61 L152.843 1126.49 L147.959 1126.49 L147.959 1120.61 Z" fill="#000000" fill-rule="nonzero" fill-opacity="1" /><path clip-path="url(#clip280)" d="M177.195 1107.85 Q180.552 1108.57 182.427 1110.84 Q184.325 1113.11 184.325 1116.44 Q184.325 1121.56 180.806 1124.36 Q177.288 1127.16 170.806 1127.16 Q168.63 1127.16 166.316 1126.72 Q164.024 1126.3 161.57 1125.45 L161.57 1120.93 Q163.515 1122.07 165.83 1122.64 Q168.144 1123.22 170.667 1123.22 Q175.066 1123.22 177.357 1121.49 Q179.672 1119.75 179.672 1116.44 Q179.672 1113.39 177.519 1111.67 Q175.39 1109.94 171.57 1109.94 L167.542 1109.94 L167.542 1106.09 L171.755 1106.09 Q175.204 1106.09 177.033 1104.73 Q178.862 1103.34 178.862 1100.75 Q178.862 1098.08 176.964 1096.67 Q175.089 1095.24 171.57 1095.24 Q169.649 1095.24 167.45 1095.65 Q165.251 1096.07 162.612 1096.95 L162.612 1092.78 Q165.274 1092.04 167.589 1091.67 Q169.927 1091.3 171.987 1091.3 Q177.311 1091.3 180.413 1093.73 Q183.515 1096.14 183.515 1100.26 Q183.515 1103.13 181.871 1105.12 Q180.228 1107.09 177.195 1107.85 Z" fill="#000000" fill-rule="nonzero" fill-opacity="1" /><path clip-path="url(#clip280)" d="M194.001 1122.55 L201.64 1122.55 L201.64 1096.19 L193.329 1097.85 L193.329 1093.59 L201.593 1091.93 L206.269 1091.93 L206.269 1122.55 L213.908 1122.55 L213.908 1126.49 L194.001 1126.49 L194.001 1122.55 Z" fill="#000000" fill-rule="nonzero" fill-opacity="1" /><path clip-path="url(#clip280)" d="M233.352 1095.01 Q229.741 1095.01 227.913 1098.57 Q226.107 1102.11 226.107 1109.24 Q226.107 1116.35 227.913 1119.91 Q229.741 1123.45 233.352 1123.45 Q236.987 1123.45 238.792 1119.91 Q240.621 1116.35 240.621 1109.24 Q240.621 1102.11 238.792 1098.57 Q236.987 1095.01 233.352 1095.01 M233.352 1091.3 Q239.162 1091.3 242.218 1095.91 Q245.297 1100.49 245.297 1109.24 Q245.297 1117.97 242.218 1122.57 Q239.162 1127.16 233.352 1127.16 Q227.542 1127.16 224.463 1122.57 Q221.408 1117.97 221.408 1109.24 Q221.408 1100.49 224.463 1095.91 Q227.542 1091.3 233.352 1091.3 Z" fill="#000000" fill-rule="nonzero" fill-opacity="1" /><path clip-path="url(#clip280)" d="M281.685 1101.02 L271.107 1111.65 L281.685 1122.23 L278.931 1125.03 L268.306 1114.4 L257.681 1125.03 L254.949 1122.23 L265.505 1111.65 L254.949 1101.02 L257.681 1098.22 L268.306 1108.85 L278.931 1098.22 L281.685 1101.02 Z" fill="#000000" fill-rule="nonzero" fill-opacity="1" /><path clip-path="url(#clip280)" d="M294.046 1122.55 L301.685 1122.55 L301.685 1096.19 L293.375 1097.85 L293.375 1093.59 L301.639 1091.93 L306.315 1091.93 L306.315 1122.55 L313.954 1122.55 L313.954 1126.49 L294.046 1126.49 L294.046 1122.55 Z" fill="#000000" fill-rule="nonzero" fill-opacity="1" /><path clip-path="url(#clip280)" d="M333.398 1095.01 Q329.787 1095.01 327.958 1098.57 Q326.153 1102.11 326.153 1109.24 Q326.153 1116.35 327.958 1119.91 Q329.787 1123.45 333.398 1123.45 Q337.032 1123.45 338.838 1119.91 Q340.667 1116.35 340.667 1109.24 Q340.667 1102.11 338.838 1098.57 Q337.032 1095.01 333.398 1095.01 M333.398 1091.3 Q339.208 1091.3 342.264 1095.91 Q345.342 1100.49 345.342 1109.24 Q345.342 1117.97 342.264 1122.57 Q339.208 1127.16 333.398 1127.16 Q327.588 1127.16 324.509 1122.57 Q321.454 1117.97 321.454 1109.24 Q321.454 1100.49 324.509 1095.91 Q327.588 1091.3 333.398 1091.3 Z" fill="#000000" fill-rule="nonzero" fill-opacity="1" /><path clip-path="url(#clip280)" d="M345.342 1085.4 L369.454 1085.4 L369.454 1088.6 L345.342 1088.6 L345.342 1085.4 Z" fill="#000000" fill-rule="nonzero" fill-opacity="1" /><path clip-path="url(#clip280)" d="M377.692 1071 L392.606 1071 L392.606 1074.19 L381.171 1074.19 L381.171 1081.08 Q381.999 1080.8 382.826 1080.66 Q383.654 1080.51 384.481 1080.51 Q389.183 1080.51 391.929 1083.09 Q394.675 1085.67 394.675 1090.07 Q394.675 1094.6 391.854 1097.12 Q389.033 1099.62 383.898 1099.62 Q382.13 1099.62 380.287 1099.32 Q378.463 1099.02 376.507 1098.42 L376.507 1094.6 Q378.2 1095.52 380.005 1095.97 Q381.811 1096.42 383.823 1096.42 Q387.077 1096.42 388.976 1094.71 Q390.876 1093 390.876 1090.07 Q390.876 1087.13 388.976 1085.42 Q387.077 1083.71 383.823 1083.71 Q382.3 1083.71 380.776 1084.05 Q379.272 1084.39 377.692 1085.1 L377.692 1071 Z" fill="#000000" fill-rule="nonzero" fill-opacity="1" /><path clip-path="url(#clip280)" d="M121.825 731.252 L138.144 731.252 L138.144 735.187 L116.2 735.187 L116.2 731.252 Q118.862 728.498 123.445 723.868 Q128.052 719.215 129.232 717.873 Q131.478 715.35 132.357 713.613 Q133.26 711.854 133.26 710.164 Q133.26 707.41 131.316 705.674 Q129.395 703.938 126.293 703.938 Q124.094 703.938 121.64 704.701 Q119.209 705.465 116.432 707.016 L116.432 702.294 Q119.256 701.16 121.709 700.581 Q124.163 700.002 126.2 700.002 Q131.57 700.002 134.765 702.688 Q137.959 705.373 137.959 709.863 Q137.959 711.993 137.149 713.914 Q136.362 715.813 134.256 718.405 Q133.677 719.076 130.575 722.294 Q127.473 725.488 121.825 731.252 Z" fill="#000000" fill-rule="nonzero" fill-opacity="1" /><path clip-path="url(#clip280)" d="M147.959 729.308 L152.843 729.308 L152.843 735.187 L147.959 735.187 L147.959 729.308 Z" fill="#000000" fill-rule="nonzero" fill-opacity="1" /><path clip-path="url(#clip280)" d="M177.195 716.553 Q180.552 717.271 182.427 719.539 Q184.325 721.808 184.325 725.141 Q184.325 730.257 180.806 733.058 Q177.288 735.859 170.806 735.859 Q168.63 735.859 166.316 735.419 Q164.024 735.002 161.57 734.146 L161.57 729.632 Q163.515 730.766 165.83 731.345 Q168.144 731.924 170.667 731.924 Q175.066 731.924 177.357 730.187 Q179.672 728.451 179.672 725.141 Q179.672 722.086 177.519 720.373 Q175.39 718.637 171.57 718.637 L167.542 718.637 L167.542 714.794 L171.755 714.794 Q175.204 714.794 177.033 713.428 Q178.862 712.039 178.862 709.447 Q178.862 706.785 176.964 705.373 Q175.089 703.938 171.57 703.938 Q169.649 703.938 167.45 704.354 Q165.251 704.771 162.612 705.651 L162.612 701.484 Q165.274 700.743 167.589 700.373 Q169.927 700.002 171.987 700.002 Q177.311 700.002 180.413 702.433 Q183.515 704.84 183.515 708.961 Q183.515 711.831 181.871 713.822 Q180.228 715.789 177.195 716.553 Z" fill="#000000" fill-rule="nonzero" fill-opacity="1" /><path clip-path="url(#clip280)" d="M206.038 704.701 L194.232 723.15 L206.038 723.15 L206.038 704.701 M204.811 700.627 L210.69 700.627 L210.69 723.15 L215.621 723.15 L215.621 727.039 L210.69 727.039 L210.69 735.187 L206.038 735.187 L206.038 727.039 L190.436 727.039 L190.436 722.525 L204.811 700.627 Z" fill="#000000" fill-rule="nonzero" fill-opacity="1" /><path clip-path="url(#clip280)" d="M233.352 703.706 Q229.741 703.706 227.913 707.271 Q226.107 710.813 226.107 717.942 Q226.107 725.049 227.913 728.613 Q229.741 732.155 233.352 732.155 Q236.987 732.155 238.792 728.613 Q240.621 725.049 240.621 717.942 Q240.621 710.813 238.792 707.271 Q236.987 703.706 233.352 703.706 M233.352 700.002 Q239.162 700.002 242.218 704.609 Q245.297 709.192 245.297 717.942 Q245.297 726.669 242.218 731.275 Q239.162 735.859 233.352 735.859 Q227.542 735.859 224.463 731.275 Q221.408 726.669 221.408 717.942 Q221.408 709.192 224.463 704.609 Q227.542 700.002 233.352 700.002 Z" fill="#000000" fill-rule="nonzero" fill-opacity="1" /><path clip-path="url(#clip280)" d="M281.685 709.725 L271.107 720.35 L281.685 730.928 L278.931 733.729 L268.306 723.104 L257.681 733.729 L254.949 730.928 L265.505 720.35 L254.949 709.725 L257.681 706.924 L268.306 717.549 L278.931 706.924 L281.685 709.725 Z" fill="#000000" fill-rule="nonzero" fill-opacity="1" /><path clip-path="url(#clip280)" d="M294.046 731.252 L301.685 731.252 L301.685 704.887 L293.375 706.553 L293.375 702.294 L301.639 700.627 L306.315 700.627 L306.315 731.252 L313.954 731.252 L313.954 735.187 L294.046 735.187 L294.046 731.252 Z" fill="#000000" fill-rule="nonzero" fill-opacity="1" /><path clip-path="url(#clip280)" d="M333.398 703.706 Q329.787 703.706 327.958 707.271 Q326.153 710.813 326.153 717.942 Q326.153 725.049 327.958 728.613 Q329.787 732.155 333.398 732.155 Q337.032 732.155 338.838 728.613 Q340.667 725.049 340.667 717.942 Q340.667 710.813 338.838 707.271 Q337.032 703.706 333.398 703.706 M333.398 700.002 Q339.208 700.002 342.264 704.609 Q345.342 709.192 345.342 717.942 Q345.342 726.669 342.264 731.275 Q339.208 735.859 333.398 735.859 Q327.588 735.859 324.509 731.275 Q321.454 726.669 321.454 717.942 Q321.454 709.192 324.509 704.609 Q327.588 700.002 333.398 700.002 Z" fill="#000000" fill-rule="nonzero" fill-opacity="1" /><path clip-path="url(#clip280)" d="M345.342 694.104 L369.454 694.104 L369.454 697.301 L345.342 697.301 L345.342 694.104 Z" fill="#000000" fill-rule="nonzero" fill-opacity="1" /><path clip-path="url(#clip280)" d="M377.692 679.697 L392.606 679.697 L392.606 682.894 L381.171 682.894 L381.171 689.778 Q381.999 689.496 382.826 689.364 Q383.654 689.214 384.481 689.214 Q389.183 689.214 391.929 691.79 Q394.675 694.367 394.675 698.768 Q394.675 703.301 391.854 705.821 Q389.033 708.322 383.898 708.322 Q382.13 708.322 380.287 708.022 Q378.463 707.721 376.507 707.119 L376.507 703.301 Q378.2 704.222 380.005 704.674 Q381.811 705.125 383.823 705.125 Q387.077 705.125 388.976 703.414 Q390.876 701.702 390.876 698.768 Q390.876 695.834 388.976 694.123 Q387.077 692.411 383.823 692.411 Q382.3 692.411 380.776 692.75 Q379.272 693.088 377.692 693.803 L377.692 679.697 Z" fill="#000000" fill-rule="nonzero" fill-opacity="1" /><path clip-path="url(#clip280)" d="M121.825 339.953 L138.144 339.953 L138.144 343.888 L116.2 343.888 L116.2 339.953 Q118.862 337.198 123.445 332.568 Q128.052 327.916 129.232 326.573 Q131.478 324.05 132.357 322.314 Q133.26 320.555 133.26 318.865 Q133.26 316.11 131.316 314.374 Q129.395 312.638 126.293 312.638 Q124.094 312.638 121.64 313.402 Q119.209 314.166 116.432 315.717 L116.432 310.995 Q119.256 309.86 121.709 309.282 Q124.163 308.703 126.2 308.703 Q131.57 308.703 134.765 311.388 Q137.959 314.073 137.959 318.564 Q137.959 320.694 137.149 322.615 Q136.362 324.513 134.256 327.106 Q133.677 327.777 130.575 330.994 Q127.473 334.189 121.825 339.953 Z" fill="#000000" fill-rule="nonzero" fill-opacity="1" /><path clip-path="url(#clip280)" d="M147.959 338.008 L152.843 338.008 L152.843 343.888 L147.959 343.888 L147.959 338.008 Z" fill="#000000" fill-rule="nonzero" fill-opacity="1" /><path clip-path="url(#clip280)" d="M177.195 325.254 Q180.552 325.971 182.427 328.24 Q184.325 330.508 184.325 333.842 Q184.325 338.957 180.806 341.758 Q177.288 344.559 170.806 344.559 Q168.63 344.559 166.316 344.119 Q164.024 343.703 161.57 342.846 L161.57 338.332 Q163.515 339.467 165.83 340.045 Q168.144 340.624 170.667 340.624 Q175.066 340.624 177.357 338.888 Q179.672 337.152 179.672 333.842 Q179.672 330.786 177.519 329.073 Q175.39 327.337 171.57 327.337 L167.542 327.337 L167.542 323.494 L171.755 323.494 Q175.204 323.494 177.033 322.129 Q178.862 320.74 178.862 318.147 Q178.862 315.485 176.964 314.073 Q175.089 312.638 171.57 312.638 Q169.649 312.638 167.45 313.055 Q165.251 313.471 162.612 314.351 L162.612 310.184 Q165.274 309.444 167.589 309.073 Q169.927 308.703 171.987 308.703 Q177.311 308.703 180.413 311.133 Q183.515 313.541 183.515 317.661 Q183.515 320.531 181.871 322.522 Q180.228 324.49 177.195 325.254 Z" fill="#000000" fill-rule="nonzero" fill-opacity="1" /><path clip-path="url(#clip280)" d="M192.01 309.328 L214.232 309.328 L214.232 311.319 L201.686 343.888 L196.802 343.888 L208.607 313.263 L192.01 313.263 L192.01 309.328 Z" fill="#000000" fill-rule="nonzero" fill-opacity="1" /><path clip-path="url(#clip280)" d="M233.352 312.407 Q229.741 312.407 227.913 315.971 Q226.107 319.513 226.107 326.643 Q226.107 333.749 227.913 337.314 Q229.741 340.855 233.352 340.855 Q236.987 340.855 238.792 337.314 Q240.621 333.749 240.621 326.643 Q240.621 319.513 238.792 315.971 Q236.987 312.407 233.352 312.407 M233.352 308.703 Q239.162 308.703 242.218 313.309 Q245.297 317.893 245.297 326.643 Q245.297 335.369 242.218 339.976 Q239.162 344.559 233.352 344.559 Q227.542 344.559 224.463 339.976 Q221.408 335.369 221.408 326.643 Q221.408 317.893 224.463 313.309 Q227.542 308.703 233.352 308.703 Z" fill="#000000" fill-rule="nonzero" fill-opacity="1" /><path clip-path="url(#clip280)" d="M281.685 318.425 L271.107 329.05 L281.685 339.629 L278.931 342.43 L268.306 331.805 L257.681 342.43 L254.949 339.629 L265.505 329.05 L254.949 318.425 L257.681 315.624 L268.306 326.249 L278.931 315.624 L281.685 318.425 Z" fill="#000000" fill-rule="nonzero" fill-opacity="1" /><path clip-path="url(#clip280)" d="M294.046 339.953 L301.685 339.953 L301.685 313.587 L293.375 315.254 L293.375 310.995 L301.639 309.328 L306.315 309.328 L306.315 339.953 L313.954 339.953 L313.954 343.888 L294.046 343.888 L294.046 339.953 Z" fill="#000000" fill-rule="nonzero" fill-opacity="1" /><path clip-path="url(#clip280)" d="M333.398 312.407 Q329.787 312.407 327.958 315.971 Q326.153 319.513 326.153 326.643 Q326.153 333.749 327.958 337.314 Q329.787 340.855 333.398 340.855 Q337.032 340.855 338.838 337.314 Q340.667 333.749 340.667 326.643 Q340.667 319.513 338.838 315.971 Q337.032 312.407 333.398 312.407 M333.398 308.703 Q339.208 308.703 342.264 313.309 Q345.342 317.893 345.342 326.643 Q345.342 335.369 342.264 339.976 Q339.208 344.559 333.398 344.559 Q327.588 344.559 324.509 339.976 Q321.454 335.369 321.454 326.643 Q321.454 317.893 324.509 313.309 Q327.588 308.703 333.398 308.703 Z" fill="#000000" fill-rule="nonzero" fill-opacity="1" /><path clip-path="url(#clip280)" d="M345.342 302.804 L369.454 302.804 L369.454 306.002 L345.342 306.002 L345.342 302.804 Z" fill="#000000" fill-rule="nonzero" fill-opacity="1" /><path clip-path="url(#clip280)" d="M377.692 288.397 L392.606 288.397 L392.606 291.595 L381.171 291.595 L381.171 298.478 Q381.999 298.196 382.826 298.065 Q383.654 297.914 384.481 297.914 Q389.183 297.914 391.929 300.491 Q394.675 303.068 394.675 307.469 Q394.675 312.001 391.854 314.521 Q389.033 317.023 383.898 317.023 Q382.13 317.023 380.287 316.722 Q378.463 316.421 376.507 315.819 L376.507 312.001 Q378.2 312.923 380.005 313.374 Q381.811 313.826 383.823 313.826 Q387.077 313.826 388.976 312.114 Q390.876 310.403 390.876 307.469 Q390.876 304.535 388.976 302.823 Q387.077 301.112 383.823 301.112 Q382.3 301.112 380.776 301.45 Q379.272 301.789 377.692 302.503 L377.692 288.397 Z" fill="#000000" fill-rule="nonzero" fill-opacity="1" /><path clip-path="url(#clip280)" d="M31.2504 1559.58 L48.6606 1559.58 L48.6606 1549.27 Q48.6606 1544.08 46.5281 1541.6 Q44.3638 1539.08 39.9396 1539.08 Q35.4836 1539.08 33.3829 1541.6 Q31.2504 1544.08 31.2504 1549.27 L31.2504 1559.58 M11.7077 1559.58 L26.0305 1559.58 L26.0305 1550.06 Q26.0305 1545.35 24.28 1543.06 Q22.4976 1540.74 18.8691 1540.74 Q15.2725 1540.74 13.4901 1543.06 Q11.7077 1545.35 11.7077 1550.06 L11.7077 1559.58 M6.42416 1566.01 L6.42416 1549.58 Q6.42416 1542.23 9.4797 1538.25 Q12.5352 1534.27 18.1689 1534.27 Q22.5294 1534.27 25.1075 1536.31 Q27.6856 1538.35 28.3222 1542.3 Q29.3407 1537.55 32.5872 1534.94 Q35.8019 1532.3 40.6398 1532.3 Q47.0055 1532.3 50.4748 1536.63 Q53.9442 1540.96 53.9442 1548.95 L53.9442 1566.01 L6.42416 1566.01 Z" fill="#000000" fill-rule="nonzero" fill-opacity="1" /><path clip-path="url(#clip280)" d="M48.597 1515.88 L67.5031 1515.88 L67.5031 1521.77 L18.2962 1521.77 L18.2962 1515.88 L23.7071 1515.88 Q20.5242 1514.03 18.9964 1511.23 Q17.4368 1508.4 17.4368 1504.48 Q17.4368 1497.99 22.5931 1493.95 Q27.7493 1489.87 36.152 1489.87 Q44.5547 1489.87 49.711 1493.95 Q54.8672 1497.99 54.8672 1504.48 Q54.8672 1508.4 53.3394 1511.23 Q51.7798 1514.03 48.597 1515.88 M36.152 1495.95 Q29.6908 1495.95 26.0305 1498.63 Q22.3384 1501.27 22.3384 1505.92 Q22.3384 1510.56 26.0305 1513.24 Q29.6908 1515.88 36.152 1515.88 Q42.6132 1515.88 46.3053 1513.24 Q49.9656 1510.56 49.9656 1505.92 Q49.9656 1501.27 46.3053 1498.63 Q42.6132 1495.95 36.152 1495.95 Z" fill="#000000" fill-rule="nonzero" fill-opacity="1" /><path clip-path="url(#clip280)" d="M34.6561 1449.67 L37.5206 1449.67 L37.5206 1476.6 Q43.5681 1476.22 46.7509 1472.97 Q49.9019 1469.69 49.9019 1463.87 Q49.9019 1460.5 49.0744 1457.35 Q48.2469 1454.16 46.5918 1451.04 L52.1299 1451.04 Q53.4667 1454.19 54.167 1457.5 Q54.8672 1460.81 54.8672 1464.22 Q54.8672 1472.75 49.9019 1477.75 Q44.9367 1482.71 36.4703 1482.71 Q27.7174 1482.71 22.5931 1478 Q17.4368 1473.26 17.4368 1465.24 Q17.4368 1458.05 22.0838 1453.88 Q26.6989 1449.67 34.6561 1449.67 M32.9373 1455.53 Q28.1312 1455.59 25.2666 1458.24 Q22.4021 1460.85 22.4021 1465.17 Q22.4021 1470.08 25.1712 1473.04 Q27.9402 1475.96 32.9692 1476.41 L32.9373 1455.53 Z" fill="#000000" fill-rule="nonzero" fill-opacity="1" /><path clip-path="url(#clip280)" d="M18.2962 1440.28 L18.2962 1431.72 L42.1676 1421.6 L18.2962 1411.45 L18.2962 1402.95 L53.9442 1402.95 L53.9442 1408.84 L23.898 1408.84 L47.101 1418.67 L47.101 1424.53 L23.898 1434.4 L53.9442 1434.4 L53.9442 1440.28 L18.2962 1440.28 Z" fill="#000000" fill-rule="nonzero" fill-opacity="1" /><path clip-path="url(#clip280)" d="M28.5768 1385 Q31.2186 1385 32.7145 1382.96 Q34.2105 1380.92 34.2105 1377.14 L34.2105 1369.24 L22.975 1369.24 L22.975 1377.14 Q22.975 1380.92 24.4391 1382.96 Q25.9032 1385 28.5768 1385 M53.9442 1393.34 L38.3163 1382.45 Q37.4888 1386.14 35.3245 1388.6 Q33.1283 1391.05 28.5768 1391.05 Q23.4206 1391.05 20.8743 1387.64 Q18.2962 1384.2 18.2962 1377.3 L18.2962 1363.36 L53.9442 1363.36 L53.9442 1369.24 L38.8893 1369.24 L38.8893 1376.53 L53.9442 1387.04 L53.9442 1393.34 Z" fill="#000000" fill-rule="nonzero" fill-opacity="1" /><path clip-path="url(#clip280)" d="M37.5206 1325.32 L49.2654 1325.32 L49.2654 1316.98 Q49.2654 1312.97 47.7694 1310.87 Q46.2417 1308.77 43.3771 1308.77 Q40.5125 1308.77 39.0166 1310.87 Q37.5206 1312.97 37.5206 1316.98 L37.5206 1325.32 M22.975 1325.32 L32.8418 1325.32 L32.8418 1317.62 Q32.8418 1314.31 31.5369 1312.21 Q30.2001 1310.11 27.8448 1310.11 Q25.4894 1310.11 24.2481 1312.21 Q22.975 1314.31 22.975 1317.62 L22.975 1325.32 M18.2962 1331.18 L18.2962 1317.24 Q18.2962 1310.97 20.5879 1307.59 Q22.8795 1304.22 27.1127 1304.22 Q30.391 1304.22 32.3326 1305.94 Q34.2423 1307.66 34.7197 1311.03 Q35.4836 1306.99 37.9026 1304.76 Q40.3215 1302.53 43.95 1302.53 Q48.7243 1302.53 51.3342 1306.22 Q53.9442 1309.88 53.9442 1316.69 L53.9442 1331.18 L18.2962 1331.18 Z" fill="#000000" fill-rule="nonzero" fill-opacity="1" /><path clip-path="url(#clip280)" d="M18.2962 1258.86 L18.2962 1253.01 L53.9442 1253.01 L53.9442 1258.86 L18.2962 1258.86 M17.4368 1255.93 L17.4368 1255.93 M43.3771 1270.35 Q40.5125 1270.35 39.0166 1272.45 Q37.5206 1274.52 37.5206 1278.53 L37.5206 1286.87 L49.2654 1286.87 L49.2654 1278.53 Q49.2654 1274.52 47.7694 1272.45 Q46.2417 1270.35 43.3771 1270.35 M18.2962 1292.76 L18.2962 1286.87 L32.8418 1286.87 L32.8418 1278.28 Q32.8418 1271.47 35.4518 1267.81 Q38.0299 1264.11 43.3771 1264.11 Q48.7243 1264.11 51.3342 1267.81 Q53.9442 1271.47 53.9442 1278.28 L53.9442 1292.76 L18.2962 1292.76 Z" fill="#000000" fill-rule="nonzero" fill-opacity="1" /><path clip-path="url(#clip280)" d="M53.9442 1220.48 L38.9529 1220.48 L38.9529 1231.39 Q38.9529 1236.26 35.9292 1239.51 Q33.192 1242.44 27.3355 1242.44 L18.2962 1242.44 L18.2962 1236.58 L26.7944 1236.58 Q30.5184 1236.58 32.3962 1234.93 Q34.2741 1233.24 34.2741 1229.93 L34.2741 1220.48 L18.2962 1220.48 L18.2962 1214.62 L53.9442 1214.62 L53.9442 1220.48 Z" fill="#000000" fill-rule="nonzero" fill-opacity="1" /><path clip-path="url(#clip280)" d="M18.2962 1172.26 L53.9442 1172.26 L53.9442 1178.08 L25.3303 1178.08 L53.9442 1195.27 L53.9442 1202.78 L18.2962 1202.78 L18.2962 1196.96 L46.8464 1196.96 L18.2962 1179.8 L18.2962 1172.26 Z" fill="#000000" fill-rule="nonzero" fill-opacity="1" /><path clip-path="url(#clip280)" d="M19.6648 1134.54 L25.1393 1134.54 Q23.7707 1137.02 23.1023 1139.54 Q22.4021 1142.02 22.4021 1144.57 Q22.4021 1150.26 26.0305 1153.41 Q29.6272 1156.57 36.152 1156.57 Q42.6769 1156.57 46.3053 1153.41 Q49.9019 1150.26 49.9019 1144.57 Q49.9019 1142.02 49.2335 1139.54 Q48.5333 1137.02 47.1647 1134.54 L52.5755 1134.54 Q53.7214 1136.99 54.2943 1139.63 Q54.8672 1142.24 54.8672 1145.2 Q54.8672 1153.26 49.8064 1158 Q44.7457 1162.74 36.152 1162.74 Q27.431 1162.74 22.4339 1157.97 Q17.4368 1153.16 17.4368 1144.82 Q17.4368 1142.12 18.0097 1139.54 Q18.5508 1136.96 19.6648 1134.54 Z" fill="#000000" fill-rule="nonzero" fill-opacity="1" /><path clip-path="url(#clip280)" d="M53.9442 1128.08 L49.0744 1128.08 Q48.1832 1122.29 44.1728 1120.5 Q38.5391 1118.34 24.1208 1118.34 L18.2962 1118.34 L18.2962 1094.25 L53.9442 1094.25 L53.9442 1100.1 L22.975 1100.1 L22.975 1112.48 L26.508 1112.48 Q40.2579 1112.48 46.4326 1115.28 Q53.0211 1118.28 53.9442 1128.08 Z" fill="#000000" fill-rule="nonzero" fill-opacity="1" /><path clip-path="url(#clip280)" d="M34.6561 1052.2 L37.5206 1052.2 L37.5206 1079.13 Q43.5681 1078.74 46.7509 1075.5 Q49.9019 1072.22 49.9019 1066.4 Q49.9019 1063.02 49.0744 1059.87 Q48.2469 1056.69 46.5918 1053.57 L52.1299 1053.57 Q53.4667 1056.72 54.167 1060.03 Q54.8672 1063.34 54.8672 1066.75 Q54.8672 1075.28 49.9019 1080.27 Q44.9367 1085.24 36.4703 1085.24 Q27.7174 1085.24 22.5931 1080.53 Q17.4368 1075.78 17.4368 1067.76 Q17.4368 1060.57 22.0838 1056.4 Q26.6989 1052.2 34.6561 1052.2 M32.9373 1058.06 Q28.1312 1058.12 25.2666 1060.76 Q22.4021 1063.37 22.4021 1067.7 Q22.4021 1072.6 25.1712 1075.56 Q27.9402 1078.49 32.9692 1078.94 L32.9373 1058.06 Z" fill="#000000" fill-rule="nonzero" fill-opacity="1" /><path clip-path="url(#clip280)" d="M18.2962 1042.81 L18.2962 1036.92 L32.8418 1036.92 L32.8418 1017.92 L18.2962 1017.92 L18.2962 1012.03 L53.9442 1012.03 L53.9442 1017.92 L37.5206 1017.92 L37.5206 1036.92 L53.9442 1036.92 L53.9442 1042.81 L18.2962 1042.81 Z" fill="#000000" fill-rule="nonzero" fill-opacity="1" /><path clip-path="url(#clip280)" d="M18.2962 969.668 L53.9442 969.668 L53.9442 975.493 L25.3303 975.493 L53.9442 992.68 L53.9442 1000.19 L18.2962 1000.19 L18.2962 994.367 L46.8464 994.367 L18.2962 977.212 L18.2962 969.668 Z" fill="#000000" fill-rule="nonzero" fill-opacity="1" /><path clip-path="url(#clip280)" d="M28.5768 951.717 Q31.2186 951.717 32.7145 949.68 Q34.2105 947.643 34.2105 943.855 L34.2105 935.962 L22.975 935.962 L22.975 943.855 Q22.975 947.643 24.4391 949.68 Q25.9032 951.717 28.5768 951.717 M53.9442 960.056 L38.3163 949.171 Q37.4888 952.863 35.3245 955.314 Q33.1283 957.764 28.5768 957.764 Q23.4206 957.764 20.8743 954.359 Q18.2962 950.921 18.2962 944.015 L18.2962 930.074 L53.9442 930.074 L53.9442 935.962 L38.8893 935.962 L38.8893 943.251 L53.9442 953.754 L53.9442 960.056 Z" fill="#000000" fill-rule="nonzero" fill-opacity="1" /><path clip-path="url(#clip280)" d="M45.8597 916.897 L45.8597 910.181 L51.3342 910.181 L61.5193 915.401 L61.5193 919.507 L51.3342 916.897 L45.8597 916.897 Z" fill="#000000" fill-rule="nonzero" fill-opacity="1" /><path clip-path="url(#clip280)" d="M19.6648 851.298 L25.1393 851.298 Q23.7707 853.781 23.1023 856.295 Q22.4021 858.778 22.4021 861.324 Q22.4021 867.021 26.0305 870.172 Q29.6272 873.323 36.152 873.323 Q42.6769 873.323 46.3053 870.172 Q49.9019 867.021 49.9019 861.324 Q49.9019 858.778 49.2335 856.295 Q48.5333 853.781 47.1647 851.298 L52.5755 851.298 Q53.7214 853.749 54.2943 856.391 Q54.8672 859 54.8672 861.961 Q54.8672 870.013 49.8064 874.756 Q44.7457 879.498 36.152 879.498 Q27.431 879.498 22.4339 874.724 Q17.4368 869.918 17.4368 861.579 Q17.4368 858.873 18.0097 856.295 Q18.5508 853.717 19.6648 851.298 Z" fill="#000000" fill-rule="nonzero" fill-opacity="1" /><path clip-path="url(#clip280)" d="M34.6561 810.621 L37.5206 810.621 L37.5206 837.548 Q43.5681 837.166 46.7509 833.92 Q49.9019 830.641 49.9019 824.817 Q49.9019 821.443 49.0744 818.292 Q48.2469 815.109 46.5918 811.99 L52.1299 811.99 Q53.4667 815.141 54.167 818.451 Q54.8672 821.761 54.8672 825.167 Q54.8672 833.697 49.9019 838.694 Q44.9367 843.659 36.4703 843.659 Q27.7174 843.659 22.5931 838.949 Q17.4368 834.206 17.4368 826.185 Q17.4368 818.992 22.0838 814.822 Q26.6989 810.621 34.6561 810.621 M32.9373 816.478 Q28.1312 816.541 25.2666 819.183 Q22.4021 821.793 22.4021 826.122 Q22.4021 831.023 25.1712 833.983 Q27.9402 836.911 32.9692 837.357 L32.9373 816.478 Z" fill="#000000" fill-rule="nonzero" fill-opacity="1" /><path clip-path="url(#clip280)" d="M18.2962 801.232 L18.2962 795.407 L35.038 795.407 L18.2962 778.888 L18.2962 771.695 L32.078 785.317 L53.9442 769.944 L53.9442 776.501 L35.961 789.137 L42.3267 795.407 L53.9442 795.407 L53.9442 801.232 L18.2962 801.232 Z" fill="#000000" fill-rule="nonzero" fill-opacity="1" /><path clip-path="url(#clip280)" d="M960.029 11.0023 Q969.994 11.0023 976.314 15.2557 Q982.633 19.4686 982.633 26.6793 Q982.633 31.7024 979.757 35.1862 Q976.881 38.6294 971.574 39.9662 Q977.448 41.222 980.729 45.1919 Q984.051 49.1618 984.051 54.9951 Q984.051 64.3122 976.84 69.0517 Q969.67 73.7508 960.029 73.7508 Q955.087 73.7508 949.335 72.414 Q943.582 71.0772 941.8 69.9429 L941.8 61.517 Q947.998 65.1223 951.401 66.0135 Q954.844 66.8642 959.867 66.8642 Q967.483 66.8642 971.696 63.9476 Q975.909 61.0309 975.909 54.9951 Q975.909 49.6479 972.141 46.6502 Q968.414 43.612 960.515 43.612 L952.251 43.612 L952.251 36.8875 L960.839 36.8875 Q968.09 36.8875 971.291 34.4975 Q974.491 32.067 974.491 27.5299 Q974.491 22.8714 971.169 20.4004 Q967.888 17.8888 959.867 17.8888 Q954.439 17.8888 952.575 18.3749 Q950.712 18.861 942.408 21.9802 L942.408 13.9999 Q946.985 12.3796 951.765 11.6909 Q956.545 11.0023 960.029 11.0023 Z" fill="#000000" fill-rule="nonzero" fill-opacity="1" /><path clip-path="url(#clip280)" d="M1017.96 49.7694 Q1008.92 49.7694 1005.44 51.8354 Q1001.96 53.9013 1001.96 58.8839 Q1001.96 62.8538 1004.55 65.2034 Q1007.18 67.5124 1011.68 67.5124 Q1017.88 67.5124 1021.6 63.1374 Q1025.37 58.7219 1025.37 51.4303 L1025.37 49.7694 L1017.96 49.7694 M1032.82 46.6907 L1032.82 72.576 L1025.37 72.576 L1025.37 65.6895 Q1022.82 69.8214 1019.01 71.8063 Q1015.2 73.7508 1009.69 73.7508 Q1002.73 73.7508 998.594 69.8619 Q994.502 65.9325 994.502 59.3701 Q994.502 51.7138 999.606 47.825 Q1004.75 43.9361 1014.92 43.9361 L1025.37 43.9361 L1025.37 43.2069 Q1025.37 38.0623 1021.97 35.2672 Q1018.61 32.4315 1012.49 32.4315 Q1008.6 32.4315 1004.91 33.3632 Q1001.23 34.295 997.824 36.1584 L997.824 29.2718 Q1001.92 27.692 1005.76 26.9223 Q1009.61 26.1121 1013.26 26.1121 Q1023.1 26.1121 1027.96 31.2163 Q1032.82 36.3204 1032.82 46.6907 Z" fill="#000000" fill-rule="nonzero" fill-opacity="1" /><path clip-path="url(#clip280)" d="M1055.35 51.6733 L1055.35 66.6212 L1065.96 66.6212 Q1071.06 66.6212 1073.74 64.7172 Q1076.41 62.7728 1076.41 59.127 Q1076.41 55.4812 1073.74 53.5773 Q1071.06 51.6733 1065.96 51.6733 L1055.35 51.6733 M1055.35 33.1607 L1055.35 45.7185 L1065.15 45.7185 Q1069.36 45.7185 1072.04 44.0576 Q1074.71 42.3563 1074.71 39.3586 Q1074.71 36.3609 1072.04 34.7811 Q1069.36 33.1607 1065.15 33.1607 L1055.35 33.1607 M1047.89 27.2059 L1065.64 27.2059 Q1073.62 27.2059 1077.91 30.1225 Q1082.2 33.0392 1082.2 38.4269 Q1082.2 42.5993 1080.02 45.0704 Q1077.83 47.5009 1073.54 48.1085 Q1078.68 49.0808 1081.52 52.1594 Q1084.35 55.2381 1084.35 59.8562 Q1084.35 65.9325 1079.65 69.2543 Q1074.99 72.576 1066.32 72.576 L1047.89 72.576 L1047.89 27.2059 Z" fill="#000000" fill-rule="nonzero" fill-opacity="1" /><path clip-path="url(#clip280)" d="M1135.64 27.2059 L1135.64 72.576 L1128.22 72.576 L1128.22 36.1584 L1106.35 72.576 L1096.79 72.576 L1096.79 27.2059 L1104.2 27.2059 L1104.2 63.5425 L1126.04 27.2059 L1135.64 27.2059 Z" fill="#000000" fill-rule="nonzero" fill-opacity="1" /><path clip-path="url(#clip280)" d="M1183.64 28.9478 L1183.64 35.9153 Q1180.48 34.1734 1177.28 33.3227 Q1174.12 32.4315 1170.88 32.4315 Q1163.63 32.4315 1159.62 37.0496 Q1155.61 41.6271 1155.61 49.9314 Q1155.61 58.2358 1159.62 62.8538 Q1163.63 67.4314 1170.88 67.4314 Q1174.12 67.4314 1177.28 66.5807 Q1180.48 65.6895 1183.64 63.9476 L1183.64 70.8341 Q1180.52 72.2924 1177.16 73.0216 Q1173.84 73.7508 1170.07 73.7508 Q1159.82 73.7508 1153.78 67.3098 Q1147.75 60.8689 1147.75 49.9314 Q1147.75 38.832 1153.82 32.472 Q1159.94 26.1121 1170.55 26.1121 Q1174 26.1121 1177.28 26.8413 Q1180.56 27.5299 1183.64 28.9478 Z" fill="#000000" fill-rule="nonzero" fill-opacity="1" /><path clip-path="url(#clip280)" d="M1235.17 27.2059 L1235.17 72.576 L1227.75 72.576 L1227.75 36.1584 L1205.88 72.576 L1196.32 72.576 L1196.32 27.2059 L1203.73 27.2059 L1203.73 63.5425 L1225.57 27.2059 L1235.17 27.2059 Z" fill="#000000" fill-rule="nonzero" fill-opacity="1" /><path clip-path="url(#clip280)" d="M1250.24 27.2059 L1261.13 27.2059 L1274.01 57.5877 L1286.94 27.2059 L1297.75 27.2059 L1297.75 72.576 L1290.26 72.576 L1290.26 34.3355 L1277.74 63.8666 L1270.29 63.8666 L1257.73 34.3355 L1257.73 72.576 L1250.24 72.576 L1250.24 27.2059 Z" fill="#000000" fill-rule="nonzero" fill-opacity="1" /><path clip-path="url(#clip280)" d="M1330.69 32.4315 Q1324.69 32.4315 1321.21 37.1306 Q1317.72 41.7891 1317.72 49.9314 Q1317.72 58.0738 1321.17 62.7728 Q1324.65 67.4314 1330.69 67.4314 Q1336.64 67.4314 1340.13 62.7323 Q1343.61 58.0333 1343.61 49.9314 Q1343.61 41.8701 1340.13 37.1711 Q1336.64 32.4315 1330.69 32.4315 M1330.69 26.1121 Q1340.41 26.1121 1345.96 32.4315 Q1351.51 38.7509 1351.51 49.9314 Q1351.51 61.0714 1345.96 67.4314 Q1340.41 73.7508 1330.69 73.7508 Q1320.92 73.7508 1315.37 67.4314 Q1309.87 61.0714 1309.87 49.9314 Q1309.87 38.7509 1315.37 32.4315 Q1320.92 26.1121 1330.69 26.1121 Z" fill="#000000" fill-rule="nonzero" fill-opacity="1" /><path clip-path="url(#clip280)" d="M1396.51 28.9478 L1396.51 35.9153 Q1393.35 34.1734 1390.15 33.3227 Q1386.99 32.4315 1383.75 32.4315 Q1376.5 32.4315 1372.49 37.0496 Q1368.48 41.6271 1368.48 49.9314 Q1368.48 58.2358 1372.49 62.8538 Q1376.5 67.4314 1383.75 67.4314 Q1386.99 67.4314 1390.15 66.5807 Q1393.35 65.6895 1396.51 63.9476 L1396.51 70.8341 Q1393.39 72.2924 1390.03 73.0216 Q1386.71 73.7508 1382.94 73.7508 Q1372.69 73.7508 1366.66 67.3098 Q1360.62 60.8689 1360.62 49.9314 Q1360.62 38.832 1366.7 32.472 Q1372.82 26.1121 1383.43 26.1121 Q1386.87 26.1121 1390.15 26.8413 Q1393.44 27.5299 1396.51 28.9478 Z" fill="#000000" fill-rule="nonzero" fill-opacity="1" /><path clip-path="url(#clip280)" d="M1404.09 27.2059 L1447.56 27.2059 L1447.56 33.1607 L1429.49 33.1607 L1429.49 72.576 L1422.16 72.576 L1422.16 33.1607 L1404.09 33.1607 L1404.09 27.2059 Z" fill="#000000" fill-rule="nonzero" fill-opacity="1" /><path clip-path="url(#clip280)" d="M1486.04 59.127 Q1486.04 55.4812 1483.37 53.5773 Q1480.73 51.6733 1475.63 51.6733 L1465.01 51.6733 L1465.01 66.6212 L1475.63 66.6212 Q1480.73 66.6212 1483.37 64.7172 Q1486.04 62.7728 1486.04 59.127 M1457.52 27.2059 L1465.01 27.2059 L1465.01 45.7185 L1475.95 45.7185 Q1484.62 45.7185 1489.28 49.0402 Q1493.98 52.3215 1493.98 59.127 Q1493.98 65.9325 1489.28 69.2543 Q1484.62 72.576 1475.95 72.576 L1457.52 72.576 L1457.52 27.2059 Z" fill="#000000" fill-rule="nonzero" fill-opacity="1" /><path clip-path="url(#clip280)" d="M1540.24 51.6733 L1540.24 66.6212 L1550.85 66.6212 Q1555.96 66.6212 1558.63 64.7172 Q1561.3 62.7728 1561.3 59.127 Q1561.3 55.4812 1558.63 53.5773 Q1555.96 51.6733 1550.85 51.6733 L1540.24 51.6733 M1540.24 33.1607 L1540.24 45.7185 L1550.04 45.7185 Q1554.26 45.7185 1556.93 44.0576 Q1559.6 42.3563 1559.6 39.3586 Q1559.6 36.3609 1556.93 34.7811 Q1554.26 33.1607 1550.04 33.1607 L1540.24 33.1607 M1532.79 27.2059 L1550.53 27.2059 Q1558.51 27.2059 1562.8 30.1225 Q1567.1 33.0392 1567.1 38.4269 Q1567.1 42.5993 1564.91 45.0704 Q1562.72 47.5009 1558.43 48.1085 Q1563.57 49.0808 1566.41 52.1594 Q1569.24 55.2381 1569.24 59.8562 Q1569.24 65.9325 1564.55 69.2543 Q1559.89 72.576 1551.22 72.576 L1532.79 72.576 L1532.79 27.2059 Z" fill="#000000" fill-rule="nonzero" fill-opacity="1" /><path clip-path="url(#clip280)" d="M1589.18 65.7705 L1589.18 89.8329 L1581.68 89.8329 L1581.68 27.2059 L1589.18 27.2059 L1589.18 34.0924 Q1591.52 30.0415 1595.09 28.0971 Q1598.69 26.1121 1603.68 26.1121 Q1611.94 26.1121 1617.09 32.6746 Q1622.27 39.2371 1622.27 49.9314 Q1622.27 60.6258 1617.09 67.1883 Q1611.94 73.7508 1603.68 73.7508 Q1598.69 73.7508 1595.09 71.8063 Q1591.52 69.8214 1589.18 65.7705 M1614.53 49.9314 Q1614.53 41.7081 1611.13 37.0496 Q1607.77 32.3505 1601.85 32.3505 Q1595.94 32.3505 1592.54 37.0496 Q1589.18 41.7081 1589.18 49.9314 Q1589.18 58.1548 1592.54 62.8538 Q1595.94 67.5124 1601.85 67.5124 Q1607.77 67.5124 1611.13 62.8538 Q1614.53 58.1548 1614.53 49.9314 Z" fill="#000000" fill-rule="nonzero" fill-opacity="1" /><path clip-path="url(#clip280)" d="M1673.43 48.0275 L1673.43 51.6733 L1639.16 51.6733 Q1639.65 59.3701 1643.78 63.421 Q1647.95 67.4314 1655.37 67.4314 Q1659.66 67.4314 1663.67 66.3781 Q1667.72 65.3249 1671.69 63.2184 L1671.69 70.267 Q1667.68 71.9684 1663.47 72.8596 Q1659.26 73.7508 1654.92 73.7508 Q1644.06 73.7508 1637.7 67.4314 Q1631.39 61.1119 1631.39 50.3365 Q1631.39 39.1965 1637.38 32.6746 Q1643.42 26.1121 1653.62 26.1121 Q1662.78 26.1121 1668.09 32.0264 Q1673.43 37.9003 1673.43 48.0275 M1665.98 45.84 Q1665.9 39.7232 1662.54 36.0774 Q1659.22 32.4315 1653.71 32.4315 Q1647.47 32.4315 1643.7 35.9558 Q1639.97 39.4801 1639.41 45.8805 L1665.98 45.84 Z" fill="#000000" fill-rule="nonzero" fill-opacity="1" /><path clip-path="url(#clip280)" d="M1685.38 27.2059 L1696.28 27.2059 L1709.16 57.5877 L1722.09 27.2059 L1732.9 27.2059 L1732.9 72.576 L1725.41 72.576 L1725.41 34.3355 L1712.89 63.8666 L1705.44 63.8666 L1692.88 34.3355 L1692.88 72.576 L1685.38 72.576 L1685.38 27.2059 Z" fill="#000000" fill-rule="nonzero" fill-opacity="1" /><path clip-path="url(#clip280)" d="M1787.06 48.0275 L1787.06 51.6733 L1752.79 51.6733 Q1753.28 59.3701 1757.41 63.421 Q1761.58 67.4314 1768.99 67.4314 Q1773.29 67.4314 1777.3 66.3781 Q1781.35 65.3249 1785.32 63.2184 L1785.32 70.267 Q1781.31 71.9684 1777.1 72.8596 Q1772.88 73.7508 1768.55 73.7508 Q1757.69 73.7508 1751.33 67.4314 Q1745.01 61.1119 1745.01 50.3365 Q1745.01 39.1965 1751.01 32.6746 Q1757.04 26.1121 1767.25 26.1121 Q1776.41 26.1121 1781.71 32.0264 Q1787.06 37.9003 1787.06 48.0275 M1779.61 45.84 Q1779.53 39.7232 1776.16 36.0774 Q1772.84 32.4315 1767.33 32.4315 Q1761.1 32.4315 1757.33 35.9558 Q1753.6 39.4801 1753.03 45.8805 L1779.61 45.84 Z" fill="#000000" fill-rule="nonzero" fill-opacity="1" /><path clip-path="url(#clip280)" d="M1799.01 27.2059 L1806.51 27.2059 L1806.51 45.7185 L1830.69 45.7185 L1830.69 27.2059 L1838.18 27.2059 L1838.18 72.576 L1830.69 72.576 L1830.69 51.6733 L1806.51 51.6733 L1806.51 72.576 L1799.01 72.576 L1799.01 27.2059 Z" fill="#000000" fill-rule="nonzero" fill-opacity="1" /><path clip-path="url(#clip280)" d="M1892.1 27.2059 L1892.1 72.576 L1884.69 72.576 L1884.69 36.1584 L1862.81 72.576 L1853.25 72.576 L1853.25 27.2059 L1860.67 27.2059 L1860.67 63.5425 L1882.5 27.2059 L1892.1 27.2059 Z" fill="#000000" fill-rule="nonzero" fill-opacity="1" /><path clip-path="url(#clip280)" d="M1941 51.6733 L1941 66.6212 L1951.61 66.6212 Q1956.71 66.6212 1959.39 64.7172 Q1962.06 62.7728 1962.06 59.127 Q1962.06 55.4812 1959.39 53.5773 Q1956.71 51.6733 1951.61 51.6733 L1941 51.6733 M1941 33.1607 L1941 45.7185 L1950.8 45.7185 Q1955.01 45.7185 1957.69 44.0576 Q1960.36 42.3563 1960.36 39.3586 Q1960.36 36.3609 1957.69 34.7811 Q1955.01 33.1607 1950.8 33.1607 L1941 33.1607 M1933.54 27.2059 L1951.29 27.2059 Q1959.27 27.2059 1963.56 30.1225 Q1967.85 33.0392 1967.85 38.4269 Q1967.85 42.5993 1965.67 45.0704 Q1963.48 47.5009 1959.18 48.1085 Q1964.33 49.0808 1967.16 52.1594 Q1970 55.2381 1970 59.8562 Q1970 65.9325 1965.3 69.2543 Q1960.64 72.576 1951.97 72.576 L1933.54 72.576 L1933.54 27.2059 Z" fill="#000000" fill-rule="nonzero" fill-opacity="1" /><path clip-path="url(#clip280)" d="M2025.58 27.2059 L2033.03 27.2059 L2033.03 72.576 L2025.58 72.576 L2025.58 27.2059 M2029.31 26.1121 L2029.31 26.1121 M2010.96 59.127 Q2010.96 55.4812 2008.28 53.5773 Q2005.65 51.6733 2000.54 51.6733 L1989.93 51.6733 L1989.93 66.6212 L2000.54 66.6212 Q2005.65 66.6212 2008.28 64.7172 Q2010.96 62.7728 2010.96 59.127 M1982.44 27.2059 L1989.93 27.2059 L1989.93 45.7185 L2000.87 45.7185 Q2009.54 45.7185 2014.2 49.0402 Q2018.89 52.3215 2018.89 59.127 Q2018.89 65.9325 2014.2 69.2543 Q2009.54 72.576 2000.87 72.576 L1982.44 72.576 L1982.44 27.2059 Z" fill="#000000" fill-rule="nonzero" fill-opacity="1" /><path clip-path="url(#clip280)" d="M2074.43 72.576 L2074.43 53.4962 L2060.54 53.4962 Q2054.34 53.4962 2050.21 49.6479 Q2046.48 46.1641 2046.48 38.7104 L2046.48 27.2059 L2053.94 27.2059 L2053.94 38.0218 Q2053.94 42.7613 2056.04 45.1514 Q2058.19 47.5414 2062.4 47.5414 L2074.43 47.5414 L2074.43 27.2059 L2081.89 27.2059 L2081.89 72.576 L2074.43 72.576 Z" fill="#000000" fill-rule="nonzero" fill-opacity="1" /><path clip-path="url(#clip280)" d="M2135.8 27.2059 L2135.8 72.576 L2128.39 72.576 L2128.39 36.1584 L2106.52 72.576 L2096.96 72.576 L2096.96 27.2059 L2104.37 27.2059 L2104.37 63.5425 L2126.2 27.2059 L2135.8 27.2059 Z" fill="#000000" fill-rule="nonzero" fill-opacity="1" /><path clip-path="url(#clip280)" d="M2183.81 28.9478 L2183.81 35.9153 Q2180.65 34.1734 2177.45 33.3227 Q2174.29 32.4315 2171.05 32.4315 Q2163.8 32.4315 2159.79 37.0496 Q2155.77 41.6271 2155.77 49.9314 Q2155.77 58.2358 2159.79 62.8538 Q2163.8 67.4314 2171.05 67.4314 Q2174.29 67.4314 2177.45 66.5807 Q2180.65 65.6895 2183.81 63.9476 L2183.81 70.8341 Q2180.69 72.2924 2177.33 73.0216 Q2174 73.7508 2170.24 73.7508 Q2159.99 73.7508 2153.95 67.3098 Q2147.92 60.8689 2147.92 49.9314 Q2147.92 38.832 2153.99 32.472 Q2160.11 26.1121 2170.72 26.1121 Q2174.17 26.1121 2177.45 26.8413 Q2180.73 27.5299 2183.81 28.9478 Z" fill="#000000" fill-rule="nonzero" fill-opacity="1" /><path clip-path="url(#clip280)" d="M2192.03 72.576 L2192.03 66.3781 Q2199.4 65.2439 2201.67 60.1397 Q2204.43 52.9696 2204.43 34.619 L2204.43 27.2059 L2235.09 27.2059 L2235.09 72.576 L2227.64 72.576 L2227.64 33.1607 L2211.88 33.1607 L2211.88 37.6572 Q2211.88 55.1571 2208.32 63.0159 Q2204.51 71.4012 2192.03 72.576 Z" fill="#000000" fill-rule="nonzero" fill-opacity="1" /><path clip-path="url(#clip280)" d="M2288.6 48.0275 L2288.6 51.6733 L2254.33 51.6733 Q2254.82 59.3701 2258.95 63.421 Q2263.12 67.4314 2270.54 67.4314 Q2274.83 67.4314 2278.84 66.3781 Q2282.89 65.3249 2286.86 63.2184 L2286.86 70.267 Q2282.85 71.9684 2278.64 72.8596 Q2274.43 73.7508 2270.09 73.7508 Q2259.24 73.7508 2252.88 67.4314 Q2246.56 61.1119 2246.56 50.3365 Q2246.56 39.1965 2252.55 32.6746 Q2258.59 26.1121 2268.8 26.1121 Q2277.95 26.1121 2283.26 32.0264 Q2288.6 37.9003 2288.6 48.0275 M2281.15 45.84 Q2281.07 39.7232 2277.71 36.0774 Q2274.39 32.4315 2268.88 32.4315 Q2262.64 32.4315 2258.87 35.9558 Q2255.14 39.4801 2254.58 45.8805 L2281.15 45.84 Z" fill="#000000" fill-rule="nonzero" fill-opacity="1" /><path clip-path="url(#clip280)" d="M2300.55 27.2059 L2308.05 27.2059 L2308.05 45.7185 L2332.23 45.7185 L2332.23 27.2059 L2339.73 27.2059 L2339.73 72.576 L2332.23 72.576 L2332.23 51.6733 L2308.05 51.6733 L2308.05 72.576 L2300.55 72.576 L2300.55 27.2059 Z" fill="#000000" fill-rule="nonzero" fill-opacity="1" /><path clip-path="url(#clip280)" d="M2393.64 27.2059 L2393.64 72.576 L2386.23 72.576 L2386.23 36.1584 L2364.36 72.576 L2354.8 72.576 L2354.8 27.2059 L2362.21 27.2059 L2362.21 63.5425 L2384.04 27.2059 L2393.64 27.2059 Z" fill="#000000" fill-rule="nonzero" fill-opacity="1" /><path clip-path="url(#clip280)" d="M2416.49 40.2903 Q2416.49 43.6525 2419.08 45.5565 Q2421.68 47.4604 2426.5 47.4604 L2436.54 47.4604 L2436.54 33.1607 L2426.5 33.1607 Q2421.68 33.1607 2419.08 35.0241 Q2416.49 36.8875 2416.49 40.2903 M2405.88 72.576 L2419.73 52.6861 Q2415.03 51.6328 2411.91 48.8782 Q2408.79 46.0831 2408.79 40.2903 Q2408.79 33.7278 2413.13 30.4871 Q2417.5 27.2059 2426.29 27.2059 L2444.04 27.2059 L2444.04 72.576 L2436.54 72.576 L2436.54 53.4152 L2427.27 53.4152 L2413.9 72.576 L2405.88 72.576 Z" fill="#000000" fill-rule="nonzero" fill-opacity="1" /><path clip-path="url(#clip280)" d="M2502.86 32.4315 Q2496.86 32.4315 2493.38 37.1306 Q2489.89 41.7891 2489.89 49.9314 Q2489.89 58.0738 2493.34 62.7728 Q2496.82 67.4314 2502.86 67.4314 Q2508.81 67.4314 2512.3 62.7323 Q2515.78 58.0333 2515.78 49.9314 Q2515.78 41.8701 2512.3 37.1711 Q2508.81 32.4315 2502.86 32.4315 M2502.86 26.1121 Q2512.58 26.1121 2518.13 32.4315 Q2523.68 38.7509 2523.68 49.9314 Q2523.68 61.0714 2518.13 67.4314 Q2512.58 73.7508 2502.86 73.7508 Q2493.09 73.7508 2487.54 67.4314 Q2482.03 61.0714 2482.03 49.9314 Q2482.03 38.7509 2487.54 32.4315 Q2493.09 26.1121 2502.86 26.1121 Z" fill="#000000" fill-rule="nonzero" fill-opacity="1" /><path clip-path="url(#clip280)" d="M2530.65 27.2059 L2574.11 27.2059 L2574.11 33.1607 L2556.04 33.1607 L2556.04 72.576 L2548.71 72.576 L2548.71 33.1607 L2530.65 33.1607 L2530.65 27.2059 Z" fill="#000000" fill-rule="nonzero" fill-opacity="1" /><path clip-path="url(#clip280)" d="M2637.18 51.4708 L2635.4 42.1132 Q2633.58 32.5126 2626.37 32.5126 Q2620.94 32.5126 2618.47 36.9686 Q2615.35 42.5588 2615.35 49.9314 Q2615.35 58.8434 2618.39 63.0969 Q2621.47 67.4314 2626.37 67.4314 Q2631.8 67.4314 2634.71 58.8029 L2637.18 51.4708 M2641.36 39.075 L2645.37 27.2059 L2652.01 27.2059 L2643.71 51.7949 L2645.33 60.6663 Q2645.69 62.6513 2647.11 64.3122 Q2648.77 66.2566 2650.07 66.2566 L2653.63 66.2566 L2653.63 72.576 L2649.18 72.576 Q2645.37 72.576 2641.96 69.1732 Q2640.3 67.4719 2639.61 63.9071 Q2637.75 68.4036 2633.94 71.9279 Q2632.16 73.5887 2626.37 73.5887 Q2616.85 73.5887 2612.23 67.4314 Q2607.49 61.0714 2607.49 49.9314 Q2607.49 38.0218 2612.64 32.4315 Q2618.35 26.1931 2626.37 26.1931 Q2638.97 26.1931 2641.36 39.075 Z" fill="#000000" fill-rule="nonzero" fill-opacity="1" /><circle clip-path="url(#clip282)" cx="519.376" cy="2146.22" r="28.8" fill="#008000" fill-rule="evenodd" fill-opacity="1" stroke="#000000" stroke-opacity="1" stroke-width="4.8"/>
<circle clip-path="url(#clip282)" cx="1087.53" cy="1885.36" r="28.8" fill="#008000" fill-rule="evenodd" fill-opacity="1" stroke="#000000" stroke-opacity="1" stroke-width="4.8"/>
<circle clip-path="url(#clip282)" cx="1655.68" cy="1102.76" r="28.8" fill="#008000" fill-rule="evenodd" fill-opacity="1" stroke="#000000" stroke-opacity="1" stroke-width="4.8"/>
<circle clip-path="url(#clip282)" cx="2507.9" cy="581.027" r="28.8" fill="#008000" fill-rule="evenodd" fill-opacity="1" stroke="#000000" stroke-opacity="1" stroke-width="4.8"/>
<circle clip-path="url(#clip282)" cx="3076.06" cy="189.727" r="28.8" fill="#008000" fill-rule="evenodd" fill-opacity="1" stroke="#000000" stroke-opacity="1" stroke-width="4.8"/>
<path clip-path="url(#clip280)" d="M533.011 303.842 L1266.52 303.842 L1266.52 200.162 L533.011 200.162  Z" fill="#ffffff" fill-rule="evenodd" fill-opacity="1"/>
<polyline clip-path="url(#clip280)" style="stroke:#000000; stroke-linecap:round; stroke-linejoin:round; stroke-width:4; stroke-opacity:1; fill:none" points="533.011,303.842 1266.52,303.842 1266.52,200.162 533.011,200.162 533.011,303.842 "/>
<circle clip-path="url(#clip280)" cx="653.459" cy="252.002" r="21.6847" fill="#008000" fill-rule="evenodd" fill-opacity="1" stroke="#000000" stroke-opacity="1" stroke-width="3.61412"/>
<path clip-path="url(#clip280)" d="M778.583 252.777 L778.583 265.439 L786.083 265.439 Q789.856 265.439 791.662 263.888 Q793.491 262.314 793.491 259.097 Q793.491 255.856 791.662 254.328 Q789.856 252.777 786.083 252.777 L778.583 252.777 M778.583 238.564 L778.583 248.981 L785.504 248.981 Q788.93 248.981 790.597 247.708 Q792.287 246.411 792.287 243.773 Q792.287 241.157 790.597 239.861 Q788.93 238.564 785.504 238.564 L778.583 238.564 M773.907 234.722 L785.852 234.722 Q791.199 234.722 794.092 236.944 Q796.986 239.166 796.986 243.263 Q796.986 246.435 795.504 248.31 Q794.023 250.185 791.153 250.648 Q794.602 251.388 796.5 253.749 Q798.421 256.087 798.421 259.606 Q798.421 264.235 795.273 266.759 Q792.125 269.282 786.315 269.282 L773.907 269.282 L773.907 234.722 Z" fill="#000000" fill-rule="nonzero" fill-opacity="1" /><path clip-path="url(#clip280)" d="M810.365 265.393 L810.365 279.143 L806.083 279.143 L806.083 243.356 L810.365 243.356 L810.365 247.291 Q811.708 244.976 813.745 243.865 Q815.805 242.731 818.652 242.731 Q823.375 242.731 826.314 246.481 Q829.277 250.231 829.277 256.342 Q829.277 262.453 826.314 266.203 Q823.375 269.953 818.652 269.953 Q815.805 269.953 813.745 268.842 Q811.708 267.708 810.365 265.393 M824.856 256.342 Q824.856 251.643 822.912 248.981 Q820.99 246.296 817.611 246.296 Q814.231 246.296 812.287 248.981 Q810.365 251.643 810.365 256.342 Q810.365 261.041 812.287 263.726 Q814.231 266.388 817.611 266.388 Q820.99 266.388 822.912 263.726 Q824.856 261.041 824.856 256.342 Z" fill="#000000" fill-rule="nonzero" fill-opacity="1" /><path clip-path="url(#clip280)" d="M858.513 255.254 L858.513 257.337 L838.93 257.337 Q839.208 261.735 841.569 264.05 Q843.953 266.342 848.189 266.342 Q850.643 266.342 852.935 265.74 Q855.249 265.138 857.518 263.935 L857.518 267.962 Q855.226 268.934 852.819 269.444 Q850.412 269.953 847.935 269.953 Q841.731 269.953 838.097 266.342 Q834.486 262.731 834.486 256.573 Q834.486 250.208 837.912 246.481 Q841.361 242.731 847.194 242.731 Q852.425 242.731 855.458 246.111 Q858.513 249.467 858.513 255.254 M854.254 254.004 Q854.208 250.509 852.287 248.425 Q850.388 246.342 847.24 246.342 Q843.675 246.342 841.523 248.356 Q839.393 250.37 839.069 254.027 L854.254 254.004 Z" fill="#000000" fill-rule="nonzero" fill-opacity="1" /><path clip-path="url(#clip280)" d="M865.342 243.356 L871.569 243.356 L878.93 260.717 L886.314 243.356 L892.495 243.356 L892.495 269.282 L888.212 269.282 L888.212 247.43 L881.06 264.305 L876.8 264.305 L869.624 247.43 L869.624 269.282 L865.342 269.282 L865.342 243.356 Z" fill="#000000" fill-rule="nonzero" fill-opacity="1" /><path clip-path="url(#clip280)" d="M905.55 250.833 Q905.55 252.754 907.032 253.842 Q908.513 254.93 911.268 254.93 L917.008 254.93 L917.008 246.759 L911.268 246.759 Q908.513 246.759 907.032 247.823 Q905.55 248.888 905.55 250.833 M899.485 269.282 L907.402 257.916 Q904.717 257.314 902.934 255.74 Q901.152 254.143 901.152 250.833 Q901.152 247.083 903.629 245.231 Q906.129 243.356 911.152 243.356 L921.291 243.356 L921.291 269.282 L917.008 269.282 L917.008 258.333 L911.707 258.333 L904.069 269.282 L899.485 269.282 Z" fill="#000000" fill-rule="nonzero" fill-opacity="1" /><path clip-path="url(#clip280)" d="M948.953 257.337 L948.953 265.879 L955.017 265.879 Q957.934 265.879 959.462 264.791 Q960.99 263.68 960.99 261.597 Q960.99 259.513 959.462 258.425 Q957.934 257.337 955.017 257.337 L948.953 257.337 M948.953 246.759 L948.953 253.935 L954.554 253.935 Q956.962 253.935 958.49 252.986 Q960.017 252.013 960.017 250.3 Q960.017 248.587 958.49 247.685 Q956.962 246.759 954.554 246.759 L948.953 246.759 M944.693 243.356 L954.832 243.356 Q959.392 243.356 961.846 245.023 Q964.3 246.689 964.3 249.768 Q964.3 252.152 963.05 253.564 Q961.8 254.953 959.346 255.3 Q962.286 255.856 963.906 257.615 Q965.527 259.374 965.527 262.013 Q965.527 265.485 962.841 267.384 Q960.179 269.282 955.226 269.282 L944.693 269.282 L944.693 243.356 Z" fill="#000000" fill-rule="nonzero" fill-opacity="1" /><path clip-path="url(#clip280)" d="M997.286 243.356 L1001.54 243.356 L1001.54 269.282 L997.286 269.282 L997.286 243.356 M999.415 242.731 L999.415 242.731 M988.929 261.597 Q988.929 259.513 987.402 258.425 Q985.897 257.337 982.98 257.337 L976.915 257.337 L976.915 265.879 L982.98 265.879 Q985.897 265.879 987.402 264.791 Q988.929 263.68 988.929 261.597 M972.633 243.356 L976.915 243.356 L976.915 253.935 L983.165 253.935 Q988.119 253.935 990.781 255.833 Q993.466 257.708 993.466 261.597 Q993.466 265.485 990.781 267.384 Q988.119 269.282 983.165 269.282 L972.633 269.282 L972.633 243.356 Z" fill="#000000" fill-rule="nonzero" fill-opacity="1" /><path clip-path="url(#clip280)" d="M1025.2 269.282 L1025.2 258.379 L1017.26 258.379 Q1013.72 258.379 1011.36 256.18 Q1009.23 254.189 1009.23 249.93 L1009.23 243.356 L1013.49 243.356 L1013.49 249.536 Q1013.49 252.245 1014.69 253.611 Q1015.92 254.976 1018.33 254.976 L1025.2 254.976 L1025.2 243.356 L1029.46 243.356 L1029.46 269.282 L1025.2 269.282 Z" fill="#000000" fill-rule="nonzero" fill-opacity="1" /><path clip-path="url(#clip280)" d="M1060.27 243.356 L1060.27 269.282 L1056.04 269.282 L1056.04 248.472 L1043.54 269.282 L1038.07 269.282 L1038.07 243.356 L1042.31 243.356 L1042.31 264.12 L1054.79 243.356 L1060.27 243.356 Z" fill="#000000" fill-rule="nonzero" fill-opacity="1" /><path clip-path="url(#clip280)" d="M1087.7 244.351 L1087.7 248.333 Q1085.9 247.337 1084.07 246.851 Q1082.26 246.342 1080.41 246.342 Q1076.27 246.342 1073.98 248.981 Q1071.68 251.597 1071.68 256.342 Q1071.68 261.087 1073.98 263.726 Q1076.27 266.342 1080.41 266.342 Q1082.26 266.342 1084.07 265.856 Q1085.9 265.347 1087.7 264.351 L1087.7 268.286 Q1085.92 269.12 1084 269.536 Q1082.1 269.953 1079.95 269.953 Q1074.09 269.953 1070.64 266.272 Q1067.19 262.592 1067.19 256.342 Q1067.19 249.999 1070.66 246.365 Q1074.16 242.731 1080.23 242.731 Q1082.19 242.731 1084.07 243.148 Q1085.94 243.541 1087.7 244.351 Z" fill="#000000" fill-rule="nonzero" fill-opacity="1" /><path clip-path="url(#clip280)" d="M1092.4 269.282 L1092.4 265.74 Q1096.61 265.092 1097.91 262.175 Q1099.48 258.078 1099.48 247.592 L1099.48 243.356 L1117.01 243.356 L1117.01 269.282 L1112.75 269.282 L1112.75 246.759 L1103.74 246.759 L1103.74 249.328 Q1103.74 259.328 1101.71 263.819 Q1099.53 268.61 1092.4 269.282 Z" fill="#000000" fill-rule="nonzero" fill-opacity="1" /><path clip-path="url(#clip280)" d="M1147.59 255.254 L1147.59 257.337 L1128 257.337 Q1128.28 261.735 1130.64 264.05 Q1133.03 266.342 1137.26 266.342 Q1139.72 266.342 1142.01 265.74 Q1144.32 265.138 1146.59 263.935 L1146.59 267.962 Q1144.3 268.934 1141.89 269.444 Q1139.48 269.953 1137.01 269.953 Q1130.8 269.953 1127.17 266.342 Q1123.56 262.731 1123.56 256.573 Q1123.56 250.208 1126.98 246.481 Q1130.43 242.731 1136.27 242.731 Q1141.5 242.731 1144.53 246.111 Q1147.59 249.467 1147.59 255.254 M1143.33 254.004 Q1143.28 250.509 1141.36 248.425 Q1139.46 246.342 1136.31 246.342 Q1132.75 246.342 1130.6 248.356 Q1128.47 250.37 1128.14 254.027 L1143.33 254.004 Z" fill="#000000" fill-rule="nonzero" fill-opacity="1" /><path clip-path="url(#clip280)" d="M1154.41 243.356 L1158.7 243.356 L1158.7 253.935 L1172.52 253.935 L1172.52 243.356 L1176.8 243.356 L1176.8 269.282 L1172.52 269.282 L1172.52 257.337 L1158.7 257.337 L1158.7 269.282 L1154.41 269.282 L1154.41 243.356 Z" fill="#000000" fill-rule="nonzero" fill-opacity="1" /><path clip-path="url(#clip280)" d="M1207.61 243.356 L1207.61 269.282 L1203.37 269.282 L1203.37 248.472 L1190.87 269.282 L1185.41 269.282 L1185.41 243.356 L1189.65 243.356 L1189.65 264.12 L1202.12 243.356 L1207.61 243.356 Z" fill="#000000" fill-rule="nonzero" fill-opacity="1" /><path clip-path="url(#clip280)" d="M1220.66 250.833 Q1220.66 252.754 1222.15 253.842 Q1223.63 254.93 1226.38 254.93 L1232.12 254.93 L1232.12 246.759 L1226.38 246.759 Q1223.63 246.759 1222.15 247.823 Q1220.66 248.888 1220.66 250.833 M1214.6 269.282 L1222.52 257.916 Q1219.83 257.314 1218.05 255.74 Q1216.27 254.143 1216.27 250.833 Q1216.27 247.083 1218.74 245.231 Q1221.24 243.356 1226.27 243.356 L1236.4 243.356 L1236.4 269.282 L1232.12 269.282 L1232.12 258.333 L1226.82 258.333 L1219.18 269.282 L1214.6 269.282 Z" fill="#000000" fill-rule="nonzero" fill-opacity="1" /></svg>
