<?xml version="1.0" encoding="utf-8"?>
<svg xmlns="http://www.w3.org/2000/svg" xmlns:xlink="http://www.w3.org/1999/xlink" width="480" height="384" viewBox="0 0 1920 1536">
<defs>
  <clipPath id="clip820">
    <rect x="0" y="0" width="1920" height="1536"/>
  </clipPath>
</defs>
<path clip-path="url(#clip820)" d="M0 1536 L1920 1536 L1920 0 L0 0  Z" fill="#ffffff" fill-rule="evenodd" fill-opacity="1"/>
<defs>
  <clipPath id="clip821">
    <rect x="208" y="135" width="1665" height="1209"/>
  </clipPath>
</defs>
<path clip-path="url(#clip820)" d="M253.899 1343.4 L1872.76 1343.4 L1872.76 47.2441 L253.899 47.2441  Z" fill="#ffffff" fill-rule="evenodd" fill-opacity="1"/>
<defs>
  <clipPath id="clip822">
    <rect x="253" y="47" width="1620" height="1297"/>
  </clipPath>
</defs>
<polyline clip-path="url(#clip822)" style="stroke:#000000; stroke-linecap:round; stroke-linejoin:round; stroke-width:2; stroke-opacity:0.1; fill:none" points="629.445,1343.4 629.445,47.2441 "/>
<polyline clip-path="url(#clip822)" style="stroke:#000000; stroke-linecap:round; stroke-linejoin:round; stroke-width:2; stroke-opacity:0.1; fill:none" points="1021.25,1343.4 1021.25,47.2441 "/>
<polyline clip-path="url(#clip822)" style="stroke:#000000; stroke-linecap:round; stroke-linejoin:round; stroke-width:2; stroke-opacity:0.1; fill:none" points="1413.05,1343.4 1413.05,47.2441 "/>
<polyline clip-path="url(#clip822)" style="stroke:#000000; stroke-linecap:round; stroke-linejoin:round; stroke-width:2; stroke-opacity:0.1; fill:none" points="1804.85,1343.4 1804.85,47.2441 "/>
<polyline clip-path="url(#clip822)" style="stroke:#000000; stroke-linecap:round; stroke-linejoin:round; stroke-width:2; stroke-opacity:0.1; fill:none" points="253.899,1155.08 1872.76,1155.08 "/>
<polyline clip-path="url(#clip822)" style="stroke:#000000; stroke-linecap:round; stroke-linejoin:round; stroke-width:2; stroke-opacity:0.1; fill:none" points="253.899,959.176 1872.76,959.176 "/>
<polyline clip-path="url(#clip822)" style="stroke:#000000; stroke-linecap:round; stroke-linejoin:round; stroke-width:2; stroke-opacity:0.1; fill:none" points="253.899,763.275 1872.76,763.275 "/>
<polyline clip-path="url(#clip822)" style="stroke:#000000; stroke-linecap:round; stroke-linejoin:round; stroke-width:2; stroke-opacity:0.1; fill:none" points="253.899,567.374 1872.76,567.374 "/>
<polyline clip-path="url(#clip822)" style="stroke:#000000; stroke-linecap:round; stroke-linejoin:round; stroke-width:2; stroke-opacity:0.1; fill:none" points="253.899,371.473 1872.76,371.473 "/>
<polyline clip-path="url(#clip822)" style="stroke:#000000; stroke-linecap:round; stroke-linejoin:round; stroke-width:2; stroke-opacity:0.1; fill:none" points="253.899,175.572 1872.76,175.572 "/>
<polyline clip-path="url(#clip820)" style="stroke:#000000; stroke-linecap:round; stroke-linejoin:round; stroke-width:4; stroke-opacity:1; fill:none" points="253.899,1343.4 1872.76,1343.4 "/>
<polyline clip-path="url(#clip820)" style="stroke:#000000; stroke-linecap:round; stroke-linejoin:round; stroke-width:4; stroke-opacity:1; fill:none" points="629.445,1343.4 629.445,1324.51 "/>
<polyline clip-path="url(#clip820)" style="stroke:#000000; stroke-linecap:round; stroke-linejoin:round; stroke-width:4; stroke-opacity:1; fill:none" points="1021.25,1343.4 1021.25,1324.51 "/>
<polyline clip-path="url(#clip820)" style="stroke:#000000; stroke-linecap:round; stroke-linejoin:round; stroke-width:4; stroke-opacity:1; fill:none" points="1413.05,1343.4 1413.05,1324.51 "/>
<polyline clip-path="url(#clip820)" style="stroke:#000000; stroke-linecap:round; stroke-linejoin:round; stroke-width:4; stroke-opacity:1; fill:none" points="1804.85,1343.4 1804.85,1324.51 "/>
<path clip-path="url(#clip820)" d="M604.133 1398.03 L611.772 1398.03 L611.772 1371.66 L603.461 1373.33 L603.461 1369.07 L611.725 1367.4 L616.401 1367.4 L616.401 1398.03 L624.04 1398.03 L624.04 1401.96 L604.133 1401.96 L604.133 1398.03 Z" fill="#000000" fill-rule="nonzero" fill-opacity="1" /><path clip-path="url(#clip820)" d="M643.484 1370.48 Q639.873 1370.48 638.045 1374.05 Q636.239 1377.59 636.239 1384.72 Q636.239 1391.83 638.045 1395.39 Q639.873 1398.93 643.484 1398.93 Q647.119 1398.93 648.924 1395.39 Q650.753 1391.83 650.753 1384.72 Q650.753 1377.59 648.924 1374.05 Q647.119 1370.48 643.484 1370.48 M643.484 1366.78 Q649.294 1366.78 652.35 1371.39 Q655.429 1375.97 655.429 1384.72 Q655.429 1393.45 652.35 1398.05 Q649.294 1402.64 643.484 1402.64 Q637.674 1402.64 634.595 1398.05 Q631.54 1393.45 631.54 1384.72 Q631.54 1375.97 634.595 1371.39 Q637.674 1366.78 643.484 1366.78 Z" fill="#000000" fill-rule="nonzero" fill-opacity="1" /><path clip-path="url(#clip820)" d="M996.433 1398.03 L1004.07 1398.03 L1004.07 1371.66 L995.761 1373.33 L995.761 1369.07 L1004.03 1367.4 L1008.7 1367.4 L1008.7 1398.03 L1016.34 1398.03 L1016.34 1401.96 L996.433 1401.96 L996.433 1398.03 Z" fill="#000000" fill-rule="nonzero" fill-opacity="1" /><path clip-path="url(#clip820)" d="M1025.83 1367.4 L1044.19 1367.4 L1044.19 1371.34 L1030.11 1371.34 L1030.11 1379.81 Q1031.13 1379.46 1032.15 1379.3 Q1033.17 1379.12 1034.19 1379.12 Q1039.97 1379.12 1043.35 1382.29 Q1046.73 1385.46 1046.73 1390.88 Q1046.73 1396.45 1043.26 1399.56 Q1039.79 1402.64 1033.47 1402.64 Q1031.29 1402.64 1029.03 1402.26 Q1026.78 1401.89 1024.37 1401.15 L1024.37 1396.45 Q1026.46 1397.59 1028.68 1398.14 Q1030.9 1398.7 1033.38 1398.7 Q1037.38 1398.7 1039.72 1396.59 Q1042.06 1394.49 1042.06 1390.88 Q1042.06 1387.26 1039.72 1385.16 Q1037.38 1383.05 1033.38 1383.05 Q1031.5 1383.05 1029.63 1383.47 Q1027.78 1383.89 1025.83 1384.76 L1025.83 1367.4 Z" fill="#000000" fill-rule="nonzero" fill-opacity="1" /><path clip-path="url(#clip820)" d="M1391.82 1398.03 L1408.14 1398.03 L1408.14 1401.96 L1386.2 1401.96 L1386.2 1398.03 Q1388.86 1395.27 1393.44 1390.64 Q1398.05 1385.99 1399.23 1384.65 Q1401.48 1382.13 1402.36 1380.39 Q1403.26 1378.63 1403.26 1376.94 Q1403.26 1374.19 1401.31 1372.45 Q1399.39 1370.71 1396.29 1370.71 Q1394.09 1370.71 1391.64 1371.48 Q1389.21 1372.24 1386.43 1373.79 L1386.43 1369.07 Q1389.25 1367.94 1391.71 1367.36 Q1394.16 1366.78 1396.2 1366.78 Q1401.57 1366.78 1404.76 1369.46 Q1407.96 1372.15 1407.96 1376.64 Q1407.96 1378.77 1407.15 1380.69 Q1406.36 1382.59 1404.25 1385.18 Q1403.67 1385.85 1400.57 1389.07 Q1397.47 1392.26 1391.82 1398.03 Z" fill="#000000" fill-rule="nonzero" fill-opacity="1" /><path clip-path="url(#clip820)" d="M1427.96 1370.48 Q1424.35 1370.48 1422.52 1374.05 Q1420.71 1377.59 1420.71 1384.72 Q1420.71 1391.83 1422.52 1395.39 Q1424.35 1398.93 1427.96 1398.93 Q1431.59 1398.93 1433.4 1395.39 Q1435.23 1391.83 1435.23 1384.72 Q1435.23 1377.59 1433.4 1374.05 Q1431.59 1370.48 1427.96 1370.48 M1427.96 1366.78 Q1433.77 1366.78 1436.82 1371.39 Q1439.9 1375.97 1439.9 1384.72 Q1439.9 1393.45 1436.82 1398.05 Q1433.77 1402.64 1427.96 1402.64 Q1422.15 1402.64 1419.07 1398.05 Q1416.01 1393.45 1416.01 1384.72 Q1416.01 1375.97 1419.07 1371.39 Q1422.15 1366.78 1427.96 1366.78 Z" fill="#000000" fill-rule="nonzero" fill-opacity="1" /><path clip-path="url(#clip820)" d="M1784.12 1398.03 L1800.44 1398.03 L1800.44 1401.96 L1778.5 1401.96 L1778.5 1398.03 Q1781.16 1395.27 1785.74 1390.64 Q1790.35 1385.99 1791.53 1384.65 Q1793.78 1382.13 1794.66 1380.39 Q1795.56 1378.63 1795.56 1376.94 Q1795.56 1374.19 1793.61 1372.45 Q1791.69 1370.71 1788.59 1370.71 Q1786.39 1370.71 1783.94 1371.48 Q1781.51 1372.24 1778.73 1373.79 L1778.73 1369.07 Q1781.55 1367.94 1784.01 1367.36 Q1786.46 1366.78 1788.5 1366.78 Q1793.87 1366.78 1797.06 1369.46 Q1800.26 1372.15 1800.26 1376.64 Q1800.26 1378.77 1799.45 1380.69 Q1798.66 1382.59 1796.55 1385.18 Q1795.97 1385.85 1792.87 1389.07 Q1789.77 1392.26 1784.12 1398.03 Z" fill="#000000" fill-rule="nonzero" fill-opacity="1" /><path clip-path="url(#clip820)" d="M1810.3 1367.4 L1828.66 1367.4 L1828.66 1371.34 L1814.59 1371.34 L1814.59 1379.81 Q1815.6 1379.46 1816.62 1379.3 Q1817.64 1379.12 1818.66 1379.12 Q1824.45 1379.12 1827.83 1382.29 Q1831.21 1385.46 1831.21 1390.88 Q1831.21 1396.45 1827.73 1399.56 Q1824.26 1402.64 1817.94 1402.64 Q1815.77 1402.64 1813.5 1402.26 Q1811.25 1401.89 1808.84 1401.15 L1808.84 1396.45 Q1810.93 1397.59 1813.15 1398.14 Q1815.37 1398.7 1817.85 1398.7 Q1821.85 1398.7 1824.19 1396.59 Q1826.53 1394.49 1826.53 1390.88 Q1826.53 1387.26 1824.19 1385.16 Q1821.85 1383.05 1817.85 1383.05 Q1815.97 1383.05 1814.1 1383.47 Q1812.25 1383.89 1810.3 1384.76 L1810.3 1367.4 Z" fill="#000000" fill-rule="nonzero" fill-opacity="1" /><path clip-path="url(#clip820)" d="M865.099 1438.83 L865.099 1456.69 L873.184 1456.69 Q877.672 1456.69 880.122 1454.36 Q882.573 1452.04 882.573 1447.74 Q882.573 1443.48 880.122 1441.15 Q877.672 1438.83 873.184 1438.83 L865.099 1438.83 M858.67 1433.55 L873.184 1433.55 Q881.173 1433.55 885.247 1437.18 Q889.353 1440.77 889.353 1447.74 Q889.353 1454.78 885.247 1458.37 Q881.173 1461.97 873.184 1461.97 L865.099 1461.97 L865.099 1481.07 L858.67 1481.07 L858.67 1433.55 Z" fill="#000000" fill-rule="nonzero" fill-opacity="1" /><path clip-path="url(#clip820)" d="M917.234 1450.89 Q916.248 1450.32 915.07 1450.07 Q913.924 1449.78 912.524 1449.78 Q907.559 1449.78 904.885 1453.03 Q902.243 1456.24 902.243 1462.29 L902.243 1481.07 L896.355 1481.07 L896.355 1445.42 L902.243 1445.42 L902.243 1450.96 Q904.089 1447.71 907.049 1446.15 Q910.009 1444.56 914.243 1444.56 Q914.847 1444.56 915.579 1444.66 Q916.311 1444.72 917.203 1444.88 L917.234 1450.89 Z" fill="#000000" fill-rule="nonzero" fill-opacity="1" /><path clip-path="url(#clip820)" d="M952.437 1461.78 L952.437 1464.64 L925.51 1464.64 Q925.892 1470.69 929.138 1473.87 Q932.417 1477.03 938.241 1477.03 Q941.615 1477.03 944.766 1476.2 Q947.949 1475.37 951.068 1473.72 L951.068 1479.25 Q947.917 1480.59 944.607 1481.29 Q941.297 1481.99 937.891 1481.99 Q929.361 1481.99 924.364 1477.03 Q919.399 1472.06 919.399 1463.59 Q919.399 1454.84 924.109 1449.72 Q928.852 1444.56 936.873 1444.56 Q944.066 1444.56 948.235 1449.21 Q952.437 1453.82 952.437 1461.78 M946.58 1460.06 Q946.517 1455.25 943.875 1452.39 Q941.265 1449.53 936.936 1449.53 Q932.035 1449.53 929.075 1452.29 Q926.146 1455.06 925.701 1460.09 L946.58 1460.06 Z" fill="#000000" fill-rule="nonzero" fill-opacity="1" /><path clip-path="url(#clip820)" d="M985.507 1450.83 L985.507 1431.54 L991.363 1431.54 L991.363 1481.07 L985.507 1481.07 L985.507 1475.72 Q983.661 1478.9 980.828 1480.46 Q978.027 1481.99 974.08 1481.99 Q967.619 1481.99 963.545 1476.83 Q959.503 1471.68 959.503 1463.28 Q959.503 1454.87 963.545 1449.72 Q967.619 1444.56 974.08 1444.56 Q978.027 1444.56 980.828 1446.12 Q983.661 1447.65 985.507 1450.83 M965.55 1463.28 Q965.55 1469.74 968.192 1473.43 Q970.865 1477.09 975.512 1477.09 Q980.159 1477.09 982.833 1473.43 Q985.507 1469.74 985.507 1463.28 Q985.507 1456.81 982.833 1453.15 Q980.159 1449.46 975.512 1449.46 Q970.865 1449.46 968.192 1453.15 Q965.55 1456.81 965.55 1463.28 Z" fill="#000000" fill-rule="nonzero" fill-opacity="1" /><path clip-path="url(#clip820)" d="M1019.63 1463.15 Q1012.53 1463.15 1009.79 1464.77 Q1007.05 1466.39 1007.05 1470.31 Q1007.05 1473.43 1009.09 1475.28 Q1011.16 1477.09 1014.69 1477.09 Q1019.56 1477.09 1022.49 1473.65 Q1025.45 1470.18 1025.45 1464.45 L1025.45 1463.15 L1019.63 1463.15 M1031.31 1460.73 L1031.31 1481.07 L1025.45 1481.07 L1025.45 1475.66 Q1023.45 1478.9 1020.45 1480.46 Q1017.46 1481.99 1013.13 1481.99 Q1007.66 1481.99 1004.41 1478.94 Q1001.2 1475.85 1001.2 1470.69 Q1001.2 1464.68 1005.21 1461.62 Q1009.25 1458.57 1017.24 1458.57 L1025.45 1458.57 L1025.45 1457.99 Q1025.45 1453.95 1022.78 1451.75 Q1020.14 1449.53 1015.33 1449.53 Q1012.27 1449.53 1009.38 1450.26 Q1006.48 1450.99 1003.81 1452.45 L1003.81 1447.04 Q1007.02 1445.8 1010.05 1445.2 Q1013.07 1444.56 1015.93 1444.56 Q1023.67 1444.56 1027.49 1448.57 Q1031.31 1452.58 1031.31 1460.73 Z" fill="#000000" fill-rule="nonzero" fill-opacity="1" /><path clip-path="url(#clip820)" d="M1049.16 1435.3 L1049.16 1445.42 L1061.23 1445.42 L1061.23 1449.97 L1049.16 1449.97 L1049.16 1469.32 Q1049.16 1473.68 1050.34 1474.92 Q1051.55 1476.17 1055.21 1476.17 L1061.23 1476.17 L1061.23 1481.07 L1055.21 1481.07 Q1048.43 1481.07 1045.85 1478.55 Q1043.28 1476.01 1043.28 1469.32 L1043.28 1449.97 L1038.98 1449.97 L1038.98 1445.42 L1043.28 1445.42 L1043.28 1435.3 L1049.16 1435.3 Z" fill="#000000" fill-rule="nonzero" fill-opacity="1" /><path clip-path="url(#clip820)" d="M1082.74 1449.53 Q1078.03 1449.53 1075.29 1453.22 Q1072.56 1456.88 1072.56 1463.28 Q1072.56 1469.67 1075.26 1473.37 Q1078 1477.03 1082.74 1477.03 Q1087.42 1477.03 1090.16 1473.33 Q1092.9 1469.64 1092.9 1463.28 Q1092.9 1456.94 1090.16 1453.25 Q1087.42 1449.53 1082.74 1449.53 M1082.74 1444.56 Q1090.38 1444.56 1094.74 1449.53 Q1099.1 1454.49 1099.1 1463.28 Q1099.1 1472.03 1094.74 1477.03 Q1090.38 1481.99 1082.74 1481.99 Q1075.07 1481.99 1070.71 1477.03 Q1066.38 1472.03 1066.38 1463.28 Q1066.38 1454.49 1070.71 1449.53 Q1075.07 1444.56 1082.74 1444.56 Z" fill="#000000" fill-rule="nonzero" fill-opacity="1" /><path clip-path="url(#clip820)" d="M1129.47 1450.89 Q1128.48 1450.32 1127.3 1450.07 Q1126.16 1449.78 1124.76 1449.78 Q1119.79 1449.78 1117.12 1453.03 Q1114.48 1456.24 1114.48 1462.29 L1114.48 1481.07 L1108.59 1481.07 L1108.59 1445.42 L1114.48 1445.42 L1114.48 1450.96 Q1116.32 1447.71 1119.28 1446.15 Q1122.24 1444.56 1126.48 1444.56 Q1127.08 1444.56 1127.81 1444.66 Q1128.54 1444.72 1129.44 1444.88 L1129.47 1450.89 Z" fill="#000000" fill-rule="nonzero" fill-opacity="1" /><path clip-path="url(#clip820)" d="M1158.34 1446.47 L1158.34 1452.01 Q1155.85 1450.74 1153.18 1450.1 Q1150.51 1449.46 1147.64 1449.46 Q1143.28 1449.46 1141.08 1450.8 Q1138.92 1452.14 1138.92 1454.81 Q1138.92 1456.85 1140.48 1458.02 Q1142.04 1459.17 1146.75 1460.22 L1148.76 1460.67 Q1154.99 1462 1157.6 1464.45 Q1160.25 1466.87 1160.25 1471.23 Q1160.25 1476.2 1156.3 1479.09 Q1152.38 1481.99 1145.51 1481.99 Q1142.64 1481.99 1139.52 1481.42 Q1136.44 1480.88 1133 1479.76 L1133 1473.72 Q1136.25 1475.4 1139.4 1476.26 Q1142.55 1477.09 1145.64 1477.09 Q1149.77 1477.09 1152 1475.69 Q1154.23 1474.26 1154.23 1471.68 Q1154.23 1469.29 1152.61 1468.02 Q1151.01 1466.75 1145.57 1465.57 L1143.54 1465.09 Q1138.09 1463.94 1135.67 1461.59 Q1133.25 1459.2 1133.25 1455.06 Q1133.25 1450.04 1136.82 1447.3 Q1140.38 1444.56 1146.94 1444.56 Q1150.19 1444.56 1153.05 1445.04 Q1155.92 1445.52 1158.34 1446.47 Z" fill="#000000" fill-rule="nonzero" fill-opacity="1" /><path clip-path="url(#clip820)" d="M1204.36 1431.61 Q1200.09 1438.93 1198.03 1446.09 Q1195.96 1453.25 1195.96 1460.6 Q1195.96 1467.95 1198.03 1475.18 Q1200.13 1482.37 1204.36 1489.66 L1199.27 1489.66 Q1194.49 1482.18 1192.11 1474.96 Q1189.75 1467.73 1189.75 1460.6 Q1189.75 1453.5 1192.11 1446.31 Q1194.46 1439.12 1199.27 1431.61 L1204.36 1431.61 Z" fill="#000000" fill-rule="nonzero" fill-opacity="1" /><path clip-path="url(#clip820)" d="M1245.35 1445.42 L1232.46 1462.77 L1246.02 1481.07 L1239.12 1481.07 L1228.74 1467.06 L1218.36 1481.07 L1211.46 1481.07 L1225.3 1462.42 L1212.64 1445.42 L1219.54 1445.42 L1228.99 1458.12 L1238.45 1445.42 L1245.35 1445.42 Z" fill="#000000" fill-rule="nonzero" fill-opacity="1" /><path clip-path="url(#clip820)" d="M1253.38 1431.61 L1258.47 1431.61 Q1263.24 1439.12 1265.6 1446.31 Q1267.98 1453.5 1267.98 1460.6 Q1267.98 1467.73 1265.6 1474.96 Q1263.24 1482.18 1258.47 1489.66 L1253.38 1489.66 Q1257.61 1482.37 1259.68 1475.18 Q1261.78 1467.95 1261.78 1460.6 Q1261.78 1453.25 1259.68 1446.09 Q1257.61 1438.93 1253.38 1431.61 Z" fill="#000000" fill-rule="nonzero" fill-opacity="1" /><polyline clip-path="url(#clip820)" style="stroke:#000000; stroke-linecap:round; stroke-linejoin:round; stroke-width:4; stroke-opacity:1; fill:none" points="253.899,1343.4 253.899,47.2441 "/>
<polyline clip-path="url(#clip820)" style="stroke:#000000; stroke-linecap:round; stroke-linejoin:round; stroke-width:4; stroke-opacity:1; fill:none" points="253.899,1155.08 272.796,1155.08 "/>
<polyline clip-path="url(#clip820)" style="stroke:#000000; stroke-linecap:round; stroke-linejoin:round; stroke-width:4; stroke-opacity:1; fill:none" points="253.899,959.176 272.796,959.176 "/>
<polyline clip-path="url(#clip820)" style="stroke:#000000; stroke-linecap:round; stroke-linejoin:round; stroke-width:4; stroke-opacity:1; fill:none" points="253.899,763.275 272.796,763.275 "/>
<polyline clip-path="url(#clip820)" style="stroke:#000000; stroke-linecap:round; stroke-linejoin:round; stroke-width:4; stroke-opacity:1; fill:none" points="253.899,567.374 272.796,567.374 "/>
<polyline clip-path="url(#clip820)" style="stroke:#000000; stroke-linecap:round; stroke-linejoin:round; stroke-width:4; stroke-opacity:1; fill:none" points="253.899,371.473 272.796,371.473 "/>
<polyline clip-path="url(#clip820)" style="stroke:#000000; stroke-linecap:round; stroke-linejoin:round; stroke-width:4; stroke-opacity:1; fill:none" points="253.899,175.572 272.796,175.572 "/>
<path clip-path="url(#clip820)" d="M157.738 1137.8 L179.96 1137.8 L179.96 1139.79 L167.414 1172.36 L162.53 1172.36 L174.335 1141.73 L157.738 1141.73 L157.738 1137.8 Z" fill="#000000" fill-rule="nonzero" fill-opacity="1" /><path clip-path="url(#clip820)" d="M189.08 1166.48 L193.965 1166.48 L193.965 1172.36 L189.08 1172.36 L189.08 1166.48 Z" fill="#000000" fill-rule="nonzero" fill-opacity="1" /><path clip-path="url(#clip820)" d="M204.196 1137.8 L222.553 1137.8 L222.553 1141.73 L208.479 1141.73 L208.479 1150.2 Q209.497 1149.86 210.516 1149.7 Q211.534 1149.51 212.553 1149.51 Q218.34 1149.51 221.719 1152.68 Q225.099 1155.85 225.099 1161.27 Q225.099 1166.85 221.627 1169.95 Q218.154 1173.03 211.835 1173.03 Q209.659 1173.03 207.391 1172.66 Q205.145 1172.29 202.738 1171.55 L202.738 1166.85 Q204.821 1167.98 207.043 1168.54 Q209.266 1169.09 211.742 1169.09 Q215.747 1169.09 218.085 1166.99 Q220.423 1164.88 220.423 1161.27 Q220.423 1157.66 218.085 1155.55 Q215.747 1153.45 211.742 1153.45 Q209.867 1153.45 207.992 1153.86 Q206.141 1154.28 204.196 1155.16 L204.196 1137.8 Z" fill="#000000" fill-rule="nonzero" fill-opacity="1" /><path clip-path="url(#clip820)" d="M128.572 972.521 L136.21 972.521 L136.21 946.156 L127.9 947.822 L127.9 943.563 L136.164 941.896 L140.84 941.896 L140.84 972.521 L148.479 972.521 L148.479 976.456 L128.572 976.456 L128.572 972.521 Z" fill="#000000" fill-rule="nonzero" fill-opacity="1" /><path clip-path="url(#clip820)" d="M167.923 944.975 Q164.312 944.975 162.483 948.54 Q160.678 952.082 160.678 959.211 Q160.678 966.318 162.483 969.882 Q164.312 973.424 167.923 973.424 Q171.557 973.424 173.363 969.882 Q175.192 966.318 175.192 959.211 Q175.192 952.082 173.363 948.54 Q171.557 944.975 167.923 944.975 M167.923 941.271 Q173.733 941.271 176.789 945.878 Q179.868 950.461 179.868 959.211 Q179.868 967.938 176.789 972.544 Q173.733 977.128 167.923 977.128 Q162.113 977.128 159.034 972.544 Q155.979 967.938 155.979 959.211 Q155.979 950.461 159.034 945.878 Q162.113 941.271 167.923 941.271 Z" fill="#000000" fill-rule="nonzero" fill-opacity="1" /><path clip-path="url(#clip820)" d="M188.085 970.577 L192.969 970.577 L192.969 976.456 L188.085 976.456 L188.085 970.577 Z" fill="#000000" fill-rule="nonzero" fill-opacity="1" /><path clip-path="url(#clip820)" d="M213.154 944.975 Q209.543 944.975 207.715 948.54 Q205.909 952.082 205.909 959.211 Q205.909 966.318 207.715 969.882 Q209.543 973.424 213.154 973.424 Q216.789 973.424 218.594 969.882 Q220.423 966.318 220.423 959.211 Q220.423 952.082 218.594 948.54 Q216.789 944.975 213.154 944.975 M213.154 941.271 Q218.965 941.271 222.02 945.878 Q225.099 950.461 225.099 959.211 Q225.099 967.938 222.02 972.544 Q218.965 977.128 213.154 977.128 Q207.344 977.128 204.266 972.544 Q201.21 967.938 201.21 959.211 Q201.21 950.461 204.266 945.878 Q207.344 941.271 213.154 941.271 Z" fill="#000000" fill-rule="nonzero" fill-opacity="1" /><path clip-path="url(#clip820)" d="M129.567 776.62 L137.206 776.62 L137.206 750.255 L128.896 751.921 L128.896 747.662 L137.159 745.995 L141.835 745.995 L141.835 776.62 L149.474 776.62 L149.474 780.555 L129.567 780.555 L129.567 776.62 Z" fill="#000000" fill-rule="nonzero" fill-opacity="1" /><path clip-path="url(#clip820)" d="M162.946 776.62 L179.266 776.62 L179.266 780.555 L157.321 780.555 L157.321 776.62 Q159.983 773.866 164.567 769.236 Q169.173 764.583 170.354 763.241 Q172.599 760.717 173.479 758.981 Q174.381 757.222 174.381 755.532 Q174.381 752.778 172.437 751.042 Q170.516 749.306 167.414 749.306 Q165.215 749.306 162.761 750.069 Q160.331 750.833 157.553 752.384 L157.553 747.662 Q160.377 746.528 162.831 745.949 Q165.284 745.37 167.321 745.37 Q172.692 745.37 175.886 748.056 Q179.081 750.741 179.081 755.231 Q179.081 757.361 178.27 759.282 Q177.483 761.18 175.377 763.773 Q174.798 764.444 171.696 767.662 Q168.594 770.856 162.946 776.62 Z" fill="#000000" fill-rule="nonzero" fill-opacity="1" /><path clip-path="url(#clip820)" d="M189.08 774.676 L193.965 774.676 L193.965 780.555 L189.08 780.555 L189.08 774.676 Z" fill="#000000" fill-rule="nonzero" fill-opacity="1" /><path clip-path="url(#clip820)" d="M204.196 745.995 L222.553 745.995 L222.553 749.931 L208.479 749.931 L208.479 758.403 Q209.497 758.055 210.516 757.893 Q211.534 757.708 212.553 757.708 Q218.34 757.708 221.719 760.88 Q225.099 764.051 225.099 769.467 Q225.099 775.046 221.627 778.148 Q218.154 781.227 211.835 781.227 Q209.659 781.227 207.391 780.856 Q205.145 780.486 202.738 779.745 L202.738 775.046 Q204.821 776.18 207.043 776.736 Q209.266 777.291 211.742 777.291 Q215.747 777.291 218.085 775.185 Q220.423 773.079 220.423 769.467 Q220.423 765.856 218.085 763.75 Q215.747 761.643 211.742 761.643 Q209.867 761.643 207.992 762.06 Q206.141 762.477 204.196 763.356 L204.196 745.995 Z" fill="#000000" fill-rule="nonzero" fill-opacity="1" /><path clip-path="url(#clip820)" d="M128.572 580.719 L136.21 580.719 L136.21 554.353 L127.9 556.02 L127.9 551.761 L136.164 550.094 L140.84 550.094 L140.84 580.719 L148.479 580.719 L148.479 584.654 L128.572 584.654 L128.572 580.719 Z" fill="#000000" fill-rule="nonzero" fill-opacity="1" /><path clip-path="url(#clip820)" d="M157.97 550.094 L176.326 550.094 L176.326 554.029 L162.252 554.029 L162.252 562.502 Q163.27 562.154 164.289 561.992 Q165.307 561.807 166.326 561.807 Q172.113 561.807 175.493 564.978 Q178.872 568.15 178.872 573.566 Q178.872 579.145 175.4 582.247 Q171.928 585.326 165.608 585.326 Q163.432 585.326 161.164 584.955 Q158.919 584.585 156.511 583.844 L156.511 579.145 Q158.595 580.279 160.817 580.835 Q163.039 581.39 165.516 581.39 Q169.52 581.39 171.858 579.284 Q174.196 577.177 174.196 573.566 Q174.196 569.955 171.858 567.849 Q169.52 565.742 165.516 565.742 Q163.641 565.742 161.766 566.159 Q159.914 566.576 157.97 567.455 L157.97 550.094 Z" fill="#000000" fill-rule="nonzero" fill-opacity="1" /><path clip-path="url(#clip820)" d="M188.085 578.775 L192.969 578.775 L192.969 584.654 L188.085 584.654 L188.085 578.775 Z" fill="#000000" fill-rule="nonzero" fill-opacity="1" /><path clip-path="url(#clip820)" d="M213.154 553.173 Q209.543 553.173 207.715 556.738 Q205.909 560.279 205.909 567.409 Q205.909 574.515 207.715 578.08 Q209.543 581.622 213.154 581.622 Q216.789 581.622 218.594 578.08 Q220.423 574.515 220.423 567.409 Q220.423 560.279 218.594 556.738 Q216.789 553.173 213.154 553.173 M213.154 549.469 Q218.965 549.469 222.02 554.076 Q225.099 558.659 225.099 567.409 Q225.099 576.136 222.02 580.742 Q218.965 585.326 213.154 585.326 Q207.344 585.326 204.266 580.742 Q201.21 576.136 201.21 567.409 Q201.21 558.659 204.266 554.076 Q207.344 549.469 213.154 549.469 Z" fill="#000000" fill-rule="nonzero" fill-opacity="1" /><path clip-path="url(#clip820)" d="M129.567 384.818 L137.206 384.818 L137.206 358.452 L128.896 360.119 L128.896 355.86 L137.159 354.193 L141.835 354.193 L141.835 384.818 L149.474 384.818 L149.474 388.753 L129.567 388.753 L129.567 384.818 Z" fill="#000000" fill-rule="nonzero" fill-opacity="1" /><path clip-path="url(#clip820)" d="M157.738 354.193 L179.96 354.193 L179.96 356.184 L167.414 388.753 L162.53 388.753 L174.335 358.128 L157.738 358.128 L157.738 354.193 Z" fill="#000000" fill-rule="nonzero" fill-opacity="1" /><path clip-path="url(#clip820)" d="M189.08 382.873 L193.965 382.873 L193.965 388.753 L189.08 388.753 L189.08 382.873 Z" fill="#000000" fill-rule="nonzero" fill-opacity="1" /><path clip-path="url(#clip820)" d="M204.196 354.193 L222.553 354.193 L222.553 358.128 L208.479 358.128 L208.479 366.6 Q209.497 366.253 210.516 366.091 Q211.534 365.906 212.553 365.906 Q218.34 365.906 221.719 369.077 Q225.099 372.249 225.099 377.665 Q225.099 383.244 221.627 386.346 Q218.154 389.424 211.835 389.424 Q209.659 389.424 207.391 389.054 Q205.145 388.684 202.738 387.943 L202.738 383.244 Q204.821 384.378 207.043 384.934 Q209.266 385.489 211.742 385.489 Q215.747 385.489 218.085 383.383 Q220.423 381.276 220.423 377.665 Q220.423 374.054 218.085 371.948 Q215.747 369.841 211.742 369.841 Q209.867 369.841 207.992 370.258 Q206.141 370.674 204.196 371.554 L204.196 354.193 Z" fill="#000000" fill-rule="nonzero" fill-opacity="1" /><path clip-path="url(#clip820)" d="M131.789 188.917 L148.108 188.917 L148.108 192.852 L126.164 192.852 L126.164 188.917 Q128.826 186.162 133.409 181.533 Q138.016 176.88 139.196 175.537 Q141.442 173.014 142.321 171.278 Q143.224 169.519 143.224 167.829 Q143.224 165.074 141.28 163.338 Q139.359 161.602 136.257 161.602 Q134.058 161.602 131.604 162.366 Q129.173 163.13 126.396 164.681 L126.396 159.959 Q129.22 158.824 131.673 158.246 Q134.127 157.667 136.164 157.667 Q141.534 157.667 144.729 160.352 Q147.923 163.037 147.923 167.528 Q147.923 169.658 147.113 171.579 Q146.326 173.477 144.22 176.07 Q143.641 176.741 140.539 179.959 Q137.437 183.153 131.789 188.917 Z" fill="#000000" fill-rule="nonzero" fill-opacity="1" /><path clip-path="url(#clip820)" d="M167.923 161.371 Q164.312 161.371 162.483 164.935 Q160.678 168.477 160.678 175.607 Q160.678 182.713 162.483 186.278 Q164.312 189.82 167.923 189.82 Q171.557 189.82 173.363 186.278 Q175.192 182.713 175.192 175.607 Q175.192 168.477 173.363 164.935 Q171.557 161.371 167.923 161.371 M167.923 157.667 Q173.733 157.667 176.789 162.273 Q179.868 166.857 179.868 175.607 Q179.868 184.333 176.789 188.94 Q173.733 193.523 167.923 193.523 Q162.113 193.523 159.034 188.94 Q155.979 184.333 155.979 175.607 Q155.979 166.857 159.034 162.273 Q162.113 157.667 167.923 157.667 Z" fill="#000000" fill-rule="nonzero" fill-opacity="1" /><path clip-path="url(#clip820)" d="M188.085 186.972 L192.969 186.972 L192.969 192.852 L188.085 192.852 L188.085 186.972 Z" fill="#000000" fill-rule="nonzero" fill-opacity="1" /><path clip-path="url(#clip820)" d="M213.154 161.371 Q209.543 161.371 207.715 164.935 Q205.909 168.477 205.909 175.607 Q205.909 182.713 207.715 186.278 Q209.543 189.82 213.154 189.82 Q216.789 189.82 218.594 186.278 Q220.423 182.713 220.423 175.607 Q220.423 168.477 218.594 164.935 Q216.789 161.371 213.154 161.371 M213.154 157.667 Q218.965 157.667 222.02 162.273 Q225.099 166.857 225.099 175.607 Q225.099 184.333 222.02 188.94 Q218.965 193.523 213.154 193.523 Q207.344 193.523 204.266 188.94 Q201.21 184.333 201.21 175.607 Q201.21 166.857 204.266 162.273 Q207.344 157.667 213.154 157.667 Z" fill="#000000" fill-rule="nonzero" fill-opacity="1" /><path clip-path="url(#clip820)" d="M40.8717 809.079 L58.7275 809.079 L58.7275 800.995 Q58.7275 796.507 56.404 794.056 Q54.0805 791.605 49.7837 791.605 Q45.5187 791.605 43.1952 794.056 Q40.8717 796.507 40.8717 800.995 L40.8717 809.079 M35.5882 815.509 L35.5882 800.995 Q35.5882 793.006 39.2166 788.932 Q42.8132 784.826 49.7837 784.826 Q56.8178 784.826 60.4144 788.932 Q64.011 793.006 64.011 800.995 L64.011 809.079 L83.1082 809.079 L83.1082 815.509 L35.5882 815.509 Z" fill="#000000" fill-rule="nonzero" fill-opacity="1" /><path clip-path="url(#clip820)" d="M52.9347 756.944 Q52.3618 757.931 52.1072 759.108 Q51.8207 760.254 51.8207 761.655 Q51.8207 766.62 55.0672 769.293 Q58.2819 771.935 64.3293 771.935 L83.1082 771.935 L83.1082 777.824 L47.4602 777.824 L47.4602 771.935 L52.9984 771.935 Q49.7519 770.089 48.1923 767.129 Q46.6008 764.169 46.6008 759.936 Q46.6008 759.331 46.6963 758.599 Q46.76 757.867 46.9191 756.976 L52.9347 756.944 Z" fill="#000000" fill-rule="nonzero" fill-opacity="1" /><path clip-path="url(#clip820)" d="M63.8201 721.742 L66.6846 721.742 L66.6846 748.669 Q72.7321 748.287 75.9149 745.04 Q79.0659 741.762 79.0659 735.937 Q79.0659 732.563 78.2384 729.412 Q77.4109 726.229 75.7558 723.11 L81.2939 723.11 Q82.6307 726.261 83.331 729.571 Q84.0312 732.882 84.0312 736.287 Q84.0312 744.817 79.0659 749.814 Q74.1007 754.78 65.6343 754.78 Q56.8814 754.78 51.7571 750.069 Q46.6008 745.327 46.6008 737.306 Q46.6008 730.113 51.2478 725.943 Q55.8629 721.742 63.8201 721.742 M62.1013 727.598 Q57.2952 727.662 54.4306 730.304 Q51.5661 732.913 51.5661 737.242 Q51.5661 742.144 54.3352 745.104 Q57.1042 748.032 62.1332 748.478 L62.1013 727.598 Z" fill="#000000" fill-rule="nonzero" fill-opacity="1" /><path clip-path="url(#clip820)" d="M86.4183 697.297 Q92.784 699.78 94.7256 702.135 Q96.6671 704.491 96.6671 708.437 L96.6671 713.116 L91.7655 713.116 L91.7655 709.679 Q91.7655 707.26 90.6197 705.923 Q89.4739 704.586 85.2088 702.963 L82.5352 701.912 L47.4602 716.331 L47.4602 710.124 L75.342 698.984 L47.4602 687.844 L47.4602 681.638 L86.4183 697.297 Z" fill="#000000" fill-rule="nonzero" fill-opacity="1" /><path clip-path="url(#clip820)" d="M33.6466 638.765 Q40.9672 643.03 48.1286 645.099 Q55.29 647.167 62.6424 647.167 Q69.9948 647.167 77.2199 645.099 Q84.4131 642.998 91.7019 638.765 L91.7019 643.857 Q84.2222 648.632 76.9971 651.019 Q69.772 653.374 62.6424 653.374 Q55.5446 653.374 48.3514 651.019 Q41.1582 648.663 33.6466 643.857 L33.6466 638.765 Z" fill="#000000" fill-rule="nonzero" fill-opacity="1" /><path clip-path="url(#clip820)" d="M86.4183 612.57 Q92.784 615.052 94.7256 617.408 Q96.6671 619.763 96.6671 623.71 L96.6671 628.389 L91.7655 628.389 L91.7655 624.951 Q91.7655 622.532 90.6197 621.195 Q89.4739 619.859 85.2088 618.235 L82.5352 617.185 L47.4602 631.603 L47.4602 625.397 L75.342 614.257 L47.4602 603.117 L47.4602 596.91 L86.4183 612.57 Z" fill="#000000" fill-rule="nonzero" fill-opacity="1" /><path clip-path="url(#clip820)" d="M33.6466 589.749 L33.6466 584.656 Q41.1582 579.882 48.3514 577.527 Q55.5446 575.139 62.6424 575.139 Q69.772 575.139 76.9971 577.527 Q84.2222 579.882 91.7019 584.656 L91.7019 589.749 Q84.4131 585.516 77.2199 583.447 Q69.9948 581.346 62.6424 581.346 Q55.29 581.346 48.1286 583.447 Q40.9672 585.516 33.6466 589.749 Z" fill="#000000" fill-rule="nonzero" fill-opacity="1" /><polyline clip-path="url(#clip822)" style="stroke:#009af9; stroke-linecap:round; stroke-linejoin:round; stroke-width:4; stroke-opacity:1; fill:none" points="316.003,645.735 321.3,620.998 327.436,595.963 334.451,570.674 342.389,545.181 351.295,519.541 361.222,493.818 372.226,468.081 384.364,442.41 397.702,416.888 412.306,391.613 428.247,366.687 445.6,342.224 464.443,318.346 484.852,295.183 506.914,272.878 530.714,251.585 556.331,231.463 583.841,212.679 613.313,195.404 644.812,179.818 678.397,166.104 714.109,154.439 751.97,145.005 791.999,138 834.178,133.601 878.447,131.961 924.713,133.208 972.842,137.449 1022.66,144.763 1073.96,155.208 1126.5,168.818 1179.98,185.598 1234.06,205.489 1288.3,228.371 1342.27,254.093 1395.51,282.47 1447.55,313.286 1497.92,346.294 1546.14,381.213 1591.72,417.73 1634.17,455.51 1673.13,494.257 1708.23,533.624 1739.14,573.273 1765.6,612.892 1787.42,652.2 1804.48,690.944 1816.73,728.897 1824.19,765.863 1826.94,801.673 1825.14,836.188 1819.01,869.295 1808.79,900.909 1794.7,930.983 1777.03,959.496 1756.09,986.437 1732.17,1011.81 1705.58,1035.62 1676.6,1057.9 1645.53,1078.68 1612.67,1098 1578.31,1115.93 1542.73,1132.53 1506.16,1147.83 1468.82,1161.9 1430.92,1174.79 1392.66,1186.57 1354.23,1197.27 1315.77,1206.96 1277.45,1215.68 1239.38,1223.48 1201.69,1230.4 1164.48,1236.47 1127.82,1241.74 1091.78,1246.23 1056.41,1249.99 1021.77,1253.04 987.929,1255.41 954.91,1257.13 922.743,1258.21 891.452,1258.69 861.055,1258.57 831.568,1257.88 803,1256.63 775.357,1254.84 748.638,1252.51 722.841,1249.66 697.957,1246.3 673.972,1242.43 650.872,1238.05 628.65,1233.19 607.296,1227.84 586.794,1222 567.128,1215.67 548.282,1208.86 530.241,1201.56 512.989,1193.78 496.511,1185.52 480.791,1176.77 465.815,1167.54 451.567,1157.81 438.032,1147.6 425.196,1136.89 413.043,1125.69 401.558,1113.99 390.73,1101.78 380.551,1089.07 371.009,1075.85 362.091,1062.12 353.787,1047.86 346.087,1033.08 338.983,1017.76 332.471,1001.91 326.544,985.52 321.202,968.593 316.443,951.127 312.267,933.124 308.677,914.585 305.677,895.515 303.273,875.918 301.471,855.798 300.282,835.164 299.716,814.021 299.784,792.38 300.501,770.25 301.882,747.641 303.949,724.578 306.732,701.104 310.255,677.232 314.543,652.979 319.626,628.37 325.539,603.439 332.319,578.227 340.007,552.782 348.649,527.16 358.295,501.426 368.997,475.653 380.813,449.92 393.803,424.316 408.031,398.936 423.568,373.884 440.484,349.271 458.857,325.216 478.766,301.847 500.295,279.298 523.533,257.713 548.571,237.242 575.5,218.037 604.376,200.203 635.291,183.969 668.329,169.576 703.54,157.245 740.945,147.176 780.534,139.547 822.266,134.516 866.071,132.22 911.846,132.774 959.458,136.273 1008.74,142.789 1059.51,152.376 1111.53,165.064 1164.55,180.863 1218.28,199.762 1272.41,221.73 1326.56,246.701 1380.18,274.447 1432.7,304.684 1483.6,337.125 1532.37,371.481 1578.57,407.461 1621.78,444.771 1661.61,483.117 1697.72,522.2 1729.81,561.721 1757.61,601.379 1780.88,640.869 1799.44,679.886 1813.12,718.12 1821.94,755.361 1826.13,791.513 1825.84,826.443 1821.22,860.034 1812.46,892.191 1799.78,922.836 1783.38,951.909 1763.52,979.372 1740.44,1005.2 1714.44,1029.4 1685.79,1051.98 1654.82,1072.97 1621.86,1092.45 1587.25,1110.46 1551.37,1127.12 1514.6,1142.52 1477.35,1156.81 1439.77,1170.02 1401.79,1182.09 1363.56,1193.07 1325.27,1203.03 1287.04,1212 1249.03,1220.05 1211.34,1227.2 1174.09,1233.5 1137.38,1238.99 1101.27,1243.7 1065.84,1247.67 1031.13,1250.92 997.197,1253.49 964.05,1255.39 931.744,1256.65 900.308,1257.31 869.757,1257.37 840.1,1256.85 811.345,1255.77 783.499,1254.13 756.564,1251.96 730.541,1249.26 705.428,1246.04 681.22,1242.31 657.91,1238.08 635.49,1233.35 613.945,1228.13 593.263,1222.43 573.426,1216.24 554.415,1209.57 536.206,1202.41 518.776,1194.78 502.116,1186.66 486.219,1178.06 471.069,1168.97 456.647,1159.4 442.937,1149.33 429.926,1138.78 417.598,1127.72 405.94,1116.16 394.941,1104.09 384.588,1091.52 374.871,1078.44 365.781,1064.85 357.309,1050.73 349.446,1036.1 342.187,1020.94 335.526,1005.26 329.456,989.042 323.974,972.295 319.088,955.026 314.846,937.304 311.241,919.11 308.258,900.422 305.887,881.218 304.122,861.484 302.96,841.212 302.401,820.398 302.452,799.044 303.122,777.158 304.423,754.752 306.373,731.845 308.992,708.46 312.306,684.626 316.342,660.379 321.134,635.757 326.719,610.808 333.136,585.581 340.43,560.132 348.65,534.524 357.847,508.824 368.078,483.104 379.403,457.442 391.885,431.922 405.593,406.633 420.598,381.669 436.976,357.129 454.807,333.12 474.174,309.751 495.165,287.138 517.871,265.404 542.375,244.67 568.706,225.07 596.973,206.84 627.275,190.214 659.685,175.409 694.247,162.627 730.98,152.051 769.874,143.849 810.891,138.171 853.969,135.153 899.014,134.912 945.909,137.55 994.507,143.15 1044.63,151.782 1096.09,163.496 1148.65,178.329 1202.05,196.297 1256,217.414 1310.05,241.567 1363.63,268.493 1416.18,297.924 1467.22,329.586 1516.26,363.205 1562.86,398.503 1606.62,435.2 1647.17,473.014 1684.16,511.658 1717.28,550.845 1746.27,590.283 1770.87,629.68 1790.89,668.739 1806.13,707.162 1816.48,744.647 1821.94,780.981 1822.81,816.111 1819.3,849.93 1811.61,882.348 1799.98,913.292 1784.63,942.703 1765.82,970.541 1743.81,996.782 1718.85,1021.42 1691.25,1044.46 1661.28,1065.92 1629.25,1085.87 1595.48,1104.34 1560.3,1121.41 1524.04,1137.19 1487.05,1151.77 1449.68,1165.28 1411.92,1177.67 1373.87,1188.97 1335.7,1199.22 1297.55,1208.47 1259.56,1216.78 1221.86,1224.19 1184.57,1230.74 1147.77,1236.47 1111.55,1241.41 1076,1245.61 1041.16,1249.08 1007.09,1251.87 973.822,1253.98 941.372,1255.45 909.751,1256.29 878.985,1256.52 849.118,1256.18 820.153,1255.27 792.094,1253.8 764.941,1251.8 738.693,1249.26 713.349,1246.2 688.903,1242.63 665.349,1238.55 642.679,1233.97 620.883,1228.9 599.951,1223.34 579.868,1217.3 560.619,1210.77 542.188,1203.76 524.556,1196.27 507.702,1188.29 491.604,1179.84 476.246,1170.9 461.625,1161.47 447.723,1151.56 434.525,1141.16 422.015,1130.26 410.178,1118.87 399.001,1106.96 388.473,1094.55 378.581,1081.63 369.316,1068.19 360.67,1054.24 352.634,1039.76 345.202,1024.76 338.368,1009.24 332.128,993.19 326.479,976.612 321.419,959.504 316.946,941.864 313.06,923.692 309.763,904.986 307.072,885.774 305.029,866.111 303.627,845.978 302.864,825.358 302.739,804.239 303.257,782.618 304.426,760.496 306.259,737.881 308.771,714.788 311.984,691.238 315.922,667.258 320.614,642.883 326.091,618.153 332.39,593.114 339.552,567.819 347.622,542.329 356.648,516.709 366.682,491.032 377.782,465.376 390.007,439.827 403.423,414.476 418.098,389.422 434.106,364.769 451.522,340.627 470.427,317.115 490.907,294.355 513.05,272.479 536.949,251.622 562.7,231.928 590.399,213.542 620.074,196.598 651.8,181.329 685.648,167.975 721.659,156.751 759.84,147.85 800.17,141.445 842.594,137.683 887.028,136.694 933.355,138.582 981.428,143.429 1031.07,151.298 1082.06,162.226 1134.18,176.231 1187.13,193.306 1240.63,213.424 1294.33,236.538 1347.84,262.569 1400.61,291.256 1452.06,322.296 1501.67,355.39 1548.96,390.242 1593.49,426.555 1634.86,464.038 1672.71,502.4 1706.73,541.354 1736.65,580.615 1762.23,619.9 1783.29,658.929 1799.69,697.422 1811.31,735.106 1818.1,771.705 1820.13,807.048 1817.67,841.103 1810.97,873.783 1800.27,905.017 1785.84,934.747 1767.93,962.93 1746.8,989.534 1722.71,1014.55 1695.93,1037.96 1666.75,1059.8 1635.44,1080.08 1602.27,1098.85 1567.55,1116.16 1531.55,1132.09 1494.58,1146.7 1456.93,1160.11 1418.91,1172.43 1380.83,1183.77 1342.93,1194.24 1305.07,1203.75 1267.34,1212.29 1229.85,1219.92 1192.71,1226.68 1156.02,1232.61 1119.86,1237.75 1084.32,1242.12 1049.47,1245.77 1015.36,1248.73 982.032,1251.01 949.531,1252.64 917.881,1253.65 887.096,1254.06 857.183,1253.87 828.136,1253.1 799.977,1251.78 772.726,1249.92 746.376,1247.53 720.924,1244.62 696.361,1241.19 672.682,1237.25 649.877,1232.82 627.936,1227.88 606.85,1222.46 586.606,1216.54 567.192,1210.14 548.596,1203.26 530.801,1195.89 513.793,1188.04 497.556,1179.71 482.071,1170.9 467.321,1161.61 453.286,1151.82 439.948,1141.55 427.304,1130.79 415.34,1119.54 404.042,1107.79 393.395,1095.53 383.387,1082.77 374.007,1069.49 365.245,1055.69 357.093,1041.37 349.544,1026.53 342.592,1011.16 336.232,995.267 330.462,978.845 325.28,961.895 320.686,944.419 316.681,926.416 313.267,907.888 310.448,888.839 308.228,869.271 306.615,849.186 305.616,828.591 305.245,807.498 305.533,785.965 306.495,763.993 308.142,741.578 310.49,718.724 313.558,695.442 317.368,671.751 321.948,647.675 327.328,623.249 333.542,598.51 340.627,573.508 348.625,548.296 357.581,522.936 367.544,497.496 378.566,472.054 390.703,446.693 404.016,421.502 418.567,396.581 434.424,372.034 451.658,347.973 470.343,324.519 490.558,301.798 512.384,279.945 535.908,259.1 561.219,239.412 588.409,221.037 617.575,204.139 648.79,188.861 682.079,175.371 717.494,163.908 755.053,154.691 794.743,147.91 836.518,143.73 880.299,142.289 925.973,143.701 973.397,148.052 1022.39,155.403 1072.75,165.788 1124.22,179.215 1176.54,195.667 1229.38,215.1 1282.42,237.445 1335.27,262.604 1387.55,290.468 1438.73,320.787 1488.24,353.237 1535.56,387.502 1580.22,423.274 1621.8,460.249 1659.94,498.131 1694.29,536.632 1724.59,575.47 1750.62,614.368 1772.18,653.059 1789.16,691.28 1801.47,728.776 1809.08,765.299 1812,800.61 1810.34,834.615 1804.36,867.274 1794.34,898.517 1780.55,928.288 1763.28,956.543 1742.8,983.25 1719.38,1008.39 1693.31,1031.95 1664.83,1053.95 1634.24,1074.39 1601.8,1093.31 1567.76,1110.76 1532.41,1126.78 1496,1141.44 1458.79,1154.83 1421.04,1167.03 1383.02,1178.15 1344.98,1188.31 1307.18,1197.63 1269.85,1206.25 1232.84,1214.03 1196.14,1220.93 1159.86,1227 1124.07,1232.27 1088.86,1236.78 1054.29,1240.56 1020.42,1243.63 987.294,1246.03 954.965,1247.78 923.463,1248.9 892.812,1249.41 863.028,1249.33 834.119,1248.68 806.084,1247.47 778.915,1245.71 752.634,1243.42 727.243,1240.6 702.732,1237.28 679.094,1233.44 656.319,1229.11 634.398,1224.27 613.319,1218.94 593.072,1213.13 573.645,1206.82 555.026,1200.04 537.202,1192.76 520.158,1185.01 503.882,1176.78 488.357,1168.06 473.57,1158.86 459.503,1149.17 446.14,1139 433.464,1128.34 421.458,1117.19 410.117,1105.54 399.433,1093.4 389.392,1080.76 379.981,1067.61 371.19,1053.95 363.009,1039.77 355.431,1025.07 348.45,1009.85 342.061,994.098 336.261,977.823 331.047,961.024 326.421,943.7 322.383,925.855 318.937,907.491 316.086,888.612 313.838,869.224 312.198,849.331 311.176,828.942 310.783,808.065 311.031,786.706 311.933,764.878 313.508,742.608 315.782,719.939 318.779,696.88 322.524,673.445 327.046,649.654 332.376,625.536 338.551,601.128 345.607,576.473 353.586,551.622 362.532,526.635 372.493,501.576 383.519,476.52 395.663,451.547 408.982,426.747 423.535,402.215 439.385,378.054 456.598,354.375 475.243,331.298 495.391,308.947 517.117,287.456 540.5,266.965 565.621,247.624 592.563,229.587 621.415,213.018 652.265,198.087 685.172,184.93 720.157,173.726 757.237,164.699 796.396,158.047 837.586,153.94 880.728,152.519 925.709,153.898 972.384,158.164 1020.58,165.376 1070.08,175.566 1120.65,188.737 1172.01,204.865 1223.86,223.9 1275.87,245.762 1327.65,270.343 1378.81,297.513 1428.94,327.115 1477.52,358.858 1524,392.416 1567.91,427.477 1608.83,463.734 1646.37,500.893 1680.22,538.667 1710.1,576.78 1735.79,614.964 1757.12,652.961 1773.96,690.523 1786.26,727.411 1793.99,763.396 1797.18,798.256 1795.94,831.82 1790.45,864.053 1780.99,894.899 1767.84,924.313 1751.25,952.258 1731.51,978.711 1708.87,1003.66 1683.6,1027.1 1655.97,1049.03 1626.25,1069.49 1594.69,1088.51 1561.57,1106.11 1527.14,1122.37 1491.67,1137.34 1455.41,1151.1 1418.64,1163.74 1381.6,1175.35 1344.52,1186.02 1307.4,1195.71 1270.34,1204.43 1233.47,1212.25 1196.9,1219.19 1160.72,1225.29 1125.04,1230.6 1089.92,1235.15 1055.45,1238.97 1021.69,1242.08 988.668,1244.52 956.441,1246.32 925.034,1247.48 894.464,1248.03 864.74,1247.99 835.858,1247.36 807.832,1246.18 780.691,1244.45 754.434,1242.19 729.057,1239.41 704.554,1236.11 680.92,1232.3 658.147,1227.98 636.228,1223.17 615.152,1217.87 594.91,1212.08 575.49,1205.8 556.879,1199.04 539.063,1191.79 522.029,1184.07 505.759,1175.87 490.237,1167.18 475.445,1158.02 461.363,1148.36 447.981,1138.22 435.292,1127.6 423.281,1116.49 411.933,1104.88 401.236,1092.77 391.178,1080.15 381.749,1067.02 372.938,1053.38 364.739,1039.23 357.144,1024.56 350.148,1009.37 343.747,993.662 337.938,977.434 332.719,960.686 328.09,943.419 324.052,925.635 320.608,907.335 317.759,888.522 315.512,869.198 313.873,849.367 312.848,829.035 312.468,808.25 312.748,787.027 313.697,765.359 315.326,743.249 317.651,720.703 320.691,697.736 324.47,674.37 329.012,650.633 334.35,626.559 340.515,602.189 347.546,577.573 355.483,552.765 364.372,527.826 374.259,502.825 385.197,477.837 397.242,452.944 410.452,428.234 424.89,403.803 440.622,379.752 457.718,356.191 476.253,333.234 496.302,311.004 517.947,289.63 541.272,269.248 566.365,249.999 593.316,232.031 622.166,215.454 652.98,200.475 685.823,187.322 720.731,176.203 757.711,167.305 796.739,160.791 837.764,156.806 880.705,155.473 925.449,156.891 971.859,161.142 1019.76,168.284 1068.96,178.354 1119.23,191.368 1170.31,207.322 1221.92,226.188 1273.73,247.92 1325.41,272.453 1376.46,299.595 1426.34,329.059 1474.55,360.562 1520.61,393.822 1564.12,428.559 1604.67,464.497 1641.92,501.358 1675.56,538.869 1705.34,576.76 1731.02,614.759 1752.4,652.6 1769.36,690.017 1781.77,726.745 1789.57,762.525 1792.8,797.165 1791.7,830.632 1786.49,862.832 1777.39,893.685 1764.63,923.125 1748.44,951.098 1729.05,977.565 1706.7,1002.5 1681.65,1025.9 1654.16,1047.76 1624.48,1068.1 1592.88,1086.95 1559.63,1104.36 1525.01,1120.38 1489.32,1135.09 1452.83,1148.59 1415.85,1160.95 1378.68,1172.32 1341.64,1182.81 1304.87,1192.48 1268.18,1201.21 1231.66,1209.03 1195.42,1215.98 1159.57,1222.1 1124.19,1227.42 1089.36,1231.98 1055.15,1235.8 1021.62,1238.93 988.829,1241.38 956.81,1243.19 925.597,1244.36 895.21,1244.92 865.661,1244.89 836.952,1244.29 809.088,1243.12 782.098,1241.41 755.983,1239.17 730.738,1236.4 706.358,1233.11 682.838,1229.32 660.171,1225.02 638.348,1220.23 617.362,1214.94 597.201,1209.16 577.856,1202.9 559.315,1196.16 541.565,1188.93 524.592,1181.22 508.381,1173.03 492.917,1164.36 478.183,1155.21 464.161,1145.58 450.834,1135.46 438.186,1124.85 426.217,1113.76 414.913,1102.17 404.259,1090.09 394.244,1077.51 384.857,1064.42 376.088,1050.82 367.93,1036.7 360.375,1022.08 353.419,1006.93 347.056,991.264 341.285,975.083 336.104,958.384 331.514,941.169 327.514,923.441 324.109,905.202 321.302,886.456 319.098,867.208 317.505,847.461 316.53,827.223 316.184,806.499 316.484,785.318 317.456,763.72 319.115,741.706 321.477,719.278 324.562,696.451 328.394,673.244 332.999,649.681 338.409,625.797 344.656,601.631 351.776,577.23 359.812,552.648 368.805,527.946 378.803,503.191 389.856,478.458 402.017,453.828 415.344,429.39 429.896,405.239 445.737,381.478 462.933,358.216 481.556,335.568 501.679,313.658 523.377,292.616 546.733,272.579 571.828,253.691 598.75,236.103 627.583,219.962 658.358,205.39 691.13,192.604 725.934,181.821 762.775,173.235 801.63,167.016 842.446,163.309 885.137,162.239 929.59,163.904 975.661,168.382 1023.18,175.726 1071.94,185.965 1121.7,199.106 1172.21,215.132 1223.18,234.003 1274.27,255.654 1325.14,280.001 1375.4,306.926 1424.53,336.162 1472,367.415 1517.34,400.394 1560.12,434.814 1599.95,470.396 1636.49,506.864 1669.43,543.947 1698.52,581.379 1723.54,618.899 1744.32,656.252 1760.74,693.186 1772.7,729.453 1780.17,764.812 1783.15,799.044 1781.78,832.133 1776.29,864.009 1766.93,894.582 1753.95,923.772 1737.58,951.515 1718.08,977.76 1695.69,1002.47 1670.66,1025.62 1643.25,1047.21 1613.69,1067.23 1582.25,1085.71 1549.18,1102.68 1514.72,1118.19 1479.14,1132.29 1442.69,1145.06 1405.63,1156.59 1368.21,1166.98 1330.69,1176.35 1293.34,1184.83 1256.41,1192.55 1220.17,1199.68 1184.86,1206.37 1150.12,1212.39 1115.82,1217.63 1082.02,1222.11 1048.8,1225.87 1016.21,1228.93 984.29,1231.33 953.095,1233.07 922.659,1234.19 893.009,1234.71 864.17,1234.64 836.157,1234 808.979,1232.8 782.637,1231.05 757.127,1228.77 732.446,1225.97 708.605,1222.65 685.6,1218.83 "/>
<circle clip-path="url(#clip822)" cx="882.221" cy="805.529" r="21.6" fill="#e26f46" fill-rule="evenodd" fill-opacity="1" stroke="#000000" stroke-opacity="1" stroke-width="3.072"/>
<path clip-path="url(#clip820)" d="M1275.68 245.969 L1818.79 245.969 L1818.79 90.4494 L1275.68 90.4494  Z" fill="#ffffff" fill-rule="evenodd" fill-opacity="1"/>
<polyline clip-path="url(#clip820)" style="stroke:#000000; stroke-linecap:round; stroke-linejoin:round; stroke-width:4; stroke-opacity:1; fill:none" points="1275.68,245.969 1818.79,245.969 1818.79,90.4494 1275.68,90.4494 1275.68,245.969 "/>
<polyline clip-path="url(#clip820)" style="stroke:#009af9; stroke-linecap:round; stroke-linejoin:round; stroke-width:4; stroke-opacity:1; fill:none" points="1293.67,142.289 1401.59,142.289 "/>
<path clip-path="url(#clip820)" d="M1424.26 128.852 L1424.26 141.838 L1430.14 141.838 Q1433.4 141.838 1435.18 140.148 Q1436.97 138.458 1436.97 135.333 Q1436.97 132.232 1435.18 130.542 Q1433.4 128.852 1430.14 128.852 L1424.26 128.852 M1419.58 125.009 L1430.14 125.009 Q1435.95 125.009 1438.91 127.648 Q1441.9 130.264 1441.9 135.333 Q1441.9 140.449 1438.91 143.065 Q1435.95 145.681 1430.14 145.681 L1424.26 145.681 L1424.26 159.569 L1419.58 159.569 L1419.58 125.009 Z" fill="#000000" fill-rule="nonzero" fill-opacity="1" /><path clip-path="url(#clip820)" d="M1469.54 143.921 L1469.54 159.569 L1465.28 159.569 L1465.28 144.06 Q1465.28 140.38 1463.84 138.551 Q1462.41 136.722 1459.54 136.722 Q1456.09 136.722 1454.1 138.921 Q1452.1 141.12 1452.1 144.917 L1452.1 159.569 L1447.82 159.569 L1447.82 123.551 L1452.1 123.551 L1452.1 137.671 Q1453.63 135.333 1455.69 134.176 Q1457.78 133.019 1460.48 133.019 Q1464.95 133.019 1467.24 135.796 Q1469.54 138.551 1469.54 143.921 Z" fill="#000000" fill-rule="nonzero" fill-opacity="1" /><path clip-path="url(#clip820)" d="M1489.81 146.537 Q1484.65 146.537 1482.66 147.718 Q1480.67 148.898 1480.67 151.745 Q1480.67 154.014 1482.15 155.356 Q1483.66 156.676 1486.23 156.676 Q1489.77 156.676 1491.9 154.176 Q1494.05 151.653 1494.05 147.486 L1494.05 146.537 L1489.81 146.537 M1498.31 144.778 L1498.31 159.569 L1494.05 159.569 L1494.05 155.634 Q1492.59 157.995 1490.41 159.13 Q1488.24 160.241 1485.09 160.241 Q1481.11 160.241 1478.75 158.019 Q1476.41 155.773 1476.41 152.023 Q1476.41 147.648 1479.33 145.426 Q1482.27 143.204 1488.08 143.204 L1494.05 143.204 L1494.05 142.787 Q1494.05 139.847 1492.1 138.25 Q1490.18 136.63 1486.69 136.63 Q1484.47 136.63 1482.36 137.162 Q1480.25 137.695 1478.31 138.759 L1478.31 134.824 Q1480.65 133.921 1482.85 133.482 Q1485.04 133.019 1487.13 133.019 Q1492.75 133.019 1495.53 135.935 Q1498.31 138.852 1498.31 144.778 Z" fill="#000000" fill-rule="nonzero" fill-opacity="1" /><path clip-path="url(#clip820)" d="M1523.61 134.408 L1523.61 138.435 Q1521.8 137.509 1519.86 137.046 Q1517.91 136.583 1515.83 136.583 Q1512.66 136.583 1511.06 137.556 Q1509.49 138.528 1509.49 140.472 Q1509.49 141.954 1510.62 142.81 Q1511.76 143.644 1515.18 144.407 L1516.64 144.732 Q1521.18 145.704 1523.08 147.486 Q1525 149.245 1525 152.417 Q1525 156.028 1522.13 158.134 Q1519.28 160.241 1514.28 160.241 Q1512.2 160.241 1509.93 159.824 Q1507.68 159.431 1505.18 158.62 L1505.18 154.222 Q1507.54 155.449 1509.84 156.074 Q1512.13 156.676 1514.37 156.676 Q1517.38 156.676 1519 155.657 Q1520.62 154.616 1520.62 152.741 Q1520.62 151.005 1519.44 150.079 Q1518.29 149.153 1514.33 148.296 L1512.85 147.949 Q1508.89 147.116 1507.13 145.403 Q1505.37 143.667 1505.37 140.657 Q1505.37 137 1507.96 135.009 Q1510.55 133.019 1515.32 133.019 Q1517.68 133.019 1519.77 133.366 Q1521.85 133.713 1523.61 134.408 Z" fill="#000000" fill-rule="nonzero" fill-opacity="1" /><path clip-path="url(#clip820)" d="M1553.96 145.542 L1553.96 147.625 L1534.37 147.625 Q1534.65 152.023 1537.01 154.338 Q1539.4 156.63 1543.63 156.63 Q1546.09 156.63 1548.38 156.028 Q1550.69 155.426 1552.96 154.222 L1552.96 158.25 Q1550.67 159.222 1548.26 159.731 Q1545.85 160.241 1543.38 160.241 Q1537.17 160.241 1533.54 156.63 Q1529.93 153.019 1529.93 146.861 Q1529.93 140.495 1533.35 136.769 Q1536.8 133.019 1542.64 133.019 Q1547.87 133.019 1550.9 136.398 Q1553.96 139.755 1553.96 145.542 M1549.7 144.292 Q1549.65 140.796 1547.73 138.713 Q1545.83 136.63 1542.68 136.63 Q1539.12 136.63 1536.97 138.644 Q1534.84 140.657 1534.51 144.315 L1549.7 144.292 Z" fill="#000000" fill-rule="nonzero" fill-opacity="1" /><path clip-path="url(#clip820)" d="M1580.23 126.283 L1580.23 133.644 L1589 133.644 L1589 136.954 L1580.23 136.954 L1580.23 151.028 Q1580.23 154.199 1581.09 155.102 Q1581.97 156.005 1584.63 156.005 L1589 156.005 L1589 159.569 L1584.63 159.569 Q1579.7 159.569 1577.82 157.741 Q1575.95 155.889 1575.95 151.028 L1575.95 136.954 L1572.82 136.954 L1572.82 133.644 L1575.95 133.644 L1575.95 126.283 L1580.23 126.283 Z" fill="#000000" fill-rule="nonzero" fill-opacity="1" /><path clip-path="url(#clip820)" d="M1609.63 137.625 Q1608.91 137.208 1608.05 137.023 Q1607.22 136.815 1606.2 136.815 Q1602.59 136.815 1600.65 139.176 Q1598.72 141.514 1598.72 145.912 L1598.72 159.569 L1594.44 159.569 L1594.44 133.644 L1598.72 133.644 L1598.72 137.671 Q1600.07 135.31 1602.22 134.176 Q1604.37 133.019 1607.45 133.019 Q1607.89 133.019 1608.42 133.088 Q1608.96 133.134 1609.6 133.25 L1609.63 137.625 Z" fill="#000000" fill-rule="nonzero" fill-opacity="1" /><path clip-path="url(#clip820)" d="M1625.88 146.537 Q1620.72 146.537 1618.72 147.718 Q1616.73 148.898 1616.73 151.745 Q1616.73 154.014 1618.22 155.356 Q1619.72 156.676 1622.29 156.676 Q1625.83 156.676 1627.96 154.176 Q1630.11 151.653 1630.11 147.486 L1630.11 146.537 L1625.88 146.537 M1634.37 144.778 L1634.37 159.569 L1630.11 159.569 L1630.11 155.634 Q1628.65 157.995 1626.48 159.13 Q1624.3 160.241 1621.15 160.241 Q1617.17 160.241 1614.81 158.019 Q1612.47 155.773 1612.47 152.023 Q1612.47 147.648 1615.39 145.426 Q1618.33 143.204 1624.14 143.204 L1630.11 143.204 L1630.11 142.787 Q1630.11 139.847 1628.17 138.25 Q1626.25 136.63 1622.75 136.63 Q1620.53 136.63 1618.42 137.162 Q1616.32 137.695 1614.37 138.759 L1614.37 134.824 Q1616.71 133.921 1618.91 133.482 Q1621.11 133.019 1623.19 133.019 Q1628.82 133.019 1631.59 135.935 Q1634.37 138.852 1634.37 144.778 Z" fill="#000000" fill-rule="nonzero" fill-opacity="1" /><path clip-path="url(#clip820)" d="M1643.15 133.644 L1647.4 133.644 L1647.4 160.032 Q1647.4 164.986 1645.51 167.208 Q1643.63 169.43 1639.44 169.43 L1637.82 169.43 L1637.82 165.819 L1638.96 165.819 Q1641.39 165.819 1642.27 164.685 Q1643.15 163.574 1643.15 160.032 L1643.15 133.644 M1643.15 123.551 L1647.4 123.551 L1647.4 128.945 L1643.15 128.945 L1643.15 123.551 Z" fill="#000000" fill-rule="nonzero" fill-opacity="1" /><path clip-path="url(#clip820)" d="M1678.49 145.542 L1678.49 147.625 L1658.91 147.625 Q1659.19 152.023 1661.55 154.338 Q1663.93 156.63 1668.17 156.63 Q1670.62 156.63 1672.91 156.028 Q1675.23 155.426 1677.5 154.222 L1677.5 158.25 Q1675.21 159.222 1672.8 159.731 Q1670.39 160.241 1667.91 160.241 Q1661.71 160.241 1658.08 156.63 Q1654.46 153.019 1654.46 146.861 Q1654.46 140.495 1657.89 136.769 Q1661.34 133.019 1667.17 133.019 Q1672.4 133.019 1675.44 136.398 Q1678.49 139.755 1678.49 145.542 M1674.23 144.292 Q1674.19 140.796 1672.27 138.713 Q1670.37 136.63 1667.22 136.63 Q1663.65 136.63 1661.5 138.644 Q1659.37 140.657 1659.05 144.315 L1674.23 144.292 Z" fill="#000000" fill-rule="nonzero" fill-opacity="1" /><path clip-path="url(#clip820)" d="M1704.14 134.639 L1704.14 138.62 Q1702.34 137.625 1700.51 137.139 Q1698.7 136.63 1696.85 136.63 Q1692.71 136.63 1690.41 139.269 Q1688.12 141.884 1688.12 146.63 Q1688.12 151.375 1690.41 154.014 Q1692.71 156.63 1696.85 156.63 Q1698.7 156.63 1700.51 156.144 Q1702.34 155.634 1704.14 154.639 L1704.14 158.574 Q1702.36 159.407 1700.44 159.824 Q1698.54 160.241 1696.39 160.241 Q1690.53 160.241 1687.08 156.56 Q1683.63 152.88 1683.63 146.63 Q1683.63 140.287 1687.1 136.653 Q1690.6 133.019 1696.66 133.019 Q1698.63 133.019 1700.51 133.435 Q1702.38 133.829 1704.14 134.639 Z" fill="#000000" fill-rule="nonzero" fill-opacity="1" /><path clip-path="url(#clip820)" d="M1715.76 126.283 L1715.76 133.644 L1724.53 133.644 L1724.53 136.954 L1715.76 136.954 L1715.76 151.028 Q1715.76 154.199 1716.62 155.102 Q1717.5 156.005 1720.16 156.005 L1724.53 156.005 L1724.53 159.569 L1720.16 159.569 Q1715.23 159.569 1713.35 157.741 Q1711.48 155.889 1711.48 151.028 L1711.48 136.954 L1708.35 136.954 L1708.35 133.644 L1711.48 133.644 L1711.48 126.283 L1715.76 126.283 Z" fill="#000000" fill-rule="nonzero" fill-opacity="1" /><path clip-path="url(#clip820)" d="M1740.18 136.63 Q1736.76 136.63 1734.77 139.315 Q1732.77 141.977 1732.77 146.63 Q1732.77 151.282 1734.74 153.968 Q1736.73 156.63 1740.18 156.63 Q1743.58 156.63 1745.58 153.944 Q1747.57 151.259 1747.57 146.63 Q1747.57 142.023 1745.58 139.338 Q1743.58 136.63 1740.18 136.63 M1740.18 133.019 Q1745.74 133.019 1748.91 136.63 Q1752.08 140.241 1752.08 146.63 Q1752.08 152.995 1748.91 156.63 Q1745.74 160.241 1740.18 160.241 Q1734.6 160.241 1731.43 156.63 Q1728.28 152.995 1728.28 146.63 Q1728.28 140.241 1731.43 136.63 Q1734.6 133.019 1740.18 133.019 Z" fill="#000000" fill-rule="nonzero" fill-opacity="1" /><path clip-path="url(#clip820)" d="M1774.16 137.625 Q1773.45 137.208 1772.59 137.023 Q1771.76 136.815 1770.74 136.815 Q1767.13 136.815 1765.18 139.176 Q1763.26 141.514 1763.26 145.912 L1763.26 159.569 L1758.98 159.569 L1758.98 133.644 L1763.26 133.644 L1763.26 137.671 Q1764.6 135.31 1766.76 134.176 Q1768.91 133.019 1771.99 133.019 Q1772.43 133.019 1772.96 133.088 Q1773.49 133.134 1774.14 133.25 L1774.16 137.625 Z" fill="#000000" fill-rule="nonzero" fill-opacity="1" /><path clip-path="url(#clip820)" d="M1789.42 161.977 Q1787.61 166.606 1785.9 168.018 Q1784.19 169.43 1781.32 169.43 L1777.91 169.43 L1777.91 165.866 L1780.41 165.866 Q1782.17 165.866 1783.14 165.032 Q1784.12 164.199 1785.3 161.097 L1786.06 159.153 L1775.58 133.644 L1780.09 133.644 L1788.19 153.921 L1796.29 133.644 L1800.81 133.644 L1789.42 161.977 Z" fill="#000000" fill-rule="nonzero" fill-opacity="1" /><circle clip-path="url(#clip820)" cx="1347.63" cy="194.129" r="21.2677" fill="#e26f46" fill-rule="evenodd" fill-opacity="1" stroke="#000000" stroke-opacity="1" stroke-width="3.02474"/>
<path clip-path="url(#clip820)" d="M1441.83 177.984 L1441.83 182.544 Q1439.17 181.271 1436.8 180.646 Q1434.44 180.021 1432.24 180.021 Q1428.42 180.021 1426.34 181.502 Q1424.28 182.984 1424.28 185.715 Q1424.28 188.007 1425.65 189.187 Q1427.04 190.345 1430.88 191.062 L1433.7 191.641 Q1438.93 192.636 1441.41 195.16 Q1443.91 197.659 1443.91 201.872 Q1443.91 206.896 1440.53 209.488 Q1437.17 212.081 1430.67 212.081 Q1428.22 212.081 1425.44 211.525 Q1422.68 210.97 1419.72 209.882 L1419.72 205.067 Q1422.57 206.664 1425.3 207.474 Q1428.03 208.284 1430.67 208.284 Q1434.67 208.284 1436.85 206.71 Q1439.03 205.136 1439.03 202.22 Q1439.03 199.673 1437.45 198.238 Q1435.9 196.803 1432.34 196.085 L1429.49 195.53 Q1424.26 194.488 1421.92 192.266 Q1419.58 190.044 1419.58 186.085 Q1419.58 181.502 1422.8 178.863 Q1426.04 176.224 1431.71 176.224 Q1434.14 176.224 1436.67 176.664 Q1439.19 177.104 1441.83 177.984 Z" fill="#000000" fill-rule="nonzero" fill-opacity="1" /><path clip-path="url(#clip820)" d="M1455.23 178.123 L1455.23 185.484 L1464 185.484 L1464 188.794 L1455.23 188.794 L1455.23 202.868 Q1455.23 206.039 1456.09 206.942 Q1456.97 207.845 1459.63 207.845 L1464 207.845 L1464 211.409 L1459.63 211.409 Q1454.7 211.409 1452.82 209.581 Q1450.95 207.729 1450.95 202.868 L1450.95 188.794 L1447.82 188.794 L1447.82 185.484 L1450.95 185.484 L1450.95 178.123 L1455.23 178.123 Z" fill="#000000" fill-rule="nonzero" fill-opacity="1" /><path clip-path="url(#clip820)" d="M1481.39 198.377 Q1476.23 198.377 1474.23 199.558 Q1472.24 200.738 1472.24 203.585 Q1472.24 205.854 1473.73 207.196 Q1475.23 208.516 1477.8 208.516 Q1481.34 208.516 1483.47 206.016 Q1485.62 203.493 1485.62 199.326 L1485.62 198.377 L1481.39 198.377 M1489.88 196.618 L1489.88 211.409 L1485.62 211.409 L1485.62 207.474 Q1484.16 209.835 1481.99 210.97 Q1479.81 212.081 1476.66 212.081 Q1472.68 212.081 1470.32 209.859 Q1467.98 207.613 1467.98 203.863 Q1467.98 199.488 1470.9 197.266 Q1473.84 195.044 1479.65 195.044 L1485.62 195.044 L1485.62 194.627 Q1485.62 191.687 1483.68 190.09 Q1481.76 188.47 1478.26 188.47 Q1476.04 188.47 1473.93 189.002 Q1471.83 189.535 1469.88 190.599 L1469.88 186.664 Q1472.22 185.761 1474.42 185.322 Q1476.62 184.859 1478.7 184.859 Q1484.33 184.859 1487.1 187.775 Q1489.88 190.692 1489.88 196.618 Z" fill="#000000" fill-rule="nonzero" fill-opacity="1" /><path clip-path="url(#clip820)" d="M1502.87 178.123 L1502.87 185.484 L1511.64 185.484 L1511.64 188.794 L1502.87 188.794 L1502.87 202.868 Q1502.87 206.039 1503.72 206.942 Q1504.6 207.845 1507.27 207.845 L1511.64 207.845 L1511.64 211.409 L1507.27 211.409 Q1502.34 211.409 1500.46 209.581 Q1498.59 207.729 1498.59 202.868 L1498.59 188.794 L1495.46 188.794 L1495.46 185.484 L1498.59 185.484 L1498.59 178.123 L1502.87 178.123 Z" fill="#000000" fill-rule="nonzero" fill-opacity="1" /><path clip-path="url(#clip820)" d="M1517.24 185.484 L1521.5 185.484 L1521.5 211.409 L1517.24 211.409 L1517.24 185.484 M1517.24 175.391 L1521.5 175.391 L1521.5 180.785 L1517.24 180.785 L1517.24 175.391 Z" fill="#000000" fill-rule="nonzero" fill-opacity="1" /><path clip-path="url(#clip820)" d="M1540.46 188.47 Q1537.03 188.47 1535.04 191.155 Q1533.05 193.817 1533.05 198.47 Q1533.05 203.122 1535.02 205.808 Q1537.01 208.47 1540.46 208.47 Q1543.86 208.47 1545.85 205.784 Q1547.85 203.099 1547.85 198.47 Q1547.85 193.863 1545.85 191.178 Q1543.86 188.47 1540.46 188.47 M1540.46 184.859 Q1546.02 184.859 1549.19 188.47 Q1552.36 192.081 1552.36 198.47 Q1552.36 204.835 1549.19 208.47 Q1546.02 212.081 1540.46 212.081 Q1534.88 212.081 1531.71 208.47 Q1528.56 204.835 1528.56 198.47 Q1528.56 192.081 1531.71 188.47 Q1534.88 184.859 1540.46 184.859 Z" fill="#000000" fill-rule="nonzero" fill-opacity="1" /><path clip-path="url(#clip820)" d="M1580.97 195.761 L1580.97 211.409 L1576.71 211.409 L1576.71 195.9 Q1576.71 192.22 1575.28 190.391 Q1573.84 188.562 1570.97 188.562 Q1567.52 188.562 1565.53 190.761 Q1563.54 192.96 1563.54 196.757 L1563.54 211.409 L1559.26 211.409 L1559.26 185.484 L1563.54 185.484 L1563.54 189.511 Q1565.07 187.173 1567.13 186.016 Q1569.21 184.859 1571.92 184.859 Q1576.39 184.859 1578.68 187.636 Q1580.97 190.391 1580.97 195.761 Z" fill="#000000" fill-rule="nonzero" fill-opacity="1" /><path clip-path="url(#clip820)" d="M1601.25 198.377 Q1596.09 198.377 1594.09 199.558 Q1592.1 200.738 1592.1 203.585 Q1592.1 205.854 1593.59 207.196 Q1595.09 208.516 1597.66 208.516 Q1601.2 208.516 1603.33 206.016 Q1605.48 203.493 1605.48 199.326 L1605.48 198.377 L1601.25 198.377 M1609.74 196.618 L1609.74 211.409 L1605.48 211.409 L1605.48 207.474 Q1604.03 209.835 1601.85 210.97 Q1599.67 212.081 1596.53 212.081 Q1592.54 212.081 1590.18 209.859 Q1587.84 207.613 1587.84 203.863 Q1587.84 199.488 1590.76 197.266 Q1593.7 195.044 1599.51 195.044 L1605.48 195.044 L1605.48 194.627 Q1605.48 191.687 1603.54 190.09 Q1601.62 188.47 1598.12 188.47 Q1595.9 188.47 1593.79 189.002 Q1591.69 189.535 1589.74 190.599 L1589.74 186.664 Q1592.08 185.761 1594.28 185.322 Q1596.48 184.859 1598.56 184.859 Q1604.19 184.859 1606.97 187.775 Q1609.74 190.692 1609.74 196.618 Z" fill="#000000" fill-rule="nonzero" fill-opacity="1" /><path clip-path="url(#clip820)" d="M1633.54 189.465 Q1632.82 189.048 1631.97 188.863 Q1631.13 188.655 1630.11 188.655 Q1626.5 188.655 1624.56 191.016 Q1622.64 193.354 1622.64 197.752 L1622.64 211.409 L1618.35 211.409 L1618.35 185.484 L1622.64 185.484 L1622.64 189.511 Q1623.98 187.15 1626.13 186.016 Q1628.28 184.859 1631.36 184.859 Q1631.8 184.859 1632.34 184.928 Q1632.87 184.974 1633.52 185.09 L1633.54 189.465 Z" fill="#000000" fill-rule="nonzero" fill-opacity="1" /><path clip-path="url(#clip820)" d="M1648.79 213.817 Q1646.99 218.446 1645.28 219.858 Q1643.56 221.27 1640.69 221.27 L1637.29 221.27 L1637.29 217.706 L1639.79 217.706 Q1641.55 217.706 1642.52 216.872 Q1643.49 216.039 1644.67 212.937 L1645.44 210.993 L1634.95 185.484 L1639.46 185.484 L1647.57 205.761 L1655.67 185.484 L1660.18 185.484 L1648.79 213.817 Z" fill="#000000" fill-rule="nonzero" fill-opacity="1" /><path clip-path="url(#clip820)" d="M1685.25 207.521 L1685.25 221.27 L1680.97 221.27 L1680.97 185.484 L1685.25 185.484 L1685.25 189.419 Q1686.59 187.104 1688.63 185.993 Q1690.69 184.859 1693.54 184.859 Q1698.26 184.859 1701.2 188.609 Q1704.16 192.359 1704.16 198.47 Q1704.16 204.581 1701.2 208.331 Q1698.26 212.081 1693.54 212.081 Q1690.69 212.081 1688.63 210.97 Q1686.59 209.835 1685.25 207.521 M1699.74 198.47 Q1699.74 193.771 1697.8 191.109 Q1695.88 188.423 1692.5 188.423 Q1689.12 188.423 1687.17 191.109 Q1685.25 193.771 1685.25 198.47 Q1685.25 203.169 1687.17 205.854 Q1689.12 208.516 1692.5 208.516 Q1695.88 208.516 1697.8 205.854 Q1699.74 203.169 1699.74 198.47 Z" fill="#000000" fill-rule="nonzero" fill-opacity="1" /><path clip-path="url(#clip820)" d="M1721.27 188.47 Q1717.84 188.47 1715.85 191.155 Q1713.86 193.817 1713.86 198.47 Q1713.86 203.122 1715.83 205.808 Q1717.82 208.47 1721.27 208.47 Q1724.67 208.47 1726.66 205.784 Q1728.65 203.099 1728.65 198.47 Q1728.65 193.863 1726.66 191.178 Q1724.67 188.47 1721.27 188.47 M1721.27 184.859 Q1726.83 184.859 1730 188.47 Q1733.17 192.081 1733.17 198.47 Q1733.17 204.835 1730 208.47 Q1726.83 212.081 1721.27 212.081 Q1715.69 212.081 1712.52 208.47 Q1709.37 204.835 1709.37 198.47 Q1709.37 192.081 1712.52 188.47 Q1715.69 184.859 1721.27 184.859 Z" fill="#000000" fill-rule="nonzero" fill-opacity="1" /><path clip-path="url(#clip820)" d="M1740.23 185.484 L1744.49 185.484 L1744.49 211.409 L1740.23 211.409 L1740.23 185.484 M1740.23 175.391 L1744.49 175.391 L1744.49 180.785 L1740.23 180.785 L1740.23 175.391 Z" fill="#000000" fill-rule="nonzero" fill-opacity="1" /><path clip-path="url(#clip820)" d="M1774.95 195.761 L1774.95 211.409 L1770.69 211.409 L1770.69 195.9 Q1770.69 192.22 1769.26 190.391 Q1767.82 188.562 1764.95 188.562 Q1761.5 188.562 1759.51 190.761 Q1757.52 192.96 1757.52 196.757 L1757.52 211.409 L1753.24 211.409 L1753.24 185.484 L1757.52 185.484 L1757.52 189.511 Q1759.05 187.173 1761.11 186.016 Q1763.19 184.859 1765.9 184.859 Q1770.37 184.859 1772.66 187.636 Q1774.95 190.391 1774.95 195.761 Z" fill="#000000" fill-rule="nonzero" fill-opacity="1" /><path clip-path="url(#clip820)" d="M1787.66 178.123 L1787.66 185.484 L1796.43 185.484 L1796.43 188.794 L1787.66 188.794 L1787.66 202.868 Q1787.66 206.039 1788.52 206.942 Q1789.39 207.845 1792.06 207.845 L1796.43 207.845 L1796.43 211.409 L1792.06 211.409 Q1787.13 211.409 1785.25 209.581 Q1783.38 207.729 1783.38 202.868 L1783.38 188.794 L1780.25 188.794 L1780.25 185.484 L1783.38 185.484 L1783.38 178.123 L1787.66 178.123 Z" fill="#000000" fill-rule="nonzero" fill-opacity="1" /></svg>
