<?xml version="1.0" encoding="utf-8"?>
<svg xmlns="http://www.w3.org/2000/svg" xmlns:xlink="http://www.w3.org/1999/xlink" width="800" height="600" viewBox="0 0 3200 2400">
<defs>
  <clipPath id="clip570">
    <rect x="0" y="0" width="3200" height="2400"/>
  </clipPath>
</defs>
<path clip-path="url(#clip570)" d="M0 2400 L3200 2400 L3200 0 L0 0  Z" fill="#ffffff" fill-rule="evenodd" fill-opacity="1"/>
<defs>
  <clipPath id="clip571">
    <rect x="189" y="131" width="2964" height="2075"/>
  </clipPath>
</defs>
<path clip-path="url(#clip570)" d="M442.675 2204.92 L3152.76 2204.92 L3152.76 131.032 L442.675 131.032  Z" fill="#ffffff" fill-rule="evenodd" fill-opacity="1"/>
<defs>
  <clipPath id="clip572">
    <rect x="442" y="131" width="2711" height="2075"/>
  </clipPath>
</defs>
<polyline clip-path="url(#clip572)" style="stroke:#000000; stroke-linecap:round; stroke-linejoin:round; stroke-width:2; stroke-opacity:0.1; fill:none" points="803.451,2204.92 803.451,131.032 "/>
<polyline clip-path="url(#clip572)" style="stroke:#000000; stroke-linecap:round; stroke-linejoin:round; stroke-width:2; stroke-opacity:0.1; fill:none" points="1371.6,2204.92 1371.6,131.032 "/>
<polyline clip-path="url(#clip572)" style="stroke:#000000; stroke-linecap:round; stroke-linejoin:round; stroke-width:2; stroke-opacity:0.1; fill:none" points="1939.75,2204.92 1939.75,131.032 "/>
<polyline clip-path="url(#clip572)" style="stroke:#000000; stroke-linecap:round; stroke-linejoin:round; stroke-width:2; stroke-opacity:0.1; fill:none" points="2507.9,2204.92 2507.9,131.032 "/>
<polyline clip-path="url(#clip572)" style="stroke:#000000; stroke-linecap:round; stroke-linejoin:round; stroke-width:2; stroke-opacity:0.1; fill:none" points="3076.06,2204.92 3076.06,131.032 "/>
<polyline clip-path="url(#clip572)" style="stroke:#000000; stroke-linecap:round; stroke-linejoin:round; stroke-width:2; stroke-opacity:0.1; fill:none" points="442.675,1909.07 3152.76,1909.07 "/>
<polyline clip-path="url(#clip572)" style="stroke:#000000; stroke-linecap:round; stroke-linejoin:round; stroke-width:2; stroke-opacity:0.1; fill:none" points="442.675,1553.35 3152.76,1553.35 "/>
<polyline clip-path="url(#clip572)" style="stroke:#000000; stroke-linecap:round; stroke-linejoin:round; stroke-width:2; stroke-opacity:0.1; fill:none" points="442.675,1197.62 3152.76,1197.62 "/>
<polyline clip-path="url(#clip572)" style="stroke:#000000; stroke-linecap:round; stroke-linejoin:round; stroke-width:2; stroke-opacity:0.1; fill:none" points="442.675,841.893 3152.76,841.893 "/>
<polyline clip-path="url(#clip572)" style="stroke:#000000; stroke-linecap:round; stroke-linejoin:round; stroke-width:2; stroke-opacity:0.1; fill:none" points="442.675,486.166 3152.76,486.166 "/>
<polyline clip-path="url(#clip570)" style="stroke:#000000; stroke-linecap:round; stroke-linejoin:round; stroke-width:4; stroke-opacity:1; fill:none" points="442.675,2204.92 3152.76,2204.92 "/>
<polyline clip-path="url(#clip570)" style="stroke:#000000; stroke-linecap:round; stroke-linejoin:round; stroke-width:4; stroke-opacity:1; fill:none" points="803.451,2204.92 803.451,2186.02 "/>
<polyline clip-path="url(#clip570)" style="stroke:#000000; stroke-linecap:round; stroke-linejoin:round; stroke-width:4; stroke-opacity:1; fill:none" points="1371.6,2204.92 1371.6,2186.02 "/>
<polyline clip-path="url(#clip570)" style="stroke:#000000; stroke-linecap:round; stroke-linejoin:round; stroke-width:4; stroke-opacity:1; fill:none" points="1939.75,2204.92 1939.75,2186.02 "/>
<polyline clip-path="url(#clip570)" style="stroke:#000000; stroke-linecap:round; stroke-linejoin:round; stroke-width:4; stroke-opacity:1; fill:none" points="2507.9,2204.92 2507.9,2186.02 "/>
<polyline clip-path="url(#clip570)" style="stroke:#000000; stroke-linecap:round; stroke-linejoin:round; stroke-width:4; stroke-opacity:1; fill:none" points="3076.06,2204.92 3076.06,2186.02 "/>
<path clip-path="url(#clip570)" d="M781.634 2242.24 Q778.023 2242.24 776.194 2245.8 Q774.389 2249.34 774.389 2256.47 Q774.389 2263.58 776.194 2267.15 Q778.023 2270.69 781.634 2270.69 Q785.268 2270.69 787.074 2267.15 Q788.903 2263.58 788.903 2256.47 Q788.903 2249.34 787.074 2245.8 Q785.268 2242.24 781.634 2242.24 M781.634 2238.53 Q787.444 2238.53 790.5 2243.14 Q793.579 2247.72 793.579 2256.47 Q793.579 2265.2 790.5 2269.81 Q787.444 2274.39 781.634 2274.39 Q775.824 2274.39 772.745 2269.81 Q769.69 2265.2 769.69 2256.47 Q769.69 2247.72 772.745 2243.14 Q775.824 2238.53 781.634 2238.53 Z" fill="#000000" fill-rule="nonzero" fill-opacity="1" /><path clip-path="url(#clip570)" d="M801.796 2267.84 L806.68 2267.84 L806.68 2273.72 L801.796 2273.72 L801.796 2267.84 Z" fill="#000000" fill-rule="nonzero" fill-opacity="1" /><path clip-path="url(#clip570)" d="M820.893 2269.78 L837.213 2269.78 L837.213 2273.72 L815.268 2273.72 L815.268 2269.78 Q817.93 2267.03 822.514 2262.4 Q827.12 2257.75 828.301 2256.41 Q830.546 2253.88 831.426 2252.15 Q832.328 2250.39 832.328 2248.7 Q832.328 2245.94 830.384 2244.21 Q828.463 2242.47 825.361 2242.47 Q823.162 2242.47 820.708 2243.23 Q818.277 2244 815.5 2245.55 L815.5 2240.83 Q818.324 2239.69 820.777 2239.11 Q823.231 2238.53 825.268 2238.53 Q830.639 2238.53 833.833 2241.22 Q837.027 2243.91 837.027 2248.4 Q837.027 2250.53 836.217 2252.45 Q835.43 2254.34 833.324 2256.94 Q832.745 2257.61 829.643 2260.83 Q826.541 2264.02 820.893 2269.78 Z" fill="#000000" fill-rule="nonzero" fill-opacity="1" /><path clip-path="url(#clip570)" d="M1348.74 2242.24 Q1345.13 2242.24 1343.3 2245.8 Q1341.5 2249.34 1341.5 2256.47 Q1341.5 2263.58 1343.3 2267.15 Q1345.13 2270.69 1348.74 2270.69 Q1352.38 2270.69 1354.18 2267.15 Q1356.01 2263.58 1356.01 2256.47 Q1356.01 2249.34 1354.18 2245.8 Q1352.38 2242.24 1348.74 2242.24 M1348.74 2238.53 Q1354.55 2238.53 1357.61 2243.14 Q1360.69 2247.72 1360.69 2256.47 Q1360.69 2265.2 1357.61 2269.81 Q1354.55 2274.39 1348.74 2274.39 Q1342.93 2274.39 1339.85 2269.81 Q1336.8 2265.2 1336.8 2256.47 Q1336.8 2247.72 1339.85 2243.14 Q1342.93 2238.53 1348.74 2238.53 Z" fill="#000000" fill-rule="nonzero" fill-opacity="1" /><path clip-path="url(#clip570)" d="M1368.91 2267.84 L1373.79 2267.84 L1373.79 2273.72 L1368.91 2273.72 L1368.91 2267.84 Z" fill="#000000" fill-rule="nonzero" fill-opacity="1" /><path clip-path="url(#clip570)" d="M1396.82 2243.23 L1385.02 2261.68 L1396.82 2261.68 L1396.82 2243.23 M1395.6 2239.16 L1401.47 2239.16 L1401.47 2261.68 L1406.41 2261.68 L1406.41 2265.57 L1401.47 2265.57 L1401.47 2273.72 L1396.82 2273.72 L1396.82 2265.57 L1381.22 2265.57 L1381.22 2261.06 L1395.6 2239.16 Z" fill="#000000" fill-rule="nonzero" fill-opacity="1" /><path clip-path="url(#clip570)" d="M1917.06 2242.24 Q1913.45 2242.24 1911.62 2245.8 Q1909.81 2249.34 1909.81 2256.47 Q1909.81 2263.58 1911.62 2267.15 Q1913.45 2270.69 1917.06 2270.69 Q1920.69 2270.69 1922.5 2267.15 Q1924.33 2263.58 1924.33 2256.47 Q1924.33 2249.34 1922.5 2245.8 Q1920.69 2242.24 1917.06 2242.24 M1917.06 2238.53 Q1922.87 2238.53 1925.92 2243.14 Q1929 2247.72 1929 2256.47 Q1929 2265.2 1925.92 2269.81 Q1922.87 2274.39 1917.06 2274.39 Q1911.25 2274.39 1908.17 2269.81 Q1905.11 2265.2 1905.11 2256.47 Q1905.11 2247.72 1908.17 2243.14 Q1911.25 2238.53 1917.06 2238.53 Z" fill="#000000" fill-rule="nonzero" fill-opacity="1" /><path clip-path="url(#clip570)" d="M1937.22 2267.84 L1942.1 2267.84 L1942.1 2273.72 L1937.22 2273.72 L1937.22 2267.84 Z" fill="#000000" fill-rule="nonzero" fill-opacity="1" /><path clip-path="url(#clip570)" d="M1962.87 2254.58 Q1959.72 2254.58 1957.87 2256.73 Q1956.04 2258.88 1956.04 2262.63 Q1956.04 2266.36 1957.87 2268.53 Q1959.72 2270.69 1962.87 2270.69 Q1966.01 2270.69 1967.84 2268.53 Q1969.7 2266.36 1969.7 2262.63 Q1969.7 2258.88 1967.84 2256.73 Q1966.01 2254.58 1962.87 2254.58 M1972.15 2239.92 L1972.15 2244.18 Q1970.39 2243.35 1968.58 2242.91 Q1966.8 2242.47 1965.04 2242.47 Q1960.41 2242.47 1957.96 2245.59 Q1955.53 2248.72 1955.18 2255.04 Q1956.55 2253.03 1958.61 2251.96 Q1960.67 2250.87 1963.14 2250.87 Q1968.35 2250.87 1971.36 2254.04 Q1974.39 2257.19 1974.39 2262.63 Q1974.39 2267.96 1971.25 2271.17 Q1968.1 2274.39 1962.87 2274.39 Q1956.87 2274.39 1953.7 2269.81 Q1950.53 2265.2 1950.53 2256.47 Q1950.53 2248.28 1954.42 2243.42 Q1958.31 2238.53 1964.86 2238.53 Q1966.62 2238.53 1968.4 2238.88 Q1970.2 2239.23 1972.15 2239.92 Z" fill="#000000" fill-rule="nonzero" fill-opacity="1" /><path clip-path="url(#clip570)" d="M2485.34 2242.24 Q2481.72 2242.24 2479.9 2245.8 Q2478.09 2249.34 2478.09 2256.47 Q2478.09 2263.58 2479.9 2267.15 Q2481.72 2270.69 2485.34 2270.69 Q2488.97 2270.69 2490.77 2267.15 Q2492.6 2263.58 2492.6 2256.47 Q2492.6 2249.34 2490.77 2245.8 Q2488.97 2242.24 2485.34 2242.24 M2485.34 2238.53 Q2491.15 2238.53 2494.2 2243.14 Q2497.28 2247.72 2497.28 2256.47 Q2497.28 2265.2 2494.2 2269.81 Q2491.15 2274.39 2485.34 2274.39 Q2479.52 2274.39 2476.45 2269.81 Q2473.39 2265.2 2473.39 2256.47 Q2473.39 2247.72 2476.45 2243.14 Q2479.52 2238.53 2485.34 2238.53 Z" fill="#000000" fill-rule="nonzero" fill-opacity="1" /><path clip-path="url(#clip570)" d="M2505.5 2267.84 L2510.38 2267.84 L2510.38 2273.72 L2505.5 2273.72 L2505.5 2267.84 Z" fill="#000000" fill-rule="nonzero" fill-opacity="1" /><path clip-path="url(#clip570)" d="M2530.57 2257.31 Q2527.23 2257.31 2525.31 2259.09 Q2523.41 2260.87 2523.41 2264 Q2523.41 2267.12 2525.31 2268.91 Q2527.23 2270.69 2530.57 2270.69 Q2533.9 2270.69 2535.82 2268.91 Q2537.74 2267.1 2537.74 2264 Q2537.74 2260.87 2535.82 2259.09 Q2533.92 2257.31 2530.57 2257.31 M2525.89 2255.32 Q2522.88 2254.58 2521.19 2252.52 Q2519.52 2250.46 2519.52 2247.49 Q2519.52 2243.35 2522.46 2240.94 Q2525.43 2238.53 2530.57 2238.53 Q2535.73 2238.53 2538.67 2240.94 Q2541.61 2243.35 2541.61 2247.49 Q2541.61 2250.46 2539.92 2252.52 Q2538.25 2254.58 2535.27 2255.32 Q2538.64 2256.1 2540.52 2258.4 Q2542.42 2260.69 2542.42 2264 Q2542.42 2269.02 2539.34 2271.71 Q2536.28 2274.39 2530.57 2274.39 Q2524.85 2274.39 2521.77 2271.71 Q2518.71 2269.02 2518.71 2264 Q2518.71 2260.69 2520.61 2258.4 Q2522.51 2256.1 2525.89 2255.32 M2524.18 2247.93 Q2524.18 2250.62 2525.84 2252.12 Q2527.53 2253.63 2530.57 2253.63 Q2533.58 2253.63 2535.27 2252.12 Q2536.98 2250.62 2536.98 2247.93 Q2536.98 2245.25 2535.27 2243.74 Q2533.58 2242.24 2530.57 2242.24 Q2527.53 2242.24 2525.84 2243.74 Q2524.18 2245.25 2524.18 2247.93 Z" fill="#000000" fill-rule="nonzero" fill-opacity="1" /><path clip-path="url(#clip570)" d="M3043.21 2269.78 L3050.85 2269.78 L3050.85 2243.42 L3042.54 2245.09 L3042.54 2240.83 L3050.8 2239.16 L3055.48 2239.16 L3055.48 2269.78 L3063.12 2269.78 L3063.12 2273.72 L3043.21 2273.72 L3043.21 2269.78 Z" fill="#000000" fill-rule="nonzero" fill-opacity="1" /><path clip-path="url(#clip570)" d="M3072.56 2267.84 L3077.44 2267.84 L3077.44 2273.72 L3072.56 2273.72 L3072.56 2267.84 Z" fill="#000000" fill-rule="nonzero" fill-opacity="1" /><path clip-path="url(#clip570)" d="M3097.63 2242.24 Q3094.02 2242.24 3092.19 2245.8 Q3090.38 2249.34 3090.38 2256.47 Q3090.38 2263.58 3092.19 2267.15 Q3094.02 2270.69 3097.63 2270.69 Q3101.26 2270.69 3103.07 2267.15 Q3104.9 2263.58 3104.9 2256.47 Q3104.9 2249.34 3103.07 2245.8 Q3101.26 2242.24 3097.63 2242.24 M3097.63 2238.53 Q3103.44 2238.53 3106.5 2243.14 Q3109.57 2247.72 3109.57 2256.47 Q3109.57 2265.2 3106.5 2269.81 Q3103.44 2274.39 3097.63 2274.39 Q3091.82 2274.39 3088.74 2269.81 Q3085.69 2265.2 3085.69 2256.47 Q3085.69 2247.72 3088.74 2243.14 Q3091.82 2238.53 3097.63 2238.53 Z" fill="#000000" fill-rule="nonzero" fill-opacity="1" /><path clip-path="url(#clip570)" d="M1530.23 2317.92 L1530.23 2324.7 Q1526.98 2321.68 1523.29 2320.18 Q1519.63 2318.69 1515.49 2318.69 Q1507.34 2318.69 1503.02 2323.69 Q1498.69 2328.65 1498.69 2338.07 Q1498.69 2347.46 1503.02 2352.46 Q1507.34 2357.42 1515.49 2357.42 Q1519.63 2357.42 1523.29 2355.93 Q1526.98 2354.43 1530.23 2351.41 L1530.23 2358.12 Q1526.85 2360.42 1523.07 2361.56 Q1519.31 2362.71 1515.11 2362.71 Q1504.32 2362.71 1498.11 2356.12 Q1491.91 2349.5 1491.91 2338.07 Q1491.91 2326.61 1498.11 2320.02 Q1504.32 2313.4 1515.11 2313.4 Q1519.38 2313.4 1523.13 2314.55 Q1526.92 2315.66 1530.23 2317.92 Z" fill="#000000" fill-rule="nonzero" fill-opacity="1" /><path clip-path="url(#clip570)" d="M1539.68 2326.14 L1545.51 2326.14 L1545.51 2342.88 L1562.03 2326.14 L1569.22 2326.14 L1555.6 2339.92 L1570.97 2361.78 L1564.41 2361.78 L1551.78 2343.8 L1545.51 2350.17 L1545.51 2361.78 L1539.68 2361.78 L1539.68 2326.14 Z" fill="#000000" fill-rule="nonzero" fill-opacity="1" /><path clip-path="url(#clip570)" d="M1593.09 2330.24 Q1588.38 2330.24 1585.64 2333.93 Q1582.9 2337.59 1582.9 2343.99 Q1582.9 2350.39 1585.61 2354.08 Q1588.35 2357.74 1593.09 2357.74 Q1597.77 2357.74 1600.51 2354.05 Q1603.24 2350.36 1603.24 2343.99 Q1603.24 2337.66 1600.51 2333.97 Q1597.77 2330.24 1593.09 2330.24 M1593.09 2325.28 Q1600.73 2325.28 1605.09 2330.24 Q1609.45 2335.21 1609.45 2343.99 Q1609.45 2352.74 1605.09 2357.74 Q1600.73 2362.71 1593.09 2362.71 Q1585.42 2362.71 1581.06 2357.74 Q1576.73 2352.74 1576.73 2343.99 Q1576.73 2335.21 1581.06 2330.24 Q1585.42 2325.28 1593.09 2325.28 Z" fill="#000000" fill-rule="nonzero" fill-opacity="1" /><path clip-path="url(#clip570)" d="M1624.82 2356.44 L1624.82 2375.34 L1618.93 2375.34 L1618.93 2326.14 L1624.82 2326.14 L1624.82 2331.55 Q1626.67 2328.36 1629.47 2326.84 Q1632.3 2325.28 1636.22 2325.28 Q1642.71 2325.28 1646.75 2330.43 Q1650.83 2335.59 1650.83 2343.99 Q1650.83 2352.39 1646.75 2357.55 Q1642.71 2362.71 1636.22 2362.71 Q1632.3 2362.71 1629.47 2361.18 Q1626.67 2359.62 1624.82 2356.44 M1644.75 2343.99 Q1644.75 2337.53 1642.07 2333.87 Q1639.43 2330.18 1634.79 2330.18 Q1630.14 2330.18 1627.46 2333.87 Q1624.82 2337.53 1624.82 2343.99 Q1624.82 2350.45 1627.46 2354.14 Q1630.14 2357.81 1634.79 2357.81 Q1639.43 2357.81 1642.07 2354.14 Q1644.75 2350.45 1644.75 2343.99 Z" fill="#000000" fill-rule="nonzero" fill-opacity="1" /><path clip-path="url(#clip570)" d="M1674.35 2330.24 Q1669.64 2330.24 1666.9 2333.93 Q1664.16 2337.59 1664.16 2343.99 Q1664.16 2350.39 1666.87 2354.08 Q1669.61 2357.74 1674.35 2357.74 Q1679.03 2357.74 1681.76 2354.05 Q1684.5 2350.36 1684.5 2343.99 Q1684.5 2337.66 1681.76 2333.97 Q1679.03 2330.24 1674.35 2330.24 M1674.35 2325.28 Q1681.99 2325.28 1686.35 2330.24 Q1690.71 2335.21 1690.71 2343.99 Q1690.71 2352.74 1686.35 2357.74 Q1681.99 2362.71 1674.35 2362.71 Q1666.68 2362.71 1662.32 2357.74 Q1657.99 2352.74 1657.99 2343.99 Q1657.99 2335.21 1662.32 2330.24 Q1666.68 2325.28 1674.35 2325.28 Z" fill="#000000" fill-rule="nonzero" fill-opacity="1" /><path clip-path="url(#clip570)" d="M1726.07 2327.5 L1726.07 2332.98 Q1723.59 2331.61 1721.07 2330.94 Q1718.59 2330.24 1716.04 2330.24 Q1710.35 2330.24 1707.2 2333.87 Q1704.04 2337.47 1704.04 2343.99 Q1704.04 2350.52 1707.2 2354.14 Q1710.35 2357.74 1716.04 2357.74 Q1718.59 2357.74 1721.07 2357.07 Q1723.59 2356.37 1726.07 2355 L1726.07 2360.42 Q1723.62 2361.56 1720.98 2362.13 Q1718.37 2362.71 1715.41 2362.71 Q1707.35 2362.71 1702.61 2357.65 Q1697.87 2352.59 1697.87 2343.99 Q1697.87 2335.27 1702.64 2330.27 Q1707.45 2325.28 1715.79 2325.28 Q1718.49 2325.28 1721.07 2325.85 Q1723.65 2326.39 1726.07 2327.5 Z" fill="#000000" fill-rule="nonzero" fill-opacity="1" /><path clip-path="url(#clip570)" d="M1732.02 2326.14 L1766.17 2326.14 L1766.17 2330.81 L1751.98 2330.81 L1751.98 2361.78 L1746.22 2361.78 L1746.22 2330.81 L1732.02 2330.81 L1732.02 2326.14 Z" fill="#000000" fill-rule="nonzero" fill-opacity="1" /><path clip-path="url(#clip570)" d="M1796.41 2351.22 Q1796.41 2348.35 1794.31 2346.86 Q1792.24 2345.36 1788.23 2345.36 L1779.89 2345.36 L1779.89 2357.11 L1788.23 2357.11 Q1792.24 2357.11 1794.31 2355.61 Q1796.41 2354.08 1796.41 2351.22 M1774 2326.14 L1779.89 2326.14 L1779.89 2340.68 L1788.49 2340.68 Q1795.3 2340.68 1798.96 2343.29 Q1802.65 2345.87 1802.65 2351.22 Q1802.65 2356.56 1798.96 2359.17 Q1795.3 2361.78 1788.49 2361.78 L1774 2361.78 L1774 2326.14 Z" fill="#000000" fill-rule="nonzero" fill-opacity="1" /><path clip-path="url(#clip570)" d="M1839.03 2356.44 L1839.03 2375.34 L1833.14 2375.34 L1833.14 2326.14 L1839.03 2326.14 L1839.03 2331.55 Q1840.88 2328.36 1843.68 2326.84 Q1846.51 2325.28 1850.42 2325.28 Q1856.92 2325.28 1860.96 2330.43 Q1865.03 2335.59 1865.03 2343.99 Q1865.03 2352.39 1860.96 2357.55 Q1856.92 2362.71 1850.42 2362.71 Q1846.51 2362.71 1843.68 2361.18 Q1840.88 2359.62 1839.03 2356.44 M1858.95 2343.99 Q1858.95 2337.53 1856.28 2333.87 Q1853.64 2330.18 1848.99 2330.18 Q1844.34 2330.18 1841.67 2333.87 Q1839.03 2337.53 1839.03 2343.99 Q1839.03 2350.45 1841.67 2354.14 Q1844.34 2357.81 1848.99 2357.81 Q1853.64 2357.81 1856.28 2354.14 Q1858.95 2350.45 1858.95 2343.99 Z" fill="#000000" fill-rule="nonzero" fill-opacity="1" /><path clip-path="url(#clip570)" d="M1888.55 2330.24 Q1883.84 2330.24 1881.11 2333.93 Q1878.37 2337.59 1878.37 2343.99 Q1878.37 2350.39 1881.07 2354.08 Q1883.81 2357.74 1888.55 2357.74 Q1893.23 2357.74 1895.97 2354.05 Q1898.71 2350.36 1898.71 2343.99 Q1898.71 2337.66 1895.97 2333.97 Q1893.23 2330.24 1888.55 2330.24 M1888.55 2325.28 Q1896.19 2325.28 1900.55 2330.24 Q1904.91 2335.21 1904.91 2343.99 Q1904.91 2352.74 1900.55 2357.74 Q1896.19 2362.71 1888.55 2362.71 Q1880.88 2362.71 1876.52 2357.74 Q1872.19 2352.74 1872.19 2343.99 Q1872.19 2335.21 1876.52 2330.24 Q1880.88 2325.28 1888.55 2325.28 Z" fill="#000000" fill-rule="nonzero" fill-opacity="1" /><path clip-path="url(#clip570)" d="M1940.28 2327.5 L1940.28 2332.98 Q1937.79 2331.61 1935.28 2330.94 Q1932.8 2330.24 1930.25 2330.24 Q1924.55 2330.24 1921.4 2333.87 Q1918.25 2337.47 1918.25 2343.99 Q1918.25 2350.52 1921.4 2354.14 Q1924.55 2357.74 1930.25 2357.74 Q1932.8 2357.74 1935.28 2357.07 Q1937.79 2356.37 1940.28 2355 L1940.28 2360.42 Q1937.82 2361.56 1935.18 2362.13 Q1932.57 2362.71 1929.61 2362.71 Q1921.56 2362.71 1916.82 2357.65 Q1912.08 2352.59 1912.08 2343.99 Q1912.08 2335.27 1916.85 2330.27 Q1921.66 2325.28 1929.99 2325.28 Q1932.7 2325.28 1935.28 2325.85 Q1937.86 2326.39 1940.28 2327.5 Z" fill="#000000" fill-rule="nonzero" fill-opacity="1" /><path clip-path="url(#clip570)" d="M1946.23 2326.14 L1980.38 2326.14 L1980.38 2330.81 L1966.18 2330.81 L1966.18 2361.78 L1960.42 2361.78 L1960.42 2330.81 L1946.23 2330.81 L1946.23 2326.14 Z" fill="#000000" fill-rule="nonzero" fill-opacity="1" /><path clip-path="url(#clip570)" d="M2004.63 2343.86 Q1997.54 2343.86 1994.8 2345.49 Q1992.06 2347.11 1992.06 2351.03 Q1992.06 2354.14 1994.1 2355.99 Q1996.17 2357.81 1999.7 2357.81 Q2004.57 2357.81 2007.5 2354.37 Q2010.46 2350.9 2010.46 2345.17 L2010.46 2343.86 L2004.63 2343.86 M2016.31 2341.45 L2016.31 2361.78 L2010.46 2361.78 L2010.46 2356.37 Q2008.45 2359.62 2005.46 2361.18 Q2002.47 2362.71 1998.14 2362.71 Q1992.67 2362.71 1989.42 2359.65 Q1986.2 2356.56 1986.2 2351.41 Q1986.2 2345.39 1990.21 2342.34 Q1994.26 2339.28 2002.25 2339.28 L2010.46 2339.28 L2010.46 2338.71 Q2010.46 2334.67 2007.78 2332.47 Q2005.14 2330.24 2000.34 2330.24 Q1997.28 2330.24 1994.38 2330.97 Q1991.49 2331.71 1988.81 2333.17 L1988.81 2327.76 Q1992.03 2326.52 1995.05 2325.91 Q1998.08 2325.28 2000.94 2325.28 Q2008.68 2325.28 2012.49 2329.29 Q2016.31 2333.3 2016.31 2341.45 Z" fill="#000000" fill-rule="nonzero" fill-opacity="1" /><path clip-path="url(#clip570)" d="M2029.87 2353.7 L2036.59 2353.7 L2036.59 2359.17 L2031.37 2369.36 L2027.26 2369.36 L2029.87 2359.17 L2029.87 2353.7 Z" fill="#000000" fill-rule="nonzero" fill-opacity="1" /><path clip-path="url(#clip570)" d="M2090.6 2345.2 L2089.2 2337.85 Q2087.77 2330.31 2082.1 2330.31 Q2077.84 2330.31 2075.9 2333.81 Q2073.45 2338.2 2073.45 2343.99 Q2073.45 2350.99 2075.83 2354.34 Q2078.25 2357.74 2082.1 2357.74 Q2086.37 2357.74 2088.66 2350.96 L2090.6 2345.2 M2093.88 2335.46 L2097.03 2326.14 L2102.25 2326.14 L2095.73 2345.46 L2097 2352.43 Q2097.29 2353.99 2098.4 2355.29 Q2099.7 2356.82 2100.72 2356.82 L2103.52 2356.82 L2103.52 2361.78 L2100.02 2361.78 Q2097.03 2361.78 2094.36 2359.11 Q2093.05 2357.77 2092.51 2354.97 Q2091.05 2358.51 2088.06 2361.27 Q2086.65 2362.58 2082.1 2362.58 Q2074.62 2362.58 2071 2357.74 Q2067.27 2352.74 2067.27 2343.99 Q2067.27 2334.63 2071.31 2330.24 Q2075.8 2325.34 2082.1 2325.34 Q2092 2325.34 2093.88 2335.46 Z" fill="#000000" fill-rule="nonzero" fill-opacity="1" /><polyline clip-path="url(#clip570)" style="stroke:#000000; stroke-linecap:round; stroke-linejoin:round; stroke-width:4; stroke-opacity:1; fill:none" points="442.675,2204.92 442.675,131.032 "/>
<polyline clip-path="url(#clip570)" style="stroke:#000000; stroke-linecap:round; stroke-linejoin:round; stroke-width:4; stroke-opacity:1; fill:none" points="442.675,1909.07 461.573,1909.07 "/>
<polyline clip-path="url(#clip570)" style="stroke:#000000; stroke-linecap:round; stroke-linejoin:round; stroke-width:4; stroke-opacity:1; fill:none" points="442.675,1553.35 461.573,1553.35 "/>
<polyline clip-path="url(#clip570)" style="stroke:#000000; stroke-linecap:round; stroke-linejoin:round; stroke-width:4; stroke-opacity:1; fill:none" points="442.675,1197.62 461.573,1197.62 "/>
<polyline clip-path="url(#clip570)" style="stroke:#000000; stroke-linecap:round; stroke-linejoin:round; stroke-width:4; stroke-opacity:1; fill:none" points="442.675,841.893 461.573,841.893 "/>
<polyline clip-path="url(#clip570)" style="stroke:#000000; stroke-linecap:round; stroke-linejoin:round; stroke-width:4; stroke-opacity:1; fill:none" points="442.675,486.166 461.573,486.166 "/>
<path clip-path="url(#clip570)" d="M121.825 1928.87 L138.144 1928.87 L138.144 1932.8 L116.2 1932.8 L116.2 1928.87 Q118.862 1926.11 123.445 1921.48 Q128.052 1916.83 129.232 1915.49 Q131.478 1912.96 132.357 1911.23 Q133.26 1909.47 133.26 1907.78 Q133.26 1905.02 131.316 1903.29 Q129.395 1901.55 126.293 1901.55 Q124.094 1901.55 121.64 1902.32 Q119.209 1903.08 116.432 1904.63 L116.432 1899.91 Q119.256 1898.77 121.709 1898.19 Q124.163 1897.62 126.2 1897.62 Q131.57 1897.62 134.765 1900.3 Q137.959 1902.99 137.959 1907.48 Q137.959 1909.61 137.149 1911.53 Q136.362 1913.43 134.256 1916.02 Q133.677 1916.69 130.575 1919.91 Q127.473 1923.1 121.825 1928.87 Z" fill="#000000" fill-rule="nonzero" fill-opacity="1" /><path clip-path="url(#clip570)" d="M147.959 1926.92 L152.843 1926.92 L152.843 1932.8 L147.959 1932.8 L147.959 1926.92 Z" fill="#000000" fill-rule="nonzero" fill-opacity="1" /><path clip-path="url(#clip570)" d="M167.056 1928.87 L183.376 1928.87 L183.376 1932.8 L161.431 1932.8 L161.431 1928.87 Q164.093 1926.11 168.677 1921.48 Q173.283 1916.83 174.464 1915.49 Q176.709 1912.96 177.589 1911.23 Q178.491 1909.47 178.491 1907.78 Q178.491 1905.02 176.547 1903.29 Q174.626 1901.55 171.524 1901.55 Q169.325 1901.55 166.871 1902.32 Q164.441 1903.08 161.663 1904.63 L161.663 1899.91 Q164.487 1898.77 166.941 1898.19 Q169.394 1897.62 171.431 1897.62 Q176.802 1897.62 179.996 1900.3 Q183.191 1902.99 183.191 1907.48 Q183.191 1909.61 182.38 1911.53 Q181.593 1913.43 179.487 1916.02 Q178.908 1916.69 175.806 1919.91 Q172.704 1923.1 167.056 1928.87 Z" fill="#000000" fill-rule="nonzero" fill-opacity="1" /><path clip-path="url(#clip570)" d="M197.218 1928.87 L213.538 1928.87 L213.538 1932.8 L191.593 1932.8 L191.593 1928.87 Q194.255 1926.11 198.839 1921.48 Q203.445 1916.83 204.626 1915.49 Q206.871 1912.96 207.751 1911.23 Q208.653 1909.47 208.653 1907.78 Q208.653 1905.02 206.709 1903.29 Q204.788 1901.55 201.686 1901.55 Q199.487 1901.55 197.033 1902.32 Q194.603 1903.08 191.825 1904.63 L191.825 1899.91 Q194.649 1898.77 197.103 1898.19 Q199.556 1897.62 201.593 1897.62 Q206.964 1897.62 210.158 1900.3 Q213.352 1902.99 213.352 1907.48 Q213.352 1909.61 212.542 1911.53 Q211.755 1913.43 209.649 1916.02 Q209.07 1916.69 205.968 1919.91 Q202.866 1923.1 197.218 1928.87 Z" fill="#000000" fill-rule="nonzero" fill-opacity="1" /><path clip-path="url(#clip570)" d="M233.352 1901.32 Q229.741 1901.32 227.913 1904.88 Q226.107 1908.43 226.107 1915.56 Q226.107 1922.66 227.913 1926.23 Q229.741 1929.77 233.352 1929.77 Q236.987 1929.77 238.792 1926.23 Q240.621 1922.66 240.621 1915.56 Q240.621 1908.43 238.792 1904.88 Q236.987 1901.32 233.352 1901.32 M233.352 1897.62 Q239.162 1897.62 242.218 1902.22 Q245.297 1906.81 245.297 1915.56 Q245.297 1924.28 242.218 1928.89 Q239.162 1933.47 233.352 1933.47 Q227.542 1933.47 224.463 1928.89 Q221.408 1924.28 221.408 1915.56 Q221.408 1906.81 224.463 1902.22 Q227.542 1897.62 233.352 1897.62 Z" fill="#000000" fill-rule="nonzero" fill-opacity="1" /><path clip-path="url(#clip570)" d="M281.685 1907.34 L271.107 1917.96 L281.685 1928.54 L278.931 1931.34 L268.306 1920.72 L257.681 1931.34 L254.949 1928.54 L265.505 1917.96 L254.949 1907.34 L257.681 1904.54 L268.306 1915.16 L278.931 1904.54 L281.685 1907.34 Z" fill="#000000" fill-rule="nonzero" fill-opacity="1" /><path clip-path="url(#clip570)" d="M294.046 1928.87 L301.685 1928.87 L301.685 1902.5 L293.375 1904.17 L293.375 1899.91 L301.639 1898.24 L306.315 1898.24 L306.315 1928.87 L313.954 1928.87 L313.954 1932.8 L294.046 1932.8 L294.046 1928.87 Z" fill="#000000" fill-rule="nonzero" fill-opacity="1" /><path clip-path="url(#clip570)" d="M333.398 1901.32 Q329.787 1901.32 327.958 1904.88 Q326.153 1908.43 326.153 1915.56 Q326.153 1922.66 327.958 1926.23 Q329.787 1929.77 333.398 1929.77 Q337.032 1929.77 338.838 1926.23 Q340.667 1922.66 340.667 1915.56 Q340.667 1908.43 338.838 1904.88 Q337.032 1901.32 333.398 1901.32 M333.398 1897.62 Q339.208 1897.62 342.264 1902.22 Q345.342 1906.81 345.342 1915.56 Q345.342 1924.28 342.264 1928.89 Q339.208 1933.47 333.398 1933.47 Q327.588 1933.47 324.509 1928.89 Q321.454 1924.28 321.454 1915.56 Q321.454 1906.81 324.509 1902.22 Q327.588 1897.62 333.398 1897.62 Z" fill="#000000" fill-rule="nonzero" fill-opacity="1" /><path clip-path="url(#clip570)" d="M345.342 1891.72 L369.454 1891.72 L369.454 1894.91 L345.342 1894.91 L345.342 1891.72 Z" fill="#000000" fill-rule="nonzero" fill-opacity="1" /><path clip-path="url(#clip570)" d="M377.692 1877.31 L392.606 1877.31 L392.606 1880.51 L381.171 1880.51 L381.171 1887.39 Q381.999 1887.11 382.826 1886.98 Q383.654 1886.83 384.481 1886.83 Q389.183 1886.83 391.929 1889.4 Q394.675 1891.98 394.675 1896.38 Q394.675 1900.91 391.854 1903.43 Q389.033 1905.94 383.898 1905.94 Q382.13 1905.94 380.287 1905.64 Q378.463 1905.33 376.507 1904.73 L376.507 1900.91 Q378.2 1901.84 380.005 1902.29 Q381.811 1902.74 383.823 1902.74 Q387.077 1902.74 388.976 1901.03 Q390.876 1899.32 390.876 1896.38 Q390.876 1893.45 388.976 1891.74 Q387.077 1890.02 383.823 1890.02 Q382.3 1890.02 380.776 1890.36 Q379.272 1890.7 377.692 1891.42 L377.692 1877.31 Z" fill="#000000" fill-rule="nonzero" fill-opacity="1" /><path clip-path="url(#clip570)" d="M121.825 1573.14 L138.144 1573.14 L138.144 1577.07 L116.2 1577.07 L116.2 1573.14 Q118.862 1570.38 123.445 1565.75 Q128.052 1561.1 129.232 1559.76 Q131.478 1557.24 132.357 1555.5 Q133.26 1553.74 133.26 1552.05 Q133.26 1549.3 131.316 1547.56 Q129.395 1545.82 126.293 1545.82 Q124.094 1545.82 121.64 1546.59 Q119.209 1547.35 116.432 1548.9 L116.432 1544.18 Q119.256 1543.05 121.709 1542.47 Q124.163 1541.89 126.2 1541.89 Q131.57 1541.89 134.765 1544.57 Q137.959 1547.26 137.959 1551.75 Q137.959 1553.88 137.149 1555.8 Q136.362 1557.7 134.256 1560.29 Q133.677 1560.96 130.575 1564.18 Q127.473 1567.38 121.825 1573.14 Z" fill="#000000" fill-rule="nonzero" fill-opacity="1" /><path clip-path="url(#clip570)" d="M147.959 1571.19 L152.843 1571.19 L152.843 1577.07 L147.959 1577.07 L147.959 1571.19 Z" fill="#000000" fill-rule="nonzero" fill-opacity="1" /><path clip-path="url(#clip570)" d="M167.056 1573.14 L183.376 1573.14 L183.376 1577.07 L161.431 1577.07 L161.431 1573.14 Q164.093 1570.38 168.677 1565.75 Q173.283 1561.1 174.464 1559.76 Q176.709 1557.24 177.589 1555.5 Q178.491 1553.74 178.491 1552.05 Q178.491 1549.3 176.547 1547.56 Q174.626 1545.82 171.524 1545.82 Q169.325 1545.82 166.871 1546.59 Q164.441 1547.35 161.663 1548.9 L161.663 1544.18 Q164.487 1543.05 166.941 1542.47 Q169.394 1541.89 171.431 1541.89 Q176.802 1541.89 179.996 1544.57 Q183.191 1547.26 183.191 1551.75 Q183.191 1553.88 182.38 1555.8 Q181.593 1557.7 179.487 1560.29 Q178.908 1560.96 175.806 1564.18 Q172.704 1567.38 167.056 1573.14 Z" fill="#000000" fill-rule="nonzero" fill-opacity="1" /><path clip-path="url(#clip570)" d="M193.237 1542.51 L211.593 1542.51 L211.593 1546.45 L197.519 1546.45 L197.519 1554.92 Q198.538 1554.57 199.556 1554.41 Q200.575 1554.23 201.593 1554.23 Q207.38 1554.23 210.76 1557.4 Q214.139 1560.57 214.139 1565.99 Q214.139 1571.57 210.667 1574.67 Q207.195 1577.75 200.876 1577.75 Q198.7 1577.75 196.431 1577.38 Q194.186 1577 191.778 1576.26 L191.778 1571.57 Q193.862 1572.7 196.084 1573.25 Q198.306 1573.81 200.783 1573.81 Q204.788 1573.81 207.126 1571.7 Q209.464 1569.6 209.464 1565.99 Q209.464 1562.38 207.126 1560.27 Q204.788 1558.16 200.783 1558.16 Q198.908 1558.16 197.033 1558.58 Q195.181 1559 193.237 1559.88 L193.237 1542.51 Z" fill="#000000" fill-rule="nonzero" fill-opacity="1" /><path clip-path="url(#clip570)" d="M233.352 1545.59 Q229.741 1545.59 227.913 1549.16 Q226.107 1552.7 226.107 1559.83 Q226.107 1566.94 227.913 1570.5 Q229.741 1574.04 233.352 1574.04 Q236.987 1574.04 238.792 1570.5 Q240.621 1566.94 240.621 1559.83 Q240.621 1552.7 238.792 1549.16 Q236.987 1545.59 233.352 1545.59 M233.352 1541.89 Q239.162 1541.89 242.218 1546.5 Q245.297 1551.08 245.297 1559.83 Q245.297 1568.56 242.218 1573.16 Q239.162 1577.75 233.352 1577.75 Q227.542 1577.75 224.463 1573.16 Q221.408 1568.56 221.408 1559.83 Q221.408 1551.08 224.463 1546.5 Q227.542 1541.89 233.352 1541.89 Z" fill="#000000" fill-rule="nonzero" fill-opacity="1" /><path clip-path="url(#clip570)" d="M281.685 1551.61 L271.107 1562.24 L281.685 1572.82 L278.931 1575.62 L268.306 1564.99 L257.681 1575.62 L254.949 1572.82 L265.505 1562.24 L254.949 1551.61 L257.681 1548.81 L268.306 1559.44 L278.931 1548.81 L281.685 1551.61 Z" fill="#000000" fill-rule="nonzero" fill-opacity="1" /><path clip-path="url(#clip570)" d="M294.046 1573.14 L301.685 1573.14 L301.685 1546.77 L293.375 1548.44 L293.375 1544.18 L301.639 1542.51 L306.315 1542.51 L306.315 1573.14 L313.954 1573.14 L313.954 1577.07 L294.046 1577.07 L294.046 1573.14 Z" fill="#000000" fill-rule="nonzero" fill-opacity="1" /><path clip-path="url(#clip570)" d="M333.398 1545.59 Q329.787 1545.59 327.958 1549.16 Q326.153 1552.7 326.153 1559.83 Q326.153 1566.94 327.958 1570.5 Q329.787 1574.04 333.398 1574.04 Q337.032 1574.04 338.838 1570.5 Q340.667 1566.94 340.667 1559.83 Q340.667 1552.7 338.838 1549.16 Q337.032 1545.59 333.398 1545.59 M333.398 1541.89 Q339.208 1541.89 342.264 1546.5 Q345.342 1551.08 345.342 1559.83 Q345.342 1568.56 342.264 1573.16 Q339.208 1577.75 333.398 1577.75 Q327.588 1577.75 324.509 1573.16 Q321.454 1568.56 321.454 1559.83 Q321.454 1551.08 324.509 1546.5 Q327.588 1541.89 333.398 1541.89 Z" fill="#000000" fill-rule="nonzero" fill-opacity="1" /><path clip-path="url(#clip570)" d="M345.342 1535.99 L369.454 1535.99 L369.454 1539.19 L345.342 1539.19 L345.342 1535.99 Z" fill="#000000" fill-rule="nonzero" fill-opacity="1" /><path clip-path="url(#clip570)" d="M377.692 1521.58 L392.606 1521.58 L392.606 1524.78 L381.171 1524.78 L381.171 1531.66 Q381.999 1531.38 382.826 1531.25 Q383.654 1531.1 384.481 1531.1 Q389.183 1531.1 391.929 1533.68 Q394.675 1536.25 394.675 1540.66 Q394.675 1545.19 391.854 1547.71 Q389.033 1550.21 383.898 1550.21 Q382.13 1550.21 380.287 1549.91 Q378.463 1549.61 376.507 1549.01 L376.507 1545.19 Q378.2 1546.11 380.005 1546.56 Q381.811 1547.01 383.823 1547.01 Q387.077 1547.01 388.976 1545.3 Q390.876 1543.59 390.876 1540.66 Q390.876 1537.72 388.976 1536.01 Q387.077 1534.3 383.823 1534.3 Q382.3 1534.3 380.776 1534.64 Q379.272 1534.98 377.692 1535.69 L377.692 1521.58 Z" fill="#000000" fill-rule="nonzero" fill-opacity="1" /><path clip-path="url(#clip570)" d="M121.825 1217.41 L138.144 1217.41 L138.144 1221.35 L116.2 1221.35 L116.2 1217.41 Q118.862 1214.66 123.445 1210.03 Q128.052 1205.38 129.232 1204.03 Q131.478 1201.51 132.357 1199.77 Q133.26 1198.01 133.26 1196.32 Q133.26 1193.57 131.316 1191.83 Q129.395 1190.1 126.293 1190.1 Q124.094 1190.1 121.64 1190.86 Q119.209 1191.63 116.432 1193.18 L116.432 1188.45 Q119.256 1187.32 121.709 1186.74 Q124.163 1186.16 126.2 1186.16 Q131.57 1186.16 134.765 1188.85 Q137.959 1191.53 137.959 1196.02 Q137.959 1198.15 137.149 1200.07 Q136.362 1201.97 134.256 1204.57 Q133.677 1205.24 130.575 1208.45 Q127.473 1211.65 121.825 1217.41 Z" fill="#000000" fill-rule="nonzero" fill-opacity="1" /><path clip-path="url(#clip570)" d="M147.959 1215.47 L152.843 1215.47 L152.843 1221.35 L147.959 1221.35 L147.959 1215.47 Z" fill="#000000" fill-rule="nonzero" fill-opacity="1" /><path clip-path="url(#clip570)" d="M167.056 1217.41 L183.376 1217.41 L183.376 1221.35 L161.431 1221.35 L161.431 1217.41 Q164.093 1214.66 168.677 1210.03 Q173.283 1205.38 174.464 1204.03 Q176.709 1201.51 177.589 1199.77 Q178.491 1198.01 178.491 1196.32 Q178.491 1193.57 176.547 1191.83 Q174.626 1190.1 171.524 1190.1 Q169.325 1190.1 166.871 1190.86 Q164.441 1191.63 161.663 1193.18 L161.663 1188.45 Q164.487 1187.32 166.941 1186.74 Q169.394 1186.16 171.431 1186.16 Q176.802 1186.16 179.996 1188.85 Q183.191 1191.53 183.191 1196.02 Q183.191 1198.15 182.38 1200.07 Q181.593 1201.97 179.487 1204.57 Q178.908 1205.24 175.806 1208.45 Q172.704 1211.65 167.056 1217.41 Z" fill="#000000" fill-rule="nonzero" fill-opacity="1" /><path clip-path="url(#clip570)" d="M203.19 1204.94 Q199.857 1204.94 197.936 1206.72 Q196.038 1208.5 196.038 1211.63 Q196.038 1214.75 197.936 1216.53 Q199.857 1218.32 203.19 1218.32 Q206.524 1218.32 208.445 1216.53 Q210.366 1214.73 210.366 1211.63 Q210.366 1208.5 208.445 1206.72 Q206.547 1204.94 203.19 1204.94 M198.515 1202.94 Q195.505 1202.2 193.815 1200.14 Q192.149 1198.08 192.149 1195.12 Q192.149 1190.98 195.089 1188.57 Q198.052 1186.16 203.19 1186.16 Q208.352 1186.16 211.292 1188.57 Q214.232 1190.98 214.232 1195.12 Q214.232 1198.08 212.542 1200.14 Q210.876 1202.2 207.889 1202.94 Q211.269 1203.73 213.144 1206.02 Q215.042 1208.32 215.042 1211.63 Q215.042 1216.65 211.964 1219.33 Q208.908 1222.02 203.19 1222.02 Q197.473 1222.02 194.394 1219.33 Q191.339 1216.65 191.339 1211.63 Q191.339 1208.32 193.237 1206.02 Q195.135 1203.73 198.515 1202.94 M196.802 1195.56 Q196.802 1198.25 198.468 1199.75 Q200.158 1201.26 203.19 1201.26 Q206.2 1201.26 207.889 1199.75 Q209.602 1198.25 209.602 1195.56 Q209.602 1192.88 207.889 1191.37 Q206.2 1189.87 203.19 1189.87 Q200.158 1189.87 198.468 1191.37 Q196.802 1192.88 196.802 1195.56 Z" fill="#000000" fill-rule="nonzero" fill-opacity="1" /><path clip-path="url(#clip570)" d="M233.352 1189.87 Q229.741 1189.87 227.913 1193.43 Q226.107 1196.97 226.107 1204.1 Q226.107 1211.21 227.913 1214.77 Q229.741 1218.32 233.352 1218.32 Q236.987 1218.32 238.792 1214.77 Q240.621 1211.21 240.621 1204.1 Q240.621 1196.97 238.792 1193.43 Q236.987 1189.87 233.352 1189.87 M233.352 1186.16 Q239.162 1186.16 242.218 1190.77 Q245.297 1195.35 245.297 1204.1 Q245.297 1212.83 242.218 1217.44 Q239.162 1222.02 233.352 1222.02 Q227.542 1222.02 224.463 1217.44 Q221.408 1212.83 221.408 1204.1 Q221.408 1195.35 224.463 1190.77 Q227.542 1186.16 233.352 1186.16 Z" fill="#000000" fill-rule="nonzero" fill-opacity="1" /><path clip-path="url(#clip570)" d="M281.685 1195.88 L271.107 1206.51 L281.685 1217.09 L278.931 1219.89 L268.306 1209.26 L257.681 1219.89 L254.949 1217.09 L265.505 1206.51 L254.949 1195.88 L257.681 1193.08 L268.306 1203.71 L278.931 1193.08 L281.685 1195.88 Z" fill="#000000" fill-rule="nonzero" fill-opacity="1" /><path clip-path="url(#clip570)" d="M294.046 1217.41 L301.685 1217.41 L301.685 1191.05 L293.375 1192.71 L293.375 1188.45 L301.639 1186.79 L306.315 1186.79 L306.315 1217.41 L313.954 1217.41 L313.954 1221.35 L294.046 1221.35 L294.046 1217.41 Z" fill="#000000" fill-rule="nonzero" fill-opacity="1" /><path clip-path="url(#clip570)" d="M333.398 1189.87 Q329.787 1189.87 327.958 1193.43 Q326.153 1196.97 326.153 1204.1 Q326.153 1211.21 327.958 1214.77 Q329.787 1218.32 333.398 1218.32 Q337.032 1218.32 338.838 1214.77 Q340.667 1211.21 340.667 1204.1 Q340.667 1196.97 338.838 1193.43 Q337.032 1189.87 333.398 1189.87 M333.398 1186.16 Q339.208 1186.16 342.264 1190.77 Q345.342 1195.35 345.342 1204.1 Q345.342 1212.83 342.264 1217.44 Q339.208 1222.02 333.398 1222.02 Q327.588 1222.02 324.509 1217.44 Q321.454 1212.83 321.454 1204.1 Q321.454 1195.35 324.509 1190.77 Q327.588 1186.16 333.398 1186.16 Z" fill="#000000" fill-rule="nonzero" fill-opacity="1" /><path clip-path="url(#clip570)" d="M345.342 1180.26 L369.454 1180.26 L369.454 1183.46 L345.342 1183.46 L345.342 1180.26 Z" fill="#000000" fill-rule="nonzero" fill-opacity="1" /><path clip-path="url(#clip570)" d="M377.692 1165.86 L392.606 1165.86 L392.606 1169.05 L381.171 1169.05 L381.171 1175.94 Q381.999 1175.66 382.826 1175.52 Q383.654 1175.37 384.481 1175.37 Q389.183 1175.37 391.929 1177.95 Q394.675 1180.53 394.675 1184.93 Q394.675 1189.46 391.854 1191.98 Q389.033 1194.48 383.898 1194.48 Q382.13 1194.48 380.287 1194.18 Q378.463 1193.88 376.507 1193.28 L376.507 1189.46 Q378.2 1190.38 380.005 1190.83 Q381.811 1191.29 383.823 1191.29 Q387.077 1191.29 388.976 1189.57 Q390.876 1187.86 390.876 1184.93 Q390.876 1181.99 388.976 1180.28 Q387.077 1178.57 383.823 1178.57 Q382.3 1178.57 380.776 1178.91 Q379.272 1179.25 377.692 1179.96 L377.692 1165.86 Z" fill="#000000" fill-rule="nonzero" fill-opacity="1" /><path clip-path="url(#clip570)" d="M121.825 861.685 L138.144 861.685 L138.144 865.621 L116.2 865.621 L116.2 861.685 Q118.862 858.931 123.445 854.301 Q128.052 849.648 129.232 848.306 Q131.478 845.783 132.357 844.047 Q133.26 842.287 133.26 840.598 Q133.26 837.843 131.316 836.107 Q129.395 834.371 126.293 834.371 Q124.094 834.371 121.64 835.135 Q119.209 835.899 116.432 837.449 L116.432 832.727 Q119.256 831.593 121.709 831.014 Q124.163 830.436 126.2 830.436 Q131.57 830.436 134.765 833.121 Q137.959 835.806 137.959 840.297 Q137.959 842.426 137.149 844.348 Q136.362 846.246 134.256 848.838 Q133.677 849.51 130.575 852.727 Q127.473 855.922 121.825 861.685 Z" fill="#000000" fill-rule="nonzero" fill-opacity="1" /><path clip-path="url(#clip570)" d="M147.959 859.741 L152.843 859.741 L152.843 865.621 L147.959 865.621 L147.959 859.741 Z" fill="#000000" fill-rule="nonzero" fill-opacity="1" /><path clip-path="url(#clip570)" d="M177.195 846.986 Q180.552 847.704 182.427 849.973 Q184.325 852.241 184.325 855.574 Q184.325 860.69 180.806 863.491 Q177.288 866.292 170.806 866.292 Q168.63 866.292 166.316 865.852 Q164.024 865.435 161.57 864.579 L161.57 860.065 Q163.515 861.199 165.83 861.778 Q168.144 862.357 170.667 862.357 Q175.066 862.357 177.357 860.621 Q179.672 858.885 179.672 855.574 Q179.672 852.519 177.519 850.806 Q175.39 849.07 171.57 849.07 L167.542 849.07 L167.542 845.227 L171.755 845.227 Q175.204 845.227 177.033 843.861 Q178.862 842.473 178.862 839.88 Q178.862 837.218 176.964 835.806 Q175.089 834.371 171.57 834.371 Q169.649 834.371 167.45 834.787 Q165.251 835.204 162.612 836.084 L162.612 831.917 Q165.274 831.176 167.589 830.806 Q169.927 830.436 171.987 830.436 Q177.311 830.436 180.413 832.866 Q183.515 835.274 183.515 839.394 Q183.515 842.264 181.871 844.255 Q180.228 846.223 177.195 846.986 Z" fill="#000000" fill-rule="nonzero" fill-opacity="1" /><path clip-path="url(#clip570)" d="M194.001 861.685 L201.64 861.685 L201.64 835.32 L193.329 836.987 L193.329 832.727 L201.593 831.061 L206.269 831.061 L206.269 861.685 L213.908 861.685 L213.908 865.621 L194.001 865.621 L194.001 861.685 Z" fill="#000000" fill-rule="nonzero" fill-opacity="1" /><path clip-path="url(#clip570)" d="M233.352 834.139 Q229.741 834.139 227.913 837.704 Q226.107 841.246 226.107 848.375 Q226.107 855.482 227.913 859.047 Q229.741 862.588 233.352 862.588 Q236.987 862.588 238.792 859.047 Q240.621 855.482 240.621 848.375 Q240.621 841.246 238.792 837.704 Q236.987 834.139 233.352 834.139 M233.352 830.436 Q239.162 830.436 242.218 835.042 Q245.297 839.625 245.297 848.375 Q245.297 857.102 242.218 861.709 Q239.162 866.292 233.352 866.292 Q227.542 866.292 224.463 861.709 Q221.408 857.102 221.408 848.375 Q221.408 839.625 224.463 835.042 Q227.542 830.436 233.352 830.436 Z" fill="#000000" fill-rule="nonzero" fill-opacity="1" /><path clip-path="url(#clip570)" d="M281.685 840.158 L271.107 850.783 L281.685 861.361 L278.931 864.162 L268.306 853.537 L257.681 864.162 L254.949 861.361 L265.505 850.783 L254.949 840.158 L257.681 837.357 L268.306 847.982 L278.931 837.357 L281.685 840.158 Z" fill="#000000" fill-rule="nonzero" fill-opacity="1" /><path clip-path="url(#clip570)" d="M294.046 861.685 L301.685 861.685 L301.685 835.32 L293.375 836.987 L293.375 832.727 L301.639 831.061 L306.315 831.061 L306.315 861.685 L313.954 861.685 L313.954 865.621 L294.046 865.621 L294.046 861.685 Z" fill="#000000" fill-rule="nonzero" fill-opacity="1" /><path clip-path="url(#clip570)" d="M333.398 834.139 Q329.787 834.139 327.958 837.704 Q326.153 841.246 326.153 848.375 Q326.153 855.482 327.958 859.047 Q329.787 862.588 333.398 862.588 Q337.032 862.588 338.838 859.047 Q340.667 855.482 340.667 848.375 Q340.667 841.246 338.838 837.704 Q337.032 834.139 333.398 834.139 M333.398 830.436 Q339.208 830.436 342.264 835.042 Q345.342 839.625 345.342 848.375 Q345.342 857.102 342.264 861.709 Q339.208 866.292 333.398 866.292 Q327.588 866.292 324.509 861.709 Q321.454 857.102 321.454 848.375 Q321.454 839.625 324.509 835.042 Q327.588 830.436 333.398 830.436 Z" fill="#000000" fill-rule="nonzero" fill-opacity="1" /><path clip-path="url(#clip570)" d="M345.342 824.537 L369.454 824.537 L369.454 827.734 L345.342 827.734 L345.342 824.537 Z" fill="#000000" fill-rule="nonzero" fill-opacity="1" /><path clip-path="url(#clip570)" d="M377.692 810.13 L392.606 810.13 L392.606 813.328 L381.171 813.328 L381.171 820.211 Q381.999 819.929 382.826 819.797 Q383.654 819.647 384.481 819.647 Q389.183 819.647 391.929 822.224 Q394.675 824.8 394.675 829.201 Q394.675 833.734 391.854 836.254 Q389.033 838.756 383.898 838.756 Q382.13 838.756 380.287 838.455 Q378.463 838.154 376.507 837.552 L376.507 833.734 Q378.2 834.656 380.005 835.107 Q381.811 835.558 383.823 835.558 Q387.077 835.558 388.976 833.847 Q390.876 832.135 390.876 829.201 Q390.876 826.267 388.976 824.556 Q387.077 822.844 383.823 822.844 Q382.3 822.844 380.776 823.183 Q379.272 823.521 377.692 824.236 L377.692 810.13 Z" fill="#000000" fill-rule="nonzero" fill-opacity="1" /><path clip-path="url(#clip570)" d="M121.825 505.959 L138.144 505.959 L138.144 509.894 L116.2 509.894 L116.2 505.959 Q118.862 503.204 123.445 498.574 Q128.052 493.922 129.232 492.579 Q131.478 490.056 132.357 488.32 Q133.26 486.561 133.26 484.871 Q133.26 482.116 131.316 480.38 Q129.395 478.644 126.293 478.644 Q124.094 478.644 121.64 479.408 Q119.209 480.172 116.432 481.723 L116.432 477 Q119.256 475.866 121.709 475.287 Q124.163 474.709 126.2 474.709 Q131.57 474.709 134.765 477.394 Q137.959 480.079 137.959 484.57 Q137.959 486.699 137.149 488.621 Q136.362 490.519 134.256 493.111 Q133.677 493.783 130.575 497 Q127.473 500.195 121.825 505.959 Z" fill="#000000" fill-rule="nonzero" fill-opacity="1" /><path clip-path="url(#clip570)" d="M147.959 504.014 L152.843 504.014 L152.843 509.894 L147.959 509.894 L147.959 504.014 Z" fill="#000000" fill-rule="nonzero" fill-opacity="1" /><path clip-path="url(#clip570)" d="M177.195 491.26 Q180.552 491.977 182.427 494.246 Q184.325 496.514 184.325 499.847 Q184.325 504.963 180.806 507.764 Q177.288 510.565 170.806 510.565 Q168.63 510.565 166.316 510.125 Q164.024 509.709 161.57 508.852 L161.57 504.338 Q163.515 505.472 165.83 506.051 Q168.144 506.63 170.667 506.63 Q175.066 506.63 177.357 504.894 Q179.672 503.158 179.672 499.847 Q179.672 496.792 177.519 495.079 Q175.39 493.343 171.57 493.343 L167.542 493.343 L167.542 489.5 L171.755 489.5 Q175.204 489.5 177.033 488.135 Q178.862 486.746 178.862 484.153 Q178.862 481.491 176.964 480.079 Q175.089 478.644 171.57 478.644 Q169.649 478.644 167.45 479.061 Q165.251 479.477 162.612 480.357 L162.612 476.19 Q165.274 475.449 167.589 475.079 Q169.927 474.709 171.987 474.709 Q177.311 474.709 180.413 477.139 Q183.515 479.547 183.515 483.667 Q183.515 486.537 181.871 488.528 Q180.228 490.496 177.195 491.26 Z" fill="#000000" fill-rule="nonzero" fill-opacity="1" /><path clip-path="url(#clip570)" d="M206.038 479.408 L194.232 497.857 L206.038 497.857 L206.038 479.408 M204.811 475.334 L210.69 475.334 L210.69 497.857 L215.621 497.857 L215.621 501.746 L210.69 501.746 L210.69 509.894 L206.038 509.894 L206.038 501.746 L190.436 501.746 L190.436 497.232 L204.811 475.334 Z" fill="#000000" fill-rule="nonzero" fill-opacity="1" /><path clip-path="url(#clip570)" d="M233.352 478.412 Q229.741 478.412 227.913 481.977 Q226.107 485.519 226.107 492.648 Q226.107 499.755 227.913 503.32 Q229.741 506.861 233.352 506.861 Q236.987 506.861 238.792 503.32 Q240.621 499.755 240.621 492.648 Q240.621 485.519 238.792 481.977 Q236.987 478.412 233.352 478.412 M233.352 474.709 Q239.162 474.709 242.218 479.315 Q245.297 483.898 245.297 492.648 Q245.297 501.375 242.218 505.982 Q239.162 510.565 233.352 510.565 Q227.542 510.565 224.463 505.982 Q221.408 501.375 221.408 492.648 Q221.408 483.898 224.463 479.315 Q227.542 474.709 233.352 474.709 Z" fill="#000000" fill-rule="nonzero" fill-opacity="1" /><path clip-path="url(#clip570)" d="M281.685 484.431 L271.107 495.056 L281.685 505.634 L278.931 508.435 L268.306 497.81 L257.681 508.435 L254.949 505.634 L265.505 495.056 L254.949 484.431 L257.681 481.63 L268.306 492.255 L278.931 481.63 L281.685 484.431 Z" fill="#000000" fill-rule="nonzero" fill-opacity="1" /><path clip-path="url(#clip570)" d="M294.046 505.959 L301.685 505.959 L301.685 479.593 L293.375 481.26 L293.375 477 L301.639 475.334 L306.315 475.334 L306.315 505.959 L313.954 505.959 L313.954 509.894 L294.046 509.894 L294.046 505.959 Z" fill="#000000" fill-rule="nonzero" fill-opacity="1" /><path clip-path="url(#clip570)" d="M333.398 478.412 Q329.787 478.412 327.958 481.977 Q326.153 485.519 326.153 492.648 Q326.153 499.755 327.958 503.32 Q329.787 506.861 333.398 506.861 Q337.032 506.861 338.838 503.32 Q340.667 499.755 340.667 492.648 Q340.667 485.519 338.838 481.977 Q337.032 478.412 333.398 478.412 M333.398 474.709 Q339.208 474.709 342.264 479.315 Q345.342 483.898 345.342 492.648 Q345.342 501.375 342.264 505.982 Q339.208 510.565 333.398 510.565 Q327.588 510.565 324.509 505.982 Q321.454 501.375 321.454 492.648 Q321.454 483.898 324.509 479.315 Q327.588 474.709 333.398 474.709 Z" fill="#000000" fill-rule="nonzero" fill-opacity="1" /><path clip-path="url(#clip570)" d="M345.342 468.81 L369.454 468.81 L369.454 472.007 L345.342 472.007 L345.342 468.81 Z" fill="#000000" fill-rule="nonzero" fill-opacity="1" /><path clip-path="url(#clip570)" d="M377.692 454.403 L392.606 454.403 L392.606 457.601 L381.171 457.601 L381.171 464.484 Q381.999 464.202 382.826 464.071 Q383.654 463.92 384.481 463.92 Q389.183 463.92 391.929 466.497 Q394.675 469.073 394.675 473.474 Q394.675 478.007 391.854 480.527 Q389.033 483.029 383.898 483.029 Q382.13 483.029 380.287 482.728 Q378.463 482.427 376.507 481.825 L376.507 478.007 Q378.2 478.929 380.005 479.38 Q381.811 479.831 383.823 479.831 Q387.077 479.831 388.976 478.12 Q390.876 476.408 390.876 473.474 Q390.876 470.54 388.976 468.829 Q387.077 467.117 383.823 467.117 Q382.3 467.117 380.776 467.456 Q379.272 467.794 377.692 468.509 L377.692 454.403 Z" fill="#000000" fill-rule="nonzero" fill-opacity="1" /><path clip-path="url(#clip570)" d="M31.2504 1559.58 L48.6606 1559.58 L48.6606 1549.27 Q48.6606 1544.08 46.5281 1541.6 Q44.3638 1539.08 39.9396 1539.08 Q35.4836 1539.08 33.3829 1541.6 Q31.2504 1544.08 31.2504 1549.27 L31.2504 1559.58 M11.7077 1559.58 L26.0305 1559.58 L26.0305 1550.06 Q26.0305 1545.35 24.28 1543.06 Q22.4976 1540.74 18.8691 1540.74 Q15.2725 1540.74 13.4901 1543.06 Q11.7077 1545.35 11.7077 1550.06 L11.7077 1559.58 M6.42416 1566.01 L6.42416 1549.58 Q6.42416 1542.23 9.4797 1538.25 Q12.5352 1534.27 18.1689 1534.27 Q22.5294 1534.27 25.1075 1536.31 Q27.6856 1538.35 28.3222 1542.3 Q29.3407 1537.55 32.5872 1534.94 Q35.8019 1532.3 40.6398 1532.3 Q47.0055 1532.3 50.4748 1536.63 Q53.9442 1540.96 53.9442 1548.95 L53.9442 1566.01 L6.42416 1566.01 Z" fill="#000000" fill-rule="nonzero" fill-opacity="1" /><path clip-path="url(#clip570)" d="M48.597 1515.88 L67.5031 1515.88 L67.5031 1521.77 L18.2962 1521.77 L18.2962 1515.88 L23.7071 1515.88 Q20.5242 1514.03 18.9964 1511.23 Q17.4368 1508.4 17.4368 1504.48 Q17.4368 1497.99 22.5931 1493.95 Q27.7493 1489.87 36.152 1489.87 Q44.5547 1489.87 49.711 1493.95 Q54.8672 1497.99 54.8672 1504.48 Q54.8672 1508.4 53.3394 1511.23 Q51.7798 1514.03 48.597 1515.88 M36.152 1495.95 Q29.6908 1495.95 26.0305 1498.63 Q22.3384 1501.27 22.3384 1505.92 Q22.3384 1510.56 26.0305 1513.24 Q29.6908 1515.88 36.152 1515.88 Q42.6132 1515.88 46.3053 1513.24 Q49.9656 1510.56 49.9656 1505.92 Q49.9656 1501.27 46.3053 1498.63 Q42.6132 1495.95 36.152 1495.95 Z" fill="#000000" fill-rule="nonzero" fill-opacity="1" /><path clip-path="url(#clip570)" d="M34.6561 1449.67 L37.5206 1449.67 L37.5206 1476.6 Q43.5681 1476.22 46.7509 1472.97 Q49.9019 1469.69 49.9019 1463.87 Q49.9019 1460.5 49.0744 1457.35 Q48.2469 1454.16 46.5918 1451.04 L52.1299 1451.04 Q53.4667 1454.19 54.167 1457.5 Q54.8672 1460.81 54.8672 1464.22 Q54.8672 1472.75 49.9019 1477.75 Q44.9367 1482.71 36.4703 1482.71 Q27.7174 1482.71 22.5931 1478 Q17.4368 1473.26 17.4368 1465.24 Q17.4368 1458.05 22.0838 1453.88 Q26.6989 1449.67 34.6561 1449.67 M32.9373 1455.53 Q28.1312 1455.59 25.2666 1458.24 Q22.4021 1460.85 22.4021 1465.17 Q22.4021 1470.08 25.1712 1473.04 Q27.9402 1475.96 32.9692 1476.41 L32.9373 1455.53 Z" fill="#000000" fill-rule="nonzero" fill-opacity="1" /><path clip-path="url(#clip570)" d="M18.2962 1440.28 L18.2962 1431.72 L42.1676 1421.6 L18.2962 1411.45 L18.2962 1402.95 L53.9442 1402.95 L53.9442 1408.84 L23.898 1408.84 L47.101 1418.67 L47.101 1424.53 L23.898 1434.4 L53.9442 1434.4 L53.9442 1440.28 L18.2962 1440.28 Z" fill="#000000" fill-rule="nonzero" fill-opacity="1" /><path clip-path="url(#clip570)" d="M28.5768 1385 Q31.2186 1385 32.7145 1382.96 Q34.2105 1380.92 34.2105 1377.14 L34.2105 1369.24 L22.975 1369.24 L22.975 1377.14 Q22.975 1380.92 24.4391 1382.96 Q25.9032 1385 28.5768 1385 M53.9442 1393.34 L38.3163 1382.45 Q37.4888 1386.14 35.3245 1388.6 Q33.1283 1391.05 28.5768 1391.05 Q23.4206 1391.05 20.8743 1387.64 Q18.2962 1384.2 18.2962 1377.3 L18.2962 1363.36 L53.9442 1363.36 L53.9442 1369.24 L38.8893 1369.24 L38.8893 1376.53 L53.9442 1387.04 L53.9442 1393.34 Z" fill="#000000" fill-rule="nonzero" fill-opacity="1" /><path clip-path="url(#clip570)" d="M37.5206 1325.32 L49.2654 1325.32 L49.2654 1316.98 Q49.2654 1312.97 47.7694 1310.87 Q46.2417 1308.77 43.3771 1308.77 Q40.5125 1308.77 39.0166 1310.87 Q37.5206 1312.97 37.5206 1316.98 L37.5206 1325.32 M22.975 1325.32 L32.8418 1325.32 L32.8418 1317.62 Q32.8418 1314.31 31.5369 1312.21 Q30.2001 1310.11 27.8448 1310.11 Q25.4894 1310.11 24.2481 1312.21 Q22.975 1314.31 22.975 1317.62 L22.975 1325.32 M18.2962 1331.18 L18.2962 1317.24 Q18.2962 1310.97 20.5879 1307.59 Q22.8795 1304.22 27.1127 1304.22 Q30.391 1304.22 32.3326 1305.94 Q34.2423 1307.66 34.7197 1311.03 Q35.4836 1306.99 37.9026 1304.76 Q40.3215 1302.53 43.95 1302.53 Q48.7243 1302.53 51.3342 1306.22 Q53.9442 1309.88 53.9442 1316.69 L53.9442 1331.18 L18.2962 1331.18 Z" fill="#000000" fill-rule="nonzero" fill-opacity="1" /><path clip-path="url(#clip570)" d="M18.2962 1258.86 L18.2962 1253.01 L53.9442 1253.01 L53.9442 1258.86 L18.2962 1258.86 M17.4368 1255.93 L17.4368 1255.93 M43.3771 1270.35 Q40.5125 1270.35 39.0166 1272.45 Q37.5206 1274.52 37.5206 1278.53 L37.5206 1286.87 L49.2654 1286.87 L49.2654 1278.53 Q49.2654 1274.52 47.7694 1272.45 Q46.2417 1270.35 43.3771 1270.35 M18.2962 1292.76 L18.2962 1286.87 L32.8418 1286.87 L32.8418 1278.28 Q32.8418 1271.47 35.4518 1267.81 Q38.0299 1264.11 43.3771 1264.11 Q48.7243 1264.11 51.3342 1267.81 Q53.9442 1271.47 53.9442 1278.28 L53.9442 1292.76 L18.2962 1292.76 Z" fill="#000000" fill-rule="nonzero" fill-opacity="1" /><path clip-path="url(#clip570)" d="M53.9442 1220.48 L38.9529 1220.48 L38.9529 1231.39 Q38.9529 1236.26 35.9292 1239.51 Q33.192 1242.44 27.3355 1242.44 L18.2962 1242.44 L18.2962 1236.58 L26.7944 1236.58 Q30.5184 1236.58 32.3962 1234.93 Q34.2741 1233.24 34.2741 1229.93 L34.2741 1220.48 L18.2962 1220.48 L18.2962 1214.62 L53.9442 1214.62 L53.9442 1220.48 Z" fill="#000000" fill-rule="nonzero" fill-opacity="1" /><path clip-path="url(#clip570)" d="M18.2962 1172.26 L53.9442 1172.26 L53.9442 1178.08 L25.3303 1178.08 L53.9442 1195.27 L53.9442 1202.78 L18.2962 1202.78 L18.2962 1196.96 L46.8464 1196.96 L18.2962 1179.8 L18.2962 1172.26 Z" fill="#000000" fill-rule="nonzero" fill-opacity="1" /><path clip-path="url(#clip570)" d="M19.6648 1134.54 L25.1393 1134.54 Q23.7707 1137.02 23.1023 1139.54 Q22.4021 1142.02 22.4021 1144.57 Q22.4021 1150.26 26.0305 1153.41 Q29.6272 1156.57 36.152 1156.57 Q42.6769 1156.57 46.3053 1153.41 Q49.9019 1150.26 49.9019 1144.57 Q49.9019 1142.02 49.2335 1139.54 Q48.5333 1137.02 47.1647 1134.54 L52.5755 1134.54 Q53.7214 1136.99 54.2943 1139.63 Q54.8672 1142.24 54.8672 1145.2 Q54.8672 1153.26 49.8064 1158 Q44.7457 1162.74 36.152 1162.74 Q27.431 1162.74 22.4339 1157.97 Q17.4368 1153.16 17.4368 1144.82 Q17.4368 1142.12 18.0097 1139.54 Q18.5508 1136.96 19.6648 1134.54 Z" fill="#000000" fill-rule="nonzero" fill-opacity="1" /><path clip-path="url(#clip570)" d="M53.9442 1128.08 L49.0744 1128.08 Q48.1832 1122.29 44.1728 1120.5 Q38.5391 1118.34 24.1208 1118.34 L18.2962 1118.34 L18.2962 1094.25 L53.9442 1094.25 L53.9442 1100.1 L22.975 1100.1 L22.975 1112.48 L26.508 1112.48 Q40.2579 1112.48 46.4326 1115.28 Q53.0211 1118.28 53.9442 1128.08 Z" fill="#000000" fill-rule="nonzero" fill-opacity="1" /><path clip-path="url(#clip570)" d="M34.6561 1052.2 L37.5206 1052.2 L37.5206 1079.13 Q43.5681 1078.74 46.7509 1075.5 Q49.9019 1072.22 49.9019 1066.4 Q49.9019 1063.02 49.0744 1059.87 Q48.2469 1056.69 46.5918 1053.57 L52.1299 1053.57 Q53.4667 1056.72 54.167 1060.03 Q54.8672 1063.34 54.8672 1066.75 Q54.8672 1075.28 49.9019 1080.27 Q44.9367 1085.24 36.4703 1085.24 Q27.7174 1085.24 22.5931 1080.53 Q17.4368 1075.78 17.4368 1067.76 Q17.4368 1060.57 22.0838 1056.4 Q26.6989 1052.2 34.6561 1052.2 M32.9373 1058.06 Q28.1312 1058.12 25.2666 1060.76 Q22.4021 1063.37 22.4021 1067.7 Q22.4021 1072.6 25.1712 1075.56 Q27.9402 1078.49 32.9692 1078.94 L32.9373 1058.06 Z" fill="#000000" fill-rule="nonzero" fill-opacity="1" /><path clip-path="url(#clip570)" d="M18.2962 1042.81 L18.2962 1036.92 L32.8418 1036.92 L32.8418 1017.92 L18.2962 1017.92 L18.2962 1012.03 L53.9442 1012.03 L53.9442 1017.92 L37.5206 1017.92 L37.5206 1036.92 L53.9442 1036.92 L53.9442 1042.81 L18.2962 1042.81 Z" fill="#000000" fill-rule="nonzero" fill-opacity="1" /><path clip-path="url(#clip570)" d="M18.2962 969.668 L53.9442 969.668 L53.9442 975.493 L25.3303 975.493 L53.9442 992.68 L53.9442 1000.19 L18.2962 1000.19 L18.2962 994.367 L46.8464 994.367 L18.2962 977.212 L18.2962 969.668 Z" fill="#000000" fill-rule="nonzero" fill-opacity="1" /><path clip-path="url(#clip570)" d="M28.5768 951.717 Q31.2186 951.717 32.7145 949.68 Q34.2105 947.643 34.2105 943.855 L34.2105 935.962 L22.975 935.962 L22.975 943.855 Q22.975 947.643 24.4391 949.68 Q25.9032 951.717 28.5768 951.717 M53.9442 960.056 L38.3163 949.171 Q37.4888 952.863 35.3245 955.314 Q33.1283 957.764 28.5768 957.764 Q23.4206 957.764 20.8743 954.359 Q18.2962 950.921 18.2962 944.015 L18.2962 930.074 L53.9442 930.074 L53.9442 935.962 L38.8893 935.962 L38.8893 943.251 L53.9442 953.754 L53.9442 960.056 Z" fill="#000000" fill-rule="nonzero" fill-opacity="1" /><path clip-path="url(#clip570)" d="M45.8597 916.897 L45.8597 910.181 L51.3342 910.181 L61.5193 915.401 L61.5193 919.507 L51.3342 916.897 L45.8597 916.897 Z" fill="#000000" fill-rule="nonzero" fill-opacity="1" /><path clip-path="url(#clip570)" d="M19.6648 851.298 L25.1393 851.298 Q23.7707 853.781 23.1023 856.295 Q22.4021 858.778 22.4021 861.324 Q22.4021 867.021 26.0305 870.172 Q29.6272 873.323 36.152 873.323 Q42.6769 873.323 46.3053 870.172 Q49.9019 867.021 49.9019 861.324 Q49.9019 858.778 49.2335 856.295 Q48.5333 853.781 47.1647 851.298 L52.5755 851.298 Q53.7214 853.749 54.2943 856.391 Q54.8672 859 54.8672 861.961 Q54.8672 870.013 49.8064 874.756 Q44.7457 879.498 36.152 879.498 Q27.431 879.498 22.4339 874.724 Q17.4368 869.918 17.4368 861.579 Q17.4368 858.873 18.0097 856.295 Q18.5508 853.717 19.6648 851.298 Z" fill="#000000" fill-rule="nonzero" fill-opacity="1" /><path clip-path="url(#clip570)" d="M34.6561 810.621 L37.5206 810.621 L37.5206 837.548 Q43.5681 837.166 46.7509 833.92 Q49.9019 830.641 49.9019 824.817 Q49.9019 821.443 49.0744 818.292 Q48.2469 815.109 46.5918 811.99 L52.1299 811.99 Q53.4667 815.141 54.167 818.451 Q54.8672 821.761 54.8672 825.167 Q54.8672 833.697 49.9019 838.694 Q44.9367 843.659 36.4703 843.659 Q27.7174 843.659 22.5931 838.949 Q17.4368 834.206 17.4368 826.185 Q17.4368 818.992 22.0838 814.822 Q26.6989 810.621 34.6561 810.621 M32.9373 816.478 Q28.1312 816.541 25.2666 819.183 Q22.4021 821.793 22.4021 826.122 Q22.4021 831.023 25.1712 833.983 Q27.9402 836.911 32.9692 837.357 L32.9373 816.478 Z" fill="#000000" fill-rule="nonzero" fill-opacity="1" /><path clip-path="url(#clip570)" d="M18.2962 801.232 L18.2962 795.407 L35.038 795.407 L18.2962 778.888 L18.2962 771.695 L32.078 785.317 L53.9442 769.944 L53.9442 776.501 L35.961 789.137 L42.3267 795.407 L53.9442 795.407 L53.9442 801.232 L18.2962 801.232 Z" fill="#000000" fill-rule="nonzero" fill-opacity="1" /><path clip-path="url(#clip570)" d="M960.029 11.0023 Q969.994 11.0023 976.314 15.2557 Q982.633 19.4686 982.633 26.6793 Q982.633 31.7024 979.757 35.1862 Q976.881 38.6294 971.574 39.9662 Q977.448 41.222 980.729 45.1919 Q984.051 49.1618 984.051 54.9951 Q984.051 64.3122 976.84 69.0517 Q969.67 73.7508 960.029 73.7508 Q955.087 73.7508 949.335 72.414 Q943.582 71.0772 941.8 69.9429 L941.8 61.517 Q947.998 65.1223 951.401 66.0135 Q954.844 66.8642 959.867 66.8642 Q967.483 66.8642 971.696 63.9476 Q975.909 61.0309 975.909 54.9951 Q975.909 49.6479 972.141 46.6502 Q968.414 43.612 960.515 43.612 L952.251 43.612 L952.251 36.8875 L960.839 36.8875 Q968.09 36.8875 971.291 34.4975 Q974.491 32.067 974.491 27.5299 Q974.491 22.8714 971.169 20.4004 Q967.888 17.8888 959.867 17.8888 Q954.439 17.8888 952.575 18.3749 Q950.712 18.861 942.408 21.9802 L942.408 13.9999 Q946.985 12.3796 951.765 11.6909 Q956.545 11.0023 960.029 11.0023 Z" fill="#000000" fill-rule="nonzero" fill-opacity="1" /><path clip-path="url(#clip570)" d="M1017.96 49.7694 Q1008.92 49.7694 1005.44 51.8354 Q1001.96 53.9013 1001.96 58.8839 Q1001.96 62.8538 1004.55 65.2034 Q1007.18 67.5124 1011.68 67.5124 Q1017.88 67.5124 1021.6 63.1374 Q1025.37 58.7219 1025.37 51.4303 L1025.37 49.7694 L1017.96 49.7694 M1032.82 46.6907 L1032.82 72.576 L1025.37 72.576 L1025.37 65.6895 Q1022.82 69.8214 1019.01 71.8063 Q1015.2 73.7508 1009.69 73.7508 Q1002.73 73.7508 998.594 69.8619 Q994.502 65.9325 994.502 59.3701 Q994.502 51.7138 999.606 47.825 Q1004.75 43.9361 1014.92 43.9361 L1025.37 43.9361 L1025.37 43.2069 Q1025.37 38.0623 1021.97 35.2672 Q1018.61 32.4315 1012.49 32.4315 Q1008.6 32.4315 1004.91 33.3632 Q1001.23 34.295 997.824 36.1584 L997.824 29.2718 Q1001.92 27.692 1005.76 26.9223 Q1009.61 26.1121 1013.26 26.1121 Q1023.1 26.1121 1027.96 31.2163 Q1032.82 36.3204 1032.82 46.6907 Z" fill="#000000" fill-rule="nonzero" fill-opacity="1" /><path clip-path="url(#clip570)" d="M1055.35 51.6733 L1055.35 66.6212 L1065.96 66.6212 Q1071.06 66.6212 1073.74 64.7172 Q1076.41 62.7728 1076.41 59.127 Q1076.41 55.4812 1073.74 53.5773 Q1071.06 51.6733 1065.96 51.6733 L1055.35 51.6733 M1055.35 33.1607 L1055.35 45.7185 L1065.15 45.7185 Q1069.36 45.7185 1072.04 44.0576 Q1074.71 42.3563 1074.71 39.3586 Q1074.71 36.3609 1072.04 34.7811 Q1069.36 33.1607 1065.15 33.1607 L1055.35 33.1607 M1047.89 27.2059 L1065.64 27.2059 Q1073.62 27.2059 1077.91 30.1225 Q1082.2 33.0392 1082.2 38.4269 Q1082.2 42.5993 1080.02 45.0704 Q1077.83 47.5009 1073.54 48.1085 Q1078.68 49.0808 1081.52 52.1594 Q1084.35 55.2381 1084.35 59.8562 Q1084.35 65.9325 1079.65 69.2543 Q1074.99 72.576 1066.32 72.576 L1047.89 72.576 L1047.89 27.2059 Z" fill="#000000" fill-rule="nonzero" fill-opacity="1" /><path clip-path="url(#clip570)" d="M1135.64 27.2059 L1135.64 72.576 L1128.22 72.576 L1128.22 36.1584 L1106.35 72.576 L1096.79 72.576 L1096.79 27.2059 L1104.2 27.2059 L1104.2 63.5425 L1126.04 27.2059 L1135.64 27.2059 Z" fill="#000000" fill-rule="nonzero" fill-opacity="1" /><path clip-path="url(#clip570)" d="M1183.64 28.9478 L1183.64 35.9153 Q1180.48 34.1734 1177.28 33.3227 Q1174.12 32.4315 1170.88 32.4315 Q1163.63 32.4315 1159.62 37.0496 Q1155.61 41.6271 1155.61 49.9314 Q1155.61 58.2358 1159.62 62.8538 Q1163.63 67.4314 1170.88 67.4314 Q1174.12 67.4314 1177.28 66.5807 Q1180.48 65.6895 1183.64 63.9476 L1183.64 70.8341 Q1180.52 72.2924 1177.16 73.0216 Q1173.84 73.7508 1170.07 73.7508 Q1159.82 73.7508 1153.78 67.3098 Q1147.75 60.8689 1147.75 49.9314 Q1147.75 38.832 1153.82 32.472 Q1159.94 26.1121 1170.55 26.1121 Q1174 26.1121 1177.28 26.8413 Q1180.56 27.5299 1183.64 28.9478 Z" fill="#000000" fill-rule="nonzero" fill-opacity="1" /><path clip-path="url(#clip570)" d="M1235.17 27.2059 L1235.17 72.576 L1227.75 72.576 L1227.75 36.1584 L1205.88 72.576 L1196.32 72.576 L1196.32 27.2059 L1203.73 27.2059 L1203.73 63.5425 L1225.57 27.2059 L1235.17 27.2059 Z" fill="#000000" fill-rule="nonzero" fill-opacity="1" /><path clip-path="url(#clip570)" d="M1250.24 27.2059 L1261.13 27.2059 L1274.01 57.5877 L1286.94 27.2059 L1297.75 27.2059 L1297.75 72.576 L1290.26 72.576 L1290.26 34.3355 L1277.74 63.8666 L1270.29 63.8666 L1257.73 34.3355 L1257.73 72.576 L1250.24 72.576 L1250.24 27.2059 Z" fill="#000000" fill-rule="nonzero" fill-opacity="1" /><path clip-path="url(#clip570)" d="M1330.69 32.4315 Q1324.69 32.4315 1321.21 37.1306 Q1317.72 41.7891 1317.72 49.9314 Q1317.72 58.0738 1321.17 62.7728 Q1324.65 67.4314 1330.69 67.4314 Q1336.64 67.4314 1340.13 62.7323 Q1343.61 58.0333 1343.61 49.9314 Q1343.61 41.8701 1340.13 37.1711 Q1336.64 32.4315 1330.69 32.4315 M1330.69 26.1121 Q1340.41 26.1121 1345.96 32.4315 Q1351.51 38.7509 1351.51 49.9314 Q1351.51 61.0714 1345.96 67.4314 Q1340.41 73.7508 1330.69 73.7508 Q1320.92 73.7508 1315.37 67.4314 Q1309.87 61.0714 1309.87 49.9314 Q1309.87 38.7509 1315.37 32.4315 Q1320.92 26.1121 1330.69 26.1121 Z" fill="#000000" fill-rule="nonzero" fill-opacity="1" /><path clip-path="url(#clip570)" d="M1396.51 28.9478 L1396.51 35.9153 Q1393.35 34.1734 1390.15 33.3227 Q1386.99 32.4315 1383.75 32.4315 Q1376.5 32.4315 1372.49 37.0496 Q1368.48 41.6271 1368.48 49.9314 Q1368.48 58.2358 1372.49 62.8538 Q1376.5 67.4314 1383.75 67.4314 Q1386.99 67.4314 1390.15 66.5807 Q1393.35 65.6895 1396.51 63.9476 L1396.51 70.8341 Q1393.39 72.2924 1390.03 73.0216 Q1386.71 73.7508 1382.94 73.7508 Q1372.69 73.7508 1366.66 67.3098 Q1360.62 60.8689 1360.62 49.9314 Q1360.62 38.832 1366.7 32.472 Q1372.82 26.1121 1383.43 26.1121 Q1386.87 26.1121 1390.15 26.8413 Q1393.44 27.5299 1396.51 28.9478 Z" fill="#000000" fill-rule="nonzero" fill-opacity="1" /><path clip-path="url(#clip570)" d="M1404.09 27.2059 L1447.56 27.2059 L1447.56 33.1607 L1429.49 33.1607 L1429.49 72.576 L1422.16 72.576 L1422.16 33.1607 L1404.09 33.1607 L1404.09 27.2059 Z" fill="#000000" fill-rule="nonzero" fill-opacity="1" /><path clip-path="url(#clip570)" d="M1486.04 59.127 Q1486.04 55.4812 1483.37 53.5773 Q1480.73 51.6733 1475.63 51.6733 L1465.01 51.6733 L1465.01 66.6212 L1475.63 66.6212 Q1480.73 66.6212 1483.37 64.7172 Q1486.04 62.7728 1486.04 59.127 M1457.52 27.2059 L1465.01 27.2059 L1465.01 45.7185 L1475.95 45.7185 Q1484.62 45.7185 1489.28 49.0402 Q1493.98 52.3215 1493.98 59.127 Q1493.98 65.9325 1489.28 69.2543 Q1484.62 72.576 1475.95 72.576 L1457.52 72.576 L1457.52 27.2059 Z" fill="#000000" fill-rule="nonzero" fill-opacity="1" /><path clip-path="url(#clip570)" d="M1540.24 51.6733 L1540.24 66.6212 L1550.85 66.6212 Q1555.96 66.6212 1558.63 64.7172 Q1561.3 62.7728 1561.3 59.127 Q1561.3 55.4812 1558.63 53.5773 Q1555.96 51.6733 1550.85 51.6733 L1540.24 51.6733 M1540.24 33.1607 L1540.24 45.7185 L1550.04 45.7185 Q1554.26 45.7185 1556.93 44.0576 Q1559.6 42.3563 1559.6 39.3586 Q1559.6 36.3609 1556.93 34.7811 Q1554.26 33.1607 1550.04 33.1607 L1540.24 33.1607 M1532.79 27.2059 L1550.53 27.2059 Q1558.51 27.2059 1562.8 30.1225 Q1567.1 33.0392 1567.1 38.4269 Q1567.1 42.5993 1564.91 45.0704 Q1562.72 47.5009 1558.43 48.1085 Q1563.57 49.0808 1566.41 52.1594 Q1569.24 55.2381 1569.24 59.8562 Q1569.24 65.9325 1564.55 69.2543 Q1559.89 72.576 1551.22 72.576 L1532.79 72.576 L1532.79 27.2059 Z" fill="#000000" fill-rule="nonzero" fill-opacity="1" /><path clip-path="url(#clip570)" d="M1589.18 65.7705 L1589.18 89.8329 L1581.68 89.8329 L1581.68 27.2059 L1589.18 27.2059 L1589.18 34.0924 Q1591.52 30.0415 1595.09 28.0971 Q1598.69 26.1121 1603.68 26.1121 Q1611.94 26.1121 1617.09 32.6746 Q1622.27 39.2371 1622.27 49.9314 Q1622.27 60.6258 1617.09 67.1883 Q1611.94 73.7508 1603.68 73.7508 Q1598.69 73.7508 1595.09 71.8063 Q1591.52 69.8214 1589.18 65.7705 M1614.53 49.9314 Q1614.53 41.7081 1611.13 37.0496 Q1607.77 32.3505 1601.85 32.3505 Q1595.94 32.3505 1592.54 37.0496 Q1589.18 41.7081 1589.18 49.9314 Q1589.18 58.1548 1592.54 62.8538 Q1595.94 67.5124 1601.85 67.5124 Q1607.77 67.5124 1611.13 62.8538 Q1614.53 58.1548 1614.53 49.9314 Z" fill="#000000" fill-rule="nonzero" fill-opacity="1" /><path clip-path="url(#clip570)" d="M1673.43 48.0275 L1673.43 51.6733 L1639.16 51.6733 Q1639.65 59.3701 1643.78 63.421 Q1647.95 67.4314 1655.37 67.4314 Q1659.66 67.4314 1663.67 66.3781 Q1667.72 65.3249 1671.69 63.2184 L1671.69 70.267 Q1667.68 71.9684 1663.47 72.8596 Q1659.26 73.7508 1654.92 73.7508 Q1644.06 73.7508 1637.7 67.4314 Q1631.39 61.1119 1631.39 50.3365 Q1631.39 39.1965 1637.38 32.6746 Q1643.42 26.1121 1653.62 26.1121 Q1662.78 26.1121 1668.09 32.0264 Q1673.43 37.9003 1673.43 48.0275 M1665.98 45.84 Q1665.9 39.7232 1662.54 36.0774 Q1659.22 32.4315 1653.71 32.4315 Q1647.47 32.4315 1643.7 35.9558 Q1639.97 39.4801 1639.41 45.8805 L1665.98 45.84 Z" fill="#000000" fill-rule="nonzero" fill-opacity="1" /><path clip-path="url(#clip570)" d="M1685.38 27.2059 L1696.28 27.2059 L1709.16 57.5877 L1722.09 27.2059 L1732.9 27.2059 L1732.9 72.576 L1725.41 72.576 L1725.41 34.3355 L1712.89 63.8666 L1705.44 63.8666 L1692.88 34.3355 L1692.88 72.576 L1685.38 72.576 L1685.38 27.2059 Z" fill="#000000" fill-rule="nonzero" fill-opacity="1" /><path clip-path="url(#clip570)" d="M1787.06 48.0275 L1787.06 51.6733 L1752.79 51.6733 Q1753.28 59.3701 1757.41 63.421 Q1761.58 67.4314 1768.99 67.4314 Q1773.29 67.4314 1777.3 66.3781 Q1781.35 65.3249 1785.32 63.2184 L1785.32 70.267 Q1781.31 71.9684 1777.1 72.8596 Q1772.88 73.7508 1768.55 73.7508 Q1757.69 73.7508 1751.33 67.4314 Q1745.01 61.1119 1745.01 50.3365 Q1745.01 39.1965 1751.01 32.6746 Q1757.04 26.1121 1767.25 26.1121 Q1776.41 26.1121 1781.71 32.0264 Q1787.06 37.9003 1787.06 48.0275 M1779.61 45.84 Q1779.53 39.7232 1776.16 36.0774 Q1772.84 32.4315 1767.33 32.4315 Q1761.1 32.4315 1757.33 35.9558 Q1753.6 39.4801 1753.03 45.8805 L1779.61 45.84 Z" fill="#000000" fill-rule="nonzero" fill-opacity="1" /><path clip-path="url(#clip570)" d="M1799.01 27.2059 L1806.51 27.2059 L1806.51 45.7185 L1830.69 45.7185 L1830.69 27.2059 L1838.18 27.2059 L1838.18 72.576 L1830.69 72.576 L1830.69 51.6733 L1806.51 51.6733 L1806.51 72.576 L1799.01 72.576 L1799.01 27.2059 Z" fill="#000000" fill-rule="nonzero" fill-opacity="1" /><path clip-path="url(#clip570)" d="M1892.1 27.2059 L1892.1 72.576 L1884.69 72.576 L1884.69 36.1584 L1862.81 72.576 L1853.25 72.576 L1853.25 27.2059 L1860.67 27.2059 L1860.67 63.5425 L1882.5 27.2059 L1892.1 27.2059 Z" fill="#000000" fill-rule="nonzero" fill-opacity="1" /><path clip-path="url(#clip570)" d="M1941 51.6733 L1941 66.6212 L1951.61 66.6212 Q1956.71 66.6212 1959.39 64.7172 Q1962.06 62.7728 1962.06 59.127 Q1962.06 55.4812 1959.39 53.5773 Q1956.71 51.6733 1951.61 51.6733 L1941 51.6733 M1941 33.1607 L1941 45.7185 L1950.8 45.7185 Q1955.01 45.7185 1957.69 44.0576 Q1960.36 42.3563 1960.36 39.3586 Q1960.36 36.3609 1957.69 34.7811 Q1955.01 33.1607 1950.8 33.1607 L1941 33.1607 M1933.54 27.2059 L1951.29 27.2059 Q1959.27 27.2059 1963.56 30.1225 Q1967.85 33.0392 1967.85 38.4269 Q1967.85 42.5993 1965.67 45.0704 Q1963.48 47.5009 1959.18 48.1085 Q1964.33 49.0808 1967.16 52.1594 Q1970 55.2381 1970 59.8562 Q1970 65.9325 1965.3 69.2543 Q1960.64 72.576 1951.97 72.576 L1933.54 72.576 L1933.54 27.2059 Z" fill="#000000" fill-rule="nonzero" fill-opacity="1" /><path clip-path="url(#clip570)" d="M2025.58 27.2059 L2033.03 27.2059 L2033.03 72.576 L2025.58 72.576 L2025.58 27.2059 M2029.31 26.1121 L2029.31 26.1121 M2010.96 59.127 Q2010.96 55.4812 2008.28 53.5773 Q2005.65 51.6733 2000.54 51.6733 L1989.93 51.6733 L1989.93 66.6212 L2000.54 66.6212 Q2005.65 66.6212 2008.28 64.7172 Q2010.96 62.7728 2010.96 59.127 M1982.44 27.2059 L1989.93 27.2059 L1989.93 45.7185 L2000.87 45.7185 Q2009.54 45.7185 2014.2 49.0402 Q2018.89 52.3215 2018.89 59.127 Q2018.89 65.9325 2014.2 69.2543 Q2009.54 72.576 2000.87 72.576 L1982.44 72.576 L1982.44 27.2059 Z" fill="#000000" fill-rule="nonzero" fill-opacity="1" /><path clip-path="url(#clip570)" d="M2074.43 72.576 L2074.43 53.4962 L2060.54 53.4962 Q2054.34 53.4962 2050.21 49.6479 Q2046.48 46.1641 2046.48 38.7104 L2046.48 27.2059 L2053.94 27.2059 L2053.94 38.0218 Q2053.94 42.7613 2056.04 45.1514 Q2058.19 47.5414 2062.4 47.5414 L2074.43 47.5414 L2074.43 27.2059 L2081.89 27.2059 L2081.89 72.576 L2074.43 72.576 Z" fill="#000000" fill-rule="nonzero" fill-opacity="1" /><path clip-path="url(#clip570)" d="M2135.8 27.2059 L2135.8 72.576 L2128.39 72.576 L2128.39 36.1584 L2106.52 72.576 L2096.96 72.576 L2096.96 27.2059 L2104.37 27.2059 L2104.37 63.5425 L2126.2 27.2059 L2135.8 27.2059 Z" fill="#000000" fill-rule="nonzero" fill-opacity="1" /><path clip-path="url(#clip570)" d="M2183.81 28.9478 L2183.81 35.9153 Q2180.65 34.1734 2177.45 33.3227 Q2174.29 32.4315 2171.05 32.4315 Q2163.8 32.4315 2159.79 37.0496 Q2155.77 41.6271 2155.77 49.9314 Q2155.77 58.2358 2159.79 62.8538 Q2163.8 67.4314 2171.05 67.4314 Q2174.29 67.4314 2177.45 66.5807 Q2180.65 65.6895 2183.81 63.9476 L2183.81 70.8341 Q2180.69 72.2924 2177.33 73.0216 Q2174 73.7508 2170.24 73.7508 Q2159.99 73.7508 2153.95 67.3098 Q2147.92 60.8689 2147.92 49.9314 Q2147.92 38.832 2153.99 32.472 Q2160.11 26.1121 2170.72 26.1121 Q2174.17 26.1121 2177.45 26.8413 Q2180.73 27.5299 2183.81 28.9478 Z" fill="#000000" fill-rule="nonzero" fill-opacity="1" /><path clip-path="url(#clip570)" d="M2192.03 72.576 L2192.03 66.3781 Q2199.4 65.2439 2201.67 60.1397 Q2204.43 52.9696 2204.43 34.619 L2204.43 27.2059 L2235.09 27.2059 L2235.09 72.576 L2227.64 72.576 L2227.64 33.1607 L2211.88 33.1607 L2211.88 37.6572 Q2211.88 55.1571 2208.32 63.0159 Q2204.51 71.4012 2192.03 72.576 Z" fill="#000000" fill-rule="nonzero" fill-opacity="1" /><path clip-path="url(#clip570)" d="M2288.6 48.0275 L2288.6 51.6733 L2254.33 51.6733 Q2254.82 59.3701 2258.95 63.421 Q2263.12 67.4314 2270.54 67.4314 Q2274.83 67.4314 2278.84 66.3781 Q2282.89 65.3249 2286.86 63.2184 L2286.86 70.267 Q2282.85 71.9684 2278.64 72.8596 Q2274.43 73.7508 2270.09 73.7508 Q2259.24 73.7508 2252.88 67.4314 Q2246.56 61.1119 2246.56 50.3365 Q2246.56 39.1965 2252.55 32.6746 Q2258.59 26.1121 2268.8 26.1121 Q2277.95 26.1121 2283.26 32.0264 Q2288.6 37.9003 2288.6 48.0275 M2281.15 45.84 Q2281.07 39.7232 2277.71 36.0774 Q2274.39 32.4315 2268.88 32.4315 Q2262.64 32.4315 2258.87 35.9558 Q2255.14 39.4801 2254.58 45.8805 L2281.15 45.84 Z" fill="#000000" fill-rule="nonzero" fill-opacity="1" /><path clip-path="url(#clip570)" d="M2300.55 27.2059 L2308.05 27.2059 L2308.05 45.7185 L2332.23 45.7185 L2332.23 27.2059 L2339.73 27.2059 L2339.73 72.576 L2332.23 72.576 L2332.23 51.6733 L2308.05 51.6733 L2308.05 72.576 L2300.55 72.576 L2300.55 27.2059 Z" fill="#000000" fill-rule="nonzero" fill-opacity="1" /><path clip-path="url(#clip570)" d="M2393.64 27.2059 L2393.64 72.576 L2386.23 72.576 L2386.23 36.1584 L2364.36 72.576 L2354.8 72.576 L2354.8 27.2059 L2362.21 27.2059 L2362.21 63.5425 L2384.04 27.2059 L2393.64 27.2059 Z" fill="#000000" fill-rule="nonzero" fill-opacity="1" /><path clip-path="url(#clip570)" d="M2416.49 40.2903 Q2416.49 43.6525 2419.08 45.5565 Q2421.68 47.4604 2426.5 47.4604 L2436.54 47.4604 L2436.54 33.1607 L2426.5 33.1607 Q2421.68 33.1607 2419.08 35.0241 Q2416.49 36.8875 2416.49 40.2903 M2405.88 72.576 L2419.73 52.6861 Q2415.03 51.6328 2411.91 48.8782 Q2408.79 46.0831 2408.79 40.2903 Q2408.79 33.7278 2413.13 30.4871 Q2417.5 27.2059 2426.29 27.2059 L2444.04 27.2059 L2444.04 72.576 L2436.54 72.576 L2436.54 53.4152 L2427.27 53.4152 L2413.9 72.576 L2405.88 72.576 Z" fill="#000000" fill-rule="nonzero" fill-opacity="1" /><path clip-path="url(#clip570)" d="M2502.86 32.4315 Q2496.86 32.4315 2493.38 37.1306 Q2489.89 41.7891 2489.89 49.9314 Q2489.89 58.0738 2493.34 62.7728 Q2496.82 67.4314 2502.86 67.4314 Q2508.81 67.4314 2512.3 62.7323 Q2515.78 58.0333 2515.78 49.9314 Q2515.78 41.8701 2512.3 37.1711 Q2508.81 32.4315 2502.86 32.4315 M2502.86 26.1121 Q2512.58 26.1121 2518.13 32.4315 Q2523.68 38.7509 2523.68 49.9314 Q2523.68 61.0714 2518.13 67.4314 Q2512.58 73.7508 2502.86 73.7508 Q2493.09 73.7508 2487.54 67.4314 Q2482.03 61.0714 2482.03 49.9314 Q2482.03 38.7509 2487.54 32.4315 Q2493.09 26.1121 2502.86 26.1121 Z" fill="#000000" fill-rule="nonzero" fill-opacity="1" /><path clip-path="url(#clip570)" d="M2530.65 27.2059 L2574.11 27.2059 L2574.11 33.1607 L2556.04 33.1607 L2556.04 72.576 L2548.71 72.576 L2548.71 33.1607 L2530.65 33.1607 L2530.65 27.2059 Z" fill="#000000" fill-rule="nonzero" fill-opacity="1" /><path clip-path="url(#clip570)" d="M2637.18 51.4708 L2635.4 42.1132 Q2633.58 32.5126 2626.37 32.5126 Q2620.94 32.5126 2618.47 36.9686 Q2615.35 42.5588 2615.35 49.9314 Q2615.35 58.8434 2618.39 63.0969 Q2621.47 67.4314 2626.37 67.4314 Q2631.8 67.4314 2634.71 58.8029 L2637.18 51.4708 M2641.36 39.075 L2645.37 27.2059 L2652.01 27.2059 L2643.71 51.7949 L2645.33 60.6663 Q2645.69 62.6513 2647.11 64.3122 Q2648.77 66.2566 2650.07 66.2566 L2653.63 66.2566 L2653.63 72.576 L2649.18 72.576 Q2645.37 72.576 2641.96 69.1732 Q2640.3 67.4719 2639.61 63.9071 Q2637.75 68.4036 2633.94 71.9279 Q2632.16 73.5887 2626.37 73.5887 Q2616.85 73.5887 2612.23 67.4314 Q2607.49 61.0714 2607.49 49.9314 Q2607.49 38.0218 2612.64 32.4315 Q2618.35 26.1931 2626.37 26.1931 Q2638.97 26.1931 2641.36 39.075 Z" fill="#000000" fill-rule="nonzero" fill-opacity="1" /><circle clip-path="url(#clip572)" cx="519.376" cy="2146.22" r="28.8" fill="#008000" fill-rule="evenodd" fill-opacity="1" stroke="#000000" stroke-opacity="1" stroke-width="4.8"/>
<circle clip-path="url(#clip572)" cx="1087.53" cy="1909.07" r="28.8" fill="#008000" fill-rule="evenodd" fill-opacity="1" stroke="#000000" stroke-opacity="1" stroke-width="4.8"/>
<circle clip-path="url(#clip572)" cx="1655.68" cy="1316.2" r="28.8" fill="#008000" fill-rule="evenodd" fill-opacity="1" stroke="#000000" stroke-opacity="1" stroke-width="4.8"/>
<circle clip-path="url(#clip572)" cx="2507.9" cy="723.317" r="28.8" fill="#008000" fill-rule="evenodd" fill-opacity="1" stroke="#000000" stroke-opacity="1" stroke-width="4.8"/>
<circle clip-path="url(#clip572)" cx="3076.06" cy="189.727" r="28.8" fill="#008000" fill-rule="evenodd" fill-opacity="1" stroke="#000000" stroke-opacity="1" stroke-width="4.8"/>
<path clip-path="url(#clip570)" d="M533.011 303.842 L1266.52 303.842 L1266.52 200.162 L533.011 200.162  Z" fill="#ffffff" fill-rule="evenodd" fill-opacity="1"/>
<polyline clip-path="url(#clip570)" style="stroke:#000000; stroke-linecap:round; stroke-linejoin:round; stroke-width:4; stroke-opacity:1; fill:none" points="533.011,303.842 1266.52,303.842 1266.52,200.162 533.011,200.162 533.011,303.842 "/>
<circle clip-path="url(#clip570)" cx="653.459" cy="252.002" r="21.6847" fill="#008000" fill-rule="evenodd" fill-opacity="1" stroke="#000000" stroke-opacity="1" stroke-width="3.61412"/>
<path clip-path="url(#clip570)" d="M778.583 252.777 L778.583 265.439 L786.083 265.439 Q789.856 265.439 791.662 263.888 Q793.491 262.314 793.491 259.097 Q793.491 255.856 791.662 254.328 Q789.856 252.777 786.083 252.777 L778.583 252.777 M778.583 238.564 L778.583 248.981 L785.504 248.981 Q788.93 248.981 790.597 247.708 Q792.287 246.411 792.287 243.773 Q792.287 241.157 790.597 239.861 Q788.93 238.564 785.504 238.564 L778.583 238.564 M773.907 234.722 L785.852 234.722 Q791.199 234.722 794.092 236.944 Q796.986 239.166 796.986 243.263 Q796.986 246.435 795.504 248.31 Q794.023 250.185 791.153 250.648 Q794.602 251.388 796.5 253.749 Q798.421 256.087 798.421 259.606 Q798.421 264.235 795.273 266.759 Q792.125 269.282 786.315 269.282 L773.907 269.282 L773.907 234.722 Z" fill="#000000" fill-rule="nonzero" fill-opacity="1" /><path clip-path="url(#clip570)" d="M810.365 265.393 L810.365 279.143 L806.083 279.143 L806.083 243.356 L810.365 243.356 L810.365 247.291 Q811.708 244.976 813.745 243.865 Q815.805 242.731 818.652 242.731 Q823.375 242.731 826.314 246.481 Q829.277 250.231 829.277 256.342 Q829.277 262.453 826.314 266.203 Q823.375 269.953 818.652 269.953 Q815.805 269.953 813.745 268.842 Q811.708 267.708 810.365 265.393 M824.856 256.342 Q824.856 251.643 822.912 248.981 Q820.99 246.296 817.611 246.296 Q814.231 246.296 812.287 248.981 Q810.365 251.643 810.365 256.342 Q810.365 261.041 812.287 263.726 Q814.231 266.388 817.611 266.388 Q820.99 266.388 822.912 263.726 Q824.856 261.041 824.856 256.342 Z" fill="#000000" fill-rule="nonzero" fill-opacity="1" /><path clip-path="url(#clip570)" d="M858.513 255.254 L858.513 257.337 L838.93 257.337 Q839.208 261.735 841.569 264.05 Q843.953 266.342 848.189 266.342 Q850.643 266.342 852.935 265.74 Q855.249 265.138 857.518 263.935 L857.518 267.962 Q855.226 268.934 852.819 269.444 Q850.412 269.953 847.935 269.953 Q841.731 269.953 838.097 266.342 Q834.486 262.731 834.486 256.573 Q834.486 250.208 837.912 246.481 Q841.361 242.731 847.194 242.731 Q852.425 242.731 855.458 246.111 Q858.513 249.467 858.513 255.254 M854.254 254.004 Q854.208 250.509 852.287 248.425 Q850.388 246.342 847.24 246.342 Q843.675 246.342 841.523 248.356 Q839.393 250.37 839.069 254.027 L854.254 254.004 Z" fill="#000000" fill-rule="nonzero" fill-opacity="1" /><path clip-path="url(#clip570)" d="M865.342 243.356 L871.569 243.356 L878.93 260.717 L886.314 243.356 L892.495 243.356 L892.495 269.282 L888.212 269.282 L888.212 247.43 L881.06 264.305 L876.8 264.305 L869.624 247.43 L869.624 269.282 L865.342 269.282 L865.342 243.356 Z" fill="#000000" fill-rule="nonzero" fill-opacity="1" /><path clip-path="url(#clip570)" d="M905.55 250.833 Q905.55 252.754 907.032 253.842 Q908.513 254.93 911.268 254.93 L917.008 254.93 L917.008 246.759 L911.268 246.759 Q908.513 246.759 907.032 247.823 Q905.55 248.888 905.55 250.833 M899.485 269.282 L907.402 257.916 Q904.717 257.314 902.934 255.74 Q901.152 254.143 901.152 250.833 Q901.152 247.083 903.629 245.231 Q906.129 243.356 911.152 243.356 L921.291 243.356 L921.291 269.282 L917.008 269.282 L917.008 258.333 L911.707 258.333 L904.069 269.282 L899.485 269.282 Z" fill="#000000" fill-rule="nonzero" fill-opacity="1" /><path clip-path="url(#clip570)" d="M948.953 257.337 L948.953 265.879 L955.017 265.879 Q957.934 265.879 959.462 264.791 Q960.99 263.68 960.99 261.597 Q960.99 259.513 959.462 258.425 Q957.934 257.337 955.017 257.337 L948.953 257.337 M948.953 246.759 L948.953 253.935 L954.554 253.935 Q956.962 253.935 958.49 252.986 Q960.017 252.013 960.017 250.3 Q960.017 248.587 958.49 247.685 Q956.962 246.759 954.554 246.759 L948.953 246.759 M944.693 243.356 L954.832 243.356 Q959.392 243.356 961.846 245.023 Q964.3 246.689 964.3 249.768 Q964.3 252.152 963.05 253.564 Q961.8 254.953 959.346 255.3 Q962.286 255.856 963.906 257.615 Q965.527 259.374 965.527 262.013 Q965.527 265.485 962.841 267.384 Q960.179 269.282 955.226 269.282 L944.693 269.282 L944.693 243.356 Z" fill="#000000" fill-rule="nonzero" fill-opacity="1" /><path clip-path="url(#clip570)" d="M997.286 243.356 L1001.54 243.356 L1001.54 269.282 L997.286 269.282 L997.286 243.356 M999.415 242.731 L999.415 242.731 M988.929 261.597 Q988.929 259.513 987.402 258.425 Q985.897 257.337 982.98 257.337 L976.915 257.337 L976.915 265.879 L982.98 265.879 Q985.897 265.879 987.402 264.791 Q988.929 263.68 988.929 261.597 M972.633 243.356 L976.915 243.356 L976.915 253.935 L983.165 253.935 Q988.119 253.935 990.781 255.833 Q993.466 257.708 993.466 261.597 Q993.466 265.485 990.781 267.384 Q988.119 269.282 983.165 269.282 L972.633 269.282 L972.633 243.356 Z" fill="#000000" fill-rule="nonzero" fill-opacity="1" /><path clip-path="url(#clip570)" d="M1025.2 269.282 L1025.2 258.379 L1017.26 258.379 Q1013.72 258.379 1011.36 256.18 Q1009.23 254.189 1009.23 249.93 L1009.23 243.356 L1013.49 243.356 L1013.49 249.536 Q1013.49 252.245 1014.69 253.611 Q1015.92 254.976 1018.33 254.976 L1025.2 254.976 L1025.2 243.356 L1029.46 243.356 L1029.46 269.282 L1025.2 269.282 Z" fill="#000000" fill-rule="nonzero" fill-opacity="1" /><path clip-path="url(#clip570)" d="M1060.27 243.356 L1060.27 269.282 L1056.04 269.282 L1056.04 248.472 L1043.54 269.282 L1038.07 269.282 L1038.07 243.356 L1042.31 243.356 L1042.31 264.12 L1054.79 243.356 L1060.27 243.356 Z" fill="#000000" fill-rule="nonzero" fill-opacity="1" /><path clip-path="url(#clip570)" d="M1087.7 244.351 L1087.7 248.333 Q1085.9 247.337 1084.07 246.851 Q1082.26 246.342 1080.41 246.342 Q1076.27 246.342 1073.98 248.981 Q1071.68 251.597 1071.68 256.342 Q1071.68 261.087 1073.98 263.726 Q1076.27 266.342 1080.41 266.342 Q1082.26 266.342 1084.07 265.856 Q1085.9 265.347 1087.7 264.351 L1087.7 268.286 Q1085.92 269.12 1084 269.536 Q1082.1 269.953 1079.95 269.953 Q1074.09 269.953 1070.64 266.272 Q1067.19 262.592 1067.19 256.342 Q1067.19 249.999 1070.66 246.365 Q1074.16 242.731 1080.23 242.731 Q1082.19 242.731 1084.07 243.148 Q1085.94 243.541 1087.7 244.351 Z" fill="#000000" fill-rule="nonzero" fill-opacity="1" /><path clip-path="url(#clip570)" d="M1092.4 269.282 L1092.4 265.74 Q1096.61 265.092 1097.91 262.175 Q1099.48 258.078 1099.48 247.592 L1099.48 243.356 L1117.01 243.356 L1117.01 269.282 L1112.75 269.282 L1112.75 246.759 L1103.74 246.759 L1103.74 249.328 Q1103.74 259.328 1101.71 263.819 Q1099.53 268.61 1092.4 269.282 Z" fill="#000000" fill-rule="nonzero" fill-opacity="1" /><path clip-path="url(#clip570)" d="M1147.59 255.254 L1147.59 257.337 L1128 257.337 Q1128.28 261.735 1130.64 264.05 Q1133.03 266.342 1137.26 266.342 Q1139.72 266.342 1142.01 265.74 Q1144.32 265.138 1146.59 263.935 L1146.59 267.962 Q1144.3 268.934 1141.89 269.444 Q1139.48 269.953 1137.01 269.953 Q1130.8 269.953 1127.17 266.342 Q1123.56 262.731 1123.56 256.573 Q1123.56 250.208 1126.98 246.481 Q1130.43 242.731 1136.27 242.731 Q1141.5 242.731 1144.53 246.111 Q1147.59 249.467 1147.59 255.254 M1143.33 254.004 Q1143.28 250.509 1141.36 248.425 Q1139.46 246.342 1136.31 246.342 Q1132.75 246.342 1130.6 248.356 Q1128.47 250.37 1128.14 254.027 L1143.33 254.004 Z" fill="#000000" fill-rule="nonzero" fill-opacity="1" /><path clip-path="url(#clip570)" d="M1154.41 243.356 L1158.7 243.356 L1158.7 253.935 L1172.52 253.935 L1172.52 243.356 L1176.8 243.356 L1176.8 269.282 L1172.52 269.282 L1172.52 257.337 L1158.7 257.337 L1158.7 269.282 L1154.41 269.282 L1154.41 243.356 Z" fill="#000000" fill-rule="nonzero" fill-opacity="1" /><path clip-path="url(#clip570)" d="M1207.61 243.356 L1207.61 269.282 L1203.37 269.282 L1203.37 248.472 L1190.87 269.282 L1185.41 269.282 L1185.41 243.356 L1189.65 243.356 L1189.65 264.12 L1202.12 243.356 L1207.61 243.356 Z" fill="#000000" fill-rule="nonzero" fill-opacity="1" /><path clip-path="url(#clip570)" d="M1220.66 250.833 Q1220.66 252.754 1222.15 253.842 Q1223.63 254.93 1226.38 254.93 L1232.12 254.93 L1232.12 246.759 L1226.38 246.759 Q1223.63 246.759 1222.15 247.823 Q1220.66 248.888 1220.66 250.833 M1214.6 269.282 L1222.52 257.916 Q1219.83 257.314 1218.05 255.74 Q1216.27 254.143 1216.27 250.833 Q1216.27 247.083 1218.74 245.231 Q1221.24 243.356 1226.27 243.356 L1236.4 243.356 L1236.4 269.282 L1232.12 269.282 L1232.12 258.333 L1226.82 258.333 L1219.18 269.282 L1214.6 269.282 Z" fill="#000000" fill-rule="nonzero" fill-opacity="1" /></svg>
