<?xml version="1.0" encoding="utf-8"?>
<svg xmlns="http://www.w3.org/2000/svg" xmlns:xlink="http://www.w3.org/1999/xlink" width="800" height="600" viewBox="0 0 3200 2400">
<defs>
  <clipPath id="clip040">
    <rect x="0" y="0" width="3200" height="2400"/>
  </clipPath>
</defs>
<path clip-path="url(#clip040)" d="M0 2400 L3200 2400 L3200 0 L0 0  Z" fill="#ffffff" fill-rule="evenodd" fill-opacity="1"/>
<defs>
  <clipPath id="clip041">
    <rect x="189" y="131" width="2964" height="2075"/>
  </clipPath>
</defs>
<path clip-path="url(#clip040)" d="M443.833 2204.92 L3152.76 2204.92 L3152.76 131.032 L443.833 131.032  Z" fill="#ffffff" fill-rule="evenodd" fill-opacity="1"/>
<defs>
  <clipPath id="clip042">
    <rect x="443" y="131" width="2710" height="2075"/>
  </clipPath>
</defs>
<polyline clip-path="url(#clip042)" style="stroke:#000000; stroke-linecap:round; stroke-linejoin:round; stroke-width:2; stroke-opacity:0.1; fill:none" points="804.454,2204.92 804.454,131.032 "/>
<polyline clip-path="url(#clip042)" style="stroke:#000000; stroke-linecap:round; stroke-linejoin:round; stroke-width:2; stroke-opacity:0.1; fill:none" points="1372.36,2204.92 1372.36,131.032 "/>
<polyline clip-path="url(#clip042)" style="stroke:#000000; stroke-linecap:round; stroke-linejoin:round; stroke-width:2; stroke-opacity:0.1; fill:none" points="1940.27,2204.92 1940.27,131.032 "/>
<polyline clip-path="url(#clip042)" style="stroke:#000000; stroke-linecap:round; stroke-linejoin:round; stroke-width:2; stroke-opacity:0.1; fill:none" points="2508.18,2204.92 2508.18,131.032 "/>
<polyline clip-path="url(#clip042)" style="stroke:#000000; stroke-linecap:round; stroke-linejoin:round; stroke-width:2; stroke-opacity:0.1; fill:none" points="3076.09,2204.92 3076.09,131.032 "/>
<polyline clip-path="url(#clip042)" style="stroke:#000000; stroke-linecap:round; stroke-linejoin:round; stroke-width:2; stroke-opacity:0.1; fill:none" points="443.833,2146.22 3152.76,2146.22 "/>
<polyline clip-path="url(#clip042)" style="stroke:#000000; stroke-linecap:round; stroke-linejoin:round; stroke-width:2; stroke-opacity:0.1; fill:none" points="443.833,1769.98 3152.76,1769.98 "/>
<polyline clip-path="url(#clip042)" style="stroke:#000000; stroke-linecap:round; stroke-linejoin:round; stroke-width:2; stroke-opacity:0.1; fill:none" points="443.833,1393.73 3152.76,1393.73 "/>
<polyline clip-path="url(#clip042)" style="stroke:#000000; stroke-linecap:round; stroke-linejoin:round; stroke-width:2; stroke-opacity:0.1; fill:none" points="443.833,1017.48 3152.76,1017.48 "/>
<polyline clip-path="url(#clip042)" style="stroke:#000000; stroke-linecap:round; stroke-linejoin:round; stroke-width:2; stroke-opacity:0.1; fill:none" points="443.833,641.227 3152.76,641.227 "/>
<polyline clip-path="url(#clip042)" style="stroke:#000000; stroke-linecap:round; stroke-linejoin:round; stroke-width:2; stroke-opacity:0.1; fill:none" points="443.833,264.977 3152.76,264.977 "/>
<polyline clip-path="url(#clip040)" style="stroke:#000000; stroke-linecap:round; stroke-linejoin:round; stroke-width:4; stroke-opacity:1; fill:none" points="443.833,2204.92 3152.76,2204.92 "/>
<polyline clip-path="url(#clip040)" style="stroke:#000000; stroke-linecap:round; stroke-linejoin:round; stroke-width:4; stroke-opacity:1; fill:none" points="804.454,2204.92 804.454,2186.02 "/>
<polyline clip-path="url(#clip040)" style="stroke:#000000; stroke-linecap:round; stroke-linejoin:round; stroke-width:4; stroke-opacity:1; fill:none" points="1372.36,2204.92 1372.36,2186.02 "/>
<polyline clip-path="url(#clip040)" style="stroke:#000000; stroke-linecap:round; stroke-linejoin:round; stroke-width:4; stroke-opacity:1; fill:none" points="1940.27,2204.92 1940.27,2186.02 "/>
<polyline clip-path="url(#clip040)" style="stroke:#000000; stroke-linecap:round; stroke-linejoin:round; stroke-width:4; stroke-opacity:1; fill:none" points="2508.18,2204.92 2508.18,2186.02 "/>
<polyline clip-path="url(#clip040)" style="stroke:#000000; stroke-linecap:round; stroke-linejoin:round; stroke-width:4; stroke-opacity:1; fill:none" points="3076.09,2204.92 3076.09,2186.02 "/>
<path clip-path="url(#clip040)" d="M782.637 2242.24 Q779.026 2242.24 777.198 2245.8 Q775.392 2249.34 775.392 2256.47 Q775.392 2263.58 777.198 2267.15 Q779.026 2270.69 782.637 2270.69 Q786.272 2270.69 788.077 2267.15 Q789.906 2263.58 789.906 2256.47 Q789.906 2249.34 788.077 2245.8 Q786.272 2242.24 782.637 2242.24 M782.637 2238.53 Q788.448 2238.53 791.503 2243.14 Q794.582 2247.72 794.582 2256.47 Q794.582 2265.2 791.503 2269.81 Q788.448 2274.39 782.637 2274.39 Q776.827 2274.39 773.749 2269.81 Q770.693 2265.2 770.693 2256.47 Q770.693 2247.72 773.749 2243.14 Q776.827 2238.53 782.637 2238.53 Z" fill="#000000" fill-rule="nonzero" fill-opacity="1" /><path clip-path="url(#clip040)" d="M802.799 2267.84 L807.684 2267.84 L807.684 2273.72 L802.799 2273.72 L802.799 2267.84 Z" fill="#000000" fill-rule="nonzero" fill-opacity="1" /><path clip-path="url(#clip040)" d="M821.897 2269.78 L838.216 2269.78 L838.216 2273.72 L816.272 2273.72 L816.272 2269.78 Q818.934 2267.03 823.517 2262.4 Q828.123 2257.75 829.304 2256.41 Q831.549 2253.88 832.429 2252.15 Q833.332 2250.39 833.332 2248.7 Q833.332 2245.94 831.387 2244.21 Q829.466 2242.47 826.364 2242.47 Q824.165 2242.47 821.711 2243.23 Q819.281 2244 816.503 2245.55 L816.503 2240.83 Q819.327 2239.69 821.781 2239.11 Q824.234 2238.53 826.272 2238.53 Q831.642 2238.53 834.836 2241.22 Q838.031 2243.91 838.031 2248.4 Q838.031 2250.53 837.221 2252.45 Q836.433 2254.34 834.327 2256.94 Q833.748 2257.61 830.646 2260.83 Q827.545 2264.02 821.897 2269.78 Z" fill="#000000" fill-rule="nonzero" fill-opacity="1" /><path clip-path="url(#clip040)" d="M1349.5 2242.24 Q1345.89 2242.24 1344.06 2245.8 Q1342.26 2249.34 1342.26 2256.47 Q1342.26 2263.58 1344.06 2267.15 Q1345.89 2270.69 1349.5 2270.69 Q1353.14 2270.69 1354.94 2267.15 Q1356.77 2263.58 1356.77 2256.47 Q1356.77 2249.34 1354.94 2245.8 Q1353.14 2242.24 1349.5 2242.24 M1349.5 2238.53 Q1355.31 2238.53 1358.37 2243.14 Q1361.45 2247.72 1361.45 2256.47 Q1361.45 2265.2 1358.37 2269.81 Q1355.31 2274.39 1349.5 2274.39 Q1343.69 2274.39 1340.62 2269.81 Q1337.56 2265.2 1337.56 2256.47 Q1337.56 2247.72 1340.62 2243.14 Q1343.69 2238.53 1349.5 2238.53 Z" fill="#000000" fill-rule="nonzero" fill-opacity="1" /><path clip-path="url(#clip040)" d="M1369.67 2267.84 L1374.55 2267.84 L1374.55 2273.72 L1369.67 2273.72 L1369.67 2267.84 Z" fill="#000000" fill-rule="nonzero" fill-opacity="1" /><path clip-path="url(#clip040)" d="M1397.58 2243.23 L1385.78 2261.68 L1397.58 2261.68 L1397.58 2243.23 M1396.36 2239.16 L1402.24 2239.16 L1402.24 2261.68 L1407.17 2261.68 L1407.17 2265.57 L1402.24 2265.57 L1402.24 2273.72 L1397.58 2273.72 L1397.58 2265.57 L1381.98 2265.57 L1381.98 2261.06 L1396.36 2239.16 Z" fill="#000000" fill-rule="nonzero" fill-opacity="1" /><path clip-path="url(#clip040)" d="M1917.57 2242.24 Q1913.96 2242.24 1912.13 2245.8 Q1910.33 2249.34 1910.33 2256.47 Q1910.33 2263.58 1912.13 2267.15 Q1913.96 2270.69 1917.57 2270.69 Q1921.21 2270.69 1923.01 2267.15 Q1924.84 2263.58 1924.84 2256.47 Q1924.84 2249.34 1923.01 2245.8 Q1921.21 2242.24 1917.57 2242.24 M1917.57 2238.53 Q1923.38 2238.53 1926.44 2243.14 Q1929.52 2247.72 1929.52 2256.47 Q1929.52 2265.2 1926.44 2269.81 Q1923.38 2274.39 1917.57 2274.39 Q1911.76 2274.39 1908.69 2269.81 Q1905.63 2265.2 1905.63 2256.47 Q1905.63 2247.72 1908.69 2243.14 Q1911.76 2238.53 1917.57 2238.53 Z" fill="#000000" fill-rule="nonzero" fill-opacity="1" /><path clip-path="url(#clip040)" d="M1937.74 2267.84 L1942.62 2267.84 L1942.62 2273.72 L1937.74 2273.72 L1937.74 2267.84 Z" fill="#000000" fill-rule="nonzero" fill-opacity="1" /><path clip-path="url(#clip040)" d="M1963.38 2254.58 Q1960.24 2254.58 1958.38 2256.73 Q1956.56 2258.88 1956.56 2262.63 Q1956.56 2266.36 1958.38 2268.53 Q1960.24 2270.69 1963.38 2270.69 Q1966.53 2270.69 1968.36 2268.53 Q1970.21 2266.36 1970.21 2262.63 Q1970.21 2258.88 1968.36 2256.73 Q1966.53 2254.58 1963.38 2254.58 M1972.67 2239.92 L1972.67 2244.18 Q1970.91 2243.35 1969.1 2242.91 Q1967.32 2242.47 1965.56 2242.47 Q1960.93 2242.47 1958.48 2245.59 Q1956.05 2248.72 1955.7 2255.04 Q1957.07 2253.03 1959.13 2251.96 Q1961.19 2250.87 1963.66 2250.87 Q1968.87 2250.87 1971.88 2254.04 Q1974.91 2257.19 1974.91 2262.63 Q1974.91 2267.96 1971.76 2271.17 Q1968.62 2274.39 1963.38 2274.39 Q1957.39 2274.39 1954.22 2269.81 Q1951.05 2265.2 1951.05 2256.47 Q1951.05 2248.28 1954.94 2243.42 Q1958.82 2238.53 1965.38 2238.53 Q1967.13 2238.53 1968.92 2238.88 Q1970.72 2239.23 1972.67 2239.92 Z" fill="#000000" fill-rule="nonzero" fill-opacity="1" /><path clip-path="url(#clip040)" d="M2485.61 2242.24 Q2482 2242.24 2480.17 2245.8 Q2478.37 2249.34 2478.37 2256.47 Q2478.37 2263.58 2480.17 2267.15 Q2482 2270.69 2485.61 2270.69 Q2489.24 2270.69 2491.05 2267.15 Q2492.88 2263.58 2492.88 2256.47 Q2492.88 2249.34 2491.05 2245.8 Q2489.24 2242.24 2485.61 2242.24 M2485.61 2238.53 Q2491.42 2238.53 2494.48 2243.14 Q2497.55 2247.72 2497.55 2256.47 Q2497.55 2265.2 2494.48 2269.81 Q2491.42 2274.39 2485.61 2274.39 Q2479.8 2274.39 2476.72 2269.81 Q2473.67 2265.2 2473.67 2256.47 Q2473.67 2247.72 2476.72 2243.14 Q2479.8 2238.53 2485.61 2238.53 Z" fill="#000000" fill-rule="nonzero" fill-opacity="1" /><path clip-path="url(#clip040)" d="M2505.77 2267.84 L2510.66 2267.84 L2510.66 2273.72 L2505.77 2273.72 L2505.77 2267.84 Z" fill="#000000" fill-rule="nonzero" fill-opacity="1" /><path clip-path="url(#clip040)" d="M2530.84 2257.31 Q2527.51 2257.31 2525.59 2259.09 Q2523.69 2260.87 2523.69 2264 Q2523.69 2267.12 2525.59 2268.91 Q2527.51 2270.69 2530.84 2270.69 Q2534.18 2270.69 2536.1 2268.91 Q2538.02 2267.1 2538.02 2264 Q2538.02 2260.87 2536.1 2259.09 Q2534.2 2257.31 2530.84 2257.31 M2526.17 2255.32 Q2523.16 2254.58 2521.47 2252.52 Q2519.8 2250.46 2519.8 2247.49 Q2519.8 2243.35 2522.74 2240.94 Q2525.7 2238.53 2530.84 2238.53 Q2536 2238.53 2538.94 2240.94 Q2541.88 2243.35 2541.88 2247.49 Q2541.88 2250.46 2540.19 2252.52 Q2538.53 2254.58 2535.54 2255.32 Q2538.92 2256.1 2540.8 2258.4 Q2542.69 2260.69 2542.69 2264 Q2542.69 2269.02 2539.61 2271.71 Q2536.56 2274.39 2530.84 2274.39 Q2525.12 2274.39 2522.05 2271.71 Q2518.99 2269.02 2518.99 2264 Q2518.99 2260.69 2520.89 2258.4 Q2522.79 2256.1 2526.17 2255.32 M2524.45 2247.93 Q2524.45 2250.62 2526.12 2252.12 Q2527.81 2253.63 2530.84 2253.63 Q2533.85 2253.63 2535.54 2252.12 Q2537.25 2250.62 2537.25 2247.93 Q2537.25 2245.25 2535.54 2243.74 Q2533.85 2242.24 2530.84 2242.24 Q2527.81 2242.24 2526.12 2243.74 Q2524.45 2245.25 2524.45 2247.93 Z" fill="#000000" fill-rule="nonzero" fill-opacity="1" /><path clip-path="url(#clip040)" d="M3043.24 2269.78 L3050.88 2269.78 L3050.88 2243.42 L3042.57 2245.09 L3042.57 2240.83 L3050.83 2239.16 L3055.51 2239.16 L3055.51 2269.78 L3063.15 2269.78 L3063.15 2273.72 L3043.24 2273.72 L3043.24 2269.78 Z" fill="#000000" fill-rule="nonzero" fill-opacity="1" /><path clip-path="url(#clip040)" d="M3072.59 2267.84 L3077.48 2267.84 L3077.48 2273.72 L3072.59 2273.72 L3072.59 2267.84 Z" fill="#000000" fill-rule="nonzero" fill-opacity="1" /><path clip-path="url(#clip040)" d="M3097.66 2242.24 Q3094.05 2242.24 3092.22 2245.8 Q3090.42 2249.34 3090.42 2256.47 Q3090.42 2263.58 3092.22 2267.15 Q3094.05 2270.69 3097.66 2270.69 Q3101.3 2270.69 3103.1 2267.15 Q3104.93 2263.58 3104.93 2256.47 Q3104.93 2249.34 3103.1 2245.8 Q3101.3 2242.24 3097.66 2242.24 M3097.66 2238.53 Q3103.47 2238.53 3106.53 2243.14 Q3109.61 2247.72 3109.61 2256.47 Q3109.61 2265.2 3106.53 2269.81 Q3103.47 2274.39 3097.66 2274.39 Q3091.85 2274.39 3088.77 2269.81 Q3085.72 2265.2 3085.72 2256.47 Q3085.72 2247.72 3088.77 2243.14 Q3091.85 2238.53 3097.66 2238.53 Z" fill="#000000" fill-rule="nonzero" fill-opacity="1" /><path clip-path="url(#clip040)" d="M1530.81 2317.92 L1530.81 2324.7 Q1527.56 2321.68 1523.87 2320.18 Q1520.21 2318.69 1516.07 2318.69 Q1507.92 2318.69 1503.59 2323.69 Q1499.27 2328.65 1499.27 2338.07 Q1499.27 2347.46 1503.59 2352.46 Q1507.92 2357.42 1516.07 2357.42 Q1520.21 2357.42 1523.87 2355.93 Q1527.56 2354.43 1530.81 2351.41 L1530.81 2358.12 Q1527.43 2360.42 1523.65 2361.56 Q1519.89 2362.71 1515.69 2362.71 Q1504.9 2362.71 1498.69 2356.12 Q1492.49 2349.5 1492.49 2338.07 Q1492.49 2326.61 1498.69 2320.02 Q1504.9 2313.4 1515.69 2313.4 Q1519.95 2313.4 1523.71 2314.55 Q1527.5 2315.66 1530.81 2317.92 Z" fill="#000000" fill-rule="nonzero" fill-opacity="1" /><path clip-path="url(#clip040)" d="M1540.26 2326.14 L1546.08 2326.14 L1546.08 2342.88 L1562.6 2326.14 L1569.8 2326.14 L1556.17 2339.92 L1571.55 2361.78 L1564.99 2361.78 L1552.36 2343.8 L1546.08 2350.17 L1546.08 2361.78 L1540.26 2361.78 L1540.26 2326.14 Z" fill="#000000" fill-rule="nonzero" fill-opacity="1" /><path clip-path="url(#clip040)" d="M1593.67 2330.24 Q1588.96 2330.24 1586.22 2333.93 Q1583.48 2337.59 1583.48 2343.99 Q1583.48 2350.39 1586.19 2354.08 Q1588.93 2357.74 1593.67 2357.74 Q1598.35 2357.74 1601.08 2354.05 Q1603.82 2350.36 1603.82 2343.99 Q1603.82 2337.66 1601.08 2333.97 Q1598.35 2330.24 1593.67 2330.24 M1593.67 2325.28 Q1601.31 2325.28 1605.67 2330.24 Q1610.03 2335.21 1610.03 2343.99 Q1610.03 2352.74 1605.67 2357.74 Q1601.31 2362.71 1593.67 2362.71 Q1586 2362.71 1581.64 2357.74 Q1577.31 2352.74 1577.31 2343.99 Q1577.31 2335.21 1581.64 2330.24 Q1586 2325.28 1593.67 2325.28 Z" fill="#000000" fill-rule="nonzero" fill-opacity="1" /><path clip-path="url(#clip040)" d="M1625.4 2356.44 L1625.4 2375.34 L1619.51 2375.34 L1619.51 2326.14 L1625.4 2326.14 L1625.4 2331.55 Q1627.25 2328.36 1630.05 2326.84 Q1632.88 2325.28 1636.8 2325.28 Q1643.29 2325.28 1647.33 2330.43 Q1651.41 2335.59 1651.41 2343.99 Q1651.41 2352.39 1647.33 2357.55 Q1643.29 2362.71 1636.8 2362.71 Q1632.88 2362.71 1630.05 2361.18 Q1627.25 2359.62 1625.4 2356.44 M1645.33 2343.99 Q1645.33 2337.53 1642.65 2333.87 Q1640.01 2330.18 1635.36 2330.18 Q1630.72 2330.18 1628.04 2333.87 Q1625.4 2337.53 1625.4 2343.99 Q1625.4 2350.45 1628.04 2354.14 Q1630.72 2357.81 1635.36 2357.81 Q1640.01 2357.81 1642.65 2354.14 Q1645.33 2350.45 1645.33 2343.99 Z" fill="#000000" fill-rule="nonzero" fill-opacity="1" /><path clip-path="url(#clip040)" d="M1674.93 2330.24 Q1670.22 2330.24 1667.48 2333.93 Q1664.74 2337.59 1664.74 2343.99 Q1664.74 2350.39 1667.45 2354.08 Q1670.18 2357.74 1674.93 2357.74 Q1679.61 2357.74 1682.34 2354.05 Q1685.08 2350.36 1685.08 2343.99 Q1685.08 2337.66 1682.34 2333.97 Q1679.61 2330.24 1674.93 2330.24 M1674.93 2325.28 Q1682.57 2325.28 1686.93 2330.24 Q1691.29 2335.21 1691.29 2343.99 Q1691.29 2352.74 1686.93 2357.74 Q1682.57 2362.71 1674.93 2362.71 Q1667.26 2362.71 1662.9 2357.74 Q1658.57 2352.74 1658.57 2343.99 Q1658.57 2335.21 1662.9 2330.24 Q1667.26 2325.28 1674.93 2325.28 Z" fill="#000000" fill-rule="nonzero" fill-opacity="1" /><path clip-path="url(#clip040)" d="M1726.65 2327.5 L1726.65 2332.98 Q1724.17 2331.61 1721.65 2330.94 Q1719.17 2330.24 1716.62 2330.24 Q1710.92 2330.24 1707.77 2333.87 Q1704.62 2337.47 1704.62 2343.99 Q1704.62 2350.52 1707.77 2354.14 Q1710.92 2357.74 1716.62 2357.74 Q1719.17 2357.74 1721.65 2357.07 Q1724.17 2356.37 1726.65 2355 L1726.65 2360.42 Q1724.2 2361.56 1721.56 2362.13 Q1718.95 2362.71 1715.99 2362.71 Q1707.93 2362.71 1703.19 2357.65 Q1698.45 2352.59 1698.45 2343.99 Q1698.45 2335.27 1703.22 2330.27 Q1708.03 2325.28 1716.37 2325.28 Q1719.07 2325.28 1721.65 2325.85 Q1724.23 2326.39 1726.65 2327.5 Z" fill="#000000" fill-rule="nonzero" fill-opacity="1" /><path clip-path="url(#clip040)" d="M1732.6 2326.14 L1766.75 2326.14 L1766.75 2330.81 L1752.56 2330.81 L1752.56 2361.78 L1746.8 2361.78 L1746.8 2330.81 L1732.6 2330.81 L1732.6 2326.14 Z" fill="#000000" fill-rule="nonzero" fill-opacity="1" /><path clip-path="url(#clip040)" d="M1796.99 2351.22 Q1796.99 2348.35 1794.89 2346.86 Q1792.82 2345.36 1788.81 2345.36 L1780.47 2345.36 L1780.47 2357.11 L1788.81 2357.11 Q1792.82 2357.11 1794.89 2355.61 Q1796.99 2354.08 1796.99 2351.22 M1774.58 2326.14 L1780.47 2326.14 L1780.47 2340.68 L1789.06 2340.68 Q1795.88 2340.68 1799.54 2343.29 Q1803.23 2345.87 1803.23 2351.22 Q1803.23 2356.56 1799.54 2359.17 Q1795.88 2361.78 1789.06 2361.78 L1774.58 2361.78 L1774.58 2326.14 Z" fill="#000000" fill-rule="nonzero" fill-opacity="1" /><path clip-path="url(#clip040)" d="M1839.61 2356.44 L1839.61 2375.34 L1833.72 2375.34 L1833.72 2326.14 L1839.61 2326.14 L1839.61 2331.55 Q1841.45 2328.36 1844.25 2326.84 Q1847.09 2325.28 1851 2325.28 Q1857.5 2325.28 1861.54 2330.43 Q1865.61 2335.59 1865.61 2343.99 Q1865.61 2352.39 1861.54 2357.55 Q1857.5 2362.71 1851 2362.71 Q1847.09 2362.71 1844.25 2361.18 Q1841.45 2359.62 1839.61 2356.44 M1859.53 2343.99 Q1859.53 2337.53 1856.86 2333.87 Q1854.22 2330.18 1849.57 2330.18 Q1844.92 2330.18 1842.25 2333.87 Q1839.61 2337.53 1839.61 2343.99 Q1839.61 2350.45 1842.25 2354.14 Q1844.92 2357.81 1849.57 2357.81 Q1854.22 2357.81 1856.86 2354.14 Q1859.53 2350.45 1859.53 2343.99 Z" fill="#000000" fill-rule="nonzero" fill-opacity="1" /><path clip-path="url(#clip040)" d="M1889.13 2330.24 Q1884.42 2330.24 1881.69 2333.93 Q1878.95 2337.59 1878.95 2343.99 Q1878.95 2350.39 1881.65 2354.08 Q1884.39 2357.74 1889.13 2357.74 Q1893.81 2357.74 1896.55 2354.05 Q1899.29 2350.36 1899.29 2343.99 Q1899.29 2337.66 1896.55 2333.97 Q1893.81 2330.24 1889.13 2330.24 M1889.13 2325.28 Q1896.77 2325.28 1901.13 2330.24 Q1905.49 2335.21 1905.49 2343.99 Q1905.49 2352.74 1901.13 2357.74 Q1896.77 2362.71 1889.13 2362.71 Q1881.46 2362.71 1877.1 2357.74 Q1872.77 2352.74 1872.77 2343.99 Q1872.77 2335.21 1877.1 2330.24 Q1881.46 2325.28 1889.13 2325.28 Z" fill="#000000" fill-rule="nonzero" fill-opacity="1" /><path clip-path="url(#clip040)" d="M1940.85 2327.5 L1940.85 2332.98 Q1938.37 2331.61 1935.86 2330.94 Q1933.37 2330.24 1930.83 2330.24 Q1925.13 2330.24 1921.98 2333.87 Q1918.83 2337.47 1918.83 2343.99 Q1918.83 2350.52 1921.98 2354.14 Q1925.13 2357.74 1930.83 2357.74 Q1933.37 2357.74 1935.86 2357.07 Q1938.37 2356.37 1940.85 2355 L1940.85 2360.42 Q1938.4 2361.56 1935.76 2362.13 Q1933.15 2362.71 1930.19 2362.71 Q1922.14 2362.71 1917.4 2357.65 Q1912.65 2352.59 1912.65 2343.99 Q1912.65 2335.27 1917.43 2330.27 Q1922.23 2325.28 1930.57 2325.28 Q1933.28 2325.28 1935.86 2325.85 Q1938.44 2326.39 1940.85 2327.5 Z" fill="#000000" fill-rule="nonzero" fill-opacity="1" /><path clip-path="url(#clip040)" d="M1946.81 2326.14 L1980.96 2326.14 L1980.96 2330.81 L1966.76 2330.81 L1966.76 2361.78 L1961 2361.78 L1961 2330.81 L1946.81 2330.81 L1946.81 2326.14 Z" fill="#000000" fill-rule="nonzero" fill-opacity="1" /><path clip-path="url(#clip040)" d="M2005.21 2343.86 Q1998.11 2343.86 1995.38 2345.49 Q1992.64 2347.11 1992.64 2351.03 Q1992.64 2354.14 1994.68 2355.99 Q1996.75 2357.81 2000.28 2357.81 Q2005.15 2357.81 2008.08 2354.37 Q2011.04 2350.9 2011.04 2345.17 L2011.04 2343.86 L2005.21 2343.86 M2016.89 2341.45 L2016.89 2361.78 L2011.04 2361.78 L2011.04 2356.37 Q2009.03 2359.62 2006.04 2361.18 Q2003.05 2362.71 1998.72 2362.71 Q1993.24 2362.71 1990 2359.65 Q1986.78 2356.56 1986.78 2351.41 Q1986.78 2345.39 1990.79 2342.34 Q1994.84 2339.28 2002.82 2339.28 L2011.04 2339.28 L2011.04 2338.71 Q2011.04 2334.67 2008.36 2332.47 Q2005.72 2330.24 2000.91 2330.24 Q1997.86 2330.24 1994.96 2330.97 Q1992.07 2331.71 1989.39 2333.17 L1989.39 2327.76 Q1992.61 2326.52 1995.63 2325.91 Q1998.65 2325.28 2001.52 2325.28 Q2009.25 2325.28 2013.07 2329.29 Q2016.89 2333.3 2016.89 2341.45 Z" fill="#000000" fill-rule="nonzero" fill-opacity="1" /><path clip-path="url(#clip040)" d="M2030.45 2353.7 L2037.17 2353.7 L2037.17 2359.17 L2031.95 2369.36 L2027.84 2369.36 L2030.45 2359.17 L2030.45 2353.7 Z" fill="#000000" fill-rule="nonzero" fill-opacity="1" /><path clip-path="url(#clip040)" d="M2091.18 2345.2 L2089.78 2337.85 Q2088.35 2330.31 2082.68 2330.31 Q2078.42 2330.31 2076.48 2333.81 Q2074.02 2338.2 2074.02 2343.99 Q2074.02 2350.99 2076.41 2354.34 Q2078.83 2357.74 2082.68 2357.74 Q2086.95 2357.74 2089.24 2350.96 L2091.18 2345.2 M2094.46 2335.46 L2097.61 2326.14 L2102.83 2326.14 L2096.3 2345.46 L2097.58 2352.43 Q2097.86 2353.99 2098.98 2355.29 Q2100.28 2356.82 2101.3 2356.82 L2104.1 2356.82 L2104.1 2361.78 L2100.6 2361.78 Q2097.61 2361.78 2094.94 2359.11 Q2093.63 2357.77 2093.09 2354.97 Q2091.63 2358.51 2088.63 2361.27 Q2087.23 2362.58 2082.68 2362.58 Q2075.2 2362.58 2071.57 2357.74 Q2067.85 2352.74 2067.85 2343.99 Q2067.85 2334.63 2071.89 2330.24 Q2076.38 2325.34 2082.68 2325.34 Q2092.58 2325.34 2094.46 2335.46 Z" fill="#000000" fill-rule="nonzero" fill-opacity="1" /><polyline clip-path="url(#clip040)" style="stroke:#000000; stroke-linecap:round; stroke-linejoin:round; stroke-width:4; stroke-opacity:1; fill:none" points="443.833,2204.92 443.833,131.032 "/>
<polyline clip-path="url(#clip040)" style="stroke:#000000; stroke-linecap:round; stroke-linejoin:round; stroke-width:4; stroke-opacity:1; fill:none" points="443.833,2146.22 462.73,2146.22 "/>
<polyline clip-path="url(#clip040)" style="stroke:#000000; stroke-linecap:round; stroke-linejoin:round; stroke-width:4; stroke-opacity:1; fill:none" points="443.833,1769.98 462.73,1769.98 "/>
<polyline clip-path="url(#clip040)" style="stroke:#000000; stroke-linecap:round; stroke-linejoin:round; stroke-width:4; stroke-opacity:1; fill:none" points="443.833,1393.73 462.73,1393.73 "/>
<polyline clip-path="url(#clip040)" style="stroke:#000000; stroke-linecap:round; stroke-linejoin:round; stroke-width:4; stroke-opacity:1; fill:none" points="443.833,1017.48 462.73,1017.48 "/>
<polyline clip-path="url(#clip040)" style="stroke:#000000; stroke-linecap:round; stroke-linejoin:round; stroke-width:4; stroke-opacity:1; fill:none" points="443.833,641.227 462.73,641.227 "/>
<polyline clip-path="url(#clip040)" style="stroke:#000000; stroke-linecap:round; stroke-linejoin:round; stroke-width:4; stroke-opacity:1; fill:none" points="443.833,264.977 462.73,264.977 "/>
<path clip-path="url(#clip040)" d="M131.802 2139.47 L119.996 2157.92 L131.802 2157.92 L131.802 2139.47 M130.575 2135.39 L136.455 2135.39 L136.455 2157.92 L141.385 2157.92 L141.385 2161.8 L136.455 2161.8 L136.455 2169.95 L131.802 2169.95 L131.802 2161.8 L116.2 2161.8 L116.2 2157.29 L130.575 2135.39 Z" fill="#000000" fill-rule="nonzero" fill-opacity="1" /><path clip-path="url(#clip040)" d="M149.117 2164.07 L154.001 2164.07 L154.001 2169.95 L149.117 2169.95 L149.117 2164.07 Z" fill="#000000" fill-rule="nonzero" fill-opacity="1" /><path clip-path="url(#clip040)" d="M178.353 2151.32 Q181.709 2152.04 183.584 2154.3 Q185.482 2156.57 185.482 2159.91 Q185.482 2165.02 181.964 2167.82 Q178.445 2170.62 171.964 2170.62 Q169.788 2170.62 167.473 2170.18 Q165.181 2169.77 162.728 2168.91 L162.728 2164.4 Q164.672 2165.53 166.987 2166.11 Q169.302 2166.69 171.825 2166.69 Q176.223 2166.69 178.515 2164.95 Q180.829 2163.22 180.829 2159.91 Q180.829 2156.85 178.677 2155.14 Q176.547 2153.4 172.728 2153.4 L168.7 2153.4 L168.7 2149.56 L172.913 2149.56 Q176.362 2149.56 178.191 2148.19 Q180.019 2146.8 180.019 2144.21 Q180.019 2141.55 178.121 2140.14 Q176.246 2138.7 172.728 2138.7 Q170.806 2138.7 168.607 2139.12 Q166.408 2139.54 163.769 2140.42 L163.769 2136.25 Q166.431 2135.51 168.746 2135.14 Q171.084 2134.77 173.144 2134.77 Q178.468 2134.77 181.57 2137.2 Q184.672 2139.61 184.672 2143.73 Q184.672 2146.6 183.029 2148.59 Q181.385 2150.55 178.353 2151.32 Z" fill="#000000" fill-rule="nonzero" fill-opacity="1" /><path clip-path="url(#clip040)" d="M204.348 2138.47 Q200.737 2138.47 198.908 2142.04 Q197.103 2145.58 197.103 2152.71 Q197.103 2159.81 198.908 2163.38 Q200.737 2166.92 204.348 2166.92 Q207.982 2166.92 209.788 2163.38 Q211.616 2159.81 211.616 2152.71 Q211.616 2145.58 209.788 2142.04 Q207.982 2138.47 204.348 2138.47 M204.348 2134.77 Q210.158 2134.77 213.214 2139.37 Q216.292 2143.96 216.292 2152.71 Q216.292 2161.43 213.214 2166.04 Q210.158 2170.62 204.348 2170.62 Q198.538 2170.62 195.459 2166.04 Q192.403 2161.43 192.403 2152.71 Q192.403 2143.96 195.459 2139.37 Q198.538 2134.77 204.348 2134.77 Z" fill="#000000" fill-rule="nonzero" fill-opacity="1" /><path clip-path="url(#clip040)" d="M234.51 2138.47 Q230.899 2138.47 229.07 2142.04 Q227.264 2145.58 227.264 2152.71 Q227.264 2159.81 229.07 2163.38 Q230.899 2166.92 234.51 2166.92 Q238.144 2166.92 239.949 2163.38 Q241.778 2159.81 241.778 2152.71 Q241.778 2145.58 239.949 2142.04 Q238.144 2138.47 234.51 2138.47 M234.51 2134.77 Q240.32 2134.77 243.375 2139.37 Q246.454 2143.96 246.454 2152.71 Q246.454 2161.43 243.375 2166.04 Q240.32 2170.62 234.51 2170.62 Q228.7 2170.62 225.621 2166.04 Q222.565 2161.43 222.565 2152.71 Q222.565 2143.96 225.621 2139.37 Q228.7 2134.77 234.51 2134.77 Z" fill="#000000" fill-rule="nonzero" fill-opacity="1" /><path clip-path="url(#clip040)" d="M282.843 2144.49 L272.264 2155.11 L282.843 2165.69 L280.088 2168.49 L269.463 2157.87 L258.838 2168.49 L256.107 2165.69 L266.662 2155.11 L256.107 2144.49 L258.838 2141.69 L269.463 2152.31 L280.088 2141.69 L282.843 2144.49 Z" fill="#000000" fill-rule="nonzero" fill-opacity="1" /><path clip-path="url(#clip040)" d="M295.204 2166.02 L302.843 2166.02 L302.843 2139.65 L294.533 2141.32 L294.533 2137.06 L302.796 2135.39 L307.472 2135.39 L307.472 2166.02 L315.111 2166.02 L315.111 2169.95 L295.204 2169.95 L295.204 2166.02 Z" fill="#000000" fill-rule="nonzero" fill-opacity="1" /><path clip-path="url(#clip040)" d="M334.555 2138.47 Q330.944 2138.47 329.116 2142.04 Q327.31 2145.58 327.31 2152.71 Q327.31 2159.81 329.116 2163.38 Q330.944 2166.92 334.555 2166.92 Q338.19 2166.92 339.995 2163.38 Q341.824 2159.81 341.824 2152.71 Q341.824 2145.58 339.995 2142.04 Q338.19 2138.47 334.555 2138.47 M334.555 2134.77 Q340.366 2134.77 343.421 2139.37 Q346.5 2143.96 346.5 2152.71 Q346.5 2161.43 343.421 2166.04 Q340.366 2170.62 334.555 2170.62 Q328.745 2170.62 325.667 2166.04 Q322.611 2161.43 322.611 2152.71 Q322.611 2143.96 325.667 2139.37 Q328.745 2134.77 334.555 2134.77 Z" fill="#000000" fill-rule="nonzero" fill-opacity="1" /><path clip-path="url(#clip040)" d="M346.5 2128.87 L370.611 2128.87 L370.611 2132.07 L346.5 2132.07 L346.5 2128.87 Z" fill="#000000" fill-rule="nonzero" fill-opacity="1" /><path clip-path="url(#clip040)" d="M378.849 2114.46 L393.764 2114.46 L393.764 2117.66 L382.329 2117.66 L382.329 2124.54 Q383.156 2124.26 383.984 2124.13 Q384.811 2123.98 385.639 2123.98 Q390.341 2123.98 393.087 2126.56 Q395.833 2129.13 395.833 2133.53 Q395.833 2138.07 393.011 2140.59 Q390.19 2143.09 385.056 2143.09 Q383.288 2143.09 381.445 2142.79 Q379.62 2142.49 377.664 2141.88 L377.664 2138.07 Q379.357 2138.99 381.163 2139.44 Q382.968 2139.89 384.981 2139.89 Q388.234 2139.89 390.134 2138.18 Q392.033 2136.47 392.033 2133.53 Q392.033 2130.6 390.134 2128.89 Q388.234 2127.18 384.981 2127.18 Q383.457 2127.18 381.934 2127.51 Q380.429 2127.85 378.849 2128.57 L378.849 2114.46 Z" fill="#000000" fill-rule="nonzero" fill-opacity="1" /><path clip-path="url(#clip040)" d="M131.802 1763.22 L119.996 1781.67 L131.802 1781.67 L131.802 1763.22 M130.575 1759.14 L136.455 1759.14 L136.455 1781.67 L141.385 1781.67 L141.385 1785.55 L136.455 1785.55 L136.455 1793.7 L131.802 1793.7 L131.802 1785.55 L116.2 1785.55 L116.2 1781.04 L130.575 1759.14 Z" fill="#000000" fill-rule="nonzero" fill-opacity="1" /><path clip-path="url(#clip040)" d="M149.117 1787.82 L154.001 1787.82 L154.001 1793.7 L149.117 1793.7 L149.117 1787.82 Z" fill="#000000" fill-rule="nonzero" fill-opacity="1" /><path clip-path="url(#clip040)" d="M178.353 1775.07 Q181.709 1775.79 183.584 1778.05 Q185.482 1780.32 185.482 1783.66 Q185.482 1788.77 181.964 1791.57 Q178.445 1794.37 171.964 1794.37 Q169.788 1794.37 167.473 1793.93 Q165.181 1793.52 162.728 1792.66 L162.728 1788.15 Q164.672 1789.28 166.987 1789.86 Q169.302 1790.44 171.825 1790.44 Q176.223 1790.44 178.515 1788.7 Q180.829 1786.97 180.829 1783.66 Q180.829 1780.6 178.677 1778.89 Q176.547 1777.15 172.728 1777.15 L168.7 1777.15 L168.7 1773.31 L172.913 1773.31 Q176.362 1773.31 178.191 1771.94 Q180.019 1770.55 180.019 1767.96 Q180.019 1765.3 178.121 1763.89 Q176.246 1762.45 172.728 1762.45 Q170.806 1762.45 168.607 1762.87 Q166.408 1763.29 163.769 1764.17 L163.769 1760 Q166.431 1759.26 168.746 1758.89 Q171.084 1758.52 173.144 1758.52 Q178.468 1758.52 181.57 1760.95 Q184.672 1763.36 184.672 1767.48 Q184.672 1770.35 183.029 1772.34 Q181.385 1774.3 178.353 1775.07 Z" fill="#000000" fill-rule="nonzero" fill-opacity="1" /><path clip-path="url(#clip040)" d="M194.394 1759.14 L212.751 1759.14 L212.751 1763.08 L198.677 1763.08 L198.677 1771.55 Q199.695 1771.2 200.714 1771.04 Q201.732 1770.86 202.751 1770.86 Q208.538 1770.86 211.917 1774.03 Q215.297 1777.2 215.297 1782.62 Q215.297 1788.19 211.825 1791.3 Q208.352 1794.37 202.033 1794.37 Q199.857 1794.37 197.589 1794 Q195.343 1793.63 192.936 1792.89 L192.936 1788.19 Q195.019 1789.33 197.241 1789.88 Q199.464 1790.44 201.94 1790.44 Q205.945 1790.44 208.283 1788.33 Q210.621 1786.23 210.621 1782.62 Q210.621 1779 208.283 1776.9 Q205.945 1774.79 201.94 1774.79 Q200.065 1774.79 198.19 1775.21 Q196.339 1775.62 194.394 1776.5 L194.394 1759.14 Z" fill="#000000" fill-rule="nonzero" fill-opacity="1" /><path clip-path="url(#clip040)" d="M234.51 1762.22 Q230.899 1762.22 229.07 1765.79 Q227.264 1769.33 227.264 1776.46 Q227.264 1783.56 229.07 1787.13 Q230.899 1790.67 234.51 1790.67 Q238.144 1790.67 239.949 1787.13 Q241.778 1783.56 241.778 1776.46 Q241.778 1769.33 239.949 1765.79 Q238.144 1762.22 234.51 1762.22 M234.51 1758.52 Q240.32 1758.52 243.375 1763.12 Q246.454 1767.71 246.454 1776.46 Q246.454 1785.18 243.375 1789.79 Q240.32 1794.37 234.51 1794.37 Q228.7 1794.37 225.621 1789.79 Q222.565 1785.18 222.565 1776.46 Q222.565 1767.71 225.621 1763.12 Q228.7 1758.52 234.51 1758.52 Z" fill="#000000" fill-rule="nonzero" fill-opacity="1" /><path clip-path="url(#clip040)" d="M282.843 1768.24 L272.264 1778.87 L282.843 1789.44 L280.088 1792.24 L269.463 1781.62 L258.838 1792.24 L256.107 1789.44 L266.662 1778.87 L256.107 1768.24 L258.838 1765.44 L269.463 1776.06 L280.088 1765.44 L282.843 1768.24 Z" fill="#000000" fill-rule="nonzero" fill-opacity="1" /><path clip-path="url(#clip040)" d="M295.204 1789.77 L302.843 1789.77 L302.843 1763.4 L294.533 1765.07 L294.533 1760.81 L302.796 1759.14 L307.472 1759.14 L307.472 1789.77 L315.111 1789.77 L315.111 1793.7 L295.204 1793.7 L295.204 1789.77 Z" fill="#000000" fill-rule="nonzero" fill-opacity="1" /><path clip-path="url(#clip040)" d="M334.555 1762.22 Q330.944 1762.22 329.116 1765.79 Q327.31 1769.33 327.31 1776.46 Q327.31 1783.56 329.116 1787.13 Q330.944 1790.67 334.555 1790.67 Q338.19 1790.67 339.995 1787.13 Q341.824 1783.56 341.824 1776.46 Q341.824 1769.33 339.995 1765.79 Q338.19 1762.22 334.555 1762.22 M334.555 1758.52 Q340.366 1758.52 343.421 1763.12 Q346.5 1767.71 346.5 1776.46 Q346.5 1785.18 343.421 1789.79 Q340.366 1794.37 334.555 1794.37 Q328.745 1794.37 325.667 1789.79 Q322.611 1785.18 322.611 1776.46 Q322.611 1767.71 325.667 1763.12 Q328.745 1758.52 334.555 1758.52 Z" fill="#000000" fill-rule="nonzero" fill-opacity="1" /><path clip-path="url(#clip040)" d="M346.5 1752.62 L370.611 1752.62 L370.611 1755.82 L346.5 1755.82 L346.5 1752.62 Z" fill="#000000" fill-rule="nonzero" fill-opacity="1" /><path clip-path="url(#clip040)" d="M378.849 1738.21 L393.764 1738.21 L393.764 1741.41 L382.329 1741.41 L382.329 1748.29 Q383.156 1748.01 383.984 1747.88 Q384.811 1747.73 385.639 1747.73 Q390.341 1747.73 393.087 1750.31 Q395.833 1752.88 395.833 1757.28 Q395.833 1761.82 393.011 1764.34 Q390.19 1766.84 385.056 1766.84 Q383.288 1766.84 381.445 1766.54 Q379.62 1766.24 377.664 1765.63 L377.664 1761.82 Q379.357 1762.74 381.163 1763.19 Q382.968 1763.64 384.981 1763.64 Q388.234 1763.64 390.134 1761.93 Q392.033 1760.22 392.033 1757.28 Q392.033 1754.35 390.134 1752.64 Q388.234 1750.93 384.981 1750.93 Q383.457 1750.93 381.934 1751.27 Q380.429 1751.6 378.849 1752.32 L378.849 1738.21 Z" fill="#000000" fill-rule="nonzero" fill-opacity="1" /><path clip-path="url(#clip040)" d="M131.802 1386.97 L119.996 1405.42 L131.802 1405.42 L131.802 1386.97 M130.575 1382.89 L136.455 1382.89 L136.455 1405.42 L141.385 1405.42 L141.385 1409.31 L136.455 1409.31 L136.455 1417.45 L131.802 1417.45 L131.802 1409.31 L116.2 1409.31 L116.2 1404.79 L130.575 1382.89 Z" fill="#000000" fill-rule="nonzero" fill-opacity="1" /><path clip-path="url(#clip040)" d="M149.117 1411.57 L154.001 1411.57 L154.001 1417.45 L149.117 1417.45 L149.117 1411.57 Z" fill="#000000" fill-rule="nonzero" fill-opacity="1" /><path clip-path="url(#clip040)" d="M177.033 1386.97 L165.228 1405.42 L177.033 1405.42 L177.033 1386.97 M175.806 1382.89 L181.686 1382.89 L181.686 1405.42 L186.616 1405.42 L186.616 1409.31 L181.686 1409.31 L181.686 1417.45 L177.033 1417.45 L177.033 1409.31 L161.431 1409.31 L161.431 1404.79 L175.806 1382.89 Z" fill="#000000" fill-rule="nonzero" fill-opacity="1" /><path clip-path="url(#clip040)" d="M204.348 1385.97 Q200.737 1385.97 198.908 1389.54 Q197.103 1393.08 197.103 1400.21 Q197.103 1407.31 198.908 1410.88 Q200.737 1414.42 204.348 1414.42 Q207.982 1414.42 209.788 1410.88 Q211.616 1407.31 211.616 1400.21 Q211.616 1393.08 209.788 1389.54 Q207.982 1385.97 204.348 1385.97 M204.348 1382.27 Q210.158 1382.27 213.214 1386.87 Q216.292 1391.46 216.292 1400.21 Q216.292 1408.93 213.214 1413.54 Q210.158 1418.12 204.348 1418.12 Q198.538 1418.12 195.459 1413.54 Q192.403 1408.93 192.403 1400.21 Q192.403 1391.46 195.459 1386.87 Q198.538 1382.27 204.348 1382.27 Z" fill="#000000" fill-rule="nonzero" fill-opacity="1" /><path clip-path="url(#clip040)" d="M234.51 1385.97 Q230.899 1385.97 229.07 1389.54 Q227.264 1393.08 227.264 1400.21 Q227.264 1407.31 229.07 1410.88 Q230.899 1414.42 234.51 1414.42 Q238.144 1414.42 239.949 1410.88 Q241.778 1407.31 241.778 1400.21 Q241.778 1393.08 239.949 1389.54 Q238.144 1385.97 234.51 1385.97 M234.51 1382.27 Q240.32 1382.27 243.375 1386.87 Q246.454 1391.46 246.454 1400.21 Q246.454 1408.93 243.375 1413.54 Q240.32 1418.12 234.51 1418.12 Q228.7 1418.12 225.621 1413.54 Q222.565 1408.93 222.565 1400.21 Q222.565 1391.46 225.621 1386.87 Q228.7 1382.27 234.51 1382.27 Z" fill="#000000" fill-rule="nonzero" fill-opacity="1" /><path clip-path="url(#clip040)" d="M282.843 1391.99 L272.264 1402.62 L282.843 1413.19 L280.088 1416 L269.463 1405.37 L258.838 1416 L256.107 1413.19 L266.662 1402.62 L256.107 1391.99 L258.838 1389.19 L269.463 1399.81 L280.088 1389.19 L282.843 1391.99 Z" fill="#000000" fill-rule="nonzero" fill-opacity="1" /><path clip-path="url(#clip040)" d="M295.204 1413.52 L302.843 1413.52 L302.843 1387.15 L294.533 1388.82 L294.533 1384.56 L302.796 1382.89 L307.472 1382.89 L307.472 1413.52 L315.111 1413.52 L315.111 1417.45 L295.204 1417.45 L295.204 1413.52 Z" fill="#000000" fill-rule="nonzero" fill-opacity="1" /><path clip-path="url(#clip040)" d="M334.555 1385.97 Q330.944 1385.97 329.116 1389.54 Q327.31 1393.08 327.31 1400.21 Q327.31 1407.31 329.116 1410.88 Q330.944 1414.42 334.555 1414.42 Q338.19 1414.42 339.995 1410.88 Q341.824 1407.31 341.824 1400.21 Q341.824 1393.08 339.995 1389.54 Q338.19 1385.97 334.555 1385.97 M334.555 1382.27 Q340.366 1382.27 343.421 1386.87 Q346.5 1391.46 346.5 1400.21 Q346.5 1408.93 343.421 1413.54 Q340.366 1418.12 334.555 1418.12 Q328.745 1418.12 325.667 1413.54 Q322.611 1408.93 322.611 1400.21 Q322.611 1391.46 325.667 1386.87 Q328.745 1382.27 334.555 1382.27 Z" fill="#000000" fill-rule="nonzero" fill-opacity="1" /><path clip-path="url(#clip040)" d="M346.5 1376.37 L370.611 1376.37 L370.611 1379.57 L346.5 1379.57 L346.5 1376.37 Z" fill="#000000" fill-rule="nonzero" fill-opacity="1" /><path clip-path="url(#clip040)" d="M378.849 1361.96 L393.764 1361.96 L393.764 1365.16 L382.329 1365.16 L382.329 1372.04 Q383.156 1371.76 383.984 1371.63 Q384.811 1371.48 385.639 1371.48 Q390.341 1371.48 393.087 1374.06 Q395.833 1376.63 395.833 1381.03 Q395.833 1385.57 393.011 1388.09 Q390.19 1390.59 385.056 1390.59 Q383.288 1390.59 381.445 1390.29 Q379.62 1389.99 377.664 1389.38 L377.664 1385.57 Q379.357 1386.49 381.163 1386.94 Q382.968 1387.39 384.981 1387.39 Q388.234 1387.39 390.134 1385.68 Q392.033 1383.97 392.033 1381.03 Q392.033 1378.1 390.134 1376.39 Q388.234 1374.68 384.981 1374.68 Q383.457 1374.68 381.934 1375.02 Q380.429 1375.35 378.849 1376.07 L378.849 1361.96 Z" fill="#000000" fill-rule="nonzero" fill-opacity="1" /><path clip-path="url(#clip040)" d="M131.802 1010.72 L119.996 1029.17 L131.802 1029.17 L131.802 1010.72 M130.575 1006.64 L136.455 1006.64 L136.455 1029.17 L141.385 1029.17 L141.385 1033.06 L136.455 1033.06 L136.455 1041.2 L131.802 1041.2 L131.802 1033.06 L116.2 1033.06 L116.2 1028.54 L130.575 1006.64 Z" fill="#000000" fill-rule="nonzero" fill-opacity="1" /><path clip-path="url(#clip040)" d="M149.117 1035.32 L154.001 1035.32 L154.001 1041.2 L149.117 1041.2 L149.117 1035.32 Z" fill="#000000" fill-rule="nonzero" fill-opacity="1" /><path clip-path="url(#clip040)" d="M177.033 1010.72 L165.228 1029.17 L177.033 1029.17 L177.033 1010.72 M175.806 1006.64 L181.686 1006.64 L181.686 1029.17 L186.616 1029.17 L186.616 1033.06 L181.686 1033.06 L181.686 1041.2 L177.033 1041.2 L177.033 1033.06 L161.431 1033.06 L161.431 1028.54 L175.806 1006.64 Z" fill="#000000" fill-rule="nonzero" fill-opacity="1" /><path clip-path="url(#clip040)" d="M194.394 1006.64 L212.751 1006.64 L212.751 1010.58 L198.677 1010.58 L198.677 1019.05 Q199.695 1018.7 200.714 1018.54 Q201.732 1018.36 202.751 1018.36 Q208.538 1018.36 211.917 1021.53 Q215.297 1024.7 215.297 1030.12 Q215.297 1035.69 211.825 1038.8 Q208.352 1041.88 202.033 1041.88 Q199.857 1041.88 197.589 1041.5 Q195.343 1041.13 192.936 1040.39 L192.936 1035.69 Q195.019 1036.83 197.241 1037.38 Q199.464 1037.94 201.94 1037.94 Q205.945 1037.94 208.283 1035.83 Q210.621 1033.73 210.621 1030.12 Q210.621 1026.5 208.283 1024.4 Q205.945 1022.29 201.94 1022.29 Q200.065 1022.29 198.19 1022.71 Q196.339 1023.13 194.394 1024 L194.394 1006.64 Z" fill="#000000" fill-rule="nonzero" fill-opacity="1" /><path clip-path="url(#clip040)" d="M234.51 1009.72 Q230.899 1009.72 229.07 1013.29 Q227.264 1016.83 227.264 1023.96 Q227.264 1031.06 229.07 1034.63 Q230.899 1038.17 234.51 1038.17 Q238.144 1038.17 239.949 1034.63 Q241.778 1031.06 241.778 1023.96 Q241.778 1016.83 239.949 1013.29 Q238.144 1009.72 234.51 1009.72 M234.51 1006.02 Q240.32 1006.02 243.375 1010.63 Q246.454 1015.21 246.454 1023.96 Q246.454 1032.69 243.375 1037.29 Q240.32 1041.88 234.51 1041.88 Q228.7 1041.88 225.621 1037.29 Q222.565 1032.69 222.565 1023.96 Q222.565 1015.21 225.621 1010.63 Q228.7 1006.02 234.51 1006.02 Z" fill="#000000" fill-rule="nonzero" fill-opacity="1" /><path clip-path="url(#clip040)" d="M282.843 1015.74 L272.264 1026.37 L282.843 1036.94 L280.088 1039.75 L269.463 1029.12 L258.838 1039.75 L256.107 1036.94 L266.662 1026.37 L256.107 1015.74 L258.838 1012.94 L269.463 1023.56 L280.088 1012.94 L282.843 1015.74 Z" fill="#000000" fill-rule="nonzero" fill-opacity="1" /><path clip-path="url(#clip040)" d="M295.204 1037.27 L302.843 1037.27 L302.843 1010.9 L294.533 1012.57 L294.533 1008.31 L302.796 1006.64 L307.472 1006.64 L307.472 1037.27 L315.111 1037.27 L315.111 1041.2 L295.204 1041.2 L295.204 1037.27 Z" fill="#000000" fill-rule="nonzero" fill-opacity="1" /><path clip-path="url(#clip040)" d="M334.555 1009.72 Q330.944 1009.72 329.116 1013.29 Q327.31 1016.83 327.31 1023.96 Q327.31 1031.06 329.116 1034.63 Q330.944 1038.17 334.555 1038.17 Q338.19 1038.17 339.995 1034.63 Q341.824 1031.06 341.824 1023.96 Q341.824 1016.83 339.995 1013.29 Q338.19 1009.72 334.555 1009.72 M334.555 1006.02 Q340.366 1006.02 343.421 1010.63 Q346.5 1015.21 346.5 1023.96 Q346.5 1032.69 343.421 1037.29 Q340.366 1041.88 334.555 1041.88 Q328.745 1041.88 325.667 1037.29 Q322.611 1032.69 322.611 1023.96 Q322.611 1015.21 325.667 1010.63 Q328.745 1006.02 334.555 1006.02 Z" fill="#000000" fill-rule="nonzero" fill-opacity="1" /><path clip-path="url(#clip040)" d="M346.5 1000.12 L370.611 1000.12 L370.611 1003.32 L346.5 1003.32 L346.5 1000.12 Z" fill="#000000" fill-rule="nonzero" fill-opacity="1" /><path clip-path="url(#clip040)" d="M378.849 985.713 L393.764 985.713 L393.764 988.911 L382.329 988.911 L382.329 995.794 Q383.156 995.512 383.984 995.381 Q384.811 995.23 385.639 995.23 Q390.341 995.23 393.087 997.807 Q395.833 1000.38 395.833 1004.78 Q395.833 1009.32 393.011 1011.84 Q390.19 1014.34 385.056 1014.34 Q383.288 1014.34 381.445 1014.04 Q379.62 1013.74 377.664 1013.14 L377.664 1009.32 Q379.357 1010.24 381.163 1010.69 Q382.968 1011.14 384.981 1011.14 Q388.234 1011.14 390.134 1009.43 Q392.033 1007.72 392.033 1004.78 Q392.033 1001.85 390.134 1000.14 Q388.234 998.427 384.981 998.427 Q383.457 998.427 381.934 998.766 Q380.429 999.104 378.849 999.819 L378.849 985.713 Z" fill="#000000" fill-rule="nonzero" fill-opacity="1" /><path clip-path="url(#clip040)" d="M131.802 634.468 L119.996 652.917 L131.802 652.917 L131.802 634.468 M130.575 630.394 L136.455 630.394 L136.455 652.917 L141.385 652.917 L141.385 656.806 L136.455 656.806 L136.455 664.954 L131.802 664.954 L131.802 656.806 L116.2 656.806 L116.2 652.292 L130.575 630.394 Z" fill="#000000" fill-rule="nonzero" fill-opacity="1" /><path clip-path="url(#clip040)" d="M149.117 659.075 L154.001 659.075 L154.001 664.954 L149.117 664.954 L149.117 659.075 Z" fill="#000000" fill-rule="nonzero" fill-opacity="1" /><path clip-path="url(#clip040)" d="M164.232 630.394 L182.589 630.394 L182.589 634.329 L168.515 634.329 L168.515 642.802 Q169.533 642.454 170.552 642.292 Q171.57 642.107 172.589 642.107 Q178.376 642.107 181.755 645.278 Q185.135 648.45 185.135 653.866 Q185.135 659.445 181.663 662.547 Q178.191 665.625 171.871 665.625 Q169.695 665.625 167.427 665.255 Q165.181 664.885 162.774 664.144 L162.774 659.445 Q164.857 660.579 167.08 661.135 Q169.302 661.69 171.779 661.69 Q175.783 661.69 178.121 659.584 Q180.459 657.477 180.459 653.866 Q180.459 650.255 178.121 648.149 Q175.783 646.042 171.779 646.042 Q169.904 646.042 168.029 646.459 Q166.177 646.876 164.232 647.755 L164.232 630.394 Z" fill="#000000" fill-rule="nonzero" fill-opacity="1" /><path clip-path="url(#clip040)" d="M204.348 633.473 Q200.737 633.473 198.908 637.038 Q197.103 640.579 197.103 647.709 Q197.103 654.815 198.908 658.38 Q200.737 661.922 204.348 661.922 Q207.982 661.922 209.788 658.38 Q211.616 654.815 211.616 647.709 Q211.616 640.579 209.788 637.038 Q207.982 633.473 204.348 633.473 M204.348 629.769 Q210.158 629.769 213.214 634.376 Q216.292 638.959 216.292 647.709 Q216.292 656.436 213.214 661.042 Q210.158 665.625 204.348 665.625 Q198.538 665.625 195.459 661.042 Q192.403 656.436 192.403 647.709 Q192.403 638.959 195.459 634.376 Q198.538 629.769 204.348 629.769 Z" fill="#000000" fill-rule="nonzero" fill-opacity="1" /><path clip-path="url(#clip040)" d="M234.51 633.473 Q230.899 633.473 229.07 637.038 Q227.264 640.579 227.264 647.709 Q227.264 654.815 229.07 658.38 Q230.899 661.922 234.51 661.922 Q238.144 661.922 239.949 658.38 Q241.778 654.815 241.778 647.709 Q241.778 640.579 239.949 637.038 Q238.144 633.473 234.51 633.473 M234.51 629.769 Q240.32 629.769 243.375 634.376 Q246.454 638.959 246.454 647.709 Q246.454 656.436 243.375 661.042 Q240.32 665.625 234.51 665.625 Q228.7 665.625 225.621 661.042 Q222.565 656.436 222.565 647.709 Q222.565 638.959 225.621 634.376 Q228.7 629.769 234.51 629.769 Z" fill="#000000" fill-rule="nonzero" fill-opacity="1" /><path clip-path="url(#clip040)" d="M282.843 639.491 L272.264 650.116 L282.843 660.695 L280.088 663.496 L269.463 652.871 L258.838 663.496 L256.107 660.695 L266.662 650.116 L256.107 639.491 L258.838 636.69 L269.463 647.315 L280.088 636.69 L282.843 639.491 Z" fill="#000000" fill-rule="nonzero" fill-opacity="1" /><path clip-path="url(#clip040)" d="M295.204 661.019 L302.843 661.019 L302.843 634.653 L294.533 636.32 L294.533 632.061 L302.796 630.394 L307.472 630.394 L307.472 661.019 L315.111 661.019 L315.111 664.954 L295.204 664.954 L295.204 661.019 Z" fill="#000000" fill-rule="nonzero" fill-opacity="1" /><path clip-path="url(#clip040)" d="M334.555 633.473 Q330.944 633.473 329.116 637.038 Q327.31 640.579 327.31 647.709 Q327.31 654.815 329.116 658.38 Q330.944 661.922 334.555 661.922 Q338.19 661.922 339.995 658.38 Q341.824 654.815 341.824 647.709 Q341.824 640.579 339.995 637.038 Q338.19 633.473 334.555 633.473 M334.555 629.769 Q340.366 629.769 343.421 634.376 Q346.5 638.959 346.5 647.709 Q346.5 656.436 343.421 661.042 Q340.366 665.625 334.555 665.625 Q328.745 665.625 325.667 661.042 Q322.611 656.436 322.611 647.709 Q322.611 638.959 325.667 634.376 Q328.745 629.769 334.555 629.769 Z" fill="#000000" fill-rule="nonzero" fill-opacity="1" /><path clip-path="url(#clip040)" d="M346.5 623.871 L370.611 623.871 L370.611 627.068 L346.5 627.068 L346.5 623.871 Z" fill="#000000" fill-rule="nonzero" fill-opacity="1" /><path clip-path="url(#clip040)" d="M378.849 609.464 L393.764 609.464 L393.764 612.661 L382.329 612.661 L382.329 619.545 Q383.156 619.263 383.984 619.131 Q384.811 618.98 385.639 618.98 Q390.341 618.98 393.087 621.557 Q395.833 624.134 395.833 628.535 Q395.833 633.068 393.011 635.588 Q390.19 638.089 385.056 638.089 Q383.288 638.089 381.445 637.788 Q379.62 637.487 377.664 636.885 L377.664 633.068 Q379.357 633.989 381.163 634.44 Q382.968 634.892 384.981 634.892 Q388.234 634.892 390.134 633.18 Q392.033 631.469 392.033 628.535 Q392.033 625.601 390.134 623.889 Q388.234 622.178 384.981 622.178 Q383.457 622.178 381.934 622.516 Q380.429 622.855 378.849 623.57 L378.849 609.464 Z" fill="#000000" fill-rule="nonzero" fill-opacity="1" /><path clip-path="url(#clip040)" d="M131.802 258.219 L119.996 276.668 L131.802 276.668 L131.802 258.219 M130.575 254.145 L136.455 254.145 L136.455 276.668 L141.385 276.668 L141.385 280.556 L136.455 280.556 L136.455 288.705 L131.802 288.705 L131.802 280.556 L116.2 280.556 L116.2 276.043 L130.575 254.145 Z" fill="#000000" fill-rule="nonzero" fill-opacity="1" /><path clip-path="url(#clip040)" d="M149.117 282.825 L154.001 282.825 L154.001 288.705 L149.117 288.705 L149.117 282.825 Z" fill="#000000" fill-rule="nonzero" fill-opacity="1" /><path clip-path="url(#clip040)" d="M164.232 254.145 L182.589 254.145 L182.589 258.08 L168.515 258.08 L168.515 266.552 Q169.533 266.205 170.552 266.043 Q171.57 265.857 172.589 265.857 Q178.376 265.857 181.755 269.029 Q185.135 272.2 185.135 277.617 Q185.135 283.195 181.663 286.297 Q178.191 289.376 171.871 289.376 Q169.695 289.376 167.427 289.006 Q165.181 288.635 162.774 287.894 L162.774 283.195 Q164.857 284.33 167.08 284.885 Q169.302 285.441 171.779 285.441 Q175.783 285.441 178.121 283.334 Q180.459 281.228 180.459 277.617 Q180.459 274.006 178.121 271.899 Q175.783 269.793 171.779 269.793 Q169.904 269.793 168.029 270.209 Q166.177 270.626 164.232 271.506 L164.232 254.145 Z" fill="#000000" fill-rule="nonzero" fill-opacity="1" /><path clip-path="url(#clip040)" d="M194.394 254.145 L212.751 254.145 L212.751 258.08 L198.677 258.08 L198.677 266.552 Q199.695 266.205 200.714 266.043 Q201.732 265.857 202.751 265.857 Q208.538 265.857 211.917 269.029 Q215.297 272.2 215.297 277.617 Q215.297 283.195 211.825 286.297 Q208.352 289.376 202.033 289.376 Q199.857 289.376 197.589 289.006 Q195.343 288.635 192.936 287.894 L192.936 283.195 Q195.019 284.33 197.241 284.885 Q199.464 285.441 201.94 285.441 Q205.945 285.441 208.283 283.334 Q210.621 281.228 210.621 277.617 Q210.621 274.006 208.283 271.899 Q205.945 269.793 201.94 269.793 Q200.065 269.793 198.19 270.209 Q196.339 270.626 194.394 271.506 L194.394 254.145 Z" fill="#000000" fill-rule="nonzero" fill-opacity="1" /><path clip-path="url(#clip040)" d="M234.51 257.223 Q230.899 257.223 229.07 260.788 Q227.264 264.33 227.264 271.459 Q227.264 278.566 229.07 282.131 Q230.899 285.672 234.51 285.672 Q238.144 285.672 239.949 282.131 Q241.778 278.566 241.778 271.459 Q241.778 264.33 239.949 260.788 Q238.144 257.223 234.51 257.223 M234.51 253.52 Q240.32 253.52 243.375 258.126 Q246.454 262.709 246.454 271.459 Q246.454 280.186 243.375 284.793 Q240.32 289.376 234.51 289.376 Q228.7 289.376 225.621 284.793 Q222.565 280.186 222.565 271.459 Q222.565 262.709 225.621 258.126 Q228.7 253.52 234.51 253.52 Z" fill="#000000" fill-rule="nonzero" fill-opacity="1" /><path clip-path="url(#clip040)" d="M282.843 263.242 L272.264 273.867 L282.843 284.445 L280.088 287.246 L269.463 276.621 L258.838 287.246 L256.107 284.445 L266.662 273.867 L256.107 263.242 L258.838 260.441 L269.463 271.066 L280.088 260.441 L282.843 263.242 Z" fill="#000000" fill-rule="nonzero" fill-opacity="1" /><path clip-path="url(#clip040)" d="M295.204 284.769 L302.843 284.769 L302.843 258.404 L294.533 260.07 L294.533 255.811 L302.796 254.145 L307.472 254.145 L307.472 284.769 L315.111 284.769 L315.111 288.705 L295.204 288.705 L295.204 284.769 Z" fill="#000000" fill-rule="nonzero" fill-opacity="1" /><path clip-path="url(#clip040)" d="M334.555 257.223 Q330.944 257.223 329.116 260.788 Q327.31 264.33 327.31 271.459 Q327.31 278.566 329.116 282.131 Q330.944 285.672 334.555 285.672 Q338.19 285.672 339.995 282.131 Q341.824 278.566 341.824 271.459 Q341.824 264.33 339.995 260.788 Q338.19 257.223 334.555 257.223 M334.555 253.52 Q340.366 253.52 343.421 258.126 Q346.5 262.709 346.5 271.459 Q346.5 280.186 343.421 284.793 Q340.366 289.376 334.555 289.376 Q328.745 289.376 325.667 284.793 Q322.611 280.186 322.611 271.459 Q322.611 262.709 325.667 258.126 Q328.745 253.52 334.555 253.52 Z" fill="#000000" fill-rule="nonzero" fill-opacity="1" /><path clip-path="url(#clip040)" d="M346.5 247.621 L370.611 247.621 L370.611 250.818 L346.5 250.818 L346.5 247.621 Z" fill="#000000" fill-rule="nonzero" fill-opacity="1" /><path clip-path="url(#clip040)" d="M378.849 233.214 L393.764 233.214 L393.764 236.411 L382.329 236.411 L382.329 243.295 Q383.156 243.013 383.984 242.881 Q384.811 242.731 385.639 242.731 Q390.341 242.731 393.087 245.308 Q395.833 247.884 395.833 252.285 Q395.833 256.818 393.011 259.338 Q390.19 261.84 385.056 261.84 Q383.288 261.84 381.445 261.539 Q379.62 261.238 377.664 260.636 L377.664 256.818 Q379.357 257.74 381.163 258.191 Q382.968 258.642 384.981 258.642 Q388.234 258.642 390.134 256.931 Q392.033 255.219 392.033 252.285 Q392.033 249.351 390.134 247.64 Q388.234 245.928 384.981 245.928 Q383.457 245.928 381.934 246.267 Q380.429 246.605 378.849 247.32 L378.849 233.214 Z" fill="#000000" fill-rule="nonzero" fill-opacity="1" /><path clip-path="url(#clip040)" d="M31.2504 1559.58 L48.6606 1559.58 L48.6606 1549.27 Q48.6606 1544.08 46.5281 1541.6 Q44.3638 1539.08 39.9396 1539.08 Q35.4836 1539.08 33.3829 1541.6 Q31.2504 1544.08 31.2504 1549.27 L31.2504 1559.58 M11.7077 1559.58 L26.0305 1559.58 L26.0305 1550.06 Q26.0305 1545.35 24.28 1543.06 Q22.4976 1540.74 18.8691 1540.74 Q15.2725 1540.74 13.4901 1543.06 Q11.7077 1545.35 11.7077 1550.06 L11.7077 1559.58 M6.42416 1566.01 L6.42416 1549.58 Q6.42416 1542.23 9.4797 1538.25 Q12.5352 1534.27 18.1689 1534.27 Q22.5294 1534.27 25.1075 1536.31 Q27.6856 1538.35 28.3222 1542.3 Q29.3407 1537.55 32.5872 1534.94 Q35.8019 1532.3 40.6398 1532.3 Q47.0055 1532.3 50.4748 1536.63 Q53.9442 1540.96 53.9442 1548.95 L53.9442 1566.01 L6.42416 1566.01 Z" fill="#000000" fill-rule="nonzero" fill-opacity="1" /><path clip-path="url(#clip040)" d="M48.597 1515.88 L67.5031 1515.88 L67.5031 1521.77 L18.2962 1521.77 L18.2962 1515.88 L23.7071 1515.88 Q20.5242 1514.03 18.9964 1511.23 Q17.4368 1508.4 17.4368 1504.48 Q17.4368 1497.99 22.5931 1493.95 Q27.7493 1489.87 36.152 1489.87 Q44.5547 1489.87 49.711 1493.95 Q54.8672 1497.99 54.8672 1504.48 Q54.8672 1508.4 53.3394 1511.23 Q51.7798 1514.03 48.597 1515.88 M36.152 1495.95 Q29.6908 1495.95 26.0305 1498.63 Q22.3384 1501.27 22.3384 1505.92 Q22.3384 1510.56 26.0305 1513.24 Q29.6908 1515.88 36.152 1515.88 Q42.6132 1515.88 46.3053 1513.24 Q49.9656 1510.56 49.9656 1505.92 Q49.9656 1501.27 46.3053 1498.63 Q42.6132 1495.95 36.152 1495.95 Z" fill="#000000" fill-rule="nonzero" fill-opacity="1" /><path clip-path="url(#clip040)" d="M34.6561 1449.67 L37.5206 1449.67 L37.5206 1476.6 Q43.5681 1476.22 46.7509 1472.97 Q49.9019 1469.69 49.9019 1463.87 Q49.9019 1460.5 49.0744 1457.35 Q48.2469 1454.16 46.5918 1451.04 L52.1299 1451.04 Q53.4667 1454.19 54.167 1457.5 Q54.8672 1460.81 54.8672 1464.22 Q54.8672 1472.75 49.9019 1477.75 Q44.9367 1482.71 36.4703 1482.71 Q27.7174 1482.71 22.5931 1478 Q17.4368 1473.26 17.4368 1465.24 Q17.4368 1458.05 22.0838 1453.88 Q26.6989 1449.67 34.6561 1449.67 M32.9373 1455.53 Q28.1312 1455.59 25.2666 1458.24 Q22.4021 1460.85 22.4021 1465.17 Q22.4021 1470.08 25.1712 1473.04 Q27.9402 1475.96 32.9692 1476.41 L32.9373 1455.53 Z" fill="#000000" fill-rule="nonzero" fill-opacity="1" /><path clip-path="url(#clip040)" d="M18.2962 1440.28 L18.2962 1431.72 L42.1676 1421.6 L18.2962 1411.45 L18.2962 1402.95 L53.9442 1402.95 L53.9442 1408.84 L23.898 1408.84 L47.101 1418.67 L47.101 1424.53 L23.898 1434.4 L53.9442 1434.4 L53.9442 1440.28 L18.2962 1440.28 Z" fill="#000000" fill-rule="nonzero" fill-opacity="1" /><path clip-path="url(#clip040)" d="M28.5768 1385 Q31.2186 1385 32.7145 1382.96 Q34.2105 1380.92 34.2105 1377.14 L34.2105 1369.24 L22.975 1369.24 L22.975 1377.14 Q22.975 1380.92 24.4391 1382.96 Q25.9032 1385 28.5768 1385 M53.9442 1393.34 L38.3163 1382.45 Q37.4888 1386.14 35.3245 1388.6 Q33.1283 1391.05 28.5768 1391.05 Q23.4206 1391.05 20.8743 1387.64 Q18.2962 1384.2 18.2962 1377.3 L18.2962 1363.36 L53.9442 1363.36 L53.9442 1369.24 L38.8893 1369.24 L38.8893 1376.53 L53.9442 1387.04 L53.9442 1393.34 Z" fill="#000000" fill-rule="nonzero" fill-opacity="1" /><path clip-path="url(#clip040)" d="M37.5206 1325.32 L49.2654 1325.32 L49.2654 1316.98 Q49.2654 1312.97 47.7694 1310.87 Q46.2417 1308.77 43.3771 1308.77 Q40.5125 1308.77 39.0166 1310.87 Q37.5206 1312.97 37.5206 1316.98 L37.5206 1325.32 M22.975 1325.32 L32.8418 1325.32 L32.8418 1317.62 Q32.8418 1314.31 31.5369 1312.21 Q30.2001 1310.11 27.8448 1310.11 Q25.4894 1310.11 24.2481 1312.21 Q22.975 1314.31 22.975 1317.62 L22.975 1325.32 M18.2962 1331.18 L18.2962 1317.24 Q18.2962 1310.97 20.5879 1307.59 Q22.8795 1304.22 27.1127 1304.22 Q30.391 1304.22 32.3326 1305.94 Q34.2423 1307.66 34.7197 1311.03 Q35.4836 1306.99 37.9026 1304.76 Q40.3215 1302.53 43.95 1302.53 Q48.7243 1302.53 51.3342 1306.22 Q53.9442 1309.88 53.9442 1316.69 L53.9442 1331.18 L18.2962 1331.18 Z" fill="#000000" fill-rule="nonzero" fill-opacity="1" /><path clip-path="url(#clip040)" d="M18.2962 1258.86 L18.2962 1253.01 L53.9442 1253.01 L53.9442 1258.86 L18.2962 1258.86 M17.4368 1255.93 L17.4368 1255.93 M43.3771 1270.35 Q40.5125 1270.35 39.0166 1272.45 Q37.5206 1274.52 37.5206 1278.53 L37.5206 1286.87 L49.2654 1286.87 L49.2654 1278.53 Q49.2654 1274.52 47.7694 1272.45 Q46.2417 1270.35 43.3771 1270.35 M18.2962 1292.76 L18.2962 1286.87 L32.8418 1286.87 L32.8418 1278.28 Q32.8418 1271.47 35.4518 1267.81 Q38.0299 1264.11 43.3771 1264.11 Q48.7243 1264.11 51.3342 1267.81 Q53.9442 1271.47 53.9442 1278.28 L53.9442 1292.76 L18.2962 1292.76 Z" fill="#000000" fill-rule="nonzero" fill-opacity="1" /><path clip-path="url(#clip040)" d="M53.9442 1220.48 L38.9529 1220.48 L38.9529 1231.39 Q38.9529 1236.26 35.9292 1239.51 Q33.192 1242.44 27.3355 1242.44 L18.2962 1242.44 L18.2962 1236.58 L26.7944 1236.58 Q30.5184 1236.58 32.3962 1234.93 Q34.2741 1233.24 34.2741 1229.93 L34.2741 1220.48 L18.2962 1220.48 L18.2962 1214.62 L53.9442 1214.62 L53.9442 1220.48 Z" fill="#000000" fill-rule="nonzero" fill-opacity="1" /><path clip-path="url(#clip040)" d="M18.2962 1172.26 L53.9442 1172.26 L53.9442 1178.08 L25.3303 1178.08 L53.9442 1195.27 L53.9442 1202.78 L18.2962 1202.78 L18.2962 1196.96 L46.8464 1196.96 L18.2962 1179.8 L18.2962 1172.26 Z" fill="#000000" fill-rule="nonzero" fill-opacity="1" /><path clip-path="url(#clip040)" d="M19.6648 1134.54 L25.1393 1134.54 Q23.7707 1137.02 23.1023 1139.54 Q22.4021 1142.02 22.4021 1144.57 Q22.4021 1150.26 26.0305 1153.41 Q29.6272 1156.57 36.152 1156.57 Q42.6769 1156.57 46.3053 1153.41 Q49.9019 1150.26 49.9019 1144.57 Q49.9019 1142.02 49.2335 1139.54 Q48.5333 1137.02 47.1647 1134.54 L52.5755 1134.54 Q53.7214 1136.99 54.2943 1139.63 Q54.8672 1142.24 54.8672 1145.2 Q54.8672 1153.26 49.8064 1158 Q44.7457 1162.74 36.152 1162.74 Q27.431 1162.74 22.4339 1157.97 Q17.4368 1153.16 17.4368 1144.82 Q17.4368 1142.12 18.0097 1139.54 Q18.5508 1136.96 19.6648 1134.54 Z" fill="#000000" fill-rule="nonzero" fill-opacity="1" /><path clip-path="url(#clip040)" d="M53.9442 1128.08 L49.0744 1128.08 Q48.1832 1122.29 44.1728 1120.5 Q38.5391 1118.34 24.1208 1118.34 L18.2962 1118.34 L18.2962 1094.25 L53.9442 1094.25 L53.9442 1100.1 L22.975 1100.1 L22.975 1112.48 L26.508 1112.48 Q40.2579 1112.48 46.4326 1115.28 Q53.0211 1118.28 53.9442 1128.08 Z" fill="#000000" fill-rule="nonzero" fill-opacity="1" /><path clip-path="url(#clip040)" d="M34.6561 1052.2 L37.5206 1052.2 L37.5206 1079.13 Q43.5681 1078.74 46.7509 1075.5 Q49.9019 1072.22 49.9019 1066.4 Q49.9019 1063.02 49.0744 1059.87 Q48.2469 1056.69 46.5918 1053.57 L52.1299 1053.57 Q53.4667 1056.72 54.167 1060.03 Q54.8672 1063.34 54.8672 1066.75 Q54.8672 1075.28 49.9019 1080.27 Q44.9367 1085.24 36.4703 1085.24 Q27.7174 1085.24 22.5931 1080.53 Q17.4368 1075.78 17.4368 1067.76 Q17.4368 1060.57 22.0838 1056.4 Q26.6989 1052.2 34.6561 1052.2 M32.9373 1058.06 Q28.1312 1058.12 25.2666 1060.76 Q22.4021 1063.37 22.4021 1067.7 Q22.4021 1072.6 25.1712 1075.56 Q27.9402 1078.49 32.9692 1078.94 L32.9373 1058.06 Z" fill="#000000" fill-rule="nonzero" fill-opacity="1" /><path clip-path="url(#clip040)" d="M18.2962 1042.81 L18.2962 1036.92 L32.8418 1036.92 L32.8418 1017.92 L18.2962 1017.92 L18.2962 1012.03 L53.9442 1012.03 L53.9442 1017.92 L37.5206 1017.92 L37.5206 1036.92 L53.9442 1036.92 L53.9442 1042.81 L18.2962 1042.81 Z" fill="#000000" fill-rule="nonzero" fill-opacity="1" /><path clip-path="url(#clip040)" d="M18.2962 969.668 L53.9442 969.668 L53.9442 975.493 L25.3303 975.493 L53.9442 992.68 L53.9442 1000.19 L18.2962 1000.19 L18.2962 994.367 L46.8464 994.367 L18.2962 977.212 L18.2962 969.668 Z" fill="#000000" fill-rule="nonzero" fill-opacity="1" /><path clip-path="url(#clip040)" d="M28.5768 951.717 Q31.2186 951.717 32.7145 949.68 Q34.2105 947.643 34.2105 943.855 L34.2105 935.962 L22.975 935.962 L22.975 943.855 Q22.975 947.643 24.4391 949.68 Q25.9032 951.717 28.5768 951.717 M53.9442 960.056 L38.3163 949.171 Q37.4888 952.863 35.3245 955.314 Q33.1283 957.764 28.5768 957.764 Q23.4206 957.764 20.8743 954.359 Q18.2962 950.921 18.2962 944.015 L18.2962 930.074 L53.9442 930.074 L53.9442 935.962 L38.8893 935.962 L38.8893 943.251 L53.9442 953.754 L53.9442 960.056 Z" fill="#000000" fill-rule="nonzero" fill-opacity="1" /><path clip-path="url(#clip040)" d="M45.8597 916.897 L45.8597 910.181 L51.3342 910.181 L61.5193 915.401 L61.5193 919.507 L51.3342 916.897 L45.8597 916.897 Z" fill="#000000" fill-rule="nonzero" fill-opacity="1" /><path clip-path="url(#clip040)" d="M19.6648 851.298 L25.1393 851.298 Q23.7707 853.781 23.1023 856.295 Q22.4021 858.778 22.4021 861.324 Q22.4021 867.021 26.0305 870.172 Q29.6272 873.323 36.152 873.323 Q42.6769 873.323 46.3053 870.172 Q49.9019 867.021 49.9019 861.324 Q49.9019 858.778 49.2335 856.295 Q48.5333 853.781 47.1647 851.298 L52.5755 851.298 Q53.7214 853.749 54.2943 856.391 Q54.8672 859 54.8672 861.961 Q54.8672 870.013 49.8064 874.756 Q44.7457 879.498 36.152 879.498 Q27.431 879.498 22.4339 874.724 Q17.4368 869.918 17.4368 861.579 Q17.4368 858.873 18.0097 856.295 Q18.5508 853.717 19.6648 851.298 Z" fill="#000000" fill-rule="nonzero" fill-opacity="1" /><path clip-path="url(#clip040)" d="M34.6561 810.621 L37.5206 810.621 L37.5206 837.548 Q43.5681 837.166 46.7509 833.92 Q49.9019 830.641 49.9019 824.817 Q49.9019 821.443 49.0744 818.292 Q48.2469 815.109 46.5918 811.99 L52.1299 811.99 Q53.4667 815.141 54.167 818.451 Q54.8672 821.761 54.8672 825.167 Q54.8672 833.697 49.9019 838.694 Q44.9367 843.659 36.4703 843.659 Q27.7174 843.659 22.5931 838.949 Q17.4368 834.206 17.4368 826.185 Q17.4368 818.992 22.0838 814.822 Q26.6989 810.621 34.6561 810.621 M32.9373 816.478 Q28.1312 816.541 25.2666 819.183 Q22.4021 821.793 22.4021 826.122 Q22.4021 831.023 25.1712 833.983 Q27.9402 836.911 32.9692 837.357 L32.9373 816.478 Z" fill="#000000" fill-rule="nonzero" fill-opacity="1" /><path clip-path="url(#clip040)" d="M18.2962 801.232 L18.2962 795.407 L35.038 795.407 L18.2962 778.888 L18.2962 771.695 L32.078 785.317 L53.9442 769.944 L53.9442 776.501 L35.961 789.137 L42.3267 795.407 L53.9442 795.407 L53.9442 801.232 L18.2962 801.232 Z" fill="#000000" fill-rule="nonzero" fill-opacity="1" /><path clip-path="url(#clip040)" d="M960.608 11.0023 Q970.573 11.0023 976.892 15.2557 Q983.212 19.4686 983.212 26.6793 Q983.212 31.7024 980.336 35.1862 Q977.46 38.6294 972.153 39.9662 Q978.027 41.222 981.308 45.1919 Q984.63 49.1618 984.63 54.9951 Q984.63 64.3122 977.419 69.0517 Q970.249 73.7508 960.608 73.7508 Q955.666 73.7508 949.913 72.414 Q944.161 71.0772 942.379 69.9429 L942.379 61.517 Q948.577 65.1223 951.979 66.0135 Q955.423 66.8642 960.446 66.8642 Q968.061 66.8642 972.274 63.9476 Q976.487 61.0309 976.487 54.9951 Q976.487 49.6479 972.72 46.6502 Q968.993 43.612 961.094 43.612 L952.83 43.612 L952.83 36.8875 L961.418 36.8875 Q968.669 36.8875 971.869 34.4975 Q975.07 32.067 975.07 27.5299 Q975.07 22.8714 971.748 20.4004 Q968.467 17.8888 960.446 17.8888 Q955.018 17.8888 953.154 18.3749 Q951.291 18.861 942.986 21.9802 L942.986 13.9999 Q947.564 12.3796 952.344 11.6909 Q957.124 11.0023 960.608 11.0023 Z" fill="#000000" fill-rule="nonzero" fill-opacity="1" /><path clip-path="url(#clip040)" d="M1018.54 49.7694 Q1009.5 49.7694 1006.02 51.8354 Q1002.53 53.9013 1002.53 58.8839 Q1002.53 62.8538 1005.13 65.2034 Q1007.76 67.5124 1012.26 67.5124 Q1018.45 67.5124 1022.18 63.1374 Q1025.95 58.7219 1025.95 51.4303 L1025.95 49.7694 L1018.54 49.7694 M1033.4 46.6907 L1033.4 72.576 L1025.95 72.576 L1025.95 65.6895 Q1023.4 69.8214 1019.59 71.8063 Q1015.78 73.7508 1010.27 73.7508 Q1003.3 73.7508 999.172 69.8619 Q995.081 65.9325 995.081 59.3701 Q995.081 51.7138 1000.19 47.825 Q1005.33 43.9361 1015.5 43.9361 L1025.95 43.9361 L1025.95 43.2069 Q1025.95 38.0623 1022.55 35.2672 Q1019.18 32.4315 1013.07 32.4315 Q1009.18 32.4315 1005.49 33.3632 Q1001.81 34.295 998.403 36.1584 L998.403 29.2718 Q1002.49 27.692 1006.34 26.9223 Q1010.19 26.1121 1013.84 26.1121 Q1023.68 26.1121 1028.54 31.2163 Q1033.4 36.3204 1033.4 46.6907 Z" fill="#000000" fill-rule="nonzero" fill-opacity="1" /><path clip-path="url(#clip040)" d="M1055.93 51.6733 L1055.93 66.6212 L1066.54 66.6212 Q1071.64 66.6212 1074.32 64.7172 Q1076.99 62.7728 1076.99 59.127 Q1076.99 55.4812 1074.32 53.5773 Q1071.64 51.6733 1066.54 51.6733 L1055.93 51.6733 M1055.93 33.1607 L1055.93 45.7185 L1065.73 45.7185 Q1069.94 45.7185 1072.62 44.0576 Q1075.29 42.3563 1075.29 39.3586 Q1075.29 36.3609 1072.62 34.7811 Q1069.94 33.1607 1065.73 33.1607 L1055.93 33.1607 M1048.47 27.2059 L1066.21 27.2059 Q1074.2 27.2059 1078.49 30.1225 Q1082.78 33.0392 1082.78 38.4269 Q1082.78 42.5993 1080.6 45.0704 Q1078.41 47.5009 1074.11 48.1085 Q1079.26 49.0808 1082.09 52.1594 Q1084.93 55.2381 1084.93 59.8562 Q1084.93 65.9325 1080.23 69.2543 Q1075.57 72.576 1066.9 72.576 L1048.47 72.576 L1048.47 27.2059 Z" fill="#000000" fill-rule="nonzero" fill-opacity="1" /><path clip-path="url(#clip040)" d="M1136.21 27.2059 L1136.21 72.576 L1128.8 72.576 L1128.8 36.1584 L1106.93 72.576 L1097.37 72.576 L1097.37 27.2059 L1104.78 27.2059 L1104.78 63.5425 L1126.61 27.2059 L1136.21 27.2059 Z" fill="#000000" fill-rule="nonzero" fill-opacity="1" /><path clip-path="url(#clip040)" d="M1184.22 28.9478 L1184.22 35.9153 Q1181.06 34.1734 1177.86 33.3227 Q1174.7 32.4315 1171.46 32.4315 Q1164.21 32.4315 1160.2 37.0496 Q1156.19 41.6271 1156.19 49.9314 Q1156.19 58.2358 1160.2 62.8538 Q1164.21 67.4314 1171.46 67.4314 Q1174.7 67.4314 1177.86 66.5807 Q1181.06 65.6895 1184.22 63.9476 L1184.22 70.8341 Q1181.1 72.2924 1177.74 73.0216 Q1174.41 73.7508 1170.65 73.7508 Q1160.4 73.7508 1154.36 67.3098 Q1148.33 60.8689 1148.33 49.9314 Q1148.33 38.832 1154.4 32.472 Q1160.52 26.1121 1171.13 26.1121 Q1174.58 26.1121 1177.86 26.8413 Q1181.14 27.5299 1184.22 28.9478 Z" fill="#000000" fill-rule="nonzero" fill-opacity="1" /><path clip-path="url(#clip040)" d="M1235.75 27.2059 L1235.75 72.576 L1228.33 72.576 L1228.33 36.1584 L1206.46 72.576 L1196.9 72.576 L1196.9 27.2059 L1204.31 27.2059 L1204.31 63.5425 L1226.14 27.2059 L1235.75 27.2059 Z" fill="#000000" fill-rule="nonzero" fill-opacity="1" /><path clip-path="url(#clip040)" d="M1250.81 27.2059 L1261.71 27.2059 L1274.59 57.5877 L1287.52 27.2059 L1298.33 27.2059 L1298.33 72.576 L1290.84 72.576 L1290.84 34.3355 L1278.32 63.8666 L1270.87 63.8666 L1258.31 34.3355 L1258.31 72.576 L1250.81 72.576 L1250.81 27.2059 Z" fill="#000000" fill-rule="nonzero" fill-opacity="1" /><path clip-path="url(#clip040)" d="M1331.27 32.4315 Q1325.27 32.4315 1321.79 37.1306 Q1318.3 41.7891 1318.3 49.9314 Q1318.3 58.0738 1321.75 62.7728 Q1325.23 67.4314 1331.27 67.4314 Q1337.22 67.4314 1340.7 62.7323 Q1344.19 58.0333 1344.19 49.9314 Q1344.19 41.8701 1340.7 37.1711 Q1337.22 32.4315 1331.27 32.4315 M1331.27 26.1121 Q1340.99 26.1121 1346.54 32.4315 Q1352.09 38.7509 1352.09 49.9314 Q1352.09 61.0714 1346.54 67.4314 Q1340.99 73.7508 1331.27 73.7508 Q1321.5 73.7508 1315.95 67.4314 Q1310.44 61.0714 1310.44 49.9314 Q1310.44 38.7509 1315.95 32.4315 Q1321.5 26.1121 1331.27 26.1121 Z" fill="#000000" fill-rule="nonzero" fill-opacity="1" /><path clip-path="url(#clip040)" d="M1397.09 28.9478 L1397.09 35.9153 Q1393.93 34.1734 1390.73 33.3227 Q1387.57 32.4315 1384.33 32.4315 Q1377.08 32.4315 1373.07 37.0496 Q1369.06 41.6271 1369.06 49.9314 Q1369.06 58.2358 1373.07 62.8538 Q1377.08 67.4314 1384.33 67.4314 Q1387.57 67.4314 1390.73 66.5807 Q1393.93 65.6895 1397.09 63.9476 L1397.09 70.8341 Q1393.97 72.2924 1390.61 73.0216 Q1387.29 73.7508 1383.52 73.7508 Q1373.27 73.7508 1367.24 67.3098 Q1361.2 60.8689 1361.2 49.9314 Q1361.2 38.832 1367.28 32.472 Q1373.39 26.1121 1384.01 26.1121 Q1387.45 26.1121 1390.73 26.8413 Q1394.01 27.5299 1397.09 28.9478 Z" fill="#000000" fill-rule="nonzero" fill-opacity="1" /><path clip-path="url(#clip040)" d="M1404.67 27.2059 L1448.13 27.2059 L1448.13 33.1607 L1430.07 33.1607 L1430.07 72.576 L1422.73 72.576 L1422.73 33.1607 L1404.67 33.1607 L1404.67 27.2059 Z" fill="#000000" fill-rule="nonzero" fill-opacity="1" /><path clip-path="url(#clip040)" d="M1486.62 59.127 Q1486.62 55.4812 1483.94 53.5773 Q1481.31 51.6733 1476.21 51.6733 L1465.59 51.6733 L1465.59 66.6212 L1476.21 66.6212 Q1481.31 66.6212 1483.94 64.7172 Q1486.62 62.7728 1486.62 59.127 M1458.1 27.2059 L1465.59 27.2059 L1465.59 45.7185 L1476.53 45.7185 Q1485.2 45.7185 1489.86 49.0402 Q1494.56 52.3215 1494.56 59.127 Q1494.56 65.9325 1489.86 69.2543 Q1485.2 72.576 1476.53 72.576 L1458.1 72.576 L1458.1 27.2059 Z" fill="#000000" fill-rule="nonzero" fill-opacity="1" /><path clip-path="url(#clip040)" d="M1540.82 51.6733 L1540.82 66.6212 L1551.43 66.6212 Q1556.54 66.6212 1559.21 64.7172 Q1561.88 62.7728 1561.88 59.127 Q1561.88 55.4812 1559.21 53.5773 Q1556.54 51.6733 1551.43 51.6733 L1540.82 51.6733 M1540.82 33.1607 L1540.82 45.7185 L1550.62 45.7185 Q1554.83 45.7185 1557.51 44.0576 Q1560.18 42.3563 1560.18 39.3586 Q1560.18 36.3609 1557.51 34.7811 Q1554.83 33.1607 1550.62 33.1607 L1540.82 33.1607 M1533.37 27.2059 L1551.11 27.2059 Q1559.09 27.2059 1563.38 30.1225 Q1567.68 33.0392 1567.68 38.4269 Q1567.68 42.5993 1565.49 45.0704 Q1563.3 47.5009 1559.01 48.1085 Q1564.15 49.0808 1566.99 52.1594 Q1569.82 55.2381 1569.82 59.8562 Q1569.82 65.9325 1565.12 69.2543 Q1560.47 72.576 1551.8 72.576 L1533.37 72.576 L1533.37 27.2059 Z" fill="#000000" fill-rule="nonzero" fill-opacity="1" /><path clip-path="url(#clip040)" d="M1589.75 65.7705 L1589.75 89.8329 L1582.26 89.8329 L1582.26 27.2059 L1589.75 27.2059 L1589.75 34.0924 Q1592.1 30.0415 1595.67 28.0971 Q1599.27 26.1121 1604.26 26.1121 Q1612.52 26.1121 1617.66 32.6746 Q1622.85 39.2371 1622.85 49.9314 Q1622.85 60.6258 1617.66 67.1883 Q1612.52 73.7508 1604.26 73.7508 Q1599.27 73.7508 1595.67 71.8063 Q1592.1 69.8214 1589.75 65.7705 M1615.11 49.9314 Q1615.11 41.7081 1611.71 37.0496 Q1608.35 32.3505 1602.43 32.3505 Q1596.52 32.3505 1593.12 37.0496 Q1589.75 41.7081 1589.75 49.9314 Q1589.75 58.1548 1593.12 62.8538 Q1596.52 67.5124 1602.43 67.5124 Q1608.35 67.5124 1611.71 62.8538 Q1615.11 58.1548 1615.11 49.9314 Z" fill="#000000" fill-rule="nonzero" fill-opacity="1" /><path clip-path="url(#clip040)" d="M1674.01 48.0275 L1674.01 51.6733 L1639.74 51.6733 Q1640.23 59.3701 1644.36 63.421 Q1648.53 67.4314 1655.95 67.4314 Q1660.24 67.4314 1664.25 66.3781 Q1668.3 65.3249 1672.27 63.2184 L1672.27 70.267 Q1668.26 71.9684 1664.05 72.8596 Q1659.83 73.7508 1655.5 73.7508 Q1644.64 73.7508 1638.28 67.4314 Q1631.96 61.1119 1631.96 50.3365 Q1631.96 39.1965 1637.96 32.6746 Q1644 26.1121 1654.2 26.1121 Q1663.36 26.1121 1668.67 32.0264 Q1674.01 37.9003 1674.01 48.0275 M1666.56 45.84 Q1666.48 39.7232 1663.12 36.0774 Q1659.79 32.4315 1654.28 32.4315 Q1648.05 32.4315 1644.28 35.9558 Q1640.55 39.4801 1639.98 45.8805 L1666.56 45.84 Z" fill="#000000" fill-rule="nonzero" fill-opacity="1" /><path clip-path="url(#clip040)" d="M1685.96 27.2059 L1696.86 27.2059 L1709.74 57.5877 L1722.66 27.2059 L1733.48 27.2059 L1733.48 72.576 L1725.99 72.576 L1725.99 34.3355 L1713.47 63.8666 L1706.01 63.8666 L1693.46 34.3355 L1693.46 72.576 L1685.96 72.576 L1685.96 27.2059 Z" fill="#000000" fill-rule="nonzero" fill-opacity="1" /><path clip-path="url(#clip040)" d="M1787.64 48.0275 L1787.64 51.6733 L1753.37 51.6733 Q1753.86 59.3701 1757.99 63.421 Q1762.16 67.4314 1769.57 67.4314 Q1773.87 67.4314 1777.88 66.3781 Q1781.93 65.3249 1785.9 63.2184 L1785.9 70.267 Q1781.89 71.9684 1777.68 72.8596 Q1773.46 73.7508 1769.13 73.7508 Q1758.27 73.7508 1751.91 67.4314 Q1745.59 61.1119 1745.59 50.3365 Q1745.59 39.1965 1751.59 32.6746 Q1757.62 26.1121 1767.83 26.1121 Q1776.99 26.1121 1782.29 32.0264 Q1787.64 37.9003 1787.64 48.0275 M1780.19 45.84 Q1780.11 39.7232 1776.74 36.0774 Q1773.42 32.4315 1767.91 32.4315 Q1761.67 32.4315 1757.91 35.9558 Q1754.18 39.4801 1753.61 45.8805 L1780.19 45.84 Z" fill="#000000" fill-rule="nonzero" fill-opacity="1" /><path clip-path="url(#clip040)" d="M1799.59 27.2059 L1807.08 27.2059 L1807.08 45.7185 L1831.27 45.7185 L1831.27 27.2059 L1838.76 27.2059 L1838.76 72.576 L1831.27 72.576 L1831.27 51.6733 L1807.08 51.6733 L1807.08 72.576 L1799.59 72.576 L1799.59 27.2059 Z" fill="#000000" fill-rule="nonzero" fill-opacity="1" /><path clip-path="url(#clip040)" d="M1892.68 27.2059 L1892.68 72.576 L1885.27 72.576 L1885.27 36.1584 L1863.39 72.576 L1853.83 72.576 L1853.83 27.2059 L1861.25 27.2059 L1861.25 63.5425 L1883.08 27.2059 L1892.68 27.2059 Z" fill="#000000" fill-rule="nonzero" fill-opacity="1" /><path clip-path="url(#clip040)" d="M1941.57 51.6733 L1941.57 66.6212 L1952.19 66.6212 Q1957.29 66.6212 1959.97 64.7172 Q1962.64 62.7728 1962.64 59.127 Q1962.64 55.4812 1959.97 53.5773 Q1957.29 51.6733 1952.19 51.6733 L1941.57 51.6733 M1941.57 33.1607 L1941.57 45.7185 L1951.38 45.7185 Q1955.59 45.7185 1958.26 44.0576 Q1960.94 42.3563 1960.94 39.3586 Q1960.94 36.3609 1958.26 34.7811 Q1955.59 33.1607 1951.38 33.1607 L1941.57 33.1607 M1934.12 27.2059 L1951.86 27.2059 Q1959.84 27.2059 1964.14 30.1225 Q1968.43 33.0392 1968.43 38.4269 Q1968.43 42.5993 1966.24 45.0704 Q1964.06 47.5009 1959.76 48.1085 Q1964.91 49.0808 1967.74 52.1594 Q1970.58 55.2381 1970.58 59.8562 Q1970.58 65.9325 1965.88 69.2543 Q1961.22 72.576 1952.55 72.576 L1934.12 72.576 L1934.12 27.2059 Z" fill="#000000" fill-rule="nonzero" fill-opacity="1" /><path clip-path="url(#clip040)" d="M2026.16 27.2059 L2033.61 27.2059 L2033.61 72.576 L2026.16 72.576 L2026.16 27.2059 M2029.88 26.1121 L2029.88 26.1121 M2011.53 59.127 Q2011.53 55.4812 2008.86 53.5773 Q2006.23 51.6733 2001.12 51.6733 L1990.51 51.6733 L1990.51 66.6212 L2001.12 66.6212 Q2006.23 66.6212 2008.86 64.7172 Q2011.53 62.7728 2011.53 59.127 M1983.02 27.2059 L1990.51 27.2059 L1990.51 45.7185 L2001.45 45.7185 Q2010.12 45.7185 2014.77 49.0402 Q2019.47 52.3215 2019.47 59.127 Q2019.47 65.9325 2014.77 69.2543 Q2010.12 72.576 2001.45 72.576 L1983.02 72.576 L1983.02 27.2059 Z" fill="#000000" fill-rule="nonzero" fill-opacity="1" /><path clip-path="url(#clip040)" d="M2075.01 72.576 L2075.01 53.4962 L2061.12 53.4962 Q2054.92 53.4962 2050.79 49.6479 Q2047.06 46.1641 2047.06 38.7104 L2047.06 27.2059 L2054.51 27.2059 L2054.51 38.0218 Q2054.51 42.7613 2056.62 45.1514 Q2058.77 47.5414 2062.98 47.5414 L2075.01 47.5414 L2075.01 27.2059 L2082.47 27.2059 L2082.47 72.576 L2075.01 72.576 Z" fill="#000000" fill-rule="nonzero" fill-opacity="1" /><path clip-path="url(#clip040)" d="M2136.38 27.2059 L2136.38 72.576 L2128.97 72.576 L2128.97 36.1584 L2107.09 72.576 L2097.53 72.576 L2097.53 27.2059 L2104.95 27.2059 L2104.95 63.5425 L2126.78 27.2059 L2136.38 27.2059 Z" fill="#000000" fill-rule="nonzero" fill-opacity="1" /><path clip-path="url(#clip040)" d="M2184.39 28.9478 L2184.39 35.9153 Q2181.23 34.1734 2178.03 33.3227 Q2174.87 32.4315 2171.63 32.4315 Q2164.37 32.4315 2160.36 37.0496 Q2156.35 41.6271 2156.35 49.9314 Q2156.35 58.2358 2160.36 62.8538 Q2164.37 67.4314 2171.63 67.4314 Q2174.87 67.4314 2178.03 66.5807 Q2181.23 65.6895 2184.39 63.9476 L2184.39 70.8341 Q2181.27 72.2924 2177.9 73.0216 Q2174.58 73.7508 2170.82 73.7508 Q2160.57 73.7508 2154.53 67.3098 Q2148.49 60.8689 2148.49 49.9314 Q2148.49 38.832 2154.57 32.472 Q2160.69 26.1121 2171.3 26.1121 Q2174.74 26.1121 2178.03 26.8413 Q2181.31 27.5299 2184.39 28.9478 Z" fill="#000000" fill-rule="nonzero" fill-opacity="1" /><path clip-path="url(#clip040)" d="M2192.61 72.576 L2192.61 66.3781 Q2199.98 65.2439 2202.25 60.1397 Q2205.01 52.9696 2205.01 34.619 L2205.01 27.2059 L2235.67 27.2059 L2235.67 72.576 L2228.22 72.576 L2228.22 33.1607 L2212.46 33.1607 L2212.46 37.6572 Q2212.46 55.1571 2208.89 63.0159 Q2205.09 71.4012 2192.61 72.576 Z" fill="#000000" fill-rule="nonzero" fill-opacity="1" /><path clip-path="url(#clip040)" d="M2289.18 48.0275 L2289.18 51.6733 L2254.91 51.6733 Q2255.4 59.3701 2259.53 63.421 Q2263.7 67.4314 2271.12 67.4314 Q2275.41 67.4314 2279.42 66.3781 Q2283.47 65.3249 2287.44 63.2184 L2287.44 70.267 Q2283.43 71.9684 2279.22 72.8596 Q2275 73.7508 2270.67 73.7508 Q2259.81 73.7508 2253.45 67.4314 Q2247.13 61.1119 2247.13 50.3365 Q2247.13 39.1965 2253.13 32.6746 Q2259.17 26.1121 2269.37 26.1121 Q2278.53 26.1121 2283.84 32.0264 Q2289.18 37.9003 2289.18 48.0275 M2281.73 45.84 Q2281.65 39.7232 2278.29 36.0774 Q2274.96 32.4315 2269.45 32.4315 Q2263.22 32.4315 2259.45 35.9558 Q2255.72 39.4801 2255.16 45.8805 L2281.73 45.84 Z" fill="#000000" fill-rule="nonzero" fill-opacity="1" /><path clip-path="url(#clip040)" d="M2301.13 27.2059 L2308.63 27.2059 L2308.63 45.7185 L2332.81 45.7185 L2332.81 27.2059 L2340.31 27.2059 L2340.31 72.576 L2332.81 72.576 L2332.81 51.6733 L2308.63 51.6733 L2308.63 72.576 L2301.13 72.576 L2301.13 27.2059 Z" fill="#000000" fill-rule="nonzero" fill-opacity="1" /><path clip-path="url(#clip040)" d="M2394.22 27.2059 L2394.22 72.576 L2386.81 72.576 L2386.81 36.1584 L2364.93 72.576 L2355.37 72.576 L2355.37 27.2059 L2362.79 27.2059 L2362.79 63.5425 L2384.62 27.2059 L2394.22 27.2059 Z" fill="#000000" fill-rule="nonzero" fill-opacity="1" /><path clip-path="url(#clip040)" d="M2417.07 40.2903 Q2417.07 43.6525 2419.66 45.5565 Q2422.26 47.4604 2427.08 47.4604 L2437.12 47.4604 L2437.12 33.1607 L2427.08 33.1607 Q2422.26 33.1607 2419.66 35.0241 Q2417.07 36.8875 2417.07 40.2903 M2406.46 72.576 L2420.31 52.6861 Q2415.61 51.6328 2412.49 48.8782 Q2409.37 46.0831 2409.37 40.2903 Q2409.37 33.7278 2413.71 30.4871 Q2418.08 27.2059 2426.87 27.2059 L2444.62 27.2059 L2444.62 72.576 L2437.12 72.576 L2437.12 53.4152 L2427.85 53.4152 L2414.48 72.576 L2406.46 72.576 Z" fill="#000000" fill-rule="nonzero" fill-opacity="1" /><path clip-path="url(#clip040)" d="M2503.44 32.4315 Q2497.44 32.4315 2493.96 37.1306 Q2490.47 41.7891 2490.47 49.9314 Q2490.47 58.0738 2493.92 62.7728 Q2497.4 67.4314 2503.44 67.4314 Q2509.39 67.4314 2512.87 62.7323 Q2516.36 58.0333 2516.36 49.9314 Q2516.36 41.8701 2512.87 37.1711 Q2509.39 32.4315 2503.44 32.4315 M2503.44 26.1121 Q2513.16 26.1121 2518.71 32.4315 Q2524.26 38.7509 2524.26 49.9314 Q2524.26 61.0714 2518.71 67.4314 Q2513.16 73.7508 2503.44 73.7508 Q2493.67 73.7508 2488.12 67.4314 Q2482.61 61.0714 2482.61 49.9314 Q2482.61 38.7509 2488.12 32.4315 Q2493.67 26.1121 2503.44 26.1121 Z" fill="#000000" fill-rule="nonzero" fill-opacity="1" /><path clip-path="url(#clip040)" d="M2531.22 27.2059 L2574.69 27.2059 L2574.69 33.1607 L2556.62 33.1607 L2556.62 72.576 L2549.29 72.576 L2549.29 33.1607 L2531.22 33.1607 L2531.22 27.2059 Z" fill="#000000" fill-rule="nonzero" fill-opacity="1" /><path clip-path="url(#clip040)" d="M2637.76 51.4708 L2635.98 42.1132 Q2634.16 32.5126 2626.95 32.5126 Q2621.52 32.5126 2619.05 36.9686 Q2615.93 42.5588 2615.93 49.9314 Q2615.93 58.8434 2618.97 63.0969 Q2622.05 67.4314 2626.95 67.4314 Q2632.38 67.4314 2635.29 58.8029 L2637.76 51.4708 M2641.94 39.075 L2645.95 27.2059 L2652.59 27.2059 L2644.29 51.7949 L2645.91 60.6663 Q2646.27 62.6513 2647.69 64.3122 Q2649.35 66.2566 2650.65 66.2566 L2654.21 66.2566 L2654.21 72.576 L2649.75 72.576 Q2645.95 72.576 2642.54 69.1732 Q2640.88 67.4719 2640.19 63.9071 Q2638.33 68.4036 2634.52 71.9279 Q2632.74 73.5887 2626.95 73.5887 Q2617.43 73.5887 2612.81 67.4314 Q2608.07 61.0714 2608.07 49.9314 Q2608.07 38.0218 2613.21 32.4315 Q2618.93 26.1931 2626.95 26.1931 Q2639.55 26.1931 2641.94 39.075 Z" fill="#000000" fill-rule="nonzero" fill-opacity="1" /><circle clip-path="url(#clip042)" cx="520.5" cy="2146.22" r="28.8" fill="#008000" fill-rule="evenodd" fill-opacity="1" stroke="#000000" stroke-opacity="1" stroke-width="4.8"/>
<circle clip-path="url(#clip042)" cx="1088.41" cy="1995.73" r="28.8" fill="#008000" fill-rule="evenodd" fill-opacity="1" stroke="#000000" stroke-opacity="1" stroke-width="4.8"/>
<circle clip-path="url(#clip042)" cx="1656.32" cy="1468.98" r="28.8" fill="#008000" fill-rule="evenodd" fill-opacity="1" stroke="#000000" stroke-opacity="1" stroke-width="4.8"/>
<circle clip-path="url(#clip042)" cx="2508.18" cy="453.102" r="28.8" fill="#008000" fill-rule="evenodd" fill-opacity="1" stroke="#000000" stroke-opacity="1" stroke-width="4.8"/>
<circle clip-path="url(#clip042)" cx="3076.09" cy="189.727" r="28.8" fill="#008000" fill-rule="evenodd" fill-opacity="1" stroke="#000000" stroke-opacity="1" stroke-width="4.8"/>
<path clip-path="url(#clip040)" d="M534.13 303.842 L1267.52 303.842 L1267.52 200.162 L534.13 200.162  Z" fill="#ffffff" fill-rule="evenodd" fill-opacity="1"/>
<polyline clip-path="url(#clip040)" style="stroke:#000000; stroke-linecap:round; stroke-linejoin:round; stroke-width:4; stroke-opacity:1; fill:none" points="534.13,303.842 1267.52,303.842 1267.52,200.162 534.13,200.162 534.13,303.842 "/>
<circle clip-path="url(#clip040)" cx="654.527" cy="252.002" r="21.6847" fill="#008000" fill-rule="evenodd" fill-opacity="1" stroke="#000000" stroke-opacity="1" stroke-width="3.61412"/>
<path clip-path="url(#clip040)" d="M779.599 252.777 L779.599 265.439 L787.099 265.439 Q790.872 265.439 792.678 263.888 Q794.506 262.314 794.506 259.097 Q794.506 255.856 792.678 254.328 Q790.872 252.777 787.099 252.777 L779.599 252.777 M779.599 238.564 L779.599 248.981 L786.52 248.981 Q789.946 248.981 791.613 247.708 Q793.303 246.411 793.303 243.773 Q793.303 241.157 791.613 239.861 Q789.946 238.564 786.52 238.564 L779.599 238.564 M774.923 234.722 L786.868 234.722 Q792.215 234.722 795.108 236.944 Q798.002 239.166 798.002 243.263 Q798.002 246.435 796.52 248.31 Q795.039 250.185 792.169 250.648 Q795.618 251.388 797.516 253.749 Q799.437 256.087 799.437 259.606 Q799.437 264.235 796.289 266.759 Q793.141 269.282 787.331 269.282 L774.923 269.282 L774.923 234.722 Z" fill="#000000" fill-rule="nonzero" fill-opacity="1" /><path clip-path="url(#clip040)" d="M811.381 265.393 L811.381 279.143 L807.099 279.143 L807.099 243.356 L811.381 243.356 L811.381 247.291 Q812.724 244.976 814.761 243.865 Q816.821 242.731 819.668 242.731 Q824.391 242.731 827.33 246.481 Q830.293 250.231 830.293 256.342 Q830.293 262.453 827.33 266.203 Q824.391 269.953 819.668 269.953 Q816.821 269.953 814.761 268.842 Q812.724 267.708 811.381 265.393 M825.872 256.342 Q825.872 251.643 823.928 248.981 Q822.006 246.296 818.627 246.296 Q815.247 246.296 813.303 248.981 Q811.381 251.643 811.381 256.342 Q811.381 261.041 813.303 263.726 Q815.247 266.388 818.627 266.388 Q822.006 266.388 823.928 263.726 Q825.872 261.041 825.872 256.342 Z" fill="#000000" fill-rule="nonzero" fill-opacity="1" /><path clip-path="url(#clip040)" d="M859.529 255.254 L859.529 257.337 L839.946 257.337 Q840.224 261.735 842.585 264.05 Q844.969 266.342 849.205 266.342 Q851.659 266.342 853.951 265.74 Q856.265 265.138 858.534 263.935 L858.534 267.962 Q856.242 268.934 853.835 269.444 Q851.427 269.953 848.951 269.953 Q842.747 269.953 839.113 266.342 Q835.502 262.731 835.502 256.573 Q835.502 250.208 838.928 246.481 Q842.377 242.731 848.21 242.731 Q853.441 242.731 856.474 246.111 Q859.529 249.467 859.529 255.254 M855.27 254.004 Q855.224 250.509 853.302 248.425 Q851.404 246.342 848.256 246.342 Q844.691 246.342 842.539 248.356 Q840.409 250.37 840.085 254.027 L855.27 254.004 Z" fill="#000000" fill-rule="nonzero" fill-opacity="1" /><path clip-path="url(#clip040)" d="M866.358 243.356 L872.585 243.356 L879.946 260.717 L887.33 243.356 L893.511 243.356 L893.511 269.282 L889.228 269.282 L889.228 247.43 L882.075 264.305 L877.816 264.305 L870.64 247.43 L870.64 269.282 L866.358 269.282 L866.358 243.356 Z" fill="#000000" fill-rule="nonzero" fill-opacity="1" /><path clip-path="url(#clip040)" d="M906.566 250.833 Q906.566 252.754 908.048 253.842 Q909.529 254.93 912.284 254.93 L918.024 254.93 L918.024 246.759 L912.284 246.759 Q909.529 246.759 908.048 247.823 Q906.566 248.888 906.566 250.833 M900.501 269.282 L908.418 257.916 Q905.733 257.314 903.95 255.74 Q902.168 254.143 902.168 250.833 Q902.168 247.083 904.645 245.231 Q907.145 243.356 912.168 243.356 L922.307 243.356 L922.307 269.282 L918.024 269.282 L918.024 258.333 L912.723 258.333 L905.085 269.282 L900.501 269.282 Z" fill="#000000" fill-rule="nonzero" fill-opacity="1" /><path clip-path="url(#clip040)" d="M949.969 257.337 L949.969 265.879 L956.033 265.879 Q958.95 265.879 960.478 264.791 Q962.006 263.68 962.006 261.597 Q962.006 259.513 960.478 258.425 Q958.95 257.337 956.033 257.337 L949.969 257.337 M949.969 246.759 L949.969 253.935 L955.57 253.935 Q957.978 253.935 959.506 252.986 Q961.033 252.013 961.033 250.3 Q961.033 248.587 959.506 247.685 Q957.978 246.759 955.57 246.759 L949.969 246.759 M945.709 243.356 L955.848 243.356 Q960.408 243.356 962.862 245.023 Q965.316 246.689 965.316 249.768 Q965.316 252.152 964.066 253.564 Q962.816 254.953 960.362 255.3 Q963.302 255.856 964.922 257.615 Q966.543 259.374 966.543 262.013 Q966.543 265.485 963.857 267.384 Q961.195 269.282 956.242 269.282 L945.709 269.282 L945.709 243.356 Z" fill="#000000" fill-rule="nonzero" fill-opacity="1" /><path clip-path="url(#clip040)" d="M998.302 243.356 L1002.56 243.356 L1002.56 269.282 L998.302 269.282 L998.302 243.356 M1000.43 242.731 L1000.43 242.731 M989.945 261.597 Q989.945 259.513 988.417 258.425 Q986.913 257.337 983.996 257.337 L977.931 257.337 L977.931 265.879 L983.996 265.879 Q986.913 265.879 988.417 264.791 Q989.945 263.68 989.945 261.597 M973.649 243.356 L977.931 243.356 L977.931 253.935 L984.181 253.935 Q989.135 253.935 991.797 255.833 Q994.482 257.708 994.482 261.597 Q994.482 265.485 991.797 267.384 Q989.135 269.282 984.181 269.282 L973.649 269.282 L973.649 243.356 Z" fill="#000000" fill-rule="nonzero" fill-opacity="1" /><path clip-path="url(#clip040)" d="M1026.22 269.282 L1026.22 258.379 L1018.28 258.379 Q1014.74 258.379 1012.38 256.18 Q1010.25 254.189 1010.25 249.93 L1010.25 243.356 L1014.51 243.356 L1014.51 249.536 Q1014.51 252.245 1015.71 253.611 Q1016.94 254.976 1019.34 254.976 L1026.22 254.976 L1026.22 243.356 L1030.48 243.356 L1030.48 269.282 L1026.22 269.282 Z" fill="#000000" fill-rule="nonzero" fill-opacity="1" /><path clip-path="url(#clip040)" d="M1061.29 243.356 L1061.29 269.282 L1057.05 269.282 L1057.05 248.472 L1044.55 269.282 L1039.09 269.282 L1039.09 243.356 L1043.32 243.356 L1043.32 264.12 L1055.8 243.356 L1061.29 243.356 Z" fill="#000000" fill-rule="nonzero" fill-opacity="1" /><path clip-path="url(#clip040)" d="M1088.72 244.351 L1088.72 248.333 Q1086.91 247.337 1085.08 246.851 Q1083.28 246.342 1081.43 246.342 Q1077.28 246.342 1074.99 248.981 Q1072.7 251.597 1072.7 256.342 Q1072.7 261.087 1074.99 263.726 Q1077.28 266.342 1081.43 266.342 Q1083.28 266.342 1085.08 265.856 Q1086.91 265.347 1088.72 264.351 L1088.72 268.286 Q1086.94 269.12 1085.01 269.536 Q1083.12 269.953 1080.96 269.953 Q1075.11 269.953 1071.66 266.272 Q1068.21 262.592 1068.21 256.342 Q1068.21 249.999 1071.68 246.365 Q1075.18 242.731 1081.24 242.731 Q1083.21 242.731 1085.08 243.148 Q1086.96 243.541 1088.72 244.351 Z" fill="#000000" fill-rule="nonzero" fill-opacity="1" /><path clip-path="url(#clip040)" d="M1093.42 269.282 L1093.42 265.74 Q1097.63 265.092 1098.93 262.175 Q1100.5 258.078 1100.5 247.592 L1100.5 243.356 L1118.02 243.356 L1118.02 269.282 L1113.76 269.282 L1113.76 246.759 L1104.76 246.759 L1104.76 249.328 Q1104.76 259.328 1102.72 263.819 Q1100.55 268.61 1093.42 269.282 Z" fill="#000000" fill-rule="nonzero" fill-opacity="1" /><path clip-path="url(#clip040)" d="M1148.6 255.254 L1148.6 257.337 L1129.02 257.337 Q1129.3 261.735 1131.66 264.05 Q1134.04 266.342 1138.28 266.342 Q1140.73 266.342 1143.02 265.74 Q1145.34 265.138 1147.61 263.935 L1147.61 267.962 Q1145.31 268.934 1142.91 269.444 Q1140.5 269.953 1138.02 269.953 Q1131.82 269.953 1128.19 266.342 Q1124.57 262.731 1124.57 256.573 Q1124.57 250.208 1128 246.481 Q1131.45 242.731 1137.28 242.731 Q1142.51 242.731 1145.55 246.111 Q1148.6 249.467 1148.6 255.254 M1144.34 254.004 Q1144.3 250.509 1142.37 248.425 Q1140.48 246.342 1137.33 246.342 Q1133.76 246.342 1131.61 248.356 Q1129.48 250.37 1129.16 254.027 L1144.34 254.004 Z" fill="#000000" fill-rule="nonzero" fill-opacity="1" /><path clip-path="url(#clip040)" d="M1155.43 243.356 L1159.71 243.356 L1159.71 253.935 L1173.53 253.935 L1173.53 243.356 L1177.81 243.356 L1177.81 269.282 L1173.53 269.282 L1173.53 257.337 L1159.71 257.337 L1159.71 269.282 L1155.43 269.282 L1155.43 243.356 Z" fill="#000000" fill-rule="nonzero" fill-opacity="1" /><path clip-path="url(#clip040)" d="M1208.62 243.356 L1208.62 269.282 L1204.39 269.282 L1204.39 248.472 L1191.89 269.282 L1186.43 269.282 L1186.43 243.356 L1190.66 243.356 L1190.66 264.12 L1203.14 243.356 L1208.62 243.356 Z" fill="#000000" fill-rule="nonzero" fill-opacity="1" /><path clip-path="url(#clip040)" d="M1221.68 250.833 Q1221.68 252.754 1223.16 253.842 Q1224.64 254.93 1227.4 254.93 L1233.14 254.93 L1233.14 246.759 L1227.4 246.759 Q1224.64 246.759 1223.16 247.823 Q1221.68 248.888 1221.68 250.833 M1215.62 269.282 L1223.53 257.916 Q1220.85 257.314 1219.06 255.74 Q1217.28 254.143 1217.28 250.833 Q1217.28 247.083 1219.76 245.231 Q1222.26 243.356 1227.28 243.356 L1237.42 243.356 L1237.42 269.282 L1233.14 269.282 L1233.14 258.333 L1227.84 258.333 L1220.2 269.282 L1215.62 269.282 Z" fill="#000000" fill-rule="nonzero" fill-opacity="1" /></svg>
