<?xml version="1.0" encoding="utf-8"?>
<svg xmlns="http://www.w3.org/2000/svg" xmlns:xlink="http://www.w3.org/1999/xlink" width="528" height="336" viewBox="0 0 2112 1344">
<defs>
  <clipPath id="clip950">
    <rect x="0" y="0" width="2112" height="1344"/>
  </clipPath>
</defs>
<path clip-path="url(#clip950)" d="M0 1344 L2112 1344 L2112 0 L0 0  Z" fill="#ffffff" fill-rule="evenodd" fill-opacity="1"/>
<defs>
  <clipPath id="clip951">
    <rect x="197" y="47" width="1869" height="1127"/>
  </clipPath>
</defs>
<path clip-path="url(#clip950)" d="M198.924 1173.47 L2064.76 1173.47 L2064.76 120.723 L198.924 120.723  Z" fill="#ffffff" fill-rule="evenodd" fill-opacity="1"/>
<defs>
  <clipPath id="clip952">
    <rect x="198" y="120" width="1867" height="1054"/>
  </clipPath>
</defs>
<polyline clip-path="url(#clip952)" style="stroke:#000000; stroke-linecap:round; stroke-linejoin:round; stroke-width:2; stroke-opacity:0.1; fill:none" points="198.924,1173.47 198.924,120.723 "/>
<polyline clip-path="url(#clip952)" style="stroke:#000000; stroke-linecap:round; stroke-linejoin:round; stroke-width:2; stroke-opacity:0.1; fill:none" points="572.09,1173.47 572.09,120.723 "/>
<polyline clip-path="url(#clip952)" style="stroke:#000000; stroke-linecap:round; stroke-linejoin:round; stroke-width:2; stroke-opacity:0.1; fill:none" points="945.257,1173.47 945.257,120.723 "/>
<polyline clip-path="url(#clip952)" style="stroke:#000000; stroke-linecap:round; stroke-linejoin:round; stroke-width:2; stroke-opacity:0.1; fill:none" points="1318.42,1173.47 1318.42,120.723 "/>
<polyline clip-path="url(#clip952)" style="stroke:#000000; stroke-linecap:round; stroke-linejoin:round; stroke-width:2; stroke-opacity:0.1; fill:none" points="1691.59,1173.47 1691.59,120.723 "/>
<polyline clip-path="url(#clip952)" style="stroke:#000000; stroke-linecap:round; stroke-linejoin:round; stroke-width:2; stroke-opacity:0.1; fill:none" points="2064.76,1173.47 2064.76,120.723 "/>
<polyline clip-path="url(#clip952)" style="stroke:#000000; stroke-linecap:round; stroke-linejoin:round; stroke-width:2; stroke-opacity:0.1; fill:none" points="198.924,929.252 2064.76,929.252 "/>
<polyline clip-path="url(#clip952)" style="stroke:#000000; stroke-linecap:round; stroke-linejoin:round; stroke-width:2; stroke-opacity:0.1; fill:none" points="198.924,674.462 2064.76,674.462 "/>
<polyline clip-path="url(#clip952)" style="stroke:#000000; stroke-linecap:round; stroke-linejoin:round; stroke-width:2; stroke-opacity:0.1; fill:none" points="198.924,419.672 2064.76,419.672 "/>
<polyline clip-path="url(#clip952)" style="stroke:#000000; stroke-linecap:round; stroke-linejoin:round; stroke-width:2; stroke-opacity:0.1; fill:none" points="198.924,164.881 2064.76,164.881 "/>
<polyline clip-path="url(#clip950)" style="stroke:#000000; stroke-linecap:round; stroke-linejoin:round; stroke-width:4; stroke-opacity:1; fill:none" points="198.924,1173.47 2064.76,1173.47 "/>
<polyline clip-path="url(#clip950)" style="stroke:#000000; stroke-linecap:round; stroke-linejoin:round; stroke-width:4; stroke-opacity:1; fill:none" points="198.924,1173.47 198.924,1154.57 "/>
<polyline clip-path="url(#clip950)" style="stroke:#000000; stroke-linecap:round; stroke-linejoin:round; stroke-width:4; stroke-opacity:1; fill:none" points="572.09,1173.47 572.09,1154.57 "/>
<polyline clip-path="url(#clip950)" style="stroke:#000000; stroke-linecap:round; stroke-linejoin:round; stroke-width:4; stroke-opacity:1; fill:none" points="945.257,1173.47 945.257,1154.57 "/>
<polyline clip-path="url(#clip950)" style="stroke:#000000; stroke-linecap:round; stroke-linejoin:round; stroke-width:4; stroke-opacity:1; fill:none" points="1318.42,1173.47 1318.42,1154.57 "/>
<polyline clip-path="url(#clip950)" style="stroke:#000000; stroke-linecap:round; stroke-linejoin:round; stroke-width:4; stroke-opacity:1; fill:none" points="1691.59,1173.47 1691.59,1154.57 "/>
<polyline clip-path="url(#clip950)" style="stroke:#000000; stroke-linecap:round; stroke-linejoin:round; stroke-width:4; stroke-opacity:1; fill:none" points="2064.76,1173.47 2064.76,1154.57 "/>
<path clip-path="url(#clip950)" d="M198.924 1202.09 Q195.312 1202.09 193.484 1205.65 Q191.678 1209.19 191.678 1216.32 Q191.678 1223.43 193.484 1226.99 Q195.312 1230.53 198.924 1230.53 Q202.558 1230.53 204.363 1226.99 Q206.192 1223.43 206.192 1216.32 Q206.192 1209.19 204.363 1205.65 Q202.558 1202.09 198.924 1202.09 M198.924 1198.38 Q204.734 1198.38 207.789 1202.99 Q210.868 1207.57 210.868 1216.32 Q210.868 1225.05 207.789 1229.65 Q204.734 1234.24 198.924 1234.24 Q193.113 1234.24 190.035 1229.65 Q186.979 1225.05 186.979 1216.32 Q186.979 1207.57 190.035 1202.99 Q193.113 1198.38 198.924 1198.38 Z" fill="#000000" fill-rule="nonzero" fill-opacity="1" /><path clip-path="url(#clip950)" d="M550.863 1229.63 L567.183 1229.63 L567.183 1233.57 L545.238 1233.57 L545.238 1229.63 Q547.9 1226.88 552.484 1222.25 Q557.09 1217.59 558.271 1216.25 Q560.516 1213.73 561.396 1211.99 Q562.298 1210.23 562.298 1208.54 Q562.298 1205.79 560.354 1204.05 Q558.433 1202.32 555.331 1202.32 Q553.132 1202.32 550.678 1203.08 Q548.248 1203.84 545.47 1205.4 L545.47 1200.67 Q548.294 1199.54 550.748 1198.96 Q553.201 1198.38 555.238 1198.38 Q560.609 1198.38 563.803 1201.07 Q566.997 1203.75 566.997 1208.24 Q566.997 1210.37 566.187 1212.29 Q565.4 1214.19 563.294 1216.78 Q562.715 1217.46 559.613 1220.67 Q556.511 1223.87 550.863 1229.63 Z" fill="#000000" fill-rule="nonzero" fill-opacity="1" /><path clip-path="url(#clip950)" d="M586.997 1202.09 Q583.386 1202.09 581.558 1205.65 Q579.752 1209.19 579.752 1216.32 Q579.752 1223.43 581.558 1226.99 Q583.386 1230.53 586.997 1230.53 Q590.632 1230.53 592.437 1226.99 Q594.266 1223.43 594.266 1216.32 Q594.266 1209.19 592.437 1205.65 Q590.632 1202.09 586.997 1202.09 M586.997 1198.38 Q592.808 1198.38 595.863 1202.99 Q598.942 1207.57 598.942 1216.32 Q598.942 1225.05 595.863 1229.65 Q592.808 1234.24 586.997 1234.24 Q581.187 1234.24 578.109 1229.65 Q575.053 1225.05 575.053 1216.32 Q575.053 1207.57 578.109 1202.99 Q581.187 1198.38 586.997 1198.38 Z" fill="#000000" fill-rule="nonzero" fill-opacity="1" /><path clip-path="url(#clip950)" d="M933.428 1203.08 L921.622 1221.53 L933.428 1221.53 L933.428 1203.08 M932.201 1199.01 L938.081 1199.01 L938.081 1221.53 L943.011 1221.53 L943.011 1225.42 L938.081 1225.42 L938.081 1233.57 L933.428 1233.57 L933.428 1225.42 L917.826 1225.42 L917.826 1220.9 L932.201 1199.01 Z" fill="#000000" fill-rule="nonzero" fill-opacity="1" /><path clip-path="url(#clip950)" d="M960.743 1202.09 Q957.131 1202.09 955.303 1205.65 Q953.497 1209.19 953.497 1216.32 Q953.497 1223.43 955.303 1226.99 Q957.131 1230.53 960.743 1230.53 Q964.377 1230.53 966.182 1226.99 Q968.011 1223.43 968.011 1216.32 Q968.011 1209.19 966.182 1205.65 Q964.377 1202.09 960.743 1202.09 M960.743 1198.38 Q966.553 1198.38 969.608 1202.99 Q972.687 1207.57 972.687 1216.32 Q972.687 1225.05 969.608 1229.65 Q966.553 1234.24 960.743 1234.24 Q954.932 1234.24 951.854 1229.65 Q948.798 1225.05 948.798 1216.32 Q948.798 1207.57 951.854 1202.99 Q954.932 1198.38 960.743 1198.38 Z" fill="#000000" fill-rule="nonzero" fill-opacity="1" /><path clip-path="url(#clip950)" d="M1303.83 1214.42 Q1300.68 1214.42 1298.83 1216.58 Q1297 1218.73 1297 1222.48 Q1297 1226.21 1298.83 1228.38 Q1300.68 1230.53 1303.83 1230.53 Q1306.98 1230.53 1308.8 1228.38 Q1310.66 1226.21 1310.66 1222.48 Q1310.66 1218.73 1308.8 1216.58 Q1306.98 1214.42 1303.83 1214.42 M1313.11 1199.77 L1313.11 1204.03 Q1311.35 1203.2 1309.55 1202.76 Q1307.76 1202.32 1306 1202.32 Q1301.37 1202.32 1298.92 1205.44 Q1296.49 1208.57 1296.14 1214.89 Q1297.51 1212.87 1299.57 1211.81 Q1301.63 1210.72 1304.11 1210.72 Q1309.31 1210.72 1312.32 1213.89 Q1315.36 1217.04 1315.36 1222.48 Q1315.36 1227.8 1312.21 1231.02 Q1309.06 1234.24 1303.83 1234.24 Q1297.83 1234.24 1294.66 1229.65 Q1291.49 1225.05 1291.49 1216.32 Q1291.49 1208.13 1295.38 1203.27 Q1299.27 1198.38 1305.82 1198.38 Q1307.58 1198.38 1309.36 1198.73 Q1311.17 1199.08 1313.11 1199.77 Z" fill="#000000" fill-rule="nonzero" fill-opacity="1" /><path clip-path="url(#clip950)" d="M1333.41 1202.09 Q1329.8 1202.09 1327.97 1205.65 Q1326.17 1209.19 1326.17 1216.32 Q1326.17 1223.43 1327.97 1226.99 Q1329.8 1230.53 1333.41 1230.53 Q1337.05 1230.53 1338.85 1226.99 Q1340.68 1223.43 1340.68 1216.32 Q1340.68 1209.19 1338.85 1205.65 Q1337.05 1202.09 1333.41 1202.09 M1333.41 1198.38 Q1339.22 1198.38 1342.28 1202.99 Q1345.36 1207.57 1345.36 1216.32 Q1345.36 1225.05 1342.28 1229.65 Q1339.22 1234.24 1333.41 1234.24 Q1327.6 1234.24 1324.52 1229.65 Q1321.47 1225.05 1321.47 1216.32 Q1321.47 1207.57 1324.52 1202.99 Q1327.6 1198.38 1333.41 1198.38 Z" fill="#000000" fill-rule="nonzero" fill-opacity="1" /><path clip-path="url(#clip950)" d="M1676.46 1217.15 Q1673.13 1217.15 1671.21 1218.94 Q1669.31 1220.72 1669.31 1223.84 Q1669.31 1226.97 1671.21 1228.75 Q1673.13 1230.53 1676.46 1230.53 Q1679.8 1230.53 1681.72 1228.75 Q1683.64 1226.95 1683.64 1223.84 Q1683.64 1220.72 1681.72 1218.94 Q1679.82 1217.15 1676.46 1217.15 M1671.79 1215.16 Q1668.78 1214.42 1667.09 1212.36 Q1665.42 1210.3 1665.42 1207.34 Q1665.42 1203.2 1668.36 1200.79 Q1671.32 1198.38 1676.46 1198.38 Q1681.62 1198.38 1684.56 1200.79 Q1687.5 1203.2 1687.5 1207.34 Q1687.5 1210.3 1685.81 1212.36 Q1684.15 1214.42 1681.16 1215.16 Q1684.54 1215.95 1686.42 1218.24 Q1688.31 1220.53 1688.31 1223.84 Q1688.31 1228.87 1685.24 1231.55 Q1682.18 1234.24 1676.46 1234.24 Q1670.74 1234.24 1667.67 1231.55 Q1664.61 1228.87 1664.61 1223.84 Q1664.61 1220.53 1666.51 1218.24 Q1668.41 1215.95 1671.79 1215.16 M1670.07 1207.78 Q1670.07 1210.47 1671.74 1211.97 Q1673.43 1213.47 1676.46 1213.47 Q1679.47 1213.47 1681.16 1211.97 Q1682.87 1210.47 1682.87 1207.78 Q1682.87 1205.09 1681.16 1203.59 Q1679.47 1202.09 1676.46 1202.09 Q1673.43 1202.09 1671.74 1203.59 Q1670.07 1205.09 1670.07 1207.78 Z" fill="#000000" fill-rule="nonzero" fill-opacity="1" /><path clip-path="url(#clip950)" d="M1706.62 1202.09 Q1703.01 1202.09 1701.18 1205.65 Q1699.38 1209.19 1699.38 1216.32 Q1699.38 1223.43 1701.18 1226.99 Q1703.01 1230.53 1706.62 1230.53 Q1710.26 1230.53 1712.06 1226.99 Q1713.89 1223.43 1713.89 1216.32 Q1713.89 1209.19 1712.06 1205.65 Q1710.26 1202.09 1706.62 1202.09 M1706.62 1198.38 Q1712.43 1198.38 1715.49 1202.99 Q1718.57 1207.57 1718.57 1216.32 Q1718.57 1225.05 1715.49 1229.65 Q1712.43 1234.24 1706.62 1234.24 Q1700.81 1234.24 1697.74 1229.65 Q1694.68 1225.05 1694.68 1216.32 Q1694.68 1207.57 1697.74 1202.99 Q1700.81 1198.38 1706.62 1198.38 Z" fill="#000000" fill-rule="nonzero" fill-opacity="1" /><path clip-path="url(#clip950)" d="M2024.36 1229.63 L2032 1229.63 L2032 1203.27 L2023.69 1204.93 L2023.69 1200.67 L2031.96 1199.01 L2036.63 1199.01 L2036.63 1229.63 L2044.27 1229.63 L2044.27 1233.57 L2024.36 1233.57 L2024.36 1229.63 Z" fill="#000000" fill-rule="nonzero" fill-opacity="1" /><path clip-path="url(#clip950)" d="M2063.71 1202.09 Q2060.1 1202.09 2058.27 1205.65 Q2056.47 1209.19 2056.47 1216.32 Q2056.47 1223.43 2058.27 1226.99 Q2060.1 1230.53 2063.71 1230.53 Q2067.35 1230.53 2069.15 1226.99 Q2070.98 1223.43 2070.98 1216.32 Q2070.98 1209.19 2069.15 1205.65 Q2067.35 1202.09 2063.71 1202.09 M2063.71 1198.38 Q2069.52 1198.38 2072.58 1202.99 Q2075.66 1207.57 2075.66 1216.32 Q2075.66 1225.05 2072.58 1229.65 Q2069.52 1234.24 2063.71 1234.24 Q2057.9 1234.24 2054.83 1229.65 Q2051.77 1225.05 2051.77 1216.32 Q2051.77 1207.57 2054.83 1202.99 Q2057.9 1198.38 2063.71 1198.38 Z" fill="#000000" fill-rule="nonzero" fill-opacity="1" /><path clip-path="url(#clip950)" d="M2093.88 1202.09 Q2090.27 1202.09 2088.44 1205.65 Q2086.63 1209.19 2086.63 1216.32 Q2086.63 1223.43 2088.44 1226.99 Q2090.27 1230.53 2093.88 1230.53 Q2097.51 1230.53 2099.32 1226.99 Q2101.14 1223.43 2101.14 1216.32 Q2101.14 1209.19 2099.32 1205.65 Q2097.51 1202.09 2093.88 1202.09 M2093.88 1198.38 Q2099.69 1198.38 2102.74 1202.99 Q2105.82 1207.57 2105.82 1216.32 Q2105.82 1225.05 2102.74 1229.65 Q2099.69 1234.24 2093.88 1234.24 Q2088.07 1234.24 2084.99 1229.65 Q2081.93 1225.05 2081.93 1216.32 Q2081.93 1207.57 2084.99 1202.99 Q2088.07 1198.38 2093.88 1198.38 Z" fill="#000000" fill-rule="nonzero" fill-opacity="1" /><path clip-path="url(#clip950)" d="M1130.9 1268.25 L1130.9 1278.37 L1142.96 1278.37 L1142.96 1282.92 L1130.9 1282.92 L1130.9 1302.27 Q1130.9 1306.63 1132.08 1307.87 Q1133.29 1309.11 1136.95 1309.11 L1142.96 1309.11 L1142.96 1314.01 L1136.95 1314.01 Q1130.17 1314.01 1127.59 1311.5 Q1125.01 1308.95 1125.01 1302.27 L1125.01 1282.92 L1120.72 1282.92 L1120.72 1278.37 L1125.01 1278.37 L1125.01 1268.25 L1130.9 1268.25 Z" fill="#000000" fill-rule="nonzero" fill-opacity="1" /><polyline clip-path="url(#clip950)" style="stroke:#000000; stroke-linecap:round; stroke-linejoin:round; stroke-width:4; stroke-opacity:1; fill:none" points="198.924,1173.47 198.924,120.723 "/>
<polyline clip-path="url(#clip950)" style="stroke:#000000; stroke-linecap:round; stroke-linejoin:round; stroke-width:4; stroke-opacity:1; fill:none" points="198.924,929.252 217.821,929.252 "/>
<polyline clip-path="url(#clip950)" style="stroke:#000000; stroke-linecap:round; stroke-linejoin:round; stroke-width:4; stroke-opacity:1; fill:none" points="198.924,674.462 217.821,674.462 "/>
<polyline clip-path="url(#clip950)" style="stroke:#000000; stroke-linecap:round; stroke-linejoin:round; stroke-width:4; stroke-opacity:1; fill:none" points="198.924,419.672 217.821,419.672 "/>
<polyline clip-path="url(#clip950)" style="stroke:#000000; stroke-linecap:round; stroke-linejoin:round; stroke-width:4; stroke-opacity:1; fill:none" points="198.924,164.881 217.821,164.881 "/>
<path clip-path="url(#clip950)" d="M115.948 942.597 L123.586 942.597 L123.586 916.231 L115.276 917.898 L115.276 913.639 L123.54 911.972 L128.216 911.972 L128.216 942.597 L135.855 942.597 L135.855 946.532 L115.948 946.532 L115.948 942.597 Z" fill="#000000" fill-rule="nonzero" fill-opacity="1" /><path clip-path="url(#clip950)" d="M155.299 915.051 Q151.688 915.051 149.859 918.615 Q148.054 922.157 148.054 929.287 Q148.054 936.393 149.859 939.958 Q151.688 943.5 155.299 943.5 Q158.933 943.5 160.739 939.958 Q162.568 936.393 162.568 929.287 Q162.568 922.157 160.739 918.615 Q158.933 915.051 155.299 915.051 M155.299 911.347 Q161.109 911.347 164.165 915.953 Q167.244 920.537 167.244 929.287 Q167.244 938.013 164.165 942.62 Q161.109 947.203 155.299 947.203 Q149.489 947.203 146.41 942.62 Q143.355 938.013 143.355 929.287 Q143.355 920.537 146.41 915.953 Q149.489 911.347 155.299 911.347 Z" fill="#000000" fill-rule="nonzero" fill-opacity="1" /><path clip-path="url(#clip950)" d="M116.943 687.807 L124.582 687.807 L124.582 661.441 L116.272 663.108 L116.272 658.848 L124.535 657.182 L129.211 657.182 L129.211 687.807 L136.85 687.807 L136.85 691.742 L116.943 691.742 L116.943 687.807 Z" fill="#000000" fill-rule="nonzero" fill-opacity="1" /><path clip-path="url(#clip950)" d="M146.341 657.182 L164.697 657.182 L164.697 661.117 L150.623 661.117 L150.623 669.589 Q151.642 669.242 152.66 669.08 Q153.679 668.895 154.697 668.895 Q160.484 668.895 163.864 672.066 Q167.244 675.237 167.244 680.654 Q167.244 686.232 163.771 689.334 Q160.299 692.413 153.98 692.413 Q151.804 692.413 149.535 692.043 Q147.29 691.672 144.883 690.932 L144.883 686.232 Q146.966 687.367 149.188 687.922 Q151.41 688.478 153.887 688.478 Q157.892 688.478 160.23 686.371 Q162.568 684.265 162.568 680.654 Q162.568 677.043 160.23 674.936 Q157.892 672.83 153.887 672.83 Q152.012 672.83 150.137 673.246 Q148.285 673.663 146.341 674.543 L146.341 657.182 Z" fill="#000000" fill-rule="nonzero" fill-opacity="1" /><path clip-path="url(#clip950)" d="M119.165 433.016 L135.484 433.016 L135.484 436.952 L113.54 436.952 L113.54 433.016 Q116.202 430.262 120.785 425.632 Q125.392 420.979 126.572 419.637 Q128.818 417.114 129.697 415.378 Q130.6 413.618 130.6 411.928 Q130.6 409.174 128.656 407.438 Q126.735 405.702 123.633 405.702 Q121.434 405.702 118.98 406.466 Q116.549 407.229 113.772 408.78 L113.772 404.058 Q116.596 402.924 119.049 402.345 Q121.503 401.767 123.54 401.767 Q128.91 401.767 132.105 404.452 Q135.299 407.137 135.299 411.628 Q135.299 413.757 134.489 415.678 Q133.702 417.577 131.596 420.169 Q131.017 420.84 127.915 424.058 Q124.813 427.252 119.165 433.016 Z" fill="#000000" fill-rule="nonzero" fill-opacity="1" /><path clip-path="url(#clip950)" d="M155.299 405.47 Q151.688 405.47 149.859 409.035 Q148.054 412.577 148.054 419.706 Q148.054 426.813 149.859 430.377 Q151.688 433.919 155.299 433.919 Q158.933 433.919 160.739 430.377 Q162.568 426.813 162.568 419.706 Q162.568 412.577 160.739 409.035 Q158.933 405.47 155.299 405.47 M155.299 401.767 Q161.109 401.767 164.165 406.373 Q167.244 410.956 167.244 419.706 Q167.244 428.433 164.165 433.039 Q161.109 437.623 155.299 437.623 Q149.489 437.623 146.41 433.039 Q143.355 428.433 143.355 419.706 Q143.355 410.956 146.41 406.373 Q149.489 401.767 155.299 401.767 Z" fill="#000000" fill-rule="nonzero" fill-opacity="1" /><path clip-path="url(#clip950)" d="M120.16 178.226 L136.48 178.226 L136.48 182.161 L114.536 182.161 L114.536 178.226 Q117.198 175.472 121.781 170.842 Q126.387 166.189 127.568 164.847 Q129.813 162.323 130.693 160.587 Q131.596 158.828 131.596 157.138 Q131.596 154.384 129.651 152.648 Q127.73 150.911 124.628 150.911 Q122.429 150.911 119.975 151.675 Q117.545 152.439 114.767 153.99 L114.767 149.268 Q117.591 148.134 120.045 147.555 Q122.498 146.976 124.535 146.976 Q129.906 146.976 133.1 149.661 Q136.295 152.347 136.295 156.837 Q136.295 158.967 135.484 160.888 Q134.697 162.786 132.591 165.379 Q132.012 166.05 128.91 169.268 Q125.809 172.462 120.16 178.226 Z" fill="#000000" fill-rule="nonzero" fill-opacity="1" /><path clip-path="url(#clip950)" d="M146.341 147.601 L164.697 147.601 L164.697 151.536 L150.623 151.536 L150.623 160.009 Q151.642 159.661 152.66 159.499 Q153.679 159.314 154.697 159.314 Q160.484 159.314 163.864 162.485 Q167.244 165.657 167.244 171.073 Q167.244 176.652 163.771 179.754 Q160.299 182.833 153.98 182.833 Q151.804 182.833 149.535 182.462 Q147.29 182.092 144.883 181.351 L144.883 176.652 Q146.966 177.786 149.188 178.342 Q151.41 178.897 153.887 178.897 Q157.892 178.897 160.23 176.791 Q162.568 174.684 162.568 171.073 Q162.568 167.462 160.23 165.356 Q157.892 163.249 153.887 163.249 Q152.012 163.249 150.137 163.666 Q148.285 164.083 146.341 164.962 L146.341 147.601 Z" fill="#000000" fill-rule="nonzero" fill-opacity="1" /><path clip-path="url(#clip950)" d="M25.3677 805.937 L43.2235 805.937 L43.2235 797.853 Q43.2235 793.365 40.9 790.914 Q38.5765 788.463 34.2797 788.463 Q30.0147 788.463 27.6912 790.914 Q25.3677 793.365 25.3677 797.853 L25.3677 805.937 M20.0842 812.367 L20.0842 797.853 Q20.0842 789.864 23.7126 785.79 Q27.3092 781.684 34.2797 781.684 Q41.3138 781.684 44.9104 785.79 Q48.507 789.864 48.507 797.853 L48.507 805.937 L67.6042 805.937 L67.6042 812.367 L20.0842 812.367 Z" fill="#000000" fill-rule="nonzero" fill-opacity="1" /><path clip-path="url(#clip950)" d="M36.0621 761.823 Q36.0621 766.533 39.7542 769.271 Q43.4145 772.008 49.812 772.008 Q56.2095 772.008 59.9017 769.303 Q63.5619 766.565 63.5619 761.823 Q63.5619 757.144 59.8698 754.407 Q56.1777 751.67 49.812 751.67 Q43.4781 751.67 39.786 754.407 Q36.0621 757.144 36.0621 761.823 M31.0968 761.823 Q31.0968 754.184 36.0621 749.823 Q41.0273 745.463 49.812 745.463 Q58.5649 745.463 63.5619 749.823 Q68.5272 754.184 68.5272 761.823 Q68.5272 769.494 63.5619 773.854 Q58.5649 778.183 49.812 778.183 Q41.0273 778.183 36.0621 773.854 Q31.0968 769.494 31.0968 761.823 Z" fill="#000000" fill-rule="nonzero" fill-opacity="1" /><path clip-path="url(#clip950)" d="M62.257 730.09 L81.1631 730.09 L81.1631 735.978 L31.9562 735.978 L31.9562 730.09 L37.3671 730.09 Q34.1842 728.244 32.6564 725.443 Q31.0968 722.61 31.0968 718.695 Q31.0968 712.202 36.2531 708.16 Q41.4093 704.086 49.812 704.086 Q58.2147 704.086 63.371 708.16 Q68.5272 712.202 68.5272 718.695 Q68.5272 722.61 66.9994 725.443 Q65.4398 728.244 62.257 730.09 M49.812 710.165 Q43.3508 710.165 39.6905 712.839 Q35.9984 715.48 35.9984 720.127 Q35.9984 724.774 39.6905 727.448 Q43.3508 730.09 49.812 730.09 Q56.2732 730.09 59.9653 727.448 Q63.6256 724.774 63.6256 720.127 Q63.6256 715.48 59.9653 712.839 Q56.2732 710.165 49.812 710.165 Z" fill="#000000" fill-rule="nonzero" fill-opacity="1" /><path clip-path="url(#clip950)" d="M53.5359 694.983 L31.9562 694.983 L31.9562 689.126 L53.3131 689.126 Q58.3739 689.126 60.9202 687.153 Q63.4346 685.18 63.4346 681.233 Q63.4346 676.491 60.4109 673.753 Q57.3872 670.984 52.1673 670.984 L31.9562 670.984 L31.9562 665.128 L67.6042 665.128 L67.6042 670.984 L62.1296 670.984 Q65.3762 673.117 66.9676 675.949 Q68.5272 678.75 68.5272 682.474 Q68.5272 688.617 64.7078 691.8 Q60.8883 694.983 53.5359 694.983 M31.0968 680.246 L31.0968 680.246 Z" fill="#000000" fill-rule="nonzero" fill-opacity="1" /><path clip-path="url(#clip950)" d="M18.079 653.065 L18.079 647.208 L67.6042 647.208 L67.6042 653.065 L18.079 653.065 Z" fill="#000000" fill-rule="nonzero" fill-opacity="1" /><path clip-path="url(#clip950)" d="M49.6847 618.754 Q49.6847 625.851 51.3079 628.589 Q52.9312 631.326 56.8461 631.326 Q59.9653 631.326 61.8114 629.289 Q63.6256 627.22 63.6256 623.687 Q63.6256 618.817 60.1881 615.889 Q56.7188 612.929 50.9897 612.929 L49.6847 612.929 L49.6847 618.754 M47.2657 607.073 L67.6042 607.073 L67.6042 612.929 L62.1933 612.929 Q65.4398 614.934 66.9994 617.926 Q68.5272 620.918 68.5272 625.247 Q68.5272 630.721 65.4716 633.968 Q62.3843 637.182 57.2281 637.182 Q51.2125 637.182 48.1569 633.172 Q45.1014 629.13 45.1014 621.141 L45.1014 612.929 L44.5285 612.929 Q40.4862 612.929 38.2901 615.603 Q36.0621 618.244 36.0621 623.05 Q36.0621 626.106 36.7941 629.002 Q37.5262 631.899 38.9903 634.572 L33.5795 634.572 Q32.3381 631.358 31.7334 628.334 Q31.0968 625.31 31.0968 622.446 Q31.0968 614.711 35.1072 610.892 Q39.1176 607.073 47.2657 607.073 Z" fill="#000000" fill-rule="nonzero" fill-opacity="1" /><path clip-path="url(#clip950)" d="M21.8347 589.217 L31.9562 589.217 L31.9562 577.154 L36.5077 577.154 L36.5077 589.217 L55.8594 589.217 Q60.2199 589.217 61.4613 588.039 Q62.7026 586.83 62.7026 583.169 L62.7026 577.154 L67.6042 577.154 L67.6042 583.169 Q67.6042 589.949 65.0897 592.527 Q62.5434 595.105 55.8594 595.105 L36.5077 595.105 L36.5077 599.402 L31.9562 599.402 L31.9562 595.105 L21.8347 595.105 L21.8347 589.217 Z" fill="#000000" fill-rule="nonzero" fill-opacity="1" /><path clip-path="url(#clip950)" d="M31.9562 569.451 L31.9562 563.595 L67.6042 563.595 L67.6042 569.451 L31.9562 569.451 M18.079 569.451 L18.079 563.595 L25.495 563.595 L25.495 569.451 L18.079 569.451 Z" fill="#000000" fill-rule="nonzero" fill-opacity="1" /><path clip-path="url(#clip950)" d="M36.0621 537.527 Q36.0621 542.238 39.7542 544.975 Q43.4145 547.712 49.812 547.712 Q56.2095 547.712 59.9017 545.007 Q63.5619 542.27 63.5619 537.527 Q63.5619 532.848 59.8698 530.111 Q56.1777 527.374 49.812 527.374 Q43.4781 527.374 39.786 530.111 Q36.0621 532.848 36.0621 537.527 M31.0968 537.527 Q31.0968 529.888 36.0621 525.528 Q41.0273 521.167 49.812 521.167 Q58.5649 521.167 63.5619 525.528 Q68.5272 529.888 68.5272 537.527 Q68.5272 545.198 63.5619 549.558 Q58.5649 553.887 49.812 553.887 Q41.0273 553.887 36.0621 549.558 Q31.0968 545.198 31.0968 537.527 Z" fill="#000000" fill-rule="nonzero" fill-opacity="1" /><path clip-path="url(#clip950)" d="M46.0881 481.827 L67.6042 481.827 L67.6042 487.684 L46.279 487.684 Q41.2183 487.684 38.7038 489.657 Q36.1894 491.63 36.1894 495.577 Q36.1894 500.32 39.2131 503.057 Q42.2368 505.794 47.4567 505.794 L67.6042 505.794 L67.6042 511.682 L31.9562 511.682 L31.9562 505.794 L37.4944 505.794 Q34.2797 503.693 32.6883 500.861 Q31.0968 497.996 31.0968 494.272 Q31.0968 488.129 34.9163 484.978 Q38.7038 481.827 46.0881 481.827 Z" fill="#000000" fill-rule="nonzero" fill-opacity="1" /><path clip-path="url(#clip950)" d="M654.785 18.8205 L654.785 41.5461 L665.074 41.5461 Q670.786 41.5461 673.905 38.5889 Q677.024 35.6318 677.024 30.163 Q677.024 24.7348 673.905 21.7777 Q670.786 18.8205 665.074 18.8205 L654.785 18.8205 M646.602 12.096 L665.074 12.096 Q675.242 12.096 680.427 16.714 Q685.653 21.2916 685.653 30.163 Q685.653 39.1155 680.427 43.6931 Q675.242 48.2706 665.074 48.2706 L654.785 48.2706 L654.785 72.576 L646.602 72.576 L646.602 12.096 Z" fill="#000000" fill-rule="nonzero" fill-opacity="1" /><path clip-path="url(#clip950)" d="M721.139 34.1734 Q719.883 33.4443 718.384 33.1202 Q716.926 32.7556 715.143 32.7556 Q708.824 32.7556 705.421 36.8875 Q702.059 40.9789 702.059 48.6757 L702.059 72.576 L694.565 72.576 L694.565 27.2059 L702.059 27.2059 L702.059 34.2544 Q704.409 30.1225 708.176 28.1376 Q711.943 26.1121 717.331 26.1121 Q718.101 26.1121 719.032 26.2337 Q719.964 26.3147 721.098 26.5172 L721.139 34.1734 Z" fill="#000000" fill-rule="nonzero" fill-opacity="1" /><path clip-path="url(#clip950)" d="M765.942 48.0275 L765.942 51.6733 L731.671 51.6733 Q732.157 59.3701 736.289 63.421 Q740.462 67.4314 747.875 67.4314 Q752.169 67.4314 756.179 66.3781 Q760.23 65.3249 764.2 63.2184 L764.2 70.267 Q760.19 71.9684 755.977 72.8596 Q751.764 73.7508 747.429 73.7508 Q736.573 73.7508 730.213 67.4314 Q723.893 61.1119 723.893 50.3365 Q723.893 39.1965 729.889 32.6746 Q735.925 26.1121 746.133 26.1121 Q755.288 26.1121 760.595 32.0264 Q765.942 37.9003 765.942 48.0275 M758.488 45.84 Q758.407 39.7232 755.045 36.0774 Q751.723 32.4315 746.214 32.4315 Q739.976 32.4315 736.208 35.9558 Q732.481 39.4801 731.914 45.8805 L758.488 45.84 Z" fill="#000000" fill-rule="nonzero" fill-opacity="1" /><path clip-path="url(#clip950)" d="M808.031 34.0924 L808.031 9.54393 L815.484 9.54393 L815.484 72.576 L808.031 72.576 L808.031 65.7705 Q805.681 69.8214 802.076 71.8063 Q798.511 73.7508 793.488 73.7508 Q785.265 73.7508 780.079 67.1883 Q774.935 60.6258 774.935 49.9314 Q774.935 39.2371 780.079 32.6746 Q785.265 26.1121 793.488 26.1121 Q798.511 26.1121 802.076 28.0971 Q805.681 30.0415 808.031 34.0924 M782.632 49.9314 Q782.632 58.1548 785.994 62.8538 Q789.397 67.5124 795.311 67.5124 Q801.225 67.5124 804.628 62.8538 Q808.031 58.1548 808.031 49.9314 Q808.031 41.7081 804.628 37.0496 Q801.225 32.3505 795.311 32.3505 Q789.397 32.3505 785.994 37.0496 Q782.632 41.7081 782.632 49.9314 Z" fill="#000000" fill-rule="nonzero" fill-opacity="1" /><path clip-path="url(#clip950)" d="M851.456 49.7694 Q842.423 49.7694 838.939 51.8354 Q835.455 53.9013 835.455 58.8839 Q835.455 62.8538 838.048 65.2034 Q840.681 67.5124 845.178 67.5124 Q851.375 67.5124 855.102 63.1374 Q858.87 58.7219 858.87 51.4303 L858.87 49.7694 L851.456 49.7694 M866.323 46.6907 L866.323 72.576 L858.87 72.576 L858.87 65.6895 Q856.317 69.8214 852.51 71.8063 Q848.702 73.7508 843.193 73.7508 Q836.225 73.7508 832.093 69.8619 Q828.002 65.9325 828.002 59.3701 Q828.002 51.7138 833.106 47.825 Q838.25 43.9361 848.418 43.9361 L858.87 43.9361 L858.87 43.2069 Q858.87 38.0623 855.467 35.2672 Q852.105 32.4315 845.988 32.4315 Q842.099 32.4315 838.412 33.3632 Q834.726 34.295 831.323 36.1584 L831.323 29.2718 Q835.415 27.692 839.263 26.9223 Q843.112 26.1121 846.757 26.1121 Q856.601 26.1121 861.462 31.2163 Q866.323 36.3204 866.323 46.6907 Z" fill="#000000" fill-rule="nonzero" fill-opacity="1" /><path clip-path="url(#clip950)" d="M889.049 14.324 L889.049 27.2059 L904.402 27.2059 L904.402 32.9987 L889.049 32.9987 L889.049 57.6282 Q889.049 63.1779 890.548 64.7578 Q892.087 66.3376 896.746 66.3376 L904.402 66.3376 L904.402 72.576 L896.746 72.576 Q888.117 72.576 884.836 69.3758 Q881.555 66.1351 881.555 57.6282 L881.555 32.9987 L876.086 32.9987 L876.086 27.2059 L881.555 27.2059 L881.555 14.324 L889.049 14.324 Z" fill="#000000" fill-rule="nonzero" fill-opacity="1" /><path clip-path="url(#clip950)" d="M931.786 32.4315 Q925.79 32.4315 922.307 37.1306 Q918.823 41.7891 918.823 49.9314 Q918.823 58.0738 922.266 62.7728 Q925.75 67.4314 931.786 67.4314 Q937.741 67.4314 941.224 62.7323 Q944.708 58.0333 944.708 49.9314 Q944.708 41.8701 941.224 37.1711 Q937.741 32.4315 931.786 32.4315 M931.786 26.1121 Q941.508 26.1121 947.058 32.4315 Q952.607 38.7509 952.607 49.9314 Q952.607 61.0714 947.058 67.4314 Q941.508 73.7508 931.786 73.7508 Q922.023 73.7508 916.473 67.4314 Q910.964 61.0714 910.964 49.9314 Q910.964 38.7509 916.473 32.4315 Q922.023 26.1121 931.786 26.1121 Z" fill="#000000" fill-rule="nonzero" fill-opacity="1" /><path clip-path="url(#clip950)" d="M991.253 34.1734 Q989.997 33.4443 988.498 33.1202 Q987.04 32.7556 985.258 32.7556 Q978.938 32.7556 975.536 36.8875 Q972.173 40.9789 972.173 48.6757 L972.173 72.576 L964.679 72.576 L964.679 27.2059 L972.173 27.2059 L972.173 34.2544 Q974.523 30.1225 978.29 28.1376 Q982.058 26.1121 987.445 26.1121 Q988.215 26.1121 989.147 26.2337 Q990.078 26.3147 991.213 26.5172 L991.253 34.1734 Z" fill="#000000" fill-rule="nonzero" fill-opacity="1" /><path clip-path="url(#clip950)" d="M989.997 46.5287 L1011.83 46.5287 L1011.83 53.1722 L989.997 53.1722 L989.997 46.5287 Z" fill="#000000" fill-rule="nonzero" fill-opacity="1" /><path clip-path="url(#clip950)" d="M1032.21 18.8205 L1032.21 41.5461 L1042.5 41.5461 Q1048.21 41.5461 1051.33 38.5889 Q1054.45 35.6318 1054.45 30.163 Q1054.45 24.7348 1051.33 21.7777 Q1048.21 18.8205 1042.5 18.8205 L1032.21 18.8205 M1024.02 12.096 L1042.5 12.096 Q1052.66 12.096 1057.85 16.714 Q1063.08 21.2916 1063.08 30.163 Q1063.08 39.1155 1057.85 43.6931 Q1052.66 48.2706 1042.5 48.2706 L1032.21 48.2706 L1032.21 72.576 L1024.02 72.576 L1024.02 12.096 Z" fill="#000000" fill-rule="nonzero" fill-opacity="1" /><path clip-path="url(#clip950)" d="M1098.56 34.1734 Q1097.31 33.4443 1095.81 33.1202 Q1094.35 32.7556 1092.57 32.7556 Q1086.25 32.7556 1082.84 36.8875 Q1079.48 40.9789 1079.48 48.6757 L1079.48 72.576 L1071.99 72.576 L1071.99 27.2059 L1079.48 27.2059 L1079.48 34.2544 Q1081.83 30.1225 1085.6 28.1376 Q1089.37 26.1121 1094.75 26.1121 Q1095.52 26.1121 1096.46 26.2337 Q1097.39 26.3147 1098.52 26.5172 L1098.56 34.1734 Z" fill="#000000" fill-rule="nonzero" fill-opacity="1" /><path clip-path="url(#clip950)" d="M1143.36 48.0275 L1143.36 51.6733 L1109.09 51.6733 Q1109.58 59.3701 1113.71 63.421 Q1117.88 67.4314 1125.3 67.4314 Q1129.59 67.4314 1133.6 66.3781 Q1137.65 65.3249 1141.62 63.2184 L1141.62 70.267 Q1137.61 71.9684 1133.4 72.8596 Q1129.19 73.7508 1124.85 73.7508 Q1114 73.7508 1107.64 67.4314 Q1101.32 61.1119 1101.32 50.3365 Q1101.32 39.1965 1107.31 32.6746 Q1113.35 26.1121 1123.56 26.1121 Q1132.71 26.1121 1138.02 32.0264 Q1143.36 37.9003 1143.36 48.0275 M1135.91 45.84 Q1135.83 39.7232 1132.47 36.0774 Q1129.15 32.4315 1123.64 32.4315 Q1117.4 32.4315 1113.63 35.9558 Q1109.9 39.4801 1109.34 45.8805 L1135.91 45.84 Z" fill="#000000" fill-rule="nonzero" fill-opacity="1" /><path clip-path="url(#clip950)" d="M1174.48 76.7889 Q1171.32 84.8907 1168.32 87.3618 Q1165.32 89.8329 1160.3 89.8329 L1154.34 89.8329 L1154.34 83.5945 L1158.72 83.5945 Q1161.8 83.5945 1163.5 82.1361 Q1165.2 80.6778 1167.26 75.2496 L1168.6 71.8468 L1150.25 27.2059 L1158.15 27.2059 L1172.33 62.6918 L1186.51 27.2059 L1194.41 27.2059 L1174.48 76.7889 Z" fill="#000000" fill-rule="nonzero" fill-opacity="1" /><path clip-path="url(#clip950)" d="M1260.92 34.0924 L1260.92 9.54393 L1268.38 9.54393 L1268.38 72.576 L1260.92 72.576 L1260.92 65.7705 Q1258.57 69.8214 1254.97 71.8063 Q1251.4 73.7508 1246.38 73.7508 Q1238.16 73.7508 1232.97 67.1883 Q1227.83 60.6258 1227.83 49.9314 Q1227.83 39.2371 1232.97 32.6746 Q1238.16 26.1121 1246.38 26.1121 Q1251.4 26.1121 1254.97 28.0971 Q1258.57 30.0415 1260.92 34.0924 M1235.52 49.9314 Q1235.52 58.1548 1238.88 62.8538 Q1242.29 67.5124 1248.2 67.5124 Q1254.12 67.5124 1257.52 62.8538 Q1260.92 58.1548 1260.92 49.9314 Q1260.92 41.7081 1257.52 37.0496 Q1254.12 32.3505 1248.2 32.3505 Q1242.29 32.3505 1238.88 37.0496 Q1235.52 41.7081 1235.52 49.9314 Z" fill="#000000" fill-rule="nonzero" fill-opacity="1" /><path clip-path="url(#clip950)" d="M1302.61 76.7889 Q1299.45 84.8907 1296.45 87.3618 Q1293.45 89.8329 1288.43 89.8329 L1282.47 89.8329 L1282.47 83.5945 L1286.85 83.5945 Q1289.93 83.5945 1291.63 82.1361 Q1293.33 80.6778 1295.39 75.2496 L1296.73 71.8468 L1278.38 27.2059 L1286.28 27.2059 L1300.46 62.6918 L1314.64 27.2059 L1322.54 27.2059 L1302.61 76.7889 Z" fill="#000000" fill-rule="nonzero" fill-opacity="1" /><path clip-path="url(#clip950)" d="M1370.54 45.1919 L1370.54 72.576 L1363.09 72.576 L1363.09 45.4349 Q1363.09 38.994 1360.57 35.7938 Q1358.06 32.5936 1353.04 32.5936 Q1347 32.5936 1343.52 36.4419 Q1340.04 40.2903 1340.04 46.9338 L1340.04 72.576 L1332.54 72.576 L1332.54 27.2059 L1340.04 27.2059 L1340.04 34.2544 Q1342.71 30.163 1346.31 28.1376 Q1349.96 26.1121 1354.7 26.1121 Q1362.52 26.1121 1366.53 30.9732 Q1370.54 35.7938 1370.54 45.1919 Z" fill="#000000" fill-rule="nonzero" fill-opacity="1" /><path clip-path="url(#clip950)" d="M1406.03 49.7694 Q1396.99 49.7694 1393.51 51.8354 Q1390.02 53.9013 1390.02 58.8839 Q1390.02 62.8538 1392.62 65.2034 Q1395.25 67.5124 1399.75 67.5124 Q1405.94 67.5124 1409.67 63.1374 Q1413.44 58.7219 1413.44 51.4303 L1413.44 49.7694 L1406.03 49.7694 M1420.89 46.6907 L1420.89 72.576 L1413.44 72.576 L1413.44 65.6895 Q1410.89 69.8214 1407.08 71.8063 Q1403.27 73.7508 1397.76 73.7508 Q1390.79 73.7508 1386.66 69.8619 Q1382.57 65.9325 1382.57 59.3701 Q1382.57 51.7138 1387.67 47.825 Q1392.82 43.9361 1402.99 43.9361 L1413.44 43.9361 L1413.44 43.2069 Q1413.44 38.0623 1410.04 35.2672 Q1406.67 32.4315 1400.56 32.4315 Q1396.67 32.4315 1392.98 33.3632 Q1389.29 34.295 1385.89 36.1584 L1385.89 29.2718 Q1389.98 27.692 1393.83 26.9223 Q1397.68 26.1121 1401.33 26.1121 Q1411.17 26.1121 1416.03 31.2163 Q1420.89 36.3204 1420.89 46.6907 Z" fill="#000000" fill-rule="nonzero" fill-opacity="1" /><path clip-path="url(#clip950)" d="M1471.57 35.9153 Q1474.36 30.8922 1478.25 28.5022 Q1482.14 26.1121 1487.41 26.1121 Q1494.5 26.1121 1498.35 31.0947 Q1502.19 36.0368 1502.19 45.1919 L1502.19 72.576 L1494.7 72.576 L1494.7 45.4349 Q1494.7 38.913 1492.39 35.7533 Q1490.08 32.5936 1485.34 32.5936 Q1479.55 32.5936 1476.19 36.4419 Q1472.82 40.2903 1472.82 46.9338 L1472.82 72.576 L1465.33 72.576 L1465.33 45.4349 Q1465.33 38.8725 1463.02 35.7533 Q1460.71 32.5936 1455.89 32.5936 Q1450.18 32.5936 1446.82 36.4824 Q1443.46 40.3308 1443.46 46.9338 L1443.46 72.576 L1435.96 72.576 L1435.96 27.2059 L1443.46 27.2059 L1443.46 34.2544 Q1446.01 30.082 1449.57 28.0971 Q1453.14 26.1121 1458.04 26.1121 Q1462.98 26.1121 1466.42 28.6237 Q1469.91 31.1352 1471.57 35.9153 Z" fill="#000000" fill-rule="nonzero" fill-opacity="1" /><path clip-path="url(#clip950)" d="M1517.06 27.2059 L1524.51 27.2059 L1524.51 72.576 L1517.06 72.576 L1517.06 27.2059 M1517.06 9.54393 L1524.51 9.54393 L1524.51 18.9825 L1517.06 18.9825 L1517.06 9.54393 Z" fill="#000000" fill-rule="nonzero" fill-opacity="1" /><path clip-path="url(#clip950)" d="M1572.76 28.9478 L1572.76 35.9153 Q1569.6 34.1734 1566.4 33.3227 Q1563.24 32.4315 1560 32.4315 Q1552.75 32.4315 1548.74 37.0496 Q1544.73 41.6271 1544.73 49.9314 Q1544.73 58.2358 1548.74 62.8538 Q1552.75 67.4314 1560 67.4314 Q1563.24 67.4314 1566.4 66.5807 Q1569.6 65.6895 1572.76 63.9476 L1572.76 70.8341 Q1569.64 72.2924 1566.28 73.0216 Q1562.96 73.7508 1559.19 73.7508 Q1548.94 73.7508 1542.91 67.3098 Q1536.87 60.8689 1536.87 49.9314 Q1536.87 38.832 1542.95 32.472 Q1549.06 26.1121 1559.68 26.1121 Q1563.12 26.1121 1566.4 26.8413 Q1569.68 27.5299 1572.76 28.9478 Z" fill="#000000" fill-rule="nonzero" fill-opacity="1" /><path clip-path="url(#clip950)" d="M1614.65 28.5427 L1614.65 35.5912 Q1611.49 33.9709 1608.08 33.1607 Q1604.68 32.3505 1601.04 32.3505 Q1595.49 32.3505 1592.69 34.0519 Q1589.94 35.7533 1589.94 39.156 Q1589.94 41.7486 1591.92 43.2475 Q1593.91 44.7058 1599.9 46.0426 L1602.45 46.6097 Q1610.39 48.3111 1613.72 51.4303 Q1617.08 54.509 1617.08 60.0587 Q1617.08 66.3781 1612.05 70.0644 Q1607.07 73.7508 1598.32 73.7508 Q1594.68 73.7508 1590.71 73.0216 Q1586.78 72.3329 1582.4 70.9151 L1582.4 63.2184 Q1586.53 65.3654 1590.54 66.4591 Q1594.55 67.5124 1598.48 67.5124 Q1603.75 67.5124 1606.59 65.73 Q1609.42 63.9071 1609.42 60.6258 Q1609.42 57.5877 1607.36 55.9673 Q1605.33 54.3469 1598.4 52.8481 L1595.81 52.2405 Q1588.88 50.7821 1585.8 47.7845 Q1582.73 44.7463 1582.73 39.4801 Q1582.73 33.0797 1587.26 29.5959 Q1591.8 26.1121 1600.14 26.1121 Q1604.28 26.1121 1607.92 26.7198 Q1611.57 27.3274 1614.65 28.5427 Z" fill="#000000" fill-rule="nonzero" fill-opacity="1" /><polyline clip-path="url(#clip952)" style="stroke:#009af9; stroke-linecap:round; stroke-linejoin:round; stroke-width:4; stroke-opacity:1; fill:none" points="198.924,1133.08 200.789,1129.64 202.655,1125.65 204.521,1121.09 206.387,1115.93 208.253,1110.13 210.119,1103.68 211.984,1096.52 213.85,1088.63 215.716,1079.96 217.582,1070.46 219.448,1060.09 221.314,1048.81 223.179,1036.55 225.045,1023.28 226.911,1008.93 228.777,993.457 230.643,976.798 232.509,958.908 234.374,939.742 236.24,919.258 238.106,897.418 239.972,874.195 241.838,849.573 243.704,823.542 245.569,796.114 247.435,767.325 249.301,737.238 251.167,705.94 253.033,673.542 254.899,640.181 256.764,606.019 258.63,571.239 260.496,536.071 262.362,500.793 264.228,465.697 266.094,431.077 267.959,397.236 269.825,364.48 271.691,333.122 273.557,303.481 275.423,275.874 277.289,250.538 279.154,227.714 281.02,207.614 282.886,190.408 284.752,176.218 286.618,165.123 288.484,157.156 290.349,152.306 292.215,150.518 294.081,151.689 295.947,155.674 297.813,162.321 299.679,171.486 301.544,182.975 303.41,196.592 305.276,212.145 307.142,229.44 309.008,248.285 310.874,268.487 312.739,289.855 314.605,312.2 316.471,335.338 318.337,359.122 320.203,383.406 322.069,408.05 323.934,432.929 325.8,457.925 327.666,482.932 329.532,507.855 331.398,532.608 333.264,557.117 335.129,581.319 336.995,605.16 338.861,628.597 340.727,651.598 342.593,674.121 344.458,696.129 346.324,717.601 348.19,738.519 350.056,758.868 351.922,778.635 353.788,797.811 355.653,816.388 357.519,834.365 359.385,851.74 361.251,868.516 363.117,884.698 364.983,900.296 366.848,915.318 368.714,929.769 370.58,943.655 372.446,956.988 374.312,969.777 376.178,982.033 378.043,993.765 379.909,1004.98 381.775,1015.7 383.641,1025.92 385.507,1035.66 387.373,1044.93 389.238,1053.73 391.104,1062.08 392.97,1069.98 394.836,1077.45 396.702,1084.49 398.568,1091.11 400.433,1097.31 402.299,1103.11 404.165,1108.51 406.031,1113.52 407.897,1118.14 409.763,1122.38 411.628,1126.23 413.494,1129.7 415.36,1132.8 417.226,1135.51 419.092,1137.85 420.958,1139.8 422.823,1141.36 424.689,1142.53 426.555,1143.31 428.421,1143.68 430.287,1143.63 432.153,1143.17 434.018,1142.27 435.884,1140.92 437.75,1139.11 439.616,1136.82 441.482,1134.03 443.348,1130.73 445.213,1126.88 447.079,1122.47 448.945,1117.47 450.811,1111.85 452.677,1105.58 454.543,1098.62 456.408,1090.94 458.274,1082.49 460.14,1073.24 462.006,1063.13 463.872,1052.13 465.738,1040.19 467.603,1027.24 469.469,1013.24 471.335,998.127 473.201,981.845 475.067,964.332 476.933,945.554 478.798,925.45 480.664,903.966 482.53,881.068 484.396,856.743 486.262,830.998 488.128,803.86 489.993,775.373 491.859,745.606 493.725,714.643 495.591,682.593 497.457,649.579 499.323,615.75 501.188,581.272 503.054,546.329 504.92,511.129 506.786,475.916 508.652,441.047 510.518,406.892 512.383,373.795 514.249,342.077 516.115,312.034 517.981,283.937 519.847,258.034 521.713,234.549 523.578,213.68 525.444,195.603 527.31,180.469 529.176,168.402 531.042,159.506 532.908,153.766 534.773,151.041 536.639,151.235 538.505,154.239 540.371,159.932 542.237,168.182 544.103,178.843 545.968,191.761 547.834,206.766 549.7,223.679 551.566,242.307 553.432,262.447 555.298,283.883 557.163,306.387 559.029,329.721 560.895,353.632 562.761,377.859 564.627,402.293 566.493,426.995 568.358,451.852 570.224,476.757 572.09,501.615 573.956,526.336 575.822,550.843 577.688,575.066 579.553,598.943 581.419,622.424 583.285,645.465 585.151,668.032 587.017,690.102 588.883,711.657 590.748,732.666 592.614,753.109 594.48,772.976 596.346,792.263 598.212,810.962 600.078,829.07 601.943,846.586 603.809,863.509 605.675,879.84 607.541,895.582 609.407,910.741 611.273,925.321 613.138,939.331 615.004,952.781 616.87,965.681 618.736,978.044 620.602,989.886 622.468,1001.22 624.333,1012.05 626.199,1022.39 628.065,1032.24 629.931,1041.62 631.797,1050.54 633.663,1059 635.528,1067.02 637.394,1074.6 639.26,1081.75 641.126,1088.48 642.992,1094.8 644.858,1100.71 646.723,1106.22 648.589,1111.34 650.455,1116.06 652.321,1120.39 654.187,1124.34 656.052,1127.9 657.918,1131.08 659.784,1133.84 661.65,1136.18 663.516,1138.12 665.382,1139.66 667.247,1140.81 669.113,1141.57 670.979,1141.93 672.845,1141.9 674.711,1141.46 676.577,1140.61 678.442,1139.35 680.308,1137.64 682.174,1135.49 684.04,1132.86 685.906,1129.75 687.772,1126.12 689.637,1121.94 691.503,1117.2 693.369,1111.85 695.235,1105.87 697.101,1099.22 698.967,1091.86 700.832,1083.74 702.698,1074.82 704.564,1065.07 706.43,1054.41 708.296,1042.82 710.162,1030.22 712.027,1016.57 713.893,1001.81 715.759,985.874 717.625,968.75 719.491,950.368 721.357,930.663 723.222,909.587 725.088,887.111 726.954,863.223 728.82,837.931 730.686,811.257 732.552,783.243 734.417,753.95 736.283,723.454 738.149,691.851 740.015,659.253 741.881,625.791 743.747,591.614 745.612,556.888 747.478,521.8 749.344,486.651 751.21,451.812 753.076,417.634 754.942,384.446 756.807,352.555 758.673,322.248 760.539,293.789 762.405,267.422 764.271,243.368 766.137,221.827 768.002,202.978 769.868,186.979 771.734,173.964 773.6,164.047 775.466,157.322 777.332,153.77 779.197,153.203 781.063,155.488 782.929,160.486 784.795,168.051 786.661,178.03 788.527,190.262 790.392,204.579 792.258,220.806 794.124,238.758 795.99,258.247 797.856,279.074 799.722,301.033 801.587,323.914 803.453,347.494 805.319,371.548 807.185,395.853 809.051,420.405 810.917,445.147 812.782,469.972 814.648,494.781 816.514,519.484 818.38,544 820.246,568.256 822.112,592.186 823.977,615.736 825.843,638.858 827.709,661.511 829.575,683.667 831.441,705.303 833.307,726.405 835.172,746.968 837.038,766.975 838.904,786.398 840.77,805.234 842.636,823.481 844.502,841.139 846.367,858.207 848.233,874.689 850.099,890.586 851.965,905.904 853.831,920.646 855.697,934.82 857.562,948.432 859.428,961.492 861.294,974.01 863.16,985.995 865.026,997.462 866.892,1008.42 868.757,1018.89 870.623,1028.88 872.489,1038.39 874.355,1047.43 876.221,1056.01 878.087,1064.14 879.952,1071.84 881.818,1079.11 883.684,1085.96 885.55,1092.39 887.416,1098.41 889.282,1104.04 891.147,1109.26 893.013,1114.1 894.879,1118.54 896.745,1122.6 898.611,1126.27 900.477,1129.56 902.342,1132.47 904.208,1135 906.074,1137.14 907.94,1138.89 909.806,1140.22 911.672,1141.13 913.537,1141.63 915.403,1141.71 917.269,1141.37 919.135,1140.61 921.001,1139.42 922.867,1137.79 924.732,1135.7 926.598,1133.14 928.464,1130.09 930.33,1126.52 932.196,1122.43 934.062,1117.77 935.927,1112.52 937.793,1106.65 939.659,1100.13 941.525,1092.91 943.391,1084.96 945.257,1076.23 947.122,1066.69 948.988,1056.28 950.854,1044.96 952.72,1032.66 954.586,1019.34 956.452,1004.94 958.317,989.403 960.183,972.656 962.049,954.643 963.915,935.346 965.781,914.714 967.646,892.703 969.512,869.285 971.378,844.456 973.244,818.229 975.11,790.64 976.976,761.745 978.841,731.618 980.707,700.356 982.573,668.075 984.439,634.912 986.305,601.023 988.171,566.586 990.036,531.798 991.902,496.877 993.768,462.074 995.634,427.76 997.5,394.301 999.366,362.038 1001.23,331.286 1003.1,302.33 1004.96,275.429 1006.83,250.814 1008.69,228.691 1010.56,209.235 1012.43,192.597 1014.29,178.9 1016.16,168.238 1018.02,160.68 1019.89,156.266 1021.76,154.948 1023.62,156.547 1025.49,160.904 1027.35,167.858 1029.22,177.243 1031.08,188.892 1032.95,202.635 1034.82,218.3 1036.68,235.71 1038.55,254.688 1040.41,275.052 1042.28,296.619 1044.15,319.201 1046.01,342.61 1047.88,366.653 1049.74,391.135 1051.61,415.86 1053.47,440.626 1055.34,465.272 1057.21,489.888 1059.07,514.425 1060.94,538.806 1062.8,562.959 1064.67,586.82 1066.54,610.332 1068.4,633.442 1070.27,656.108 1072.13,678.292 1074,699.964 1075.86,721.099 1077.73,741.681 1079.6,761.7 1081.46,781.153 1083.33,800.043 1085.19,818.354 1087.06,836.076 1088.93,853.211 1090.79,869.763 1092.66,885.736 1094.52,901.135 1096.39,915.965 1098.25,930.233 1100.12,943.946 1101.99,957.11 1103.85,969.735 1105.72,981.828 1107.58,993.4 1109.45,1004.46 1111.32,1015.02 1113.18,1025.09 1115.05,1034.68 1116.91,1043.81 1118.78,1052.48 1120.64,1060.7 1122.51,1068.48 1124.38,1075.83 1126.24,1082.76 1128.11,1089.26 1129.97,1095.36 1131.84,1101.06 1133.71,1106.36 1135.57,1111.27 1137.44,1115.79 1139.3,1119.93 1141.17,1123.68 1143.03,1127.05 1144.9,1130.04 1146.77,1132.64 1148.63,1134.86 1150.5,1136.7 1152.36,1138.14 1154.23,1139.19 1156.1,1139.84 1157.96,1140.08 1159.83,1139.89 1161.69,1139.27 1163.56,1138.2 1165.42,1136.67 1167.29,1134.67 1169.16,1132.2 1171.02,1129.22 1172.89,1125.72 1174.75,1121.68 1176.62,1117.07 1178.49,1111.87 1180.35,1106.05 1182.22,1099.57 1184.08,1092.4 1185.95,1084.51 1187.81,1075.85 1189.68,1066.39 1191.55,1056.07 1193.41,1044.87 1195.28,1032.72 1197.14,1019.57 1199.01,1005.38 1200.88,990.079 1202.74,973.62 1204.61,955.938 1206.47,936.971 1208.34,916.672 1210.2,895.024 1212.07,871.994 1213.94,847.569 1215.8,821.758 1217.67,794.592 1219.53,766.121 1221.4,736.419 1223.27,705.579 1225.13,673.717 1227,640.971 1228.86,607.498 1230.73,573.477 1232.59,539.11 1234.46,504.62 1236.33,470.249 1238.19,436.252 1240.06,402.971 1241.92,370.776 1243.79,340.003 1245.66,310.959 1247.52,283.917 1249.39,259.12 1251.25,236.779 1253.12,217.074 1254.98,200.151 1256.85,186.127 1258.72,175.086 1260.58,167.081 1262.45,162.134 1264.31,160.234 1266.18,161.312 1268.05,165.201 1269.91,171.719 1271.78,180.683 1273.64,191.915 1275.51,205.233 1277.37,220.461 1279.24,237.42 1281.11,255.935 1282.97,275.829 1284.84,296.929 1286.7,319.06 1288.57,342.051 1290.44,365.73 1292.3,389.927 1294.17,414.472 1296.03,439.197 1297.9,463.935 1299.76,488.518 1301.63,512.797 1303.5,536.864 1305.36,560.726 1307.23,584.321 1309.09,607.593 1310.96,630.492 1312.83,652.975 1314.69,675.003 1316.56,696.542 1318.42,717.565 1320.29,738.051 1322.15,757.983 1324.02,777.352 1325.89,796.152 1327.75,814.383 1329.62,832.051 1331.48,849.141 1333.35,865.654 1335.22,881.593 1337.08,896.965 1338.95,911.776 1340.81,926.031 1342.68,939.739 1344.54,952.905 1346.41,965.539 1348.28,977.647 1350.14,989.238 1352.01,1000.32 1353.87,1010.91 1355.74,1021 1357.61,1030.62 1359.47,1039.77 1361.34,1048.46 1363.2,1056.7 1365.07,1064.51 1366.93,1071.88 1368.8,1078.83 1370.67,1085.36 1372.53,1091.48 1374.4,1097.2 1376.26,1102.52 1378.13,1107.44 1380,1111.98 1381.86,1116.14 1383.73,1119.91 1385.59,1123.3 1387.46,1126.31 1389.32,1128.93 1391.19,1131.18 1393.06,1133.03 1394.92,1134.49 1396.79,1135.56 1398.65,1136.22 1400.52,1136.48 1402.39,1136.32 1404.25,1135.73 1406.12,1134.71 1407.98,1133.23 1409.85,1131.28 1411.71,1128.84 1413.58,1125.9 1415.45,1122.44 1417.31,1118.42 1419.18,1113.83 1421.04,1108.64 1422.91,1102.83 1424.78,1096.35 1426.64,1089.18 1428.51,1081.28 1430.37,1072.62 1432.24,1063.16 1434.1,1052.85 1435.97,1041.65 1437.84,1029.53 1439.7,1016.43 1441.57,1002.3 1443.43,987.093 1445.3,970.757 1447.17,953.236 1449.03,934.474 1450.9,914.412 1452.76,893.012 1454.63,870.261 1456.49,846.148 1458.36,820.683 1460.23,793.897 1462.09,765.842 1463.96,736.591 1465.82,706.238 1467.69,674.897 1469.56,642.706 1471.42,609.821 1473.29,576.419 1475.15,542.7 1477.02,508.883 1478.88,475.208 1480.75,441.938 1482.62,409.336 1484.48,377.749 1486.35,347.522 1488.21,318.965 1490.08,292.356 1491.95,267.94 1493.81,245.927 1495.68,226.496 1497.54,209.791 1499.41,195.922 1501.27,184.968 1503.14,176.972 1505.01,171.947 1506.87,169.869 1508.74,170.68 1510.6,174.248 1512.47,180.397 1514.34,188.951 1516.2,199.737 1518.07,212.578 1519.93,227.301 1521.8,243.732 1523.66,261.698 1525.53,281.028 1527.4,301.549 1529.26,323.089 1531.13,345.478 1532.99,368.545 1534.86,392.121 1536.73,416.037 1538.59,440.124 1540.46,464.237 1542.32,488.377 1544.19,512.475 1546.05,536.453 1547.92,560.237 1549.79,583.762 1551.65,606.967 1553.52,629.801 1555.38,652.217 1557.25,674.177 1559.12,695.648 1560.98,716.605 1562.85,737.03 1564.71,756.909 1566.58,776.239 1568.44,795.021 1570.31,813.246 1572.18,830.896 1574.04,847.971 1575.91,864.474 1577.77,880.408 1579.64,895.778 1581.51,910.587 1583.37,924.841 1585.24,938.547 1587.1,951.71 1588.97,964.339 1590.83,976.442 1592.7,988.027 1594.57,999.105 1596.43,1009.69 1598.3,1019.78 1600.16,1029.4 1602.03,1038.56 1603.9,1047.26 1605.76,1055.51 1607.63,1063.32 1609.49,1070.7 1611.36,1077.66 1613.22,1084.2 1615.09,1090.33 1616.96,1096.06 1618.82,1101.39 1620.69,1106.33 1622.55,1110.88 1624.42,1115.04 1626.29,1118.82 1628.15,1122.21 1630.02,1125.22 1631.88,1127.85 1633.75,1130.09 1635.61,1131.94 1637.48,1133.4 1639.35,1134.47 1641.21,1135.14 1643.08,1135.38 1644.94,1135.2 1646.81,1134.58 1648.68,1133.52 1650.54,1132.01 1652.41,1130.04 1654.27,1127.58 1656.14,1124.62 1658,1121.15 1659.87,1117.14 1661.74,1112.57 1663.6,1107.41 1665.47,1101.63 1667.33,1095.2 1669.2,1088.09 1671.07,1080.25 1672.93,1071.66 1674.8,1062.27 1676.66,1052.04 1678.53,1040.93 1680.39,1028.87 1682.26,1015.84 1684.13,1001.76 1685.99,986.591 1687.86,970.273 1689.72,952.747 1691.59,933.986 1693.46,913.947 1695.32,892.589 1697.19,869.888 1699.05,845.84 1700.92,820.46 1702.78,793.781 1704.65,765.857 1706.52,736.759 1708.38,706.579 1710.25,675.427 1712.11,643.432 1713.98,610.741 1715.85,577.524 1717.71,543.965 1719.58,510.27 1721.44,476.665 1723.31,443.466 1725.17,411.028 1727.04,379.679 1728.91,349.721 1730.77,321.432 1732.64,295.063 1734.5,270.838 1736.37,248.957 1738.24,229.594 1740.1,212.897 1741.97,198.988 1743.83,187.963 1745.7,179.892 1747.56,174.82 1749.43,172.721 1751.3,173.435 1753.16,176.821 1755.03,182.737 1756.89,191.036 1758.76,201.568 1760.63,214.178 1762.49,228.708 1764.36,244.997 1766.22,262.877 1768.09,282.179 1769.95,302.73 1771.82,324.351 1773.69,346.861 1775.55,370.074 1777.42,393.801 1779.28,417.848 1781.15,442.019 1783.02,466.111 1784.88,490.022 1786.75,513.883 1788.61,537.631 1790.48,561.195 1792.34,584.511 1794.21,607.52 1796.08,630.17 1797.94,652.416 1799.81,674.218 1801.67,695.543 1803.54,716.365 1805.41,736.664 1807.27,756.424 1809.14,775.64 1811,794.309 1812.87,812.43 1814.73,829.981 1816.6,846.964 1818.47,863.381 1820.33,879.235 1822.2,894.53 1824.06,909.271 1825.93,923.462 1827.8,937.11 1829.66,950.22 1831.53,962.8 1833.39,974.858 1835.26,986.401 1837.12,997.438 1838.99,1007.98 1840.86,1018.04 1842.72,1027.62 1844.59,1036.74 1846.45,1045.4 1848.32,1053.63 1850.19,1061.41 1852.05,1068.76 1853.92,1075.69 1855.78,1082.2 1857.65,1088.31 1859.51,1094.01 1861.38,1099.32 1863.25,1104.23 1865.11,1108.75 1866.98,1112.89 1868.84,1116.64 1870.71,1120.01 1872.58,1123 1874.44,1125.6 1876.31,1127.81 1878.17,1129.64 1880.04,1131.07 1881.9,1132.11 1883.77,1132.74 1885.64,1132.97 1887.5,1132.77 1889.37,1132.14 1891.23,1131.06 1893.1,1129.52 1894.97,1127.52 1896.83,1125.03 1898.7,1122.03 1900.56,1118.51 1902.43,1114.45 1904.29,1109.82 1906.16,1104.6 1908.03,1098.75 1909.89,1092.25 1911.76,1085.06 1913.62,1077.15 1915.49,1068.48 1917.36,1059.02 1919.22,1048.72 1921.09,1037.53 1922.95,1025.42 1924.82,1012.34 1926.68,998.228 1928.55,983.04 1930.42,966.72 1932.28,949.213 1934.15,930.463 1936.01,910.45 1937.88,889.138 1939.75,866.505 1941.61,842.547 1943.48,817.279 1945.34,790.737 1947.21,762.975 1949.07,734.067 1950.94,704.106 1952.81,673.206 1954.67,641.498 1956.54,609.135 1958.4,576.287 1960.27,543.145 1962.14,509.92 1964,476.838 1965.87,444.154 1967.73,412.208 1969.6,381.338 1971.46,351.853 1973.33,324.033 1975.2,298.13 1977.06,274.37 1978.93,252.947 1980.79,234.03 1982.66,217.758 1984.53,204.243 1986.39,193.568 1988.26,185.789 1990.12,180.932 1991.99,178.993 1993.85,179.886 1995.72,183.455 1997.59,189.54 1999.45,197.985 2001.32,208.628 2003.18,221.31 2005.05,235.869 2006.92,252.144 2008.78,269.973 2010.65,289.192 2012.51,309.638 2014.38,331.147 2016.24,353.554 2018.11,376.692 2019.98,400.397 2021.84,424.499 2023.71,448.833 2025.57,473.229 2027.44,497.519 2029.31,521.533 2031.17,545.1 2033.04,568.065 2034.9,590.656 2036.77,612.962 2038.63,634.938 2040.5,656.543 2042.37,677.74 2044.23,698.495 2046.1,718.781 2047.96,738.574 2049.83,757.855 2051.7,776.609 2053.56,794.826 2055.43,812.5 2057.29,829.631 2059.16,846.22 2061.02,862.27 2062.89,877.774 2064.76,892.734 "/>
<polyline clip-path="url(#clip952)" style="stroke:#e26f46; stroke-linecap:round; stroke-linejoin:round; stroke-width:8; stroke-opacity:1; fill:none" points="198.924,725.42 200.789,709.333 202.655,693.053 204.521,676.607 206.387,660.029 208.253,643.356 210.119,626.628 211.984,609.891 213.85,593.197 215.716,576.6 217.582,560.164 219.448,543.954 221.314,528.046 223.179,512.518 225.045,497.455 226.911,482.95 228.777,469.103 230.643,456.018 232.509,443.802 234.374,432.569 236.24,422.432 238.106,413.514 239.972,405.929 241.838,399.794 243.704,395.238 245.569,392.378 247.435,391.311 249.301,392.122 251.167,394.88 253.033,399.636 254.899,406.429 256.764,415.279 258.63,426.191 260.496,439.126 262.362,454.007 264.228,470.734 266.094,489.188 267.959,509.228 269.825,530.693 271.691,553.4 273.557,577.148 275.423,601.716 277.289,626.913 279.154,652.514 281.02,678.298 282.886,704.062 284.752,729.624 286.618,754.819 288.484,779.5 290.349,803.539 292.215,826.827 294.081,849.272 295.947,870.801 297.813,891.36 299.679,910.918 301.544,929.46 303.41,946.98 305.276,963.478 307.142,978.963 309.008,993.451 310.874,1006.96 312.739,1019.53 314.605,1031.19 316.471,1041.98 318.337,1051.93 320.203,1061.08 322.069,1069.47 323.934,1077.12 325.8,1084.09 327.666,1090.39 329.532,1096.06 331.398,1101.13 333.264,1105.63 335.129,1109.58 336.995,1113 338.861,1115.92 340.727,1118.37 342.593,1120.35 344.458,1121.89 346.324,1123.01 348.19,1123.72 350.056,1124.02 351.922,1123.95 353.788,1123.5 355.653,1122.69 357.519,1121.52 359.385,1120.01 361.251,1118.15 363.117,1115.97 364.983,1113.45 366.848,1110.61 368.714,1107.44 370.58,1103.96 372.446,1100.16 374.312,1096.05 376.178,1091.62 378.043,1086.88 379.909,1081.82 381.775,1076.44 383.641,1070.75 385.507,1064.75 387.373,1058.43 389.238,1051.78 391.104,1044.82 392.97,1037.54 394.836,1029.92 396.702,1021.99 398.568,1013.72 400.433,1005.13 402.299,996.194 404.165,986.924 406.031,977.31 407.897,967.349 409.763,957.041 411.628,946.383 413.494,935.375 415.36,924.017 417.226,912.31 419.092,900.254 420.958,887.853 422.823,875.109 424.689,862.025 426.555,848.606 428.421,834.857 430.287,820.784 432.153,806.392 434.018,791.69 435.884,776.692 437.75,761.427 439.616,745.902 441.482,730.131 443.348,714.128 445.213,697.915 447.079,681.519 448.945,664.972 450.811,648.31 452.677,631.576 454.543,614.815 456.408,598.081 458.274,581.431 460.14,564.926 462.006,548.634 463.872,532.628 465.738,516.985 467.603,501.788 469.469,487.125 471.335,473.088 473.201,459.776 475.067,447.286 476.933,435.689 478.798,425.132 480.664,415.772 482.53,407.753 484.396,401.205 486.262,396.244 488.128,392.973 489.993,391.48 491.859,391.84 493.725,394.115 495.591,398.353 497.457,404.587 499.323,412.838 501.188,423.112 503.054,435.403 504.92,449.688 506.786,465.927 508.652,483.97 510.518,503.633 512.383,524.73 514.249,547.072 516.115,570.469 517.981,594.732 519.847,619.669 521.713,645.085 523.578,670.786 525.444,696.575 527.31,722.256 529.176,747.628 531.042,772.492 532.908,796.71 534.773,820.22 536.639,842.935 538.505,864.779 540.371,885.691 542.237,905.619 544.103,924.526 545.968,942.385 547.834,959.183 549.7,974.918 551.566,989.601 553.432,1003.26 555.298,1015.92 557.163,1027.63 559.029,1038.46 560.895,1048.48 562.761,1057.77 564.627,1066.36 566.493,1074.21 568.358,1081.36 570.224,1087.83 572.09,1093.67 573.956,1098.9 575.822,1103.55 577.688,1107.64 579.553,1111.21 581.419,1114.28 583.285,1116.86 585.151,1118.97 587.017,1120.64 588.883,1121.88 590.748,1122.7 592.614,1123.13 594.48,1123.17 596.346,1122.83 598.212,1122.13 600.078,1121.06 601.943,1119.65 603.809,1117.89 605.675,1115.8 607.541,1113.37 609.407,1110.62 611.273,1107.55 613.138,1104.16 615.004,1100.45 616.87,1096.42 618.736,1092.08 620.602,1087.43 622.468,1082.46 624.333,1077.18 626.199,1071.59 628.065,1065.68 629.931,1059.46 631.797,1052.91 633.663,1046.05 635.528,1038.85 637.394,1031.34 639.26,1023.49 641.126,1015.32 642.992,1006.81 644.858,997.969 646.723,988.791 648.589,979.274 650.455,969.417 652.321,959.218 654.187,948.674 656.052,937.783 657.918,926.553 659.784,915.028 661.65,903.197 663.516,891.044 665.382,878.555 667.247,865.722 669.113,852.539 670.979,839.004 672.845,825.117 674.711,810.885 676.577,796.314 678.442,781.417 680.308,766.21 682.174,750.711 684.04,734.943 685.906,718.932 687.772,702.707 689.637,686.301 691.503,669.752 693.369,653.099 695.235,636.386 697.101,619.66 698.967,602.972 700.832,586.377 702.698,569.931 704.564,553.697 706.43,537.739 708.296,522.125 710.162,506.928 712.027,492.224 713.893,478.09 715.759,464.606 717.625,451.86 719.491,440.005 721.357,429.193 723.222,419.566 725.088,411.253 726.954,404.376 728.82,399.042 730.686,395.35 732.552,393.387 734.417,393.23 736.283,394.945 738.149,398.587 740.015,404.201 741.881,411.819 743.747,421.464 745.612,433.149 747.478,446.881 749.344,462.588 751.21,480.098 753.076,499.237 754.942,519.827 756.807,541.69 758.673,564.644 760.539,588.509 762.405,613.099 764.271,638.229 766.137,663.713 768.002,689.36 769.868,714.979 771.734,740.38 773.6,765.366 775.466,789.743 777.332,813.371 779.197,836.216 781.063,858.209 782.929,879.29 784.795,899.413 786.661,918.539 788.527,936.642 790.392,953.707 792.258,969.727 794.124,984.71 795.99,998.671 797.856,1011.64 799.722,1023.65 801.587,1034.76 803.453,1045.01 805.319,1054.5 807.185,1063.28 809.051,1071.34 810.917,1078.69 812.782,1085.35 814.648,1091.37 816.514,1096.77 818.38,1101.59 820.246,1105.85 822.112,1109.58 823.977,1112.79 825.843,1115.52 827.709,1117.78 829.575,1119.59 831.441,1120.96 833.307,1121.92 835.172,1122.46 837.038,1122.62 838.904,1122.39 840.77,1121.8 842.636,1120.85 844.502,1119.54 846.367,1117.89 848.233,1115.91 850.099,1113.58 851.965,1110.93 853.831,1107.95 855.697,1104.66 857.562,1101.04 859.428,1097.11 861.294,1092.86 863.16,1088.3 865.026,1083.43 866.892,1078.25 868.757,1072.75 870.623,1066.93 872.489,1060.81 874.355,1054.36 876.221,1047.6 878.087,1040.51 879.952,1033.1 881.818,1025.36 883.684,1017.29 885.55,1008.88 887.416,1000.14 889.282,991.069 891.147,981.656 893.013,971.903 894.879,961.808 896.745,951.371 898.611,940.59 900.477,929.465 902.342,917.993 904.208,906.176 906.074,894.012 907.94,881.518 909.806,868.731 911.672,855.638 913.537,842.229 915.403,828.496 917.269,814.435 919.135,800.049 921.001,785.343 922.867,770.325 924.732,755.011 926.598,739.417 928.464,723.565 930.33,707.483 932.196,691.2 934.062,674.751 935.927,658.175 937.793,641.514 939.659,624.816 941.525,608.132 943.391,591.517 945.257,575.032 947.122,558.739 948.988,542.707 950.854,527.007 952.72,511.717 954.586,496.917 956.452,482.69 958.317,469.127 960.183,456.32 962.049,444.363 963.915,433.345 965.781,423.416 967.646,414.731 969.512,407.432 971.378,401.644 973.244,397.478 975.11,395.032 976.976,394.389 978.841,395.617 980.707,398.769 982.573,403.886 984.439,410.993 986.305,420.1 988.171,431.204 990.036,444.287 991.902,459.318 993.768,476.246 995.634,494.901 997.5,515.087 999.366,536.608 1001.23,559.272 1003.1,582.886 1004.96,607.262 1006.83,632.209 1008.69,657.541 1010.56,683.073 1012.43,708.62 1014.29,734 1016.16,759.032 1018.02,783.538 1019.89,807.339 1021.76,830.323 1023.62,852.468 1025.49,873.72 1027.35,894.032 1029.22,913.366 1031.08,931.693 1032.95,948.994 1034.82,965.259 1036.68,980.488 1038.55,994.689 1040.41,1007.88 1042.28,1020.08 1044.15,1031.34 1046.01,1041.7 1047.88,1051.2 1049.74,1059.92 1051.61,1067.93 1053.47,1075.3 1055.34,1082.12 1057.21,1088.3 1059.07,1093.85 1060.94,1098.81 1062.8,1103.21 1064.67,1107.07 1066.54,1110.41 1068.4,1113.25 1070.27,1115.63 1072.13,1117.55 1074,1119.03 1075.86,1120.09 1077.73,1120.75 1079.6,1121.01 1081.46,1120.89 1083.33,1120.39 1085.19,1119.54 1087.06,1118.33 1088.93,1116.77 1090.79,1114.88 1092.66,1112.65 1094.52,1110.09 1096.39,1107.2 1098.25,1103.99 1100.12,1100.46 1101.99,1096.62 1103.85,1092.45 1105.72,1087.98 1107.58,1083.19 1109.45,1078.08 1111.32,1072.67 1113.18,1066.94 1115.05,1060.89 1116.91,1054.53 1118.78,1047.85 1120.64,1040.85 1122.51,1033.54 1124.38,1025.89 1126.24,1017.92 1128.11,1009.62 1129.97,1000.99 1131.84,992.014 1133.71,982.703 1135.57,973.051 1137.44,963.058 1139.3,952.722 1141.17,942.042 1143.03,931.02 1144.9,919.655 1146.77,907.948 1148.63,895.899 1150.5,883.511 1152.36,870.786 1154.23,857.725 1156.1,844.332 1157.96,830.615 1159.83,816.612 1161.69,802.323 1163.56,787.747 1165.42,772.885 1167.29,757.745 1169.16,742.338 1171.02,726.682 1172.89,710.797 1174.75,694.71 1176.62,678.45 1178.49,662.055 1180.35,645.563 1182.22,629.02 1184.08,612.475 1185.95,595.982 1187.81,579.601 1189.68,563.394 1191.55,547.431 1193.41,531.785 1195.28,516.532 1197.14,501.757 1199.01,487.545 1200.88,473.99 1202.74,461.187 1204.61,449.238 1206.47,438.249 1208.34,428.314 1210.2,419.541 1212.07,412.087 1213.94,406.093 1215.8,401.683 1217.67,398.964 1219.53,398.028 1221.4,398.946 1223.27,401.775 1225.13,406.556 1227,413.309 1228.86,422.041 1230.73,432.74 1232.59,445.377 1234.46,459.908 1236.33,476.269 1238.19,494.389 1240.06,514.105 1241.92,535.208 1243.79,557.491 1245.66,580.753 1247.52,604.798 1249.39,629.433 1251.25,654.47 1253.12,679.726 1254.98,705.022 1256.85,730.183 1258.72,755.038 1260.58,779.422 1262.45,803.173 1264.31,826.136 1266.18,848.249 1268.05,869.488 1269.91,889.805 1271.78,909.165 1273.64,927.539 1275.51,944.907 1277.37,961.255 1279.24,976.579 1281.11,990.882 1282.97,1004.18 1284.84,1016.48 1286.7,1027.83 1288.57,1038.24 1290.44,1047.78 1292.3,1056.48 1294.17,1064.42 1296.03,1071.65 1297.9,1078.26 1299.76,1084.32 1301.63,1089.92 1303.5,1094.98 1305.36,1099.47 1307.23,1103.42 1309.09,1106.85 1310.96,1109.78 1312.83,1112.23 1314.69,1114.23 1316.56,1115.79 1318.42,1116.93 1320.29,1117.66 1322.15,1117.99 1324.02,1117.94 1325.89,1117.52 1327.75,1116.73 1329.62,1115.58 1331.48,1114.09 1333.35,1112.26 1335.22,1110.1 1337.08,1107.61 1338.95,1104.79 1340.81,1101.64 1342.68,1098.18 1344.54,1094.4 1346.41,1090.3 1348.28,1085.88 1350.14,1081.15 1352.01,1076.11 1353.87,1070.76 1355.74,1065.09 1357.61,1059.11 1359.47,1052.81 1361.34,1046.19 1363.2,1039.26 1365.07,1032.01 1366.93,1024.43 1368.8,1016.54 1370.67,1008.32 1372.53,999.767 1374.4,990.883 1376.26,981.662 1378.13,972.102 1380,962.203 1381.86,951.961 1383.73,941.378 1385.59,930.453 1387.46,919.188 1389.32,907.583 1391.19,895.641 1393.06,883.364 1394.92,870.755 1396.79,857.819 1398.65,844.56 1400.52,830.983 1402.39,817.094 1404.25,802.899 1406.12,788.416 1407.98,773.675 1409.85,758.68 1411.71,743.44 1413.58,727.968 1415.45,712.285 1417.31,696.412 1419.18,680.379 1421.04,664.218 1422.91,647.969 1424.78,631.673 1426.64,615.379 1428.51,599.139 1430.37,583.011 1432.24,567.058 1434.1,551.346 1435.97,535.948 1437.84,520.94 1439.7,506.405 1441.57,492.43 1443.43,479.105 1445.3,466.527 1447.17,454.798 1449.03,444.023 1450.9,434.313 1452.76,425.757 1454.63,418.471 1456.49,412.601 1458.36,408.275 1460.23,405.604 1462.09,404.68 1463.96,405.577 1465.82,408.351 1467.69,413.041 1469.56,419.667 1471.42,428.233 1473.29,438.721 1475.15,451.099 1477.02,465.316 1478.88,481.302 1480.75,498.97 1482.62,518.221 1484.48,538.863 1486.35,560.686 1488.21,583.486 1490.08,607.064 1491.95,631.229 1493.81,655.794 1495.68,680.578 1497.54,705.409 1499.41,730.119 1501.27,754.546 1503.14,778.534 1505.01,801.935 1506.87,824.605 1508.74,846.432 1510.6,867.393 1512.47,887.452 1514.34,906.58 1516.2,924.753 1518.07,941.955 1519.93,958.178 1521.8,973.42 1523.66,987.687 1525.53,1000.99 1527.4,1013.36 1529.26,1024.81 1531.13,1035.38 1532.99,1045.11 1534.86,1054.06 1536.73,1062.28 1538.59,1069.83 1540.46,1076.77 1542.32,1083.07 1544.19,1088.74 1546.05,1093.82 1547.92,1098.34 1549.79,1102.31 1551.65,1105.76 1553.52,1108.72 1555.38,1111.2 1557.25,1113.23 1559.12,1114.81 1560.98,1115.98 1562.85,1116.73 1564.71,1117.09 1566.58,1117.07 1568.44,1116.66 1570.31,1115.89 1572.18,1114.77 1574.04,1113.3 1575.91,1111.49 1577.77,1109.34 1579.64,1106.86 1581.51,1104.06 1583.37,1100.93 1585.24,1097.48 1587.1,1093.71 1588.97,1089.63 1590.83,1085.23 1592.7,1080.52 1594.57,1075.5 1596.43,1070.17 1598.3,1064.52 1600.16,1058.56 1602.03,1052.28 1603.9,1045.69 1605.76,1038.78 1607.63,1031.55 1609.49,1024 1611.36,1016.13 1613.22,1007.92 1615.09,999.384 1616.96,990.515 1618.82,981.311 1620.69,971.771 1622.55,961.893 1624.42,951.678 1626.29,941.125 1628.15,930.234 1630.02,919.005 1631.88,907.44 1633.75,895.539 1635.61,883.305 1637.48,870.738 1639.35,857.842 1641.21,844.62 1643.08,831.104 1644.94,817.302 1646.81,803.212 1648.68,788.833 1650.54,774.172 1652.41,759.236 1654.27,744.041 1656.14,728.605 1658,712.95 1659.87,697.102 1661.74,681.094 1663.6,664.961 1665.47,648.743 1667.33,632.485 1669.2,616.235 1671.07,600.047 1672.93,583.978 1674.8,568.091 1676.66,552.45 1678.53,537.128 1680.39,522.2 1682.26,507.744 1684.13,493.844 1685.99,480.589 1687.86,468.072 1689.72,456.387 1691.59,445.607 1693.46,435.866 1695.32,427.313 1697.19,420.082 1699.05,414.295 1700.92,410.059 1702.78,407.468 1704.65,406.601 1706.52,407.523 1708.38,410.288 1710.25,414.932 1712.11,421.48 1713.98,429.944 1715.85,440.318 1717.71,452.587 1719.58,466.719 1721.44,482.674 1723.31,500.324 1725.17,519.485 1727.04,539.971 1728.91,561.6 1730.77,584.19 1732.64,607.56 1734.5,631.531 1736.37,655.925 1738.24,680.565 1740.1,705.276 1741.97,729.884 1743.83,754.216 1745.7,778.101 1747.56,801.369 1749.43,823.896 1751.3,845.659 1753.16,866.599 1755.03,886.663 1756.89,905.807 1758.76,923.998 1760.63,941.21 1762.49,957.427 1764.36,972.642 1766.22,986.857 1768.09,1000.08 1769.95,1012.34 1771.82,1023.66 1773.69,1034.08 1775.55,1043.65 1777.42,1052.42 1779.28,1060.47 1781.15,1067.86 1783.02,1074.68 1784.88,1080.97 1786.75,1086.65 1788.61,1091.73 1790.48,1096.25 1792.34,1100.23 1794.21,1103.69 1796.08,1106.65 1797.94,1109.14 1799.81,1111.18 1801.67,1112.77 1803.54,1113.94 1805.41,1114.71 1807.27,1115.07 1809.14,1115.06 1811,1114.66 1812.87,1113.9 1814.73,1112.79 1816.6,1111.33 1818.47,1109.53 1820.33,1107.39 1822.2,1104.93 1824.06,1102.13 1825.93,1099.02 1827.8,1095.58 1829.66,1091.82 1831.53,1087.75 1833.39,1083.36 1835.26,1078.66 1837.12,1073.65 1838.99,1068.32 1840.86,1062.69 1842.72,1056.73 1844.59,1050.47 1846.45,1043.89 1848.32,1036.99 1850.19,1029.78 1852.05,1022.24 1853.92,1014.39 1855.78,1006.2 1857.65,997.692 1859.51,988.847 1861.38,979.669 1863.25,970.155 1865.11,960.305 1866.98,950.119 1868.84,939.596 1870.71,928.736 1872.58,917.542 1874.44,906.013 1876.31,894.152 1878.17,881.962 1880.04,869.444 1881.9,856.603 1883.77,843.442 1885.64,829.965 1887.5,816.191 1889.37,802.146 1891.23,787.83 1893.1,773.246 1894.97,758.401 1896.83,743.309 1898.7,727.986 1900.56,712.454 1902.43,696.739 1904.29,680.871 1906.16,664.885 1908.03,648.821 1909.89,632.723 1911.76,616.639 1913.62,600.622 1915.49,584.73 1917.36,569.025 1919.22,553.573 1921.09,538.445 1922.95,523.717 1924.82,509.469 1926.68,495.786 1928.55,482.756 1930.42,470.473 1932.28,459.035 1934.15,448.539 1936.01,439.062 1937.88,430.748 1939.75,423.736 1941.61,418.152 1943.48,414.107 1945.34,411.697 1947.21,411.001 1949.07,412.084 1950.94,414.996 1952.81,419.772 1954.67,426.43 1956.54,434.976 1958.4,445.398 1960.27,457.669 1962.14,471.749 1964,487.582 1965.87,505.092 1967.73,524.104 1969.6,544.427 1971.46,565.874 1973.33,588.257 1975.2,611.396 1977.06,635.111 1978.93,659.227 1980.79,683.569 1982.66,707.969 1984.53,732.259 1986.39,756.277 1988.26,779.862 1990.12,802.856 1991.99,825.118 1993.85,846.635 1995.72,867.365 1997.59,887.246 1999.45,906.228 2001.32,924.269 2003.18,941.337 2005.05,957.406 2006.92,972.462 2008.78,986.499 2010.65,999.521 2012.51,1011.54 2014.38,1022.57 2016.24,1032.66 2018.11,1041.83 2019.98,1050.13 2021.84,1057.63 2023.71,1064.39 2025.57,1070.48 2027.44,1075.99 2029.31,1081.01 2031.17,1085.65 2033.04,1090 2034.9,1093.92 2036.77,1097.32 2038.63,1100.24 2040.5,1102.68 2042.37,1104.68 2044.23,1106.23 2046.1,1107.37 2047.96,1108.1 2049.83,1108.43 2051.7,1108.39 2053.56,1107.97 2055.43,1107.19 2057.29,1106.05 2059.16,1104.57 2061.02,1102.75 2062.89,1100.59 2064.76,1098.1 "/>
<path clip-path="url(#clip950)" d="M1518.29 311.335 L2002.56 311.335 L2002.56 155.815 L1518.29 155.815  Z" fill="#ffffff" fill-rule="evenodd" fill-opacity="1"/>
<polyline clip-path="url(#clip950)" style="stroke:#000000; stroke-linecap:round; stroke-linejoin:round; stroke-width:4; stroke-opacity:1; fill:none" points="1518.29,311.335 2002.56,311.335 2002.56,155.815 1518.29,155.815 1518.29,311.335 "/>
<polyline clip-path="url(#clip950)" style="stroke:#009af9; stroke-linecap:round; stroke-linejoin:round; stroke-width:4; stroke-opacity:1; fill:none" points="1539.03,207.655 1663.41,207.655 "/>
<path clip-path="url(#clip950)" d="M1688.82 194.217 L1688.82 207.203 L1694.7 207.203 Q1697.97 207.203 1699.75 205.513 Q1701.53 203.824 1701.53 200.699 Q1701.53 197.597 1699.75 195.907 Q1697.97 194.217 1694.7 194.217 L1688.82 194.217 M1684.15 190.375 L1694.7 190.375 Q1700.51 190.375 1703.48 193.014 Q1706.46 195.629 1706.46 200.699 Q1706.46 205.814 1703.48 208.43 Q1700.51 211.046 1694.7 211.046 L1688.82 211.046 L1688.82 224.935 L1684.15 224.935 L1684.15 190.375 Z" fill="#000000" fill-rule="nonzero" fill-opacity="1" /><path clip-path="url(#clip950)" d="M1726.74 202.99 Q1726.02 202.574 1725.16 202.388 Q1724.33 202.18 1723.31 202.18 Q1719.7 202.18 1717.76 204.541 Q1715.84 206.879 1715.84 211.277 L1715.84 224.935 L1711.55 224.935 L1711.55 199.009 L1715.84 199.009 L1715.84 203.037 Q1717.18 200.675 1719.33 199.541 Q1721.48 198.384 1724.56 198.384 Q1725 198.384 1725.54 198.453 Q1726.07 198.5 1726.72 198.615 L1726.74 202.99 Z" fill="#000000" fill-rule="nonzero" fill-opacity="1" /><path clip-path="url(#clip950)" d="M1752.34 210.907 L1752.34 212.99 L1732.76 212.99 Q1733.04 217.388 1735.4 219.703 Q1737.78 221.995 1742.02 221.995 Q1744.47 221.995 1746.76 221.393 Q1749.08 220.791 1751.35 219.587 L1751.35 223.615 Q1749.05 224.587 1746.65 225.097 Q1744.24 225.606 1741.76 225.606 Q1735.56 225.606 1731.92 221.995 Q1728.31 218.384 1728.31 212.226 Q1728.31 205.861 1731.74 202.134 Q1735.19 198.384 1741.02 198.384 Q1746.25 198.384 1749.28 201.763 Q1752.34 205.12 1752.34 210.907 M1748.08 209.657 Q1748.03 206.162 1746.11 204.078 Q1744.22 201.995 1741.07 201.995 Q1737.5 201.995 1735.35 204.009 Q1733.22 206.023 1732.9 209.68 L1748.08 209.657 Z" fill="#000000" fill-rule="nonzero" fill-opacity="1" /><path clip-path="url(#clip950)" d="M1776.39 202.944 L1776.39 188.916 L1780.65 188.916 L1780.65 224.935 L1776.39 224.935 L1776.39 221.046 Q1775.05 223.361 1772.99 224.495 Q1770.95 225.606 1768.08 225.606 Q1763.38 225.606 1760.42 221.856 Q1757.48 218.106 1757.48 211.995 Q1757.48 205.884 1760.42 202.134 Q1763.38 198.384 1768.08 198.384 Q1770.95 198.384 1772.99 199.518 Q1775.05 200.629 1776.39 202.944 M1761.88 211.995 Q1761.88 216.694 1763.8 219.379 Q1765.74 222.041 1769.12 222.041 Q1772.5 222.041 1774.45 219.379 Q1776.39 216.694 1776.39 211.995 Q1776.39 207.296 1774.45 204.634 Q1772.5 201.949 1769.12 201.949 Q1765.74 201.949 1763.8 204.634 Q1761.88 207.296 1761.88 211.995 Z" fill="#000000" fill-rule="nonzero" fill-opacity="1" /><path clip-path="url(#clip950)" d="M1801.21 211.902 Q1796.04 211.902 1794.05 213.083 Q1792.06 214.263 1792.06 217.111 Q1792.06 219.379 1793.54 220.722 Q1795.05 222.041 1797.62 222.041 Q1801.16 222.041 1803.29 219.541 Q1805.44 217.018 1805.44 212.851 L1805.44 211.902 L1801.21 211.902 M1809.7 210.143 L1809.7 224.935 L1805.44 224.935 L1805.44 220.999 Q1803.98 223.361 1801.81 224.495 Q1799.63 225.606 1796.48 225.606 Q1792.5 225.606 1790.14 223.384 Q1787.8 221.138 1787.8 217.388 Q1787.8 213.013 1790.72 210.791 Q1793.66 208.569 1799.47 208.569 L1805.44 208.569 L1805.44 208.152 Q1805.44 205.213 1803.5 203.615 Q1801.58 201.995 1798.08 201.995 Q1795.86 201.995 1793.75 202.527 Q1791.65 203.06 1789.7 204.125 L1789.7 200.189 Q1792.04 199.287 1794.24 198.847 Q1796.44 198.384 1798.52 198.384 Q1804.15 198.384 1806.92 201.3 Q1809.7 204.217 1809.7 210.143 Z" fill="#000000" fill-rule="nonzero" fill-opacity="1" /><path clip-path="url(#clip950)" d="M1822.69 191.648 L1822.69 199.009 L1831.46 199.009 L1831.46 202.319 L1822.69 202.319 L1822.69 216.393 Q1822.69 219.564 1823.54 220.467 Q1824.42 221.37 1827.09 221.37 L1831.46 221.37 L1831.46 224.935 L1827.09 224.935 Q1822.15 224.935 1820.28 223.106 Q1818.4 221.254 1818.4 216.393 L1818.4 202.319 L1815.28 202.319 L1815.28 199.009 L1818.4 199.009 L1818.4 191.648 L1822.69 191.648 Z" fill="#000000" fill-rule="nonzero" fill-opacity="1" /><path clip-path="url(#clip950)" d="M1847.11 201.995 Q1843.68 201.995 1841.69 204.68 Q1839.7 207.342 1839.7 211.995 Q1839.7 216.648 1841.67 219.333 Q1843.66 221.995 1847.11 221.995 Q1850.51 221.995 1852.5 219.31 Q1854.49 216.624 1854.49 211.995 Q1854.49 207.388 1852.5 204.703 Q1850.51 201.995 1847.11 201.995 M1847.11 198.384 Q1852.66 198.384 1855.84 201.995 Q1859.01 205.606 1859.01 211.995 Q1859.01 218.361 1855.84 221.995 Q1852.66 225.606 1847.11 225.606 Q1841.53 225.606 1838.36 221.995 Q1835.21 218.361 1835.21 211.995 Q1835.21 205.606 1838.36 201.995 Q1841.53 198.384 1847.11 198.384 Z" fill="#000000" fill-rule="nonzero" fill-opacity="1" /><path clip-path="url(#clip950)" d="M1881.09 202.99 Q1880.37 202.574 1879.52 202.388 Q1878.68 202.18 1877.66 202.18 Q1874.05 202.18 1872.11 204.541 Q1870.19 206.879 1870.19 211.277 L1870.19 224.935 L1865.9 224.935 L1865.9 199.009 L1870.19 199.009 L1870.19 203.037 Q1871.53 200.675 1873.68 199.541 Q1875.84 198.384 1878.91 198.384 Q1879.35 198.384 1879.89 198.453 Q1880.42 198.5 1881.07 198.615 L1881.09 202.99 Z" fill="#000000" fill-rule="nonzero" fill-opacity="1" /><path clip-path="url(#clip950)" d="M1902.09 199.773 L1902.09 203.8 Q1900.28 202.875 1898.34 202.412 Q1896.39 201.949 1894.31 201.949 Q1891.14 201.949 1889.54 202.921 Q1887.96 203.893 1887.96 205.838 Q1887.96 207.319 1889.1 208.175 Q1890.23 209.009 1893.66 209.773 L1895.12 210.097 Q1899.65 211.069 1901.55 212.851 Q1903.47 214.611 1903.47 217.782 Q1903.47 221.393 1900.6 223.499 Q1897.76 225.606 1892.76 225.606 Q1890.67 225.606 1888.4 225.189 Q1886.16 224.796 1883.66 223.986 L1883.66 219.587 Q1886.02 220.814 1888.31 221.439 Q1890.6 222.041 1892.85 222.041 Q1895.86 222.041 1897.48 221.023 Q1899.1 219.981 1899.1 218.106 Q1899.1 216.37 1897.92 215.444 Q1896.76 214.518 1892.8 213.662 L1891.32 213.314 Q1887.36 212.481 1885.6 210.768 Q1883.84 209.032 1883.84 206.023 Q1883.84 202.365 1886.44 200.375 Q1889.03 198.384 1893.8 198.384 Q1896.16 198.384 1898.24 198.731 Q1900.33 199.078 1902.09 199.773 Z" fill="#000000" fill-rule="nonzero" fill-opacity="1" /><path clip-path="url(#clip950)" d="M1935.56 188.963 Q1932.46 194.287 1930.95 199.495 Q1929.45 204.703 1929.45 210.05 Q1929.45 215.398 1930.95 220.652 Q1932.48 225.884 1935.56 231.185 L1931.85 231.185 Q1928.38 225.745 1926.65 220.49 Q1924.93 215.236 1924.93 210.05 Q1924.93 204.888 1926.65 199.657 Q1928.36 194.426 1931.85 188.963 L1935.56 188.963 Z" fill="#000000" fill-rule="nonzero" fill-opacity="1" /><path clip-path="url(#clip950)" d="M1965.37 199.009 L1956 211.625 L1965.86 224.935 L1960.83 224.935 L1953.29 214.749 L1945.74 224.935 L1940.72 224.935 L1950.79 211.37 L1941.58 199.009 L1946.6 199.009 L1953.47 208.245 L1960.35 199.009 L1965.37 199.009 Z" fill="#000000" fill-rule="nonzero" fill-opacity="1" /><path clip-path="url(#clip950)" d="M1971.21 188.963 L1974.91 188.963 Q1978.38 194.426 1980.09 199.657 Q1981.83 204.888 1981.83 210.05 Q1981.83 215.236 1980.09 220.49 Q1978.38 225.745 1974.91 231.185 L1971.21 231.185 Q1974.28 225.884 1975.79 220.652 Q1977.32 215.398 1977.32 210.05 Q1977.32 204.703 1975.79 199.495 Q1974.28 194.287 1971.21 188.963 Z" fill="#000000" fill-rule="nonzero" fill-opacity="1" /><polyline clip-path="url(#clip950)" style="stroke:#e26f46; stroke-linecap:round; stroke-linejoin:round; stroke-width:8; stroke-opacity:1; fill:none" points="1539.03,259.495 1663.41,259.495 "/>
<path clip-path="url(#clip950)" d="M1688.82 246.057 L1688.82 259.043 L1694.7 259.043 Q1697.97 259.043 1699.75 257.353 Q1701.53 255.664 1701.53 252.539 Q1701.53 249.437 1699.75 247.747 Q1697.97 246.057 1694.7 246.057 L1688.82 246.057 M1684.15 242.215 L1694.7 242.215 Q1700.51 242.215 1703.48 244.854 Q1706.46 247.469 1706.46 252.539 Q1706.46 257.654 1703.48 260.27 Q1700.51 262.886 1694.7 262.886 L1688.82 262.886 L1688.82 276.775 L1684.15 276.775 L1684.15 242.215 Z" fill="#000000" fill-rule="nonzero" fill-opacity="1" /><path clip-path="url(#clip950)" d="M1726.74 254.83 Q1726.02 254.414 1725.16 254.228 Q1724.33 254.02 1723.31 254.02 Q1719.7 254.02 1717.76 256.381 Q1715.84 258.719 1715.84 263.117 L1715.84 276.775 L1711.55 276.775 L1711.55 250.849 L1715.84 250.849 L1715.84 254.877 Q1717.18 252.515 1719.33 251.381 Q1721.48 250.224 1724.56 250.224 Q1725 250.224 1725.54 250.293 Q1726.07 250.34 1726.72 250.455 L1726.74 254.83 Z" fill="#000000" fill-rule="nonzero" fill-opacity="1" /><path clip-path="url(#clip950)" d="M1752.34 262.747 L1752.34 264.83 L1732.76 264.83 Q1733.04 269.228 1735.4 271.543 Q1737.78 273.835 1742.02 273.835 Q1744.47 273.835 1746.76 273.233 Q1749.08 272.631 1751.35 271.427 L1751.35 275.455 Q1749.05 276.427 1746.65 276.937 Q1744.24 277.446 1741.76 277.446 Q1735.56 277.446 1731.92 273.835 Q1728.31 270.224 1728.31 264.066 Q1728.31 257.701 1731.74 253.974 Q1735.19 250.224 1741.02 250.224 Q1746.25 250.224 1749.28 253.603 Q1752.34 256.96 1752.34 262.747 M1748.08 261.497 Q1748.03 258.002 1746.11 255.918 Q1744.22 253.835 1741.07 253.835 Q1737.5 253.835 1735.35 255.849 Q1733.22 257.863 1732.9 261.52 L1748.08 261.497 Z" fill="#000000" fill-rule="nonzero" fill-opacity="1" /><path clip-path="url(#clip950)" d="M1770.12 279.182 Q1768.31 283.812 1766.6 285.224 Q1764.89 286.636 1762.02 286.636 L1758.61 286.636 L1758.61 283.071 L1761.11 283.071 Q1762.87 283.071 1763.85 282.238 Q1764.82 281.404 1766 278.302 L1766.76 276.358 L1756.28 250.849 L1760.79 250.849 L1768.89 271.127 L1776.99 250.849 L1781.51 250.849 L1770.12 279.182 Z" fill="#000000" fill-rule="nonzero" fill-opacity="1" /><path clip-path="url(#clip950)" d="M1812.69 240.803 Q1809.59 246.127 1808.08 251.335 Q1806.58 256.543 1806.58 261.89 Q1806.58 267.238 1808.08 272.492 Q1809.61 277.724 1812.69 283.025 L1808.98 283.025 Q1805.51 277.585 1803.78 272.33 Q1802.06 267.076 1802.06 261.89 Q1802.06 256.728 1803.78 251.497 Q1805.49 246.266 1808.98 240.803 L1812.69 240.803 Z" fill="#000000" fill-rule="nonzero" fill-opacity="1" /><path clip-path="url(#clip950)" d="M1831.74 279.182 Q1829.93 283.812 1828.22 285.224 Q1826.51 286.636 1823.64 286.636 L1820.23 286.636 L1820.23 283.071 L1822.73 283.071 Q1824.49 283.071 1825.47 282.238 Q1826.44 281.404 1827.62 278.302 L1828.38 276.358 L1817.9 250.849 L1822.41 250.849 L1830.51 271.127 L1838.61 250.849 L1843.13 250.849 L1831.74 279.182 Z" fill="#000000" fill-rule="nonzero" fill-opacity="1" /><path clip-path="url(#clip950)" d="M1848.34 240.803 L1852.04 240.803 Q1855.51 246.266 1857.22 251.497 Q1858.96 256.728 1858.96 261.89 Q1858.96 267.076 1857.22 272.33 Q1855.51 277.585 1852.04 283.025 L1848.34 283.025 Q1851.41 277.724 1852.92 272.492 Q1854.45 267.238 1854.45 261.89 Q1854.45 256.543 1852.92 251.335 Q1851.41 246.127 1848.34 240.803 Z" fill="#000000" fill-rule="nonzero" fill-opacity="1" /></svg>
