<?xml version="1.0" encoding="utf-8"?>
<svg xmlns="http://www.w3.org/2000/svg" xmlns:xlink="http://www.w3.org/1999/xlink" width="528" height="336" viewBox="0 0 2112 1344">
<defs>
  <clipPath id="clip920">
    <rect x="0" y="0" width="2112" height="1344"/>
  </clipPath>
</defs>
<path clip-path="url(#clip920)" d="M0 1344 L2112 1344 L2112 0 L0 0  Z" fill="#ffffff" fill-rule="evenodd" fill-opacity="1"/>
<defs>
  <clipPath id="clip921">
    <rect x="214" y="120" width="1851" height="1054"/>
  </clipPath>
</defs>
<path clip-path="url(#clip920)" d="M251.169 1173.47 L2064.76 1173.47 L2064.76 120.723 L251.169 120.723  Z" fill="#ffffff" fill-rule="evenodd" fill-opacity="1"/>
<defs>
  <clipPath id="clip922">
    <rect x="251" y="120" width="1815" height="1054"/>
  </clipPath>
</defs>
<polyline clip-path="url(#clip922)" style="stroke:#000000; stroke-linecap:round; stroke-linejoin:round; stroke-width:2; stroke-opacity:0.1; fill:none" points="366.174,1173.47 366.174,120.723 "/>
<polyline clip-path="url(#clip922)" style="stroke:#000000; stroke-linecap:round; stroke-linejoin:round; stroke-width:2; stroke-opacity:0.1; fill:none" points="695.174,1173.47 695.174,120.723 "/>
<polyline clip-path="url(#clip922)" style="stroke:#000000; stroke-linecap:round; stroke-linejoin:round; stroke-width:2; stroke-opacity:0.1; fill:none" points="1024.17,1173.47 1024.17,120.723 "/>
<polyline clip-path="url(#clip922)" style="stroke:#000000; stroke-linecap:round; stroke-linejoin:round; stroke-width:2; stroke-opacity:0.1; fill:none" points="1353.17,1173.47 1353.17,120.723 "/>
<polyline clip-path="url(#clip922)" style="stroke:#000000; stroke-linecap:round; stroke-linejoin:round; stroke-width:2; stroke-opacity:0.1; fill:none" points="1682.17,1173.47 1682.17,120.723 "/>
<polyline clip-path="url(#clip922)" style="stroke:#000000; stroke-linecap:round; stroke-linejoin:round; stroke-width:2; stroke-opacity:0.1; fill:none" points="2011.17,1173.47 2011.17,120.723 "/>
<polyline clip-path="url(#clip922)" style="stroke:#000000; stroke-linecap:round; stroke-linejoin:round; stroke-width:2; stroke-opacity:0.1; fill:none" points="251.169,1141.72 2064.76,1141.72 "/>
<polyline clip-path="url(#clip922)" style="stroke:#000000; stroke-linecap:round; stroke-linejoin:round; stroke-width:2; stroke-opacity:0.1; fill:none" points="251.169,977.224 2064.76,977.224 "/>
<polyline clip-path="url(#clip922)" style="stroke:#000000; stroke-linecap:round; stroke-linejoin:round; stroke-width:2; stroke-opacity:0.1; fill:none" points="251.169,812.724 2064.76,812.724 "/>
<polyline clip-path="url(#clip922)" style="stroke:#000000; stroke-linecap:round; stroke-linejoin:round; stroke-width:2; stroke-opacity:0.1; fill:none" points="251.169,648.224 2064.76,648.224 "/>
<polyline clip-path="url(#clip922)" style="stroke:#000000; stroke-linecap:round; stroke-linejoin:round; stroke-width:2; stroke-opacity:0.1; fill:none" points="251.169,483.724 2064.76,483.724 "/>
<polyline clip-path="url(#clip922)" style="stroke:#000000; stroke-linecap:round; stroke-linejoin:round; stroke-width:2; stroke-opacity:0.1; fill:none" points="251.169,319.224 2064.76,319.224 "/>
<polyline clip-path="url(#clip922)" style="stroke:#000000; stroke-linecap:round; stroke-linejoin:round; stroke-width:2; stroke-opacity:0.1; fill:none" points="251.169,154.725 2064.76,154.725 "/>
<polyline clip-path="url(#clip920)" style="stroke:#000000; stroke-linecap:round; stroke-linejoin:round; stroke-width:4; stroke-opacity:1; fill:none" points="251.169,1173.47 2064.76,1173.47 "/>
<polyline clip-path="url(#clip920)" style="stroke:#000000; stroke-linecap:round; stroke-linejoin:round; stroke-width:4; stroke-opacity:1; fill:none" points="366.174,1173.47 366.174,1154.57 "/>
<polyline clip-path="url(#clip920)" style="stroke:#000000; stroke-linecap:round; stroke-linejoin:round; stroke-width:4; stroke-opacity:1; fill:none" points="695.174,1173.47 695.174,1154.57 "/>
<polyline clip-path="url(#clip920)" style="stroke:#000000; stroke-linecap:round; stroke-linejoin:round; stroke-width:4; stroke-opacity:1; fill:none" points="1024.17,1173.47 1024.17,1154.57 "/>
<polyline clip-path="url(#clip920)" style="stroke:#000000; stroke-linecap:round; stroke-linejoin:round; stroke-width:4; stroke-opacity:1; fill:none" points="1353.17,1173.47 1353.17,1154.57 "/>
<polyline clip-path="url(#clip920)" style="stroke:#000000; stroke-linecap:round; stroke-linejoin:round; stroke-width:4; stroke-opacity:1; fill:none" points="1682.17,1173.47 1682.17,1154.57 "/>
<polyline clip-path="url(#clip920)" style="stroke:#000000; stroke-linecap:round; stroke-linejoin:round; stroke-width:4; stroke-opacity:1; fill:none" points="2011.17,1173.47 2011.17,1154.57 "/>
<path clip-path="url(#clip920)" d="M335.642 1216.74 L365.318 1216.74 L365.318 1220.67 L335.642 1220.67 L335.642 1216.74 Z" fill="#000000" fill-rule="nonzero" fill-opacity="1" /><path clip-path="url(#clip920)" d="M389.577 1214.93 Q392.933 1215.65 394.808 1217.92 Q396.706 1220.19 396.706 1223.52 Q396.706 1228.64 393.188 1231.44 Q389.669 1234.24 383.188 1234.24 Q381.012 1234.24 378.697 1233.8 Q376.405 1233.38 373.952 1232.53 L373.952 1228.01 Q375.896 1229.15 378.211 1229.72 Q380.526 1230.3 383.049 1230.3 Q387.447 1230.3 389.739 1228.57 Q392.053 1226.83 392.053 1223.52 Q392.053 1220.46 389.901 1218.75 Q387.771 1217.02 383.952 1217.02 L379.924 1217.02 L379.924 1213.17 L384.137 1213.17 Q387.586 1213.17 389.415 1211.81 Q391.243 1210.42 391.243 1207.83 Q391.243 1205.16 389.345 1203.75 Q387.47 1202.32 383.952 1202.32 Q382.03 1202.32 379.831 1202.73 Q377.632 1203.15 374.993 1204.03 L374.993 1199.86 Q377.655 1199.12 379.97 1198.75 Q382.308 1198.38 384.368 1198.38 Q389.692 1198.38 392.794 1200.81 Q395.896 1203.22 395.896 1207.34 Q395.896 1210.21 394.253 1212.2 Q392.609 1214.17 389.577 1214.93 Z" fill="#000000" fill-rule="nonzero" fill-opacity="1" /><path clip-path="url(#clip920)" d="M665.116 1216.74 L694.792 1216.74 L694.792 1220.67 L665.116 1220.67 L665.116 1216.74 Z" fill="#000000" fill-rule="nonzero" fill-opacity="1" /><path clip-path="url(#clip920)" d="M708.912 1229.63 L725.232 1229.63 L725.232 1233.57 L703.287 1233.57 L703.287 1229.63 Q705.949 1226.88 710.533 1222.25 Q715.139 1217.59 716.32 1216.25 Q718.565 1213.73 719.445 1211.99 Q720.347 1210.23 720.347 1208.54 Q720.347 1205.79 718.403 1204.05 Q716.482 1202.32 713.38 1202.32 Q711.181 1202.32 708.727 1203.08 Q706.296 1203.84 703.519 1205.4 L703.519 1200.67 Q706.343 1199.54 708.796 1198.96 Q711.25 1198.38 713.287 1198.38 Q718.658 1198.38 721.852 1201.07 Q725.046 1203.75 725.046 1208.24 Q725.046 1210.37 724.236 1212.29 Q723.449 1214.19 721.343 1216.78 Q720.764 1217.46 717.662 1220.67 Q714.56 1223.87 708.912 1229.63 Z" fill="#000000" fill-rule="nonzero" fill-opacity="1" /><path clip-path="url(#clip920)" d="M993.931 1216.74 L1023.61 1216.74 L1023.61 1220.67 L993.931 1220.67 L993.931 1216.74 Z" fill="#000000" fill-rule="nonzero" fill-opacity="1" /><path clip-path="url(#clip920)" d="M1034.51 1229.63 L1042.15 1229.63 L1042.15 1203.27 L1033.84 1204.93 L1033.84 1200.67 L1042.1 1199.01 L1046.78 1199.01 L1046.78 1229.63 L1054.42 1229.63 L1054.42 1233.57 L1034.51 1233.57 L1034.51 1229.63 Z" fill="#000000" fill-rule="nonzero" fill-opacity="1" /><path clip-path="url(#clip920)" d="M1353.17 1202.09 Q1349.56 1202.09 1347.73 1205.65 Q1345.93 1209.19 1345.93 1216.32 Q1345.93 1223.43 1347.73 1226.99 Q1349.56 1230.53 1353.17 1230.53 Q1356.81 1230.53 1358.61 1226.99 Q1360.44 1223.43 1360.44 1216.32 Q1360.44 1209.19 1358.61 1205.65 Q1356.81 1202.09 1353.17 1202.09 M1353.17 1198.38 Q1358.98 1198.38 1362.04 1202.99 Q1365.12 1207.57 1365.12 1216.32 Q1365.12 1225.05 1362.04 1229.65 Q1358.98 1234.24 1353.17 1234.24 Q1347.36 1234.24 1344.28 1229.65 Q1341.23 1225.05 1341.23 1216.32 Q1341.23 1207.57 1344.28 1202.99 Q1347.36 1198.38 1353.17 1198.38 Z" fill="#000000" fill-rule="nonzero" fill-opacity="1" /><path clip-path="url(#clip920)" d="M1672.56 1229.63 L1680.19 1229.63 L1680.19 1203.27 L1671.88 1204.93 L1671.88 1200.67 L1680.15 1199.01 L1684.82 1199.01 L1684.82 1229.63 L1692.46 1229.63 L1692.46 1233.57 L1672.56 1233.57 L1672.56 1229.63 Z" fill="#000000" fill-rule="nonzero" fill-opacity="1" /><path clip-path="url(#clip920)" d="M2005.83 1229.63 L2022.15 1229.63 L2022.15 1233.57 L2000.2 1233.57 L2000.2 1229.63 Q2002.86 1226.88 2007.45 1222.25 Q2012.05 1217.59 2013.23 1216.25 Q2015.48 1213.73 2016.36 1211.99 Q2017.26 1210.23 2017.26 1208.54 Q2017.26 1205.79 2015.32 1204.05 Q2013.4 1202.32 2010.29 1202.32 Q2008.09 1202.32 2005.64 1203.08 Q2003.21 1203.84 2000.43 1205.4 L2000.43 1200.67 Q2003.26 1199.54 2005.71 1198.96 Q2008.16 1198.38 2010.2 1198.38 Q2015.57 1198.38 2018.77 1201.07 Q2021.96 1203.75 2021.96 1208.24 Q2021.96 1210.37 2021.15 1212.29 Q2020.36 1214.19 2018.26 1216.78 Q2017.68 1217.46 2014.58 1220.67 Q2011.47 1223.87 2005.83 1229.63 Z" fill="#000000" fill-rule="nonzero" fill-opacity="1" /><path clip-path="url(#clip920)" d="M1111.48 1278.37 L1098.59 1295.71 L1112.15 1314.01 L1105.24 1314.01 L1094.86 1300.01 L1084.49 1314.01 L1077.58 1314.01 L1091.42 1295.36 L1078.76 1278.37 L1085.66 1278.37 L1095.12 1291.07 L1104.57 1278.37 L1111.48 1278.37 Z" fill="#000000" fill-rule="nonzero" fill-opacity="1" /><path clip-path="url(#clip920)" d="M1121.92 1305.93 L1128.63 1305.93 L1128.63 1311.4 L1123.41 1321.59 L1119.31 1321.59 L1121.92 1311.4 L1121.92 1305.93 Z" fill="#000000" fill-rule="nonzero" fill-opacity="1" /><path clip-path="url(#clip920)" d="M1161.64 1278.37 L1167.46 1278.37 L1167.46 1295.11 L1183.98 1278.37 L1191.18 1278.37 L1177.55 1292.15 L1192.93 1314.01 L1186.37 1314.01 L1173.73 1296.03 L1167.46 1302.4 L1167.46 1314.01 L1161.64 1314.01 L1161.64 1278.37 Z" fill="#000000" fill-rule="nonzero" fill-opacity="1" /><path clip-path="url(#clip920)" d="M1201.01 1278.37 L1209.57 1278.37 L1219.69 1302.24 L1229.85 1278.37 L1238.35 1278.37 L1238.35 1314.01 L1232.46 1314.01 L1232.46 1283.97 L1222.62 1307.17 L1216.77 1307.17 L1206.9 1283.97 L1206.9 1314.01 L1201.01 1314.01 L1201.01 1278.37 Z" fill="#000000" fill-rule="nonzero" fill-opacity="1" /><polyline clip-path="url(#clip920)" style="stroke:#000000; stroke-linecap:round; stroke-linejoin:round; stroke-width:4; stroke-opacity:1; fill:none" points="251.169,1173.47 251.169,120.723 "/>
<polyline clip-path="url(#clip920)" style="stroke:#000000; stroke-linecap:round; stroke-linejoin:round; stroke-width:4; stroke-opacity:1; fill:none" points="251.169,1141.72 270.066,1141.72 "/>
<polyline clip-path="url(#clip920)" style="stroke:#000000; stroke-linecap:round; stroke-linejoin:round; stroke-width:4; stroke-opacity:1; fill:none" points="251.169,977.224 270.066,977.224 "/>
<polyline clip-path="url(#clip920)" style="stroke:#000000; stroke-linecap:round; stroke-linejoin:round; stroke-width:4; stroke-opacity:1; fill:none" points="251.169,812.724 270.066,812.724 "/>
<polyline clip-path="url(#clip920)" style="stroke:#000000; stroke-linecap:round; stroke-linejoin:round; stroke-width:4; stroke-opacity:1; fill:none" points="251.169,648.224 270.066,648.224 "/>
<polyline clip-path="url(#clip920)" style="stroke:#000000; stroke-linecap:round; stroke-linejoin:round; stroke-width:4; stroke-opacity:1; fill:none" points="251.169,483.724 270.066,483.724 "/>
<polyline clip-path="url(#clip920)" style="stroke:#000000; stroke-linecap:round; stroke-linejoin:round; stroke-width:4; stroke-opacity:1; fill:none" points="251.169,319.224 270.066,319.224 "/>
<polyline clip-path="url(#clip920)" style="stroke:#000000; stroke-linecap:round; stroke-linejoin:round; stroke-width:4; stroke-opacity:1; fill:none" points="251.169,154.725 270.066,154.725 "/>
<path clip-path="url(#clip920)" d="M113.54 1142.18 L143.216 1142.18 L143.216 1146.11 L113.54 1146.11 L113.54 1142.18 Z" fill="#000000" fill-rule="nonzero" fill-opacity="1" /><path clip-path="url(#clip920)" d="M163.308 1127.52 Q159.697 1127.52 157.869 1131.09 Q156.063 1134.63 156.063 1141.76 Q156.063 1148.87 157.869 1152.43 Q159.697 1155.97 163.308 1155.97 Q166.943 1155.97 168.748 1152.43 Q170.577 1148.87 170.577 1141.76 Q170.577 1134.63 168.748 1131.09 Q166.943 1127.52 163.308 1127.52 M163.308 1123.82 Q169.119 1123.82 172.174 1128.43 Q175.253 1133.01 175.253 1141.76 Q175.253 1150.49 172.174 1155.09 Q169.119 1159.68 163.308 1159.68 Q157.498 1159.68 154.42 1155.09 Q151.364 1150.49 151.364 1141.76 Q151.364 1133.01 154.42 1128.43 Q157.498 1123.82 163.308 1123.82 Z" fill="#000000" fill-rule="nonzero" fill-opacity="1" /><path clip-path="url(#clip920)" d="M183.47 1153.12 L188.355 1153.12 L188.355 1159 L183.47 1159 L183.47 1153.12 Z" fill="#000000" fill-rule="nonzero" fill-opacity="1" /><path clip-path="url(#clip920)" d="M198.586 1124.44 L216.942 1124.44 L216.942 1128.38 L202.868 1128.38 L202.868 1136.85 Q203.887 1136.5 204.905 1136.34 Q205.924 1136.16 206.942 1136.16 Q212.729 1136.16 216.109 1139.33 Q219.489 1142.5 219.489 1147.92 Q219.489 1153.49 216.016 1156.6 Q212.544 1159.68 206.225 1159.68 Q204.049 1159.68 201.78 1159.3 Q199.535 1158.93 197.128 1158.19 L197.128 1153.49 Q199.211 1154.63 201.433 1155.18 Q203.655 1155.74 206.132 1155.74 Q210.137 1155.74 212.475 1153.63 Q214.813 1151.53 214.813 1147.92 Q214.813 1144.31 212.475 1142.2 Q210.137 1140.09 206.132 1140.09 Q204.257 1140.09 202.382 1140.51 Q200.53 1140.93 198.586 1141.81 L198.586 1124.44 Z" fill="#000000" fill-rule="nonzero" fill-opacity="1" /><path clip-path="url(#clip920)" d="M162.313 963.023 Q158.702 963.023 156.873 966.588 Q155.068 970.129 155.068 977.259 Q155.068 984.365 156.873 987.93 Q158.702 991.472 162.313 991.472 Q165.947 991.472 167.753 987.93 Q169.582 984.365 169.582 977.259 Q169.582 970.129 167.753 966.588 Q165.947 963.023 162.313 963.023 M162.313 959.319 Q168.123 959.319 171.179 963.926 Q174.257 968.509 174.257 977.259 Q174.257 985.986 171.179 990.592 Q168.123 995.175 162.313 995.175 Q156.503 995.175 153.424 990.592 Q150.369 985.986 150.369 977.259 Q150.369 968.509 153.424 963.926 Q156.503 959.319 162.313 959.319 Z" fill="#000000" fill-rule="nonzero" fill-opacity="1" /><path clip-path="url(#clip920)" d="M182.475 988.625 L187.359 988.625 L187.359 994.504 L182.475 994.504 L182.475 988.625 Z" fill="#000000" fill-rule="nonzero" fill-opacity="1" /><path clip-path="url(#clip920)" d="M207.544 963.023 Q203.933 963.023 202.104 966.588 Q200.299 970.129 200.299 977.259 Q200.299 984.365 202.104 987.93 Q203.933 991.472 207.544 991.472 Q211.179 991.472 212.984 987.93 Q214.813 984.365 214.813 977.259 Q214.813 970.129 212.984 966.588 Q211.179 963.023 207.544 963.023 M207.544 959.319 Q213.354 959.319 216.41 963.926 Q219.489 968.509 219.489 977.259 Q219.489 985.986 216.41 990.592 Q213.354 995.175 207.544 995.175 Q201.734 995.175 198.655 990.592 Q195.6 985.986 195.6 977.259 Q195.6 968.509 198.655 963.926 Q201.734 959.319 207.544 959.319 Z" fill="#000000" fill-rule="nonzero" fill-opacity="1" /><path clip-path="url(#clip920)" d="M163.308 798.523 Q159.697 798.523 157.869 802.088 Q156.063 805.629 156.063 812.759 Q156.063 819.865 157.869 823.43 Q159.697 826.972 163.308 826.972 Q166.943 826.972 168.748 823.43 Q170.577 819.865 170.577 812.759 Q170.577 805.629 168.748 802.088 Q166.943 798.523 163.308 798.523 M163.308 794.819 Q169.119 794.819 172.174 799.426 Q175.253 804.009 175.253 812.759 Q175.253 821.486 172.174 826.092 Q169.119 830.675 163.308 830.675 Q157.498 830.675 154.42 826.092 Q151.364 821.486 151.364 812.759 Q151.364 804.009 154.42 799.426 Q157.498 794.819 163.308 794.819 Z" fill="#000000" fill-rule="nonzero" fill-opacity="1" /><path clip-path="url(#clip920)" d="M183.47 824.125 L188.355 824.125 L188.355 830.004 L183.47 830.004 L183.47 824.125 Z" fill="#000000" fill-rule="nonzero" fill-opacity="1" /><path clip-path="url(#clip920)" d="M198.586 795.444 L216.942 795.444 L216.942 799.379 L202.868 799.379 L202.868 807.852 Q203.887 807.504 204.905 807.342 Q205.924 807.157 206.942 807.157 Q212.729 807.157 216.109 810.328 Q219.489 813.5 219.489 818.916 Q219.489 824.495 216.016 827.597 Q212.544 830.675 206.225 830.675 Q204.049 830.675 201.78 830.305 Q199.535 829.935 197.128 829.194 L197.128 824.495 Q199.211 825.629 201.433 826.185 Q203.655 826.74 206.132 826.74 Q210.137 826.74 212.475 824.634 Q214.813 822.527 214.813 818.916 Q214.813 815.305 212.475 813.199 Q210.137 811.092 206.132 811.092 Q204.257 811.092 202.382 811.509 Q200.53 811.926 198.586 812.805 L198.586 795.444 Z" fill="#000000" fill-rule="nonzero" fill-opacity="1" /><path clip-path="url(#clip920)" d="M153.123 661.569 L160.762 661.569 L160.762 635.204 L152.452 636.87 L152.452 632.611 L160.716 630.944 L165.392 630.944 L165.392 661.569 L173.031 661.569 L173.031 665.504 L153.123 665.504 L153.123 661.569 Z" fill="#000000" fill-rule="nonzero" fill-opacity="1" /><path clip-path="url(#clip920)" d="M182.475 659.625 L187.359 659.625 L187.359 665.504 L182.475 665.504 L182.475 659.625 Z" fill="#000000" fill-rule="nonzero" fill-opacity="1" /><path clip-path="url(#clip920)" d="M207.544 634.023 Q203.933 634.023 202.104 637.588 Q200.299 641.129 200.299 648.259 Q200.299 655.365 202.104 658.93 Q203.933 662.472 207.544 662.472 Q211.179 662.472 212.984 658.93 Q214.813 655.365 214.813 648.259 Q214.813 641.129 212.984 637.588 Q211.179 634.023 207.544 634.023 M207.544 630.319 Q213.354 630.319 216.41 634.926 Q219.489 639.509 219.489 648.259 Q219.489 656.986 216.41 661.592 Q213.354 666.176 207.544 666.176 Q201.734 666.176 198.655 661.592 Q195.6 656.986 195.6 648.259 Q195.6 639.509 198.655 634.926 Q201.734 630.319 207.544 630.319 Z" fill="#000000" fill-rule="nonzero" fill-opacity="1" /><path clip-path="url(#clip920)" d="M154.119 497.069 L161.757 497.069 L161.757 470.704 L153.447 472.37 L153.447 468.111 L161.711 466.444 L166.387 466.444 L166.387 497.069 L174.026 497.069 L174.026 501.004 L154.119 501.004 L154.119 497.069 Z" fill="#000000" fill-rule="nonzero" fill-opacity="1" /><path clip-path="url(#clip920)" d="M183.47 495.125 L188.355 495.125 L188.355 501.004 L183.47 501.004 L183.47 495.125 Z" fill="#000000" fill-rule="nonzero" fill-opacity="1" /><path clip-path="url(#clip920)" d="M198.586 466.444 L216.942 466.444 L216.942 470.38 L202.868 470.38 L202.868 478.852 Q203.887 478.504 204.905 478.342 Q205.924 478.157 206.942 478.157 Q212.729 478.157 216.109 481.329 Q219.489 484.5 219.489 489.916 Q219.489 495.495 216.016 498.597 Q212.544 501.676 206.225 501.676 Q204.049 501.676 201.78 501.305 Q199.535 500.935 197.128 500.194 L197.128 495.495 Q199.211 496.629 201.433 497.185 Q203.655 497.74 206.132 497.74 Q210.137 497.74 212.475 495.634 Q214.813 493.528 214.813 489.916 Q214.813 486.305 212.475 484.199 Q210.137 482.092 206.132 482.092 Q204.257 482.092 202.382 482.509 Q200.53 482.926 198.586 483.805 L198.586 466.444 Z" fill="#000000" fill-rule="nonzero" fill-opacity="1" /><path clip-path="url(#clip920)" d="M156.341 332.569 L172.66 332.569 L172.66 336.504 L150.716 336.504 L150.716 332.569 Q153.378 329.815 157.961 325.185 Q162.568 320.532 163.748 319.19 Q165.994 316.667 166.873 314.93 Q167.776 313.171 167.776 311.481 Q167.776 308.727 165.832 306.991 Q163.91 305.255 160.808 305.255 Q158.609 305.255 156.156 306.018 Q153.725 306.782 150.947 308.333 L150.947 303.611 Q153.771 302.477 156.225 301.898 Q158.679 301.319 160.716 301.319 Q166.086 301.319 169.281 304.005 Q172.475 306.69 172.475 311.181 Q172.475 313.31 171.665 315.231 Q170.878 317.13 168.771 319.722 Q168.193 320.393 165.091 323.611 Q161.989 326.805 156.341 332.569 Z" fill="#000000" fill-rule="nonzero" fill-opacity="1" /><path clip-path="url(#clip920)" d="M182.475 330.625 L187.359 330.625 L187.359 336.504 L182.475 336.504 L182.475 330.625 Z" fill="#000000" fill-rule="nonzero" fill-opacity="1" /><path clip-path="url(#clip920)" d="M207.544 305.023 Q203.933 305.023 202.104 308.588 Q200.299 312.13 200.299 319.259 Q200.299 326.366 202.104 329.93 Q203.933 333.472 207.544 333.472 Q211.179 333.472 212.984 329.93 Q214.813 326.366 214.813 319.259 Q214.813 312.13 212.984 308.588 Q211.179 305.023 207.544 305.023 M207.544 301.319 Q213.354 301.319 216.41 305.926 Q219.489 310.509 219.489 319.259 Q219.489 327.986 216.41 332.592 Q213.354 337.176 207.544 337.176 Q201.734 337.176 198.655 332.592 Q195.6 327.986 195.6 319.259 Q195.6 310.509 198.655 305.926 Q201.734 301.319 207.544 301.319 Z" fill="#000000" fill-rule="nonzero" fill-opacity="1" /><path clip-path="url(#clip920)" d="M157.336 168.069 L173.656 168.069 L173.656 172.005 L151.711 172.005 L151.711 168.069 Q154.373 165.315 158.957 160.685 Q163.563 156.032 164.744 154.69 Q166.989 152.167 167.869 150.431 Q168.771 148.671 168.771 146.982 Q168.771 144.227 166.827 142.491 Q164.906 140.755 161.804 140.755 Q159.605 140.755 157.151 141.519 Q154.72 142.282 151.943 143.833 L151.943 139.111 Q154.767 137.977 157.22 137.398 Q159.674 136.82 161.711 136.82 Q167.082 136.82 170.276 139.505 Q173.47 142.19 173.47 146.681 Q173.47 148.81 172.66 150.731 Q171.873 152.63 169.767 155.222 Q169.188 155.893 166.086 159.111 Q162.984 162.306 157.336 168.069 Z" fill="#000000" fill-rule="nonzero" fill-opacity="1" /><path clip-path="url(#clip920)" d="M183.47 166.125 L188.355 166.125 L188.355 172.005 L183.47 172.005 L183.47 166.125 Z" fill="#000000" fill-rule="nonzero" fill-opacity="1" /><path clip-path="url(#clip920)" d="M198.586 137.445 L216.942 137.445 L216.942 141.38 L202.868 141.38 L202.868 149.852 Q203.887 149.505 204.905 149.343 Q205.924 149.157 206.942 149.157 Q212.729 149.157 216.109 152.329 Q219.489 155.5 219.489 160.917 Q219.489 166.495 216.016 169.597 Q212.544 172.676 206.225 172.676 Q204.049 172.676 201.78 172.305 Q199.535 171.935 197.128 171.194 L197.128 166.495 Q199.211 167.63 201.433 168.185 Q203.655 168.741 206.132 168.741 Q210.137 168.741 212.475 166.634 Q214.813 164.528 214.813 160.917 Q214.813 157.306 212.475 155.199 Q210.137 153.093 206.132 153.093 Q204.257 153.093 202.382 153.509 Q200.53 153.926 198.586 154.806 L198.586 137.445 Z" fill="#000000" fill-rule="nonzero" fill-opacity="1" /><path clip-path="url(#clip920)" d="M70.9143 708.415 Q77.28 710.897 79.2216 713.252 Q81.1631 715.608 81.1631 719.555 L81.1631 724.233 L76.2615 724.233 L76.2615 720.796 Q76.2615 718.377 75.1157 717.04 Q73.9699 715.703 69.7048 714.08 L67.0312 713.03 L31.9562 727.448 L31.9562 721.241 L59.838 710.101 L31.9562 698.961 L31.9562 692.755 L70.9143 708.415 Z" fill="#000000" fill-rule="nonzero" fill-opacity="1" /><path clip-path="url(#clip920)" d="M59.5197 683.175 L59.5197 676.459 L64.9942 676.459 L75.1793 681.679 L75.1793 685.784 L64.9942 683.175 L59.5197 683.175 Z" fill="#000000" fill-rule="nonzero" fill-opacity="1" /><path clip-path="url(#clip920)" d="M31.9562 643.453 L31.9562 637.628 L48.698 637.628 L31.9562 621.109 L31.9562 613.916 L45.738 627.538 L67.6042 612.165 L67.6042 618.722 L49.621 631.358 L55.9867 637.628 L67.6042 637.628 L67.6042 643.453 L31.9562 643.453 Z" fill="#000000" fill-rule="nonzero" fill-opacity="1" /><path clip-path="url(#clip920)" d="M31.9562 604.081 L31.9562 595.519 L55.8276 585.397 L31.9562 575.244 L31.9562 566.746 L67.6042 566.746 L67.6042 572.634 L37.558 572.634 L60.761 582.469 L60.761 588.326 L37.558 598.192 L67.6042 598.192 L67.6042 604.081 L31.9562 604.081 Z" fill="#000000" fill-rule="nonzero" fill-opacity="1" /><path clip-path="url(#clip920)" d="M385.111 11.0023 Q395.076 11.0023 401.395 15.2557 Q407.715 19.4686 407.715 26.6793 Q407.715 31.7024 404.838 35.1862 Q401.962 38.6294 396.656 39.9662 Q402.529 41.222 405.811 45.1919 Q409.132 49.1618 409.132 54.9951 Q409.132 64.3122 401.922 69.0517 Q394.752 73.7508 385.111 73.7508 Q380.168 73.7508 374.416 72.414 Q368.664 71.0772 366.881 69.9429 L366.881 61.517 Q373.079 65.1223 376.482 66.0135 Q379.925 66.8642 384.948 66.8642 Q392.564 66.8642 396.777 63.9476 Q400.99 61.0309 400.99 54.9951 Q400.99 49.6479 397.223 46.6502 Q393.496 43.612 385.597 43.612 L377.333 43.612 L377.333 36.8875 L385.921 36.8875 Q393.172 36.8875 396.372 34.4975 Q399.572 32.067 399.572 27.5299 Q399.572 22.8714 396.251 20.4004 Q392.969 17.8888 384.948 17.8888 Q379.52 17.8888 377.657 18.3749 Q375.793 18.861 367.489 21.9802 L367.489 13.9999 Q372.067 12.3796 376.847 11.6909 Q381.627 11.0023 385.111 11.0023 Z" fill="#000000" fill-rule="nonzero" fill-opacity="1" /><path clip-path="url(#clip920)" d="M443.038 49.7694 Q434.005 49.7694 430.521 51.8354 Q427.037 53.9013 427.037 58.8839 Q427.037 62.8538 429.63 65.2034 Q432.263 67.5124 436.76 67.5124 Q442.957 67.5124 446.684 63.1374 Q450.452 58.7219 450.452 51.4303 L450.452 49.7694 L443.038 49.7694 M457.905 46.6907 L457.905 72.576 L450.452 72.576 L450.452 65.6895 Q447.9 69.8214 444.092 71.8063 Q440.284 73.7508 434.775 73.7508 Q427.807 73.7508 423.675 69.8619 Q419.584 65.9325 419.584 59.3701 Q419.584 51.7138 424.688 47.825 Q429.833 43.9361 440 43.9361 L450.452 43.9361 L450.452 43.2069 Q450.452 38.0623 447.049 35.2672 Q443.687 32.4315 437.57 32.4315 Q433.681 32.4315 429.995 33.3632 Q426.308 34.295 422.905 36.1584 L422.905 29.2718 Q426.997 27.692 430.845 26.9223 Q434.694 26.1121 438.339 26.1121 Q448.183 26.1121 453.044 31.2163 Q457.905 36.3204 457.905 46.6907 Z" fill="#000000" fill-rule="nonzero" fill-opacity="1" /><path clip-path="url(#clip920)" d="M483.385 66.6212 L505.017 66.6212 L505.017 33.1607 L489.34 33.1607 L489.34 38.832 Q489.34 55.5217 484.56 64.4337 L483.385 66.6212 M472.57 66.6212 Q476.256 65.0008 477.876 61.5575 Q481.846 53.0101 481.846 35.7938 L481.846 27.2059 L512.511 27.2059 L512.511 66.6212 L518.466 66.6212 L518.466 84.0401 L512.511 84.0401 L512.511 72.576 L475.729 72.576 L475.729 84.0401 L469.774 84.0401 L469.774 66.6212 L472.57 66.6212 Z" fill="#000000" fill-rule="nonzero" fill-opacity="1" /><path clip-path="url(#clip920)" d="M551.238 49.7694 Q542.205 49.7694 538.721 51.8354 Q535.237 53.9013 535.237 58.8839 Q535.237 62.8538 537.83 65.2034 Q540.463 67.5124 544.959 67.5124 Q551.157 67.5124 554.884 63.1374 Q558.651 58.7219 558.651 51.4303 L558.651 49.7694 L551.238 49.7694 M566.105 46.6907 L566.105 72.576 L558.651 72.576 L558.651 65.6895 Q556.099 69.8214 552.291 71.8063 Q548.483 73.7508 542.974 73.7508 Q536.007 73.7508 531.875 69.8619 Q527.783 65.9325 527.783 59.3701 Q527.783 51.7138 532.888 47.825 Q538.032 43.9361 548.2 43.9361 L558.651 43.9361 L558.651 43.2069 Q558.651 38.0623 555.249 35.2672 Q551.886 32.4315 545.769 32.4315 Q541.881 32.4315 538.194 33.3632 Q534.508 34.295 531.105 36.1584 L531.105 29.2718 Q535.197 27.692 539.045 26.9223 Q542.893 26.1121 546.539 26.1121 Q556.383 26.1121 561.244 31.2163 Q566.105 36.3204 566.105 46.6907 Z" fill="#000000" fill-rule="nonzero" fill-opacity="1" /><path clip-path="url(#clip920)" d="M607.667 72.576 L607.667 53.4962 L593.773 53.4962 Q587.575 53.4962 583.443 49.6479 Q579.716 46.1641 579.716 38.7104 L579.716 27.2059 L587.17 27.2059 L587.17 38.0218 Q587.17 42.7613 589.276 45.1514 Q591.423 47.5414 595.636 47.5414 L607.667 47.5414 L607.667 27.2059 L615.121 27.2059 L615.121 72.576 L607.667 72.576 Z" fill="#000000" fill-rule="nonzero" fill-opacity="1" /><path clip-path="url(#clip920)" d="M651.093 49.7694 Q642.059 49.7694 638.576 51.8354 Q635.092 53.9013 635.092 58.8839 Q635.092 62.8538 637.684 65.2034 Q640.317 67.5124 644.814 67.5124 Q651.012 67.5124 654.739 63.1374 Q658.506 58.7219 658.506 51.4303 L658.506 49.7694 L651.093 49.7694 M665.96 46.6907 L665.96 72.576 L658.506 72.576 L658.506 65.6895 Q655.954 69.8214 652.146 71.8063 Q648.338 73.7508 642.829 73.7508 Q635.861 73.7508 631.73 69.8619 Q627.638 65.9325 627.638 59.3701 Q627.638 51.7138 632.742 47.825 Q637.887 43.9361 648.055 43.9361 L658.506 43.9361 L658.506 43.2069 Q658.506 38.0623 655.103 35.2672 Q651.741 32.4315 645.624 32.4315 Q641.735 32.4315 638.049 33.3632 Q634.363 34.295 630.96 36.1584 L630.96 29.2718 Q635.051 27.692 638.9 26.9223 Q642.748 26.1121 646.394 26.1121 Q656.238 26.1121 661.099 31.2163 Q665.96 36.3204 665.96 46.6907 Z" fill="#000000" fill-rule="nonzero" fill-opacity="1" /><path clip-path="url(#clip920)" d="M746.573 27.2059 L746.573 72.576 L739.079 72.576 L739.079 33.1607 L714.895 33.1607 L714.895 72.576 L707.4 72.576 L707.4 27.2059 L746.573 27.2059 Z" fill="#000000" fill-rule="nonzero" fill-opacity="1" /><path clip-path="url(#clip920)" d="M769.136 65.7705 L769.136 89.8329 L761.642 89.8329 L761.642 27.2059 L769.136 27.2059 L769.136 34.0924 Q771.486 30.0415 775.051 28.0971 Q778.656 26.1121 783.638 26.1121 Q791.902 26.1121 797.047 32.6746 Q802.232 39.2371 802.232 49.9314 Q802.232 60.6258 797.047 67.1883 Q791.902 73.7508 783.638 73.7508 Q778.656 73.7508 775.051 71.8063 Q771.486 69.8214 769.136 65.7705 M794.495 49.9314 Q794.495 41.7081 791.092 37.0496 Q787.73 32.3505 781.816 32.3505 Q775.901 32.3505 772.498 37.0496 Q769.136 41.7081 769.136 49.9314 Q769.136 58.1548 772.498 62.8538 Q775.901 67.5124 781.816 67.5124 Q787.73 67.5124 791.092 62.8538 Q794.495 58.1548 794.495 49.9314 Z" fill="#000000" fill-rule="nonzero" fill-opacity="1" /><path clip-path="url(#clip920)" d="M853.395 48.0275 L853.395 51.6733 L819.124 51.6733 Q819.611 59.3701 823.742 63.421 Q827.915 67.4314 835.328 67.4314 Q839.622 67.4314 843.632 66.3781 Q847.683 65.3249 851.653 63.2184 L851.653 70.267 Q847.643 71.9684 843.43 72.8596 Q839.217 73.7508 834.882 73.7508 Q824.026 73.7508 817.666 67.4314 Q811.347 61.1119 811.347 50.3365 Q811.347 39.1965 817.342 32.6746 Q823.378 26.1121 833.586 26.1121 Q842.741 26.1121 848.048 32.0264 Q853.395 37.9003 853.395 48.0275 M845.941 45.84 Q845.86 39.7232 842.498 36.0774 Q839.176 32.4315 833.667 32.4315 Q827.429 32.4315 823.661 35.9558 Q819.935 39.4801 819.367 45.8805 L845.941 45.84 Z" fill="#000000" fill-rule="nonzero" fill-opacity="1" /><path clip-path="url(#clip920)" d="M898.279 28.9478 L898.279 35.9153 Q895.119 34.1734 891.919 33.3227 Q888.759 32.4315 885.519 32.4315 Q878.268 32.4315 874.257 37.0496 Q870.247 41.6271 870.247 49.9314 Q870.247 58.2358 874.257 62.8538 Q878.268 67.4314 885.519 67.4314 Q888.759 67.4314 891.919 66.5807 Q895.119 65.6895 898.279 63.9476 L898.279 70.8341 Q895.16 72.2924 891.798 73.0216 Q888.476 73.7508 884.709 73.7508 Q874.46 73.7508 868.424 67.3098 Q862.388 60.8689 862.388 49.9314 Q862.388 38.832 868.464 32.472 Q874.581 26.1121 885.195 26.1121 Q888.638 26.1121 891.919 26.8413 Q895.2 27.5299 898.279 28.9478 Z" fill="#000000" fill-rule="nonzero" fill-opacity="1" /><path clip-path="url(#clip920)" d="M906.502 72.576 L906.502 66.3781 Q913.875 65.2439 916.144 60.1397 Q918.898 52.9696 918.898 34.619 L918.898 27.2059 L949.564 27.2059 L949.564 72.576 L942.11 72.576 L942.11 33.1607 L926.352 33.1607 L926.352 37.6572 Q926.352 55.1571 922.787 63.0159 Q918.979 71.4012 906.502 72.576 Z" fill="#000000" fill-rule="nonzero" fill-opacity="1" /><path clip-path="url(#clip920)" d="M1003.08 48.0275 L1003.08 51.6733 L968.805 51.6733 Q969.291 59.3701 973.423 63.421 Q977.596 67.4314 985.009 67.4314 Q989.303 67.4314 993.313 66.3781 Q997.364 65.3249 1001.33 63.2184 L1001.33 70.267 Q997.324 71.9684 993.111 72.8596 Q988.898 73.7508 984.563 73.7508 Q973.707 73.7508 967.347 67.4314 Q961.028 61.1119 961.028 50.3365 Q961.028 39.1965 967.023 32.6746 Q973.059 26.1121 983.267 26.1121 Q992.422 26.1121 997.729 32.0264 Q1003.08 37.9003 1003.08 48.0275 M995.622 45.84 Q995.541 39.7232 992.179 36.0774 Q988.857 32.4315 983.348 32.4315 Q977.11 32.4315 973.342 35.9558 Q969.615 39.4801 969.048 45.8805 L995.622 45.84 Z" fill="#000000" fill-rule="nonzero" fill-opacity="1" /><path clip-path="url(#clip920)" d="M1025.44 66.6212 L1047.07 66.6212 L1047.07 33.1607 L1031.39 33.1607 L1031.39 38.832 Q1031.39 55.5217 1026.61 64.4337 L1025.44 66.6212 M1014.62 66.6212 Q1018.31 65.0008 1019.93 61.5575 Q1023.9 53.0101 1023.9 35.7938 L1023.9 27.2059 L1054.56 27.2059 L1054.56 66.6212 L1060.52 66.6212 L1060.52 84.0401 L1054.56 84.0401 L1054.56 72.576 L1017.78 72.576 L1017.78 84.0401 L1011.83 84.0401 L1011.83 66.6212 L1014.62 66.6212 Z" fill="#000000" fill-rule="nonzero" fill-opacity="1" /><path clip-path="url(#clip920)" d="M1090.25 32.4315 Q1084.26 32.4315 1080.77 37.1306 Q1077.29 41.7891 1077.29 49.9314 Q1077.29 58.0738 1080.73 62.7728 Q1084.22 67.4314 1090.25 67.4314 Q1096.21 67.4314 1099.69 62.7323 Q1103.17 58.0333 1103.17 49.9314 Q1103.17 41.8701 1099.69 37.1711 Q1096.21 32.4315 1090.25 32.4315 M1090.25 26.1121 Q1099.97 26.1121 1105.52 32.4315 Q1111.07 38.7509 1111.07 49.9314 Q1111.07 61.0714 1105.52 67.4314 Q1099.97 73.7508 1090.25 73.7508 Q1080.49 73.7508 1074.94 67.4314 Q1069.43 61.0714 1069.43 49.9314 Q1069.43 38.7509 1074.94 32.4315 Q1080.49 26.1121 1090.25 26.1121 Z" fill="#000000" fill-rule="nonzero" fill-opacity="1" /><path clip-path="url(#clip920)" d="M1130.6 51.6733 L1130.6 66.6212 L1141.21 66.6212 Q1146.32 66.6212 1148.99 64.7172 Q1151.66 62.7728 1151.66 59.127 Q1151.66 55.4812 1148.99 53.5773 Q1146.32 51.6733 1141.21 51.6733 L1130.6 51.6733 M1130.6 33.1607 L1130.6 45.7185 L1140.4 45.7185 Q1144.61 45.7185 1147.29 44.0576 Q1149.96 42.3563 1149.96 39.3586 Q1149.96 36.3609 1147.29 34.7811 Q1144.61 33.1607 1140.4 33.1607 L1130.6 33.1607 M1123.14 27.2059 L1140.89 27.2059 Q1148.87 27.2059 1153.16 30.1225 Q1157.46 33.0392 1157.46 38.4269 Q1157.46 42.5993 1155.27 45.0704 Q1153.08 47.5009 1148.79 48.1085 Q1153.93 49.0808 1156.77 52.1594 Q1159.6 55.2381 1159.6 59.8562 Q1159.6 65.9325 1154.9 69.2543 Q1150.25 72.576 1141.58 72.576 L1123.14 72.576 L1123.14 27.2059 Z" fill="#000000" fill-rule="nonzero" fill-opacity="1" /><path clip-path="url(#clip920)" d="M1192.94 49.7694 Q1183.91 49.7694 1180.42 51.8354 Q1176.94 53.9013 1176.94 58.8839 Q1176.94 62.8538 1179.53 65.2034 Q1182.17 67.5124 1186.66 67.5124 Q1192.86 67.5124 1196.59 63.1374 Q1200.35 58.7219 1200.35 51.4303 L1200.35 49.7694 L1192.94 49.7694 M1207.81 46.6907 L1207.81 72.576 L1200.35 72.576 L1200.35 65.6895 Q1197.8 69.8214 1194 71.8063 Q1190.19 73.7508 1184.68 73.7508 Q1177.71 73.7508 1173.58 69.8619 Q1169.49 65.9325 1169.49 59.3701 Q1169.49 51.7138 1174.59 47.825 Q1179.74 43.9361 1189.9 43.9361 L1200.35 43.9361 L1200.35 43.2069 Q1200.35 38.0623 1196.95 35.2672 Q1193.59 32.4315 1187.47 32.4315 Q1183.58 32.4315 1179.9 33.3632 Q1176.21 34.295 1172.81 36.1584 L1172.81 29.2718 Q1176.9 27.692 1180.75 26.9223 Q1184.6 26.1121 1188.24 26.1121 Q1198.09 26.1121 1202.95 31.2163 Q1207.81 36.3204 1207.81 46.6907 Z" fill="#000000" fill-rule="nonzero" fill-opacity="1" /><path clip-path="url(#clip920)" d="M1222.88 27.2059 L1230.37 27.2059 L1230.37 45.7185 L1254.56 45.7185 L1254.56 27.2059 L1262.05 27.2059 L1262.05 72.576 L1254.56 72.576 L1254.56 51.6733 L1230.37 51.6733 L1230.37 72.576 L1222.88 72.576 L1222.88 27.2059 Z" fill="#000000" fill-rule="nonzero" fill-opacity="1" /><path clip-path="url(#clip920)" d="M1315.97 27.2059 L1315.97 72.576 L1308.55 72.576 L1308.55 36.1584 L1286.68 72.576 L1277.12 72.576 L1277.12 27.2059 L1284.53 27.2059 L1284.53 63.5425 L1306.37 27.2059 L1315.97 27.2059 Z" fill="#000000" fill-rule="nonzero" fill-opacity="1" /><path clip-path="url(#clip920)" d="M1338.81 40.2903 Q1338.81 43.6525 1341.41 45.5565 Q1344 47.4604 1348.82 47.4604 L1358.87 47.4604 L1358.87 33.1607 L1348.82 33.1607 Q1344 33.1607 1341.41 35.0241 Q1338.81 36.8875 1338.81 40.2903 M1328.2 72.576 L1342.06 52.6861 Q1337.36 51.6328 1334.24 48.8782 Q1331.12 46.0831 1331.12 40.2903 Q1331.12 33.7278 1335.45 30.4871 Q1339.83 27.2059 1348.62 27.2059 L1366.36 27.2059 L1366.36 72.576 L1358.87 72.576 L1358.87 53.4152 L1349.59 53.4152 L1336.22 72.576 L1328.2 72.576 Z" fill="#000000" fill-rule="nonzero" fill-opacity="1" /><path clip-path="url(#clip920)" d="M1425.5 9.62495 Q1420.08 18.942 1417.44 28.0566 Q1414.81 37.1711 1414.81 46.5287 Q1414.81 55.8863 1417.44 65.0818 Q1420.12 74.2369 1425.5 83.5134 L1419.02 83.5134 Q1412.95 73.9938 1409.91 64.7983 Q1406.91 55.6027 1406.91 46.5287 Q1406.91 37.4952 1409.91 28.3401 Q1412.91 19.1851 1419.02 9.62495 L1425.5 9.62495 Z" fill="#000000" fill-rule="nonzero" fill-opacity="1" /><path clip-path="url(#clip920)" d="M1447.14 51.6733 L1447.14 66.6212 L1457.75 66.6212 Q1462.85 66.6212 1465.53 64.7172 Q1468.2 62.7728 1468.2 59.127 Q1468.2 55.4812 1465.53 53.5773 Q1462.85 51.6733 1457.75 51.6733 L1447.14 51.6733 M1447.14 33.1607 L1447.14 45.7185 L1456.94 45.7185 Q1461.15 45.7185 1463.83 44.0576 Q1466.5 42.3563 1466.5 39.3586 Q1466.5 36.3609 1463.83 34.7811 Q1461.15 33.1607 1456.94 33.1607 L1447.14 33.1607 M1439.68 27.2059 L1457.43 27.2059 Q1465.41 27.2059 1469.7 30.1225 Q1473.99 33.0392 1473.99 38.4269 Q1473.99 42.5993 1471.81 45.0704 Q1469.62 47.5009 1465.32 48.1085 Q1470.47 49.0808 1473.3 52.1594 Q1476.14 55.2381 1476.14 59.8562 Q1476.14 65.9325 1471.44 69.2543 Q1466.78 72.576 1458.11 72.576 L1439.68 72.576 L1439.68 27.2059 Z" fill="#000000" fill-rule="nonzero" fill-opacity="1" /><path clip-path="url(#clip920)" d="M1509.48 49.7694 Q1500.45 49.7694 1496.96 51.8354 Q1493.48 53.9013 1493.48 58.8839 Q1493.48 62.8538 1496.07 65.2034 Q1498.7 67.5124 1503.2 67.5124 Q1509.4 67.5124 1513.13 63.1374 Q1516.89 58.7219 1516.89 51.4303 L1516.89 49.7694 L1509.48 49.7694 M1524.35 46.6907 L1524.35 72.576 L1516.89 72.576 L1516.89 65.6895 Q1514.34 69.8214 1510.53 71.8063 Q1506.72 73.7508 1501.22 73.7508 Q1494.25 73.7508 1490.12 69.8619 Q1486.02 65.9325 1486.02 59.3701 Q1486.02 51.7138 1491.13 47.825 Q1496.27 43.9361 1506.44 43.9361 L1516.89 43.9361 L1516.89 43.2069 Q1516.89 38.0623 1513.49 35.2672 Q1510.13 32.4315 1504.01 32.4315 Q1500.12 32.4315 1496.44 33.3632 Q1492.75 34.295 1489.35 36.1584 L1489.35 29.2718 Q1493.44 27.692 1497.29 26.9223 Q1501.13 26.1121 1504.78 26.1121 Q1514.62 26.1121 1519.49 31.2163 Q1524.35 36.3204 1524.35 46.6907 Z" fill="#000000" fill-rule="nonzero" fill-opacity="1" /><path clip-path="url(#clip920)" d="M1546.91 65.7705 L1546.91 89.8329 L1539.42 89.8329 L1539.42 27.2059 L1546.91 27.2059 L1546.91 34.0924 Q1549.26 30.0415 1552.82 28.0971 Q1556.43 26.1121 1561.41 26.1121 Q1569.68 26.1121 1574.82 32.6746 Q1580.01 39.2371 1580.01 49.9314 Q1580.01 60.6258 1574.82 67.1883 Q1569.68 73.7508 1561.41 73.7508 Q1556.43 73.7508 1552.82 71.8063 Q1549.26 69.8214 1546.91 65.7705 M1572.27 49.9314 Q1572.27 41.7081 1568.87 37.0496 Q1565.5 32.3505 1559.59 32.3505 Q1553.67 32.3505 1550.27 37.0496 Q1546.91 41.7081 1546.91 49.9314 Q1546.91 58.1548 1550.27 62.8538 Q1553.67 67.5124 1559.59 67.5124 Q1565.5 67.5124 1568.87 62.8538 Q1572.27 58.1548 1572.27 49.9314 Z" fill="#000000" fill-rule="nonzero" fill-opacity="1" /><path clip-path="url(#clip920)" d="M1630.93 27.2059 L1630.93 72.576 L1623.51 72.576 L1623.51 36.1584 L1601.64 72.576 L1592.08 72.576 L1592.08 27.2059 L1599.49 27.2059 L1599.49 63.5425 L1621.32 27.2059 L1630.93 27.2059 Z" fill="#000000" fill-rule="nonzero" fill-opacity="1" /><path clip-path="url(#clip920)" d="M1666.9 49.7694 Q1657.86 49.7694 1654.38 51.8354 Q1650.9 53.9013 1650.9 58.8839 Q1650.9 62.8538 1653.49 65.2034 Q1656.12 67.5124 1660.62 67.5124 Q1666.82 67.5124 1670.54 63.1374 Q1674.31 58.7219 1674.31 51.4303 L1674.31 49.7694 L1666.9 49.7694 M1681.76 46.6907 L1681.76 72.576 L1674.31 72.576 L1674.31 65.6895 Q1671.76 69.8214 1667.95 71.8063 Q1664.14 73.7508 1658.63 73.7508 Q1651.67 73.7508 1647.53 69.8619 Q1643.44 65.9325 1643.44 59.3701 Q1643.44 51.7138 1648.55 47.825 Q1653.69 43.9361 1663.86 43.9361 L1674.31 43.9361 L1674.31 43.2069 Q1674.31 38.0623 1670.91 35.2672 Q1667.55 32.4315 1661.43 32.4315 Q1657.54 32.4315 1653.85 33.3632 Q1650.17 34.295 1646.76 36.1584 L1646.76 29.2718 Q1650.86 27.692 1654.7 26.9223 Q1658.55 26.1121 1662.2 26.1121 Q1672.04 26.1121 1676.9 31.2163 Q1681.76 36.3204 1681.76 46.6907 Z" fill="#000000" fill-rule="nonzero" fill-opacity="1" /><path clip-path="url(#clip920)" d="M1696.83 27.2059 L1704.33 27.2059 L1704.33 45.7185 L1728.51 45.7185 L1728.51 27.2059 L1736.01 27.2059 L1736.01 72.576 L1728.51 72.576 L1728.51 51.6733 L1704.33 51.6733 L1704.33 72.576 L1696.83 72.576 L1696.83 27.2059 Z" fill="#000000" fill-rule="nonzero" fill-opacity="1" /><path clip-path="url(#clip920)" d="M1745.97 27.2059 L1789.44 27.2059 L1789.44 33.1607 L1771.37 33.1607 L1771.37 72.576 L1764.04 72.576 L1764.04 33.1607 L1745.97 33.1607 L1745.97 27.2059 Z" fill="#000000" fill-rule="nonzero" fill-opacity="1" /><path clip-path="url(#clip920)" d="M1834.16 65.6895 L1862.72 65.6895 L1862.72 72.576 L1824.32 72.576 L1824.32 65.6895 Q1828.97 60.8689 1837 52.7671 Q1845.06 44.6248 1847.12 42.2752 Q1851.05 37.8598 1852.59 34.8216 Q1854.17 31.7429 1854.17 28.7857 Q1854.17 23.9651 1850.77 20.927 Q1847.41 17.8888 1841.98 17.8888 Q1838.13 17.8888 1833.84 19.2256 Q1829.58 20.5624 1824.72 23.2765 L1824.72 15.0127 Q1829.66 13.0277 1833.96 12.015 Q1838.25 11.0023 1841.82 11.0023 Q1851.21 11.0023 1856.8 15.7013 Q1862.39 20.4004 1862.39 28.2591 Q1862.39 31.9859 1860.98 35.3482 Q1859.6 38.6699 1855.91 43.2069 Q1854.9 44.3817 1849.47 50.0125 Q1844.04 55.6027 1834.16 65.6895 Z" fill="#000000" fill-rule="nonzero" fill-opacity="1" /><path clip-path="url(#clip920)" d="M1897.39 17.4837 Q1891.07 17.4837 1887.87 23.7221 Q1884.71 29.92 1884.71 42.3968 Q1884.71 54.833 1887.87 61.0714 Q1891.07 67.2693 1897.39 67.2693 Q1903.75 67.2693 1906.91 61.0714 Q1910.11 54.833 1910.11 42.3968 Q1910.11 29.92 1906.91 23.7221 Q1903.75 17.4837 1897.39 17.4837 M1897.39 11.0023 Q1907.56 11.0023 1912.91 19.0636 Q1918.3 27.0843 1918.3 42.3968 Q1918.3 57.6687 1912.91 65.73 Q1907.56 73.7508 1897.39 73.7508 Q1887.23 73.7508 1881.84 65.73 Q1876.49 57.6687 1876.49 42.3968 Q1876.49 27.0843 1881.84 19.0636 Q1887.23 11.0023 1897.39 11.0023 Z" fill="#000000" fill-rule="nonzero" fill-opacity="1" /><path clip-path="url(#clip920)" d="M1930.45 9.62495 L1936.93 9.62495 Q1943.01 19.1851 1946 28.3401 Q1949.04 37.4952 1949.04 46.5287 Q1949.04 55.6027 1946 64.7983 Q1943.01 73.9938 1936.93 83.5134 L1930.45 83.5134 Q1935.84 74.2369 1938.47 65.0818 Q1941.14 55.8863 1941.14 46.5287 Q1941.14 37.1711 1938.47 28.0566 Q1935.84 18.942 1930.45 9.62495 Z" fill="#000000" fill-rule="nonzero" fill-opacity="1" /><polyline clip-path="url(#clip922)" style="stroke:#009af9; stroke-linecap:round; stroke-linejoin:round; stroke-width:8; stroke-opacity:1; fill:none" points="1991.82,977.224 2007.62,890.461 1903.39,427.012 "/>
<polyline clip-path="url(#clip922)" style="stroke:#e26f46; stroke-linecap:round; stroke-linejoin:round; stroke-width:8; stroke-opacity:1; fill:none" points="302.497,977.224 345.569,843.646 773.923,350.005 1595.58,382.614 1763.95,566.452 "/>
<polyline clip-path="url(#clip922)" style="stroke:#3da44d; stroke-linecap:round; stroke-linejoin:round; stroke-width:8; stroke-opacity:1; fill:none" stroke-dasharray="32, 20" points="1353.17,977.224 1359.84,970.555 1366.51,963.886 1373.18,957.216 1379.85,950.547 1386.52,943.878 1393.19,937.209 1399.86,930.539 1406.53,923.87 1413.2,917.201 1419.87,910.532 1426.54,903.863 1433.2,897.193 1439.87,890.524 1446.54,883.855 1453.21,877.186 1459.88,870.516 1466.55,863.847 1473.22,857.178 1479.89,850.509 1486.56,843.839 1493.23,837.17 1499.9,830.501 1506.57,823.832 1513.24,817.162 1519.9,810.493 1526.57,803.824 1533.24,797.155 1539.91,790.485 1546.58,783.816 1553.25,777.147 1559.92,770.478 1566.59,763.809 1573.26,757.139 1579.93,750.47 1586.6,743.801 1593.27,737.132 1599.94,730.462 1606.6,723.793 1613.27,717.124 1619.94,710.455 1626.61,703.785 1633.28,697.116 1639.95,690.447 1646.62,683.778 1653.29,677.108 1659.96,670.439 1666.63,663.77 1673.3,657.101 1679.97,650.432 1686.64,643.762 1693.3,637.093 1699.97,630.424 1706.64,623.755 1713.31,617.085 1719.98,610.416 1726.65,603.747 1733.32,597.078 1739.99,590.408 1746.66,583.739 1753.33,577.07 1760,570.401 1766.67,563.731 1773.34,557.062 1780,550.393 1786.67,543.724 1793.34,537.054 1800.01,530.385 1806.68,523.716 1813.35,517.047 1820.02,510.378 1826.69,503.708 1833.36,497.039 1840.03,490.37 1846.7,483.701 1853.37,477.031 1860.04,470.362 1866.7,463.693 1873.37,457.024 1880.04,450.354 1886.71,443.685 1893.38,437.016 1900.05,430.347 1906.72,423.677 1913.39,417.008 1920.06,410.339 1926.73,403.67 1933.4,397.001 1940.07,390.331 1946.74,383.662 1953.4,376.993 1960.07,370.324 1966.74,363.654 1973.41,356.985 1980.08,350.316 1986.75,343.647 1993.42,336.977 2000.09,330.308 2006.76,323.639 2013.43,316.97 "/>
<circle clip-path="url(#clip922)" cx="1903.39" cy="427.012" r="28.8" fill="#c271d2" fill-rule="evenodd" fill-opacity="1" stroke="#000000" stroke-opacity="1" stroke-width="2.688"/>
<circle clip-path="url(#clip922)" cx="1763.95" cy="566.452" r="28.8" fill="#ac8d18" fill-rule="evenodd" fill-opacity="1" stroke="#000000" stroke-opacity="1" stroke-width="2.688"/>
<path clip-path="url(#clip922)" d="M1975.82 961.224 L1975.82 993.224 L2007.82 993.224 L2007.82 961.224 L1975.82 961.224 Z" fill="#00a9ad" fill-rule="evenodd" fill-opacity="1" stroke="#000000" stroke-opacity="1" stroke-width="2.688"/>
<path clip-path="url(#clip922)" d="M286.497 961.224 L286.497 993.224 L318.497 993.224 L318.497 961.224 L286.497 961.224 Z" fill="#ed5d92" fill-rule="evenodd" fill-opacity="1" stroke="#000000" stroke-opacity="1" stroke-width="2.688"/>
<path clip-path="url(#clip920)" d="M311.622 570.535 L904.622 570.535 L904.622 155.815 L311.622 155.815  Z" fill="#ffffff" fill-rule="evenodd" fill-opacity="1"/>
<polyline clip-path="url(#clip920)" style="stroke:#000000; stroke-linecap:round; stroke-linejoin:round; stroke-width:4; stroke-opacity:1; fill:none" points="311.622,570.535 904.622,570.535 904.622,155.815 311.622,155.815 311.622,570.535 "/>
<polyline clip-path="url(#clip920)" style="stroke:#009af9; stroke-linecap:round; stroke-linejoin:round; stroke-width:8; stroke-opacity:1; fill:none" points="331.773,207.655 452.678,207.655 "/>
<path clip-path="url(#clip920)" d="M472.829 190.375 L477.505 190.375 L477.505 207.458 L494.218 190.375 L500.213 190.375 L486.857 204.032 L500.908 224.935 L495.815 224.935 L483.825 207.134 L477.505 213.592 L477.505 224.935 L472.829 224.935 L472.829 190.375 Z" fill="#000000" fill-rule="nonzero" fill-opacity="1" /><path clip-path="url(#clip920)" d="M518.084 211.902 Q512.922 211.902 510.931 213.083 Q508.94 214.263 508.94 217.111 Q508.94 219.379 510.422 220.722 Q511.926 222.041 514.496 222.041 Q518.037 222.041 520.167 219.541 Q522.32 217.018 522.32 212.851 L522.32 211.902 L518.084 211.902 M526.579 210.143 L526.579 224.935 L522.32 224.935 L522.32 220.999 Q520.861 223.361 518.686 224.495 Q516.51 225.606 513.362 225.606 Q509.38 225.606 507.019 223.384 Q504.681 221.138 504.681 217.388 Q504.681 213.013 507.598 210.791 Q510.537 208.569 516.348 208.569 L522.32 208.569 L522.32 208.152 Q522.32 205.213 520.375 203.615 Q518.454 201.995 514.959 201.995 Q512.737 201.995 510.63 202.527 Q508.524 203.06 506.579 204.125 L506.579 200.189 Q508.917 199.287 511.116 198.847 Q513.315 198.384 515.399 198.384 Q521.024 198.384 523.801 201.3 Q526.579 204.217 526.579 210.143 Z" fill="#000000" fill-rule="nonzero" fill-opacity="1" /><path clip-path="url(#clip920)" d="M532.273 199.009 L557.111 199.009 L557.111 202.412 L546.787 202.412 L546.787 224.935 L542.597 224.935 L542.597 202.412 L532.273 202.412 L532.273 199.009 Z" fill="#000000" fill-rule="nonzero" fill-opacity="1" /><path clip-path="url(#clip920)" d="M585.144 210.907 L585.144 212.99 L565.56 212.99 Q565.838 217.388 568.199 219.703 Q570.583 221.995 574.82 221.995 Q577.273 221.995 579.565 221.393 Q581.88 220.791 584.148 219.587 L584.148 223.615 Q581.857 224.587 579.449 225.097 Q577.042 225.606 574.565 225.606 Q568.361 225.606 564.727 221.995 Q561.116 218.384 561.116 212.226 Q561.116 205.861 564.542 202.134 Q567.991 198.384 573.824 198.384 Q579.056 198.384 582.088 201.763 Q585.144 205.12 585.144 210.907 M580.884 209.657 Q580.838 206.162 578.917 204.078 Q577.019 201.995 573.87 201.995 Q570.306 201.995 568.153 204.009 Q566.023 206.023 565.699 209.68 L580.884 209.657 Z" fill="#000000" fill-rule="nonzero" fill-opacity="1" /><path clip-path="url(#clip920)" d="M596.255 221.046 L596.255 234.796 L591.972 234.796 L591.972 199.009 L596.255 199.009 L596.255 202.944 Q597.597 200.629 599.634 199.518 Q601.694 198.384 604.542 198.384 Q609.264 198.384 612.204 202.134 Q615.167 205.884 615.167 211.995 Q615.167 218.106 612.204 221.856 Q609.264 225.606 604.542 225.606 Q601.694 225.606 599.634 224.495 Q597.597 223.361 596.255 221.046 M610.745 211.995 Q610.745 207.296 608.801 204.634 Q606.88 201.949 603.5 201.949 Q600.12 201.949 598.176 204.634 Q596.255 207.296 596.255 211.995 Q596.255 216.694 598.176 219.379 Q600.12 222.041 603.5 222.041 Q606.88 222.041 608.801 219.379 Q610.745 216.694 610.745 211.995 Z" fill="#000000" fill-rule="nonzero" fill-opacity="1" /><path clip-path="url(#clip920)" d="M647.527 188.963 Q644.426 194.287 642.921 199.495 Q641.416 204.703 641.416 210.05 Q641.416 215.398 642.921 220.652 Q644.449 225.884 647.527 231.185 L643.824 231.185 Q640.352 225.745 638.615 220.49 Q636.903 215.236 636.903 210.05 Q636.903 204.888 638.615 199.657 Q640.328 194.426 643.824 188.963 L647.527 188.963 Z" fill="#000000" fill-rule="nonzero" fill-opacity="1" /><path clip-path="url(#clip920)" d="M674.449 200.004 L674.449 203.986 Q672.643 202.99 670.814 202.504 Q669.009 201.995 667.157 201.995 Q663.013 201.995 660.722 204.634 Q658.43 207.25 658.43 211.995 Q658.43 216.74 660.722 219.379 Q663.013 221.995 667.157 221.995 Q669.009 221.995 670.814 221.509 Q672.643 220.999 674.449 220.004 L674.449 223.939 Q672.666 224.773 670.745 225.189 Q668.847 225.606 666.694 225.606 Q660.838 225.606 657.389 221.925 Q653.939 218.245 653.939 211.995 Q653.939 205.652 657.412 202.018 Q660.907 198.384 666.972 198.384 Q668.939 198.384 670.814 198.801 Q672.689 199.194 674.449 200.004 Z" fill="#000000" fill-rule="nonzero" fill-opacity="1" /><path clip-path="url(#clip920)" d="M679.148 224.935 L679.148 221.393 Q683.361 220.745 684.657 217.828 Q686.231 213.731 686.231 203.245 L686.231 199.009 L703.754 199.009 L703.754 224.935 L699.495 224.935 L699.495 202.412 L690.49 202.412 L690.49 204.981 Q690.49 214.981 688.453 219.472 Q686.277 224.263 679.148 224.935 Z" fill="#000000" fill-rule="nonzero" fill-opacity="1" /><path clip-path="url(#clip920)" d="M722.944 227.342 Q721.138 231.972 719.425 233.384 Q717.712 234.796 714.842 234.796 L711.439 234.796 L711.439 231.231 L713.939 231.231 Q715.698 231.231 716.671 230.398 Q717.643 229.564 718.823 226.462 L719.587 224.518 L709.101 199.009 L713.615 199.009 L721.717 219.287 L729.819 199.009 L734.333 199.009 L722.944 227.342 Z" fill="#000000" fill-rule="nonzero" fill-opacity="1" /><path clip-path="url(#clip920)" d="M755.189 224.935 L755.189 214.032 L747.249 214.032 Q743.708 214.032 741.346 211.833 Q739.217 209.842 739.217 205.583 L739.217 199.009 L743.476 199.009 L743.476 205.189 Q743.476 207.898 744.68 209.263 Q745.907 210.629 748.314 210.629 L755.189 210.629 L755.189 199.009 L759.448 199.009 L759.448 224.935 L755.189 224.935 Z" fill="#000000" fill-rule="nonzero" fill-opacity="1" /><path clip-path="url(#clip920)" d="M780.004 211.902 Q774.842 211.902 772.851 213.083 Q770.86 214.263 770.86 217.111 Q770.86 219.379 772.342 220.722 Q773.846 222.041 776.416 222.041 Q779.957 222.041 782.087 219.541 Q784.24 217.018 784.24 212.851 L784.24 211.902 L780.004 211.902 M788.499 210.143 L788.499 224.935 L784.24 224.935 L784.24 220.999 Q782.781 223.361 780.605 224.495 Q778.43 225.606 775.281 225.606 Q771.3 225.606 768.939 223.384 Q766.601 221.138 766.601 217.388 Q766.601 213.013 769.518 210.791 Q772.457 208.569 778.268 208.569 L784.24 208.569 L784.24 208.152 Q784.24 205.213 782.295 203.615 Q780.374 201.995 776.879 201.995 Q774.656 201.995 772.55 202.527 Q770.443 203.06 768.499 204.125 L768.499 200.189 Q770.837 199.287 773.036 198.847 Q775.235 198.384 777.318 198.384 Q782.943 198.384 785.721 201.3 Q788.499 204.217 788.499 210.143 Z" fill="#000000" fill-rule="nonzero" fill-opacity="1" /><path clip-path="url(#clip920)" d="M819.309 199.009 L819.309 224.935 L815.073 224.935 L815.073 204.125 L802.573 224.935 L797.11 224.935 L797.11 199.009 L801.346 199.009 L801.346 219.773 L813.823 199.009 L819.309 199.009 M800.976 188.916 L803.707 188.916 Q803.962 190.652 805.073 191.532 Q806.207 192.389 808.221 192.389 Q810.212 192.389 811.323 191.532 Q812.434 190.676 812.735 188.916 L815.466 188.916 Q815.235 192.226 813.406 193.893 Q811.578 195.56 808.221 195.56 Q804.865 195.56 803.036 193.893 Q801.207 192.226 800.976 188.916 Z" fill="#000000" fill-rule="nonzero" fill-opacity="1" /><path clip-path="url(#clip920)" d="M844.563 220.999 L852.202 220.999 L852.202 194.634 L843.892 196.301 L843.892 192.041 L852.156 190.375 L856.832 190.375 L856.832 220.999 L864.471 220.999 L864.471 224.935 L844.563 224.935 L844.563 220.999 Z" fill="#000000" fill-rule="nonzero" fill-opacity="1" /><path clip-path="url(#clip920)" d="M872.642 188.963 L876.346 188.963 Q879.818 194.426 881.531 199.657 Q883.267 204.888 883.267 210.05 Q883.267 215.236 881.531 220.49 Q879.818 225.745 876.346 231.185 L872.642 231.185 Q875.721 225.884 877.225 220.652 Q878.753 215.398 878.753 210.05 Q878.753 204.703 877.225 199.495 Q875.721 194.287 872.642 188.963 Z" fill="#000000" fill-rule="nonzero" fill-opacity="1" /><polyline clip-path="url(#clip920)" style="stroke:#e26f46; stroke-linecap:round; stroke-linejoin:round; stroke-width:8; stroke-opacity:1; fill:none" points="331.773,259.495 452.678,259.495 "/>
<path clip-path="url(#clip920)" d="M472.829 242.215 L477.505 242.215 L477.505 259.298 L494.218 242.215 L500.213 242.215 L486.857 255.872 L500.908 276.775 L495.815 276.775 L483.825 258.974 L477.505 265.432 L477.505 276.775 L472.829 276.775 L472.829 242.215 Z" fill="#000000" fill-rule="nonzero" fill-opacity="1" /><path clip-path="url(#clip920)" d="M518.084 263.742 Q512.922 263.742 510.931 264.923 Q508.94 266.103 508.94 268.951 Q508.94 271.219 510.422 272.562 Q511.926 273.881 514.496 273.881 Q518.037 273.881 520.167 271.381 Q522.32 268.858 522.32 264.691 L522.32 263.742 L518.084 263.742 M526.579 261.983 L526.579 276.775 L522.32 276.775 L522.32 272.839 Q520.861 275.201 518.686 276.335 Q516.51 277.446 513.362 277.446 Q509.38 277.446 507.019 275.224 Q504.681 272.978 504.681 269.228 Q504.681 264.853 507.598 262.631 Q510.537 260.409 516.348 260.409 L522.32 260.409 L522.32 259.992 Q522.32 257.053 520.375 255.455 Q518.454 253.835 514.959 253.835 Q512.737 253.835 510.63 254.367 Q508.524 254.9 506.579 255.965 L506.579 252.029 Q508.917 251.127 511.116 250.687 Q513.315 250.224 515.399 250.224 Q521.024 250.224 523.801 253.14 Q526.579 256.057 526.579 261.983 Z" fill="#000000" fill-rule="nonzero" fill-opacity="1" /><path clip-path="url(#clip920)" d="M532.273 250.849 L557.111 250.849 L557.111 254.252 L546.787 254.252 L546.787 276.775 L542.597 276.775 L542.597 254.252 L532.273 254.252 L532.273 250.849 Z" fill="#000000" fill-rule="nonzero" fill-opacity="1" /><path clip-path="url(#clip920)" d="M585.144 262.747 L585.144 264.83 L565.56 264.83 Q565.838 269.228 568.199 271.543 Q570.583 273.835 574.82 273.835 Q577.273 273.835 579.565 273.233 Q581.88 272.631 584.148 271.427 L584.148 275.455 Q581.857 276.427 579.449 276.937 Q577.042 277.446 574.565 277.446 Q568.361 277.446 564.727 273.835 Q561.116 270.224 561.116 264.066 Q561.116 257.701 564.542 253.974 Q567.991 250.224 573.824 250.224 Q579.056 250.224 582.088 253.603 Q585.144 256.96 585.144 262.747 M580.884 261.497 Q580.838 258.002 578.917 255.918 Q577.019 253.835 573.87 253.835 Q570.306 253.835 568.153 255.849 Q566.023 257.863 565.699 261.52 L580.884 261.497 Z" fill="#000000" fill-rule="nonzero" fill-opacity="1" /><path clip-path="url(#clip920)" d="M596.255 272.886 L596.255 286.636 L591.972 286.636 L591.972 250.849 L596.255 250.849 L596.255 254.784 Q597.597 252.469 599.634 251.358 Q601.694 250.224 604.542 250.224 Q609.264 250.224 612.204 253.974 Q615.167 257.724 615.167 263.835 Q615.167 269.946 612.204 273.696 Q609.264 277.446 604.542 277.446 Q601.694 277.446 599.634 276.335 Q597.597 275.201 596.255 272.886 M610.745 263.835 Q610.745 259.136 608.801 256.474 Q606.88 253.789 603.5 253.789 Q600.12 253.789 598.176 256.474 Q596.255 259.136 596.255 263.835 Q596.255 268.534 598.176 271.219 Q600.12 273.881 603.5 273.881 Q606.88 273.881 608.801 271.219 Q610.745 268.534 610.745 263.835 Z" fill="#000000" fill-rule="nonzero" fill-opacity="1" /><path clip-path="url(#clip920)" d="M647.527 240.803 Q644.426 246.127 642.921 251.335 Q641.416 256.543 641.416 261.89 Q641.416 267.238 642.921 272.492 Q644.449 277.724 647.527 283.025 L643.824 283.025 Q640.352 277.585 638.615 272.33 Q636.903 267.076 636.903 261.89 Q636.903 256.728 638.615 251.497 Q640.328 246.266 643.824 240.803 L647.527 240.803 Z" fill="#000000" fill-rule="nonzero" fill-opacity="1" /><path clip-path="url(#clip920)" d="M674.449 251.844 L674.449 255.826 Q672.643 254.83 670.814 254.344 Q669.009 253.835 667.157 253.835 Q663.013 253.835 660.722 256.474 Q658.43 259.09 658.43 263.835 Q658.43 268.58 660.722 271.219 Q663.013 273.835 667.157 273.835 Q669.009 273.835 670.814 273.349 Q672.643 272.839 674.449 271.844 L674.449 275.779 Q672.666 276.613 670.745 277.029 Q668.847 277.446 666.694 277.446 Q660.838 277.446 657.389 273.765 Q653.939 270.085 653.939 263.835 Q653.939 257.492 657.412 253.858 Q660.907 250.224 666.972 250.224 Q668.939 250.224 670.814 250.641 Q672.689 251.034 674.449 251.844 Z" fill="#000000" fill-rule="nonzero" fill-opacity="1" /><path clip-path="url(#clip920)" d="M679.148 276.775 L679.148 273.233 Q683.361 272.585 684.657 269.668 Q686.231 265.571 686.231 255.085 L686.231 250.849 L703.754 250.849 L703.754 276.775 L699.495 276.775 L699.495 254.252 L690.49 254.252 L690.49 256.821 Q690.49 266.821 688.453 271.312 Q686.277 276.103 679.148 276.775 Z" fill="#000000" fill-rule="nonzero" fill-opacity="1" /><path clip-path="url(#clip920)" d="M722.944 279.182 Q721.138 283.812 719.425 285.224 Q717.712 286.636 714.842 286.636 L711.439 286.636 L711.439 283.071 L713.939 283.071 Q715.698 283.071 716.671 282.238 Q717.643 281.404 718.823 278.302 L719.587 276.358 L709.101 250.849 L713.615 250.849 L721.717 271.127 L729.819 250.849 L734.333 250.849 L722.944 279.182 Z" fill="#000000" fill-rule="nonzero" fill-opacity="1" /><path clip-path="url(#clip920)" d="M755.189 276.775 L755.189 265.872 L747.249 265.872 Q743.708 265.872 741.346 263.673 Q739.217 261.682 739.217 257.423 L739.217 250.849 L743.476 250.849 L743.476 257.029 Q743.476 259.738 744.68 261.103 Q745.907 262.469 748.314 262.469 L755.189 262.469 L755.189 250.849 L759.448 250.849 L759.448 276.775 L755.189 276.775 Z" fill="#000000" fill-rule="nonzero" fill-opacity="1" /><path clip-path="url(#clip920)" d="M780.004 263.742 Q774.842 263.742 772.851 264.923 Q770.86 266.103 770.86 268.951 Q770.86 271.219 772.342 272.562 Q773.846 273.881 776.416 273.881 Q779.957 273.881 782.087 271.381 Q784.24 268.858 784.24 264.691 L784.24 263.742 L780.004 263.742 M788.499 261.983 L788.499 276.775 L784.24 276.775 L784.24 272.839 Q782.781 275.201 780.605 276.335 Q778.43 277.446 775.281 277.446 Q771.3 277.446 768.939 275.224 Q766.601 272.978 766.601 269.228 Q766.601 264.853 769.518 262.631 Q772.457 260.409 778.268 260.409 L784.24 260.409 L784.24 259.992 Q784.24 257.053 782.295 255.455 Q780.374 253.835 776.879 253.835 Q774.656 253.835 772.55 254.367 Q770.443 254.9 768.499 255.965 L768.499 252.029 Q770.837 251.127 773.036 250.687 Q775.235 250.224 777.318 250.224 Q782.943 250.224 785.721 253.14 Q788.499 256.057 788.499 261.983 Z" fill="#000000" fill-rule="nonzero" fill-opacity="1" /><path clip-path="url(#clip920)" d="M819.309 250.849 L819.309 276.775 L815.073 276.775 L815.073 255.965 L802.573 276.775 L797.11 276.775 L797.11 250.849 L801.346 250.849 L801.346 271.613 L813.823 250.849 L819.309 250.849 M800.976 240.756 L803.707 240.756 Q803.962 242.492 805.073 243.372 Q806.207 244.229 808.221 244.229 Q810.212 244.229 811.323 243.372 Q812.434 242.516 812.735 240.756 L815.466 240.756 Q815.235 244.066 813.406 245.733 Q811.578 247.4 808.221 247.4 Q804.865 247.4 803.036 245.733 Q801.207 244.066 800.976 240.756 Z" fill="#000000" fill-rule="nonzero" fill-opacity="1" /><path clip-path="url(#clip920)" d="M847.781 272.839 L864.1 272.839 L864.1 276.775 L842.156 276.775 L842.156 272.839 Q844.818 270.085 849.401 265.455 Q854.008 260.802 855.188 259.46 Q857.434 256.937 858.313 255.201 Q859.216 253.441 859.216 251.752 Q859.216 248.997 857.272 247.261 Q855.35 245.525 852.249 245.525 Q850.05 245.525 847.596 246.289 Q845.165 247.053 842.388 248.603 L842.388 243.881 Q845.212 242.747 847.665 242.168 Q850.119 241.59 852.156 241.59 Q857.526 241.59 860.721 244.275 Q863.915 246.96 863.915 251.451 Q863.915 253.58 863.105 255.502 Q862.318 257.4 860.212 259.992 Q859.633 260.664 856.531 263.881 Q853.429 267.076 847.781 272.839 Z" fill="#000000" fill-rule="nonzero" fill-opacity="1" /><path clip-path="url(#clip920)" d="M872.642 240.803 L876.346 240.803 Q879.818 246.266 881.531 251.497 Q883.267 256.728 883.267 261.89 Q883.267 267.076 881.531 272.33 Q879.818 277.585 876.346 283.025 L872.642 283.025 Q875.721 277.724 877.225 272.492 Q878.753 267.238 878.753 261.89 Q878.753 256.543 877.225 251.335 Q875.721 246.127 872.642 240.803 Z" fill="#000000" fill-rule="nonzero" fill-opacity="1" /><polyline clip-path="url(#clip920)" style="stroke:#3da44d; stroke-linecap:round; stroke-linejoin:round; stroke-width:8; stroke-opacity:1; fill:none" stroke-dasharray="32, 20" points="331.773,311.335 452.678,311.335 "/>
<path clip-path="url(#clip920)" d="M472.829 328.615 L472.829 324.679 Q477.852 323.592 479.288 319.795 Q481.302 313.823 481.302 299.934 L481.302 294.055 L501.857 294.055 L501.857 328.615 L497.181 328.615 L497.181 297.99 L485.954 297.99 L485.954 302.249 Q485.954 315.351 483.593 321.462 Q481.325 327.318 472.829 328.615 Z" fill="#000000" fill-rule="nonzero" fill-opacity="1" /><path clip-path="url(#clip920)" d="M521.047 305.675 Q517.621 305.675 515.63 308.36 Q513.639 311.022 513.639 315.675 Q513.639 320.328 515.607 323.013 Q517.598 325.675 521.047 325.675 Q524.449 325.675 526.44 322.99 Q528.431 320.304 528.431 315.675 Q528.431 311.068 526.44 308.383 Q524.449 305.675 521.047 305.675 M521.047 302.064 Q526.602 302.064 529.773 305.675 Q532.945 309.286 532.945 315.675 Q532.945 322.041 529.773 325.675 Q526.602 329.286 521.047 329.286 Q515.468 329.286 512.297 325.675 Q509.149 322.041 509.149 315.675 Q509.149 309.286 512.297 305.675 Q515.468 302.064 521.047 302.064 Z" fill="#000000" fill-rule="nonzero" fill-opacity="1" /><path clip-path="url(#clip920)" d="M545.792 325.212 L558.153 325.212 L558.153 306.092 L549.195 306.092 L549.195 309.332 Q549.195 318.869 546.463 323.962 L545.792 325.212 M539.611 325.212 Q541.718 324.286 542.644 322.318 Q544.912 317.434 544.912 307.596 L544.912 302.689 L562.435 302.689 L562.435 325.212 L565.838 325.212 L565.838 335.166 L562.435 335.166 L562.435 328.615 L541.417 328.615 L541.417 335.166 L538.014 335.166 L538.014 325.212 L539.611 325.212 Z" fill="#000000" fill-rule="nonzero" fill-opacity="1" /><path clip-path="url(#clip920)" d="M572.62 302.689 L576.857 302.689 L576.857 314.865 L588.87 302.689 L594.102 302.689 L584.194 312.712 L595.375 328.615 L590.606 328.615 L581.417 315.536 L576.857 320.166 L576.857 328.615 L572.62 328.615 L572.62 302.689 Z" fill="#000000" fill-rule="nonzero" fill-opacity="1" /><path clip-path="url(#clip920)" d="M613.199 315.582 Q608.037 315.582 606.046 316.763 Q604.055 317.943 604.055 320.791 Q604.055 323.059 605.537 324.402 Q607.042 325.721 609.611 325.721 Q613.153 325.721 615.282 323.221 Q617.435 320.698 617.435 316.531 L617.435 315.582 L613.199 315.582 M621.694 313.823 L621.694 328.615 L617.435 328.615 L617.435 324.679 Q615.977 327.041 613.801 328.175 Q611.625 329.286 608.477 329.286 Q604.495 329.286 602.134 327.064 Q599.796 324.818 599.796 321.068 Q599.796 316.693 602.713 314.471 Q605.653 312.249 611.463 312.249 L617.435 312.249 L617.435 311.832 Q617.435 308.893 615.491 307.295 Q613.569 305.675 610.074 305.675 Q607.852 305.675 605.745 306.207 Q603.639 306.74 601.694 307.805 L601.694 303.869 Q604.032 302.967 606.231 302.527 Q608.43 302.064 610.514 302.064 Q616.139 302.064 618.917 304.98 Q621.694 307.897 621.694 313.823 Z" fill="#000000" fill-rule="nonzero" fill-opacity="1" /><path clip-path="url(#clip920)" d="M655.768 292.643 Q652.666 297.967 651.162 303.175 Q649.657 308.383 649.657 313.73 Q649.657 319.078 651.162 324.332 Q652.689 329.564 655.768 334.865 L652.064 334.865 Q648.592 329.425 646.856 324.17 Q645.143 318.916 645.143 313.73 Q645.143 308.568 646.856 303.337 Q648.569 298.106 652.064 292.643 L655.768 292.643 Z" fill="#000000" fill-rule="nonzero" fill-opacity="1" /><path clip-path="url(#clip920)" d="M678.754 306.138 Q677.25 306.138 677.25 309.494 L677.25 325.374 Q679.449 325.374 681.648 322.967 Q683.615 320.814 683.615 315.652 Q683.615 310.837 681.625 308.244 Q680.004 306.138 678.754 306.138 M678.754 302.504 Q681.995 302.504 684.935 305.559 Q688.106 308.823 688.106 315.652 Q688.106 321.925 684.935 325.652 Q681.949 329.17 677.25 329.17 L677.25 338.476 L673.013 338.476 L673.013 329.193 Q668.407 329.193 665.305 325.652 Q662.157 322.041 662.157 315.675 Q662.157 309.055 665.305 305.675 Q667.666 303.152 671.509 302.504 L671.509 306.277 Q669.981 306.809 668.638 308.615 Q666.648 311.277 666.648 315.675 Q666.648 320.351 668.638 323.013 Q670.421 325.397 673.013 325.397 L673.013 309.494 Q673.013 302.504 678.754 302.504 Z" fill="#000000" fill-rule="nonzero" fill-opacity="1" /><path clip-path="url(#clip920)" d="M710.93 307.087 L740.606 307.087 L740.606 310.976 L710.93 310.976 L710.93 307.087 M710.93 316.531 L740.606 316.531 L740.606 320.467 L710.93 320.467 L710.93 316.531 Z" fill="#000000" fill-rule="nonzero" fill-opacity="1" /><path clip-path="url(#clip920)" d="M778.615 298.129 L766.809 316.578 L778.615 316.578 L778.615 298.129 M777.388 294.055 L783.267 294.055 L783.267 316.578 L788.198 316.578 L788.198 320.467 L783.267 320.467 L783.267 328.615 L778.615 328.615 L778.615 320.467 L763.013 320.467 L763.013 315.953 L777.388 294.055 Z" fill="#000000" fill-rule="nonzero" fill-opacity="1" /><path clip-path="url(#clip920)" d="M795.976 294.055 L814.332 294.055 L814.332 297.99 L800.258 297.99 L800.258 306.462 Q801.277 306.115 802.295 305.953 Q803.314 305.768 804.332 305.768 Q810.119 305.768 813.499 308.939 Q816.878 312.11 816.878 317.527 Q816.878 323.105 813.406 326.207 Q809.934 329.286 803.615 329.286 Q801.439 329.286 799.17 328.916 Q796.925 328.545 794.517 327.804 L794.517 323.105 Q796.601 324.24 798.823 324.795 Q801.045 325.351 803.522 325.351 Q807.527 325.351 809.865 323.244 Q812.203 321.138 812.203 317.527 Q812.203 313.916 809.865 311.809 Q807.527 309.703 803.522 309.703 Q801.647 309.703 799.772 310.119 Q797.92 310.536 795.976 311.416 L795.976 294.055 Z" fill="#000000" fill-rule="nonzero" fill-opacity="1" /><path clip-path="url(#clip920)" d="M832.874 296.416 Q831.022 296.416 829.749 297.712 Q828.476 298.985 828.476 300.837 Q828.476 302.666 829.749 303.939 Q831.022 305.189 832.874 305.189 Q834.726 305.189 835.999 303.939 Q837.272 302.666 837.272 300.837 Q837.272 299.008 835.976 297.712 Q834.702 296.416 832.874 296.416 M832.874 293.43 Q834.355 293.43 835.721 294.008 Q837.087 294.564 838.082 295.629 Q839.147 296.67 839.679 297.99 Q840.212 299.309 840.212 300.837 Q840.212 303.893 838.059 306.022 Q835.929 308.129 832.827 308.129 Q829.702 308.129 827.619 306.045 Q825.536 303.962 825.536 300.837 Q825.536 297.735 827.665 295.582 Q829.795 293.43 832.874 293.43 Z" fill="#000000" fill-rule="nonzero" fill-opacity="1" /><path clip-path="url(#clip920)" d="M848.522 292.643 L852.225 292.643 Q855.698 298.106 857.411 303.337 Q859.147 308.568 859.147 313.73 Q859.147 318.916 857.411 324.17 Q855.698 329.425 852.225 334.865 L848.522 334.865 Q851.6 329.564 853.105 324.332 Q854.633 319.078 854.633 313.73 Q854.633 308.383 853.105 303.175 Q851.6 297.967 848.522 292.643 Z" fill="#000000" fill-rule="nonzero" fill-opacity="1" /><circle clip-path="url(#clip920)" cx="392.225" cy="363.175" r="21.6847" fill="#c271d2" fill-rule="evenodd" fill-opacity="1" stroke="#000000" stroke-opacity="1" stroke-width="2.02391"/>
<path clip-path="url(#clip920)" d="M477.505 363.95 L477.505 376.612 L485.005 376.612 Q488.778 376.612 490.584 375.061 Q492.413 373.487 492.413 370.269 Q492.413 367.029 490.584 365.501 Q488.778 363.95 485.005 363.95 L477.505 363.95 M477.505 349.737 L477.505 360.154 L484.426 360.154 Q487.852 360.154 489.519 358.881 Q491.209 357.584 491.209 354.946 Q491.209 352.33 489.519 351.033 Q487.852 349.737 484.426 349.737 L477.505 349.737 M472.829 345.895 L484.774 345.895 Q490.121 345.895 493.014 348.117 Q495.908 350.339 495.908 354.436 Q495.908 357.608 494.426 359.483 Q492.945 361.358 490.075 361.82 Q493.524 362.561 495.422 364.922 Q497.343 367.26 497.343 370.779 Q497.343 375.408 494.195 377.931 Q491.047 380.455 485.237 380.455 L472.829 380.455 L472.829 345.895 Z" fill="#000000" fill-rule="nonzero" fill-opacity="1" /><path clip-path="url(#clip920)" d="M523.824 355.524 L523.824 359.506 Q522.019 358.51 520.19 358.024 Q518.385 357.515 516.533 357.515 Q512.389 357.515 510.098 360.154 Q507.806 362.77 507.806 367.515 Q507.806 372.26 510.098 374.899 Q512.389 377.515 516.533 377.515 Q518.385 377.515 520.19 377.029 Q522.019 376.519 523.824 375.524 L523.824 379.459 Q522.042 380.293 520.121 380.709 Q518.223 381.126 516.07 381.126 Q510.213 381.126 506.764 377.445 Q503.315 373.765 503.315 367.515 Q503.315 361.172 506.787 357.538 Q510.283 353.904 516.348 353.904 Q518.315 353.904 520.19 354.321 Q522.065 354.714 523.824 355.524 Z" fill="#000000" fill-rule="nonzero" fill-opacity="1" /><path clip-path="url(#clip920)" d="M528.153 354.529 L552.991 354.529 L552.991 357.932 L542.667 357.932 L542.667 380.455 L538.477 380.455 L538.477 357.932 L528.153 357.932 L528.153 354.529 Z" fill="#000000" fill-rule="nonzero" fill-opacity="1" /><path clip-path="url(#clip920)" d="M562.968 376.566 L562.968 390.316 L558.685 390.316 L558.685 354.529 L562.968 354.529 L562.968 358.464 Q564.31 356.149 566.347 355.038 Q568.408 353.904 571.255 353.904 Q575.977 353.904 578.917 357.654 Q581.88 361.404 581.88 367.515 Q581.88 373.626 578.917 377.376 Q575.977 381.126 571.255 381.126 Q568.408 381.126 566.347 380.015 Q564.31 378.881 562.968 376.566 M577.458 367.515 Q577.458 362.816 575.514 360.154 Q573.593 357.469 570.213 357.469 Q566.833 357.469 564.889 360.154 Q562.968 362.816 562.968 367.515 Q562.968 372.214 564.889 374.899 Q566.833 377.561 570.213 377.561 Q573.593 377.561 575.514 374.899 Q577.458 372.214 577.458 367.515 Z" fill="#000000" fill-rule="nonzero" fill-opacity="1" /><path clip-path="url(#clip920)" d="M611.116 366.427 L611.116 368.51 L591.532 368.51 Q591.81 372.908 594.171 375.223 Q596.556 377.515 600.792 377.515 Q603.245 377.515 605.537 376.913 Q607.852 376.311 610.12 375.107 L610.12 379.135 Q607.829 380.107 605.421 380.617 Q603.014 381.126 600.537 381.126 Q594.333 381.126 590.699 377.515 Q587.088 373.904 587.088 367.746 Q587.088 361.381 590.514 357.654 Q593.963 353.904 599.796 353.904 Q605.028 353.904 608.06 357.283 Q611.116 360.64 611.116 366.427 M606.856 365.177 Q606.81 361.682 604.889 359.598 Q602.991 357.515 599.843 357.515 Q596.278 357.515 594.125 359.529 Q591.995 361.543 591.671 365.2 L606.856 365.177 Z" fill="#000000" fill-rule="nonzero" fill-opacity="1" /><path clip-path="url(#clip920)" d="M633.083 380.455 L633.083 369.552 L625.143 369.552 Q621.602 369.552 619.241 367.353 Q617.111 365.362 617.111 361.103 L617.111 354.529 L621.37 354.529 L621.37 360.709 Q621.37 363.418 622.574 364.783 Q623.801 366.149 626.208 366.149 L633.083 366.149 L633.083 354.529 L637.342 354.529 L637.342 380.455 L633.083 380.455 Z" fill="#000000" fill-rule="nonzero" fill-opacity="1" /><path clip-path="url(#clip920)" d="M657.898 367.422 Q652.736 367.422 650.745 368.603 Q648.754 369.783 648.754 372.631 Q648.754 374.899 650.236 376.242 Q651.74 377.561 654.31 377.561 Q657.851 377.561 659.981 375.061 Q662.134 372.538 662.134 368.371 L662.134 367.422 L657.898 367.422 M666.393 365.663 L666.393 380.455 L662.134 380.455 L662.134 376.519 Q660.676 378.881 658.5 380.015 Q656.324 381.126 653.176 381.126 Q649.194 381.126 646.833 378.904 Q644.495 376.658 644.495 372.908 Q644.495 368.533 647.412 366.311 Q650.352 364.089 656.162 364.089 L662.134 364.089 L662.134 363.672 Q662.134 360.733 660.189 359.135 Q658.268 357.515 654.773 357.515 Q652.551 357.515 650.444 358.047 Q648.338 358.58 646.393 359.645 L646.393 355.709 Q648.731 354.807 650.93 354.367 Q653.129 353.904 655.213 353.904 Q660.838 353.904 663.615 356.82 Q666.393 359.737 666.393 365.663 Z" fill="#000000" fill-rule="nonzero" fill-opacity="1" /><path clip-path="url(#clip920)" d="M700.467 344.483 Q697.365 349.807 695.861 355.015 Q694.356 360.223 694.356 365.57 Q694.356 370.918 695.861 376.172 Q697.388 381.404 700.467 386.705 L696.763 386.705 Q693.291 381.265 691.555 376.01 Q689.842 370.756 689.842 365.57 Q689.842 360.408 691.555 355.177 Q693.268 349.946 696.763 344.483 L700.467 344.483 Z" fill="#000000" fill-rule="nonzero" fill-opacity="1" /><path clip-path="url(#clip920)" d="M710.143 376.519 L717.782 376.519 L717.782 350.154 L709.472 351.821 L709.472 347.561 L717.735 345.895 L722.411 345.895 L722.411 376.519 L730.05 376.519 L730.05 380.455 L710.143 380.455 L710.143 376.519 Z" fill="#000000" fill-rule="nonzero" fill-opacity="1" /><path clip-path="url(#clip920)" d="M738.221 344.483 L741.925 344.483 Q745.397 349.946 747.11 355.177 Q748.846 360.408 748.846 365.57 Q748.846 370.756 747.11 376.01 Q745.397 381.265 741.925 386.705 L738.221 386.705 Q741.3 381.404 742.805 376.172 Q744.333 370.918 744.333 365.57 Q744.333 360.223 742.805 355.015 Q741.3 349.807 738.221 344.483 Z" fill="#000000" fill-rule="nonzero" fill-opacity="1" /><circle clip-path="url(#clip920)" cx="392.225" cy="415.015" r="21.6847" fill="#ac8d18" fill-rule="evenodd" fill-opacity="1" stroke="#000000" stroke-opacity="1" stroke-width="2.02391"/>
<path clip-path="url(#clip920)" d="M477.505 415.79 L477.505 428.452 L485.005 428.452 Q488.778 428.452 490.584 426.901 Q492.413 425.327 492.413 422.109 Q492.413 418.869 490.584 417.341 Q488.778 415.79 485.005 415.79 L477.505 415.79 M477.505 401.577 L477.505 411.994 L484.426 411.994 Q487.852 411.994 489.519 410.721 Q491.209 409.424 491.209 406.786 Q491.209 404.17 489.519 402.873 Q487.852 401.577 484.426 401.577 L477.505 401.577 M472.829 397.735 L484.774 397.735 Q490.121 397.735 493.014 399.957 Q495.908 402.179 495.908 406.276 Q495.908 409.448 494.426 411.323 Q492.945 413.198 490.075 413.66 Q493.524 414.401 495.422 416.762 Q497.343 419.1 497.343 422.619 Q497.343 427.248 494.195 429.771 Q491.047 432.295 485.237 432.295 L472.829 432.295 L472.829 397.735 Z" fill="#000000" fill-rule="nonzero" fill-opacity="1" /><path clip-path="url(#clip920)" d="M523.824 407.364 L523.824 411.346 Q522.019 410.35 520.19 409.864 Q518.385 409.355 516.533 409.355 Q512.389 409.355 510.098 411.994 Q507.806 414.61 507.806 419.355 Q507.806 424.1 510.098 426.739 Q512.389 429.355 516.533 429.355 Q518.385 429.355 520.19 428.869 Q522.019 428.359 523.824 427.364 L523.824 431.299 Q522.042 432.133 520.121 432.549 Q518.223 432.966 516.07 432.966 Q510.213 432.966 506.764 429.285 Q503.315 425.605 503.315 419.355 Q503.315 413.012 506.787 409.378 Q510.283 405.744 516.348 405.744 Q518.315 405.744 520.19 406.161 Q522.065 406.554 523.824 407.364 Z" fill="#000000" fill-rule="nonzero" fill-opacity="1" /><path clip-path="url(#clip920)" d="M528.153 406.369 L552.991 406.369 L552.991 409.772 L542.667 409.772 L542.667 432.295 L538.477 432.295 L538.477 409.772 L528.153 409.772 L528.153 406.369 Z" fill="#000000" fill-rule="nonzero" fill-opacity="1" /><path clip-path="url(#clip920)" d="M562.968 428.406 L562.968 442.156 L558.685 442.156 L558.685 406.369 L562.968 406.369 L562.968 410.304 Q564.31 407.989 566.347 406.878 Q568.408 405.744 571.255 405.744 Q575.977 405.744 578.917 409.494 Q581.88 413.244 581.88 419.355 Q581.88 425.466 578.917 429.216 Q575.977 432.966 571.255 432.966 Q568.408 432.966 566.347 431.855 Q564.31 430.721 562.968 428.406 M577.458 419.355 Q577.458 414.656 575.514 411.994 Q573.593 409.309 570.213 409.309 Q566.833 409.309 564.889 411.994 Q562.968 414.656 562.968 419.355 Q562.968 424.054 564.889 426.739 Q566.833 429.401 570.213 429.401 Q573.593 429.401 575.514 426.739 Q577.458 424.054 577.458 419.355 Z" fill="#000000" fill-rule="nonzero" fill-opacity="1" /><path clip-path="url(#clip920)" d="M611.116 418.267 L611.116 420.35 L591.532 420.35 Q591.81 424.748 594.171 427.063 Q596.556 429.355 600.792 429.355 Q603.245 429.355 605.537 428.753 Q607.852 428.151 610.12 426.947 L610.12 430.975 Q607.829 431.947 605.421 432.457 Q603.014 432.966 600.537 432.966 Q594.333 432.966 590.699 429.355 Q587.088 425.744 587.088 419.586 Q587.088 413.221 590.514 409.494 Q593.963 405.744 599.796 405.744 Q605.028 405.744 608.06 409.123 Q611.116 412.48 611.116 418.267 M606.856 417.017 Q606.81 413.522 604.889 411.438 Q602.991 409.355 599.843 409.355 Q596.278 409.355 594.125 411.369 Q591.995 413.383 591.671 417.04 L606.856 417.017 Z" fill="#000000" fill-rule="nonzero" fill-opacity="1" /><path clip-path="url(#clip920)" d="M633.083 432.295 L633.083 421.392 L625.143 421.392 Q621.602 421.392 619.241 419.193 Q617.111 417.202 617.111 412.943 L617.111 406.369 L621.37 406.369 L621.37 412.549 Q621.37 415.258 622.574 416.623 Q623.801 417.989 626.208 417.989 L633.083 417.989 L633.083 406.369 L637.342 406.369 L637.342 432.295 L633.083 432.295 Z" fill="#000000" fill-rule="nonzero" fill-opacity="1" /><path clip-path="url(#clip920)" d="M657.898 419.262 Q652.736 419.262 650.745 420.443 Q648.754 421.623 648.754 424.471 Q648.754 426.739 650.236 428.082 Q651.74 429.401 654.31 429.401 Q657.851 429.401 659.981 426.901 Q662.134 424.378 662.134 420.211 L662.134 419.262 L657.898 419.262 M666.393 417.503 L666.393 432.295 L662.134 432.295 L662.134 428.359 Q660.676 430.721 658.5 431.855 Q656.324 432.966 653.176 432.966 Q649.194 432.966 646.833 430.744 Q644.495 428.498 644.495 424.748 Q644.495 420.373 647.412 418.151 Q650.352 415.929 656.162 415.929 L662.134 415.929 L662.134 415.512 Q662.134 412.573 660.189 410.975 Q658.268 409.355 654.773 409.355 Q652.551 409.355 650.444 409.887 Q648.338 410.42 646.393 411.485 L646.393 407.549 Q648.731 406.647 650.93 406.207 Q653.129 405.744 655.213 405.744 Q660.838 405.744 663.615 408.66 Q666.393 411.577 666.393 417.503 Z" fill="#000000" fill-rule="nonzero" fill-opacity="1" /><path clip-path="url(#clip920)" d="M700.467 396.323 Q697.365 401.647 695.861 406.855 Q694.356 412.063 694.356 417.41 Q694.356 422.758 695.861 428.012 Q697.388 433.244 700.467 438.545 L696.763 438.545 Q693.291 433.105 691.555 427.85 Q689.842 422.596 689.842 417.41 Q689.842 412.248 691.555 407.017 Q693.268 401.786 696.763 396.323 L700.467 396.323 Z" fill="#000000" fill-rule="nonzero" fill-opacity="1" /><path clip-path="url(#clip920)" d="M713.36 428.359 L729.68 428.359 L729.68 432.295 L707.735 432.295 L707.735 428.359 Q710.397 425.605 714.981 420.975 Q719.587 416.322 720.768 414.98 Q723.013 412.457 723.893 410.721 Q724.796 408.961 724.796 407.272 Q724.796 404.517 722.851 402.781 Q720.93 401.045 717.828 401.045 Q715.629 401.045 713.175 401.809 Q710.745 402.573 707.967 404.123 L707.967 399.401 Q710.791 398.267 713.245 397.688 Q715.698 397.11 717.735 397.11 Q723.106 397.11 726.3 399.795 Q729.495 402.48 729.495 406.971 Q729.495 409.1 728.684 411.022 Q727.897 412.92 725.791 415.512 Q725.212 416.184 722.11 419.401 Q719.009 422.596 713.36 428.359 Z" fill="#000000" fill-rule="nonzero" fill-opacity="1" /><path clip-path="url(#clip920)" d="M738.221 396.323 L741.925 396.323 Q745.397 401.786 747.11 407.017 Q748.846 412.248 748.846 417.41 Q748.846 422.596 747.11 427.85 Q745.397 433.105 741.925 438.545 L738.221 438.545 Q741.3 433.244 742.805 428.012 Q744.333 422.758 744.333 417.41 Q744.333 412.063 742.805 406.855 Q741.3 401.647 738.221 396.323 Z" fill="#000000" fill-rule="nonzero" fill-opacity="1" /><path clip-path="url(#clip920)" d="M369.47 444.099 L369.47 489.61 L414.981 489.61 L414.981 444.099 L369.47 444.099 Z" fill="#00a9ad" fill-rule="evenodd" fill-opacity="1" stroke="#000000" stroke-opacity="1" stroke-width="3.82293"/>
<path clip-path="url(#clip920)" d="M500.7 452.237 L500.7 457.167 Q498.338 454.968 495.653 453.88 Q492.991 452.792 489.982 452.792 Q484.056 452.792 480.908 456.426 Q477.76 460.038 477.76 466.889 Q477.76 473.718 480.908 477.352 Q484.056 480.963 489.982 480.963 Q492.991 480.963 495.653 479.875 Q498.338 478.787 500.7 476.588 L500.7 481.473 Q498.246 483.139 495.491 483.973 Q492.76 484.806 489.704 484.806 Q481.857 484.806 477.343 480.014 Q472.829 475.199 472.829 466.889 Q472.829 458.556 477.343 453.764 Q481.857 448.95 489.704 448.95 Q492.806 448.95 495.538 449.783 Q498.292 450.593 500.7 452.237 Z" fill="#000000" fill-rule="nonzero" fill-opacity="1" /><path clip-path="url(#clip920)" d="M504.658 458.209 L529.496 458.209 L529.496 461.612 L519.172 461.612 L519.172 484.135 L514.982 484.135 L514.982 461.612 L504.658 461.612 L504.658 458.209 Z" fill="#000000" fill-rule="nonzero" fill-opacity="1" /><path clip-path="url(#clip920)" d="M547.134 471.102 Q541.972 471.102 539.982 472.283 Q537.991 473.463 537.991 476.311 Q537.991 478.579 539.472 479.922 Q540.977 481.241 543.547 481.241 Q547.088 481.241 549.218 478.741 Q551.371 476.218 551.371 472.051 L551.371 471.102 L547.134 471.102 M555.63 469.343 L555.63 484.135 L551.371 484.135 L551.371 480.199 Q549.912 482.561 547.736 483.695 Q545.56 484.806 542.412 484.806 Q538.431 484.806 536.07 482.584 Q533.732 480.338 533.732 476.588 Q533.732 472.213 536.648 469.991 Q539.588 467.769 545.398 467.769 L551.371 467.769 L551.371 467.352 Q551.371 464.413 549.426 462.815 Q547.505 461.195 544.01 461.195 Q541.787 461.195 539.681 461.727 Q537.574 462.26 535.63 463.325 L535.63 459.389 Q537.968 458.487 540.167 458.047 Q542.366 457.584 544.449 457.584 Q550.074 457.584 552.852 460.5 Q555.63 463.417 555.63 469.343 Z" fill="#000000" fill-rule="nonzero" fill-opacity="1" /><path clip-path="url(#clip920)" d="M568.523 480.246 L568.523 493.996 L564.241 493.996 L564.241 458.209 L568.523 458.209 L568.523 462.144 Q569.866 459.829 571.903 458.718 Q573.963 457.584 576.81 457.584 Q581.532 457.584 584.472 461.334 Q587.435 465.084 587.435 471.195 Q587.435 477.306 584.472 481.056 Q581.532 484.806 576.81 484.806 Q573.963 484.806 571.903 483.695 Q569.866 482.561 568.523 480.246 M583.014 471.195 Q583.014 466.496 581.069 463.834 Q579.148 461.149 575.769 461.149 Q572.389 461.149 570.445 463.834 Q568.523 466.496 568.523 471.195 Q568.523 475.894 570.445 478.579 Q572.389 481.241 575.769 481.241 Q579.148 481.241 581.069 478.579 Q583.014 475.894 583.014 471.195 Z" fill="#000000" fill-rule="nonzero" fill-opacity="1" /><path clip-path="url(#clip920)" d="M591.417 458.209 L616.254 458.209 L616.254 461.612 L605.93 461.612 L605.93 484.135 L601.741 484.135 L601.741 461.612 L591.417 461.612 L591.417 458.209 Z" fill="#000000" fill-rule="nonzero" fill-opacity="1" /><path clip-path="url(#clip920)" d="M637.018 458.209 L641.254 458.209 L641.254 470.385 L653.268 458.209 L658.5 458.209 L648.592 468.232 L659.773 484.135 L655.004 484.135 L645.815 471.056 L641.254 475.686 L641.254 484.135 L637.018 484.135 L637.018 458.209 Z" fill="#000000" fill-rule="nonzero" fill-opacity="1" /><path clip-path="url(#clip920)" d="M677.597 471.102 Q672.435 471.102 670.444 472.283 Q668.453 473.463 668.453 476.311 Q668.453 478.579 669.935 479.922 Q671.439 481.241 674.009 481.241 Q677.55 481.241 679.68 478.741 Q681.833 476.218 681.833 472.051 L681.833 471.102 L677.597 471.102 M686.092 469.343 L686.092 484.135 L681.833 484.135 L681.833 480.199 Q680.375 482.561 678.199 483.695 Q676.023 484.806 672.875 484.806 Q668.893 484.806 666.532 482.584 Q664.194 480.338 664.194 476.588 Q664.194 472.213 667.111 469.991 Q670.05 467.769 675.861 467.769 L681.833 467.769 L681.833 467.352 Q681.833 464.413 679.888 462.815 Q677.967 461.195 674.472 461.195 Q672.25 461.195 670.143 461.727 Q668.037 462.26 666.092 463.325 L666.092 459.389 Q668.43 458.487 670.629 458.047 Q672.828 457.584 674.912 457.584 Q680.537 457.584 683.314 460.5 Q686.092 463.417 686.092 469.343 Z" fill="#000000" fill-rule="nonzero" fill-opacity="1" /><path clip-path="url(#clip920)" d="M691.786 458.209 L716.624 458.209 L716.624 461.612 L706.3 461.612 L706.3 484.135 L702.111 484.135 L702.111 461.612 L691.786 461.612 L691.786 458.209 Z" fill="#000000" fill-rule="nonzero" fill-opacity="1" /><path clip-path="url(#clip920)" d="M744.657 470.107 L744.657 472.19 L725.073 472.19 Q725.351 476.588 727.712 478.903 Q730.096 481.195 734.333 481.195 Q736.786 481.195 739.078 480.593 Q741.393 479.991 743.661 478.787 L743.661 482.815 Q741.37 483.787 738.962 484.297 Q736.555 484.806 734.078 484.806 Q727.874 484.806 724.24 481.195 Q720.629 477.584 720.629 471.426 Q720.629 465.061 724.055 461.334 Q727.504 457.584 733.337 457.584 Q738.569 457.584 741.601 460.963 Q744.657 464.32 744.657 470.107 M740.397 468.857 Q740.351 465.362 738.43 463.278 Q736.532 461.195 733.383 461.195 Q729.819 461.195 727.666 463.209 Q725.536 465.223 725.212 468.88 L740.397 468.857 Z" fill="#000000" fill-rule="nonzero" fill-opacity="1" /><path clip-path="url(#clip920)" d="M755.768 480.246 L755.768 493.996 L751.485 493.996 L751.485 458.209 L755.768 458.209 L755.768 462.144 Q757.11 459.829 759.147 458.718 Q761.207 457.584 764.055 457.584 Q768.777 457.584 771.717 461.334 Q774.68 465.084 774.68 471.195 Q774.68 477.306 771.717 481.056 Q768.777 484.806 764.055 484.806 Q761.207 484.806 759.147 483.695 Q757.11 482.561 755.768 480.246 M770.258 471.195 Q770.258 466.496 768.314 463.834 Q766.393 461.149 763.013 461.149 Q759.633 461.149 757.689 463.834 Q755.768 466.496 755.768 471.195 Q755.768 475.894 757.689 478.579 Q759.633 481.241 763.013 481.241 Q766.393 481.241 768.314 478.579 Q770.258 475.894 770.258 471.195 Z" fill="#000000" fill-rule="nonzero" fill-opacity="1" /><path clip-path="url(#clip920)" d="M793.522 471.102 Q788.36 471.102 786.369 472.283 Q784.379 473.463 784.379 476.311 Q784.379 478.579 785.86 479.922 Q787.365 481.241 789.934 481.241 Q793.476 481.241 795.605 478.741 Q797.758 476.218 797.758 472.051 L797.758 471.102 L793.522 471.102 M802.017 469.343 L802.017 484.135 L797.758 484.135 L797.758 480.199 Q796.3 482.561 794.124 483.695 Q791.948 484.806 788.8 484.806 Q784.818 484.806 782.457 482.584 Q780.119 480.338 780.119 476.588 Q780.119 472.213 783.036 469.991 Q785.976 467.769 791.786 467.769 L797.758 467.769 L797.758 467.352 Q797.758 464.413 795.814 462.815 Q793.892 461.195 790.397 461.195 Q788.175 461.195 786.068 461.727 Q783.962 462.26 782.017 463.325 L782.017 459.389 Q784.355 458.487 786.554 458.047 Q788.754 457.584 790.837 457.584 Q796.462 457.584 799.24 460.5 Q802.017 463.417 802.017 469.343 Z" fill="#000000" fill-rule="nonzero" fill-opacity="1" /><path clip-path="url(#clip920)" d="M836.091 448.163 Q832.989 453.487 831.485 458.695 Q829.98 463.903 829.98 469.25 Q829.98 474.598 831.485 479.852 Q833.013 485.084 836.091 490.385 L832.388 490.385 Q828.915 484.945 827.179 479.69 Q825.466 474.436 825.466 469.25 Q825.466 464.088 827.179 458.857 Q828.892 453.626 832.388 448.163 L836.091 448.163 Z" fill="#000000" fill-rule="nonzero" fill-opacity="1" /><path clip-path="url(#clip920)" d="M845.767 480.199 L853.406 480.199 L853.406 453.834 L845.096 455.501 L845.096 451.241 L853.36 449.575 L858.036 449.575 L858.036 480.199 L865.674 480.199 L865.674 484.135 L845.767 484.135 L845.767 480.199 Z" fill="#000000" fill-rule="nonzero" fill-opacity="1" /><path clip-path="url(#clip920)" d="M873.846 448.163 L877.549 448.163 Q881.022 453.626 882.735 458.857 Q884.471 464.088 884.471 469.25 Q884.471 474.436 882.735 479.69 Q881.022 484.945 877.549 490.385 L873.846 490.385 Q876.924 485.084 878.429 479.852 Q879.957 474.598 879.957 469.25 Q879.957 463.903 878.429 458.695 Q876.924 453.487 873.846 448.163 Z" fill="#000000" fill-rule="nonzero" fill-opacity="1" /><path clip-path="url(#clip920)" d="M369.47 495.939 L369.47 541.45 L414.981 541.45 L414.981 495.939 L369.47 495.939 Z" fill="#ed5d92" fill-rule="evenodd" fill-opacity="1" stroke="#000000" stroke-opacity="1" stroke-width="3.82293"/>
<path clip-path="url(#clip920)" d="M500.7 504.077 L500.7 509.007 Q498.338 506.808 495.653 505.72 Q492.991 504.632 489.982 504.632 Q484.056 504.632 480.908 508.266 Q477.76 511.878 477.76 518.729 Q477.76 525.558 480.908 529.192 Q484.056 532.803 489.982 532.803 Q492.991 532.803 495.653 531.715 Q498.338 530.627 500.7 528.428 L500.7 533.313 Q498.246 534.979 495.491 535.813 Q492.76 536.646 489.704 536.646 Q481.857 536.646 477.343 531.854 Q472.829 527.039 472.829 518.729 Q472.829 510.396 477.343 505.604 Q481.857 500.79 489.704 500.79 Q492.806 500.79 495.538 501.623 Q498.292 502.433 500.7 504.077 Z" fill="#000000" fill-rule="nonzero" fill-opacity="1" /><path clip-path="url(#clip920)" d="M504.658 510.049 L529.496 510.049 L529.496 513.452 L519.172 513.452 L519.172 535.975 L514.982 535.975 L514.982 513.452 L504.658 513.452 L504.658 510.049 Z" fill="#000000" fill-rule="nonzero" fill-opacity="1" /><path clip-path="url(#clip920)" d="M547.134 522.942 Q541.972 522.942 539.982 524.123 Q537.991 525.303 537.991 528.151 Q537.991 530.419 539.472 531.762 Q540.977 533.081 543.547 533.081 Q547.088 533.081 549.218 530.581 Q551.371 528.058 551.371 523.891 L551.371 522.942 L547.134 522.942 M555.63 521.183 L555.63 535.975 L551.371 535.975 L551.371 532.039 Q549.912 534.401 547.736 535.535 Q545.56 536.646 542.412 536.646 Q538.431 536.646 536.07 534.424 Q533.732 532.178 533.732 528.428 Q533.732 524.053 536.648 521.831 Q539.588 519.609 545.398 519.609 L551.371 519.609 L551.371 519.192 Q551.371 516.253 549.426 514.655 Q547.505 513.035 544.01 513.035 Q541.787 513.035 539.681 513.567 Q537.574 514.1 535.63 515.165 L535.63 511.229 Q537.968 510.327 540.167 509.887 Q542.366 509.424 544.449 509.424 Q550.074 509.424 552.852 512.34 Q555.63 515.257 555.63 521.183 Z" fill="#000000" fill-rule="nonzero" fill-opacity="1" /><path clip-path="url(#clip920)" d="M568.523 532.086 L568.523 545.836 L564.241 545.836 L564.241 510.049 L568.523 510.049 L568.523 513.984 Q569.866 511.669 571.903 510.558 Q573.963 509.424 576.81 509.424 Q581.532 509.424 584.472 513.174 Q587.435 516.924 587.435 523.035 Q587.435 529.146 584.472 532.896 Q581.532 536.646 576.81 536.646 Q573.963 536.646 571.903 535.535 Q569.866 534.401 568.523 532.086 M583.014 523.035 Q583.014 518.336 581.069 515.674 Q579.148 512.989 575.769 512.989 Q572.389 512.989 570.445 515.674 Q568.523 518.336 568.523 523.035 Q568.523 527.734 570.445 530.419 Q572.389 533.081 575.769 533.081 Q579.148 533.081 581.069 530.419 Q583.014 527.734 583.014 523.035 Z" fill="#000000" fill-rule="nonzero" fill-opacity="1" /><path clip-path="url(#clip920)" d="M591.417 510.049 L616.254 510.049 L616.254 513.452 L605.93 513.452 L605.93 535.975 L601.741 535.975 L601.741 513.452 L591.417 513.452 L591.417 510.049 Z" fill="#000000" fill-rule="nonzero" fill-opacity="1" /><path clip-path="url(#clip920)" d="M637.018 510.049 L641.254 510.049 L641.254 522.225 L653.268 510.049 L658.5 510.049 L648.592 520.072 L659.773 535.975 L655.004 535.975 L645.815 522.896 L641.254 527.526 L641.254 535.975 L637.018 535.975 L637.018 510.049 Z" fill="#000000" fill-rule="nonzero" fill-opacity="1" /><path clip-path="url(#clip920)" d="M677.597 522.942 Q672.435 522.942 670.444 524.123 Q668.453 525.303 668.453 528.151 Q668.453 530.419 669.935 531.762 Q671.439 533.081 674.009 533.081 Q677.55 533.081 679.68 530.581 Q681.833 528.058 681.833 523.891 L681.833 522.942 L677.597 522.942 M686.092 521.183 L686.092 535.975 L681.833 535.975 L681.833 532.039 Q680.375 534.401 678.199 535.535 Q676.023 536.646 672.875 536.646 Q668.893 536.646 666.532 534.424 Q664.194 532.178 664.194 528.428 Q664.194 524.053 667.111 521.831 Q670.05 519.609 675.861 519.609 L681.833 519.609 L681.833 519.192 Q681.833 516.253 679.888 514.655 Q677.967 513.035 674.472 513.035 Q672.25 513.035 670.143 513.567 Q668.037 514.1 666.092 515.165 L666.092 511.229 Q668.43 510.327 670.629 509.887 Q672.828 509.424 674.912 509.424 Q680.537 509.424 683.314 512.34 Q686.092 515.257 686.092 521.183 Z" fill="#000000" fill-rule="nonzero" fill-opacity="1" /><path clip-path="url(#clip920)" d="M691.786 510.049 L716.624 510.049 L716.624 513.452 L706.3 513.452 L706.3 535.975 L702.111 535.975 L702.111 513.452 L691.786 513.452 L691.786 510.049 Z" fill="#000000" fill-rule="nonzero" fill-opacity="1" /><path clip-path="url(#clip920)" d="M744.657 521.947 L744.657 524.03 L725.073 524.03 Q725.351 528.428 727.712 530.743 Q730.096 533.035 734.333 533.035 Q736.786 533.035 739.078 532.433 Q741.393 531.831 743.661 530.627 L743.661 534.655 Q741.37 535.627 738.962 536.137 Q736.555 536.646 734.078 536.646 Q727.874 536.646 724.24 533.035 Q720.629 529.424 720.629 523.266 Q720.629 516.901 724.055 513.174 Q727.504 509.424 733.337 509.424 Q738.569 509.424 741.601 512.803 Q744.657 516.16 744.657 521.947 M740.397 520.697 Q740.351 517.202 738.43 515.118 Q736.532 513.035 733.383 513.035 Q729.819 513.035 727.666 515.049 Q725.536 517.063 725.212 520.72 L740.397 520.697 Z" fill="#000000" fill-rule="nonzero" fill-opacity="1" /><path clip-path="url(#clip920)" d="M755.768 532.086 L755.768 545.836 L751.485 545.836 L751.485 510.049 L755.768 510.049 L755.768 513.984 Q757.11 511.669 759.147 510.558 Q761.207 509.424 764.055 509.424 Q768.777 509.424 771.717 513.174 Q774.68 516.924 774.68 523.035 Q774.68 529.146 771.717 532.896 Q768.777 536.646 764.055 536.646 Q761.207 536.646 759.147 535.535 Q757.11 534.401 755.768 532.086 M770.258 523.035 Q770.258 518.336 768.314 515.674 Q766.393 512.989 763.013 512.989 Q759.633 512.989 757.689 515.674 Q755.768 518.336 755.768 523.035 Q755.768 527.734 757.689 530.419 Q759.633 533.081 763.013 533.081 Q766.393 533.081 768.314 530.419 Q770.258 527.734 770.258 523.035 Z" fill="#000000" fill-rule="nonzero" fill-opacity="1" /><path clip-path="url(#clip920)" d="M793.522 522.942 Q788.36 522.942 786.369 524.123 Q784.379 525.303 784.379 528.151 Q784.379 530.419 785.86 531.762 Q787.365 533.081 789.934 533.081 Q793.476 533.081 795.605 530.581 Q797.758 528.058 797.758 523.891 L797.758 522.942 L793.522 522.942 M802.017 521.183 L802.017 535.975 L797.758 535.975 L797.758 532.039 Q796.3 534.401 794.124 535.535 Q791.948 536.646 788.8 536.646 Q784.818 536.646 782.457 534.424 Q780.119 532.178 780.119 528.428 Q780.119 524.053 783.036 521.831 Q785.976 519.609 791.786 519.609 L797.758 519.609 L797.758 519.192 Q797.758 516.253 795.814 514.655 Q793.892 513.035 790.397 513.035 Q788.175 513.035 786.068 513.567 Q783.962 514.1 782.017 515.165 L782.017 511.229 Q784.355 510.327 786.554 509.887 Q788.754 509.424 790.837 509.424 Q796.462 509.424 799.24 512.34 Q802.017 515.257 802.017 521.183 Z" fill="#000000" fill-rule="nonzero" fill-opacity="1" /><path clip-path="url(#clip920)" d="M836.091 500.003 Q832.989 505.327 831.485 510.535 Q829.98 515.743 829.98 521.09 Q829.98 526.438 831.485 531.692 Q833.013 536.924 836.091 542.225 L832.388 542.225 Q828.915 536.785 827.179 531.53 Q825.466 526.276 825.466 521.09 Q825.466 515.928 827.179 510.697 Q828.892 505.466 832.388 500.003 L836.091 500.003 Z" fill="#000000" fill-rule="nonzero" fill-opacity="1" /><path clip-path="url(#clip920)" d="M848.985 532.039 L865.304 532.039 L865.304 535.975 L843.36 535.975 L843.36 532.039 Q846.022 529.285 850.605 524.655 Q855.212 520.002 856.392 518.66 Q858.637 516.137 859.517 514.401 Q860.42 512.641 860.42 510.952 Q860.42 508.197 858.475 506.461 Q856.554 504.725 853.452 504.725 Q851.253 504.725 848.8 505.489 Q846.369 506.253 843.591 507.803 L843.591 503.081 Q846.415 501.947 848.869 501.368 Q851.323 500.79 853.36 500.79 Q858.73 500.79 861.924 503.475 Q865.119 506.16 865.119 510.651 Q865.119 512.78 864.309 514.702 Q863.522 516.6 861.415 519.192 Q860.837 519.864 857.735 523.081 Q854.633 526.276 848.985 532.039 Z" fill="#000000" fill-rule="nonzero" fill-opacity="1" /><path clip-path="url(#clip920)" d="M873.846 500.003 L877.549 500.003 Q881.022 505.466 882.735 510.697 Q884.471 515.928 884.471 521.09 Q884.471 526.276 882.735 531.53 Q881.022 536.785 877.549 542.225 L873.846 542.225 Q876.924 536.924 878.429 531.692 Q879.957 526.438 879.957 521.09 Q879.957 515.743 878.429 510.535 Q876.924 505.327 873.846 500.003 Z" fill="#000000" fill-rule="nonzero" fill-opacity="1" /></svg>
